<?xml version="1.0" standalone="no"?>
<!DOCTYPE svg PUBLIC "-//W3C//DTD SVG 1.1//EN" "http://www.w3.org/Graphics/SVG/1.1/DTD/svg11.dtd" >
<svg xmlns="http://www.w3.org/2000/svg" xmlns:xlink="http://www.w3.org/1999/xlink" version="1.1">
<metadata>
Created by FontForge 20150102 at Fri Mar 13 11:45:28 2015
 By uniteet7
Copyright (c) 2004-7 by Kris Sowersby. All rights reserved.
</metadata>
<defs>
<font id="NationalBookItalic" horiz-adv-x="504" >
  <font-face 
    font-family="NationalBookItalic"
    font-weight="450"
    font-style="italic"
    font-stretch="normal"
    units-per-em="1000"
    panose-1="2 0 5 3 0 0 0 2 0 4"
    ascent="800"
    descent="-200"
    x-height="462"
    cap-height="589"
    bbox="-170 -257 1185 927"
    underline-thickness="57"
    underline-position="28"
    unicode-range="U+0020-F778"
  />
<missing-glyph horiz-adv-x="608" 
 />
    <glyph glyph-name="f_b" unicode="fb" horiz-adv-x="794" 
d="M434 264l-16 -92q-8 -48 19 -89t82 -41q71 0 113.5 68.5t42.5 169.5q0 62 -25 97t-72 35q-52 0 -92.5 -41t-51.5 -107zM312 0l103 591q-41 27 -91 27q-89 0 -107 -102l-9 -54h96l-11 -61h-96l-89 -505q-11 -62 -39 -84.5t-77 -22.5q-53 0 -82 26l18 60q28 -25 56 -25
q21 0 32.5 10t16.5 37l90 504h-71l12 61h69l10 55q30 158 177 158q28 0 60.5 -7.5t45.5 -15.5l79 16l-52 -295q48 100 150 100q73 0 112 -49t39 -141q0 -127 -62.5 -211t-166.5 -84q-51 0 -86 25t-43 63l-30 -76h-54z" />
    <glyph glyph-name="f_f_b" unicode="ffb" horiz-adv-x="1054" 
d="M694 264l-16 -92q-8 -48 19 -89t82 -41q71 0 113.5 68.5t42.5 169.5q0 62 -25 97t-72 35q-52 0 -92.5 -41t-51.5 -107zM572 0l103 591q-41 27 -91 27q-89 0 -107 -102l-9 -54h94l-11 -61h-94l-87 -492q-11 -62 -39 -84.5t-77 -22.5q-53 0 -82 26l18 60q28 -25 56 -25
q21 0 32.5 10t16.5 37l88 491h-186l-89 -505q-11 -62 -39 -84.5t-77 -22.5q-53 0 -82 26l18 60q28 -25 56 -25q21 0 32.5 10t16.5 37l90 504h-71l12 61h69l13 71q26 135 138 135q52 0 92 -29l-31 -63q-33 28 -60 28q-29 0 -43.5 -17.5t-21.5 -56.5l-12 -68h185l10 55
q30 158 177 158q28 0 60.5 -7.5t45.5 -15.5l79 16l-52 -295q48 100 150 100q73 0 112 -49t39 -141q0 -127 -62.5 -211t-166.5 -84q-51 0 -86 25t-43 63l-30 -76h-54z" />
    <glyph glyph-name="f_f_h" unicode="ffh" horiz-adv-x="1036" 
d="M571 0l104 591q-41 27 -91 27q-89 0 -107 -102l-9 -54h94l-11 -61h-94l-87 -492q-11 -62 -39 -84.5t-77 -22.5q-53 0 -82 26l18 60q28 -25 56 -25q21 0 32.5 10t16.5 37l88 491h-186l-89 -505q-11 -62 -39 -84.5t-77 -22.5q-53 0 -82 26l18 60q28 -25 56 -25
q21 0 32.5 10t16.5 37l90 504h-71l12 61h69l13 71q26 135 138 135q52 0 92 -29l-31 -63q-33 28 -60 28q-29 0 -43.5 -17.5t-21.5 -56.5l-12 -68h185l10 55q30 158 177 158q28 0 60.5 -7.5t45.5 -15.5l79 16l-54 -300q51 105 149 105q55 0 86.5 -28t31.5 -81q0 -23 -4 -46
l-38 -219q-8 -45 26 -45q13 0 29 4l-10 -55q-22 -8 -48 -8q-91 0 -73 100l40 224q16 90 -63 90q-46 0 -89 -37t-57 -119l-44 -253h-76z" />
    <glyph glyph-name="f_f_j" unicode="ffj" horiz-adv-x="754" 
d="M643 401h-186l-87 -492q-11 -62 -39 -84.5t-77 -22.5q-53 0 -82 26l18 60q28 -25 56 -25q21 0 32.5 10t16.5 37l88 491h-186l-89 -505q-11 -62 -39 -84.5t-77 -22.5q-53 0 -82 26l18 60q28 -25 56 -25q21 0 32.5 10t16.5 37l90 504h-71l12 61h69l13 71q26 135 138 135
q52 0 92 -29l-31 -63q-33 28 -60 28q-29 0 -43.5 -17.5t-21.5 -56.5l-12 -68h185l10 55q29 158 172 158q58 0 106 -29l-31 -63q-40 28 -78 28t-61.5 -22t-33.5 -77l-9 -50h261l-97 -553q-11 -62 -40 -84.5t-78 -22.5q-53 0 -82 26l18 60q28 -25 56 -25q21 0 32.5 10t16.5 37
z" />
    <glyph glyph-name="f_f_k" unicode="ffk" horiz-adv-x="968" 
d="M571 0l104 591q-41 27 -91 27q-89 0 -107 -102l-9 -54h94l-11 -61h-94l-87 -492q-11 -62 -39 -84.5t-77 -22.5q-53 0 -82 26l18 60q28 -25 56 -25q21 0 32.5 10t16.5 37l88 491h-186l-89 -505q-11 -62 -39 -84.5t-77 -22.5q-53 0 -82 26l18 60q28 -25 56 -25
q21 0 32.5 10t16.5 37l90 504h-71l12 61h69l13 71q26 135 138 135q52 0 92 -29l-31 -63q-33 28 -60 28q-29 0 -43.5 -17.5t-21.5 -56.5l-12 -68h185l10 55q30 158 177 158q28 0 60.5 -7.5t45.5 -15.5l79 16l-68 -385h22l171 179h93l-203 -202l81 -170q14 -28 32.5 -33.5
t50.5 3.5l-11 -57q-24 -8 -53 -8q-50 0 -74 49l-91 184h-28l-40 -228h-76z" />
    <glyph glyph-name="f_h" unicode="fh" horiz-adv-x="776" 
d="M311 0l104 591q-41 27 -91 27q-89 0 -107 -102l-9 -54h96l-11 -61h-96l-89 -505q-11 -62 -39 -84.5t-77 -22.5q-53 0 -82 26l18 60q28 -25 56 -25q21 0 32.5 10t16.5 37l90 504h-71l12 61h69l10 55q30 158 177 158q28 0 60.5 -7.5t45.5 -15.5l79 16l-54 -300
q51 105 149 105q55 0 86.5 -28t31.5 -81q0 -23 -4 -46l-38 -219q-8 -45 26 -45q13 0 29 4l-10 -55q-22 -8 -48 -8q-91 0 -73 100l40 224q16 90 -63 90q-46 0 -89 -37t-57 -119l-44 -253h-76z" />
    <glyph glyph-name="f_j" unicode="fj" horiz-adv-x="494" 
d="M469 462l-97 -553q-11 -62 -40 -84.5t-78 -22.5q-53 0 -82 26l18 60q28 -25 56 -25q21 0 32.5 10t16.5 37l88 491h-186l-89 -505q-11 -62 -39 -84.5t-77 -22.5q-53 0 -82 26l18 60q28 -25 56 -25q21 0 32.5 10t16.5 37l90 504h-71l12 61h69l10 55q29 158 172 158
q58 0 106 -29l-31 -63q-40 28 -78 28t-61.5 -22t-33.5 -77l-9 -50h261z" />
    <glyph glyph-name="f_k" unicode="fk" horiz-adv-x="708" 
d="M311 0l104 591q-41 27 -91 27q-89 0 -107 -102l-9 -54h94l-11 -61h-94l-89 -505q-11 -62 -39 -84.5t-77 -22.5q-53 0 -82 26l18 60q28 -25 56 -25q21 0 32.5 10t16.5 37l90 504h-71l12 61h69l10 55q30 158 177 158q28 0 60.5 -7.5t45.5 -15.5l79 16l-68 -385h22l171 179
h93l-203 -202l81 -170q14 -28 32.5 -33.5t50.5 3.5l-11 -57q-24 -8 -53 -8q-50 0 -74 49l-91 184h-28l-40 -228h-76z" />
    <glyph glyph-name="ff" unicode="ff" horiz-adv-x="546" 
d="M457 401l-87 -492q-11 -62 -39 -84.5t-77 -22.5q-53 0 -82 26l18 60q28 -25 56 -25q21 0 32.5 10t16.5 37l88 491h-186l-89 -505q-11 -62 -39 -84.5t-77 -22.5q-53 0 -82 26l18 60q28 -25 56 -25q21 0 32.5 10t16.5 37l90 504h-71l12 61h69l13 71q26 135 138 135
q52 0 92 -29l-31 -63q-33 28 -60 28q-29 0 -43.5 -17.5t-21.5 -56.5l-12 -68h185l12 64q15 80 54.5 114.5t102.5 34.5q56 0 104 -29l-31 -63q-40 28 -71 28q-37 0 -57 -19.5t-28 -65.5l-11 -64h116l-11 -61h-116z" />
    <glyph glyph-name="ffi" unicode="ffi" horiz-adv-x="779" 
d="M729 462l-64 -363q-8 -45 26 -45q13 0 29 4l-10 -55q-22 -8 -48 -8q-91 0 -73 100l53 306h-185l-87 -492q-11 -62 -39 -84.5t-77 -22.5q-53 0 -82 26l18 60q28 -25 56 -25q21 0 32.5 10t16.5 37l88 491h-186l-89 -505q-11 -62 -39 -84.5t-77 -22.5q-53 0 -82 26l18 60
q28 -25 56 -25q21 0 32.5 10t16.5 37l90 504h-71l12 61h69l13 71q26 135 138 135q52 0 92 -29l-31 -63q-33 28 -60 28q-29 0 -43.5 -17.5t-21.5 -56.5l-12 -68h185l10 55q29 158 172 158q58 0 106 -29l-31 -63q-40 28 -78 28t-61.5 -22t-33.5 -77l-9 -50h261z" />
    <glyph glyph-name="ffl" unicode="ffl" horiz-adv-x="775" 
d="M457 401l-87 -492q-11 -62 -39 -84.5t-77 -22.5q-53 0 -82 26l18 60q28 -25 56 -25q21 0 32.5 10t16.5 37l88 491h-186l-89 -505q-11 -62 -39 -84.5t-77 -22.5q-53 0 -82 26l18 60q28 -25 56 -25q21 0 32.5 10t16.5 37l90 504h-71l12 61h69l13 71q26 135 138 135
q52 0 92 -29l-31 -63q-33 28 -60 28q-29 0 -43.5 -17.5t-21.5 -56.5l-12 -68h185l10 55q30 158 177 158q28 0 60.5 -7.5t45.5 -15.5l79 16l-100 -569q-8 -45 26 -45q13 0 29 4l-10 -55q-22 -8 -48 -8q-91 0 -73 100l86 496q-41 27 -91 27q-89 0 -107 -102l-9 -54h96l-11 -61
h-96z" />
    <glyph glyph-name="fi" unicode="fi" horiz-adv-x="519" 
d="M469 462l-64 -363q-8 -45 26 -45q13 0 29 4l-10 -55q-22 -8 -48 -8q-91 0 -73 100l53 306h-185l-89 -505q-11 -62 -39 -84.5t-77 -22.5q-53 0 -82 26l18 60q28 -25 56 -25q21 0 32.5 10t16.5 37l90 504h-71l12 61h69l10 55q29 158 172 158q58 0 106 -29l-31 -63
q-40 28 -78 28t-61.5 -22t-33.5 -77l-9 -50h261z" />
    <glyph glyph-name="fl" unicode="fl" horiz-adv-x="515" 
d="M197 401l-89 -505q-11 -62 -39 -84.5t-77 -22.5q-53 0 -82 26l18 60q28 -25 56 -25q21 0 32.5 10t16.5 37l90 504h-71l12 61h69l10 55q30 158 177 158q28 0 60.5 -7.5t45.5 -15.5l79 16l-100 -569q-8 -45 26 -45q13 0 29 4l-10 -55q-22 -8 -48 -8q-91 0 -73 100l86 496
q-41 27 -91 27q-89 0 -107 -102l-9 -54h96l-11 -61h-96z" />
    <glyph glyph-name=".notdef" horiz-adv-x="608" 
 />
    <glyph glyph-name=".null" horiz-adv-x="0" 
 />
    <glyph glyph-name="nonmarkingreturn" horiz-adv-x="333" 
 />
    <glyph glyph-name="space" unicode=" " horiz-adv-x="225" 
 />
    <glyph glyph-name="exclam" unicode="!" horiz-adv-x="213" 
d="M123 589h100l-98 -423h-52zM26 51q0 24 16.5 40.5t40.5 16.5t40.5 -16.5t16.5 -40.5t-16.5 -40.5t-40.5 -16.5t-40.5 16.5t-16.5 40.5z" />
    <glyph glyph-name="quotedbl" unicode="&#x22;" horiz-adv-x="281" 
d="M75 412l45 256h87l-84 -256h-48zM214 412l45 256h87l-84 -256h-48z" />
    <glyph glyph-name="numbersign" unicode="#" horiz-adv-x="630" 
d="M543 151h-156l-71 -151h-70l71 151h-99l-71 -151h-70l71 151h-108l11 59h125l43 91h-132l10 59h150l57 121h71l-58 -121h99l57 121h71l-58 -121h114l-10 -59h-132l-43 -91h139zM289 301l-43 -91h99l43 91h-99z" />
    <glyph glyph-name="dollar" unicode="$" horiz-adv-x="445" 
d="M15 122l66 15q-1 -38 24 -62.5t62 -31.5l32 178q-21 7 -41 17q-76 39 -76 113q0 68 45.5 103.5t119.5 38.5l14 81h50l-15 -83q129 -15 129 -126l-69 -12q2 65 -70 81l-29 -163h2q65 -26 90.5 -57.5t25.5 -80.5q0 -68 -45.5 -104t-122.5 -40l-16 -95h-50l17 96
q-65 7 -104 42t-39 90zM304 124q0 29 -12.5 46t-46.5 33l-28 -161q87 9 87 82zM152 362q0 -25 13.5 -40.5t45.5 -30.5l26 145q-85 -8 -85 -74z" />
    <glyph glyph-name="percent" unicode="%" horiz-adv-x="849" 
d="M158 229q-58 0 -88.5 39t-30.5 107q0 53 17 102.5t55 84.5t90 35q56 0 87.5 -40.5t31.5 -109.5q0 -85 -42.5 -151.5t-119.5 -66.5zM195 542q-25 0 -44.5 -18t-29.5 -45.5t-14.5 -53.5t-4.5 -49q1 -44 17 -70.5t46 -26.5q33 0 55.5 32.5t30 68.5t7.5 68q0 94 -63 94z
M190 0l410 590h59l-409 -590h-60zM648 -7q-58 0 -88.5 39t-30.5 107q0 53 17 102.5t55 84.5t90 35q56 0 87.5 -40.5t31.5 -109.5q0 -85 -42.5 -151.5t-119.5 -66.5zM685 306q-25 0 -44.5 -18t-29.5 -45.5t-14.5 -53.5t-4.5 -49q1 -44 17 -70.5t46 -26.5q33 0 55.5 32.5
t30 68.5t7.5 68q0 94 -63 94z" />
    <glyph glyph-name="ampersand" unicode="&#x26;" horiz-adv-x="553" 
d="M510 38l-58 -45l-59 73q-87 -78 -206 -78q-81 0 -124 35.5t-43 104.5q0 65 44 109.5t131 81.5l-22 27q-47 58 -47 115q0 63 49 101.5t117 38.5q71 0 106 -34.5t35 -92.5q0 -104 -140 -169l107 -134q27 38 44 117l69 -15q-30 -101 -73 -152zM93 133q0 -39 26 -63t71 -24
q95 0 168 66l-131 163q-4 -2 -23.5 -13t-23.5 -13.5t-19.5 -12t-20 -13.5t-15.5 -13.5t-14 -16.5t-9 -17t-7.5 -20.5t-1.5 -22.5zM285 547q-38 0 -63 -22.5t-26 -59.5q0 -33 26 -68l35 -47q55 26 80 54.5t25 68.5q0 74 -77 74z" />
    <glyph glyph-name="quotesingle" unicode="'" horiz-adv-x="142" 
d="M75 412l45 256h87l-84 -256h-48z" />
    <glyph glyph-name="parenleft" unicode="(" horiz-adv-x="330" 
d="M145 147q0 -93 26 -175t85 -174h-80q-106 164 -106 348q0 151 69.5 292t181.5 230h89q-122 -106 -193.5 -231.5t-71.5 -289.5z" />
    <glyph glyph-name="parenright" unicode=")" horiz-adv-x="330" 
d="M195 319q0 93 -26 175t-85 174h80q106 -164 106 -348q0 -151 -69.5 -292t-181.5 -230h-89q122 106 193.5 231.5t71.5 289.5z" />
    <glyph glyph-name="asterisk" unicode="*" horiz-adv-x="353" 
d="M275 576l-37 -93l96 18l4 -65l-100 10l46 -92l-62 -22l-23 98l-70 -73l-39 53l86 53l-91 44l37 53l74 -65l15 99z" />
    <glyph glyph-name="plus" unicode="+" horiz-adv-x="496" 
d="M48 271h177l31 174h50l-31 -174h181l-8 -46h-181l-33 -188h-50l33 188h-177z" />
    <glyph glyph-name="comma" unicode="," horiz-adv-x="284" 
d="M185 27q0 -64 -45 -98.5t-115 -39.5v39q41 6 70.5 24.5t29.5 48.5q-29 -6 -47.5 9t-18.5 42q0 26 16.5 41t43.5 15q29 0 47.5 -22t18.5 -59z" />
    <glyph glyph-name="hyphen" unicode="-" horiz-adv-x="375" 
d="M70 224l11 64h224l-11 -64h-224z" />
    <glyph glyph-name="period" unicode="." horiz-adv-x="284" 
d="M50 56q0 26 18 44t44 18t44 -18t18 -44t-18 -44t-44 -18t-44 18t-18 44z" />
    <glyph glyph-name="slash" unicode="/" horiz-adv-x="362" 
d="M-85 -203l424 872h73l-426 -872h-71z" />
    <glyph glyph-name="zero" unicode="0" horiz-adv-x="579" 
d="M264 -12q-108 0 -161 64t-53 161q0 126 76.5 203t187.5 77q109 0 162 -64t53 -161q0 -125 -76.5 -202.5t-188.5 -77.5zM128 213q0 -74 36.5 -118t104.5 -44q79 0 130.5 62t51.5 154q0 73 -37.5 117t-104.5 44q-80 0 -130.5 -61.5t-50.5 -153.5z" />
    <glyph glyph-name="one" unicode="1" horiz-adv-x="354" 
d="M198 0h-78l71 406l-146 -27l12 64l227 46z" />
    <glyph glyph-name="two" unicode="2" horiz-adv-x="449" 
d="M374 64l-11 -64h-353l10 60q151 73 225 138.5t74 145.5q0 40 -22.5 62t-63.5 22q-42 0 -69.5 -25t-27.5 -80l-71 15q3 36 16 64.5t31 45t42 27t44.5 14.5t42.5 4q75 0 116.5 -37.5t41.5 -109.5q0 -52 -28 -100.5t-73 -83t-92.5 -58.5t-94.5 -36v-4h263z" />
    <glyph glyph-name="three" unicode="3" horiz-adv-x="442" 
d="M201 188v-3q154 -13 154 -145q0 -88 -59 -133t-147 -45q-84 0 -129 38.5t-45 101.5l73 15q0 -47 28.5 -71.5t81.5 -24.5q52 0 85.5 29.5t33.5 83.5q0 51 -33.5 82.5t-121.5 40.5l9 61q102 10 147.5 42.5t45.5 91.5q0 38 -24 58.5t-65 20.5q-86 0 -104 -94l-71 16
q13 65 57.5 102.5t123.5 37.5q72 0 116.5 -34t44.5 -100q0 -81 -54.5 -125.5t-146.5 -45.5z" />
    <glyph glyph-name="four" unicode="4" horiz-adv-x="530" 
d="M261 -131l33 185h-284l9 50l347 377h80l-64 -366h98l-11 -61h-97l-33 -185h-78zM189 115h115l27 156q6 34 12.5 64t10.5 43l3 13h-4q-27 -37 -85 -103l-95 -107q-18 -20 -34 -36.5t-23 -22.5l-8 -6v-4q17 3 81 3z" />
    <glyph glyph-name="five" unicode="5" horiz-adv-x="449" 
d="M70 160l68 321h291l-11 -65h-223l-46 -208q30 27 81 27q70 0 109 -45.5t38 -112.5q-1 -102 -63 -158.5t-157 -56.5q-81 0 -124 38t-43 102l73 16q0 -97 104 -97q54 0 93.5 36.5t39.5 108.5q0 52 -26.5 83t-75.5 31q-39 0 -67 -20h-61z" />
    <glyph glyph-name="six" unicode="6" horiz-adv-x="514" 
d="M504 482l-72 -27q-17 86 -97 86q-79 0 -138 -74.5t-77 -204.5h4q22 57 68.5 84.5t101.5 27.5q79 0 123.5 -44t44.5 -118q0 -101 -59.5 -162.5t-161.5 -61.5q-191 0 -191 227q0 92 31 178t99 147t158 61q141 0 166 -119zM276 311q-62 0 -103 -40t-41 -107
q0 -55 29.5 -85.5t81.5 -30.5q62 0 102.5 42t40.5 113q0 50 -29.5 79t-80.5 29z" />
    <glyph glyph-name="seven" unicode="7" horiz-adv-x="474" 
d="M299 415h-171l-14 -75h-73l25 141h393l-9 -51l-334 -561h-81l283 476q15 25 28 43t18 23l5 5v4q-20 -5 -70 -5z" />
    <glyph glyph-name="eight" unicode="8" horiz-adv-x="488" 
d="M213 -12q-83 0 -133 39t-50 104t36.5 108.5t99.5 58.5l1 5q-38 10 -59 41.5t-21 71.5q0 86 62 135.5t152 49.5q74 0 120.5 -39.5t46.5 -105.5q0 -58 -37 -100.5t-92 -55.5l-1 -5q44 -14 69 -48t25 -81q0 -89 -63 -133.5t-156 -44.5zM292 540q-56 0 -90 -33.5t-34 -85.5
q0 -45 25.5 -67.5t67.5 -22.5q56 0 90.5 34.5t34.5 88.5q0 39 -24.5 62.5t-69.5 23.5zM249 267q-60 0 -99 -34.5t-39 -91.5q0 -44 29.5 -69.5t77.5 -25.5q61 0 99 33t38 91q0 46 -29.5 71.5t-76.5 25.5z" />
    <glyph glyph-name="nine" unicode="9" horiz-adv-x="513" 
d="M5 -19l64 32q33 -91 118 -91q167 0 206 295h-4q-22 -58 -67 -85.5t-98 -27.5q-79 0 -125.5 46.5t-46.5 124.5q0 97 59.5 157.5t160.5 60.5q92 0 141.5 -58.5t49.5 -170.5q0 -111 -30 -200.5t-95 -145.5t-156 -56q-141 0 -177 119zM238 167q62 0 102.5 40.5t40.5 108.5
q0 56 -30.5 86.5t-86.5 30.5q-57 0 -96.5 -42.5t-39.5 -111.5q0 -50 29.5 -81t80.5 -31z" />
    <glyph glyph-name="colon" unicode=":" horiz-adv-x="284" 
d="M50 56q0 26 18 44t44 18t44 -18t18 -44t-18 -44t-44 -18t-44 18t-18 44zM114 418q0 26 18 44t44 18t44 -18t18 -44t-18 -44t-44 -18t-44 18t-18 44z" />
    <glyph glyph-name="semicolon" unicode=";" horiz-adv-x="284" 
d="M185 27q0 -64 -45 -98.5t-115 -39.5v39q41 6 70.5 24.5t29.5 48.5q-29 -6 -47.5 9t-18.5 42q0 26 16.5 41t43.5 15q29 0 47.5 -22t18.5 -59zM122 418q0 26 18 44t44 18t44 -18t18 -44t-18 -44t-44 -18t-44 18t-18 44z" />
    <glyph glyph-name="less" unicode="&#x3c;" horiz-adv-x="411" 
d="M381 416l-240 -175l173 -170l-39 -38l-215 214l290 212z" />
    <glyph glyph-name="equal" unicode="=" horiz-adv-x="518" 
d="M448 160h-408l8 46h408zM470 286h-408l8 46h408z" />
    <glyph glyph-name="greater" unicode="&#x3e;" horiz-adv-x="411" 
d="M30 76l240 175l-173 170l39 38l215 -214l-290 -212z" />
    <glyph glyph-name="question" unicode="?" horiz-adv-x="408" 
d="M131 442l-61 26q43 133 183 133q80 0 122.5 -41.5t42.5 -116.5q0 -93 -62 -145t-139 -52l-16 -89h-70l25 135h22q70 0 115.5 35.5t45.5 108.5q0 49 -25.5 75t-72.5 26q-82 0 -110 -95zM94 51q0 24 16.5 40.5t40.5 16.5t40.5 -16.5t16.5 -40.5t-16.5 -40.5t-40.5 -16.5
t-40.5 16.5t-16.5 40.5z" />
    <glyph glyph-name="at" unicode="@" horiz-adv-x="876" 
d="M519 182l7 42q9 55 -16.5 91t-65.5 36q-55 0 -90.5 -52t-35.5 -140q0 -111 76 -111q44 0 80 35t45 99zM610 -12q-102 0 -103 92q-29 -92 -129 -92q-64 0 -99.5 44.5t-35.5 126.5q0 111 55 179.5t135 68.5q44 0 75 -21t37 -64l31 79h57l-56 -288q-6 -36 5 -53t42 -17
q62 0 100.5 60.5t38.5 154.5q0 93 -45 158.5t-114 94.5t-154 29q-65 0 -124 -21t-107 -61t-76 -106t-28 -150q0 -89 29.5 -156.5t81 -107.5t115.5 -60t138 -20q104 0 180 29l14 -57q-90 -30 -195 -30q-67 0 -127 12t-117 41.5t-98 74.5t-66 115t-25 158q0 175 111 285
t298 110q92 0 165.5 -27t119 -72.5t69 -104t23.5 -123.5q0 -129 -58 -205t-163 -76z" />
    <glyph glyph-name="A" unicode="A" horiz-adv-x="577" 
d="M433 0l-31 174h-247l-91 -174h-84l318 589h106l110 -589h-81zM270 392l-82 -154h202q-15 73 -26.5 149t-16 115.5t-3.5 39.5h-4q-22 -59 -70 -150z" />
    <glyph glyph-name="B" unicode="B" horiz-adv-x="506" 
d="M343 300v-4q53 -4 82 -32t29 -78q0 -95 -60.5 -140.5t-163.5 -45.5h-190l103 589h173q160 0 160 -132q0 -69 -38 -110t-95 -47zM177 327h91q127 0 127 118q0 42 -23.5 60.5t-74.5 18.5h-85zM166 263l-35 -198h108q137 0 137 114q0 84 -103 84h-107z" />
    <glyph glyph-name="C" unicode="C" horiz-adv-x="551" 
d="M443 144l61 -34q-69 -122 -223 -122q-106 0 -166 66t-60 173q0 172 86.5 273t213.5 101q157 0 191 -139l-78 -32q-9 52 -42 78.5t-79 26.5q-97 0 -154 -88.5t-57 -213.5q0 -83 40 -131t114 -48q53 0 87.5 19t65.5 71z" />
    <glyph glyph-name="D" unicode="D" horiz-adv-x="583" 
d="M131 65h95q104 0 171 73t67 222q0 164 -173 164h-79zM230 0h-190l103 589h160q123 0 184 -58t61 -165q0 -96 -27.5 -169t-74.5 -114.5t-101.5 -62t-114.5 -20.5z" />
    <glyph glyph-name="E" unicode="E" horiz-adv-x="480" 
d="M403 68l-11 -68h-352l103 589h352l-12 -68h-272l-34 -193h241l-12 -68h-241l-34 -192h272z" />
    <glyph glyph-name="F" unicode="F" horiz-adv-x="452" 
d="M120 0h-80l103 589h334l-12 -68h-254l-34 -193h223l-12 -68h-223z" />
    <glyph glyph-name="G" unicode="G" horiz-adv-x="592" 
d="M317 300h228l-52 -300h-62l-1 75q-40 -87 -150 -87q-105 0 -165 66t-60 173q0 172 87 273t214 101q157 0 191 -139l-78 -32q-9 52 -42 78.5t-79 26.5q-97 0 -154.5 -88.5t-57.5 -213.5q0 -83 39 -131t115 -48q134 0 158 138l7 38h-150z" />
    <glyph glyph-name="H" unicode="H" horiz-adv-x="614" 
d="M120 0h-80l103 589h80l-45 -256h296l45 256h80l-103 -589h-80l46 265h-296z" />
    <glyph glyph-name="I" unicode="I" horiz-adv-x="238" 
d="M143 589h80l-103 -589h-80z" />
    <glyph glyph-name="J" unicode="J" horiz-adv-x="419" 
d="M329 589h80l-77 -434q-16 -90 -59.5 -128.5t-128.5 -38.5q-66 0 -106.5 33t-52.5 88l64 41q22 -99 100 -99q52 0 73 26.5t32 91.5z" />
    <glyph glyph-name="K" unicode="K" horiz-adv-x="508" 
d="M459 0h-89l-147 265h-57l-46 -265h-80l103 589h80l-45 -258h47l228 258h95l-261 -286z" />
    <glyph glyph-name="L" unicode="L" horiz-adv-x="458" 
d="M143 589h80l-92 -521h272l-11 -68h-352z" />
    <glyph glyph-name="M" unicode="M" horiz-adv-x="690" 
d="M365 147h-60l-77 219q-11 30 -17 58t-7 41l-1 13h-4q-2 -37 -14 -108l-65 -370h-80l103 589h94l91 -283q7 -22 11.5 -43t5.5 -31l1 -9h4q8 31 41 80l190 286h94l-103 -589h-80l65 370q5 32 11 59t10 38l3 11h-4q-16 -38 -62 -107z" />
    <glyph glyph-name="N" unicode="N" horiz-adv-x="613" 
d="M226 589l159 -348q14 -31 26.5 -64.5t17.5 -50.5l5 -18h4q8 71 21 145l59 336h80l-103 -589h-81l-163 346q-14 30 -26.5 63t-18.5 51l-6 19h-4q-4 -69 -17 -143l-59 -336h-80l103 589h83z" />
    <glyph glyph-name="O" unicode="O" horiz-adv-x="616" 
d="M281 -12q-106 0 -166 66t-60 173q0 172 86.5 273t213.5 101q106 0 166 -66.5t60 -173.5q0 -172 -86.5 -272.5t-213.5 -100.5zM347 534q-97 0 -154 -88t-57 -213q0 -83 40 -131t114 -48q96 0 153 88t57 213q0 79 -37.5 129t-115.5 50z" />
    <glyph glyph-name="P" unicode="P" horiz-adv-x="480" 
d="M212 524l-42 -235h88q69 0 107 38.5t38 108.5q0 45 -25 66.5t-80 21.5h-86zM120 0h-80l103 589h164q92 0 135 -36t43 -111q0 -104 -64 -160.5t-167 -56.5h-95z" />
    <glyph glyph-name="Q" unicode="Q" horiz-adv-x="621" 
d="M586 361q0 -167 -82 -267t-205 -105q26 -43 69.5 -54t103.5 -6l-26 -72q-94 -2 -155 34.5t-73 105.5q-76 19 -117 80.5t-41 149.5q0 172 86.5 273t213.5 101q106 0 166 -66.5t60 -173.5zM352 534q-97 0 -154 -88t-57 -213q0 -83 40 -131t114 -48q96 0 153 88t57 213
q0 79 -37.5 129t-115.5 50z" />
    <glyph glyph-name="R" unicode="R" horiz-adv-x="535" 
d="M478 0h-85q-14 17 -20 53l-18 107q-9 54 -32.5 72t-75.5 18h-83l-44 -250h-80l103 589h195q91 0 129 -35.5t38 -103.5q0 -81 -50 -124.5t-113 -46.5v-4q41 -5 61 -26t29 -70l21 -118q6 -34 25 -61zM212 524l-37 -210h113q135 0 135 125q0 44 -23 64.5t-75 20.5h-113z" />
    <glyph glyph-name="S" unicode="S" horiz-adv-x="479" 
d="M20 144l72 13q-1 -56 29.5 -82.5t87.5 -26.5q58 0 90.5 26.5t32.5 79.5q0 45 -23 70t-85 49q-67 26 -100.5 58.5t-33.5 99.5q0 60 33 100.5t75 55t88 14.5q89 0 133.5 -36t44.5 -119l-75 -12q2 52 -26 79.5t-83 27.5q-52 0 -84 -26.5t-32 -72.5q0 -43 23 -62t87 -45
q71 -30 104 -66.5t33 -104.5q0 -87 -59.5 -131.5t-150.5 -44.5q-181 0 -181 156z" />
    <glyph glyph-name="T" unicode="T" horiz-adv-x="473" 
d="M234 0h-80l91 521h-175l12 68h431l-12 -68h-176z" />
    <glyph glyph-name="U" unicode="U" horiz-adv-x="582" 
d="M497 589h80l-71 -404q-34 -197 -247 -197q-101 0 -156.5 56.5t-34.5 175.5l64 369h80l-66 -378q-14 -81 20 -119.5t102 -38.5q67 0 107 34t54 114z" />
    <glyph glyph-name="V" unicode="V" horiz-adv-x="529" 
d="M161 589l55 -391q6 -41 9 -77.5t3 -52.5l1 -17h4q18 54 63 146l194 392h84l-298 -589h-106l-90 589h81z" />
    <glyph glyph-name="W" unicode="W" horiz-adv-x="822" 
d="M512 589l35 -384q4 -42 6 -81t2 -58v-18h4q16 62 54 156l157 385h82l-251 -589h-110l-33 366q-4 48 -3.5 82t2.5 54l2 19h-4q-14 -61 -55 -155l-159 -366h-110l-31 589h78l16 -382l3 -159h4q13 65 55 158l168 383h88z" />
    <glyph glyph-name="X" unicode="X" horiz-adv-x="536" 
d="M391 0l-90 173q-12 24 -19 42t-8 24l-1 6h-4q-4 -15 -52 -73l-143 -172h-94l257 301l-144 288h87l77 -158q12 -25 19 -44t8 -25l1 -7h3q3 13 53 75l128 159h92l-241 -286l153 -303h-82z" />
    <glyph glyph-name="Y" unicode="Y" horiz-adv-x="494" 
d="M167 589l68 -202q9 -28 15 -53.5t7 -37.5l1 -11h4q12 38 52 101l130 203h85l-238 -357l-40 -232h-80l40 232l-126 357h82z" />
    <glyph glyph-name="Z" unicode="Z" horiz-adv-x="508" 
d="M7 41l343 410q21 25 40.5 43t27.5 24l9 5v4q-33 -6 -96 -6h-226l12 68h406l-10 -51l-336 -400q-21 -25 -40.5 -43t-28.5 -23l-8 -6v-4q33 6 96 6h237l-11 -68h-422z" />
    <glyph glyph-name="bracketleft" unicode="[" horiz-adv-x="317" 
d="M234 612l-133 -758h143l-10 -57h-214l153 872h214l-10 -57h-143z" />
    <glyph glyph-name="backslash" unicode="\" horiz-adv-x="337" 
d="M165 669l122 -872h-65l-122 872h65z" />
    <glyph glyph-name="bracketright" unicode="]" horiz-adv-x="317" 
d="M83 -146l133 758h-143l10 57h214l-153 -872h-214l10 57h143z" />
    <glyph glyph-name="asciicircum" unicode="^" horiz-adv-x="499" 
d="M445 321l-59 175q-13 38 -19.5 67.5t-6.5 40.5v10h-4q-8 -32 -68 -117l-124 -176h-78l251 347h60l128 -347h-80z" />
    <glyph glyph-name="underscore" unicode="_" horiz-adv-x="482" 
d="M0 -83l11 61h381l-11 -61h-381z" />
    <glyph glyph-name="grave" unicode="`" horiz-adv-x="340" 
d="M260 530h-65l-115 143h105z" />
    <glyph glyph-name="a" unicode="a" horiz-adv-x="525" 
d="M351 193l14 78q10 56 -14 99t-77 43q-69 0 -114.5 -64t-45.5 -163q0 -61 26.5 -98t75.5 -37q52 0 88 38t47 104zM475 462l-64 -363q-8 -45 26 -45q13 0 29 4l-10 -55q-22 -8 -48 -8q-38 0 -56.5 21t-15.5 61q-40 -89 -141 -89q-69 0 -112 50t-43 139q0 122 64 209t163 87
q102 0 120 -89l25 78h63z" />
    <glyph glyph-name="b" unicode="b" horiz-adv-x="522" 
d="M162 267l-16 -89q-8 -47 19 -87t82 -40q72 0 114.5 66.5t42.5 165.5q0 60 -25 94.5t-72 34.5q-53 0 -93.5 -40.5t-51.5 -104.5zM124 76l-30 -76h-54l117 668h76l-52 -295q48 100 150 100q73 0 112 -49t39 -141q0 -127 -62.5 -211t-166.5 -84q-51 0 -86 25t-43 63z" />
    <glyph glyph-name="c" unicode="c" horiz-adv-x="440" 
d="M337 141l70 -16q-51 -137 -194 -137q-78 0 -125.5 51.5t-47.5 143.5q0 75 25.5 139.5t80 107.5t127.5 43q147 0 147 -145l-71 -12q-2 94 -85 94q-69 0 -109.5 -66.5t-40.5 -149.5q0 -72 28.5 -109.5t80.5 -37.5q82 0 114 94z" />
    <glyph glyph-name="d" unicode="d" horiz-adv-x="521" 
d="M351 192l15 79q10 56 -14.5 98.5t-77.5 42.5q-70 0 -115.5 -64t-45.5 -163q0 -60 26.5 -97t75.5 -37q53 0 89 37.5t47 103.5zM511 668l-100 -569q-8 -45 26 -45q13 0 29 4l-10 -55q-22 -8 -48 -8q-38 0 -56.5 21t-15.5 61q-33 -89 -141 -89q-69 0 -112 50t-43 139
q0 122 64 209t163 87q101 0 119 -89l50 284h75z" />
    <glyph glyph-name="e" unicode="e" horiz-adv-x="459" 
d="M223 47q49 0 74.5 19.5t39.5 59.5l69 -17q-24 -67 -71 -94t-119 -27q-82 0 -129 53t-47 143q0 133 67.5 211t157.5 78q83 0 123.5 -47.5t40.5 -117.5q0 -51 -20 -94h-298q-6 -68 22 -117.5t90 -49.5zM120 275h231q5 14 5 35q0 44 -24.5 73.5t-70.5 29.5q-54 0 -90 -39
t-51 -99z" />
    <glyph glyph-name="f" unicode="f" horiz-adv-x="286" 
d="M33 -103l90 504h-71l12 61h69l12 64q15 80 54.5 114.5t102.5 34.5q56 0 104 -29l-31 -63q-40 28 -71 28q-37 0 -57 -19.5t-28 -65.5l-11 -64h116l-11 -61h-116l-89 -505q-11 -62 -39 -84.5t-77 -22.5q-53 0 -82 26l18 60q28 -25 56 -25q21 0 32.5 10t16.5 37z" />
    <glyph glyph-name="g" unicode="g" horiz-adv-x="500" 
d="M351 190l15 81q10 56 -13.5 99t-76.5 43q-71 0 -116.5 -64.5t-45.5 -163.5q0 -61 25.5 -97.5t75.5 -36.5q54 0 89.5 36.5t46.5 102.5zM475 462l-84 -477q-18 -101 -71 -148.5t-153 -47.5q-86 0 -128 35.5t-49 92.5l68 23q3 -41 33.5 -68t80.5 -27q62 0 95.5 34.5
t46.5 102.5l18 93q-38 -86 -135 -86q-70 0 -113.5 50t-43.5 139q0 121 65 208t165 87q99 0 117 -89l25 78h63z" />
    <glyph glyph-name="h" unicode="h" horiz-adv-x="505" 
d="M443 318l-38 -219q-8 -45 26 -45q13 0 29 4l-10 -55q-22 -8 -48 -8q-91 0 -73 100l40 224q16 90 -63 90q-46 0 -89 -37t-57 -119l-44 -253h-76l116 668h78l-54 -300q51 105 149 105q55 0 86.5 -28t31.5 -81q0 -23 -4 -46z" />
    <glyph glyph-name="i" unicode="i" horiz-adv-x="243" 
d="M193 462l-64 -363q-8 -45 26 -45q13 0 29 4l-10 -55q-22 -8 -48 -8q-91 0 -73 100l64 367h76zM125 612q0 23 15.5 39t37.5 16q23 0 39 -16t16 -39q0 -22 -16.5 -38t-38.5 -16t-37.5 16t-15.5 38z" />
    <glyph glyph-name="j" unicode="j" horiz-adv-x="218" 
d="M193 462l-94 -532q-13 -78 -51.5 -109.5t-100.5 -31.5q-54 0 -87 26l26 60q33 -25 68 -25q54 0 68 78l95 534h76zM125 612q0 23 15.5 39t37.5 16q23 0 39 -16t16 -39q0 -22 -16.5 -38t-38.5 -16t-37.5 16t-15.5 38z" />
    <glyph glyph-name="k" unicode="k" horiz-adv-x="437" 
d="M274 44l-91 184h-27l-40 -228h-76l117 668h77l-68 -385h22l171 179h93l-203 -202l81 -170q14 -28 32.5 -33.5t50.5 3.5l-11 -57q-24 -8 -53 -8q-51 0 -75 49z" />
    <glyph glyph-name="l" unicode="l" horiz-adv-x="239" 
d="M229 668l-100 -569q-8 -45 26 -45q13 0 29 4l-10 -55q-22 -8 -48 -8q-91 0 -73 100l100 573h76z" />
    <glyph glyph-name="m" unicode="m" horiz-adv-x="755" 
d="M376 0h-75l57 319q16 90 -63 90q-41 0 -81 -37.5t-54 -118.5l-44 -253h-76l81 462h66l-7 -94q26 54 58.5 79.5t86.5 25.5q49 0 80 -29.5t31 -82.5q25 56 60.5 84t89.5 28q50 0 80.5 -28.5t30.5 -80.5q0 -23 -4 -46l-38 -219q-8 -45 26 -45q13 0 29 4l-10 -55
q-22 -8 -48 -8q-91 0 -73 100l40 224q16 90 -63 90q-41 0 -81 -37.5t-54 -118.5z" />
    <glyph glyph-name="n" unicode="n" horiz-adv-x="505" 
d="M443 318l-38 -219q-8 -45 26 -45q13 0 29 4l-10 -55q-22 -8 -48 -8q-91 0 -73 100l40 224q16 90 -63 90q-46 0 -89 -37t-57 -119l-44 -253h-76l81 462h66l-7 -94q51 105 149 105q55 0 86.5 -28t31.5 -81q0 -23 -4 -46z" />
    <glyph glyph-name="o" unicode="o" horiz-adv-x="491" 
d="M277 473q82 0 128 -53t46 -145q0 -121 -63.5 -204t-172.5 -83q-79 0 -127 51.5t-48 144.5q0 121 63.5 205t173.5 84zM265 410q-68 0 -109.5 -64t-41.5 -153q0 -70 29.5 -108t81.5 -38q68 0 109 66.5t41 156.5q0 66 -29 103t-81 37z" />
    <glyph glyph-name="p" unicode="p" horiz-adv-x="523" 
d="M162 267l-16 -90q-10 -46 18.5 -86t83.5 -40q71 0 113.5 66.5t42.5 165.5q0 59 -25 93.5t-72 34.5q-52 0 -93 -40t-52 -104zM129 76l-49 -279h-75l117 665h66l-8 -89q48 100 152 100q73 0 112 -49t39 -141q0 -127 -62.5 -211t-166.5 -84q-50 0 -83.5 25t-41.5 63z" />
    <glyph glyph-name="q" unicode="q" horiz-adv-x="495" 
d="M351 191l14 80q10 56 -14 98.5t-77 42.5q-69 0 -114.5 -64.5t-45.5 -163.5q0 -60 26.5 -97t75.5 -37q52 0 88 37.5t47 103.5zM358 -203h-76l49 277q-38 -86 -136 -86q-69 0 -112 50t-43 139q0 122 64 209t163 87q102 0 120 -89l25 78h63z" />
    <glyph glyph-name="r" unicode="r" horiz-adv-x="332" 
d="M352 471l-20 -89q-55 11 -106.5 -20.5t-62.5 -94.5l-47 -267h-76l81 462h66l-9 -105q24 56 72.5 89.5t101.5 24.5z" />
    <glyph glyph-name="s" unicode="s" horiz-adv-x="399" 
d="M20 123l69 14q0 -47 24.5 -70.5t66.5 -23.5q86 0 86 72q0 35 -18.5 55t-66.5 38q-54 20 -80.5 51t-26.5 80q0 64 44 99t113 35q138 0 138 -121l-71 -8q0 72 -74 72q-37 0 -59 -18t-22 -51q0 -27 17.5 -45.5t71.5 -40.5q58 -24 82 -56.5t24 -83.5q0 -66 -43 -99.5
t-118 -33.5t-116 36t-41 99z" />
    <glyph glyph-name="t" unicode="t" horiz-adv-x="302" 
d="M249 75v-64q-40 -23 -91 -23q-128 0 -102 140l48 273h-64l11 61h65l17 97l77 11l-19 -108h121l-11 -61h-120l-50 -281q-6 -34 5.5 -51t33.5 -17q38 0 79 23z" />
    <glyph glyph-name="u" unicode="u" 
d="M316 87q-39 -99 -145 -99q-72 0 -101 45t-15 129l52 300h76l-55 -314q-8 -49 9 -76t57 -27q46 0 85 37t50 99l49 281h76l-64 -363q-8 -45 26 -45q13 0 29 4l-10 -55q-22 -8 -48 -8q-84 0 -71 92z" />
    <glyph glyph-name="v" unicode="v" horiz-adv-x="412" 
d="M110 0l-70 462h78l33 -268q5 -41 7.5 -77.5t3.5 -52.5v-17h4q14 54 60 146l134 269h82l-245 -462h-87z" />
    <glyph glyph-name="w" unicode="w" horiz-adv-x="665" 
d="M408 462l25 -259q4 -41 5.5 -78.5t0.5 -54.5l-1 -17h4q11 56 51 150l113 259h79l-208 -462h-91l-27 237q-4 41 -5.5 77t-0.5 52l1 16h-4q-14 -52 -56 -145l-104 -237h-91l-49 462h78l22 -258q4 -41 5 -79t1 -55l-1 -17h4q13 59 54 151l117 258h78z" />
    <glyph glyph-name="x" unicode="x" horiz-adv-x="422" 
d="M289 0l-55 115q-12 26 -18 43.5t-6 22.5v5h-4q-2 -12 -51 -72l-95 -114h-85l196 233l-107 229h81l46 -107q12 -27 18.5 -45t6.5 -22l1 -5h4q3 12 49 71l85 108h87l-187 -227l113 -235h-79z" />
    <glyph glyph-name="y" unicode="y" horiz-adv-x="418" 
d="M125 462l31 -268q6 -40 8.5 -76.5t2.5 -53.5v-16h4q14 55 60 145l136 269h81l-273 -518q-49 -93 -91.5 -124t-99.5 -31q-39 0 -69 17l16 57q30 -16 57 -16q38 0 67 28.5t64 97.5l-74 489h80z" />
    <glyph glyph-name="z" unicode="z" horiz-adv-x="414" 
d="M-1 41l250 285q22 25 41 43.5t26 24.5l8 5v4q-31 -7 -94 -7h-148l11 66h331l-10 -52l-247 -276q-22 -25 -41.5 -43t-27.5 -23l-8 -6v-4q33 6 96 6h159l-10 -64h-345z" />
    <glyph glyph-name="braceleft" unicode="{" horiz-adv-x="381" 
d="M148 234v-4q37 -5 53 -26.5t7 -71.5l-35 -204q-8 -42 2 -62t43 -20q30 0 64 15l4 -56q-46 -15 -93 -15q-64 0 -84 34t-8 100l35 202q9 47 -7 62t-48 15h-41l10 58h41q72 0 85 77l33 202q12 65 45 99.5t97 34.5q44 0 85 -15l-23 -56q-28 15 -59 15q-33 0 -50 -20t-24 -62
l-36 -204q-9 -52 -32 -72t-64 -26z" />
    <glyph glyph-name="bar" unicode="|" horiz-adv-x="225" 
d="M72 -203h-67l153 872h67z" />
    <glyph glyph-name="braceright" unicode="}" horiz-adv-x="381" 
d="M228 230v4q-37 5 -53 26.5t-7 71.5l35 204q8 42 -2 62t-43 20q-30 0 -64 -15l-4 56q46 15 93 15q64 0 84 -34t8 -100l-35 -202q-9 -47 7 -62t48 -15h41l-10 -58h-41q-72 0 -85 -77l-33 -202q-12 -65 -45 -99.5t-97 -34.5q-44 0 -85 15l23 56q28 -15 59 -15q33 0 50 20
t24 62l36 204q9 52 32 72t64 26z" />
    <glyph glyph-name="asciitilde" unicode="~" horiz-adv-x="352" 
d="M184 222l-47 25q-20 11 -32 11q-31 0 -37 -41l-30 14q-3 13 -3 24q0 30 22 48.5t53 18.5q25 0 53 -15l48 -27q15 -9 34 -9q32 0 35 45l34 -15q2 -7 2 -20q-2 -32 -23 -53t-54 -21q-25 0 -55 15z" />
    <glyph glyph-name="nbspace" unicode="&#xa0;" horiz-adv-x="153" 
 />
    <glyph glyph-name="exclamdown" unicode="&#xa1;" horiz-adv-x="213" 
d="M91 -127h-100l98 423h52zM188 411q0 -24 -16.5 -40.5t-40.5 -16.5t-40.5 16.5t-16.5 40.5t16.5 40.5t40.5 16.5t40.5 -16.5t16.5 -40.5z" />
    <glyph glyph-name="cent" unicode="&#xa2;" horiz-adv-x="488" 
d="M390 137l56 -41q-35 -55 -82 -80.5t-116 -27.5l-16 -94h-50l17 98q-69 13 -109 65.5t-40 133.5q0 125 63 208.5t174 92.5l15 82h50l-15 -82q112 -10 141 -114l-74 -36q-13 72 -78 85l-67 -378q81 2 131 88zM128 201q0 -117 83 -145l65 372q-66 -10 -107 -74t-41 -153z
" />
    <glyph glyph-name="sterling" unicode="&#xa3;" horiz-adv-x="487" 
d="M348 209h-134q1 -7 1 -21q0 -46 -21 -79.5t-53 -43.5h181q62 0 82 49l53 -30q-35 -84 -138 -84h-309l11 68h49q27 0 51.5 27t24.5 62q0 29 -6 52h-97l8 50h78q-5 30 -5 71q0 83 53 123t121 40q73 0 112 -33.5t39 -99.5l-73 -12q-2 84 -85 84q-94 0 -94 -101q0 -35 7 -72
h152z" />
    <glyph glyph-name="currency" unicode="&#xa4;" horiz-adv-x="471" 
d="M20 133l86 74q-9 24 -9 56q0 75 39 127l-56 68l38 32l53 -66q41 30 97 30q58 0 90 -34l84 72l29 -35l-88 -75q11 -28 11 -61q0 -71 -37 -123l57 -67l-38 -32l-53 64q-40 -31 -98 -31q-61 0 -94 36l-82 -70zM260 403q-46 0 -74 -39.5t-28 -94.5q0 -44 19.5 -66.5
t53.5 -22.5q45 0 72.5 41t27.5 97q0 40 -18.5 62.5t-52.5 22.5z" />
    <glyph glyph-name="yen" unicode="&#xa5;" horiz-adv-x="488" 
d="M423 242h-105l-36 -50h136l-4 -50h-153l-24 -142h-78l24 142h-143l4 50h135l-18 50h-112l4 50h90l-69 189h82l54 -162q9 -28 15 -52t7 -33l1 -10h4q12 32 54 94l111 163h86l-135 -189h74z" />
    <glyph glyph-name="brokenbar" unicode="&#xa6;" horiz-adv-x="225" 
d="M157 278h-67l68 391h67zM72 -203h-67l69 391h67z" />
    <glyph glyph-name="section" unicode="&#xa7;" horiz-adv-x="395" 
d="M26 240q0 54 31 86t80 43q-45 36 -45 94q0 67 47.5 100.5t112.5 33.5q138 0 138 -121l-71 -8q1 35 -19.5 53t-57.5 18q-33 0 -56 -18t-23 -50q0 -27 17.5 -44.5t75.5 -47.5q55 -28 79.5 -58.5t24.5 -75.5q0 -102 -112 -126q46 -40 46 -97q0 -67 -48 -100t-123 -33
q-148 0 -148 120l65 10q1 -76 88 -76q41 0 67.5 17.5t26.5 49.5q0 31 -17.5 50t-72.5 48q-57 31 -81.5 58t-24.5 74zM190 156q6 -4 9 -5q36 2 62.5 26t26.5 56q0 31 -17.5 50t-72.5 48q-2 1 -5.5 2.5t-5.5 2.5q-43 -7 -66.5 -30.5t-23.5 -57.5q0 -27 17.5 -44.5t75.5 -47.5z
" />
    <glyph glyph-name="dieresis" unicode="&#xa8;" horiz-adv-x="457" 
d="M80 595q0 22 16 38t38 16t38 -15.5t16 -38.5q0 -22 -16 -38t-38 -16t-38 16t-16 38zM269 594q0 22 16 38t38 16q23 0 38.5 -16t15.5 -38t-16 -38t-38 -16t-38 16t-16 38z" />
    <glyph glyph-name="copyright" unicode="&#xa9;" horiz-adv-x="698" 
d="M450 219l47 -34q-52 -85 -158 -85q-67 0 -108 42t-41 114q0 101 53.5 166.5t147.5 65.5q105 0 131 -90l-62 -29q-11 67 -78 67q-56 0 -92 -49.5t-36 -122.5q0 -52 25.5 -83t69.5 -31q62 0 101 69zM55 294q0 132 89 219.5t217 87.5t217.5 -87.5t89.5 -219.5t-89.5 -219
t-217.5 -87t-217 87t-89 219zM86 294q0 -120 80 -198.5t196 -78.5t196 78.5t80 198.5t-80 199t-196 79t-196 -79t-80 -199z" />
    <glyph glyph-name="ordfeminine" unicode="&#xaa;" horiz-adv-x="395" 
d="M259 415l10 50q7 35 -9.5 62t-52.5 27q-49 0 -81 -40.5t-32 -104.5q0 -38 18.5 -61.5t52.5 -23.5q36 0 61 24t33 67zM360 593l-48 -237q-4 -24 15 -24q9 0 26 4l-8 -46q-19 -6 -39 -6q-25 0 -40.5 12.5t-18.5 31.5q-38 -49 -98 -49q-53 0 -86 33.5t-33 93.5q0 81 48 138
t124 57q62 0 86 -54l17 46h55z" />
    <glyph glyph-name="guillemotleft" unicode="&#xab;" horiz-adv-x="498" 
d="M279 233v-4q9 -2 42 -49l85 -121l-50 -39l-144 213l219 213l37 -40l-120 -120q-17 -17 -34 -30t-26 -18zM97 233v-4q9 -2 42 -49l85 -121l-50 -39l-144 213l219 213l37 -40l-120 -120q-17 -17 -34 -30t-26 -18z" />
    <glyph glyph-name="logicalnot" unicode="&#xac;" horiz-adv-x="496" 
d="M392 269h-352l8 46h408l-33 -188h-56z" />
    <glyph glyph-name="uni00AD" unicode="&#xad;" horiz-adv-x="375" 
d="M70 224l11 64h224l-11 -64h-224z" />
    <glyph glyph-name="registered" unicode="&#xae;" horiz-adv-x="698" 
d="M494 119h-68q-9 13 -11 40l-3 51q-2 28 -13.5 39.5t-42.5 11.5h-64l-25 -142h-63l64 362h139q112 0 112 -93q0 -51 -31 -77t-77 -28v-2q31 -2 47 -15.5t17 -42.5l4 -59q2 -29 15 -45zM321 431l-21 -122h70q85 0 85 74q0 48 -57 48h-77zM55 294q0 132 89 219.5t217 87.5
t217.5 -87.5t89.5 -219.5t-89.5 -219t-217.5 -87t-217 87t-89 219zM86 294q0 -120 80 -198.5t196 -78.5t196 78.5t80 198.5t-80 199t-196 79t-196 -79t-80 -199z" />
    <glyph glyph-name="macron" unicode="&#xaf;" horiz-adv-x="422" 
d="M331 564h-251l11 61h251z" />
    <glyph glyph-name="degree" unicode="&#xb0;" horiz-adv-x="277" 
d="M55 480q0 51 34.5 86t89.5 35q46 0 74.5 -29t28.5 -72q0 -51 -35 -86t-88 -35q-49 0 -76.5 28.5t-27.5 72.5zM173 563q-32 0 -52.5 -23t-20.5 -55q0 -31 17.5 -49t47.5 -18t50.5 22.5t20.5 54.5q0 31 -17.5 49.5t-45.5 18.5z" />
    <glyph glyph-name="plusminus" unicode="&#xb1;" horiz-adv-x="538" 
d="M85 333h177l25 138h50l-25 -138h181l-8 -46h-181l-27 -152h-50l27 152h-177zM443 49h-408l8 46h408z" />
    <glyph glyph-name="twosuperior" unicode="&#xb2;" horiz-adv-x="319" 
d="M270 286l-9 -50h-261l9 48q105 59 160 106.5t55 93.5q0 60 -58 60q-64 0 -76 -73l-48 25q8 46 43.5 73.5t88.5 27.5q54 0 84.5 -27t30.5 -77q0 -37 -19.5 -70t-54.5 -59t-63.5 -42t-65.5 -32v-4h184z" />
    <glyph glyph-name="threesuperior" unicode="&#xb3;" horiz-adv-x="307" 
d="M182 421v-3q80 -9 80 -83q0 -52 -40 -79t-98 -27q-59 0 -87.5 27t-31.5 68l56 13q6 -62 63 -62q33 0 54 15t21 45q0 29 -21 44t-78 16l8 44q110 5 110 65q0 20 -14 31.5t-38 11.5q-50 0 -65 -54l-51 20q29 84 122 84q48 0 79 -21.5t31 -64.5q0 -37 -26 -61t-74 -29z" />
    <glyph glyph-name="acute" unicode="&#xb4;" horiz-adv-x="340" 
d="M145 530h-65l75 143h105z" />
    <glyph glyph-name="mu" unicode="&#xb5;" 
d="M316 87q-21 -53 -54.5 -76t-85.5 -23q-26 0 -47.5 10.5t-24.5 25.5l-40 -227h-71l114 665h76l-55 -314q-8 -49 9 -76t57 -27q46 0 85 37t50 99l49 281h76l-64 -363q-8 -45 26 -45q13 0 29 4l-10 -55q-22 -8 -48 -8q-84 0 -71 92z" />
    <glyph glyph-name="paragraph" unicode="&#xb6;" horiz-adv-x="510" 
d="M479 529l-98 -553q-24 -139 -159 -139q-55 0 -99 27l36 70q29 -30 72 -30q59 0 69 59l37 211h-48q-111 0 -161 50t-32 151q37 214 309 214h163l-10 -60h-79z" />
    <glyph glyph-name="periodcentered" unicode="&#xb7;" horiz-adv-x="284" 
d="M80 266q0 26 18 44t44 18t44 -18t18 -44t-18 -44t-44 -18t-44 18t-18 44z" />
    <glyph glyph-name="periodcentered" unicode="&#x22c5;" horiz-adv-x="284" 
d="M80 266q0 26 18 44t44 18t44 -18t18 -44t-18 -44t-44 -18t-44 18t-18 44z" />
    <glyph glyph-name="cedilla" unicode="&#xb8;" horiz-adv-x="349" 
d="M269 -126q0 -41 -29.5 -63t-74.5 -22q-57 0 -85 38l23 48q25 -37 62 -37q41 0 41 36q0 44 -69 44l33 87h41l-20 -47q40 -9 59 -29t19 -55z" />
    <glyph glyph-name="onesuperior" unicode="&#xb9;" horiz-adv-x="287" 
d="M253 236h-243l9 50h90l42 241l-109 -11l9 51l176 23l-54 -304h89z" />
    <glyph glyph-name="ordmasculine" unicode="&#xba;" horiz-adv-x="357" 
d="M201 601q59 0 92.5 -36t33.5 -97q0 -80 -45.5 -134.5t-123.5 -54.5q-58 0 -93 34.5t-35 96.5q0 80 46 135.5t125 55.5zM193 550q-46 0 -74 -39.5t-28 -94.5q0 -44 19.5 -66.5t53.5 -22.5q45 0 72.5 41t27.5 97q0 40 -18.5 62.5t-52.5 22.5z" />
    <glyph glyph-name="guillemotright" unicode="&#xbb;" horiz-adv-x="498" 
d="M219 233v4q-9 2 -42 49l-85 121l50 39l144 -213l-219 -213l-37 40l120 120q17 17 34 30t26 18zM401 233v4q-9 2 -42 49l-85 121l50 39l144 -213l-219 -213l-37 40l120 120q17 17 34 30t26 18z" />
    <glyph glyph-name="onequarter" unicode="&#xbc;" horiz-adv-x="849" 
d="M282 236h-243l9 50h90l42 241l-109 -11l9 51l176 23l-54 -304h89zM190 0l410 590h59l-409 -590h-60zM663 0l16 92h-180l9 49l213 212h67l-37 -213h60l-9 -48h-60l-16 -92h-63zM690 139l16 91l17 70h-4q-16 -26 -49 -62l-54 -53q-14 -13 -28 -24.5t-21 -16.5l-7 -5l-1 -4
q14 4 57 4h74z" />
    <glyph glyph-name="onehalf" unicode="&#xbd;" horiz-adv-x="849" 
d="M282 236h-243l9 50h90l42 241l-109 -11l9 51l176 23l-54 -304h89zM190 0l410 590h59l-409 -590h-60zM759 50l-9 -50h-261l9 48q105 59 160 106.5t55 93.5q0 60 -58 60q-64 0 -76 -73l-48 25q8 46 43.5 73.5t88.5 27.5q54 0 84.5 -27t30.5 -77q0 -37 -19.5 -70t-54.5 -59
t-63.5 -42t-65.5 -32v-4h184z" />
    <glyph glyph-name="threequarters" unicode="&#xbe;" horiz-adv-x="849" 
d="M208 421v-3q80 -9 80 -83q0 -52 -40 -79t-98 -27q-59 0 -87.5 27t-31.5 68l56 13q6 -62 63 -62q33 0 54 15t21 45q0 29 -21 44t-78 16l8 44q110 5 110 65q0 20 -14 31.5t-38 11.5q-50 0 -65 -54l-51 20q29 84 122 84q48 0 79 -21.5t31 -64.5q0 -37 -26 -61t-74 -29z
M190 0l410 590h59l-409 -590h-60zM663 0l16 92h-180l9 49l213 212h67l-37 -213h60l-9 -48h-60l-16 -92h-63zM690 139l16 91l17 70h-4q-16 -26 -49 -62l-54 -53q-14 -13 -28 -24.5t-21 -16.5l-7 -5l-1 -4q14 4 57 4h74z" />
    <glyph glyph-name="questiondown" unicode="&#xbf;" horiz-adv-x="408" 
d="M307 20l61 -26q-43 -133 -183 -133q-80 0 -122.5 41.5t-42.5 116.5q0 93 62 145t139 52l16 89h70l-25 -135h-22q-70 0 -115.5 -35.5t-45.5 -108.5q0 -49 25.5 -75t72.5 -26q82 0 110 95zM344 411q0 -24 -16.5 -40.5t-40.5 -16.5t-40.5 16.5t-16.5 40.5t16.5 40.5
t40.5 16.5t40.5 -16.5t16.5 -40.5z" />
    <glyph glyph-name="Agrave" unicode="&#xc0;" horiz-adv-x="577" 
d="M433 0l-31 174h-247l-91 -174h-84l318 589h106l110 -589h-81zM395 655h-69l-97 116h104zM270 392l-82 -154h202q-15 73 -26.5 149t-16 115.5t-3.5 39.5h-4q-22 -59 -70 -150z" />
    <glyph glyph-name="Aacute" unicode="&#xc1;" horiz-adv-x="577" 
d="M433 0l-31 174h-247l-91 -174h-84l318 589h106l110 -589h-81zM387 655h-69l62 116h104zM270 392l-82 -154h202q-15 73 -26.5 149t-16 115.5t-3.5 39.5h-4q-22 -59 -70 -150z" />
    <glyph glyph-name="Acircumflex" unicode="&#xc2;" horiz-adv-x="577" 
d="M433 0l-31 174h-247l-91 -174h-84l318 589h106l110 -589h-81zM270 392l-82 -154h202q-15 73 -26.5 149t-16 115.5t-3.5 39.5h-4q-22 -59 -70 -150zM348 779h46l99 -124h-85l-26 34q-7 9 -11.5 18t-5.5 13l-1 4h-2q1 -1 -8.5 -12t-26.5 -28t-33 -29h-89z" />
    <glyph glyph-name="Atilde" unicode="&#xc3;" horiz-adv-x="577" 
d="M433 0l-31 174h-247l-91 -174h-84l318 589h106l110 -589h-81zM417 655q-33 0 -73 25.5t-55 25.5q-36 0 -39 -49h-48q-8 46 18 79.5t71 33.5q32 0 61 -19q5 -3 12.5 -8t10.5 -7.5t8.5 -5.5t8 -4.5t6.5 -3.5t7 -2.5t6.5 -1t7.5 -0.5q31 0 37 52h51q6 -50 -18.5 -82.5
t-71.5 -32.5zM270 392l-82 -154h202q-15 73 -26.5 149t-16 115.5t-3.5 39.5h-4q-22 -59 -70 -150z" />
    <glyph glyph-name="Adieresis" unicode="&#xc4;" horiz-adv-x="577" 
d="M433 0l-31 174h-247l-91 -174h-84l318 589h106l110 -589h-81zM403 709q0 22 16 38t38 16q23 0 38.5 -15.5t15.5 -38.5q0 -22 -16 -38t-38 -16t-38 16t-16 38zM214 710q0 22 16 38t38 16t38 -16t16 -38t-16 -38t-38 -16t-38 16t-16 38zM270 392l-82 -154h202
q-15 73 -26.5 149t-16 115.5t-3.5 39.5h-4q-22 -59 -70 -150z" />
    <glyph glyph-name="Aring" unicode="&#xc5;" horiz-adv-x="577" 
d="M433 0l-31 174h-247l-91 -174h-84l318 589h106l110 -589h-81zM277 723q0 43 29 72.5t75 29.5q39 0 63 -24.5t24 -60.5q0 -43 -28.5 -72.5t-74.5 -29.5q-42 0 -65 24t-23 61zM270 392l-82 -154h202q-15 73 -26.5 149t-16 115.5t-3.5 39.5h-4q-22 -59 -70 -150zM377 788
q-24 0 -40.5 -18t-16.5 -42q0 -25 13.5 -39t37.5 -14q23 0 39 18t16 42t-13 38.5t-36 14.5z" />
    <glyph glyph-name="AE" unicode="&#xc6;" horiz-adv-x="836" 
d="M396 0l30 174h-221l-136 -174h-89l461 589h410l-12 -68h-272l-34 -193h241l-12 -68h-241l-34 -192h272l-11 -68h-352zM491 539l-236 -301h182l34 192q7 40 13 67.5t8 34.5l3 7h-4z" />
    <glyph glyph-name="Ccedilla" unicode="&#xc7;" horiz-adv-x="551" 
d="M325 -126q0 -41 -29.5 -63t-74.5 -22q-57 0 -85 38l23 48q25 -37 62 -37q41 0 41 36q0 44 -69 44l29 76q-79 17 -123 79.5t-44 153.5q0 172 86.5 273t213.5 101q157 0 191 -139l-78 -32q-9 52 -42 78.5t-79 26.5q-97 0 -154 -88.5t-57 -213.5q0 -83 40 -131t114 -48
q53 0 87.5 19t65.5 71l61 -34q-69 -122 -223 -122q-14 0 -21 1l-13 -31q40 -9 59 -29t19 -55z" />
    <glyph glyph-name="Egrave" unicode="&#xc8;" horiz-adv-x="480" 
d="M403 68l-11 -68h-352l103 589h352l-12 -68h-272l-34 -193h241l-12 -68h-241l-34 -192h272zM354 655h-69l-97 116h104z" />
    <glyph glyph-name="Eacute" unicode="&#xc9;" horiz-adv-x="480" 
d="M403 68l-11 -68h-352l103 589h352l-12 -68h-272l-34 -193h241l-12 -68h-241l-34 -192h272zM346 655h-69l62 116h104z" />
    <glyph glyph-name="Ecircumflex" unicode="&#xca;" horiz-adv-x="480" 
d="M403 68l-11 -68h-352l103 589h352l-12 -68h-272l-34 -193h241l-12 -68h-241l-34 -192h272zM307 779h46l99 -124h-85l-26 34q-7 9 -11.5 18t-5.5 13l-1 4h-2q-7 -14 -30 -35l-38 -34h-89z" />
    <glyph glyph-name="Edieresis" unicode="&#xcb;" horiz-adv-x="480" 
d="M403 68l-11 -68h-352l103 589h352l-12 -68h-272l-34 -193h241l-12 -68h-241l-34 -192h272zM173 710q0 22 16 38t38 16q23 0 38.5 -16t15.5 -38t-16 -38t-38 -16t-38 16t-16 38zM362 709q0 22 16 38t38 16t38 -15.5t16 -38.5q0 -22 -16 -38t-38 -16t-38 16t-16 38z" />
    <glyph glyph-name="Igrave" unicode="&#xcc;" horiz-adv-x="238" 
d="M143 589h80l-103 -589h-80zM231 655h-69l-97 116h104z" />
    <glyph glyph-name="Iacute" unicode="&#xcd;" horiz-adv-x="238" 
d="M143 589h80l-103 -589h-80zM223 655h-69l62 116h104z" />
    <glyph glyph-name="Icircumflex" unicode="&#xce;" horiz-adv-x="238" 
d="M143 589h80l-103 -589h-80zM185 779h46l99 -124h-85l-26 34q-7 9 -11.5 18t-5.5 13l-1 4h-2q-7 -14 -30 -35l-38 -34h-89z" />
    <glyph glyph-name="Idieresis" unicode="&#xcf;" horiz-adv-x="238" 
d="M143 589h80l-103 -589h-80zM50 710q0 22 16 38t38 16t38 -16t16 -38t-16 -38t-38 -16t-38 16t-16 38zM239 709q0 22 16 38t38 16q23 0 38.5 -15.5t15.5 -38.5q0 -22 -16 -38t-38 -16t-38 16t-16 38z" />
    <glyph glyph-name="Eth" unicode="&#xd0;" horiz-adv-x="588" 
d="M230 0h-190l45 260h-65l12 68h65l46 261h160q123 0 184 -58t61 -165q0 -96 -27.5 -169t-74.5 -114.5t-101.5 -62t-114.5 -20.5zM131 65h95q104 0 171 73t67 222q0 164 -173 164h-79l-35 -196h126l-12 -68h-126z" />
    <glyph glyph-name="Ntilde" unicode="&#xd1;" horiz-adv-x="613" 
d="M226 589l159 -348q14 -31 26.5 -64.5t17.5 -50.5l5 -18h4q8 71 21 145l59 336h80l-103 -589h-81l-163 346q-14 30 -26.5 63t-18.5 51l-6 19h-4q-4 -69 -17 -143l-59 -336h-80l103 589h83zM430 655q-8 0 -16 1t-13 2.5t-12 4.5t-10 5t-10.5 6.5t-10.5 6.5q-4 2 -12.5 8
t-12 7.5t-9.5 4.5t-11 4t-11 1q-36 0 -39 -49h-48q-8 46 18 79.5t71 33.5q7 0 13.5 -1t11 -1.5t10.5 -3t8.5 -3.5t9 -5t8 -4.5t9 -5.5t8.5 -6q33 -22 50 -22q31 0 37 52h51q6 -50 -18.5 -82.5t-71.5 -32.5z" />
    <glyph glyph-name="Ograve" unicode="&#xd2;" horiz-adv-x="616" 
d="M281 -12q-106 0 -166 66t-60 173q0 172 86.5 273t213.5 101q106 0 166 -66.5t60 -173.5q0 -172 -86.5 -272.5t-213.5 -100.5zM347 534q-97 0 -154 -88t-57 -213q0 -83 40 -131t114 -48q96 0 153 88t57 213q0 79 -37.5 129t-115.5 50zM408 655h-69l-97 116h104z" />
    <glyph glyph-name="Oacute" unicode="&#xd3;" horiz-adv-x="616" 
d="M281 -12q-106 0 -166 66t-60 173q0 172 86.5 273t213.5 101q106 0 166 -66.5t60 -173.5q0 -172 -86.5 -272.5t-213.5 -100.5zM347 534q-97 0 -154 -88t-57 -213q0 -83 40 -131t114 -48q96 0 153 88t57 213q0 79 -37.5 129t-115.5 50zM400 655h-69l62 116h104z" />
    <glyph glyph-name="Ocircumflex" unicode="&#xd4;" horiz-adv-x="616" 
d="M281 -12q-106 0 -166 66t-60 173q0 172 86.5 273t213.5 101q106 0 166 -66.5t60 -173.5q0 -172 -86.5 -272.5t-213.5 -100.5zM347 534q-97 0 -154 -88t-57 -213q0 -83 40 -131t114 -48q96 0 153 88t57 213q0 79 -37.5 129t-115.5 50zM362 779h46l99 -124h-85l-26 34
q-7 9 -11.5 18t-5.5 13l-1 4h-2q-7 -14 -30 -35l-38 -34h-89z" />
    <glyph glyph-name="Otilde" unicode="&#xd5;" horiz-adv-x="616" 
d="M281 -12q-106 0 -166 66t-60 173q0 172 86.5 273t213.5 101q106 0 166 -66.5t60 -173.5q0 -172 -86.5 -272.5t-213.5 -100.5zM347 534q-97 0 -154 -88t-57 -213q0 -83 40 -131t114 -48q96 0 153 88t57 213q0 79 -37.5 129t-115.5 50zM431 655q-8 0 -16 1t-13 2.5t-12 4.5
t-10 5t-10.5 6.5t-10.5 6.5q-4 2 -12.5 8t-12 7.5t-9.5 4.5t-11 4t-11 1q-36 0 -39 -49h-48q-8 46 18 79.5t71 33.5q7 0 13.5 -1t11 -1.5t10.5 -3t8.5 -3.5t9 -5t8 -4.5t9 -5.5t8.5 -6q33 -22 50 -22q31 0 37 52h51q6 -50 -18.5 -82.5t-71.5 -32.5z" />
    <glyph glyph-name="Odieresis" unicode="&#xd6;" horiz-adv-x="616" 
d="M281 -12q-106 0 -166 66t-60 173q0 172 86.5 273t213.5 101q106 0 166 -66.5t60 -173.5q0 -172 -86.5 -272.5t-213.5 -100.5zM347 534q-97 0 -154 -88t-57 -213q0 -83 40 -131t114 -48q96 0 153 88t57 213q0 79 -37.5 129t-115.5 50zM227 710q0 22 16 38t38 16
q23 0 38.5 -16t15.5 -38t-16 -38t-38 -16t-38 16t-16 38zM416 709q0 22 16 38t38 16t38 -15.5t16 -38.5q0 -22 -16 -38t-38 -16t-38 16t-16 38z" />
    <glyph glyph-name="multiply" unicode="&#xd7;" horiz-adv-x="475" 
d="M37 111l163 139l-108 134l38 33l109 -134l167 141l31 -37l-167 -142l119 -141l-38 -33l-118 141l-165 -139z" />
    <glyph glyph-name="Oslash" unicode="&#xd8;" horiz-adv-x="616" 
d="M59 -14l-42 40l68 70q-30 54 -30 131q0 172 86.5 273t213.5 101q99 0 160 -61l60 61l45 -41l-68 -70q29 -56 29 -129q0 -172 -86.5 -272.5t-213.5 -100.5q-99 0 -161 60zM500 355q0 41 -10 72l-316 -324q41 -49 116 -49q96 0 153 88t57 213zM347 534q-97 0 -154 -88
t-57 -213q0 -43 10 -74l316 325q-40 50 -115 50z" />
    <glyph glyph-name="Ugrave" unicode="&#xd9;" horiz-adv-x="582" 
d="M497 589h80l-71 -404q-34 -197 -247 -197q-101 0 -156.5 56.5t-34.5 175.5l64 369h80l-66 -378q-14 -81 20 -119.5t102 -38.5q67 0 107 34t54 114zM398 655h-69l-97 116h104z" />
    <glyph glyph-name="Uacute" unicode="&#xda;" horiz-adv-x="582" 
d="M497 589h80l-71 -404q-34 -197 -247 -197q-101 0 -156.5 56.5t-34.5 175.5l64 369h80l-66 -378q-14 -81 20 -119.5t102 -38.5q67 0 107 34t54 114zM391 655h-69l62 116h104z" />
    <glyph glyph-name="Ucircumflex" unicode="&#xdb;" horiz-adv-x="582" 
d="M497 589h80l-71 -404q-34 -197 -247 -197q-101 0 -156.5 56.5t-34.5 175.5l64 369h80l-66 -378q-14 -81 20 -119.5t102 -38.5q67 0 107 34t54 114zM352 779h46l99 -124h-85l-26 34q-7 9 -11.5 18t-5.5 13l-1 4h-2q-7 -14 -30 -35l-38 -34h-89z" />
    <glyph glyph-name="Udieresis" unicode="&#xdc;" horiz-adv-x="582" 
d="M497 589h80l-71 -404q-34 -197 -247 -197q-101 0 -156.5 56.5t-34.5 175.5l64 369h80l-66 -378q-14 -81 20 -119.5t102 -38.5q67 0 107 34t54 114zM217 710q0 22 16 38t38 16q23 0 38.5 -16t15.5 -38t-16 -38t-38 -16t-38 16t-16 38zM406 709q0 22 16 38t38 16t38 -15.5
t16 -38.5q0 -22 -16 -38t-38 -16t-38 16t-16 38z" />
    <glyph glyph-name="Yacute" unicode="&#xdd;" horiz-adv-x="494" 
d="M167 589l68 -202q9 -28 15 -53.5t7 -37.5l1 -11h4q12 38 52 101l130 203h85l-238 -357l-40 -232h-80l40 232l-126 357h82zM350 655h-69l62 116h104z" />
    <glyph glyph-name="Thorn" unicode="&#xde;" horiz-adv-x="488" 
d="M192 413l-39 -225h88q145 0 145 137q0 45 -25.5 66.5t-81.5 21.5h-87zM120 0h-80l103 589h80l-20 -111h85q92 0 136 -36t44 -111q0 -103 -63 -155t-168 -52h-95z" />
    <glyph glyph-name="germandbls" unicode="&#xdf;" horiz-adv-x="523" 
d="M23 -103l101 572q19 106 77 156t146 50q78 0 117 -38.5t39 -98.5q0 -71 -41 -109.5t-102 -47.5v-4q61 -8 92.5 -49.5t31.5 -108.5q0 -109 -56 -170t-142 -61q-100 0 -124 72l53 47q14 -61 74 -61q49 0 83 42t34 127q0 134 -128 134h-41l11 61h35q67 0 105.5 30.5
t38.5 87.5q0 40 -21 64t-66 24q-53 0 -89.5 -33t-51.5 -119l-99 -568q-11 -62 -40 -84.5t-78 -22.5q-53 0 -82 26l18 60q28 -25 56 -25q21 0 32.5 10t16.5 37z" />
    <glyph glyph-name="agrave" unicode="&#xe0;" horiz-adv-x="525" 
d="M351 193l14 78q10 56 -14 99t-77 43q-69 0 -114.5 -64t-45.5 -163q0 -61 26.5 -98t75.5 -37q52 0 88 38t47 104zM475 462l-64 -363q-8 -45 26 -45q13 0 29 4l-10 -55q-22 -8 -48 -8q-38 0 -56.5 21t-15.5 61q-40 -89 -141 -89q-69 0 -112 50t-43 139q0 122 64 209t163 87
q102 0 120 -89l25 78h63zM336 530h-65l-115 143h105z" />
    <glyph glyph-name="aacute" unicode="&#xe1;" horiz-adv-x="525" 
d="M351 193l14 78q10 56 -14 99t-77 43q-69 0 -114.5 -64t-45.5 -163q0 -61 26.5 -98t75.5 -37q52 0 88 38t47 104zM475 462l-64 -363q-8 -45 26 -45q13 0 29 4l-10 -55q-22 -8 -48 -8q-38 0 -56.5 21t-15.5 61q-40 -89 -141 -89q-69 0 -112 50t-43 139q0 122 64 209t163 87
q102 0 120 -89l25 78h63zM320 530h-65l75 143h105z" />
    <glyph glyph-name="acircumflex" unicode="&#xe2;" horiz-adv-x="525" 
d="M351 193l14 78q10 56 -14 99t-77 43q-69 0 -114.5 -64t-45.5 -163q0 -61 26.5 -98t75.5 -37q52 0 88 38t47 104zM475 462l-64 -363q-8 -45 26 -45q13 0 29 4l-10 -55q-22 -8 -48 -8q-38 0 -56.5 21t-15.5 61q-40 -89 -141 -89q-69 0 -112 50t-43 139q0 122 64 209t163 87
q102 0 120 -89l25 78h63zM290 673h42l97 -143h-79l-28 44q-7 11 -11 21t-5 15l-1 4h-4q-8 -16 -31 -40l-44 -44h-83z" />
    <glyph glyph-name="atilde" unicode="&#xe3;" horiz-adv-x="525" 
d="M351 193l14 78q10 56 -14 99t-77 43q-69 0 -114.5 -64t-45.5 -163q0 -61 26.5 -98t75.5 -37q52 0 88 38t47 104zM475 462l-64 -363q-8 -45 26 -45q13 0 29 4l-10 -55q-22 -8 -48 -8q-38 0 -56.5 21t-15.5 61q-40 -89 -141 -89q-69 0 -112 50t-43 139q0 122 64 209t163 87
q102 0 120 -89l25 78h63zM365 531q-8 0 -16 1t-13 2.5t-12 4.5t-10 5t-10.5 6.5t-10.5 6.5q-4 2 -12.5 8t-12 7.5t-9.5 4.5t-11 4t-11 1q-36 0 -39 -49h-48q-8 46 18 79.5t71 33.5q7 0 13.5 -1t11 -1.5t10.5 -3t8.5 -3.5t9 -5t8 -4.5t9 -5.5t8.5 -6q33 -22 50 -22
q31 0 37 52h51q6 -50 -18.5 -82.5t-71.5 -32.5z" />
    <glyph glyph-name="adieresis" unicode="&#xe4;" horiz-adv-x="525" 
d="M351 193l14 78q10 56 -14 99t-77 43q-69 0 -114.5 -64t-45.5 -163q0 -61 26.5 -98t75.5 -37q52 0 88 38t47 104zM475 462l-64 -363q-8 -45 26 -45q13 0 29 4l-10 -55q-22 -8 -48 -8q-38 0 -56.5 21t-15.5 61q-40 -89 -141 -89q-69 0 -112 50t-43 139q0 122 64 209t163 87
q102 0 120 -89l25 78h63zM155 595q0 22 16 38t38 16q23 0 38.5 -15.5t15.5 -38.5q0 -22 -16 -38t-38 -16t-38 16t-16 38zM344 594q0 22 16 38t38 16t38 -16t16 -38t-16 -38t-38 -16t-38 16t-16 38z" />
    <glyph glyph-name="aring" unicode="&#xe5;" horiz-adv-x="525" 
d="M351 193l14 78q10 56 -14 99t-77 43q-69 0 -114.5 -64t-45.5 -163q0 -61 26.5 -98t75.5 -37q52 0 88 38t47 104zM475 462l-64 -363q-8 -45 26 -45q13 0 29 4l-10 -55q-22 -8 -48 -8q-38 0 -56.5 21t-15.5 61q-40 -89 -141 -89q-69 0 -112 50t-43 139q0 122 64 209t163 87
q102 0 120 -89l25 78h63zM213 611q0 43 29 72.5t75 29.5q39 0 63 -24.5t24 -60.5q0 -43 -28.5 -72.5t-74.5 -29.5q-42 0 -65 24t-23 61zM313 676q-24 0 -40.5 -18t-16.5 -42q0 -25 13.5 -39t37.5 -14q23 0 39 18t16 42t-13 38.5t-36 14.5z" />
    <glyph glyph-name="ae" unicode="&#xe6;" horiz-adv-x="734" 
d="M498 47q49 0 74.5 19.5t39.5 59.5l69 -17q-24 -67 -71 -94t-119 -27q-102 0 -148 78q-51 -78 -169 -78q-69 0 -104 31.5t-35 87.5q0 163 289 165q6 23 14 46q8 47 -14 70.5t-65 23.5q-85 0 -105 -78l-70 10q17 68 69 98.5t117 30.5q102 0 130 -59q61 59 140 59
q83 0 123.5 -47.5t40.5 -117.5q0 -54 -20 -97h-298q-6 -67 22 -115.5t90 -48.5zM322 120q-7 27 -7 64q0 18 1 27q-206 -2 -206 -100q0 -66 74 -66q91 0 138 75zM395 272h231q5 14 5 38q0 44 -24.5 73.5t-70.5 29.5q-54 0 -90 -40.5t-51 -100.5z" />
    <glyph glyph-name="ccedilla" unicode="&#xe7;" horiz-adv-x="440" 
d="M266 -126q0 -41 -29.5 -63t-74.5 -22q-56 0 -85 38l23 48q25 -37 62 -37q41 0 41 36q0 44 -69 44l29 77q-57 15 -90 63.5t-33 124.5q0 75 25.5 139.5t80 107.5t127.5 43q147 0 147 -145l-71 -12q-2 94 -85 94q-69 0 -109.5 -66.5t-40.5 -149.5q0 -72 28.5 -109.5
t80.5 -37.5q82 0 114 94l70 -16q-51 -137 -194 -137q-2 0 -6 0.5t-6 0.5l-13 -31q40 -9 59 -29t19 -55z" />
    <glyph glyph-name="egrave" unicode="&#xe8;" horiz-adv-x="459" 
d="M223 47q49 0 74.5 19.5t39.5 59.5l69 -17q-24 -67 -71 -94t-119 -27q-82 0 -129 53t-47 143q0 133 67.5 211t157.5 78q83 0 123.5 -47.5t40.5 -117.5q0 -51 -20 -94h-298q-6 -68 22 -117.5t90 -49.5zM120 275h231q5 14 5 35q0 44 -24.5 73.5t-70.5 29.5q-54 0 -90 -39
t-51 -99zM307 530h-65l-115 143h105z" />
    <glyph glyph-name="eacute" unicode="&#xe9;" horiz-adv-x="459" 
d="M223 47q49 0 74.5 19.5t39.5 59.5l69 -17q-24 -67 -71 -94t-119 -27q-82 0 -129 53t-47 143q0 133 67.5 211t157.5 78q83 0 123.5 -47.5t40.5 -117.5q0 -51 -20 -94h-298q-6 -68 22 -117.5t90 -49.5zM120 275h231q5 14 5 35q0 44 -24.5 73.5t-70.5 29.5q-54 0 -90 -39
t-51 -99zM291 530h-65l75 143h105z" />
    <glyph glyph-name="ecircumflex" unicode="&#xea;" horiz-adv-x="459" 
d="M223 47q49 0 74.5 19.5t39.5 59.5l69 -17q-24 -67 -71 -94t-119 -27q-82 0 -129 53t-47 143q0 133 67.5 211t157.5 78q83 0 123.5 -47.5t40.5 -117.5q0 -51 -20 -94h-298q-6 -68 22 -117.5t90 -49.5zM120 275h231q5 14 5 35q0 44 -24.5 73.5t-70.5 29.5q-54 0 -90 -39
t-51 -99zM261 673h42l97 -143h-79l-28 44q-7 11 -11 21t-5 15l-1 4h-4q-8 -16 -31 -40l-44 -44h-83z" />
    <glyph glyph-name="edieresis" unicode="&#xeb;" horiz-adv-x="459" 
d="M223 47q49 0 74.5 19.5t39.5 59.5l69 -17q-24 -67 -71 -94t-119 -27q-82 0 -129 53t-47 143q0 133 67.5 211t157.5 78q83 0 123.5 -47.5t40.5 -117.5q0 -51 -20 -94h-298q-6 -68 22 -117.5t90 -49.5zM120 275h231q5 14 5 35q0 44 -24.5 73.5t-70.5 29.5q-54 0 -90 -39
t-51 -99zM126 595q0 22 16 38t38 16t38 -15.5t16 -38.5q0 -22 -16 -38t-38 -16t-38 16t-16 38zM315 594q0 22 16 38t38 16q23 0 38.5 -16t15.5 -38t-16 -38t-38 -16t-38 16t-16 38z" />
    <glyph glyph-name="igrave" unicode="&#xec;" horiz-adv-x="243" 
d="M212 530h-65l-115 143h105zM193 462l-64 -363q-8 -45 26 -45q13 0 29 4l-10 -55q-22 -8 -48 -8q-91 0 -73 100l64 367h76z" />
    <glyph glyph-name="iacute" unicode="&#xed;" horiz-adv-x="243" 
d="M195 530h-65l75 143h105zM193 462l-64 -363q-8 -45 26 -45q13 0 29 4l-10 -55q-22 -8 -48 -8q-91 0 -73 100l64 367h76z" />
    <glyph glyph-name="icircumflex" unicode="&#xee;" horiz-adv-x="243" 
d="M193 462l-64 -363q-8 -45 26 -45q13 0 29 4l-10 -55q-22 -8 -48 -8q-91 0 -73 100l64 367h76zM166 673h42l97 -143h-79l-28 44q-7 11 -11 21t-5 15l-1 4h-4q-8 -16 -31 -40l-44 -44h-83z" />
    <glyph glyph-name="idieresis" unicode="&#xef;" horiz-adv-x="243" 
d="M31 595q0 22 16 38t38 16q23 0 38.5 -15.5t15.5 -38.5q0 -22 -16 -38t-38 -16t-38 16t-16 38zM220 594q0 22 16 38t38 16t38 -16t16 -38t-16 -38t-38 -16t-38 16t-16 38zM193 462l-64 -363q-8 -45 26 -45q13 0 29 4l-10 -55q-22 -8 -48 -8q-91 0 -73 100l64 367h76z" />
    <glyph glyph-name="eth" unicode="&#xf0;" horiz-adv-x="488" 
d="M133 494l-10 40l136 35q-63 44 -147 62l54 41q103 -25 168 -83l86 23l11 -41l-64 -17q81 -98 81 -268q0 -133 -61.5 -215.5t-171.5 -82.5q-79 0 -127 50.5t-48 141.5q0 117 61 199.5t162 82.5q35 0 65.5 -16.5t43.5 -49.5h4q-23 85 -78 140zM264 400q-67 0 -108.5 -62.5
t-41.5 -149.5q0 -68 29.5 -105t81.5 -37q67 0 108 65t41 153q0 136 -110 136z" />
    <glyph glyph-name="ntilde" unicode="&#xf1;" horiz-adv-x="505" 
d="M443 318l-38 -219q-8 -45 26 -45q13 0 29 4l-10 -55q-22 -8 -48 -8q-91 0 -73 100l40 224q16 90 -63 90q-46 0 -89 -37t-57 -119l-44 -253h-76l81 462h66l-7 -94q51 105 149 105q55 0 86.5 -28t31.5 -81q0 -23 -4 -46zM367 531q-8 0 -16 1t-13 2.5t-12 4.5t-10 5
t-10.5 6.5t-10.5 6.5q-4 2 -12.5 8t-12 7.5t-9.5 4.5t-11 4t-11 1q-36 0 -39 -49h-48q-8 46 18 79.5t71 33.5q7 0 13.5 -1t11 -1.5t10.5 -3t8.5 -3.5t9 -5t8 -4.5t9 -5.5t8.5 -6q33 -22 50 -22q31 0 37 52h51q6 -50 -18.5 -82.5t-71.5 -32.5z" />
    <glyph glyph-name="ograve" unicode="&#xf2;" horiz-adv-x="491" 
d="M277 473q82 0 128 -53t46 -145q0 -121 -63.5 -204t-172.5 -83q-79 0 -127 51.5t-48 144.5q0 121 63.5 205t173.5 84zM265 410q-68 0 -109.5 -64t-41.5 -153q0 -70 29.5 -108t81.5 -38q68 0 109 66.5t41 156.5q0 66 -29 103t-81 37zM324 530h-65l-115 143h105z" />
    <glyph glyph-name="oacute" unicode="&#xf3;" horiz-adv-x="491" 
d="M277 473q82 0 128 -53t46 -145q0 -121 -63.5 -204t-172.5 -83q-79 0 -127 51.5t-48 144.5q0 121 63.5 205t173.5 84zM265 410q-68 0 -109.5 -64t-41.5 -153q0 -70 29.5 -108t81.5 -38q68 0 109 66.5t41 156.5q0 66 -29 103t-81 37zM308 530h-65l75 143h105z" />
    <glyph glyph-name="ocircumflex" unicode="&#xf4;" horiz-adv-x="491" 
d="M277 473q82 0 128 -53t46 -145q0 -121 -63.5 -204t-172.5 -83q-79 0 -127 51.5t-48 144.5q0 121 63.5 205t173.5 84zM265 410q-68 0 -109.5 -64t-41.5 -153q0 -70 29.5 -108t81.5 -38q68 0 109 66.5t41 156.5q0 66 -29 103t-81 37zM278 673h42l97 -143h-79l-28 44
q-7 11 -11 21t-5 15l-1 4h-4q-8 -16 -31 -40l-44 -44h-83z" />
    <glyph glyph-name="otilde" unicode="&#xf5;" horiz-adv-x="491" 
d="M277 473q82 0 128 -53t46 -145q0 -121 -63.5 -204t-172.5 -83q-79 0 -127 51.5t-48 144.5q0 121 63.5 205t173.5 84zM265 410q-68 0 -109.5 -64t-41.5 -153q0 -70 29.5 -108t81.5 -38q68 0 109 66.5t41 156.5q0 66 -29 103t-81 37zM353 531q-8 0 -16 1t-13 2.5t-12 4.5
t-10 5t-10.5 6.5t-10.5 6.5q-4 2 -12.5 8t-12 7.5t-9.5 4.5t-11 4t-11 1q-36 0 -39 -49h-48q-8 46 18 79.5t71 33.5q7 0 13.5 -1t11 -1.5t10.5 -3t8.5 -3.5t9 -5t8 -4.5t9 -5.5t8.5 -6q33 -22 50 -22q31 0 37 52h51q6 -50 -18.5 -82.5t-71.5 -32.5z" />
    <glyph glyph-name="odieresis" unicode="&#xf6;" horiz-adv-x="491" 
d="M277 473q82 0 128 -53t46 -145q0 -121 -63.5 -204t-172.5 -83q-79 0 -127 51.5t-48 144.5q0 121 63.5 205t173.5 84zM265 410q-68 0 -109.5 -64t-41.5 -153q0 -70 29.5 -108t81.5 -38q68 0 109 66.5t41 156.5q0 66 -29 103t-81 37zM143 595q0 22 16 38t38 16
q23 0 38.5 -15.5t15.5 -38.5q0 -22 -16 -38t-38 -16t-38 16t-16 38zM332 594q0 22 16 38t38 16t38 -16t16 -38t-16 -38t-38 -16t-38 16t-16 38z" />
    <glyph glyph-name="divide" unicode="&#xf7;" horiz-adv-x="496" 
d="M448 225h-408l8 46h408zM163 70q0 18 12.5 30.5t30.5 12.5q17 0 30 -12.5t13 -30.5q0 -17 -13 -29.5t-30 -12.5q-18 0 -30.5 12.5t-12.5 29.5zM239 419q0 18 12.5 31t30.5 13q17 0 30 -13t13 -31q0 -17 -13 -29.5t-30 -12.5q-18 0 -30.5 12.5t-12.5 29.5z" />
    <glyph glyph-name="oslash" unicode="&#xf8;" horiz-adv-x="491" 
d="M277 473q83 0 129 -55l55 54l41 -43l-66 -64q15 -39 15 -90q0 -121 -63.5 -204t-172.5 -83q-73 0 -119 43l-47 -45l-42 40l54 53q-21 43 -21 105q0 121 63.5 205t173.5 84zM265 410q-68 0 -109.5 -64t-41.5 -153q0 -32 6 -56l232 228q-29 45 -87 45zM225 47
q68 0 109 66.5t41 156.5q0 11 -2 33l-227 -222q28 -34 79 -34z" />
    <glyph glyph-name="ugrave" unicode="&#xf9;" 
d="M316 87q-39 -99 -145 -99q-72 0 -101 45t-15 129l52 300h76l-55 -314q-8 -49 9 -76t57 -27q46 0 85 37t50 99l49 281h76l-64 -363q-8 -45 26 -45q13 0 29 4l-10 -55q-22 -8 -48 -8q-84 0 -71 92zM330 530h-65l-115 143h105z" />
    <glyph glyph-name="uacute" unicode="&#xfa;" 
d="M316 87q-39 -99 -145 -99q-72 0 -101 45t-15 129l52 300h76l-55 -314q-8 -49 9 -76t57 -27q46 0 85 37t50 99l49 281h76l-64 -363q-8 -45 26 -45q13 0 29 4l-10 -55q-22 -8 -48 -8q-84 0 -71 92zM314 530h-65l75 143h105z" />
    <glyph glyph-name="ucircumflex" unicode="&#xfb;" 
d="M316 87q-39 -99 -145 -99q-72 0 -101 45t-15 129l52 300h76l-55 -314q-8 -49 9 -76t57 -27q46 0 85 37t50 99l49 281h76l-64 -363q-8 -45 26 -45q13 0 29 4l-10 -55q-22 -8 -48 -8q-84 0 -71 92zM284 673h42l97 -143h-79l-28 44q-7 11 -11 21t-5 15l-1 4h-4
q-8 -16 -31 -40l-44 -44h-83z" />
    <glyph glyph-name="udieresis" unicode="&#xfc;" 
d="M316 87q-39 -99 -145 -99q-72 0 -101 45t-15 129l52 300h76l-55 -314q-8 -49 9 -76t57 -27q46 0 85 37t50 99l49 281h76l-64 -363q-8 -45 26 -45q13 0 29 4l-10 -55q-22 -8 -48 -8q-84 0 -71 92zM149 595q0 22 16 38t38 16q23 0 38.5 -15.5t15.5 -38.5q0 -22 -16 -38
t-38 -16t-38 16t-16 38zM338 594q0 22 16 38t38 16t38 -16t16 -38t-16 -38t-38 -16t-38 16t-16 38z" />
    <glyph glyph-name="yacute" unicode="&#xfd;" horiz-adv-x="418" 
d="M125 462l31 -268q6 -40 8.5 -76.5t2.5 -53.5v-16h4q14 55 60 145l136 269h81l-273 -518q-49 -93 -91.5 -124t-99.5 -31q-39 0 -69 17l16 57q30 -16 57 -16q38 0 67 28.5t64 97.5l-74 489h80zM267 530h-65l75 143h105z" />
    <glyph glyph-name="thorn" unicode="&#xfe;" horiz-adv-x="523" 
d="M162 264l-16 -92q-10 -47 18.5 -88.5t83.5 -41.5q71 0 113.5 68.5t42.5 169.5q0 62 -25 97t-72 35q-52 0 -93 -41t-52 -107zM129 76l-49 -279h-75l152 871h74l-51 -295q48 100 152 100q73 0 112 -49t39 -141q0 -127 -62.5 -211t-166.5 -84q-50 0 -83.5 25t-41.5 63z" />
    <glyph glyph-name="ydieresis" unicode="&#xff;" horiz-adv-x="418" 
d="M125 462l31 -268q6 -40 8.5 -76.5t2.5 -53.5v-16h4q14 55 60 145l136 269h81l-273 -518q-49 -93 -91.5 -124t-99.5 -31q-39 0 -69 17l16 57q30 -16 57 -16q38 0 67 28.5t64 97.5l-74 489h80zM102 595q0 22 16 38t38 16t38 -15.5t16 -38.5q0 -22 -16 -38t-38 -16t-38 16
t-16 38zM291 594q0 22 16 38t38 16q23 0 38.5 -16t15.5 -38t-16 -38t-38 -16t-38 16t-16 38z" />
    <glyph glyph-name="Amacron" unicode="&#x100;" horiz-adv-x="577" 
d="M433 0l-31 174h-247l-91 -174h-84l318 589h106l110 -589h-81zM488 677h-251l10 59h251zM270 392l-82 -154h202q-15 73 -26.5 149t-16 115.5t-3.5 39.5h-4q-22 -59 -70 -150z" />
    <glyph glyph-name="amacron" unicode="&#x101;" horiz-adv-x="525" 
d="M351 193l14 78q10 56 -14 99t-77 43q-69 0 -114.5 -64t-45.5 -163q0 -61 26.5 -98t75.5 -37q52 0 88 38t47 104zM475 462l-64 -363q-8 -45 26 -45q13 0 29 4l-10 -55q-22 -8 -48 -8q-38 0 -56.5 21t-15.5 61q-40 -89 -141 -89q-69 0 -112 50t-43 139q0 122 64 209t163 87
q102 0 120 -89l25 78h63zM423 564h-251l11 61h251z" />
    <glyph glyph-name="Abreve" unicode="&#x102;" horiz-adv-x="577" 
d="M433 0l-31 174h-247l-91 -174h-84l318 589h106l110 -589h-81zM355 652q-60 0 -89 34t-18 92h61q-3 -34 10 -51.5t47 -17.5q63 0 82 69h61q-11 -58 -52 -92t-102 -34zM270 392l-82 -154h202q-15 73 -26.5 149t-16 115.5t-3.5 39.5h-4q-22 -59 -70 -150z" />
    <glyph glyph-name="abreve" unicode="&#x103;" horiz-adv-x="525" 
d="M351 193l14 78q10 56 -14 99t-77 43q-69 0 -114.5 -64t-45.5 -163q0 -61 26.5 -98t75.5 -37q52 0 88 38t47 104zM475 462l-64 -363q-8 -45 26 -45q13 0 29 4l-10 -55q-22 -8 -48 -8q-38 0 -56.5 21t-15.5 61q-40 -89 -141 -89q-69 0 -112 50t-43 139q0 122 64 209t163 87
q102 0 120 -89l25 78h63zM283 529q-61 0 -89.5 36.5t-17.5 99.5h61q-3 -39 8 -58.5t48 -19.5t55.5 19.5t28.5 58.5h61q-11 -63 -52.5 -99.5t-102.5 -36.5z" />
    <glyph glyph-name="Aogonek" unicode="&#x104;" horiz-adv-x="577" 
d="M261 -118q0 65 52.5 109t111.5 52l-23 131h-247l-91 -174h-84l318 589h106l110 -589h-42q-57 0 -101 -30.5t-44 -79.5q0 -22 13 -35.5t34 -13.5q43 0 65 43l29 -35q-30 -60 -106 -60q-49 0 -75 25t-26 68zM270 392l-82 -154h202q-15 73 -26.5 149t-16 115.5t-3.5 39.5h-4
q-22 -59 -70 -150z" />
    <glyph glyph-name="aogonek" unicode="&#x105;" horiz-adv-x="525" 
d="M241 -118q0 48 33 83.5t77 51.5q-18 29 -15 60q-20 -42 -58 -65.5t-83 -23.5q-69 0 -112 50t-43 139q0 122 64 209t163 87q102 0 120 -89l25 78h63l-64 -363q-8 -45 26 -45q13 0 29 4l-10 -55q-149 -21 -149 -113q0 -22 13 -35.5t34 -13.5q43 0 65 43l29 -35
q-30 -60 -106 -60q-49 0 -75 25t-26 68zM351 193l14 78q10 56 -14 99t-77 43q-69 0 -114.5 -64t-45.5 -163q0 -61 26.5 -98t75.5 -37q52 0 88 38t47 104z" />
    <glyph glyph-name="Cacute" unicode="&#x106;" horiz-adv-x="551" 
d="M443 144l61 -34q-69 -122 -223 -122q-106 0 -166 66t-60 173q0 172 86.5 273t213.5 101q157 0 191 -139l-78 -32q-9 52 -42 78.5t-79 26.5q-97 0 -154 -88.5t-57 -213.5q0 -83 40 -131t114 -48q53 0 87.5 19t65.5 71zM392 655h-69l62 116h104z" />
    <glyph glyph-name="cacute" unicode="&#x107;" horiz-adv-x="440" 
d="M337 141l70 -16q-51 -137 -194 -137q-78 0 -125.5 51.5t-47.5 143.5q0 75 25.5 139.5t80 107.5t127.5 43q147 0 147 -145l-71 -12q-2 94 -85 94q-69 0 -109.5 -66.5t-40.5 -149.5q0 -72 28.5 -109.5t80.5 -37.5q82 0 114 94zM311 530h-65l75 143h105z" />
    <glyph glyph-name="Ccircumflex" unicode="&#x108;" horiz-adv-x="551" 
d="M443 144l61 -34q-69 -122 -223 -122q-106 0 -166 66t-60 173q0 172 86.5 273t213.5 101q157 0 191 -139l-78 -32q-9 52 -42 78.5t-79 26.5q-97 0 -154 -88.5t-57 -213.5q0 -83 40 -131t114 -48q53 0 87.5 19t65.5 71zM354 779h46l99 -124h-85l-26 34q-7 9 -11.5 18
t-5.5 13l-1 4h-2q-7 -14 -30 -35l-38 -34h-89z" />
    <glyph glyph-name="ccircumflex" unicode="&#x109;" horiz-adv-x="440" 
d="M337 141l70 -16q-51 -137 -194 -137q-78 0 -125.5 51.5t-47.5 143.5q0 75 25.5 139.5t80 107.5t127.5 43q147 0 147 -145l-71 -12q-2 94 -85 94q-69 0 -109.5 -66.5t-40.5 -149.5q0 -72 28.5 -109.5t80.5 -37.5q82 0 114 94zM281 673h42l97 -143h-79l-28 44q-7 11 -11 21
t-5 15l-1 4h-4q-8 -16 -31 -40l-44 -44h-83z" />
    <glyph glyph-name="Cdotaccent" unicode="&#x10a;" horiz-adv-x="551" 
d="M443 144l61 -34q-69 -122 -223 -122q-106 0 -166 66t-60 173q0 172 86.5 273t213.5 101q157 0 191 -139l-78 -32q-9 52 -42 78.5t-79 26.5q-97 0 -154 -88.5t-57 -213.5q0 -83 40 -131t114 -48q53 0 87.5 19t65.5 71zM316 725q0 23 15.5 39t37.5 16q23 0 39 -16t16 -39
q0 -22 -16 -38t-39 -16q-22 0 -37.5 16t-15.5 38z" />
    <glyph glyph-name="cdotaccent" unicode="&#x10b;" horiz-adv-x="440" 
d="M337 141l70 -16q-51 -137 -194 -137q-78 0 -125.5 51.5t-47.5 143.5q0 75 25.5 139.5t80 107.5t127.5 43q147 0 147 -145l-71 -12q-2 94 -85 94q-69 0 -109.5 -66.5t-40.5 -149.5q0 -72 28.5 -109.5t80.5 -37.5q82 0 114 94zM237 612q0 23 15.5 39t37.5 16q23 0 39 -16
t16 -39q0 -22 -16 -38t-39 -16q-22 0 -37.5 16t-15.5 38z" />
    <glyph glyph-name="Ccaron" unicode="&#x10c;" horiz-adv-x="551" 
d="M443 144l61 -34q-69 -122 -223 -122q-106 0 -166 66t-60 173q0 172 86.5 273t213.5 101q157 0 191 -139l-78 -32q-9 52 -42 78.5t-79 26.5q-97 0 -154 -88.5t-57 -213.5q0 -83 40 -131t114 -48q53 0 87.5 19t65.5 71zM382 655h-46l-99 124h85l26 -34q7 -9 11.5 -18
t5.5 -13l1 -4h2q7 14 30 35l38 34h89z" />
    <glyph glyph-name="ccaron" unicode="&#x10d;" horiz-adv-x="440" 
d="M337 141l70 -16q-51 -137 -194 -137q-78 0 -125.5 51.5t-47.5 143.5q0 75 25.5 139.5t80 107.5t127.5 43q147 0 147 -145l-71 -12q-2 94 -85 94q-69 0 -109.5 -66.5t-40.5 -149.5q0 -72 28.5 -109.5t80.5 -37.5q82 0 114 94zM303 530h-42l-97 143h79l28 -44q7 -11 11 -21
t5 -14l1 -5h4q8 16 31 40l44 44h83z" />
    <glyph glyph-name="Dcaron" unicode="&#x10e;" horiz-adv-x="588" 
d="M131 65h95q104 0 171 73t67 222q0 164 -173 164h-79zM230 0h-190l103 589h160q123 0 184 -58t61 -165q0 -96 -27.5 -169t-74.5 -114.5t-101.5 -62t-114.5 -20.5zM338 655h-46l-99 124h85l26 -34q7 -9 11.5 -18t5.5 -13l1 -4h2q7 14 30 35l38 34h89z" />
    <glyph glyph-name="dcaron" unicode="&#x10f;" horiz-adv-x="521" 
d="M657 668l-51 -175h-55l16 175h90zM351 192l15 79q10 56 -14.5 98.5t-77.5 42.5q-70 0 -115.5 -64t-45.5 -163q0 -60 26.5 -97t75.5 -37q53 0 89 37.5t47 103.5zM511 668l-100 -569q-8 -45 26 -45q13 0 29 4l-10 -55q-22 -8 -48 -8q-38 0 -56.5 21t-15.5 61
q-33 -89 -141 -89q-69 0 -112 50t-43 139q0 122 64 209t163 87q101 0 119 -89l50 284h75z" />
    <glyph glyph-name="Dcroat" unicode="&#x110;" horiz-adv-x="588" 
d="M230 0h-190l45 260h-65l12 68h65l46 261h160q123 0 184 -58t61 -165q0 -96 -27.5 -169t-74.5 -114.5t-101.5 -62t-114.5 -20.5zM131 65h95q104 0 171 73t67 222q0 164 -173 164h-79l-35 -196h126l-12 -68h-126z" />
    <glyph glyph-name="dcroat" unicode="&#x111;" horiz-adv-x="521" 
d="M511 668l-14 -76h74l-11 -59h-73l-76 -434q-8 -45 26 -45q13 0 29 4l-10 -55q-22 -8 -48 -8q-38 0 -56.5 21t-15.5 61q-33 -89 -141 -89q-69 0 -112 50t-43 139q0 122 64 209t163 87q101 0 119 -89l26 149h-141l11 59h140l14 76h75zM351 192l15 79q10 56 -14.5 98.5
t-77.5 42.5q-70 0 -115.5 -64t-45.5 -163q0 -60 26.5 -97t75.5 -37q53 0 89 37.5t47 103.5z" />
    <glyph glyph-name="Emacron" unicode="&#x112;" horiz-adv-x="480" 
d="M403 68l-11 -68h-352l103 589h352l-12 -68h-272l-34 -193h241l-12 -68h-241l-34 -192h272zM447 677h-251l10 59h251z" />
    <glyph glyph-name="emacron" unicode="&#x113;" horiz-adv-x="459" 
d="M223 47q49 0 74.5 19.5t39.5 59.5l69 -17q-24 -67 -71 -94t-119 -27q-82 0 -129 53t-47 143q0 133 67.5 211t157.5 78q83 0 123.5 -47.5t40.5 -117.5q0 -51 -20 -94h-298q-6 -68 22 -117.5t90 -49.5zM120 275h231q5 14 5 35q0 44 -24.5 73.5t-70.5 29.5q-54 0 -90 -39
t-51 -99zM394 564h-251l11 61h251z" />
    <glyph glyph-name="Ebreve" unicode="&#x114;" horiz-adv-x="480" 
d="M403 68l-11 -68h-352l103 589h352l-12 -68h-272l-34 -193h241l-12 -68h-241l-34 -192h272zM314 652q-60 0 -89 34t-18 92h61q-3 -34 10 -51.5t47 -17.5q63 0 82 69h61q-11 -58 -52 -92t-102 -34z" />
    <glyph glyph-name="ebreve" unicode="&#x115;" horiz-adv-x="459" 
d="M223 47q49 0 74.5 19.5t39.5 59.5l69 -17q-24 -67 -71 -94t-119 -27q-82 0 -129 53t-47 143q0 133 67.5 211t157.5 78q83 0 123.5 -47.5t40.5 -117.5q0 -51 -20 -94h-298q-6 -68 22 -117.5t90 -49.5zM120 275h231q5 14 5 35q0 44 -24.5 73.5t-70.5 29.5q-54 0 -90 -39
t-51 -99zM254 529q-61 0 -89.5 36.5t-17.5 99.5h61q-3 -39 8 -58.5t48 -19.5t55.5 19.5t28.5 58.5h61q-11 -63 -52.5 -99.5t-102.5 -36.5z" />
    <glyph glyph-name="Edotaccent" unicode="&#x116;" horiz-adv-x="480" 
d="M403 68l-11 -68h-352l103 589h352l-12 -68h-272l-34 -193h241l-12 -68h-241l-34 -192h272zM269 725q0 23 15.5 39t37.5 16q23 0 39 -16t16 -39q0 -22 -16 -38t-39 -16q-22 0 -37.5 16t-15.5 38z" />
    <glyph glyph-name="edotaccent" unicode="&#x117;" horiz-adv-x="459" 
d="M223 47q49 0 74.5 19.5t39.5 59.5l69 -17q-24 -67 -71 -94t-119 -27q-82 0 -129 53t-47 143q0 133 67.5 211t157.5 78q83 0 123.5 -47.5t40.5 -117.5q0 -51 -20 -94h-298q-6 -68 22 -117.5t90 -49.5zM120 275h231q5 14 5 35q0 44 -24.5 73.5t-70.5 29.5q-54 0 -90 -39
t-51 -99zM217 612q0 23 15.5 39t37.5 16q23 0 39 -16t16 -39q0 -22 -16 -38t-39 -16q-22 0 -37.5 16t-15.5 38z" />
    <glyph glyph-name="Eogonek" unicode="&#x118;" horiz-adv-x="480" 
d="M162 -118q0 37 22.5 70t56.5 48h-201l103 589h352l-12 -68h-272l-34 -193h241l-12 -68h-241l-34 -192h272l-11 -68h-25q-56 0 -97.5 -31t-41.5 -79q0 -22 13 -35.5t34 -13.5q43 0 65 43l29 -35q-30 -60 -106 -60q-49 0 -75 25t-26 68z" />
    <glyph glyph-name="eogonek" unicode="&#x119;" horiz-adv-x="459" 
d="M141 -118q0 62 54 107q-73 7 -114 59t-41 136q0 133 67.5 211t157.5 78q83 0 123.5 -47.5t40.5 -117.5q0 -51 -20 -94h-298q-6 -68 22 -117.5t90 -49.5q49 0 74.5 19.5t39.5 59.5l69 -17q-18 -48 -48 -72t-79 -43q-33 -13 -52.5 -41t-19.5 -63q0 -22 13 -35.5t34 -13.5
q43 0 65 43l29 -35q-30 -60 -106 -60q-49 0 -75 25t-26 68zM120 275h231q5 14 5 35q0 44 -24.5 73.5t-70.5 29.5q-54 0 -90 -39t-51 -99z" />
    <glyph glyph-name="Ecaron" unicode="&#x11a;" horiz-adv-x="480" 
d="M403 68l-11 -68h-352l103 589h352l-12 -68h-272l-34 -193h241l-12 -68h-241l-34 -192h272zM335 655h-46l-99 124h85l26 -34q7 -9 11.5 -18t5.5 -13l1 -4h2q7 14 30 35l38 34h89z" />
    <glyph glyph-name="ecaron" unicode="&#x11b;" horiz-adv-x="459" 
d="M223 47q49 0 74.5 19.5t39.5 59.5l69 -17q-24 -67 -71 -94t-119 -27q-82 0 -129 53t-47 143q0 133 67.5 211t157.5 78q83 0 123.5 -47.5t40.5 -117.5q0 -51 -20 -94h-298q-6 -68 22 -117.5t90 -49.5zM120 275h231q5 14 5 35q0 44 -24.5 73.5t-70.5 29.5q-54 0 -90 -39
t-51 -99zM283 530h-42l-97 143h79l28 -44q7 -11 11 -21t5 -14l1 -5h4q8 16 31 40l44 44h83z" />
    <glyph glyph-name="Gcircumflex" unicode="&#x11c;" horiz-adv-x="592" 
d="M317 300h228l-52 -300h-62l-1 75q-40 -87 -150 -87q-105 0 -165 66t-60 173q0 172 87 273t214 101q157 0 191 -139l-78 -32q-9 52 -42 78.5t-79 26.5q-97 0 -154.5 -88.5t-57.5 -213.5q0 -83 39 -131t115 -48q134 0 158 138l7 38h-150zM355 779h46l99 -124h-85l-26 34
q-7 9 -11.5 18t-5.5 13l-1 4h-2q-7 -14 -30 -35l-38 -34h-89z" />
    <glyph glyph-name="gcircumflex" unicode="&#x11d;" horiz-adv-x="500" 
d="M351 190l15 81q10 56 -13.5 99t-76.5 43q-71 0 -116.5 -64.5t-45.5 -163.5q0 -61 25.5 -97.5t75.5 -36.5q54 0 89.5 36.5t46.5 102.5zM475 462l-84 -477q-18 -101 -71 -148.5t-153 -47.5q-86 0 -128 35.5t-49 92.5l68 23q3 -41 33.5 -68t80.5 -27q62 0 95.5 34.5
t46.5 102.5l18 93q-38 -86 -135 -86q-70 0 -113.5 50t-43.5 139q0 121 65 208t165 87q99 0 117 -89l25 78h63zM287 673h42l97 -143h-79l-28 44q-7 11 -11 21t-5 15l-1 4h-4q-8 -16 -31 -40l-44 -44h-83z" />
    <glyph glyph-name="Gbreve" unicode="&#x11e;" horiz-adv-x="592" 
d="M317 300h228l-52 -300h-62l-1 75q-40 -87 -150 -87q-105 0 -165 66t-60 173q0 172 87 273t214 101q157 0 191 -139l-78 -32q-9 52 -42 78.5t-79 26.5q-97 0 -154.5 -88.5t-57.5 -213.5q0 -83 39 -131t115 -48q134 0 158 138l7 38h-150zM361 652q-60 0 -89 34t-18 92h61
q-3 -34 10 -51.5t47 -17.5q63 0 82 69h61q-11 -58 -52 -92t-102 -34z" />
    <glyph glyph-name="gbreve" unicode="&#x11f;" horiz-adv-x="500" 
d="M351 190l15 81q10 56 -13.5 99t-76.5 43q-71 0 -116.5 -64.5t-45.5 -163.5q0 -61 25.5 -97.5t75.5 -36.5q54 0 89.5 36.5t46.5 102.5zM475 462l-84 -477q-18 -101 -71 -148.5t-153 -47.5q-86 0 -128 35.5t-49 92.5l68 23q3 -41 33.5 -68t80.5 -27q62 0 95.5 34.5
t46.5 102.5l18 93q-38 -86 -135 -86q-70 0 -113.5 50t-43.5 139q0 121 65 208t165 87q99 0 117 -89l25 78h63zM280 529q-61 0 -89.5 36.5t-17.5 99.5h61q-3 -39 8 -58.5t48 -19.5t55.5 19.5t28.5 58.5h61q-11 -63 -52.5 -99.5t-102.5 -36.5z" />
    <glyph glyph-name="Gdotaccent" unicode="&#x120;" horiz-adv-x="592" 
d="M317 300h228l-52 -300h-62l-1 75q-40 -87 -150 -87q-105 0 -165 66t-60 173q0 172 87 273t214 101q157 0 191 -139l-78 -32q-9 52 -42 78.5t-79 26.5q-97 0 -154.5 -88.5t-57.5 -213.5q0 -83 39 -131t115 -48q134 0 158 138l7 38h-150zM317 725q0 23 15.5 39t37.5 16
q23 0 39 -16t16 -39q0 -22 -16 -38t-39 -16q-22 0 -37.5 16t-15.5 38z" />
    <glyph glyph-name="gdotaccent" unicode="&#x121;" horiz-adv-x="500" 
d="M351 190l15 81q10 56 -13.5 99t-76.5 43q-71 0 -116.5 -64.5t-45.5 -163.5q0 -61 25.5 -97.5t75.5 -36.5q54 0 89.5 36.5t46.5 102.5zM475 462l-84 -477q-18 -101 -71 -148.5t-153 -47.5q-86 0 -128 35.5t-49 92.5l68 23q3 -41 33.5 -68t80.5 -27q62 0 95.5 34.5
t46.5 102.5l18 93q-38 -86 -135 -86q-70 0 -113.5 50t-43.5 139q0 121 65 208t165 87q99 0 117 -89l25 78h63zM243 612q0 23 15.5 39t37.5 16q23 0 39 -16t16 -39q0 -22 -16 -38t-39 -16q-22 0 -37.5 16t-15.5 38z" />
    <glyph glyph-name="Gcommaaccent" unicode="&#x122;" horiz-adv-x="592" 
d="M317 300h228l-52 -300h-62l-1 75q-40 -87 -150 -87q-105 0 -165 66t-60 173q0 172 87 273t214 101q157 0 191 -139l-78 -32q-9 52 -42 78.5t-79 26.5q-97 0 -154.5 -88.5t-57.5 -213.5q0 -83 39 -131t115 -48q134 0 158 138l7 38h-150zM291 -140q0 -52 -35 -78.5
t-93 -26.5v34q72 4 72 44q-26 -5 -41.5 8t-15.5 36t14.5 36t38.5 13q25 0 42.5 -17t17.5 -49z" />
    <glyph glyph-name="gcommaaccent" unicode="&#x123;" horiz-adv-x="500" 
d="M351 190l15 81q10 56 -13.5 99t-76.5 43q-71 0 -116.5 -64.5t-45.5 -163.5q0 -61 25.5 -97.5t75.5 -36.5q54 0 89.5 36.5t46.5 102.5zM475 462l-84 -477q-18 -101 -71 -148.5t-153 -47.5q-86 0 -128 35.5t-49 92.5l68 23q3 -41 33.5 -68t80.5 -27q62 0 95.5 34.5
t46.5 102.5l18 93q-38 -86 -135 -86q-70 0 -113.5 50t-43.5 139q0 121 65 208t165 87q99 0 117 -89l25 78h63zM253 601q0 52 35 78.5t93 26.5v-34q-72 -4 -72 -44q26 5 41.5 -8t15.5 -36t-14.5 -36t-38.5 -13q-25 0 -42.5 17t-17.5 49z" />
    <glyph glyph-name="Hcircumflex" unicode="&#x124;" horiz-adv-x="614" 
d="M120 0h-80l103 589h80l-45 -256h296l45 256h80l-103 -589h-80l46 265h-296zM373 779h46l99 -124h-85l-26 34q-7 9 -11.5 18t-5.5 13l-1 4h-2q-7 -14 -30 -35l-38 -34h-89z" />
    <glyph glyph-name="hcircumflex" unicode="&#x125;" horiz-adv-x="505" 
d="M443 318l-38 -219q-8 -45 26 -45q13 0 29 4l-10 -55q-22 -8 -48 -8q-91 0 -73 100l40 224q16 90 -63 90q-46 0 -89 -37t-57 -119l-44 -253h-76l116 668h78l-54 -300q51 105 149 105q55 0 86.5 -28t31.5 -81q0 -23 -4 -46zM201 821h46l99 -124h-85l-26 34q-7 9 -11.5 18
t-5.5 13l-1 4h-2q-7 -14 -30 -35l-38 -34h-89z" />
    <glyph glyph-name="Hbar" unicode="&#x126;" horiz-adv-x="638" 
d="M129 0h-80l73 421h-87l12 66h87l18 102h80l-18 -102h296l18 102h80l-18 -102h93l-12 -66h-93l-73 -421h-80l46 265h-296zM187 333h296l15 88h-296z" />
    <glyph glyph-name="hbar" unicode="&#x127;" horiz-adv-x="505" 
d="M56 533l11 59h76l13 76h78l-14 -76h136l-11 -59h-136l-29 -165q51 105 149 105q55 0 86.5 -28t31.5 -81q0 -23 -4 -46l-38 -219q-8 -45 26 -45q13 0 29 4l-10 -55q-22 -8 -48 -8q-91 0 -73 100l40 224q16 90 -63 90q-46 0 -89 -37t-57 -119l-44 -253h-76l92 533h-76z" />
    <glyph glyph-name="Itilde" unicode="&#x128;" horiz-adv-x="238" 
d="M143 589h80l-103 -589h-80zM254 655q-8 0 -16 1t-13 2.5t-12 4.5t-10 5t-10.5 6.5t-10.5 6.5q-4 2 -12.5 8t-12 7.5t-9.5 4.5t-11 4t-11 1q-36 0 -39 -49h-48q-8 46 18 79.5t71 33.5q7 0 13.5 -1t11 -1.5t10.5 -3t8.5 -3.5t9 -5t8 -4.5t9 -5.5t8.5 -6q33 -22 50 -22
q31 0 37 52h51q6 -50 -18.5 -82.5t-71.5 -32.5z" />
    <glyph glyph-name="itilde" unicode="&#x129;" horiz-adv-x="243" 
d="M240 531q-8 0 -16 1t-13 2.5t-12 4.5t-10 5t-10.5 6.5t-10.5 6.5q-4 2 -12.5 8t-12 7.5t-9.5 4.5t-11 4t-11 1q-36 0 -39 -49h-48q-8 46 18 79.5t71 33.5q7 0 13.5 -1t11 -1.5t10.5 -3t8.5 -3.5t9 -5t8 -4.5t9 -5.5t8.5 -6q33 -22 50 -22q31 0 37 52h51
q6 -50 -18.5 -82.5t-71.5 -32.5zM193 462l-64 -363q-8 -45 26 -45q13 0 29 4l-10 -55q-22 -8 -48 -8q-91 0 -73 100l64 367h76z" />
    <glyph glyph-name="Imacron" unicode="&#x12a;" horiz-adv-x="238" 
d="M143 589h80l-103 -589h-80zM325 677h-251l10 59h251z" />
    <glyph glyph-name="imacron" unicode="&#x12b;" horiz-adv-x="243" 
d="M299 564h-251l11 61h251zM193 462l-64 -363q-8 -45 26 -45q13 0 29 4l-10 -55q-22 -8 -48 -8q-91 0 -73 100l64 367h76z" />
    <glyph glyph-name="Ibreve" unicode="&#x12c;" horiz-adv-x="238" 
d="M143 589h80l-103 -589h-80zM191 652q-60 0 -89 34t-18 92h61q-3 -34 10 -51.5t47 -17.5q63 0 82 69h61q-11 -58 -52 -92t-102 -34z" />
    <glyph glyph-name="Iogonek" unicode="&#x12e;" horiz-adv-x="238" 
d="M-91 -118q0 57 41.5 98.5t95.5 57.5l97 551h80l-103 -589q-57 0 -101 -30.5t-44 -79.5q0 -22 13 -35.5t34 -13.5q43 0 65 43l29 -35q-30 -60 -106 -60q-49 0 -75 25t-26 68z" />
    <glyph glyph-name="iogonek" unicode="&#x12f;" horiz-adv-x="243" 
d="M-28 -114q0 44 25 80t66 52q-19 25 -10 77l64 367h76l-64 -363q-8 -45 26 -45q13 0 29 4l-10 -55q-136 -9 -136 -113q0 -22 13 -35.5t34 -13.5q43 0 65 43l29 -35q-30 -60 -106 -60q-49 0 -75 25.5t-26 71.5zM125 612q0 23 15.5 39t37.5 16q23 0 39 -16t16 -39
q0 -22 -16.5 -38t-38.5 -16t-37.5 16t-15.5 38z" />
    <glyph glyph-name="Idotaccent" unicode="&#x130;" horiz-adv-x="238" 
d="M143 589h80l-103 -589h-80zM147 725q0 23 15.5 39t37.5 16q23 0 39 -16t16 -39q0 -22 -16 -38t-39 -16q-22 0 -37.5 16t-15.5 38z" />
    <glyph glyph-name="dotlessi" unicode="&#x131;" horiz-adv-x="243" 
d="M193 462l-64 -363q-8 -45 26 -45q13 0 29 4l-10 -55q-22 -8 -48 -8q-91 0 -73 100l64 367h76z" />
    <glyph glyph-name="IJ" unicode="&#x132;" horiz-adv-x="671" 
d="M143 589h80l-103 -589h-80zM581 589h80l-77 -434q-16 -90 -59.5 -128.5t-128.5 -38.5q-66 0 -106.5 33t-52.5 88l64 41q22 -99 100 -99q52 0 73 26.5t32 91.5z" />
    <glyph glyph-name="ij" unicode="&#x133;" horiz-adv-x="461" 
d="M193 462l-64 -363q-8 -45 26 -45q13 0 29 4l-10 -55q-22 -8 -48 -8q-91 0 -73 100l64 367h76zM125 612q0 23 15.5 39t37.5 16q23 0 39 -16t16 -39q0 -22 -16.5 -38t-38.5 -16t-37.5 16t-15.5 38zM436 462l-94 -532q-13 -78 -51.5 -109.5t-100.5 -31.5q-54 0 -87 26l26 60
q33 -25 68 -25q54 0 68 78l95 534h76zM368 612q0 23 15.5 39t37.5 16q23 0 39 -16t16 -39q0 -22 -16.5 -38t-38.5 -16t-37.5 16t-15.5 38z" />
    <glyph glyph-name="Jcircumflex" unicode="&#x134;" horiz-adv-x="419" 
d="M329 589h80l-77 -434q-16 -90 -59.5 -128.5t-128.5 -38.5q-66 0 -106.5 33t-52.5 88l64 41q22 -99 100 -99q52 0 73 26.5t32 91.5zM371 779h46l99 -124h-85l-26 34q-7 9 -11.5 18t-5.5 13l-1 4h-2q-7 -14 -30 -35l-38 -34h-89z" />
    <glyph glyph-name="jcircumflex" unicode="&#x135;" horiz-adv-x="218" 
d="M193 462l-94 -532q-13 -78 -51.5 -109.5t-100.5 -31.5q-54 0 -87 26l26 60q33 -25 68 -25q54 0 68 78l95 534h76zM165 673h42l97 -143h-79l-28 44q-7 11 -11 21t-5 15l-1 4h-4q-8 -16 -31 -40l-44 -44h-83z" />
    <glyph glyph-name="Kcommaaccent" unicode="&#x136;" horiz-adv-x="508" 
d="M459 0h-89l-147 265h-57l-46 -265h-80l103 589h80l-45 -258h47l228 258h95l-261 -286zM244 -140q0 -52 -35 -78.5t-93 -26.5v34q72 4 72 44q-26 -5 -41.5 8t-15.5 36t14.5 36t38.5 13q25 0 42.5 -17t17.5 -49z" />
    <glyph glyph-name="kcommaaccent" unicode="&#x137;" horiz-adv-x="437" 
d="M274 44l-91 184h-27l-40 -228h-76l117 668h77l-68 -385h22l171 179h93l-203 -202l81 -170q14 -28 32.5 -33.5t50.5 3.5l-11 -57q-24 -8 -53 -8q-51 0 -75 49zM230 -140q0 -52 -35 -78.5t-93 -26.5v34q72 4 72 44q-26 -5 -41.5 8t-15.5 36t14.5 36t38.5 13q25 0 42.5 -17
t17.5 -49z" />
    <glyph glyph-name="kgreenlandic" unicode="&#x138;" horiz-adv-x="437" 
d="M275 44l-91 184h-28l-40 -228h-76l81 462h77l-32 -179h22l171 179h93l-203 -202l81 -170q14 -28 32.5 -33.5t50.5 3.5l-11 -57q-24 -8 -53 -8q-50 0 -74 49z" />
    <glyph glyph-name="Lacute" unicode="&#x139;" horiz-adv-x="458" 
d="M143 589h80l-92 -521h272l-11 -68h-352zM225 655h-69l62 116h104z" />
    <glyph glyph-name="lacute" unicode="&#x13a;" horiz-adv-x="239" 
d="M229 668l-100 -569q-8 -45 26 -45q13 0 29 4l-10 -55q-22 -8 -48 -8q-91 0 -73 100l100 573h76zM230 697h-69l62 116h104z" />
    <glyph glyph-name="Lcommaaccent" unicode="&#x13b;" horiz-adv-x="458" 
d="M143 589h80l-92 -521h272l-11 -68h-352zM265 -140q0 -52 -35 -78.5t-93 -26.5v34q72 4 72 44q-26 -5 -41.5 8t-15.5 36t14.5 36t38.5 13q25 0 42.5 -17t17.5 -49z" />
    <glyph glyph-name="lcommaaccent" unicode="&#x13c;" horiz-adv-x="239" 
d="M229 668l-100 -569q-8 -45 26 -45q13 0 29 4l-10 -55q-22 -8 -48 -8q-91 0 -73 100l100 573h76zM136 -140q0 -52 -35 -78.5t-93 -26.5v34q72 4 72 44q-26 -5 -41.5 8t-15.5 36t14.5 36t38.5 13q25 0 42.5 -17t17.5 -49z" />
    <glyph glyph-name="Lcaron" unicode="&#x13d;" horiz-adv-x="458" 
d="M143 589h80l-92 -521h272l-11 -68h-352zM378 668l-51 -175h-55l16 175h90z" />
    <glyph glyph-name="lcaron" unicode="&#x13e;" horiz-adv-x="239" 
d="M375 668l-51 -175h-55l16 175h90zM229 668l-100 -569q-8 -45 26 -45q13 0 29 4l-10 -55q-22 -8 -48 -8q-91 0 -73 100l100 573h76z" />
    <glyph glyph-name="Ldot" unicode="&#x13f;" horiz-adv-x="458" 
d="M143 589h80l-92 -521h272l-11 -68h-352zM321 306q0 26 18 44t44 18t44 -18t18 -44t-18 -44t-44 -18t-44 18t-18 44z" />
    <glyph glyph-name="ldot" unicode="&#x140;" horiz-adv-x="313" 
d="M229 668l-100 -569q-8 -45 26 -45q13 0 29 4l-10 -55q-22 -8 -48 -8q-91 0 -73 100l100 573h76zM224 314q0 26 18 44t44 18t44 -18t18 -44t-18 -44t-44 -18t-44 18t-18 44z" />
    <glyph glyph-name="Lslash" unicode="&#x141;" horiz-adv-x="463" 
d="M148 589h80l-44 -252l149 53l-12 -69l-149 -51l-36 -202h272l-11 -68h-352l42 242l-67 -23l12 65l67 23z" />
    <glyph glyph-name="lslash" unicode="&#x142;" horiz-adv-x="245" 
d="M231 668l-44 -250l78 38l-13 -72l-78 -37l-43 -248q-8 -45 26 -45q13 0 29 4l-10 -55q-22 -8 -48 -8q-91 0 -73 100l37 213l-62 -29l12 68l62 30l51 291h76z" />
    <glyph glyph-name="Nacute" unicode="&#x143;" horiz-adv-x="613" 
d="M226 589l159 -348q14 -31 26.5 -64.5t17.5 -50.5l5 -18h4q8 71 21 145l59 336h80l-103 -589h-81l-163 346q-14 30 -26.5 63t-18.5 51l-6 19h-4q-4 -69 -17 -143l-59 -336h-80l103 589h83zM399 655h-69l62 116h104z" />
    <glyph glyph-name="nacute" unicode="&#x144;" horiz-adv-x="505" 
d="M443 318l-38 -219q-8 -45 26 -45q13 0 29 4l-10 -55q-22 -8 -48 -8q-91 0 -73 100l40 224q16 90 -63 90q-46 0 -89 -37t-57 -119l-44 -253h-76l81 462h66l-7 -94q51 105 149 105q55 0 86.5 -28t31.5 -81q0 -23 -4 -46zM322 530h-65l75 143h105z" />
    <glyph glyph-name="Ncommaaccent" unicode="&#x145;" horiz-adv-x="613" 
d="M226 589l159 -348q14 -31 26.5 -64.5t17.5 -50.5l5 -18h4q8 71 21 145l59 336h80l-103 -589h-81l-163 346q-14 30 -26.5 63t-18.5 51l-6 19h-4q-4 -69 -17 -143l-59 -336h-80l103 589h83zM297 -140q0 -52 -35 -78.5t-93 -26.5v34q72 4 72 44q-26 -5 -41.5 8t-15.5 36
t14.5 36t38.5 13q25 0 42.5 -17t17.5 -49z" />
    <glyph glyph-name="ncommaaccent" unicode="&#x146;" horiz-adv-x="505" 
d="M443 318l-38 -219q-8 -45 26 -45q13 0 29 4l-10 -55q-22 -8 -48 -8q-91 0 -73 100l40 224q16 90 -63 90q-46 0 -89 -37t-57 -119l-44 -253h-76l81 462h66l-7 -94q51 105 149 105q55 0 86.5 -28t31.5 -81q0 -23 -4 -46zM243 -140q0 -52 -35 -78.5t-93 -26.5v34q72 4 72 44
q-26 -5 -41.5 8t-15.5 36t14.5 36t38.5 13q25 0 42.5 -17t17.5 -49z" />
    <glyph glyph-name="Ncaron" unicode="&#x147;" horiz-adv-x="613" 
d="M226 589l159 -348q14 -31 26.5 -64.5t17.5 -50.5l5 -18h4q8 71 21 145l59 336h80l-103 -589h-81l-163 346q-14 30 -26.5 63t-18.5 51l-6 19h-4q-4 -69 -17 -143l-59 -336h-80l103 589h83zM389 655h-46l-99 124h85l26 -34q7 -9 11.5 -18t5.5 -13l1 -4h2q7 14 30 35l38 34
h89z" />
    <glyph glyph-name="ncaron" unicode="&#x148;" horiz-adv-x="505" 
d="M443 318l-38 -219q-8 -45 26 -45q13 0 29 4l-10 -55q-22 -8 -48 -8q-91 0 -73 100l40 224q16 90 -63 90q-46 0 -89 -37t-57 -119l-44 -253h-76l81 462h66l-7 -94q51 105 149 105q55 0 86.5 -28t31.5 -81q0 -23 -4 -46zM315 530h-42l-97 143h79l28 -44q7 -11 11 -21t5 -14
l1 -5h4q8 16 31 40l44 44h83z" />
    <glyph glyph-name="Eng" unicode="&#x14a;" horiz-adv-x="613" 
d="M598 589l-111 -633q-16 -89 -61 -128t-130 -39q-104 0 -150 76l57 56q35 -67 98 -67q52 0 75 28.5t34 93.5l4 24l-163 346q-14 30 -26.5 63t-18.5 51l-6 19h-4q-4 -69 -17 -143l-59 -336h-80l103 589h83l159 -348q14 -31 26.5 -64.5t17.5 -50.5l5 -18h4q8 71 21 145
l59 336h80z" />
    <glyph glyph-name="eng" unicode="&#x14b;" horiz-adv-x="494" 
d="M443 318l-67 -388q-13 -78 -51.5 -109.5t-100.5 -31.5q-54 0 -87 26l26 60q33 -25 68 -25q54 0 68 78l70 391q16 90 -63 90q-46 0 -89 -37t-57 -119l-44 -253h-76l81 462h66l-7 -94q51 105 149 105q55 0 86.5 -28t31.5 -81q0 -23 -4 -46z" />
    <glyph glyph-name="Omacron" unicode="&#x14c;" horiz-adv-x="616" 
d="M281 -12q-106 0 -166 66t-60 173q0 172 86.5 273t213.5 101q106 0 166 -66.5t60 -173.5q0 -172 -86.5 -272.5t-213.5 -100.5zM347 534q-97 0 -154 -88t-57 -213q0 -83 40 -131t114 -48q96 0 153 88t57 213q0 79 -37.5 129t-115.5 50zM502 677h-251l10 59h251z" />
    <glyph glyph-name="omacron" unicode="&#x14d;" horiz-adv-x="491" 
d="M277 473q82 0 128 -53t46 -145q0 -121 -63.5 -204t-172.5 -83q-79 0 -127 51.5t-48 144.5q0 121 63.5 205t173.5 84zM265 410q-68 0 -109.5 -64t-41.5 -153q0 -70 29.5 -108t81.5 -38q68 0 109 66.5t41 156.5q0 66 -29 103t-81 37zM411 564h-251l11 61h251z" />
    <glyph glyph-name="Obreve" unicode="&#x14e;" horiz-adv-x="616" 
d="M281 -12q-106 0 -166 66t-60 173q0 172 86.5 273t213.5 101q106 0 166 -66.5t60 -173.5q0 -172 -86.5 -272.5t-213.5 -100.5zM347 534q-97 0 -154 -88t-57 -213q0 -83 40 -131t114 -48q96 0 153 88t57 213q0 79 -37.5 129t-115.5 50zM368 652q-60 0 -89 34t-18 92h61
q-3 -34 10 -51.5t47 -17.5q63 0 82 69h61q-11 -58 -52 -92t-102 -34z" />
    <glyph glyph-name="obreve" unicode="&#x14f;" horiz-adv-x="491" 
d="M277 473q82 0 128 -53t46 -145q0 -121 -63.5 -204t-172.5 -83q-79 0 -127 51.5t-48 144.5q0 121 63.5 205t173.5 84zM265 410q-68 0 -109.5 -64t-41.5 -153q0 -70 29.5 -108t81.5 -38q68 0 109 66.5t41 156.5q0 66 -29 103t-81 37zM271 529q-61 0 -89.5 36.5t-17.5 99.5
h61q-3 -39 8 -58.5t48 -19.5t55.5 19.5t28.5 58.5h61q-11 -63 -52.5 -99.5t-102.5 -36.5z" />
    <glyph glyph-name="Ohungarumlaut" unicode="&#x150;" horiz-adv-x="616" 
d="M281 -12q-106 0 -166 66t-60 173q0 172 86.5 273t213.5 101q106 0 166 -66.5t60 -173.5q0 -172 -86.5 -272.5t-213.5 -100.5zM347 534q-97 0 -154 -88t-57 -213q0 -83 40 -131t114 -48q96 0 153 88t57 213q0 79 -37.5 129t-115.5 50zM325 655h-58l65 116h98zM467 655h-60
l75 116h100z" />
    <glyph glyph-name="ohungarumlaut" unicode="&#x151;" horiz-adv-x="491" 
d="M277 473q82 0 128 -53t46 -145q0 -121 -63.5 -204t-172.5 -83q-79 0 -127 51.5t-48 144.5q0 121 63.5 205t173.5 84zM265 410q-68 0 -109.5 -64t-41.5 -153q0 -70 29.5 -108t81.5 -38q68 0 109 66.5t41 156.5q0 66 -29 103t-81 37zM249 530h-58l65 143h98zM391 530h-60
l75 143h100z" />
    <glyph glyph-name="OE" unicode="&#x152;" horiz-adv-x="832" 
d="M281 -12q-106 0 -166 66t-60 173q0 172 86.5 273t213.5 101q44 0 80 -12h412l-12 -68h-303q49 -64 49 -160q0 -6 -0.5 -17t-0.5 -16h190l-12 -68h-187q-22 -119 -96 -192h280l-11 -68h-382q-39 -12 -81 -12zM347 534q-97 0 -154 -88t-57 -213q0 -83 40 -131t114 -48
q96 0 153 88t57 213q0 79 -37.5 129t-115.5 50z" />
    <glyph glyph-name="oe" unicode="&#x153;" horiz-adv-x="793" 
d="M554 47q49 0 74.5 19.5t39.5 59.5l69 -17q-24 -67 -71 -94t-119 -27q-54 0 -96 27t-58 72q-61 -99 -178 -99q-79 0 -127 51.5t-48 144.5q0 121 63.5 205t173.5 84q54 0 92.5 -26.5t56.5 -72.5q28 46 73.5 72.5t96.5 26.5q83 0 123.5 -47.5t40.5 -117.5q0 -51 -20 -94
h-295q-6 -68 21 -117.5t88 -49.5zM265 410q-68 0 -109.5 -64t-41.5 -153q0 -70 29.5 -108t81.5 -38q68 0 109 66.5t41 156.5q0 66 -29 103t-81 37zM454 275h228q5 14 5 35q0 44 -24.5 73.5t-70.5 29.5q-50 0 -85 -38t-53 -100z" />
    <glyph glyph-name="Racute" unicode="&#x154;" horiz-adv-x="535" 
d="M478 0h-85q-14 17 -20 53l-18 107q-9 54 -32.5 72t-75.5 18h-83l-44 -250h-80l103 589h195q91 0 129 -35.5t38 -103.5q0 -81 -50 -124.5t-113 -46.5v-4q41 -5 61 -26t29 -70l21 -118q6 -34 25 -61zM212 524l-37 -210h113q135 0 135 125q0 44 -23 64.5t-75 20.5h-113z
M356 655h-69l62 116h104z" />
    <glyph glyph-name="racute" unicode="&#x155;" horiz-adv-x="332" 
d="M352 471l-20 -89q-55 11 -106.5 -20.5t-62.5 -94.5l-47 -267h-76l81 462h66l-9 -105q24 56 72.5 89.5t101.5 24.5zM272 530h-65l75 143h105z" />
    <glyph glyph-name="Rcommaaccent" unicode="&#x156;" horiz-adv-x="535" 
d="M478 0h-85q-14 17 -20 53l-18 107q-9 54 -32.5 72t-75.5 18h-83l-44 -250h-80l103 589h195q91 0 129 -35.5t38 -103.5q0 -81 -50 -124.5t-113 -46.5v-4q41 -5 61 -26t29 -70l21 -118q6 -34 25 -61zM212 524l-37 -210h113q135 0 135 125q0 44 -23 64.5t-75 20.5h-113z
M274 -140q0 -52 -35 -78.5t-93 -26.5v34q72 4 72 44q-26 -5 -41.5 8t-15.5 36t14.5 36t38.5 13q25 0 42.5 -17t17.5 -49z" />
    <glyph glyph-name="rcommaaccent" unicode="&#x157;" horiz-adv-x="332" 
d="M352 471l-20 -89q-55 11 -106.5 -20.5t-62.5 -94.5l-47 -267h-76l81 462h66l-9 -105q24 56 72.5 89.5t101.5 24.5zM121 -140q0 -52 -35 -78.5t-93 -26.5v34q72 4 72 44q-26 -5 -41.5 8t-15.5 36t14.5 36t38.5 13q25 0 42.5 -17t17.5 -49z" />
    <glyph glyph-name="Rcaron" unicode="&#x158;" horiz-adv-x="535" 
d="M478 0h-85q-14 17 -20 53l-18 107q-9 54 -32.5 72t-75.5 18h-83l-44 -250h-80l103 589h195q91 0 129 -35.5t38 -103.5q0 -81 -50 -124.5t-113 -46.5v-4q41 -5 61 -26t29 -70l21 -118q6 -34 25 -61zM212 524l-37 -210h113q135 0 135 125q0 44 -23 64.5t-75 20.5h-113z
M346 655h-46l-99 124h85l26 -34q7 -9 11.5 -18t5.5 -13l1 -4h2q7 14 30 35l38 34h89z" />
    <glyph glyph-name="rcaron" unicode="&#x159;" horiz-adv-x="332" 
d="M352 471l-20 -89q-55 11 -106.5 -20.5t-62.5 -94.5l-47 -267h-76l81 462h66l-9 -105q24 56 72.5 89.5t101.5 24.5zM264 530h-42l-97 143h79l28 -44q7 -11 11 -21t5 -14l1 -5h4q8 16 31 40l44 44h83z" />
    <glyph glyph-name="Sacute" unicode="&#x15a;" horiz-adv-x="479" 
d="M20 144l72 13q-1 -56 29.5 -82.5t87.5 -26.5q58 0 90.5 26.5t32.5 79.5q0 45 -23 70t-85 49q-67 26 -100.5 58.5t-33.5 99.5q0 60 33 100.5t75 55t88 14.5q89 0 133.5 -36t44.5 -119l-75 -12q2 52 -26 79.5t-83 27.5q-52 0 -84 -26.5t-32 -72.5q0 -43 23 -62t87 -45
q71 -30 104 -66.5t33 -104.5q0 -87 -59.5 -131.5t-150.5 -44.5q-181 0 -181 156zM334 655h-69l62 116h104z" />
    <glyph glyph-name="sacute" unicode="&#x15b;" horiz-adv-x="399" 
d="M20 123l69 14q0 -47 24.5 -70.5t66.5 -23.5q86 0 86 72q0 35 -18.5 55t-66.5 38q-54 20 -80.5 51t-26.5 80q0 64 44 99t113 35q138 0 138 -121l-71 -8q0 72 -74 72q-37 0 -59 -18t-22 -51q0 -27 17.5 -45.5t71.5 -40.5q58 -24 82 -56.5t24 -83.5q0 -66 -43 -99.5
t-118 -33.5t-116 36t-41 99zM275 530h-65l75 143h105z" />
    <glyph glyph-name="Scircumflex" unicode="&#x15c;" horiz-adv-x="479" 
d="M20 144l72 13q-1 -56 29.5 -82.5t87.5 -26.5q58 0 90.5 26.5t32.5 79.5q0 45 -23 70t-85 49q-67 26 -100.5 58.5t-33.5 99.5q0 60 33 100.5t75 55t88 14.5q89 0 133.5 -36t44.5 -119l-75 -12q2 52 -26 79.5t-83 27.5q-52 0 -84 -26.5t-32 -72.5q0 -43 23 -62t87 -45
q71 -30 104 -66.5t33 -104.5q0 -87 -59.5 -131.5t-150.5 -44.5q-181 0 -181 156zM296 779h46l99 -124h-85l-26 34q-7 9 -11.5 18t-5.5 13l-1 4h-2q-7 -14 -30 -35l-38 -34h-89z" />
    <glyph glyph-name="scircumflex" unicode="&#x15d;" horiz-adv-x="399" 
d="M20 123l69 14q0 -47 24.5 -70.5t66.5 -23.5q86 0 86 72q0 35 -18.5 55t-66.5 38q-54 20 -80.5 51t-26.5 80q0 64 44 99t113 35q138 0 138 -121l-71 -8q0 72 -74 72q-37 0 -59 -18t-22 -51q0 -27 17.5 -45.5t71.5 -40.5q58 -24 82 -56.5t24 -83.5q0 -66 -43 -99.5
t-118 -33.5t-116 36t-41 99zM245 673h42l97 -143h-79l-28 44q-7 11 -11 21t-5 15l-1 4h-4q-8 -16 -31 -40l-44 -44h-83z" />
    <glyph glyph-name="Scedilla" unicode="&#x15e;" horiz-adv-x="479" 
d="M267 -126q0 -41 -29.5 -63t-74.5 -22q-57 0 -85 38l23 48q25 -37 62 -37q41 0 41 36q0 44 -69 44l27 72q-142 15 -142 154l72 13q-1 -56 29.5 -82.5t87.5 -26.5q58 0 90.5 26.5t32.5 79.5q0 45 -23 70t-85 49q-67 26 -100.5 58.5t-33.5 99.5q0 60 33 100.5t75 55t88 14.5
q89 0 133.5 -36t44.5 -119l-75 -12q2 52 -26 79.5t-83 27.5q-52 0 -84 -26.5t-32 -72.5q0 -43 23 -62t87 -45q71 -30 104 -66.5t33 -104.5q0 -87 -59 -131t-150 -45l-13 -30q40 -9 59 -29t19 -55z" />
    <glyph glyph-name="scedilla" unicode="&#x15f;" horiz-adv-x="399" 
d="M230 -126q0 -41 -29.5 -63t-74.5 -22q-56 0 -85 38l23 48q25 -37 62 -37q41 0 41 36q0 44 -69 44l28 75q-51 11 -78.5 45t-27.5 85l69 14q0 -47 24.5 -70.5t66.5 -23.5q86 0 86 72q0 35 -18.5 55t-66.5 38q-54 20 -80.5 51t-26.5 80q0 64 44 99t113 35q138 0 138 -121
l-71 -8q0 72 -74 72q-36 0 -58.5 -18t-22.5 -51q0 -27 17.5 -45.5t71.5 -40.5q58 -24 82 -56.5t24 -83.5q0 -66 -43 -99.5t-118 -33.5q-2 0 -6 0.5t-6 0.5l-13 -31q40 -9 59 -29t19 -55z" />
    <glyph glyph-name="Scaron" unicode="&#x160;" horiz-adv-x="479" 
d="M20 144l72 13q-1 -56 29.5 -82.5t87.5 -26.5q58 0 90.5 26.5t32.5 79.5q0 45 -23 70t-85 49q-67 26 -100.5 58.5t-33.5 99.5q0 60 33 100.5t75 55t88 14.5q89 0 133.5 -36t44.5 -119l-75 -12q2 52 -26 79.5t-83 27.5q-52 0 -84 -26.5t-32 -72.5q0 -43 23 -62t87 -45
q71 -30 104 -66.5t33 -104.5q0 -87 -59.5 -131.5t-150.5 -44.5q-181 0 -181 156zM324 655h-46l-99 124h85l26 -34q7 -9 11.5 -18t5.5 -13l1 -4h2q7 14 30 35l38 34h89z" />
    <glyph glyph-name="scaron" unicode="&#x161;" horiz-adv-x="399" 
d="M20 123l69 14q0 -47 24.5 -70.5t66.5 -23.5q86 0 86 72q0 35 -18.5 55t-66.5 38q-54 20 -80.5 51t-26.5 80q0 64 44 99t113 35q138 0 138 -121l-71 -8q0 72 -74 72q-37 0 -59 -18t-22 -51q0 -27 17.5 -45.5t71.5 -40.5q58 -24 82 -56.5t24 -83.5q0 -66 -43 -99.5
t-118 -33.5t-116 36t-41 99zM267 530h-42l-97 143h79l28 -44q7 -11 11 -21t5 -14l1 -5h4q8 16 31 40l44 44h83z" />
    <glyph glyph-name="Tcommaaccent" unicode="&#x162;" horiz-adv-x="473" 
d="M234 0h-80l91 521h-175l12 68h431l-12 -68h-176zM236 -140q0 -52 -35 -78.5t-93 -26.5v34q72 4 72 44q-26 -5 -41.5 8t-15.5 36t14.5 36t38.5 13q25 0 42.5 -17t17.5 -49z" />
    <glyph glyph-name="tcommaaccent" unicode="&#x163;" horiz-adv-x="302" 
d="M249 75v-64q-40 -23 -91 -23q-128 0 -102 140l48 273h-64l11 61h65l17 97l77 11l-19 -108h121l-11 -61h-120l-50 -281q-6 -34 5.5 -51t33.5 -17q38 0 79 23zM169 -140q0 -52 -35 -78.5t-93 -26.5v34q72 4 72 44q-26 -5 -41.5 8t-15.5 36t14.5 36t38.5 13q25 0 42.5 -17
t17.5 -49z" />
    <glyph glyph-name="Tcaron" unicode="&#x164;" horiz-adv-x="473" 
d="M234 0h-80l91 521h-175l12 68h431l-12 -68h-176zM327 655h-46l-99 124h85l26 -34q7 -9 11.5 -18t5.5 -13l1 -4h2q7 14 30 35l38 34h89z" />
    <glyph glyph-name="tcaron" unicode="&#x165;" horiz-adv-x="302" 
d="M249 75v-64q-40 -23 -91 -23q-128 0 -102 140l48 273h-64l11 61h65l17 97l77 11l-19 -108h121l-11 -61h-120l-50 -281q-6 -34 5.5 -51t33.5 -17q38 0 79 23zM350 668l-51 -175h-55l16 175h90z" />
    <glyph glyph-name="Tbar" unicode="&#x166;" horiz-adv-x="473" 
d="M234 0h-80l46 263h-111l11 65h111l34 193h-175l12 68h431l-12 -68h-176l-34 -193h120l-11 -65h-120z" />
    <glyph glyph-name="tbar" unicode="&#x167;" horiz-adv-x="327" 
d="M30 247l11 60h61l17 94h-64l11 61h65l17 97l77 11l-19 -108h121l-11 -61h-120l-17 -94h123l-11 -60h-123l-22 -127q-6 -34 5.5 -51t33.5 -17q38 0 79 23v-64q-40 -23 -91 -23q-128 0 -102 140l21 119h-62z" />
    <glyph glyph-name="Utilde" unicode="&#x168;" horiz-adv-x="582" 
d="M497 589h80l-71 -404q-34 -197 -247 -197q-101 0 -156.5 56.5t-34.5 175.5l64 369h80l-66 -378q-14 -81 20 -119.5t102 -38.5q67 0 107 34t54 114zM421 655q-8 0 -16 1t-13 2.5t-12 4.5t-10 5t-10.5 6.5t-10.5 6.5q-4 2 -12.5 8t-12 7.5t-9.5 4.5t-11 4t-11 1
q-36 0 -39 -49h-48q-8 46 18 79.5t71 33.5q7 0 13.5 -1t11 -1.5t10.5 -3t8.5 -3.5t9 -5t8 -4.5t9 -5.5t8.5 -6q33 -22 50 -22q31 0 37 52h51q6 -50 -18.5 -82.5t-71.5 -32.5z" />
    <glyph glyph-name="utilde" unicode="&#x169;" 
d="M316 87q-39 -99 -145 -99q-72 0 -101 45t-15 129l52 300h76l-55 -314q-8 -49 9 -76t57 -27q46 0 85 37t50 99l49 281h76l-64 -363q-8 -45 26 -45q13 0 29 4l-10 -55q-22 -8 -48 -8q-84 0 -71 92zM359 531q-8 0 -16 1t-13 2.5t-12 4.5t-10 5t-10.5 6.5t-10.5 6.5
q-4 2 -12.5 8t-12 7.5t-9.5 4.5t-11 4t-11 1q-36 0 -39 -49h-48q-8 46 18 79.5t71 33.5q7 0 13.5 -1t11 -1.5t10.5 -3t8.5 -3.5t9 -5t8 -4.5t9 -5.5t8.5 -6q33 -22 50 -22q31 0 37 52h51q6 -50 -18.5 -82.5t-71.5 -32.5z" />
    <glyph glyph-name="Umacron" unicode="&#x16a;" horiz-adv-x="582" 
d="M497 589h80l-71 -404q-34 -197 -247 -197q-101 0 -156.5 56.5t-34.5 175.5l64 369h80l-66 -378q-14 -81 20 -119.5t102 -38.5q67 0 107 34t54 114zM492 677h-251l10 59h251z" />
    <glyph glyph-name="umacron" unicode="&#x16b;" 
d="M316 87q-39 -99 -145 -99q-72 0 -101 45t-15 129l52 300h76l-55 -314q-8 -49 9 -76t57 -27q46 0 85 37t50 99l49 281h76l-64 -363q-8 -45 26 -45q13 0 29 4l-10 -55q-22 -8 -48 -8q-84 0 -71 92zM417 564h-251l11 61h251z" />
    <glyph glyph-name="Ubreve" unicode="&#x16c;" horiz-adv-x="582" 
d="M497 589h80l-71 -404q-34 -197 -247 -197q-101 0 -156.5 56.5t-34.5 175.5l64 369h80l-66 -378q-14 -81 20 -119.5t102 -38.5q67 0 107 34t54 114zM358 652q-60 0 -89 34t-18 92h61q-3 -34 10 -51.5t47 -17.5q63 0 82 69h61q-11 -58 -52 -92t-102 -34z" />
    <glyph glyph-name="ubreve" unicode="&#x16d;" 
d="M316 87q-39 -99 -145 -99q-72 0 -101 45t-15 129l52 300h76l-55 -314q-8 -49 9 -76t57 -27q46 0 85 37t50 99l49 281h76l-64 -363q-8 -45 26 -45q13 0 29 4l-10 -55q-22 -8 -48 -8q-84 0 -71 92zM277 529q-61 0 -89.5 36.5t-17.5 99.5h61q-3 -39 8 -58.5t48 -19.5
t55.5 19.5t28.5 58.5h61q-11 -63 -52.5 -99.5t-102.5 -36.5z" />
    <glyph glyph-name="Uring" unicode="&#x16e;" horiz-adv-x="582" 
d="M497 589h80l-71 -404q-34 -197 -247 -197q-101 0 -156.5 56.5t-34.5 175.5l64 369h80l-66 -378q-14 -81 20 -119.5t102 -38.5q67 0 107 34t54 114zM280 723q0 43 29 72.5t75 29.5q39 0 63 -24.5t24 -60.5q0 -43 -28.5 -72.5t-74.5 -29.5q-42 0 -65 24t-23 61zM380 788
q-24 0 -40.5 -18t-16.5 -42q0 -25 13.5 -39t37.5 -14q23 0 39 18t16 42t-13 38.5t-36 14.5z" />
    <glyph glyph-name="uring" unicode="&#x16f;" 
d="M316 87q-39 -99 -145 -99q-72 0 -101 45t-15 129l52 300h76l-55 -314q-8 -49 9 -76t57 -27q46 0 85 37t50 99l49 281h76l-64 -363q-8 -45 26 -45q13 0 29 4l-10 -55q-22 -8 -48 -8q-84 0 -71 92zM206 611q0 43 29 72.5t75 29.5q39 0 63 -24.5t24 -60.5q0 -43 -28.5 -72.5
t-74.5 -29.5q-42 0 -65 24t-23 61zM306 676q-24 0 -40.5 -18t-16.5 -42q0 -25 13.5 -39t37.5 -14q23 0 39 18t16 42t-13 38.5t-36 14.5z" />
    <glyph glyph-name="Uhungarumlaut" unicode="&#x170;" horiz-adv-x="582" 
d="M497 589h80l-71 -404q-34 -197 -247 -197q-101 0 -156.5 56.5t-34.5 175.5l64 369h80l-66 -378q-14 -81 20 -119.5t102 -38.5q67 0 107 34t54 114zM315 655h-58l65 116h98zM457 655h-60l75 116h100z" />
    <glyph glyph-name="uhungarumlaut" unicode="&#x171;" 
d="M316 87q-39 -99 -145 -99q-72 0 -101 45t-15 129l52 300h76l-55 -314q-8 -49 9 -76t57 -27q46 0 85 37t50 99l49 281h76l-64 -363q-8 -45 26 -45q13 0 29 4l-10 -55q-22 -8 -48 -8q-84 0 -71 92zM255 530h-58l65 143h98zM397 530h-60l75 143h100z" />
    <glyph glyph-name="Uogonek" unicode="&#x172;" horiz-adv-x="582" 
d="M149 -118q0 64 54 111q-77 14 -115 70t-20 157l64 369h80l-66 -378q-14 -81 20 -119.5t102 -38.5q67 0 107 34t54 114l68 388h80l-71 -404q-31 -182 -217 -196q-74 -33 -74 -99q0 -22 13 -35.5t34 -13.5q43 0 65 43l29 -35q-30 -60 -106 -60q-49 0 -75 25t-26 68z" />
    <glyph glyph-name="uogonek" unicode="&#x173;" 
d="M454 462l-64 -363q-8 -45 26 -45q13 0 29 4l-10 -55q-149 -21 -149 -113q0 -22 13 -35.5t34 -13.5q43 0 65 43l29 -35q-30 -60 -106 -60q-49 0 -75 25t-26 68q0 48 33 83.5t77 51.5q-10 8 -14 29t0 41q-39 -99 -145 -99q-72 0 -101 45t-15 129l52 300h76l-55 -314
q-8 -49 9 -76t57 -27q46 0 85 37t50 99l49 281h76z" />
    <glyph glyph-name="Wcircumflex" unicode="&#x174;" horiz-adv-x="822" 
d="M512 589l35 -384q4 -42 6 -81t2 -58v-18h4q16 62 54 156l157 385h82l-251 -589h-110l-33 366q-4 48 -3.5 82t2.5 54l2 19h-4q-14 -61 -55 -155l-159 -366h-110l-31 589h78l16 -382l3 -159h4q13 65 55 158l168 383h88zM468 779h46l99 -124h-85l-26 34q-7 9 -11.5 18
t-5.5 13l-1 4h-2q-7 -14 -30 -35l-38 -34h-89z" />
    <glyph glyph-name="wcircumflex" unicode="&#x175;" horiz-adv-x="665" 
d="M408 462l25 -259q4 -41 5.5 -78.5t0.5 -54.5l-1 -17h4q11 56 51 150l113 259h79l-208 -462h-91l-27 237q-4 41 -5.5 77t-0.5 52l1 16h-4q-14 -52 -56 -145l-104 -237h-91l-49 462h78l22 -258q4 -41 5 -79t1 -55l-1 -17h4q13 59 54 151l117 258h78zM368 673h42l97 -143
h-79l-28 44q-7 11 -11 21t-5 15l-1 4h-4q-8 -16 -31 -40l-44 -44h-83z" />
    <glyph glyph-name="Ycircumflex" unicode="&#x176;" horiz-adv-x="494" 
d="M167 589l68 -202q9 -28 15 -53.5t7 -37.5l1 -11h4q12 38 52 101l130 203h85l-238 -357l-40 -232h-80l40 232l-126 357h82zM311 779h46l99 -124h-85l-26 34q-7 9 -11.5 18t-5.5 13l-1 4h-2q-7 -14 -30 -35l-38 -34h-89z" />
    <glyph glyph-name="ycircumflex" unicode="&#x177;" horiz-adv-x="418" 
d="M125 462l31 -268q6 -40 8.5 -76.5t2.5 -53.5v-16h4q14 55 60 145l136 269h81l-273 -518q-49 -93 -91.5 -124t-99.5 -31q-39 0 -69 17l16 57q30 -16 57 -16q38 0 67 28.5t64 97.5l-74 489h80zM237 673h42l97 -143h-79l-28 44q-7 11 -11 21t-5 15l-1 4h-4q-8 -16 -31 -40
l-44 -44h-83z" />
    <glyph glyph-name="Ydieresis" unicode="&#x178;" horiz-adv-x="494" 
d="M167 589l68 -202q9 -28 15 -53.5t7 -37.5l1 -11h4q12 38 52 101l130 203h85l-238 -357l-40 -232h-80l40 232l-126 357h82zM177 710q0 22 16 38t38 16q23 0 38.5 -16t15.5 -38t-16 -38t-38 -16t-38 16t-16 38zM366 709q0 22 16 38t38 16t38 -15.5t16 -38.5q0 -22 -16 -38
t-38 -16t-38 16t-16 38z" />
    <glyph glyph-name="Zacute" unicode="&#x179;" horiz-adv-x="508" 
d="M7 41l343 410q21 25 40.5 43t27.5 24l9 5v4q-33 -6 -96 -6h-226l12 68h406l-10 -51l-336 -400q-21 -25 -40.5 -43t-28.5 -23l-8 -6v-4q33 6 96 6h237l-11 -68h-422zM354 655h-69l62 116h104z" />
    <glyph glyph-name="zacute" unicode="&#x17a;" horiz-adv-x="414" 
d="M-1 41l250 285q22 25 41 43.5t26 24.5l8 5v4q-31 -7 -94 -7h-148l11 66h331l-10 -52l-247 -276q-22 -25 -41.5 -43t-27.5 -23l-8 -6v-4q33 6 96 6h159l-10 -64h-345zM274 530h-65l75 143h105z" />
    <glyph glyph-name="Zdotaccent" unicode="&#x17b;" horiz-adv-x="508" 
d="M7 41l343 410q21 25 40.5 43t27.5 24l9 5v4q-33 -6 -96 -6h-226l12 68h406l-10 -51l-336 -400q-21 -25 -40.5 -43t-28.5 -23l-8 -6v-4q33 6 96 6h237l-11 -68h-422zM277 725q0 23 15.5 39t37.5 16q23 0 39 -16t16 -39q0 -22 -16 -38t-39 -16q-22 0 -37.5 16t-15.5 38z
" />
    <glyph glyph-name="zdotaccent" unicode="&#x17c;" horiz-adv-x="414" 
d="M-1 41l250 285q22 25 41 43.5t26 24.5l8 5v4q-31 -7 -94 -7h-148l11 66h331l-10 -52l-247 -276q-22 -25 -41.5 -43t-27.5 -23l-8 -6v-4q33 6 96 6h159l-10 -64h-345zM200 612q0 23 15.5 39t37.5 16q23 0 39 -16t16 -39q0 -22 -16 -38t-39 -16q-22 0 -37.5 16t-15.5 38z
" />
    <glyph glyph-name="Zcaron" unicode="&#x17d;" horiz-adv-x="508" 
d="M7 41l343 410q21 25 40.5 43t27.5 24l9 5v4q-33 -6 -96 -6h-226l12 68h406l-10 -51l-336 -400q-21 -25 -40.5 -43t-28.5 -23l-8 -6v-4q33 6 96 6h237l-11 -68h-422zM343 655h-46l-99 124h85l26 -34q7 -9 11.5 -18t5.5 -13l1 -4h2q7 14 30 35l38 34h89z" />
    <glyph glyph-name="zcaron" unicode="&#x17e;" horiz-adv-x="414" 
d="M-1 41l250 285q22 25 41 43.5t26 24.5l8 5v4q-31 -7 -94 -7h-148l11 66h331l-10 -52l-247 -276q-22 -25 -41.5 -43t-27.5 -23l-8 -6v-4q33 6 96 6h159l-10 -64h-345zM266 530h-42l-97 143h79l28 -44q7 -11 11 -21t5 -14l1 -5h4q8 16 31 40l44 44h83z" />
    <glyph glyph-name="Schwa" unicode="&#x18f;" horiz-adv-x="582" 
d="M307 535q-60 0 -96.5 -25t-59.5 -79l-64 17q56 153 229 153q110 0 170.5 -67t60.5 -181q0 -168 -85.5 -266.5t-199.5 -98.5q-105 0 -156 60t-51 149q0 62 25 118h390q7 92 -34.5 156t-128.5 64zM459 250h-323q-8 -22 -8 -59q0 -59 34.5 -99t98.5 -40q70 0 123.5 55
t74.5 143z" />
    <glyph glyph-name="florin" unicode="&#x192;" horiz-adv-x="393" 
d="M20 -121l79 300h-68l18 68h68l27 98q37 148 168 148q39 0 68.5 -14t42.5 -36l-49 -56q-26 42 -71 42q-61 0 -83 -82l-28 -100h117l-17 -68h-118l-79 -300h-75z" />
    <glyph glyph-name="Khook" unicode="&#x198;" horiz-adv-x="508" 
d="M287 303l172 -303h-89l-147 265h-57l-46 -265h-80l103 589h80l-45 -258h47l94 154q37 60 69 88t78 28q62 0 81 -58l-50 -47q-13 32 -40 32q-18 0 -32 -14.5t-38 -52.5z" />
    <glyph glyph-name="khook" unicode="&#x199;" horiz-adv-x="437" 
d="M209 526l-43 -243h22l171 179h93l-203 -202l81 -170q14 -28 32.5 -33.5t50.5 3.5l-11 -57q-24 -8 -53 -8q-50 0 -74 49l-91 184h-28l-40 -228h-76l92 526q26 149 157 149q56 0 104 -29l-31 -63q-40 28 -71 28q-36 0 -55 -19t-27 -66z" />
    <glyph glyph-name="Ezh" unicode="&#x1b7;" horiz-adv-x="496" 
d="M297 521h-205l12 68h392l-9 -51l-252 -275l-1 -5q88 -1 134.5 -52.5t46.5 -132.5q0 -118 -73 -186t-173 -68q-93 0 -143.5 48t-50.5 136l65 17q0 -72 34.5 -107t94.5 -35q74 0 122.5 50.5t48.5 145.5q0 66 -49 102.5t-145 35.5l10 57l160 182q22 25 41 43t27 24l9 5v4
q-33 -6 -96 -6z" />
    <glyph glyph-name="Acaron" unicode="&#x1cd;" horiz-adv-x="577" 
d="M433 0l-31 174h-247l-91 -174h-84l318 589h106l110 -589h-81zM270 392l-82 -154h202q-15 73 -26.5 149t-16 115.5t-3.5 39.5h-4q-22 -59 -70 -150zM376 655h-46l-99 124h85l26 -34q7 -9 11.5 -18t5.5 -13l1 -4h1q-1 1 8.5 12t27 27.5t33.5 29.5h89z" />
    <glyph glyph-name="acaron" unicode="&#x1ce;" horiz-adv-x="525" 
d="M351 193l14 78q10 56 -14 99t-77 43q-69 0 -114.5 -64t-45.5 -163q0 -61 26.5 -98t75.5 -37q52 0 88 38t47 104zM475 462l-64 -363q-8 -45 26 -45q13 0 29 4l-10 -55q-22 -8 -48 -8q-38 0 -56.5 21t-15.5 61q-40 -89 -141 -89q-69 0 -112 50t-43 139q0 122 64 209t163 87
q102 0 120 -89l25 78h63zM312 530h-42l-97 143h79l28 -44q7 -11 11 -21t5 -14l1 -5h4q8 16 31 40l44 44h83z" />
    <glyph glyph-name="Icaron" unicode="&#x1cf;" horiz-adv-x="238" 
d="M143 589h80l-103 -589h-80zM213 655h-46l-99 124h85l26 -34q7 -9 11.5 -18t5.5 -13l1 -4h2q7 14 30 35l38 34h89z" />
    <glyph glyph-name="icaron" unicode="&#x1d0;" horiz-adv-x="243" 
d="M188 530h-42l-97 143h79l28 -44q7 -11 11 -21t5 -14l1 -5h4q8 16 31 40l44 44h83zM193 462l-64 -363q-8 -45 26 -45q13 0 29 4l-10 -55q-22 -8 -48 -8q-91 0 -73 100l64 367h76z" />
    <glyph glyph-name="Ocaron" unicode="&#x1d1;" horiz-adv-x="616" 
d="M281 -12q-106 0 -166 66t-60 173q0 172 86.5 273t213.5 101q106 0 166 -66.5t60 -173.5q0 -172 -86.5 -272.5t-213.5 -100.5zM347 534q-97 0 -154 -88t-57 -213q0 -83 40 -131t114 -48q96 0 153 88t57 213q0 79 -37.5 129t-115.5 50zM390 655h-46l-99 124h85l26 -34
q7 -9 11.5 -18t5.5 -13l1 -4h2q7 14 30 35l38 34h89z" />
    <glyph glyph-name="ocaron" unicode="&#x1d2;" horiz-adv-x="491" 
d="M277 473q82 0 128 -53t46 -145q0 -121 -63.5 -204t-172.5 -83q-79 0 -127 51.5t-48 144.5q0 121 63.5 205t173.5 84zM265 410q-68 0 -109.5 -64t-41.5 -153q0 -70 29.5 -108t81.5 -38q68 0 109 66.5t41 156.5q0 66 -29 103t-81 37zM300 530h-42l-97 143h79l28 -44
q7 -11 11 -21t5 -14l1 -5h4q8 16 31 40l44 44h83z" />
    <glyph glyph-name="Ucaron" unicode="&#x1d3;" horiz-adv-x="582" 
d="M497 589h80l-71 -404q-34 -197 -247 -197q-101 0 -156.5 56.5t-34.5 175.5l64 369h80l-66 -378q-14 -81 20 -119.5t102 -38.5q67 0 107 34t54 114zM380 655h-46l-99 124h85l26 -34q7 -9 11.5 -18t5.5 -13l1 -4h2q7 14 30 35l38 34h89z" />
    <glyph glyph-name="ucaron" unicode="&#x1d4;" 
d="M316 87q-39 -99 -145 -99q-72 0 -101 45t-15 129l52 300h76l-55 -314q-8 -49 9 -76t57 -27q46 0 85 37t50 99l49 281h76l-64 -363q-8 -45 26 -45q13 0 29 4l-10 -55q-22 -8 -48 -8q-84 0 -71 92zM306 530h-42l-97 143h79l28 -44q7 -11 11 -21t5 -14l1 -5h4q8 16 31 40
l44 44h83z" />
    <glyph glyph-name="uni004100A800AF" unicode="&#x1de;" horiz-adv-x="577" 
d="M433 0l-31 174h-247l-91 -174h-84l318 589h106l110 -589h-81zM500 769h-251l10 59h251zM210 680q0 22 16 38t38 16t38 -16t16 -38t-16 -38t-38 -16t-38 16t-16 38zM399 679q0 22 16 38t38 16q23 0 38.5 -15.5t15.5 -38.5q0 -22 -16 -38t-38 -16t-38 16t-16 38zM270 392
l-82 -154h202q-15 73 -26.5 149t-16 115.5t-3.5 39.5h-4q-22 -59 -70 -150z" />
    <glyph glyph-name="adieresismacron" unicode="&#x1df;" horiz-adv-x="525" 
d="M351 193l14 78q10 56 -14 99t-77 43q-69 0 -114.5 -64t-45.5 -163q0 -61 26.5 -98t75.5 -37q52 0 88 38t47 104zM475 462l-64 -363q-8 -45 26 -45q13 0 29 4l-10 -55q-22 -8 -48 -8q-38 0 -56.5 21t-15.5 61q-40 -89 -141 -89q-69 0 -112 50t-43 139q0 122 64 209t163 87
q102 0 120 -89l25 78h63zM443 665h-251l11 61h251zM151 565q0 22 16 38t38 16q23 0 38.5 -15.5t15.5 -38.5q0 -22 -16 -38t-38 -16t-38 16t-16 38zM340 564q0 22 16 38t38 16t38 -16t16 -38t-16 -38t-38 -16t-38 16t-16 38z" />
    <glyph glyph-name="AEmacron" unicode="&#x1e2;" horiz-adv-x="836" 
d="M396 0l30 174h-221l-136 -174h-89l461 589h410l-12 -68h-272l-34 -193h241l-12 -68h-241l-34 -192h272l-11 -68h-352zM754 677h-251l10 59h251zM491 539l-236 -301h182l34 192q7 40 13 67.5t8 34.5l3 7h-4z" />
    <glyph glyph-name="aemacron" unicode="&#x1e3;" horiz-adv-x="723" 
d="M487 47q49 0 74.5 19.5t39.5 59.5l69 -17q-24 -67 -70 -94t-116 -27q-105 0 -153 80q-22 -39 -65 -59.5t-98 -20.5q-63 0 -98 32t-35 88q0 80 73 120.5t205 42.5q9 38 20 62q2 40 -20.5 59.5t-62.5 19.5q-83 0 -103 -78l-70 10q17 68 68 98.5t116 30.5q95 0 125 -62
q62 62 143 62q83 0 123.5 -47.5t40.5 -117.5q0 -51 -20 -94h-295q-6 -68 21 -117.5t88 -49.5zM548 564h-251l11 61h251zM387 271h228q5 14 5 39q0 44 -24.5 73.5t-70.5 29.5q-52 0 -87.5 -38t-50.5 -104zM304 184q0 20 1 30q-198 -5 -198 -104q0 -65 72 -65q42 0 79.5 23
t51.5 58q-6 27 -6 58z" />
    <glyph glyph-name="Gstroke" unicode="&#x1e4;" horiz-adv-x="606" 
d="M319 312h228l-20 -114h59l-10 -60h-59l-24 -138h-62l-1 75q-40 -87 -150 -87q-105 0 -165 66t-60 173q0 172 87 273t214 101q157 0 191 -139l-78 -32q-9 52 -42 78.5t-79 26.5q-97 0 -154.5 -88.5t-57.5 -213.5q0 -83 39 -131t115 -48q108 0 146 84h-148l10 60h151l9 49
h-150z" />
    <glyph glyph-name="gstroke" unicode="&#x1e5;" horiz-adv-x="500" 
d="M475 462l-84 -477l-9 -38h71l-6 -35h-76q-50 -123 -204 -123q-86 0 -128 35.5t-49 92.5l68 23q3 -41 33.5 -68t80.5 -27q83 0 119 67h-156l6 35h164q1 2 9 35l18 93q-38 -86 -135 -86q-70 0 -113.5 50t-43.5 139q0 121 65 208t165 87q99 0 117 -89l25 78h63zM351 190
l15 81q10 56 -13.5 99t-76.5 43q-71 0 -116.5 -64.5t-45.5 -163.5q0 -61 25.5 -97.5t75.5 -36.5q54 0 89.5 36.5t46.5 102.5z" />
    <glyph glyph-name="Gcaron" unicode="&#x1e6;" horiz-adv-x="592" 
d="M317 300h228l-52 -300h-62l-1 75q-40 -87 -150 -87q-105 0 -165 66t-60 173q0 172 87 273t214 101q157 0 191 -139l-78 -32q-9 52 -42 78.5t-79 26.5q-97 0 -154.5 -88.5t-57.5 -213.5q0 -83 39 -131t115 -48q134 0 158 138l7 38h-150zM383 655h-46l-99 124h85l26 -34
q7 -9 11.5 -18t5.5 -13l1 -4h2q7 14 30 35l38 34h89z" />
    <glyph glyph-name="gcaron" unicode="&#x1e7;" horiz-adv-x="500" 
d="M351 190l15 81q10 56 -13.5 99t-76.5 43q-71 0 -116.5 -64.5t-45.5 -163.5q0 -61 25.5 -97.5t75.5 -36.5q54 0 89.5 36.5t46.5 102.5zM475 462l-84 -477q-18 -101 -71 -148.5t-153 -47.5q-86 0 -128 35.5t-49 92.5l68 23q3 -41 33.5 -68t80.5 -27q62 0 95.5 34.5
t46.5 102.5l18 93q-38 -86 -135 -86q-70 0 -113.5 50t-43.5 139q0 121 65 208t165 87q99 0 117 -89l25 78h63zM309 530h-42l-97 143h79l28 -44q7 -11 11 -21t5 -14l1 -5h4q8 16 31 40l44 44h83z" />
    <glyph glyph-name="Kcaron" unicode="&#x1e8;" horiz-adv-x="508" 
d="M459 0h-89l-147 265h-57l-46 -265h-80l103 589h80l-45 -258h47l228 258h95l-261 -286zM336 655h-46l-99 124h85l26 -34q7 -9 11.5 -18t5.5 -13l1 -4h2q7 14 30 35l38 34h89z" />
    <glyph glyph-name="kcaron" unicode="&#x1e9;" horiz-adv-x="437" 
d="M274 44l-91 184h-27l-40 -228h-76l117 668h77l-68 -385h22l171 179h93l-203 -202l81 -170q14 -28 32.5 -33.5t50.5 3.5l-11 -57q-24 -8 -53 -8q-51 0 -75 49zM221 697h-46l-99 124h85l26 -34q7 -9 11.5 -18t5.5 -13l1 -4h2q7 14 30 35l38 34h89z" />
    <glyph glyph-name="Oogonek" unicode="&#x1ea;" horiz-adv-x="616" 
d="M159 -118q0 66 57 114q-77 19 -119 80.5t-42 150.5q0 172 86.5 273t213.5 101q106 0 166 -66.5t60 -173.5q0 -166 -81 -266t-203 -106q-72 -33 -72 -99q0 -22 13 -35.5t34 -13.5q43 0 65 43l29 -35q-30 -60 -106 -60q-49 0 -75 25t-26 68zM347 534q-97 0 -154 -88
t-57 -213q0 -83 40 -131t114 -48q96 0 153 88t57 213q0 79 -37.5 129t-115.5 50z" />
    <glyph glyph-name="oogonek" unicode="&#x1eb;" horiz-adv-x="490" 
d="M102 -118q0 65 58 114q-56 15 -88 64t-32 124q0 121 63.5 205t173.5 84q82 0 128 -53t46 -145q0 -112 -55.5 -193t-151.5 -92q-76 -35 -76 -100q0 -22 13 -35.5t34 -13.5q43 0 65 43l29 -35q-30 -60 -106 -60q-49 0 -75 25t-26 68zM265 410q-68 0 -109.5 -64t-41.5 -153
q0 -70 29.5 -108t81.5 -38q68 0 109 66.5t41 156.5q0 66 -29 103t-81 37z" />
    <glyph glyph-name="uni004F02DB00AF" unicode="&#x1ec;" horiz-adv-x="616" 
d="M502 677h-251l10 59h251zM159 -118q0 66 57 114q-77 19 -119 80.5t-42 150.5q0 172 86.5 273t213.5 101q106 0 166 -66.5t60 -173.5q0 -166 -81 -266t-203 -106q-72 -33 -72 -99q0 -22 13 -35.5t34 -13.5q43 0 65 43l29 -35q-30 -60 -106 -60q-49 0 -75 25t-26 68z
M347 534q-97 0 -154 -88t-57 -213q0 -83 40 -131t114 -48q96 0 153 88t57 213q0 79 -37.5 129t-115.5 50z" />
    <glyph glyph-name="oogonekmacron" unicode="&#x1ed;" horiz-adv-x="490" 
d="M411 564h-251l11 61h251zM102 -118q0 65 58 114q-56 15 -88 64t-32 124q0 121 63.5 205t173.5 84q82 0 128 -53t46 -145q0 -112 -55.5 -193t-151.5 -92q-76 -35 -76 -100q0 -22 13 -35.5t34 -13.5q43 0 65 43l29 -35q-30 -60 -106 -60q-49 0 -75 25t-26 68zM265 410
q-68 0 -109.5 -64t-41.5 -153q0 -70 29.5 -108t81.5 -38q68 0 109 66.5t41 156.5q0 66 -29 103t-81 37z" />
    <glyph glyph-name="Ezhcaron" unicode="&#x1ee;" horiz-adv-x="496" 
d="M297 521h-205l12 68h392l-9 -51l-252 -275l-1 -5q88 -1 134.5 -52.5t46.5 -132.5q0 -118 -73 -186t-173 -68q-93 0 -143.5 48t-50.5 136l65 17q0 -72 34.5 -107t94.5 -35q74 0 122.5 50.5t48.5 145.5q0 66 -49 102.5t-145 35.5l10 57l160 182q22 25 41 43t27 24l9 5v4
q-33 -6 -96 -6zM332 655h-46l-99 124h85l26 -34q7 -9 11.5 -18t5.5 -13l1 -4h2q7 14 30 35l38 34h89z" />
    <glyph glyph-name="ezhcaron" unicode="&#x1ef;" horiz-adv-x="415" 
d="M118 210l105 112l77 73l1 4q-35 -3 -98 -3h-132l12 66h322l-9 -52l-211 -212v-3q74 -1 112.5 -46t38.5 -112q0 -90 -64 -140.5t-146 -50.5q-78 0 -117 38t-39 102l63 15q0 -47 27.5 -73.5t69.5 -26.5q60 0 97 35.5t37 97.5q0 56 -35.5 87.5t-119.5 37.5zM274 530h-42
l-97 143h79l28 -44q7 -11 11 -21t5 -14l1 -5h4q8 16 31 40l44 44h83z" />
    <glyph glyph-name="jcaron" unicode="&#x1f0;" horiz-adv-x="218" 
d="M187 530h-42l-97 143h79l28 -44q7 -11 11 -21t5 -14l1 -5h4q8 16 31 40l44 44h83zM193 462l-94 -532q-13 -78 -51.5 -109.5t-100.5 -31.5q-54 0 -87 26l26 60q33 -25 68 -25q54 0 68 78l95 534h76z" />
    <glyph glyph-name="jcaron" unicode="&#xe10c;" horiz-adv-x="218" 
d="M187 530h-42l-97 143h79l28 -44q7 -11 11 -21t5 -14l1 -5h4q8 16 31 40l44 44h83zM193 462l-94 -532q-13 -78 -51.5 -109.5t-100.5 -31.5q-54 0 -87 26l26 60q33 -25 68 -25q54 0 68 78l95 534h76z" />
    <glyph glyph-name="Gacute" unicode="&#x1f4;" horiz-adv-x="592" 
d="M317 300h228l-52 -300h-62l-1 75q-40 -87 -150 -87q-105 0 -165 66t-60 173q0 172 87 273t214 101q157 0 191 -139l-78 -32q-9 52 -42 78.5t-79 26.5q-97 0 -154.5 -88.5t-57.5 -213.5q0 -83 39 -131t115 -48q134 0 158 138l7 38h-150zM393 655h-69l62 116h104z" />
    <glyph glyph-name="gacute" unicode="&#x1f5;" horiz-adv-x="500" 
d="M351 190l15 81q10 56 -13.5 99t-76.5 43q-71 0 -116.5 -64.5t-45.5 -163.5q0 -61 25.5 -97.5t75.5 -36.5q54 0 89.5 36.5t46.5 102.5zM475 462l-84 -477q-18 -101 -71 -148.5t-153 -47.5q-86 0 -128 35.5t-49 92.5l68 23q3 -41 33.5 -68t80.5 -27q62 0 95.5 34.5
t46.5 102.5l18 93q-38 -86 -135 -86q-70 0 -113.5 50t-43.5 139q0 121 65 208t165 87q99 0 117 -89l25 78h63zM317 530h-65l75 143h105z" />
    <glyph glyph-name="Ngrave" unicode="&#x1f8;" horiz-adv-x="613" 
d="M226 589l159 -348q14 -31 26.5 -64.5t17.5 -50.5l5 -18h4q8 71 21 145l59 336h80l-103 -589h-81l-163 346q-14 30 -26.5 63t-18.5 51l-6 19h-4q-4 -69 -17 -143l-59 -336h-80l103 589h83zM407 655h-69l-97 116h104z" />
    <glyph glyph-name="ngrave" unicode="&#x1f9;" horiz-adv-x="505" 
d="M443 318l-38 -219q-8 -45 26 -45q13 0 29 4l-10 -55q-22 -8 -48 -8q-91 0 -73 100l40 224q16 90 -63 90q-46 0 -89 -37t-57 -119l-44 -253h-76l81 462h66l-7 -94q51 105 149 105q55 0 86.5 -28t31.5 -81q0 -23 -4 -46zM339 530h-65l-115 143h105z" />
    <glyph glyph-name="uni004102DA00B4" unicode="&#x1fa;" horiz-adv-x="577" 
d="M433 0l-31 174h-247l-91 -174h-84l318 589h106l110 -589h-81zM275 689q0 43 29 72.5t75 29.5q39 0 63 -24.5t24 -60.5q0 -43 -28.5 -72.5t-74.5 -29.5q-42 0 -65 24t-23 61zM425 811h-69l62 116h104zM270 392l-82 -154h202q-15 73 -26.5 149t-16 115.5t-3.5 39.5h-4
q-22 -59 -70 -150zM375 754q-24 0 -40.5 -18t-16.5 -42q0 -25 13.5 -39t37.5 -14q23 0 39 18t16 42t-13 38.5t-36 14.5z" />
    <glyph glyph-name="aringacute" unicode="&#x1fb;" horiz-adv-x="525" 
d="M351 193l14 78q10 56 -14 99t-77 43q-69 0 -114.5 -64t-45.5 -163q0 -61 26.5 -98t75.5 -37q52 0 88 38t47 104zM475 462l-64 -363q-8 -45 26 -45q13 0 29 4l-10 -55q-22 -8 -48 -8q-38 0 -56.5 21t-15.5 61q-40 -89 -141 -89q-69 0 -112 50t-43 139q0 122 64 209t163 87
q102 0 120 -89l25 78h63zM207 587q0 43 29 72.5t75 29.5q39 0 63 -24.5t24 -60.5q0 -43 -28.5 -72.5t-74.5 -29.5q-42 0 -65 24t-23 61zM307 652q-24 0 -40.5 -18t-16.5 -42q0 -25 13.5 -39t37.5 -14q23 0 39 18t16 42t-13 38.5t-36 14.5zM357 717h-69l62 116h104z" />
    <glyph glyph-name="AEacute" unicode="&#x1fc;" horiz-adv-x="836" 
d="M396 0l30 174h-221l-136 -174h-89l461 589h410l-12 -68h-272l-34 -193h241l-12 -68h-241l-34 -192h272l-11 -68h-352zM653 655h-69l62 116h104zM491 539l-236 -301h182l34 192q7 40 13 67.5t8 34.5l3 7h-4z" />
    <glyph glyph-name="aeacute" unicode="&#x1fd;" horiz-adv-x="723" 
d="M487 47q49 0 74.5 19.5t39.5 59.5l69 -17q-24 -67 -70 -94t-116 -27q-105 0 -153 80q-22 -39 -65 -59.5t-98 -20.5q-63 0 -98 32t-35 88q0 80 73 120.5t205 42.5q9 38 20 62q2 40 -20.5 59.5t-62.5 19.5q-83 0 -103 -78l-70 10q17 68 68 98.5t116 30.5q95 0 125 -62
q62 62 143 62q83 0 123.5 -47.5t40.5 -117.5q0 -51 -20 -94h-295q-6 -68 21 -117.5t88 -49.5zM445 530h-65l75 143h105zM387 271h228q5 14 5 39q0 44 -24.5 73.5t-70.5 29.5q-52 0 -87.5 -38t-50.5 -104zM304 184q0 20 1 30q-198 -5 -198 -104q0 -65 72 -65q42 0 79.5 23
t51.5 58q-6 27 -6 58z" />
    <glyph glyph-name="Oslashacute" unicode="&#x1fe;" horiz-adv-x="616" 
d="M59 -14l-42 40l68 70q-30 54 -30 131q0 172 86.5 273t213.5 101q99 0 160 -61l60 61l45 -41l-68 -70q29 -56 29 -129q0 -172 -86.5 -272.5t-213.5 -100.5q-99 0 -161 60zM500 355q0 41 -10 72l-316 -324q41 -49 116 -49q96 0 153 88t57 213zM411 655h-69l62 116h104z
M347 534q-97 0 -154 -88t-57 -213q0 -43 10 -74l316 325q-40 50 -115 50z" />
    <glyph glyph-name="oslashacute" unicode="&#x1ff;" horiz-adv-x="491" 
d="M277 473q83 0 129 -55l55 54l41 -43l-66 -64q15 -39 15 -90q0 -121 -63.5 -204t-172.5 -83q-73 0 -119 43l-47 -45l-42 40l54 53q-21 43 -21 105q0 121 63.5 205t173.5 84zM311 530h-65l75 143h105zM265 410q-68 0 -109.5 -64t-41.5 -153q0 -32 6 -56l232 228
q-29 45 -87 45zM225 47q68 0 109 66.5t41 156.5q0 11 -2 33l-227 -222q28 -34 79 -34z" />
    <glyph glyph-name="Adoublegrave" unicode="&#x200;" horiz-adv-x="577" 
d="M433 0l-31 174h-247l-91 -174h-84l318 589h106l110 -589h-81zM323 655h-60l-115 116h100zM463 655h-58l-105 116h98zM270 392l-82 -154h202q-15 73 -26.5 149t-16 115.5t-3.5 39.5h-4q-22 -59 -70 -150z" />
    <glyph glyph-name="edoublegrave" unicode="&#x201;" horiz-adv-x="459" 
d="M223 47q49 0 74.5 19.5t39.5 59.5l69 -17q-24 -67 -71 -94t-119 -27q-82 0 -129 53t-47 143q0 133 67.5 211t157.5 78q83 0 123.5 -47.5t40.5 -117.5q0 -51 -20 -94h-298q-6 -68 22 -117.5t90 -49.5zM120 275h231q5 14 5 35q0 44 -24.5 73.5t-70.5 29.5q-54 0 -90 -39
t-51 -99zM367 530h-58l-105 143h98zM227 530h-60l-115 143h100z" />
    <glyph glyph-name="edoublegrave" unicode="&#x205;" horiz-adv-x="459" 
d="M223 47q49 0 74.5 19.5t39.5 59.5l69 -17q-24 -67 -71 -94t-119 -27q-82 0 -129 53t-47 143q0 133 67.5 211t157.5 78q83 0 123.5 -47.5t40.5 -117.5q0 -51 -20 -94h-298q-6 -68 22 -117.5t90 -49.5zM120 275h231q5 14 5 35q0 44 -24.5 73.5t-70.5 29.5q-54 0 -90 -39
t-51 -99zM367 530h-58l-105 143h98zM227 530h-60l-115 143h100z" />
    <glyph glyph-name="Ainvertedbreve" unicode="&#x202;" horiz-adv-x="577" 
d="M433 0l-31 174h-247l-91 -174h-84l318 589h106l110 -589h-81zM384 783q60 0 89 -34t18 -92h-61q3 34 -10 51.5t-47 17.5q-63 0 -82 -69h-61q11 58 52 92t102 34zM270 392l-82 -154h202q-15 73 -26.5 149t-16 115.5t-3.5 39.5h-4q-22 -59 -70 -150z" />
    <glyph glyph-name="ainvertedbreve" unicode="&#x203;" horiz-adv-x="525" 
d="M351 193l14 78q10 56 -14 99t-77 43q-69 0 -114.5 -64t-45.5 -163q0 -61 26.5 -98t75.5 -37q52 0 88 38t47 104zM475 462l-64 -363q-8 -45 26 -45q13 0 29 4l-10 -55q-22 -8 -48 -8q-38 0 -56.5 21t-15.5 61q-40 -89 -141 -89q-69 0 -112 50t-43 139q0 122 64 209t163 87
q102 0 120 -89l25 78h63zM311 668q61 0 89.5 -36.5t17.5 -99.5h-61q3 39 -8 58.5t-48 19.5t-55.5 -19.5t-28.5 -58.5h-61q11 63 52.5 99.5t102.5 36.5z" />
    <glyph glyph-name="Edoublegrave" unicode="&#x204;" horiz-adv-x="480" 
d="M403 68l-11 -68h-352l103 589h352l-12 -68h-272l-34 -193h241l-12 -68h-241l-34 -192h272zM423 655h-58l-105 116h98zM283 655h-60l-115 116h100z" />
    <glyph glyph-name="Einvertedbreve" unicode="&#x206;" horiz-adv-x="480" 
d="M403 68l-11 -68h-352l103 589h352l-12 -68h-272l-34 -193h241l-12 -68h-241l-34 -192h272zM343 783q60 0 89 -34t18 -92h-61q3 34 -10 51.5t-47 17.5q-63 0 -82 -69h-61q11 58 52 92t102 34z" />
    <glyph glyph-name="einvertedbreve" unicode="&#x207;" horiz-adv-x="459" 
d="M223 47q49 0 74.5 19.5t39.5 59.5l69 -17q-24 -67 -71 -94t-119 -27q-82 0 -129 53t-47 143q0 133 67.5 211t157.5 78q83 0 123.5 -47.5t40.5 -117.5q0 -51 -20 -94h-298q-6 -68 22 -117.5t90 -49.5zM120 275h231q5 14 5 35q0 44 -24.5 73.5t-70.5 29.5q-54 0 -90 -39
t-51 -99zM282 668q61 0 89.5 -36.5t17.5 -99.5h-61q3 39 -8 58.5t-48 19.5t-55.5 -19.5t-28.5 -58.5h-61q11 63 52.5 99.5t102.5 36.5z" />
    <glyph glyph-name="Idoublegrave" unicode="&#x208;" horiz-adv-x="238" 
d="M143 589h80l-103 -589h-80zM300 655h-58l-105 116h98zM160 655h-60l-115 116h100z" />
    <glyph glyph-name="idoublegrave" unicode="&#x209;" horiz-adv-x="243" 
d="M193 462l-64 -363q-8 -45 26 -45q13 0 29 4l-10 -55q-22 -8 -48 -8q-91 0 -73 100l64 367h76zM271 530h-58l-105 143h98zM131 530h-60l-115 143h100z" />
    <glyph glyph-name="Iinvertedbreve" unicode="&#x20a;" horiz-adv-x="238" 
d="M143 589h80l-103 -589h-80zM220 783q60 0 89 -34t18 -92h-61q3 34 -10 51.5t-47 17.5q-63 0 -82 -69h-61q11 58 52 92t102 34z" />
    <glyph glyph-name="iinvertedbreve" unicode="&#x20b;" horiz-adv-x="243" 
d="M193 462l-64 -363q-8 -45 26 -45q13 0 29 4l-10 -55q-22 -8 -48 -8q-91 0 -73 100l64 367h76zM187 668q61 0 89.5 -36.5t17.5 -99.5h-61q3 39 -8 58.5t-48 19.5t-55.5 -19.5t-28.5 -58.5h-61q11 63 52.5 99.5t102.5 36.5z" />
    <glyph glyph-name="Odoublegrave" unicode="&#x20c;" horiz-adv-x="616" 
d="M281 -12q-106 0 -166 66t-60 173q0 172 86.5 273t213.5 101q106 0 166 -66.5t60 -173.5q0 -172 -86.5 -272.5t-213.5 -100.5zM347 534q-97 0 -154 -88t-57 -213q0 -83 40 -131t114 -48q96 0 153 88t57 213q0 79 -37.5 129t-115.5 50zM477 655h-58l-105 116h98zM337 655
h-60l-115 116h100z" />
    <glyph glyph-name="odoublegrave" unicode="&#x20d;" horiz-adv-x="491" 
d="M277 473q82 0 128 -53t46 -145q0 -121 -63.5 -204t-172.5 -83q-79 0 -127 51.5t-48 144.5q0 121 63.5 205t173.5 84zM265 410q-68 0 -109.5 -64t-41.5 -153q0 -70 29.5 -108t81.5 -38q68 0 109 66.5t41 156.5q0 66 -29 103t-81 37zM384 530h-58l-105 143h98zM244 530h-60
l-115 143h100z" />
    <glyph glyph-name="Oinvertedbreve" unicode="&#x20e;" horiz-adv-x="616" 
d="M281 -12q-106 0 -166 66t-60 173q0 172 86.5 273t213.5 101q106 0 166 -66.5t60 -173.5q0 -172 -86.5 -272.5t-213.5 -100.5zM347 534q-97 0 -154 -88t-57 -213q0 -83 40 -131t114 -48q96 0 153 88t57 213q0 79 -37.5 129t-115.5 50zM397 783q60 0 89 -34t18 -92h-61
q3 34 -10 51.5t-47 17.5q-63 0 -82 -69h-61q11 58 52 92t102 34z" />
    <glyph glyph-name="oinvertedbreve" unicode="&#x20f;" horiz-adv-x="491" 
d="M277 473q82 0 128 -53t46 -145q0 -121 -63.5 -204t-172.5 -83q-79 0 -127 51.5t-48 144.5q0 121 63.5 205t173.5 84zM265 410q-68 0 -109.5 -64t-41.5 -153q0 -70 29.5 -108t81.5 -38q68 0 109 66.5t41 156.5q0 66 -29 103t-81 37zM299 668q61 0 89.5 -36.5t17.5 -99.5
h-61q3 39 -8 58.5t-48 19.5t-55.5 -19.5t-28.5 -58.5h-61q11 63 52.5 99.5t102.5 36.5z" />
    <glyph glyph-name="Rinvertedbreve" unicode="&#x212;" horiz-adv-x="535" 
d="M478 0h-85q-14 17 -20 53l-18 107q-9 54 -32.5 72t-75.5 18h-83l-44 -250h-80l103 589h195q91 0 129 -35.5t38 -103.5q0 -81 -50 -124.5t-113 -46.5v-4q41 -5 61 -26t29 -70l21 -118q6 -34 25 -61zM212 524l-37 -210h113q135 0 135 125q0 44 -23 64.5t-75 20.5h-113z
M353 783q60 0 89 -34t18 -92h-61q3 34 -10 51.5t-47 17.5q-63 0 -82 -69h-61q11 58 52 92t102 34z" />
    <glyph glyph-name="rinvertedbreve" unicode="&#x213;" horiz-adv-x="332" 
d="M352 471l-20 -89q-55 11 -106.5 -20.5t-62.5 -94.5l-47 -267h-76l81 462h66l-9 -105q24 56 72.5 89.5t101.5 24.5zM263 668q61 0 89.5 -36.5t17.5 -99.5h-61q3 39 -8 58.5t-48 19.5t-55.5 -19.5t-28.5 -58.5h-61q11 63 52.5 99.5t102.5 36.5z" />
    <glyph glyph-name="Udoublegrave" unicode="&#x214;" horiz-adv-x="582" 
d="M497 589h80l-71 -404q-34 -197 -247 -197q-101 0 -156.5 56.5t-34.5 175.5l64 369h80l-66 -378q-14 -81 20 -119.5t102 -38.5q67 0 107 34t54 114zM467 655h-58l-105 116h98zM327 655h-60l-115 116h100z" />
    <glyph glyph-name="udoublegrave" unicode="&#x215;" 
d="M316 87q-39 -99 -145 -99q-72 0 -101 45t-15 129l52 300h76l-55 -314q-8 -49 9 -76t57 -27q46 0 85 37t50 99l49 281h76l-64 -363q-8 -45 26 -45q13 0 29 4l-10 -55q-22 -8 -48 -8q-84 0 -71 92zM390 530h-58l-105 143h98zM250 530h-60l-115 143h100z" />
    <glyph glyph-name="Uinvertedbreve" unicode="&#x216;" horiz-adv-x="582" 
d="M497 589h80l-71 -404q-34 -197 -247 -197q-101 0 -156.5 56.5t-34.5 175.5l64 369h80l-66 -378q-14 -81 20 -119.5t102 -38.5q67 0 107 34t54 114zM387 783q60 0 89 -34t18 -92h-61q3 34 -10 51.5t-47 17.5q-63 0 -82 -69h-61q11 58 52 92t102 34z" />
    <glyph glyph-name="uinvertedbreve" unicode="&#x217;" 
d="M316 87q-39 -99 -145 -99q-72 0 -101 45t-15 129l52 300h76l-55 -314q-8 -49 9 -76t57 -27q46 0 85 37t50 99l49 281h76l-64 -363q-8 -45 26 -45q13 0 29 4l-10 -55q-22 -8 -48 -8q-84 0 -71 92zM305 668q61 0 89.5 -36.5t17.5 -99.5h-61q3 39 -8 58.5t-48 19.5
t-55.5 -19.5t-28.5 -58.5h-61q11 63 52.5 99.5t102.5 36.5z" />
    <glyph glyph-name="Scommaaccent" unicode="&#x218;" horiz-adv-x="479" 
d="M20 144l72 13q-1 -56 29.5 -82.5t87.5 -26.5q58 0 90.5 26.5t32.5 79.5q0 45 -23 70t-85 49q-67 26 -100.5 58.5t-33.5 99.5q0 60 33 100.5t75 55t88 14.5q89 0 133.5 -36t44.5 -119l-75 -12q2 52 -26 79.5t-83 27.5q-52 0 -84 -26.5t-32 -72.5q0 -43 23 -62t87 -45
q71 -30 104 -66.5t33 -104.5q0 -87 -59.5 -131.5t-150.5 -44.5q-181 0 -181 156zM232 -140q0 -52 -35 -78.5t-93 -26.5v34q72 4 72 44q-26 -5 -41.5 8t-15.5 36t14.5 36t38.5 13q25 0 42.5 -17t17.5 -49z" />
    <glyph glyph-name="scommaaccent" unicode="&#x219;" horiz-adv-x="399" 
d="M20 123l69 14q0 -47 24.5 -70.5t66.5 -23.5q86 0 86 72q0 35 -18.5 55t-66.5 38q-54 20 -80.5 51t-26.5 80q0 64 44 99t113 35q138 0 138 -121l-71 -8q0 72 -74 72q-37 0 -59 -18t-22 -51q0 -27 17.5 -45.5t71.5 -40.5q58 -24 82 -56.5t24 -83.5q0 -66 -43 -99.5
t-118 -33.5t-116 36t-41 99zM196 -140q0 -52 -35 -78.5t-93 -26.5v34q72 4 72 44q-26 -5 -41.5 8t-15.5 36t14.5 36t38.5 13q25 0 42.5 -17t17.5 -49z" />
    <glyph glyph-name="Hcaron" unicode="&#x21e;" horiz-adv-x="614" 
d="M120 0h-80l103 589h80l-45 -256h296l45 256h80l-103 -589h-80l46 265h-296zM401 655h-46l-99 124h85l26 -34q7 -9 11.5 -18t5.5 -13l1 -4h2q7 14 30 35l38 34h89z" />
    <glyph glyph-name="hcaron" unicode="&#x21f;" horiz-adv-x="505" 
d="M443 318l-38 -219q-8 -45 26 -45q13 0 29 4l-10 -55q-22 -8 -48 -8q-91 0 -73 100l40 224q16 90 -63 90q-46 0 -89 -37t-57 -119l-44 -253h-76l116 668h78l-54 -300q51 105 149 105q55 0 86.5 -28t31.5 -81q0 -23 -4 -46zM221 707h-46l-99 124h85l26 -34q7 -9 11.5 -18
t5.5 -13l1 -4h2q7 14 30 35l38 34h89z" />
    <glyph glyph-name="Adotabove" unicode="&#x226;" horiz-adv-x="577" 
d="M433 0l-31 174h-247l-91 -174h-84l318 589h106l110 -589h-81zM310 725q0 23 15.5 39t37.5 16q23 0 39 -16t16 -39q0 -22 -16 -38t-39 -16q-22 0 -37.5 16t-15.5 38zM270 392l-82 -154h202q-15 73 -26.5 149t-16 115.5t-3.5 39.5h-4q-22 -59 -70 -150z" />
    <glyph glyph-name="adotabove" unicode="&#x227;" horiz-adv-x="525" 
d="M351 193l14 78q10 56 -14 99t-77 43q-69 0 -114.5 -64t-45.5 -163q0 -61 26.5 -98t75.5 -37q52 0 88 38t47 104zM475 462l-64 -363q-8 -45 26 -45q13 0 29 4l-10 -55q-22 -8 -48 -8q-38 0 -56.5 21t-15.5 61q-40 -89 -141 -89q-69 0 -112 50t-43 139q0 122 64 209t163 87
q102 0 120 -89l25 78h63zM246 612q0 23 15.5 39t37.5 16q23 0 39 -16t16 -39q0 -22 -16 -38t-39 -16q-22 0 -37.5 16t-15.5 38z" />
    <glyph glyph-name="Otildemacron" unicode="&#x22c;" horiz-adv-x="616" 
d="M281 -12q-106 0 -166 66t-60 173q0 172 86.5 273t213.5 101q106 0 166 -66.5t60 -173.5q0 -172 -86.5 -272.5t-213.5 -100.5zM347 534q-97 0 -154 -88t-57 -213q0 -83 40 -131t114 -48q96 0 153 88t57 213q0 79 -37.5 129t-115.5 50zM425 613q-8 0 -16 1t-13 2.5t-12 4.5
t-10 5t-10.5 6.5t-10.5 6.5q-4 2 -12.5 8t-12 7.5t-9.5 4.5t-11 4t-11 1q-36 0 -39 -49h-48q-8 46 18 79.5t71 33.5q7 0 13.5 -1t11 -1.5t10.5 -3t8.5 -3.5t9 -5t8 -4.5t9 -5.5t8.5 -6q33 -22 50 -22q31 0 37 52h51q6 -50 -18.5 -82.5t-71.5 -32.5zM510 753h-251l10 59h251z
" />
    <glyph glyph-name="otildemacron" unicode="&#x22d;" horiz-adv-x="491" 
d="M277 473q82 0 128 -53t46 -145q0 -121 -63.5 -204t-172.5 -83q-79 0 -127 51.5t-48 144.5q0 121 63.5 205t173.5 84zM265 410q-68 0 -109.5 -64t-41.5 -153q0 -70 29.5 -108t81.5 -38q68 0 109 66.5t41 156.5q0 66 -29 103t-81 37zM347 495q-8 0 -16 1t-13 2.5t-12 4.5
t-10 5t-10.5 6.5t-10.5 6.5q-4 2 -12.5 8t-12 7.5t-9.5 4.5t-11 4t-11 1q-36 0 -39 -49h-48q-8 46 18 79.5t71 33.5q7 0 13.5 -1t11 -1.5t10.5 -3t8.5 -3.5t9 -5t8 -4.5t9 -5.5t8.5 -6q33 -22 50 -22q31 0 37 52h51q6 -50 -18.5 -82.5t-71.5 -32.5zM429 640h-251l11 61h251z
" />
    <glyph glyph-name="Odotabove" unicode="&#x22e;" horiz-adv-x="616" 
d="M281 -12q-106 0 -166 66t-60 173q0 172 86.5 273t213.5 101q106 0 166 -66.5t60 -173.5q0 -172 -86.5 -272.5t-213.5 -100.5zM347 534q-97 0 -154 -88t-57 -213q0 -83 40 -131t114 -48q96 0 153 88t57 213q0 79 -37.5 129t-115.5 50zM324 725q0 23 15.5 39t37.5 16
q23 0 39 -16t16 -39q0 -22 -16 -38t-39 -16q-22 0 -37.5 16t-15.5 38z" />
    <glyph glyph-name="odotabove" unicode="&#x22f;" horiz-adv-x="491" 
d="M277 473q82 0 128 -53t46 -145q0 -121 -63.5 -204t-172.5 -83q-79 0 -127 51.5t-48 144.5q0 121 63.5 205t173.5 84zM265 410q-68 0 -109.5 -64t-41.5 -153q0 -70 29.5 -108t81.5 -38q68 0 109 66.5t41 156.5q0 66 -29 103t-81 37zM273 612q0 23 15.5 39t37.5 16
q23 0 39 -16t16 -39q0 -22 -16 -38t-39 -16q-22 0 -37.5 16t-15.5 38z" />
    <glyph glyph-name="odotabovemacron" unicode="&#x231;" horiz-adv-x="491" 
d="M277 473q82 0 128 -53t46 -145q0 -121 -63.5 -204t-172.5 -83q-79 0 -127 51.5t-48 144.5q0 121 63.5 205t173.5 84zM265 410q-68 0 -109.5 -64t-41.5 -153q0 -70 29.5 -108t81.5 -38q68 0 109 66.5t41 156.5q0 66 -29 103t-81 37zM443 638h-251l11 61h251zM247 550
q0 23 15.5 39t37.5 16q23 0 39 -16t16 -39q0 -22 -16 -38t-39 -16q-22 0 -37.5 16t-15.5 38z" />
    <glyph glyph-name="odotabovemacron" unicode="&#xe11e;" horiz-adv-x="491" 
d="M277 473q82 0 128 -53t46 -145q0 -121 -63.5 -204t-172.5 -83q-79 0 -127 51.5t-48 144.5q0 121 63.5 205t173.5 84zM265 410q-68 0 -109.5 -64t-41.5 -153q0 -70 29.5 -108t81.5 -38q68 0 109 66.5t41 156.5q0 66 -29 103t-81 37zM443 638h-251l11 61h251zM247 550
q0 23 15.5 39t37.5 16q23 0 39 -16t16 -39q0 -22 -16 -38t-39 -16q-22 0 -37.5 16t-15.5 38z" />
    <glyph glyph-name="Ymacron" unicode="&#x232;" horiz-adv-x="494" 
d="M167 589l68 -202q9 -28 15 -53.5t7 -37.5l1 -11h4q12 38 52 101l130 203h85l-238 -357l-40 -232h-80l40 232l-126 357h82zM451 677h-251l10 59h251z" />
    <glyph glyph-name="ymacron" unicode="&#x233;" horiz-adv-x="418" 
d="M125 462l31 -268q6 -40 8.5 -76.5t2.5 -53.5v-16h4q14 55 60 145l136 269h81l-273 -518q-49 -93 -91.5 -124t-99.5 -31q-39 0 -69 17l16 57q30 -16 57 -16q38 0 67 28.5t64 97.5l-74 489h80zM370 564h-251l11 61h251z" />
    <glyph glyph-name="dotlessj" unicode="&#x237;" horiz-adv-x="218" 
d="M193 462l-94 -532q-13 -78 -51.5 -109.5t-100.5 -31.5q-54 0 -87 26l26 60q33 -25 68 -25q54 0 68 78l95 534h76z" />
    <glyph glyph-name="schwa" unicode="&#x259;" horiz-adv-x="469" 
d="M246 414q-78 0 -118 -81l-65 19q52 121 190 121q82 0 129 -53t47 -143q0 -138 -67 -213.5t-158 -75.5q-83 0 -123.5 47.5t-40.5 117.5q0 51 20 94h295q6 68 -21 117.5t-88 49.5zM346 186h-228q-5 -14 -5 -35q0 -44 24.5 -73.5t70.5 -29.5q102 0 138 138z" />
    <glyph glyph-name="ezh" unicode="&#x292;" horiz-adv-x="415" 
d="M118 210l105 112l77 73l1 4q-35 -3 -98 -3h-132l12 66h322l-9 -52l-211 -212v-3q74 -1 112.5 -46t38.5 -112q0 -90 -64 -140.5t-146 -50.5q-78 0 -117 38t-39 102l63 15q0 -47 27.5 -73.5t69.5 -26.5q60 0 97 35.5t37 97.5q0 56 -35.5 87.5t-119.5 37.5z" />
    <glyph glyph-name="circumflex" unicode="&#x2c6;" horiz-adv-x="446" 
d="M227 673h42l97 -143h-79l-28 44q-7 11 -11 21t-5 15l-1 4h-4q-8 -16 -31 -40l-44 -44h-83z" />
    <glyph glyph-name="caron" unicode="&#x2c7;" horiz-adv-x="446" 
d="M219 530h-42l-97 143h79l28 -44q7 -11 11 -21t5 -14l1 -5h4q8 16 31 40l44 44h83z" />
    <glyph glyph-name="breve" unicode="&#x2d8;" horiz-adv-x="426" 
d="M191 529q-61 0 -89.5 36.5t-17.5 99.5h61q-3 -39 8 -58.5t48 -19.5t55.5 19.5t28.5 58.5h61q-11 -63 -52.5 -99.5t-102.5 -36.5z" />
    <glyph glyph-name="dotaccent" unicode="&#x2d9;" horiz-adv-x="268" 
d="M80 612q0 23 15.5 39t37.5 16q23 0 39 -16t16 -39q0 -22 -16 -38t-39 -16q-22 0 -37.5 16t-15.5 38z" />
    <glyph glyph-name="ring" unicode="&#x2da;" horiz-adv-x="351" 
d="M80 611q0 43 29 72.5t75 29.5q39 0 63 -24.5t24 -60.5q0 -43 -28.5 -72.5t-74.5 -29.5q-42 0 -65 24t-23 61zM180 676q-24 0 -40.5 -18t-16.5 -42q0 -25 13.5 -39t37.5 -14q23 0 39 18t16 42t-13 38.5t-36 14.5z" />
    <glyph glyph-name="ogonek" unicode="&#x2db;" horiz-adv-x="367" 
d="M80 -118q0 70 60 115.5t120 47.5l31 -45q-58 0 -101.5 -31t-43.5 -79q0 -22 13 -35.5t34 -13.5q43 0 65 43l29 -35q-30 -60 -106 -60q-49 0 -75 25t-26 68z" />
    <glyph glyph-name="tilde" unicode="&#x2dc;" horiz-adv-x="469" 
d="M297 531q-8 0 -16 1t-13 2.5t-12 4.5t-10 5t-10.5 6.5t-10.5 6.5q-4 2 -12.5 8t-12 7.5t-9.5 4.5t-11 4t-11 1q-36 0 -39 -49h-48q-8 46 18 79.5t71 33.5q7 0 13.5 -1t11 -1.5t10.5 -3t8.5 -3.5t9 -5t8 -4.5t9 -5.5t8.5 -6q33 -22 50 -22q31 0 37 52h51
q6 -50 -18.5 -82.5t-71.5 -32.5z" />
    <glyph glyph-name="hungarumlaut" unicode="&#x2dd;" horiz-adv-x="475" 
d="M138 530h-58l65 143h98zM280 530h-60l75 143h100z" />
    <glyph glyph-name="uni0312" unicode="&#x312;" horiz-adv-x="304" 
d="M80 720q0 52 35 78.5t93 26.5v-34q-72 -4 -72 -44q26 5 41.5 -8t15.5 -36t-14.5 -36t-38.5 -13q-25 0 -42.5 17t-17.5 49z" />
    <glyph glyph-name="uni0320" unicode="&#x320;" horiz-adv-x="422" 
d="M331 -180h-251l11 61h251z" />
    <glyph glyph-name="uni0323" unicode="&#x323;" horiz-adv-x="268" 
d="M80 -117q0 23 15.5 39t37.5 16q23 0 39 -16t16 -39q0 -22 -16.5 -38t-38.5 -16t-37.5 16t-15.5 38z" />
    <glyph glyph-name="uni0329" unicode="&#x329;" horiz-adv-x="225" 
d="M80 -192v135h65v-131z" />
    <glyph glyph-name="pi" unicode="&#x3c0;" horiz-adv-x="606" 
d="M213 481h393l-11 -62h-109l-60 -316q-12 -60 25 -60q12 0 21.5 7t15 14.5t15.5 24.5l50 -31q-21 -39 -48 -54.5t-70 -15.5q-52 0 -73 31t-11 82l63 318h-134l-120 -419h-75l124 419h-14q-46 0 -74 -26t-31 -74h-65q3 78 53.5 120t134.5 42z" />
    <glyph glyph-name="uni0E3F" unicode="&#xe3f;" horiz-adv-x="483" 
d="M343 248v-3q47 -2 72 -29t25 -66q0 -76 -53 -113t-143 -37h-18l-18 -106h-50l18 106h-146l84 481h147l17 93h50l-17 -93q69 0 105.5 -27.5t36.5 -80.5q0 -109 -110 -125zM282 212h-18l-27 -149h10q56 0 87 18.5t31 65.5q0 65 -83 65zM156 275h69l25 143h-69zM145 212
l-26 -149h68l27 149h-69zM377 360q0 56 -77 58l-25 -143q102 0 102 85z" />
    <glyph glyph-name="Ddotbelow" unicode="&#x1e0c;" horiz-adv-x="588" 
d="M131 65h95q104 0 171 73t67 222q0 164 -173 164h-79zM230 0h-190l103 589h160q123 0 184 -58t61 -165q0 -96 -27.5 -169t-74.5 -114.5t-101.5 -62t-114.5 -20.5zM125 -142q0 23 15.5 39t37.5 16q23 0 39 -16t16 -39q0 -22 -16 -38t-39 -16q-22 0 -37.5 16t-15.5 38z" />
    <glyph glyph-name="ddotbelow" unicode="&#x1e0d;" horiz-adv-x="521" 
d="M351 192l15 79q10 56 -14.5 98.5t-77.5 42.5q-70 0 -115.5 -64t-45.5 -163q0 -60 26.5 -97t75.5 -37q53 0 89 37.5t47 103.5zM511 668l-100 -569q-8 -45 26 -45q13 0 29 4l-10 -55q-22 -8 -48 -8q-38 0 -56.5 21t-15.5 61q-33 -89 -141 -89q-69 0 -112 50t-43 139
q0 122 64 209t163 87q101 0 119 -89l50 284h75zM138 -142q0 23 15.5 39t37.5 16q23 0 39 -16t16 -39q0 -22 -16 -38t-39 -16q-22 0 -37.5 16t-15.5 38z" />
    <glyph glyph-name="Dcedilla" unicode="&#x1e10;" horiz-adv-x="588" 
d="M281 -126q0 -41 -29.5 -63t-74.5 -22q-57 0 -85 38l23 48q25 -37 62 -37q41 0 41 36q0 44 -69 44l31 82h-140l103 589h160q123 0 184 -58t61 -165q0 -99 -28.5 -172.5t-77 -114t-104 -60t-117.5 -19.5l-18 -42q40 -9 59 -29t19 -55zM131 65h95q104 0 171 73t67 222
q0 164 -173 164h-79z" />
    <glyph glyph-name="dcedilla" unicode="&#x1e11;" horiz-adv-x="521" 
d="M294 -126q0 -41 -29.5 -63t-74.5 -22q-56 0 -85 38l23 48q25 -37 62 -37q41 0 41 36q0 44 -69 44l26 70q-24 2 -35 5q-52 14 -82.5 61.5t-30.5 122.5q0 108 52 191t136 101q17 4 39 4q101 0 119 -89l50 284h75l-100 -569q-8 -45 26 -45q13 0 29 4l-10 -55q-22 -8 -48 -8
q-38 0 -56.5 21t-15.5 61q-27 -72 -106 -86l-14 -33q40 -9 59 -29t19 -55zM351 192l15 79q10 56 -14.5 98.5t-77.5 42.5q-70 0 -115.5 -64t-45.5 -163q0 -60 26.5 -97t75.5 -37q53 0 89 37.5t47 103.5z" />
    <glyph glyph-name="Hdotbelow" unicode="&#x1e24;" horiz-adv-x="614" 
d="M120 0h-80l103 589h80l-45 -256h296l45 256h80l-103 -589h-80l46 265h-296zM188 -142q0 23 15.5 39t37.5 16q23 0 39 -16t16 -39q0 -22 -16 -38t-39 -16q-22 0 -37.5 16t-15.5 38z" />
    <glyph glyph-name="hdotbelow" unicode="&#x1e25;" horiz-adv-x="505" 
d="M443 318l-38 -219q-8 -45 26 -45q13 0 29 4l-10 -55q-22 -8 -48 -8q-91 0 -73 100l40 224q16 90 -63 90q-46 0 -89 -37t-57 -119l-44 -253h-76l116 668h78l-54 -300q51 105 149 105q55 0 86.5 -28t31.5 -81q0 -23 -4 -46zM143 -142q0 23 15.5 39t37.5 16q23 0 39 -16
t16 -39q0 -22 -16 -38t-39 -16q-22 0 -37.5 16t-15.5 38z" />
    <glyph glyph-name="Ldotbelow" unicode="&#x1e36;" horiz-adv-x="458" 
d="M143 589h80l-92 -521h272l-11 -68h-352zM144 -142q0 23 15.5 39t37.5 16q23 0 39 -16t16 -39q0 -22 -16 -38t-39 -16q-22 0 -37.5 16t-15.5 38z" />
    <glyph glyph-name="ldotbelow" unicode="&#x1e37;" horiz-adv-x="239" 
d="M229 668l-100 -569q-8 -45 26 -45q13 0 29 4l-10 -55q-22 -8 -48 -8q-91 0 -73 100l100 573h76zM14 -142q0 23 15.5 39t37.5 16q23 0 39 -16t16 -39q0 -22 -16 -38t-39 -16q-22 0 -37.5 16t-15.5 38z" />
    <glyph glyph-name="uni004C032300AF" unicode="&#x1e38;" horiz-adv-x="458" 
d="M143 589h80l-92 -521h272l-11 -68h-352zM144 -142q0 23 15.5 39t37.5 16q23 0 39 -16t16 -39q0 -22 -16 -38t-39 -16q-22 0 -37.5 16t-15.5 38zM332 677h-251l10 59h251z" />
    <glyph glyph-name="ldotbelowmacron" unicode="&#x1e39;" horiz-adv-x="239" 
d="M229 668l-100 -569q-8 -45 26 -45q13 0 29 4l-10 -55q-22 -8 -48 -8q-91 0 -73 100l100 573h76zM14 -142q0 23 15.5 39t37.5 16q23 0 39 -16t16 -39q0 -22 -16 -38t-39 -16q-22 0 -37.5 16t-15.5 38zM331 705h-251l10 59h251z" />
    <glyph glyph-name="Mdotbelow" unicode="&#x1e42;" horiz-adv-x="690" 
d="M365 147h-60l-77 219q-11 30 -17 58t-7 41l-1 13h-4q-2 -37 -14 -108l-65 -370h-80l103 589h94l91 -283q7 -22 11.5 -43t5.5 -31l1 -9h4q8 31 41 80l190 286h94l-103 -589h-80l65 370q5 32 11 59t10 38l3 11h-4q-16 -38 -62 -107zM226 -142q0 23 15.5 39t37.5 16
q23 0 39 -16t16 -39q0 -22 -16 -38t-39 -16q-22 0 -37.5 16t-15.5 38z" />
    <glyph glyph-name="mdotbelow" unicode="&#x1e43;" horiz-adv-x="755" 
d="M376 0h-75l57 319q16 90 -63 90q-41 0 -81 -37.5t-54 -118.5l-44 -253h-76l81 462h66l-7 -94q26 54 58.5 79.5t86.5 25.5q49 0 80 -29.5t31 -82.5q25 56 60.5 84t89.5 28q50 0 80.5 -28.5t30.5 -80.5q0 -23 -4 -46l-38 -219q-8 -45 26 -45q13 0 29 4l-10 -55
q-22 -8 -48 -8q-91 0 -73 100l40 224q16 90 -63 90q-41 0 -81 -37.5t-54 -118.5zM255 -142q0 23 15.5 39t37.5 16q23 0 39 -16t16 -39q0 -22 -16 -38t-39 -16q-22 0 -37.5 16t-15.5 38z" />
    <glyph glyph-name="Ndotaccent" unicode="&#x1e44;" horiz-adv-x="613" 
d="M226 589l159 -348q14 -31 26.5 -64.5t17.5 -50.5l5 -18h4q8 71 21 145l59 336h80l-103 -589h-81l-163 346q-14 30 -26.5 63t-18.5 51l-6 19h-4q-4 -69 -17 -143l-59 -336h-80l103 589h83zM323 725q0 23 15.5 39t37.5 16q23 0 39 -16t16 -39q0 -22 -16 -38t-39 -16
q-22 0 -37.5 16t-15.5 38z" />
    <glyph glyph-name="ndotaccent" unicode="&#x1e45;" horiz-adv-x="505" 
d="M443 318l-38 -219q-8 -45 26 -45q13 0 29 4l-10 -55q-22 -8 -48 -8q-91 0 -73 100l40 224q16 90 -63 90q-46 0 -89 -37t-57 -119l-44 -253h-76l81 462h66l-7 -94q51 105 149 105q55 0 86.5 -28t31.5 -81q0 -23 -4 -46zM249 612q0 23 15.5 39t37.5 16q23 0 39 -16t16 -39
q0 -22 -16 -38t-39 -16q-22 0 -37.5 16t-15.5 38z" />
    <glyph glyph-name="Ndotbelow" unicode="&#x1e46;" horiz-adv-x="613" 
d="M226 589l159 -348q14 -31 26.5 -64.5t17.5 -50.5l5 -18h4q8 71 21 145l59 336h80l-103 -589h-81l-163 346q-14 30 -26.5 63t-18.5 51l-6 19h-4q-4 -69 -17 -143l-59 -336h-80l103 589h83zM176 -142q0 23 15.5 39t37.5 16q23 0 39 -16t16 -39q0 -22 -16 -38t-39 -16
q-22 0 -37.5 16t-15.5 38z" />
    <glyph glyph-name="ndotbelow" unicode="&#x1e47;" horiz-adv-x="505" 
d="M443 318l-38 -219q-8 -45 26 -45q13 0 29 4l-10 -55q-22 -8 -48 -8q-91 0 -73 100l40 224q16 90 -63 90q-46 0 -89 -37t-57 -119l-44 -253h-76l81 462h66l-7 -94q51 105 149 105q55 0 86.5 -28t31.5 -81q0 -23 -4 -46zM122 -142q0 23 15.5 39t37.5 16q23 0 39 -16t16 -39
q0 -22 -16 -38t-39 -16q-22 0 -37.5 16t-15.5 38z" />
    <glyph glyph-name="Rdotbelow" unicode="&#x1e5a;" horiz-adv-x="535" 
d="M478 0h-85q-14 17 -20 53l-18 107q-9 54 -32.5 72t-75.5 18h-83l-44 -250h-80l103 589h195q91 0 129 -35.5t38 -103.5q0 -81 -50 -124.5t-113 -46.5v-4q41 -5 61 -26t29 -70l21 -118q6 -34 25 -61zM212 524l-37 -210h113q135 0 135 125q0 44 -23 64.5t-75 20.5h-113z
M163 -142q0 23 15.5 39t37.5 16q23 0 39 -16t16 -39q0 -22 -16 -38t-39 -16q-22 0 -37.5 16t-15.5 38z" />
    <glyph glyph-name="rdotbelow" unicode="&#x1e5b;" horiz-adv-x="332" 
d="M352 471l-20 -89q-55 11 -106.5 -20.5t-62.5 -94.5l-47 -267h-76l81 462h66l-9 -105q24 56 72.5 89.5t101.5 24.5zM5 -142q0 23 15.5 39t37.5 16q23 0 39 -16t16 -39q0 -22 -16 -38t-39 -16q-22 0 -37.5 16t-15.5 38z" />
    <glyph glyph-name="Rdotbelowmacron" unicode="&#x1e5c;" horiz-adv-x="535" 
d="M478 0h-85q-14 17 -20 53l-18 107q-9 54 -32.5 72t-75.5 18h-83l-44 -250h-80l103 589h195q91 0 129 -35.5t38 -103.5q0 -81 -50 -124.5t-113 -46.5v-4q41 -5 61 -26t29 -70l21 -118q6 -34 25 -61zM212 524l-37 -210h113q135 0 135 125q0 44 -23 64.5t-75 20.5h-113z
M163 -142q0 23 15.5 39t37.5 16q23 0 39 -16t16 -39q0 -22 -16 -38t-39 -16q-22 0 -37.5 16t-15.5 38zM458 677h-251l10 59h251z" />
    <glyph glyph-name="rdotbelowmacron" unicode="&#x1e5d;" horiz-adv-x="332" 
d="M352 471l-20 -89q-55 11 -106.5 -20.5t-62.5 -94.5l-47 -267h-76l81 462h66l-9 -105q24 56 72.5 89.5t101.5 24.5zM375 564h-251l11 61h251zM5 -142q0 23 15.5 39t37.5 16q23 0 39 -16t16 -39q0 -22 -16 -38t-39 -16q-22 0 -37.5 16t-15.5 38z" />
    <glyph glyph-name="Sdotbelow" unicode="&#x1e62;" horiz-adv-x="479" 
d="M20 144l72 13q-1 -56 29.5 -82.5t87.5 -26.5q58 0 90.5 26.5t32.5 79.5q0 45 -23 70t-85 49q-67 26 -100.5 58.5t-33.5 99.5q0 60 33 100.5t75 55t88 14.5q89 0 133.5 -36t44.5 -119l-75 -12q2 52 -26 79.5t-83 27.5q-52 0 -84 -26.5t-32 -72.5q0 -43 23 -62t87 -45
q71 -30 104 -66.5t33 -104.5q0 -87 -59.5 -131.5t-150.5 -44.5q-181 0 -181 156zM111 -142q0 23 15.5 39t37.5 16q23 0 39 -16t16 -39q0 -22 -16 -38t-39 -16q-22 0 -37.5 16t-15.5 38z" />
    <glyph glyph-name="sdotbelow" unicode="&#x1e63;" horiz-adv-x="399" 
d="M20 123l69 14q0 -47 24.5 -70.5t66.5 -23.5q86 0 86 72q0 35 -18.5 55t-66.5 38q-54 20 -80.5 51t-26.5 80q0 64 44 99t113 35q138 0 138 -121l-71 -8q0 72 -74 72q-37 0 -59 -18t-22 -51q0 -27 17.5 -45.5t71.5 -40.5q58 -24 82 -56.5t24 -83.5q0 -66 -43 -99.5
t-118 -33.5t-116 36t-41 99zM74 -142q0 23 15.5 39t37.5 16q23 0 39 -16t16 -39q0 -22 -16 -38t-39 -16q-22 0 -37.5 16t-15.5 38z" />
    <glyph glyph-name="Tdotbelow" unicode="&#x1e6c;" horiz-adv-x="473" 
d="M234 0h-80l91 521h-175l12 68h431l-12 -68h-176zM115 -142q0 23 15.5 39t37.5 16q23 0 39 -16t16 -39q0 -22 -16 -38t-39 -16q-22 0 -37.5 16t-15.5 38z" />
    <glyph glyph-name="tdotbelow" unicode="&#x1e6d;" horiz-adv-x="302" 
d="M249 75v-64q-40 -23 -91 -23q-128 0 -102 140l48 273h-64l11 61h65l17 97l77 11l-19 -108h121l-11 -61h-120l-50 -281q-6 -34 5.5 -51t33.5 -17q38 0 79 23zM48 -142q0 23 15.5 39t37.5 16q23 0 39 -16t16 -39q0 -22 -16 -38t-39 -16q-22 0 -37.5 16t-15.5 38z" />
    <glyph glyph-name="Wgrave" unicode="&#x1e80;" horiz-adv-x="822" 
d="M512 589l35 -384q4 -42 6 -81t2 -58v-18h4q16 62 54 156l157 385h82l-251 -589h-110l-33 366q-4 48 -3.5 82t2.5 54l2 19h-4q-14 -61 -55 -155l-159 -366h-110l-31 589h78l16 -382l3 -159h4q13 65 55 158l168 383h88zM514 655h-69l-97 116h104z" />
    <glyph glyph-name="wgrave" unicode="&#x1e81;" horiz-adv-x="665" 
d="M408 462l25 -259q4 -41 5.5 -78.5t0.5 -54.5l-1 -17h4q11 56 51 150l113 259h79l-208 -462h-91l-27 237q-4 41 -5.5 77t-0.5 52l1 16h-4q-14 -52 -56 -145l-104 -237h-91l-49 462h78l22 -258q4 -41 5 -79t1 -55l-1 -17h4q13 59 54 151l117 258h78zM414 530h-65l-115 143
h105z" />
    <glyph glyph-name="Wacute" unicode="&#x1e82;" horiz-adv-x="822" 
d="M512 589l35 -384q4 -42 6 -81t2 -58v-18h4q16 62 54 156l157 385h82l-251 -589h-110l-33 366q-4 48 -3.5 82t2.5 54l2 19h-4q-14 -61 -55 -155l-159 -366h-110l-31 589h78l16 -382l3 -159h4q13 65 55 158l168 383h88zM506 655h-69l62 116h104z" />
    <glyph glyph-name="wacute" unicode="&#x1e83;" horiz-adv-x="665" 
d="M408 462l25 -259q4 -41 5.5 -78.5t0.5 -54.5l-1 -17h4q11 56 51 150l113 259h79l-208 -462h-91l-27 237q-4 41 -5.5 77t-0.5 52l1 16h-4q-14 -52 -56 -145l-104 -237h-91l-49 462h78l22 -258q4 -41 5 -79t1 -55l-1 -17h4q13 59 54 151l117 258h78zM398 530h-65l75 143
h105z" />
    <glyph glyph-name="Wdieresis" unicode="&#x1e84;" horiz-adv-x="822" 
d="M512 589l35 -384q4 -42 6 -81t2 -58v-18h4q16 62 54 156l157 385h82l-251 -589h-110l-33 366q-4 48 -3.5 82t2.5 54l2 19h-4q-14 -61 -55 -155l-159 -366h-110l-31 589h78l16 -382l3 -159h4q13 65 55 158l168 383h88zM333 710q0 22 16 38t38 16q23 0 38.5 -16t15.5 -38
t-16 -38t-38 -16t-38 16t-16 38zM522 709q0 22 16 38t38 16t38 -15.5t16 -38.5q0 -22 -16 -38t-38 -16t-38 16t-16 38z" />
    <glyph glyph-name="wdieresis" unicode="&#x1e85;" horiz-adv-x="665" 
d="M408 462l25 -259q4 -41 5.5 -78.5t0.5 -54.5l-1 -17h4q11 56 51 150l113 259h79l-208 -462h-91l-27 237q-4 41 -5.5 77t-0.5 52l1 16h-4q-14 -52 -56 -145l-104 -237h-91l-49 462h78l22 -258q4 -41 5 -79t1 -55l-1 -17h4q13 59 54 151l117 258h78zM233 595q0 22 16 38
t38 16q23 0 38.5 -15.5t15.5 -38.5q0 -22 -16 -38t-38 -16t-38 16t-16 38zM422 594q0 22 16 38t38 16t38 -16t16 -38t-16 -38t-38 -16t-38 16t-16 38z" />
    <glyph glyph-name="Idotbelow" unicode="&#x1eca;" horiz-adv-x="238" 
d="M143 589h80l-103 -589h-80zM0 -142q0 23 15.5 39t37.5 16q23 0 39 -16t16 -39q0 -22 -16 -38t-39 -16q-22 0 -37.5 16t-15.5 38z" />
    <glyph glyph-name="idotbelow" unicode="&#x1ecb;" horiz-adv-x="243" 
d="M193 462l-64 -363q-8 -45 26 -45q13 0 29 4l-10 -55q-22 -8 -48 -8q-91 0 -73 100l64 367h76zM125 612q0 23 15.5 39t37.5 16q23 0 39 -16t16 -39q0 -22 -16.5 -38t-38.5 -16t-37.5 16t-15.5 38zM11 -142q0 23 15.5 39t37.5 16q23 0 39 -16t16 -39q0 -22 -16 -38t-39 -16
q-22 0 -37.5 16t-15.5 38z" />
    <glyph glyph-name="Odotbelow" unicode="&#x1ecc;" horiz-adv-x="616" 
d="M281 -12q-106 0 -166 66t-60 173q0 172 86.5 273t213.5 101q106 0 166 -66.5t60 -173.5q0 -172 -86.5 -272.5t-213.5 -100.5zM347 534q-97 0 -154 -88t-57 -213q0 -83 40 -131t114 -48q96 0 153 88t57 213q0 79 -37.5 129t-115.5 50zM177 -142q0 23 15.5 39t37.5 16
q23 0 39 -16t16 -39q0 -22 -16 -38t-39 -16q-22 0 -37.5 16t-15.5 38z" />
    <glyph glyph-name="odotbelow" unicode="&#x1ecd;" horiz-adv-x="491" 
d="M277 473q82 0 128 -53t46 -145q0 -121 -63.5 -204t-172.5 -83q-79 0 -127 51.5t-48 144.5q0 121 63.5 205t173.5 84zM265 410q-68 0 -109.5 -64t-41.5 -153q0 -70 29.5 -108t81.5 -38q68 0 109 66.5t41 156.5q0 66 -29 103t-81 37zM107 -142q0 23 15.5 39t37.5 16
q23 0 39 -16t16 -39q0 -22 -16 -38t-39 -16q-22 0 -37.5 16t-15.5 38z" />
    <glyph glyph-name="Udotbelow" unicode="&#x1ee4;" horiz-adv-x="582" 
d="M497 589h80l-71 -404q-34 -197 -247 -197q-101 0 -156.5 56.5t-34.5 175.5l64 369h80l-66 -378q-14 -81 20 -119.5t102 -38.5q67 0 107 34t54 114zM167 -142q0 23 15.5 39t37.5 16q23 0 39 -16t16 -39q0 -22 -16 -38t-39 -16q-22 0 -37.5 16t-15.5 38z" />
    <glyph glyph-name="udotbelow" unicode="&#x1ee5;" 
d="M316 87q-39 -99 -145 -99q-72 0 -101 45t-15 129l52 300h76l-55 -314q-8 -49 9 -76t57 -27q46 0 85 37t50 99l49 281h76l-64 -363q-8 -45 26 -45q13 0 29 4l-10 -55q-22 -8 -48 -8q-84 0 -71 92zM113 -142q0 23 15.5 39t37.5 16q23 0 39 -16t16 -39q0 -22 -16 -38
t-39 -16q-22 0 -37.5 16t-15.5 38z" />
    <glyph glyph-name="Ygrave" unicode="&#x1ef2;" horiz-adv-x="494" 
d="M167 589l68 -202q9 -28 15 -53.5t7 -37.5l1 -11h4q12 38 52 101l130 203h85l-238 -357l-40 -232h-80l40 232l-126 357h82zM358 655h-69l-97 116h104z" />
    <glyph glyph-name="ygrave" unicode="&#x1ef3;" horiz-adv-x="418" 
d="M125 462l31 -268q6 -40 8.5 -76.5t2.5 -53.5v-16h4q14 55 60 145l136 269h81l-273 -518q-49 -93 -91.5 -124t-99.5 -31q-39 0 -69 17l16 57q30 -16 57 -16q38 0 67 28.5t64 97.5l-74 489h80zM283 530h-65l-115 143h105z" />
    <glyph glyph-name="Ytilde" unicode="&#x1ef8;" horiz-adv-x="494" 
d="M167 589l68 -202q9 -28 15 -53.5t7 -37.5l1 -11h4q12 38 52 101l130 203h85l-238 -357l-40 -232h-80l40 232l-126 357h82zM380 655q-8 0 -16 1t-13 2.5t-12 4.5t-10 5t-10.5 6.5t-10.5 6.5q-4 2 -12.5 8t-12 7.5t-9.5 4.5t-11 4t-11 1q-36 0 -39 -49h-48q-8 46 18 79.5
t71 33.5q7 0 13.5 -1t11 -1.5t10.5 -3t8.5 -3.5t9 -5t8 -4.5t9 -5.5t8.5 -6q33 -22 50 -22q31 0 37 52h51q6 -50 -18.5 -82.5t-71.5 -32.5z" />
    <glyph glyph-name="ytilde" unicode="&#x1ef9;" horiz-adv-x="418" 
d="M125 462l31 -268q6 -40 8.5 -76.5t2.5 -53.5v-16h4q14 55 60 145l136 269h81l-273 -518q-49 -93 -91.5 -124t-99.5 -31q-39 0 -69 17l16 57q30 -16 57 -16q38 0 67 28.5t64 97.5l-74 489h80zM312 531q-8 0 -16 1t-13 2.5t-12 4.5t-10 5t-10.5 6.5t-10.5 6.5q-4 2 -12.5 8
t-12 7.5t-9.5 4.5t-11 4t-11 1q-36 0 -39 -49h-48q-8 46 18 79.5t71 33.5q7 0 13.5 -1t11 -1.5t10.5 -3t8.5 -3.5t9 -5t8 -4.5t9 -5.5t8.5 -6q33 -22 50 -22q31 0 37 52h51q6 -50 -18.5 -82.5t-71.5 -32.5z" />
    <glyph glyph-name="enspace" unicode="&#x2002;" horiz-adv-x="450" 
 />
    <glyph glyph-name="emspace" unicode="&#x2003;" horiz-adv-x="900" 
 />
    <glyph glyph-name="threeperemspace" unicode="&#x2004;" horiz-adv-x="300" 
 />
    <glyph glyph-name="fourperemspace" unicode="&#x2005;" horiz-adv-x="225" 
 />
    <glyph glyph-name="sixperemspace" unicode="&#x2006;" horiz-adv-x="150" 
 />
    <glyph glyph-name="figurespace" unicode="&#x2007;" horiz-adv-x="513" 
 />
    <glyph glyph-name="punctuationspace" unicode="&#x2008;" horiz-adv-x="171" 
 />
    <glyph glyph-name="thinspace" unicode="&#x2009;" horiz-adv-x="90" 
 />
    <glyph glyph-name="hairspace" unicode="&#x200a;" horiz-adv-x="45" 
 />
    <glyph glyph-name="zerowidthspace" unicode="&#x200b;" horiz-adv-x="0" 
 />
    <glyph glyph-name="figuredash" unicode="&#x2012;" horiz-adv-x="570" 
d="M70 224l10 55h420l-10 -55h-420z" />
    <glyph glyph-name="endash" unicode="&#x2013;" horiz-adv-x="510" 
d="M70 224l10 55h360l-10 -55h-360z" />
    <glyph glyph-name="emdash" unicode="&#x2014;" horiz-adv-x="1010" 
d="M70 224l10 55h860l-10 -55h-860z" />
    <glyph glyph-name="uni2015" unicode="&#x2015;" horiz-adv-x="1250" 
d="M70 224l10 55h1100l-10 -55h-1100z" />
    <glyph glyph-name="doublebar" unicode="&#x2016;" horiz-adv-x="373" 
d="M72 -203h-67l153 872h67zM220 -203h-67l153 872h67z" />
    <glyph glyph-name="quoteleft" unicode="&#x2018;" horiz-adv-x="220" 
d="M105 539q0 64 45 98.5t115 39.5v-39q-41 -6 -70.5 -24.5t-29.5 -48.5q29 6 47.5 -9t18.5 -42q0 -26 -16.5 -41t-43.5 -15q-29 0 -47.5 22t-18.5 59z" />
    <glyph glyph-name="quoteright" unicode="&#x2019;" horiz-adv-x="220" 
d="M240 596q0 -64 -45 -98.5t-115 -39.5v39q41 6 70.5 24.5t29.5 48.5q-29 -6 -47.5 9t-18.5 42q0 26 16.5 41t43.5 15q29 0 47.5 -22t18.5 -59z" />
    <glyph glyph-name="quotesinglbase" unicode="&#x201a;" horiz-adv-x="220" 
d="M150 22q0 -64 -45 -98.5t-115 -39.5v39q41 6 70.5 24.5t29.5 48.5q-29 -6 -47.5 9t-18.5 42q0 26 16.5 41t43.5 15q29 0 47.5 -22t18.5 -59z" />
    <glyph glyph-name="reversequoteleft" unicode="&#x201b;" horiz-adv-x="175" 
d="M91 595q0 37 18.5 59t47.5 22q27 0 43.5 -15t16.5 -41q0 -27 -18.5 -42t-47.5 -9q0 -30 29.5 -48.5t70.5 -24.5v-39q-70 5 -115 39.5t-45 98.5z" />
    <glyph glyph-name="quotedblleft" unicode="&#x201c;" horiz-adv-x="395" 
d="M105 539q0 64 45 98.5t115 39.5v-39q-41 -6 -70.5 -24.5t-29.5 -48.5q29 6 47.5 -9t18.5 -42q0 -26 -16.5 -41t-43.5 -15q-29 0 -47.5 22t-18.5 59zM280 539q0 64 45 98.5t115 39.5v-39q-41 -6 -70.5 -24.5t-29.5 -48.5q29 6 47.5 -9t18.5 -42q0 -26 -16.5 -41t-43.5 -15
q-29 0 -47.5 22t-18.5 59z" />
    <glyph glyph-name="quotedblright" unicode="&#x201d;" horiz-adv-x="395" 
d="M240 596q0 -64 -45 -98.5t-115 -39.5v39q41 6 70.5 24.5t29.5 48.5q-29 -6 -47.5 9t-18.5 42q0 26 16.5 41t43.5 15q29 0 47.5 -22t18.5 -59zM415 596q0 -64 -45 -98.5t-115 -39.5v39q41 6 70.5 24.5t29.5 48.5q-29 -6 -47.5 9t-18.5 42q0 26 16.5 41t43.5 15
q29 0 47.5 -22t18.5 -59z" />
    <glyph glyph-name="quotedblbase" unicode="&#x201e;" horiz-adv-x="395" 
d="M150 27q0 -64 -45 -98.5t-115 -39.5v39q41 6 70.5 24.5t29.5 48.5q-29 -6 -47.5 9t-18.5 42q0 26 16.5 41t43.5 15q29 0 47.5 -22t18.5 -59zM325 27q0 -64 -45 -98.5t-115 -39.5v39q41 6 70.5 24.5t29.5 48.5q-29 -6 -47.5 9t-18.5 42q0 26 16.5 41t43.5 15
q29 0 47.5 -22t18.5 -59z" />
    <glyph glyph-name="reversequotedblleft" unicode="&#x201f;" horiz-adv-x="330" 
d="M91 596q0 37 18.5 59t47.5 22q27 0 43.5 -15t16.5 -41q0 -27 -18.5 -42t-47.5 -9q0 -30 29.5 -48.5t70.5 -24.5v-39q-70 5 -115 39.5t-45 98.5zM246 596q0 37 18.5 59t47.5 22q27 0 43.5 -15t16.5 -41q0 -27 -18.5 -42t-47.5 -9q0 -30 29.5 -48.5t70.5 -24.5v-39
q-70 5 -115 39.5t-45 98.5z" />
    <glyph glyph-name="dagger" unicode="&#x2020;" horiz-adv-x="544" 
d="M293 299l-193 -11l14 78l189 -10l31 233h82l-51 -233l193 10l-14 -78l-188 11l-69 -448h-83z" />
    <glyph glyph-name="daggerdbl" unicode="&#x2021;" horiz-adv-x="543" 
d="M357 309l-33 -179l193 11l-13 -76l-188 11l-29 -226h-83l50 226l-193 -11l13 76l189 -11l32 179l-193 -11l13 76l190 -11l29 226h83l-51 -226l192 11l-13 -76z" />
    <glyph glyph-name="bullet" unicode="&#x2022;" horiz-adv-x="310" 
d="M75 238q0 31 22 53.5t52 22.5q31 0 53.5 -22t22.5 -54q0 -30 -22.5 -52t-53.5 -22q-30 0 -52 22t-22 52z" />
    <glyph glyph-name="ellipsis" unicode="&#x2026;" horiz-adv-x="852" 
d="M50 56q0 26 18 44t44 18t44 -18t18 -44t-18 -44t-44 -18t-44 18t-18 44zM334 56q0 26 18 44t44 18t44 -18t18 -44t-18 -44t-44 -18t-44 18t-18 44zM618 56q0 26 18 44t44 18t44 -18t18 -44t-18 -44t-44 -18t-44 18t-18 44z" />
    <glyph glyph-name="perthousand" unicode="&#x2030;" horiz-adv-x="1209" 
d="M158 229q-58 0 -88.5 39t-30.5 107q0 53 17 102.5t55 84.5t90 35q56 0 87.5 -40.5t31.5 -109.5q0 -85 -42.5 -151.5t-119.5 -66.5zM195 542q-25 0 -44.5 -18t-29.5 -45.5t-14.5 -53.5t-4.5 -49q1 -44 17 -70.5t46 -26.5q33 0 55.5 32.5t30 68.5t7.5 68q0 94 -63 94z
M190 0l410 590h59l-409 -590h-60zM648 -7q-58 0 -88.5 39t-30.5 107q0 53 17 102.5t55 84.5t90 35q56 0 87.5 -40.5t31.5 -109.5q0 -85 -42.5 -151.5t-119.5 -66.5zM685 306q-25 0 -44.5 -18t-29.5 -45.5t-14.5 -53.5t-4.5 -49q1 -44 17 -70.5t46 -26.5q33 0 55.5 32.5
t30 68.5t7.5 68q0 94 -63 94zM1008 -7q-58 0 -88.5 39t-30.5 107q0 53 17 102.5t55 84.5t90 35q56 0 87.5 -40.5t31.5 -109.5q0 -85 -42.5 -151.5t-119.5 -66.5zM1045 306q-25 0 -44.5 -18t-29.5 -45.5t-14.5 -53.5t-4.5 -49q1 -44 17 -70.5t46 -26.5q33 0 55.5 32.5
t30 68.5t7.5 68q0 94 -63 94z" />
    <glyph glyph-name="tripleprime" unicode="&#x2034;" horiz-adv-x="450" 
d="M75 412l45 256h87l-84 -256h-48zM214 412l45 256h87l-84 -256h-48zM353 412l45 256h87l-84 -256h-48z" />
    <glyph glyph-name="guilsinglleft" unicode="&#x2039;" horiz-adv-x="316" 
d="M97 233v-4q9 -2 42 -49l85 -121l-50 -39l-144 213l219 213l37 -40l-120 -120q-17 -17 -34 -30t-26 -18z" />
    <glyph glyph-name="guilsinglright" unicode="&#x203a;" horiz-adv-x="316" 
d="M219 233v4q-9 2 -42 49l-85 121l50 39l144 -213l-219 -213l-37 40l120 120q17 17 34 30t26 18z" />
    <glyph glyph-name="fraction" unicode="&#x2044;" horiz-adv-x="129" 
d="M-170 0l410 590h59l-409 -590h-60z" />
    <glyph glyph-name="uni2070" unicode="&#x2070;" horiz-adv-x="361" 
d="M159 229q-58 0 -88.5 39t-30.5 107q0 53 17 102.5t55 84.5t90 35q56 0 87.5 -40.5t31.5 -109.5q0 -85 -42.5 -151.5t-119.5 -66.5zM196 542q-25 0 -44.5 -18t-29.5 -45.5t-14.5 -53.5t-4.5 -49q1 -44 17 -70.5t46 -26.5q33 0 55.5 32.5t30 68.5t7.5 68q0 94 -63 94z" />
    <glyph glyph-name="uni2074" unicode="&#x2074;" horiz-adv-x="352" 
d="M174 236l16 92h-180l9 49l213 212h67l-37 -213h60l-9 -48h-60l-16 -92h-63zM201 375l16 91l17 70h-4q-16 -26 -49 -62l-54 -53q-14 -13 -28 -24.5t-21 -16.5l-7 -5l-1 -4q14 4 57 4h74z" />
    <glyph glyph-name="uni2075" unicode="&#x2075;" horiz-adv-x="327" 
d="M61 393l43 196h203l-9 -52h-153l-23 -101q20 25 64 25q45 0 70.5 -27.5t25.5 -74.5q0 -62 -38 -96t-101 -34q-112 0 -123 89l58 18q6 -61 66 -61q36 0 56 21t20 60q0 29 -15.5 45.5t-37.5 16.5q-32 0 -55 -25h-51z" />
    <glyph glyph-name="uni2076" unicode="&#x2076;" horiz-adv-x="347" 
d="M327 526l-53 -22q-9 42 -56 42q-45 0 -79.5 -44t-42.5 -113h4q24 74 104 74q47 0 73 -28.5t26 -67.5q0 -61 -40.5 -99.5t-105.5 -38.5q-56 0 -86.5 33.5t-30.5 99.5q0 102 55 168.5t132 66.5q88 0 100 -71zM107 330q0 -25 15 -40.5t41 -15.5q32 0 56 22t24 65
q0 24 -15 39t-42 15q-33 0 -56 -23.5t-23 -61.5z" />
    <glyph glyph-name="uni2077" unicode="&#x2077;" horiz-adv-x="295" 
d="M225 535h-140l-10 -53h-55l19 107h271l-5 -30l-201 -323h-69z" />
    <glyph glyph-name="uni2078" unicode="&#x2078;" horiz-adv-x="337" 
d="M145 229q-57 0 -88.5 23.5t-31.5 64.5q0 38 25.5 65.5t63.5 35.5v4q-52 23 -52 69q0 50 41 78t97 28q54 0 83 -22.5t29 -60.5q0 -77 -82 -96v-3q62 -22 62 -79q0 -49 -42 -78t-105 -29zM193 551q-30 0 -50 -16.5t-20 -47.5q0 -22 15 -35t39 -13q29 0 51 16.5t22 47.5
q0 21 -15 34.5t-42 13.5zM169 394q-31 0 -54.5 -18.5t-23.5 -50.5q0 -54 60 -54q33 0 55.5 18t22.5 51q0 54 -60 54z" />
    <glyph glyph-name="uni2079" unicode="&#x2079;" horiz-adv-x="350" 
d="M15 300l53 19q8 -40 64 -40q47 0 80 40.5t40 119.5h-4q-20 -76 -97 -76q-52 0 -79 28.5t-27 69.5q0 60 39 98t104 38q56 0 89 -35.5t33 -102.5q0 -103 -49.5 -166.5t-134.5 -63.5q-46 0 -75.5 18.5t-35.5 52.5zM240 495q0 24 -15.5 39t-42.5 15q-32 0 -55 -21t-23 -61
q0 -55 56 -55q33 0 56.5 22.5t23.5 60.5z" />
    <glyph glyph-name="uni207A" unicode="&#x207a;" horiz-adv-x="442" 
d="M47 439h156l27 151h39l-27 -151h160l-7 -39h-160l-29 -164h-39l29 164h-156z" />
    <glyph glyph-name="uni207B" unicode="&#x207b;" horiz-adv-x="443" 
d="M396 399h-356l7 40h356z" />
    <glyph glyph-name="uni207C" unicode="&#x207c;" horiz-adv-x="464" 
d="M396 345h-356l7 40h356zM417 462h-356l7 40h356z" />
    <glyph glyph-name="uni207D" unicode="&#x207d;" horiz-adv-x="226" 
d="M174 636h52q-140 -130 -140 -285q0 -79 59 -169h-49q-56 81 -56 169q0 166 134 285z" />
    <glyph glyph-name="uni207E" unicode="&#x207e;" horiz-adv-x="226" 
d="M52 182h-52q140 130 140 285q0 79 -59 169h49q56 -81 56 -169q0 -166 -134 -285z" />
    <glyph glyph-name="n.superior" unicode="&#x207f;" horiz-adv-x="381" 
d="M336 494l-27 -138q-6 -24 14 -24q10 0 28 4l-9 -46q-18 -6 -40 -6q-73 0 -58 71l28 141q10 53 -42 53q-83 0 -102 -97l-32 -165h-66l61 306h57l-5 -56q33 64 105 64q42 0 66.5 -19.5t24.5 -56.5q0 -17 -3 -31z" />
    <glyph glyph-name="uni2080" unicode="&#x2080;" horiz-adv-x="361" 
d="M159 -7q-58 0 -88.5 39t-30.5 107q0 53 17 102.5t55 84.5t90 35q56 0 87.5 -40.5t31.5 -109.5q0 -85 -42.5 -151.5t-119.5 -66.5zM196 306q-25 0 -44.5 -18t-29.5 -45.5t-14.5 -53.5t-4.5 -49q1 -44 17 -70.5t46 -26.5q33 0 55.5 32.5t30 68.5t7.5 68q0 94 -63 94z" />
    <glyph glyph-name="uni2081" unicode="&#x2081;" horiz-adv-x="287" 
d="M253 0h-253l9 50h100l42 241l-109 -11l9 51l176 23l-54 -304h89z" />
    <glyph glyph-name="uni2082" unicode="&#x2082;" horiz-adv-x="319" 
d="M270 50l-9 -50h-261l9 48q105 59 160 106.5t55 93.5q0 60 -58 60q-64 0 -76 -73l-48 25q8 46 43.5 73.5t88.5 27.5q54 0 84.5 -27t30.5 -77q0 -37 -19.5 -70t-54.5 -59t-63.5 -42t-65.5 -32v-4h184z" />
    <glyph glyph-name="uni2083" unicode="&#x2083;" horiz-adv-x="307" 
d="M182 185v-3q80 -9 80 -83q0 -52 -40 -79t-98 -27q-59 0 -87.5 27t-31.5 68l56 13q6 -62 63 -62q33 0 54 15t21 45q0 29 -21 44t-78 16l8 44q110 5 110 65q0 20 -14 31.5t-38 11.5q-50 0 -65 -54l-51 20q29 84 122 84q48 0 79 -21.5t31 -64.5q0 -37 -26 -61t-74 -29z" />
    <glyph glyph-name="uni2084" unicode="&#x2084;" horiz-adv-x="352" 
d="M174 0l16 92h-180l9 49l213 212h67l-37 -213h60l-9 -48h-60l-16 -92h-63zM201 139l16 91l17 70h-4q-16 -26 -49 -62l-54 -53q-14 -13 -28 -24.5t-21 -16.5l-7 -5l-1 -4q14 4 57 4h74z" />
    <glyph glyph-name="uni2085" unicode="&#x2085;" horiz-adv-x="327" 
d="M61 157l43 196h203l-9 -52h-153l-23 -101q20 25 64 25q45 0 70.5 -27.5t25.5 -74.5q0 -62 -38 -96t-101 -34q-112 0 -123 89l58 18q6 -61 66 -61q36 0 56 21t20 60q0 29 -15.5 45.5t-37.5 16.5q-32 0 -55 -25h-51z" />
    <glyph glyph-name="uni2086" unicode="&#x2086;" horiz-adv-x="347" 
d="M327 290l-53 -22q-9 42 -56 42q-45 0 -79 -43t-47 -119h4q12 36 39.5 57.5t68.5 21.5q47 0 73 -28.5t26 -67.5q0 -61 -40.5 -99.5t-105.5 -38.5q-56 0 -86.5 33t-30.5 97q0 104 55 171t132 67q88 0 100 -71zM105 94q0 -25 15 -40.5t43 -15.5q33 0 58 22.5t25 64.5
q0 24 -15.5 39t-43.5 15q-34 0 -58 -23.5t-24 -61.5z" />
    <glyph glyph-name="uni2087" unicode="&#x2087;" horiz-adv-x="295" 
d="M225 299h-140l-10 -53h-55l19 107h271l-5 -30l-201 -323h-69z" />
    <glyph glyph-name="uni2088" unicode="&#x2088;" horiz-adv-x="337" 
d="M145 -7q-57 0 -88.5 23.5t-31.5 64.5q0 38 25.5 65.5t63.5 35.5v4q-52 23 -52 69q0 50 41 78t97 28q54 0 83 -22.5t29 -60.5q0 -77 -82 -96v-3q62 -22 62 -79q0 -49 -42 -78t-105 -29zM193 315q-30 0 -50 -16.5t-20 -47.5q0 -22 15 -35t39 -13q29 0 51 16.5t22 47.5
q0 21 -15 34.5t-42 13.5zM169 158q-31 0 -54.5 -18.5t-23.5 -50.5q0 -54 60 -54q33 0 55.5 18t22.5 51q0 54 -60 54z" />
    <glyph glyph-name="uni2089" unicode="&#x2089;" horiz-adv-x="350" 
d="M15 64l53 19q9 -42 65 -42q47 0 80 40.5t42 123.5h-4q-21 -78 -100 -78q-52 0 -79 28.5t-27 69.5q0 60 39 98t104 38q56 0 89 -35.5t33 -102.5q0 -103 -49.5 -166.5t-134.5 -63.5q-46 0 -75.5 18.5t-35.5 52.5zM243 260q0 25 -16 40.5t-44 15.5q-33 0 -57 -22t-24 -65
q0 -24 15.5 -39t43.5 -15q34 0 58 23.5t24 61.5z" />
    <glyph glyph-name="uni208A" unicode="&#x208a;" horiz-adv-x="442" 
d="M47 203h156l27 151h39l-27 -151h160l-7 -39h-160l-29 -164h-39l29 164h-156z" />
    <glyph glyph-name="uni208B" unicode="&#x208b;" horiz-adv-x="443" 
d="M396 163h-356l7 40h356z" />
    <glyph glyph-name="uni208C" unicode="&#x208c;" horiz-adv-x="464" 
d="M396 109h-356l7 40h356zM417 226h-356l7 40h356z" />
    <glyph glyph-name="uni208D" unicode="&#x208d;" horiz-adv-x="226" 
d="M174 400h52q-140 -130 -140 -285q0 -79 59 -169h-49q-56 81 -56 169q0 166 134 285z" />
    <glyph glyph-name="uni208E" unicode="&#x208e;" horiz-adv-x="226" 
d="M52 -54h-52q140 130 140 285q0 79 -59 169h49q56 -81 56 -169q0 -166 -134 -285z" />
    <glyph glyph-name="uni20A1" unicode="&#x20a1;" horiz-adv-x="488" 
d="M207 -92l27 80q-24 1 -49 8l-26 -78l-48 16l27 81q-88 53 -88 176q0 129 65.5 210.5t183.5 91.5l29 86l47 -16l-25 -73q24 -3 48 -13l26 76l47 -16l-31 -90q26 -26 38 -69l-73 -35l-95 -285q50 18 83 74l56 -41q-56 -88 -162 -100l-32 -98zM206 58q21 -9 48 -9l120 354
q-18 18 -45 24zM128 201q0 -72 35 -113l114 340q-66 -10 -107.5 -74t-41.5 -153z" />
    <glyph glyph-name="uni20A2" unicode="&#x20a2;" horiz-adv-x="488" 
d="M430 272l-15 -66q-41 8 -79.5 -15.5t-46.5 -70.5l-13 -70q69 10 114 87l56 -41q-36 -57 -84 -82.5t-119 -25.5q-87 0 -140 55t-53 148q0 132 70 217t192 85q134 0 166 -115l-74 -36q-16 88 -105 88q-74 0 -122.5 -66t-48.5 -163q0 -116 82 -145l37 209h60l-7 -78
q18 42 54 67t76 18z" />
    <glyph glyph-name="franc" unicode="&#x20a3;" horiz-adv-x="440" 
d="M335 152h-161l-26 -152h-78l26 152h-76l9 50h76l9 50h-76l9 50h75l32 179h316l-11 -65h-238l-20 -114h161l-9 -50h-161l-9 -50h161z" />
    <glyph glyph-name="lira" unicode="&#x20a4;" horiz-adv-x="487" 
d="M355 152h-144q-7 -33 -26 -56t-44 -31h181q62 0 82 49l53 -30q-35 -84 -138 -84h-309l11 68h49q26 0 50 25.5t26 58.5h-106l9 50h92q-2 9 -5.5 25.5t-5.5 24.5h-72l9 50h57v28q0 83 53 123t121 40q73 0 112 -33.5t39 -99.5l-73 -12q-2 84 -85 84q-94 0 -94 -101
q0 -20 1 -29h184l-9 -50h-167q8 -47 8 -50h150z" />
    <glyph glyph-name="uni20A6" unicode="&#x20a6;" horiz-adv-x="665" 
d="M626 252h-93l-7 -40h93l-9 -50h-93l-28 -162h-82l-128 255q-14 28 -28 61.5t-21 53.5l-7 19h-4q-7 -87 -20 -161l-40 -228h-77l28 162h-85l9 50h85l7 40h-85l9 50h84l32 179h85l130 -266q14 -28 25 -57.5t16 -44.5l4 -15h4q13 81 26 155l40 228h77l-32 -179h94z" />
    <glyph glyph-name="peseta" unicode="&#x20a7;" horiz-adv-x="1059" 
d="M666 122l66 15q-1 -45 28.5 -70.5t73.5 -25.5q104 0 104 83q0 34 -18 54t-75 41q-52 18 -78.5 43.5t-32.5 63.5h-115l-57 -326h-78l57 326h-101q-12 -178 -223 -178h-83l-26 -148h-78l84 481h155q141 0 167 -90h302q13 50 58.5 76t103.5 26q159 0 159 -128l-69 -12
q1 39 -21.5 61.5t-70.5 22.5q-44 0 -70 -20.5t-26 -55.5q0 -33 19 -50t78 -40q64 -25 87 -56t23 -82q0 -72 -48.5 -108.5t-131.5 -36.5q-77 0 -120 36t-43 98zM181 418l-36 -207h78q68 0 103 30t35 98q0 79 -95 79h-85z" />
    <glyph glyph-name="uni20A8" unicode="&#x20a8;" horiz-adv-x="770" 
d="M181 418l-29 -164h95q58 0 87 23t29 76q0 65 -77 65h-105zM553 -12q-63 0 -104.5 22t-79.5 67l-40 47q-2 2 -9 10.5t-9 11t-8.5 9.5t-9.5 9.5t-9.5 8t-11 7t-11.5 5t-14 5t-15.5 2.5t-17.5 1h-72l-34 -193h-78l84 481h183q147 0 147 -122q0 -67 -41 -101.5t-102 -36.5v-3
q15 -1 26.5 -4.5t22.5 -12.5t15.5 -13.5t18 -21t18.5 -22.5l42 -49q48 -57 112 -57q79 0 79 51q0 25 -13 39.5t-48 28.5q-49 21 -70 45.5t-21 63.5q0 53 40.5 83t95.5 30q121 0 121 -94l-70 -11q0 51 -58 51q-30 0 -46.5 -14.5t-16.5 -37.5q0 -22 13.5 -35t59.5 -33
q45 -20 63.5 -44.5t18.5 -63.5q0 -56 -42 -82.5t-109 -26.5z" />
    <glyph glyph-name="uni20A9" unicode="&#x20a9;" horiz-adv-x="816" 
d="M787 272h-108l-17 -40h118l-8 -50h-132l-78 -182h-93l-29 278q-4 34 -4.5 67.5t0.5 50.5l2 16h-3q-10 -57 -45 -134l-126 -278h-95l-10 182h-129l8 50h118l-2 40h-109l9 50h97l-9 159h76l13 -297q1 -37 0 -67t-3 -49l-1 -19h3q14 54 48 130l134 302h79l29 -303
q3 -34 4 -66.5t0 -47.5v-15h3q6 54 39 131l128 301h76l-69 -159h95z" />
    <glyph glyph-name="uni20AA" unicode="&#x20aa;" horiz-adv-x="653" 
d="M416 115h-78l40 229q13 74 -63 74h-134l-73 -418h-78l84 481h227q83 0 104.5 -38t8.5 -114zM550 481h78l-58 -329q-13 -77 -48 -114.5t-118 -37.5h-230l64 365h78l-53 -302h138q76 0 89 74z" />
    <glyph glyph-name="Euro" unicode="&#x20ac;" horiz-adv-x="540" 
d="M362 276h-174q-8 -32 -8 -64h164l-19 -50h-142q8 -53 40.5 -83t83.5 -30q84 0 135 88l56 -41q-36 -57 -84 -82.5t-119 -25.5q-79 0 -131 46.5t-61 127.5h-83l9 50h73q1 29 8 64h-70l9 50h76q29 77 90.5 122t148.5 45q134 0 166 -115l-74 -36q-16 88 -105 88
q-47 0 -85 -28t-60 -76h175z" />
    <glyph glyph-name="uni20AE" unicode="&#x20ae;" horiz-adv-x="448" 
d="M376 279l-114 -19l-9 -50l114 19l-9 -50l-114 -19l-28 -160h-78l26 147l-110 -18l9 50l109 18l9 50l-109 -18l9 50l109 18l21 119h-166l11 65h412l-11 -65h-168l-19 -106l115 19z" />
    <glyph glyph-name="uni20B1" unicode="&#x20b1;" horiz-adv-x="571" 
d="M143 0h-78l50 288h-75l9 50h75l25 143h155q88 0 130 -34.5t42 -108.5h90l-9 -50h-88q-31 -140 -217 -140h-83zM258 211q109 0 131 77h-196l-13 -77h78zM216 418l-14 -80h194q0 80 -95 80h-85z" />
    <glyph glyph-name="afii61289" unicode="&#x2113;" horiz-adv-x="317" 
d="M39 130l-30 47l62 43v242q0 207 131 207q97 0 97 -127q0 -107 -48 -200t-112 -149v-66q0 -44 16 -60.5t53 -16.5q30 0 57 11v-63q-28 -10 -67 -10q-63 0 -95 29.5t-32 97.5v40zM139 478v-213q44 42 75.5 120t31.5 166q0 65 -44 65q-29 0 -46 -34.5t-17 -103.5z" />
    <glyph glyph-name="afii61352" unicode="&#x2116;" horiz-adv-x="1048" 
d="M666 0l12 61h323l-12 -61h-323zM892 475q59 0 92.5 -36t33.5 -97q0 -80 -45.5 -134.5t-123.5 -54.5q-58 0 -93 34.5t-35 96.5q0 80 46 135.5t125 55.5zM884 417q-44 0 -70 -37t-26 -89q0 -41 18 -62t50 -21q42 0 68 38.5t26 90.5q0 38 -17 59t-49 21zM645 483l-84 -483
h-81l-163 346q-14 30 -26.5 63t-18.5 51l-6 19h-4q-4 -69 -17 -143l-42 -241q-11 -62 -41 -84.5t-80 -22.5q-53 0 -82 26l19 65q28 -25 56 -25q21 0 32.5 10t16.5 37l85 488h83l159 -348q14 -31 26.5 -64.5t17.5 -50.5l5 -18h4q8 71 21 145l42 241q11 62 41 84.5t80 22.5
q53 0 82 -26l-20 -70q-28 25 -56 25q-21 0 -32.5 -10t-16.5 -37z" />
    <glyph glyph-name="published" unicode="&#x2117;" horiz-adv-x="698" 
d="M330 433l-27 -157h59q104 0 104 97q0 60 -72 60h-64zM275 112h-65l65 373h123q134 0 134 -105q0 -155 -175 -155h-62zM55 294q0 132 89 219.5t217 87.5t217.5 -87.5t89.5 -219.5t-89.5 -219t-217.5 -87t-217 87t-89 219zM86 294q0 -120 80 -198.5t196 -78.5t196 78.5
t80 198.5t-80 199t-196 79t-196 -79t-80 -199z" />
    <glyph glyph-name="servicemark" unicode="&#x2120;" horiz-adv-x="605" 
d="M50 409l47 7q0 -41 49 -41q50 0 50 34q0 15 -10.5 24.5t-38.5 19.5q-36 12 -50.5 27t-14.5 43q0 38 29 56.5t68 18.5q88 0 88 -72l-52 -4q0 38 -42 38t-42 -33q0 -13 10.5 -21t41.5 -19q66 -21 66 -70q0 -40 -29.5 -59t-76.5 -19q-93 0 -93 70zM558 341h-50l33 172h-5
l-75 -125h-47l-30 125h-5l-33 -172h-50l47 248h66l36 -143h4l89 143h67z" />
    <glyph glyph-name="trademark" unicode="&#x2122;" horiz-adv-x="594" 
d="M155 341h-50l39 204h-74l8 44h199l-8 -44h-75zM547 341h-50l33 172h-5l-75 -125h-47l-30 125h-5l-33 -172h-50l47 248h66l36 -143h4l89 143h67z" />
    <glyph glyph-name="ohm" unicode="&#x2126;" horiz-adv-x="624" 
d="M361 535q-69 0 -121.5 -44.5t-77 -109t-24.5 -135.5q0 -62 23.5 -108t60.5 -67l-12 -71h-200l12 71h111q-31 20 -54 71t-23 111q0 87 37.5 165.5t111.5 130.5t167 52t155 -59.5t62 -159.5q0 -90 -41.5 -177t-115.5 -134h104l-12 -71h-200l12 71q78 39 123 124t45 181
q0 76 -36 117.5t-107 41.5z" />
    <glyph glyph-name="estimated" unicode="&#x212e;" horiz-adv-x="647" 
d="M323 601q71 0 126 -25.5t87.5 -69.5t49 -98t16.5 -114v-26h-431v-169q60 -58 152 -58q130 0 184 104h66q-30 -73 -93 -115t-157 -42q-93 0 -157.5 45t-92.5 112.5t-28 148.5q0 82 28 149.5t92.5 112.5t157.5 45zM323 548q-94 0 -152 -58v-170h304v170q-58 58 -152 58z
" />
    <glyph glyph-name="uni2153" unicode="&#x2153;" horiz-adv-x="849" 
d="M282 236h-243l9 50h90l42 241l-109 -11l9 51l176 23l-54 -304h89zM190 0l410 590h59l-409 -590h-60zM671 185v-3q80 -9 80 -83q0 -52 -40 -79t-98 -27q-59 0 -87.5 27t-31.5 68l56 13q6 -62 63 -62q33 0 54 15t21 45q0 29 -21 44t-78 16l8 44q110 5 110 65q0 20 -14 31.5
t-38 11.5q-50 0 -65 -54l-51 20q29 84 122 84q48 0 79 -21.5t31 -64.5q0 -37 -26 -61t-74 -29z" />
    <glyph glyph-name="uni2154" unicode="&#x2154;" horiz-adv-x="849" 
d="M282 286l-9 -50h-261l9 48q105 59 160 106.5t55 93.5q0 60 -58 60q-64 0 -76 -73l-48 25q8 46 43.5 73.5t88.5 27.5q54 0 84.5 -27t30.5 -77q0 -37 -19.5 -70t-54.5 -59t-63.5 -42t-65.5 -32v-4h184zM190 0l410 590h59l-409 -590h-60zM671 185v-3q80 -9 80 -83
q0 -52 -40 -79t-98 -27q-59 0 -87.5 27t-31.5 68l56 13q6 -62 63 -62q33 0 54 15t21 45q0 29 -21 44t-78 16l8 44q110 5 110 65q0 20 -14 31.5t-38 11.5q-50 0 -65 -54l-51 20q29 84 122 84q48 0 79 -21.5t31 -64.5q0 -37 -26 -61t-74 -29z" />
    <glyph glyph-name="uni215B" unicode="&#x215b;" horiz-adv-x="849" 
d="M282 236h-243l9 50h90l42 241l-109 -11l9 51l176 23l-54 -304h89zM190 0l410 590h59l-409 -590h-60zM634 -7q-57 0 -88.5 23.5t-31.5 64.5q0 38 25.5 65.5t63.5 35.5v4q-52 23 -52 69q0 50 41 78t97 28q54 0 83 -22.5t29 -60.5q0 -77 -82 -96v-3q62 -22 62 -79
q0 -49 -42 -78t-105 -29zM682 315q-30 0 -50 -16.5t-20 -47.5q0 -22 15 -35t39 -13q29 0 51 16.5t22 47.5q0 21 -15 34.5t-42 13.5zM658 158q-31 0 -54.5 -18.5t-23.5 -50.5q0 -54 60 -54q33 0 55.5 18t22.5 51q0 54 -60 54z" />
    <glyph glyph-name="uni215C" unicode="&#x215c;" horiz-adv-x="849" 
d="M208 421v-3q80 -9 80 -83q0 -52 -40 -79t-98 -27q-59 0 -87.5 27t-31.5 68l56 13q6 -62 63 -62q33 0 54 15t21 45q0 29 -21 44t-78 16l8 44q110 5 110 65q0 20 -14 31.5t-38 11.5q-50 0 -65 -54l-51 20q29 84 122 84q48 0 79 -21.5t31 -64.5q0 -37 -26 -61t-74 -29z
M190 0l410 590h59l-409 -590h-60zM634 -7q-57 0 -88.5 23.5t-31.5 64.5q0 38 25.5 65.5t63.5 35.5v4q-52 23 -52 69q0 50 41 78t97 28q54 0 83 -22.5t29 -60.5q0 -77 -82 -96v-3q62 -22 62 -79q0 -49 -42 -78t-105 -29zM682 315q-30 0 -50 -16.5t-20 -47.5q0 -22 15 -35
t39 -13q29 0 51 16.5t22 47.5q0 21 -15 34.5t-42 13.5zM658 158q-31 0 -54.5 -18.5t-23.5 -50.5q0 -54 60 -54q33 0 55.5 18t22.5 51q0 54 -60 54z" />
    <glyph glyph-name="uni215D" unicode="&#x215d;" horiz-adv-x="849" 
d="M69 393l43 196h203l-9 -52h-153l-23 -101q20 25 64 25q45 0 70.5 -27.5t25.5 -74.5q0 -62 -38 -96t-101 -34q-112 0 -123 89l58 18q6 -61 66 -61q36 0 56 21t20 60q0 29 -15.5 45.5t-37.5 16.5q-32 0 -55 -25h-51zM190 0l410 590h59l-409 -590h-60zM634 -7
q-57 0 -88.5 23.5t-31.5 64.5q0 38 25.5 65.5t63.5 35.5v4q-52 23 -52 69q0 50 41 78t97 28q54 0 83 -22.5t29 -60.5q0 -77 -82 -96v-3q62 -22 62 -79q0 -49 -42 -78t-105 -29zM682 315q-30 0 -50 -16.5t-20 -47.5q0 -22 15 -35t39 -13q29 0 51 16.5t22 47.5q0 21 -15 34.5
t-42 13.5zM658 158q-31 0 -54.5 -18.5t-23.5 -50.5q0 -54 60 -54q33 0 55.5 18t22.5 51q0 54 -60 54z" />
    <glyph glyph-name="uni215E" unicode="&#x215e;" horiz-adv-x="779" 
d="M248 535h-140l-10 -53h-55l19 107h271l-5 -30l-201 -323h-69zM120 0l410 590h59l-409 -590h-60zM564 -7q-57 0 -88.5 23.5t-31.5 64.5q0 38 25.5 65.5t63.5 35.5v4q-52 23 -52 69q0 50 41 78t97 28q54 0 83 -22.5t29 -60.5q0 -77 -82 -96v-3q62 -22 62 -79q0 -49 -42 -78
t-105 -29zM612 315q-30 0 -50 -16.5t-20 -47.5q0 -22 15 -35t39 -13q29 0 51 16.5t22 47.5q0 21 -15 34.5t-42 13.5zM588 158q-31 0 -54.5 -18.5t-23.5 -50.5q0 -54 60 -54q33 0 55.5 18t22.5 51q0 54 -60 54z" />
    <glyph glyph-name="arrowleft" unicode="&#x2190;" horiz-adv-x="661" 
d="M149 331h467v-72h-469l218 -222l-54 -49l-293 305l293 308l55 -48z" />
    <glyph glyph-name="arrowup" unicode="&#x2191;" horiz-adv-x="685" 
d="M379 470v-470h-72v472l-222 -218l-49 54l305 293l308 -293l-49 -55z" />
    <glyph glyph-name="arrowright" unicode="&#x2192;" horiz-adv-x="661" 
d="M18 331h467l-213 222l55 48l289 -308l-288 -305l-54 49l214 222h-470v72z" />
    <glyph glyph-name="arrowdown" unicode="&#x2193;" horiz-adv-x="685" 
d="M306 120v469h72v-472l222 219l49 -54l-305 -294l-308 294l49 55z" />
    <glyph glyph-name="uni2196" unicode="&#x2196;" horiz-adv-x="683" 
d="M615 0l-466 469v-370h-68v490h467v-67h-350l467 -471z" />
    <glyph glyph-name="uni2197" unicode="&#x2197;" horiz-adv-x="683" 
d="M534 469l-466 -469l-50 51l467 471h-350v67h467v-490h-68v370z" />
    <glyph glyph-name="uni2198" unicode="&#x2198;" horiz-adv-x="683" 
d="M68 589l466 -468v369h68v-490h-467v67h350l-467 471z" />
    <glyph glyph-name="uni2199" unicode="&#x2199;" horiz-adv-x="683" 
d="M149 121l466 468l50 -51l-467 -471h350v-67h-467v490h68v-369z" />
    <glyph glyph-name="partialdiff" unicode="&#x2202;" horiz-adv-x="490" 
d="M166 672q284 -68 284 -395q0 -127 -62.5 -208t-172.5 -81q-79 0 -127 50.5t-48 141.5q0 117 61 199.5t162 82.5q64 0 100 -44h4q-25 80 -89 136t-166 77zM264 400q-67 0 -108.5 -62.5t-41.5 -149.5q0 -68 29.5 -105t81.5 -37q67 0 108 65t41 153q0 136 -110 136z" />
    <glyph glyph-name="increment" unicode="&#x2206;" horiz-adv-x="554" 
d="M421 66l-57 325q-7 40 -12 78t-6 55l-2 18h-4q-22 -59 -70 -150l-171 -326h322zM514 0h-534l318 589h106z" />
    <glyph glyph-name="product" unicode="&#x220f;" horiz-adv-x="583" 
d="M67 -202h-77l139 791h454l-139 -791h-77l127 719h-300z" />
    <glyph glyph-name="summation" unicode="&#x2211;" horiz-adv-x="440" 
d="M448 521h-185l-71 2v-4q25 -23 52 -68l93 -156l-150 -157q-23 -24 -44.5 -42t-30.5 -24l-10 -5v-4q41 5 104 5h163l-12 -68h-397l286 303l-183 286h397z" />
    <glyph glyph-name="minus" unicode="&#x2212;" horiz-adv-x="496" 
d="M448 225h-408l8 46h408z" />
    <glyph glyph-name="radical" unicode="&#x221a;" horiz-adv-x="503" 
d="M313 205l210 481l70 -6l-301 -680h-81l-80 356l-102 -51l-19 60l180 97l48 -256q8 -40 13 -76t6 -52l1 -16h4q10 49 51 143z" />
    <glyph glyph-name="infinity" unicode="&#x221e;" horiz-adv-x="863" 
d="M240 366q-53 0 -86.5 -42t-33.5 -98q0 -44 24.5 -68t62.5 -24q71 0 123 52l64 63l-37 49q-29 39 -54.5 53.5t-62.5 14.5zM427 206l-57 -56q-78 -76 -170 -76q-68 0 -109 39t-41 105q0 84 56 146t143 62q50 0 87 -21t71 -67l33 -45l58 57q76 76 169 76q69 0 110 -39
t41 -106q0 -83 -56.5 -145t-143.5 -62q-50 0 -87 20.5t-70 65.5zM627 134q52 0 86.5 41.5t34.5 96.5q0 45 -25 69.5t-63 24.5q-69 0 -122 -52l-65 -64l34 -47q30 -40 56.5 -54.5t63.5 -14.5z" />
    <glyph glyph-name="integral" unicode="&#x222b;" horiz-adv-x="260" 
d="M227 561l-117 -665q-11 -62 -40 -84.5t-78 -22.5q-53 0 -82 26l18 60q28 -25 56 -25q21 0 32.5 10t16.5 37l117 665q11 62 40 84.5t78 22.5q53 0 82 -26l-18 -60q-28 25 -56 25q-21 0 -32.5 -10t-16.5 -37z" />
    <glyph glyph-name="approxequal" unicode="&#x2248;" horiz-adv-x="525" 
d="M377 255q-40 0 -109 25t-105 25q-53 0 -103 -50l9 50q38 45 99 45q37 0 109.5 -25t110.5 -25q49 0 97 48l-10 -58q-38 -35 -98 -35zM357 141q-40 0 -109 25.5t-105 25.5q-52 0 -103 -51l9 51q39 45 99 45q37 0 109.5 -25.5t110.5 -25.5q21 0 48 13t49 36l-10 -59
q-40 -35 -98 -35z" />
    <glyph glyph-name="notequal" unicode="&#x2260;" horiz-adv-x="518" 
d="M470 286h-128l-83 -80h197l-8 -46h-237l-131 -126l-29 31l99 95h-110l8 46h149l83 80h-218l8 46h257l118 114l31 -31l-87 -83h89z" />
    <glyph glyph-name="lessequal" unicode="&#x2264;" horiz-adv-x="448" 
d="M408 443l-239 -158l177 -155l-40 -39l-225 198l294 197zM336 21h-306l8 46h306z" />
    <glyph glyph-name="greaterequal" unicode="&#x2265;" horiz-adv-x="448" 
d="M336 21h-306l8 46h306zM81 134l239 158l-177 155l40 39l225 -198l-294 -197z" />
    <glyph glyph-name="blacksquare" unicode="&#x25a0;" horiz-adv-x="759" 
d="M85 0v589h589v-589h-589z" />
    <glyph glyph-name="whitesquare" unicode="&#x25a1;" horiz-adv-x="759" 
d="M85 0v589h589v-589h-589zM128 546v-503h503v503h-503z" />
    <glyph glyph-name="blacksmallsquare" unicode="&#x25aa;" horiz-adv-x="496" 
d="M85 139v325h326v-325h-326z" />
    <glyph glyph-name="whitesmallsquare" unicode="&#x25ab;" horiz-adv-x="496" 
d="M85 139v325h326v-325h-326zM128 421v-239h240v239h-240z" />
    <glyph glyph-name="triagup" unicode="&#x25b2;" horiz-adv-x="571" 
d="M20 0l245 601l246 -601h-491z" />
    <glyph glyph-name="triagrt" unicode="&#x25ba;" horiz-adv-x="686" 
d="M75 536l601 -245l-601 -246v491z" />
    <glyph glyph-name="triagdn" unicode="&#x25bc;" horiz-adv-x="571" 
d="M330 -12l-245 601h491z" />
    <glyph glyph-name="triaglf" unicode="&#x25c4;" horiz-adv-x="686" 
d="M0 291l601 245v-491z" />
    <glyph glyph-name="lozenge" unicode="&#x25ca;" horiz-adv-x="506" 
d="M466 304l-235 -337h-55l-116 337l233 327h55zM395 307l-85 250l-179 -258l84 -260z" />
    <glyph glyph-name="circle" unicode="&#x25cb;" horiz-adv-x="523" 
d="M45 295q0 90 63 153.5t153 63.5t153.5 -63.5t63.5 -153.5t-63.5 -153t-153.5 -63t-153 63t-63 153zM90 294q0 -72 50.5 -123t121.5 -51t122 51t51 123q0 73 -51 124.5t-122 51.5t-121.5 -51.5t-50.5 -124.5z" />
    <glyph glyph-name="blackcircle" unicode="&#x25cf;" horiz-adv-x="703" 
d="M45 294q0 127 89.5 217t216.5 90t217 -90t90 -217t-90 -216.5t-217 -89.5t-216.5 89.5t-89.5 216.5z" />
    <glyph glyph-name="whitecircle" unicode="&#x25ef;" horiz-adv-x="703" 
d="M45 294q0 127 89.5 217t216.5 90t217 -90t90 -217t-90 -216.5t-217 -89.5t-216.5 89.5t-89.5 216.5zM89 293q0 -110 76.5 -187.5t185.5 -77.5q108 0 185 78t77 187q0 110 -77 188.5t-185 78.5q-109 0 -185.5 -78.5t-76.5 -188.5z" />
    <glyph glyph-name="anglebracketleft" unicode="&#x3008;" horiz-adv-x="340" 
d="M214 -203h-68l-76 441l227 430h73l-226 -432z" />
    <glyph glyph-name="anglebracketright" unicode="&#x3009;" horiz-adv-x="340" 
d="M131 668h68l76 -441l-227 -430h-73l226 432z" />
    <glyph glyph-name="lcedilla" unicode="&#xe100;" horiz-adv-x="239" 
d="M170 -126q0 -41 -29.5 -63t-74.5 -22q-56 0 -85 38l23 48q25 -37 62 -37q41 0 41 36q0 44 -69 44l33 87h9q-40 22 -27 90l100 573h76l-100 -569q-8 -45 26 -45q13 0 29 4l-10 -55q-22 -8 -48 -8q-13 0 -18 1l-16 -38q40 -9 59 -29t19 -55z" />
    <glyph glyph-name="uni004500600323" unicode="&#xe101;" horiz-adv-x="480" 
d="M403 68l-11 -68h-352l103 589h352l-12 -68h-272l-34 -193h241l-12 -68h-241l-34 -192h272zM123 -142q0 23 15.5 39t37.5 16q23 0 39 -16t16 -39q0 -22 -16 -38t-39 -16q-22 0 -37.5 16t-15.5 38zM346 655h-69l62 116h104z" />
    <glyph glyph-name="uni006500600323" unicode="&#xe102;" horiz-adv-x="459" 
d="M223 47q49 0 74.5 19.5t39.5 59.5l69 -17q-24 -67 -71 -94t-119 -27q-82 0 -129 53t-47 143q0 133 67.5 211t157.5 78q83 0 123.5 -47.5t40.5 -117.5q0 -51 -20 -94h-298q-6 -68 22 -117.5t90 -49.5zM120 275h231q5 14 5 35q0 44 -24.5 73.5t-70.5 29.5q-54 0 -90 -39
t-51 -99zM291 530h-65l75 143h105zM90 -142q0 23 15.5 39t37.5 16q23 0 39 -16t16 -39q0 -22 -16 -38t-39 -16q-22 0 -37.5 16t-15.5 38z" />
    <glyph glyph-name="uni004500B40323" unicode="&#xe103;" horiz-adv-x="480" 
d="M403 68l-11 -68h-352l103 589h352l-12 -68h-272l-34 -193h241l-12 -68h-241l-34 -192h272zM123 -142q0 23 15.5 39t37.5 16q23 0 39 -16t16 -39q0 -22 -16 -38t-39 -16q-22 0 -37.5 16t-15.5 38zM354 655h-69l-97 116h104z" />
    <glyph glyph-name="uni006500B40323" unicode="&#xe104;" horiz-adv-x="459" 
d="M223 47q49 0 74.5 19.5t39.5 59.5l69 -17q-24 -67 -71 -94t-119 -27q-82 0 -129 53t-47 143q0 133 67.5 211t157.5 78q83 0 123.5 -47.5t40.5 -117.5q0 -51 -20 -94h-298q-6 -68 22 -117.5t90 -49.5zM120 275h231q5 14 5 35q0 44 -24.5 73.5t-70.5 29.5q-54 0 -90 -39
t-51 -99zM307 530h-65l-115 143h105zM90 -142q0 23 15.5 39t37.5 16q23 0 39 -16t16 -39q0 -22 -16 -38t-39 -16q-22 0 -37.5 16t-15.5 38z" />
    <glyph glyph-name="Gtilde" unicode="&#xe105;" horiz-adv-x="592" 
d="M317 300h228l-52 -300h-62l-1 75q-40 -87 -150 -87q-105 0 -165 66t-60 173q0 172 87 273t214 101q157 0 191 -139l-78 -32q-9 52 -42 78.5t-79 26.5q-97 0 -154.5 -88.5t-57.5 -213.5q0 -83 39 -131t115 -48q134 0 158 138l7 38h-150zM424 655q-8 0 -16 1t-13 2.5
t-12 4.5t-10 5t-10.5 6.5t-10.5 6.5q-4 2 -12.5 8t-12 7.5t-9.5 4.5t-11 4t-11 1q-36 0 -39 -49h-48q-8 46 18 79.5t71 33.5q7 0 13.5 -1t11 -1.5t10.5 -3t8.5 -3.5t9 -5t8 -4.5t9 -5.5t8.5 -6q33 -22 50 -22q31 0 37 52h51q6 -50 -18.5 -82.5t-71.5 -32.5z" />
    <glyph glyph-name="gtilde" unicode="&#xe106;" horiz-adv-x="500" 
d="M351 190l15 81q10 56 -13.5 99t-76.5 43q-71 0 -116.5 -64.5t-45.5 -163.5q0 -61 25.5 -97.5t75.5 -36.5q54 0 89.5 36.5t46.5 102.5zM475 462l-84 -477q-18 -101 -71 -148.5t-153 -47.5q-86 0 -128 35.5t-49 92.5l68 23q3 -41 33.5 -68t80.5 -27q62 0 95.5 34.5
t46.5 102.5l18 93q-38 -86 -135 -86q-70 0 -113.5 50t-43.5 139q0 121 65 208t165 87q99 0 117 -89l25 78h63zM362 531q-8 0 -16 1t-13 2.5t-12 4.5t-10 5t-10.5 6.5t-10.5 6.5q-4 2 -12.5 8t-12 7.5t-9.5 4.5t-11 4t-11 1q-36 0 -39 -49h-48q-8 46 18 79.5t71 33.5
q7 0 13.5 -1t11 -1.5t10.5 -3t8.5 -3.5t9 -5t8 -4.5t9 -5.5t8.5 -6q33 -22 50 -22q31 0 37 52h51q6 -50 -18.5 -82.5t-71.5 -32.5z" />
    <glyph glyph-name="Gcommaturnedabove" unicode="&#xe107;" horiz-adv-x="592" 
d="M317 300h228l-52 -300h-62l-1 75q-40 -87 -150 -87q-105 0 -165 66t-60 173q0 172 87 273t214 101q157 0 191 -139l-78 -32q-9 52 -42 78.5t-79 26.5q-97 0 -154.5 -88.5t-57.5 -213.5q0 -83 39 -131t115 -48q134 0 158 138l7 38h-150zM316 720q0 52 35 78.5t93 26.5v-34
q-72 -4 -72 -44q26 5 41.5 -8t15.5 -36t-14.5 -36t-38.5 -13q-25 0 -42.5 17t-17.5 49z" />
    <glyph glyph-name="gcommaturnedabove" unicode="&#xe108;" horiz-adv-x="500" 
d="M351 190l15 81q10 56 -13.5 99t-76.5 43q-71 0 -116.5 -64.5t-45.5 -163.5q0 -61 25.5 -97.5t75.5 -36.5q54 0 89.5 36.5t46.5 102.5zM475 462l-84 -477q-18 -101 -71 -148.5t-153 -47.5q-86 0 -128 35.5t-49 92.5l68 23q3 -41 33.5 -68t80.5 -27q62 0 95.5 34.5
t46.5 102.5l18 93q-38 -86 -135 -86q-70 0 -113.5 50t-43.5 139q0 121 65 208t165 87q99 0 117 -89l25 78h63zM253 601q0 52 35 78.5t93 26.5v-34q-72 -4 -72 -44q26 5 41.5 -8t15.5 -36t-14.5 -36t-38.5 -13q-25 0 -42.5 17t-17.5 49z" />
    <glyph glyph-name="Hmacronbelow" unicode="&#xe109;" horiz-adv-x="614" 
d="M120 0h-80l103 589h80l-45 -256h296l45 256h80l-103 -589h-80l46 265h-296zM367 -180h-251l11 61h251z" />
    <glyph glyph-name="hmacronbelow" unicode="&#xe10a;" horiz-adv-x="505" 
d="M443 318l-38 -219q-8 -45 26 -45q13 0 29 4l-10 -55q-22 -8 -48 -8q-91 0 -73 100l40 224q16 90 -63 90q-46 0 -89 -37t-57 -119l-44 -253h-76l116 668h78l-54 -300q51 105 149 105q55 0 86.5 -28t31.5 -81q0 -23 -4 -46zM322 -180h-251l11 61h251z" />
    <glyph glyph-name="Jcaron" unicode="&#xe10b;" horiz-adv-x="419" 
d="M329 589h80l-77 -434q-16 -90 -59.5 -128.5t-128.5 -38.5q-66 0 -106.5 33t-52.5 88l64 41q22 -99 100 -99q52 0 73 26.5t32 91.5zM399 655h-46l-99 124h85l26 -34q7 -9 11.5 -18t5.5 -13l1 -4h2q7 14 30 35l38 34h89z" />
    <glyph glyph-name="Kcedilla" unicode="&#xe10d;" horiz-adv-x="508" 
d="M459 0h-89l-147 265h-57l-46 -265h-80l103 589h80l-45 -258h47l228 258h95l-261 -286zM279 -126q0 -41 -29.5 -63t-74.5 -22q-57 0 -85 38l23 48q25 -37 62 -37q41 0 41 36q0 44 -69 44l33 87h41l-20 -47q40 -9 59 -29t19 -55z" />
    <glyph glyph-name="kcedilla" unicode="&#xe10e;" horiz-adv-x="437" 
d="M274 44l-91 184h-27l-40 -228h-76l117 668h77l-68 -385h22l171 179h93l-203 -202l81 -170q14 -28 32.5 -33.5t50.5 3.5l-11 -57q-24 -8 -53 -8q-51 0 -75 49zM264 -126q0 -41 -29.5 -63t-74.5 -22q-56 0 -85 38l23 48q25 -37 62 -37q41 0 41 36q0 44 -69 44l33 87h41
l-20 -47q40 -9 59 -29t19 -55z" />
    <glyph glyph-name="Lcedilla" unicode="&#xe10f;" horiz-adv-x="458" 
d="M300 -126q0 -41 -29.5 -63t-74.5 -22q-56 0 -85 38l23 48q25 -37 62 -37q41 0 41 36q0 44 -69 44l31 82h-159l103 589h80l-92 -521h272l-11 -68h-152l-18 -42q40 -9 59 -29t19 -55z" />
    <glyph glyph-name="ocedilla" unicode="&#xe110;" horiz-adv-x="491" 
d="M263 -126q0 -41 -29.5 -63t-74.5 -22q-57 0 -85 38l23 48q25 -37 62 -37q41 0 41 36q0 44 -69 44l29 78q-56 15 -88 63.5t-32 124.5q0 121 63.5 205t173.5 84q82 0 128 -53t46 -145q0 -121 -63.5 -204t-172.5 -83q-12 0 -17 1l-13 -31q40 -9 59 -29t19 -55zM265 410
q-68 0 -109.5 -64t-41.5 -153q0 -70 29.5 -108t81.5 -38q68 0 109 66.5t41 156.5q0 66 -29 103t-81 37z" />
    <glyph glyph-name="Mmacron" unicode="&#xe111;" horiz-adv-x="690" 
d="M365 147h-60l-77 219q-11 30 -17 58t-7 41l-1 13h-4q-2 -37 -14 -108l-65 -370h-80l103 589h94l91 -283q7 -22 11.5 -43t5.5 -31l1 -9h4q8 31 41 80l190 286h94l-103 -589h-80l65 370q5 32 11 59t10 38l3 11h-4q-16 -38 -62 -107zM551 677h-251l10 59h251z" />
    <glyph glyph-name="mmacron" unicode="&#xe112;" horiz-adv-x="755" 
d="M376 0h-75l57 319q16 90 -63 90q-41 0 -81 -37.5t-54 -118.5l-44 -253h-76l81 462h66l-7 -94q26 54 58.5 79.5t86.5 25.5q49 0 80 -29.5t31 -82.5q25 56 60.5 84t89.5 28q50 0 80.5 -28.5t30.5 -80.5q0 -23 -4 -46l-38 -219q-8 -45 26 -45q13 0 29 4l-10 -55
q-22 -8 -48 -8q-91 0 -73 100l40 224q16 90 -63 90q-41 0 -81 -37.5t-54 -118.5zM558 564h-251l11 61h251z" />
    <glyph glyph-name="Mcedilla" unicode="&#xe113;" horiz-adv-x="690" 
d="M365 147h-60l-77 219q-11 30 -17 58t-7 41l-1 13h-4q-2 -37 -14 -108l-65 -370h-80l103 589h94l91 -283q7 -22 11.5 -43t5.5 -31l1 -9h4q8 31 41 80l190 286h94l-103 -589h-80l65 370q5 32 11 59t10 38l3 11h-4q-16 -38 -62 -107zM382 -126q0 -41 -29.5 -63t-74.5 -22
q-56 0 -85 38l23 48q25 -37 62 -37q41 0 41 36q0 44 -69 44l33 87h41l-20 -47q40 -9 59 -29t19 -55z" />
    <glyph glyph-name="mcedilla" unicode="&#xe114;" horiz-adv-x="755" 
d="M411 -126q0 -41 -29.5 -63t-74.5 -22q-57 0 -85 38l23 48q25 -37 62 -37q41 0 41 36q0 44 -69 44l31 82h-9l57 319q16 90 -63 90q-41 0 -81 -37.5t-54 -118.5l-44 -253h-76l81 462h66l-7 -94q26 54 58.5 79.5t86.5 25.5q49 0 80 -29.5t31 -82.5q25 56 60.5 84t89.5 28
q50 0 80.5 -28.5t30.5 -80.5q0 -23 -4 -46l-38 -219q-8 -45 26 -45q13 0 29 4l-10 -55q-22 -8 -48 -8q-91 0 -73 100l40 224q16 90 -63 90q-41 0 -81 -37.5t-54 -118.5l-45 -253h-25l-18 -42q40 -9 59 -29t19 -55z" />
    <glyph glyph-name="Ndieresis" unicode="&#xe115;" horiz-adv-x="613" 
d="M226 589l159 -348q14 -31 26.5 -64.5t17.5 -50.5l5 -18h4q8 71 21 145l59 336h80l-103 -589h-81l-163 346q-14 30 -26.5 63t-18.5 51l-6 19h-4q-4 -69 -17 -143l-59 -336h-80l103 589h83zM226 710q0 22 16 38t38 16t38 -16t16 -38t-16 -38t-38 -16t-38 16t-16 38z
M415 709q0 22 16 38t38 16q23 0 38.5 -15.5t15.5 -38.5q0 -22 -16 -38t-38 -16t-38 16t-16 38z" />
    <glyph glyph-name="ndieresis" unicode="&#xe116;" horiz-adv-x="505" 
d="M443 318l-38 -219q-8 -45 26 -45q13 0 29 4l-10 -55q-22 -8 -48 -8q-91 0 -73 100l40 224q16 90 -63 90q-46 0 -89 -37t-57 -119l-44 -253h-76l81 462h66l-7 -94q51 105 149 105q55 0 86.5 -28t31.5 -81q0 -23 -4 -46zM157 595q0 22 16 38t38 16q23 0 38.5 -15.5
t15.5 -38.5q0 -22 -16 -38t-38 -16t-38 16t-16 38zM346 594q0 22 16 38t38 16t38 -16t16 -38t-16 -38t-38 -16t-38 16t-16 38z" />
    <glyph glyph-name="Nmacron" unicode="&#xe117;" horiz-adv-x="613" 
d="M226 589l159 -348q14 -31 26.5 -64.5t17.5 -50.5l5 -18h4q8 71 21 145l59 336h80l-103 -589h-81l-163 346q-14 30 -26.5 63t-18.5 51l-6 19h-4q-4 -69 -17 -143l-59 -336h-80l103 589h83zM501 677h-251l10 59h251z" />
    <glyph glyph-name="nmacron" unicode="&#xe118;" horiz-adv-x="505" 
d="M443 318l-38 -219q-8 -45 26 -45q13 0 29 4l-10 -55q-22 -8 -48 -8q-91 0 -73 100l40 224q16 90 -63 90q-46 0 -89 -37t-57 -119l-44 -253h-76l81 462h66l-7 -94q51 105 149 105q55 0 86.5 -28t31.5 -81q0 -23 -4 -46zM425 564h-251l11 61h251z" />
    <glyph glyph-name="Ncedilla" unicode="&#xe119;" horiz-adv-x="613" 
d="M226 589l159 -348q14 -31 26.5 -64.5t17.5 -50.5l5 -18h4q8 71 21 145l59 336h80l-103 -589h-81l-163 346q-14 30 -26.5 63t-18.5 51l-6 19h-4q-4 -69 -17 -143l-59 -336h-80l103 589h83zM332 -126q0 -41 -29.5 -63t-74.5 -22q-56 0 -85 38l23 48q25 -37 62 -37
q41 0 41 36q0 44 -69 44l33 87h41l-20 -47q40 -9 59 -29t19 -55z" />
    <glyph glyph-name="ncedilla" unicode="&#xe11a;" horiz-adv-x="505" 
d="M443 318l-38 -219q-8 -45 26 -45q13 0 29 4l-10 -55q-22 -8 -48 -8q-91 0 -73 100l40 224q16 90 -63 90q-46 0 -89 -37t-57 -119l-44 -253h-76l81 462h66l-7 -94q51 105 149 105q55 0 86.5 -28t31.5 -81q0 -23 -4 -46zM278 -126q0 -41 -29.5 -63t-74.5 -22q-56 0 -85 38
l23 48q25 -37 62 -37q41 0 41 36q0 44 -69 44l33 87h41l-20 -47q40 -9 59 -29t19 -55z" />
    <glyph glyph-name="Ocommaturnedabove" unicode="&#xe11b;" horiz-adv-x="616" 
d="M281 -12q-106 0 -166 66t-60 173q0 172 86.5 273t213.5 101q106 0 166 -66.5t60 -173.5q0 -172 -86.5 -272.5t-213.5 -100.5zM347 534q-97 0 -154 -88t-57 -213q0 -83 40 -131t114 -48q96 0 153 88t57 213q0 79 -37.5 129t-115.5 50zM323 720q0 52 35 78.5t93 26.5v-34
q-72 -4 -72 -44q26 5 41.5 -8t15.5 -36t-14.5 -36t-38.5 -13q-25 0 -42.5 17t-17.5 49z" />
    <glyph glyph-name="ocommaturnedabove" unicode="&#xe11c;" horiz-adv-x="491" 
d="M277 473q82 0 128 -53t46 -145q0 -121 -63.5 -204t-172.5 -83q-79 0 -127 51.5t-48 144.5q0 121 63.5 205t173.5 84zM265 410q-68 0 -109.5 -64t-41.5 -153q0 -70 29.5 -108t81.5 -38q68 0 109 66.5t41 156.5q0 66 -29 103t-81 37zM244 600q0 52 35 78.5t93 26.5v-34
q-72 -4 -72 -44q26 5 41.5 -8t15.5 -36t-14.5 -36t-38.5 -13q-25 0 -42.5 17t-17.5 49z" />
    <glyph glyph-name="uni004F02D900AF" unicode="&#xe11d;" horiz-adv-x="616" 
d="M281 -12q-106 0 -166 66t-60 173q0 172 86.5 273t213.5 101q106 0 166 -66.5t60 -173.5q0 -172 -86.5 -272.5t-213.5 -100.5zM347 534q-97 0 -154 -88t-57 -213q0 -83 40 -131t114 -48q96 0 153 88t57 213q0 79 -37.5 129t-115.5 50zM524 763h-251l10 59h251zM320 673
q0 23 15.5 39t37.5 16q23 0 39 -16t16 -39q0 -22 -16 -38t-39 -16q-22 0 -37.5 16t-15.5 38z" />
    <glyph glyph-name="Ocedilla" unicode="&#xe11f;" horiz-adv-x="616" 
d="M333 -126q0 -41 -29.5 -63t-74.5 -22q-57 0 -85 38l23 48q25 -37 62 -37q41 0 41 36q0 44 -69 44l28 75q-83 15 -128.5 77.5t-45.5 156.5q0 172 86.5 273t213.5 101q106 0 166 -66.5t60 -173.5q0 -172 -86.5 -272.5t-213.5 -100.5h-13l-13 -30q40 -9 59 -29t19 -55z
M347 534q-97 0 -154 -88t-57 -213q0 -83 40 -131t114 -48q96 0 153 88t57 213q0 79 -37.5 129t-115.5 50z" />
    <glyph glyph-name="Ounderlineaccent" unicode="&#xe121;" horiz-adv-x="616" 
d="M281 -12q-106 0 -166 66t-60 173q0 172 86.5 273t213.5 101q106 0 166 -66.5t60 -173.5q0 -172 -86.5 -272.5t-213.5 -100.5zM347 534q-97 0 -154 -88t-57 -213q0 -83 40 -131t114 -48q96 0 153 88t57 213q0 79 -37.5 129t-115.5 50zM282 -203h-60l19 150h60z" />
    <glyph glyph-name="ounderlineaccent" unicode="&#xe122;" horiz-adv-x="491" 
d="M277 473q82 0 128 -53t46 -145q0 -121 -63.5 -204t-172.5 -83q-79 0 -127 51.5t-48 144.5q0 121 63.5 205t173.5 84zM265 410q-68 0 -109.5 -64t-41.5 -153q0 -70 29.5 -108t81.5 -38q68 0 109 66.5t41 156.5q0 66 -29 103t-81 37zM216 -203h-60l19 150h60z" />
    <glyph glyph-name="Pmacron" unicode="&#xe123;" horiz-adv-x="480" 
d="M212 524l-42 -235h88q69 0 107 38.5t38 108.5q0 45 -25 66.5t-80 21.5h-86zM120 0h-80l103 589h164q92 0 135 -36t43 -111q0 -104 -64 -160.5t-167 -56.5h-95zM442 677h-251l10 59h251z" />
    <glyph glyph-name="pmacron" unicode="&#xe124;" horiz-adv-x="523" 
d="M162 267l-16 -90q-10 -46 18.5 -86t83.5 -40q71 0 113.5 66.5t42.5 165.5q0 59 -25 93.5t-72 34.5q-52 0 -93 -40t-52 -104zM129 76l-49 -279h-75l117 665h66l-8 -89q48 100 152 100q73 0 112 -49t39 -141q0 -127 -62.5 -211t-166.5 -84q-50 0 -83.5 25t-41.5 63z
M445 564h-251l11 61h251z" />
    <glyph glyph-name="Rdoublegrave" unicode="&#xe125;" horiz-adv-x="535" 
d="M478 0h-85q-14 17 -20 53l-18 107q-9 54 -32.5 72t-75.5 18h-83l-44 -250h-80l103 589h195q91 0 129 -35.5t38 -103.5q0 -81 -50 -124.5t-113 -46.5v-4q41 -5 61 -26t29 -70l21 -118q6 -34 25 -61zM212 524l-37 -210h113q135 0 135 125q0 44 -23 64.5t-75 20.5h-113z
M433 655h-58l-105 116h98zM293 655h-60l-115 116h100z" />
    <glyph glyph-name="rdoublegrave" unicode="&#xe126;" horiz-adv-x="332" 
d="M352 471l-20 -89q-55 11 -106.5 -20.5t-62.5 -94.5l-47 -267h-76l81 462h66l-9 -105q24 56 72.5 89.5t101.5 24.5zM348 530h-58l-105 143h98zM208 530h-60l-115 143h100z" />
    <glyph glyph-name="Rcedilla" unicode="&#xe127;" horiz-adv-x="535" 
d="M478 0h-85q-14 17 -20 53l-18 107q-9 54 -32.5 72t-75.5 18h-83l-44 -250h-80l103 589h195q91 0 129 -35.5t38 -103.5q0 -81 -50 -124.5t-113 -46.5v-4q41 -5 61 -26t29 -70l21 -118q6 -34 25 -61zM212 524l-37 -210h113q135 0 135 125q0 44 -23 64.5t-75 20.5h-113z
M319 -126q0 -41 -29.5 -63t-74.5 -22q-57 0 -85 38l23 48q25 -37 62 -37q41 0 41 36q0 44 -69 44l33 87h41l-20 -47q40 -9 59 -29t19 -55z" />
    <glyph glyph-name="rcedilla" unicode="&#xe128;" horiz-adv-x="332" 
d="M161 -126q0 -41 -29.5 -63t-74.5 -22q-56 0 -85 38l23 48q25 -37 62 -37q41 0 41 36q0 44 -69 44l31 82h-20l81 462h66l-9 -105q24 56 72.5 89.5t101.5 24.5l-20 -89q-55 11 -106.5 -20.5t-62.5 -94.5l-47 -267h-15l-18 -42q40 -9 59 -29t19 -55z" />
    <glyph glyph-name="Tcedilla" unicode="&#xe129;" horiz-adv-x="473" 
d="M271 -126q0 -41 -29.5 -63t-74.5 -22q-57 0 -85 38l23 48q25 -37 62 -37q41 0 41 36q0 44 -69 44l31 82h-16l91 521h-175l12 68h431l-12 -68h-176l-91 -521h-23l-18 -42q40 -9 59 -29t19 -55z" />
    <glyph glyph-name="tcedilla" unicode="&#xe12a;" horiz-adv-x="302" 
d="M204 -126q0 -66 -72 -82q-15 -3 -32 -3q-56 0 -85 38l23 48q25 -37 62 -37q41 0 41 36q0 44 -69 44l30 80q-65 27 -46 130l5 30l43 243h-64l11 61h65l17 97l77 11l-19 -108h121l-11 -61h-120l-50 -281q-6 -34 5.5 -51t33.5 -17q38 0 79 23v-64q-40 -23 -91 -23
q-4 0 -10 0.5t-9 0.5l-13 -31q40 -9 59 -29t19 -55z" />
    <glyph glyph-name="Umacronbelow" unicode="&#xe12b;" horiz-adv-x="582" 
d="M497 589h80l-71 -404q-34 -197 -247 -197q-101 0 -156.5 56.5t-34.5 175.5l64 369h80l-66 -378q-14 -81 20 -119.5t102 -38.5q67 0 107 34t54 114zM346 -180h-251l11 61h251z" />
    <glyph glyph-name="umacronbelow" unicode="&#xe12c;" 
d="M316 87q-39 -99 -145 -99q-72 0 -101 45t-15 129l52 300h76l-55 -314q-8 -49 9 -76t57 -27q46 0 85 37t50 99l49 281h76l-64 -363q-8 -45 26 -45q13 0 29 4l-10 -55q-22 -8 -48 -8q-84 0 -71 92zM292 -180h-251l11 61h251z" />
    <glyph glyph-name="R.alt" unicode="&#xe141;" horiz-adv-x="510" 
d="M323 246l134 -246h-89l-124 237h-85l-41 -237h-78l103 589h169q173 0 173 -146q0 -82 -46.5 -133.5t-115.5 -63.5zM210 524l-40 -226h85q148 0 148 134q0 92 -96 92h-97z" />
    <glyph glyph-name="Racute.alt" unicode="&#xe142;" horiz-adv-x="510" 
d="M356 655h-69l62 116h104zM323 246l134 -246h-89l-124 237h-85l-41 -237h-78l103 589h169q173 0 173 -146q0 -82 -46.5 -133.5t-115.5 -63.5zM210 524l-40 -226h85q148 0 148 134q0 92 -96 92h-97z" />
    <glyph glyph-name="Rcaron.alt" unicode="&#xe143;" horiz-adv-x="510" 
d="M346 655h-46l-99 124h85l26 -34q7 -9 11.5 -18t5.5 -13l1 -4h2q7 14 30 35l38 34h89zM323 246l134 -246h-89l-124 237h-85l-41 -237h-78l103 589h169q173 0 173 -146q0 -82 -46.5 -133.5t-115.5 -63.5zM210 524l-40 -226h85q148 0 148 134q0 92 -96 92h-97z" />
    <glyph glyph-name="Rinvertedbreve.alt" unicode="&#xe144;" horiz-adv-x="510" 
d="M353 783q60 0 89 -34t18 -92h-61q3 34 -10 51.5t-47 17.5q-63 0 -82 -69h-61q11 58 52 92t102 34zM323 246l134 -246h-89l-124 237h-85l-41 -237h-78l103 589h169q173 0 173 -146q0 -82 -46.5 -133.5t-115.5 -63.5zM210 524l-40 -226h85q148 0 148 134q0 92 -96 92h-97z
" />
    <glyph glyph-name="Rdoublegrave.alt" unicode="&#xe145;" horiz-adv-x="510" 
d="M433 655h-58l-105 116h98zM293 655h-60l-115 116h100zM323 246l134 -246h-89l-124 237h-85l-41 -237h-78l103 589h169q173 0 173 -146q0 -82 -46.5 -133.5t-115.5 -63.5zM210 524l-40 -226h85q148 0 148 134q0 92 -96 92h-97z" />
    <glyph glyph-name="Rcommaaccent.alt" unicode="&#xe146;" horiz-adv-x="510" 
d="M274 -140q0 -52 -35 -78.5t-93 -26.5v34q72 4 72 44q-26 -5 -41.5 8t-15.5 36t14.5 36t38.5 13q25 0 42.5 -17t17.5 -49zM323 246l134 -246h-89l-124 237h-85l-41 -237h-78l103 589h169q173 0 173 -146q0 -82 -46.5 -133.5t-115.5 -63.5zM210 524l-40 -226h85
q148 0 148 134q0 92 -96 92h-97z" />
    <glyph glyph-name="Rcedilla.alt" unicode="&#xe147;" horiz-adv-x="510" 
d="M307 -126q0 -41 -29.5 -63t-74.5 -22q-57 0 -85 38l23 48q25 -37 62 -37q41 0 41 36q0 44 -69 44l33 87h41l-20 -47q40 -9 59 -29t19 -55zM323 246l134 -246h-89l-124 237h-85l-41 -237h-78l103 589h169q173 0 173 -146q0 -82 -46.5 -133.5t-115.5 -63.5zM210 524
l-40 -226h85q148 0 148 134q0 92 -96 92h-97z" />
    <glyph glyph-name="Rdotbelow.alt" unicode="&#xe148;" horiz-adv-x="510" 
d="M153 -142q0 23 15.5 39t37.5 16q23 0 39 -16t16 -39q0 -22 -16 -38t-39 -16q-22 0 -37.5 16t-15.5 38zM323 246l134 -246h-89l-124 237h-85l-41 -237h-78l103 589h169q173 0 173 -146q0 -82 -46.5 -133.5t-115.5 -63.5zM210 524l-40 -226h85q148 0 148 134q0 92 -96 92
h-97z" />
    <glyph glyph-name="Rdotbelowmacron.alt" unicode="&#xe149;" horiz-adv-x="510" 
d="M153 -142q0 23 15.5 39t37.5 16q23 0 39 -16t16 -39q0 -22 -16 -38t-39 -16q-22 0 -37.5 16t-15.5 38zM458 677h-251l10 59h251zM323 246l134 -246h-89l-124 237h-85l-41 -237h-78l103 589h169q173 0 173 -146q0 -82 -46.5 -133.5t-115.5 -63.5zM210 524l-40 -226h85
q148 0 148 134q0 92 -96 92h-97z" />
    <glyph glyph-name="aogonek.school" unicode="&#xe150;" horiz-adv-x="481" 
d="M309 143l12 72q-96 7 -153.5 -21t-57.5 -83q0 -66 74 -66q47 0 82.5 27.5t42.5 70.5zM301 74q-36 -86 -142 -86q-59 0 -91.5 31.5t-32.5 85.5q0 84 75.5 125.5t218.5 34.5l9 52q9 48 -13 71.5t-66 23.5q-85 0 -105 -78l-70 10q17 68 69 98.5t117 30.5q172 0 144 -155
l-38 -219q-8 -45 26 -45q13 0 29 4l-10 -55q-149 -21 -149 -113q0 -22 13 -35.5t34 -13.5q43 0 65 43l29 -35q-30 -60 -106 -60q-49 0 -75 25t-26 68q0 48 33 83.5t77 51.5q-18 29 -15 57z" />
    <glyph glyph-name="a.school" unicode="&#xe151;" horiz-adv-x="481" 
d="M309 143l12 72q-96 7 -153.5 -21t-57.5 -83q0 -66 74 -66q47 0 82.5 27.5t42.5 70.5zM414 318l-38 -219q-8 -45 26 -45q13 0 29 4l-10 -55q-22 -8 -48 -8q-78 0 -72 79q-36 -86 -142 -86q-59 0 -91.5 31.5t-32.5 85.5q0 84 75.5 125.5t218.5 34.5l9 52q9 48 -13 71.5
t-66 23.5q-85 0 -105 -78l-70 10q17 68 69 98.5t117 30.5q172 0 144 -155z" />
    <glyph glyph-name="agrave.school" unicode="&#xe152;" horiz-adv-x="481" 
d="M309 143l12 72q-96 7 -153.5 -21t-57.5 -83q0 -66 74 -66q47 0 82.5 27.5t42.5 70.5zM414 318l-38 -219q-8 -45 26 -45q13 0 29 4l-10 -55q-22 -8 -48 -8q-78 0 -72 79q-36 -86 -142 -86q-59 0 -91.5 31.5t-32.5 85.5q0 84 75.5 125.5t218.5 34.5l9 52q9 48 -13 71.5
t-66 23.5q-85 0 -105 -78l-70 10q17 68 69 98.5t117 30.5q172 0 144 -155zM326 530h-65l-115 143h105z" />
    <glyph glyph-name="aacute.school" unicode="&#xe153;" horiz-adv-x="481" 
d="M309 143l12 72q-96 7 -153.5 -21t-57.5 -83q0 -66 74 -66q47 0 82.5 27.5t42.5 70.5zM414 318l-38 -219q-8 -45 26 -45q13 0 29 4l-10 -55q-22 -8 -48 -8q-78 0 -72 79q-36 -86 -142 -86q-59 0 -91.5 31.5t-32.5 85.5q0 84 75.5 125.5t218.5 34.5l9 52q9 48 -13 71.5
t-66 23.5q-85 0 -105 -78l-70 10q17 68 69 98.5t117 30.5q172 0 144 -155zM303 530h-65l75 143h105z" />
    <glyph glyph-name="acircumflex.school" unicode="&#xe154;" horiz-adv-x="481" 
d="M309 143l12 72q-96 7 -153.5 -21t-57.5 -83q0 -66 74 -66q47 0 82.5 27.5t42.5 70.5zM414 318l-38 -219q-8 -45 26 -45q13 0 29 4l-10 -55q-22 -8 -48 -8q-78 0 -72 79q-36 -86 -142 -86q-59 0 -91.5 31.5t-32.5 85.5q0 84 75.5 125.5t218.5 34.5l9 52q9 48 -13 71.5
t-66 23.5q-85 0 -105 -78l-70 10q17 68 69 98.5t117 30.5q172 0 144 -155zM278 673h42l97 -143h-79l-28 44q-7 11 -11 21t-5 15l-1 4h-4q-8 -16 -31 -40l-44 -44h-83z" />
    <glyph glyph-name="adieresis.school" unicode="&#xe155;" horiz-adv-x="481" 
d="M309 143l12 72q-96 7 -153.5 -21t-57.5 -83q0 -66 74 -66q47 0 82.5 27.5t42.5 70.5zM414 318l-38 -219q-8 -45 26 -45q13 0 29 4l-10 -55q-22 -8 -48 -8q-78 0 -72 79q-36 -86 -142 -86q-59 0 -91.5 31.5t-32.5 85.5q0 84 75.5 125.5t218.5 34.5l9 52q9 48 -13 71.5
t-66 23.5q-85 0 -105 -78l-70 10q17 68 69 98.5t117 30.5q172 0 144 -155zM130 595q0 22 16 38t38 16t38 -15.5t16 -38.5q0 -22 -16 -38t-38 -16t-38 16t-16 38zM319 594q0 22 16 38t38 16q23 0 38.5 -16t15.5 -38t-16 -38t-38 -16t-38 16t-16 38z" />
    <glyph glyph-name="atilde.school" unicode="&#xe156;" horiz-adv-x="481" 
d="M309 143l12 72q-96 7 -153.5 -21t-57.5 -83q0 -66 74 -66q47 0 82.5 27.5t42.5 70.5zM414 318l-38 -219q-8 -45 26 -45q13 0 29 4l-10 -55q-22 -8 -48 -8q-78 0 -72 79q-36 -86 -142 -86q-59 0 -91.5 31.5t-32.5 85.5q0 84 75.5 125.5t218.5 34.5l9 52q9 48 -13 71.5
t-66 23.5q-85 0 -105 -78l-70 10q17 68 69 98.5t117 30.5q172 0 144 -155zM332 531q-8 0 -16 1t-13 2.5t-12 4.5t-10 5t-10.5 6.5t-10.5 6.5q-4 2 -12.5 8t-12 7.5t-9.5 4.5t-11 4t-11 1q-36 0 -39 -49h-48q-8 46 18 79.5t71 33.5q7 0 13.5 -1t11 -1.5t10.5 -3t8.5 -3.5
t9 -5t8 -4.5t9 -5.5t8.5 -6q33 -22 50 -22q31 0 37 52h51q6 -50 -18.5 -82.5t-71.5 -32.5z" />
    </font>
</defs>
</svg>
