<?xml version="1.0" standalone="no"?>
<!DOCTYPE svg PUBLIC "-//W3C//DTD SVG 1.1//EN" "http://www.w3.org/Graphics/SVG/1.1/DTD/svg11.dtd" >
<svg xmlns="http://www.w3.org/2000/svg" xmlns:xlink="http://www.w3.org/1999/xlink" version="1.1">
<metadata>
Created by FontForge 20150102 at Fri Mar 13 11:47:21 2015
 By uniteet7
Copyright (c) 2004-7 by Kris Sowersby. All rights reserved.
</metadata>
<defs>
<font id="NationalSemibold" horiz-adv-x="570" >
  <font-face 
    font-family="NationalSemibold"
    font-weight="700"
    font-stretch="normal"
    units-per-em="1000"
    panose-1="2 0 5 3 0 0 0 2 0 4"
    ascent="800"
    descent="-200"
    x-height="462"
    cap-height="589"
    bbox="-112 -257 1198 999"
    underline-thickness="57"
    underline-position="28"
    unicode-range="U+0020-F778"
  />
<missing-glyph horiz-adv-x="608" 
 />
    <glyph glyph-name="f_b" unicode="fb" horiz-adv-x="831" 
d="M466 261v-75q0 -57 29 -84t68 -27q48 0 79.5 40t31.5 116q0 74 -27 110t-75 36q-44 0 -75 -31.5t-31 -84.5zM347 562q-35 22 -74 22q-74 0 -74 -80v-42h93v-93h-93v-369h-119v369h-68v93h68v38q0 91 51.5 133.5t128.5 42.5q54 0 102 -21l105 13v-293q34 98 148 98
q85 0 132.5 -60.5t47.5 -170.5q0 -113 -53 -183.5t-145 -70.5q-56 0 -91 22t-46 57l-30 -67h-83v562z" />
    <glyph glyph-name="f_f_b" unicode="ffb" horiz-adv-x="1099" 
d="M734 261v-75q0 -57 28.5 -84t67.5 -27q49 0 80.5 40t31.5 116q0 146 -103 146q-43 0 -74 -31.5t-31 -84.5zM734 668v-293q35 98 149 98q85 0 132.5 -60.5t47.5 -170.5q0 -113 -53 -183.5t-145 -70.5q-56 0 -91 22t-46 57l-31 -67h-82v562q-35 22 -74 22q-74 0 -74 -80
v-42h92v-93h-92v-369h-120v369h-148v-369h-119v369h-68v93h68v37q0 88 47 127.5t115 39.5q49 0 91 -18l-19 -101q-27 19 -57 19q-58 0 -58 -68v-36h148v38q0 91 52 133.5t129 42.5q52 0 102 -21z" />
    <glyph glyph-name="f_f_h" unicode="ffh" horiz-adv-x="1075" 
d="M734 668v-294q35 99 143 99q59 0 98 -36t39 -109v-328h-119v286q0 86 -68 86q-93 0 -93 -114v-258h-119v562q-35 22 -74 22q-74 0 -74 -80v-42h92v-93h-92v-369h-120v369h-148v-369h-119v369h-68v93h68v37q0 88 47 127.5t115 39.5q49 0 91 -18l-19 -101q-27 19 -57 19
q-58 0 -58 -68v-36h148v38q0 91 52 133.5t129 42.5q52 0 102 -21z" />
    <glyph glyph-name="f_f_j" unicode="ffj" horiz-adv-x="800" 
d="M467 369v-369h-120v369h-148v-369h-119v369h-68v93h68v37q0 88 47 127.5t115 39.5q49 0 91 -18l-19 -101q-27 19 -57 19q-58 0 -58 -68v-36h148v35q0 94 57.5 136.5t136.5 42.5q80 0 137 -34l-41 -97q-41 30 -89 30q-81 0 -81 -82v-31h267v-461q0 -111 -65.5 -160.5
t-182.5 -42.5v100q68 -8 98.5 17t30.5 99v355h-148z" />
    <glyph glyph-name="f_f_k" unicode="ffk" horiz-adv-x="1051" 
d="M734 668v-380h25l130 174h139l-169 -215l184 -247h-141l-140 196h-28v-196h-119v562q-35 22 -74 22q-74 0 -74 -80v-42h92v-93h-92v-369h-120v369h-148v-369h-119v369h-68v93h68v37q0 88 47 127.5t115 39.5q49 0 91 -18l-19 -101q-27 19 -57 19q-58 0 -58 -68v-36h148v38
q0 91 52 133.5t129 42.5q52 0 102 -21z" />
    <glyph glyph-name="f_h" unicode="fh" horiz-adv-x="808" 
d="M467 668v-294q34 99 142 99q60 0 99 -36t39 -109v-328h-120v286q0 86 -68 86q-92 0 -92 -114v-258h-120v562q-35 22 -74 22q-74 0 -74 -80v-42h93v-93h-93v-369h-119v369h-68v93h68v38q0 91 51.5 133.5t128.5 42.5q54 0 102 -21z" />
    <glyph glyph-name="f_j" unicode="fj" horiz-adv-x="533" 
d="M347 14v355h-148v-369h-119v369h-68v93h68v35q0 94 57 136.5t136 42.5t138 -34l-42 -97q-41 30 -89 30q-81 0 -81 -82v-31h268v-461q0 -111 -66 -160.5t-183 -42.5v100q68 -8 98.5 17t30.5 99z" />
    <glyph glyph-name="f_k" unicode="fk" horiz-adv-x="783" 
d="M467 668v-380h24l130 174h139l-168 -215l183 -247h-141l-140 196h-27v-196h-120v562q-35 22 -74 22q-74 0 -74 -80v-42h93v-93h-93v-369h-119v369h-68v93h68v38q0 91 51.5 133.5t128.5 42.5q54 0 102 -21z" />
    <glyph glyph-name="ff" unicode="ff" horiz-adv-x="575" 
d="M347 369h-148v-369h-119v369h-68v93h68v37q0 88 47 127.5t115 39.5q49 0 91 -18l-19 -101q-27 19 -57 19q-58 0 -58 -68v-36h148v40q0 90 50 131.5t127 42.5q53 0 107 -18l-19 -110q-38 25 -75 25q-70 0 -70 -78v-33h118v-93h-118v-369h-120v369z" />
    <glyph glyph-name="ffi" unicode="ffi" horiz-adv-x="800" 
d="M347 462v35q0 94 57.5 136.5t136.5 42.5q80 0 137 -34l-41 -97q-41 30 -89 30q-81 0 -81 -82v-31h267v-462h-119v369h-148v-369h-120v369h-148v-369h-119v369h-68v93h68v37q0 88 47 127.5t115 39.5q49 0 91 -18l-19 -101q-27 19 -57 19q-58 0 -58 -68v-36h148z" />
    <glyph glyph-name="ffl" unicode="ffl" horiz-adv-x="837" 
d="M347 462v38q0 91 52 133.5t129 42.5q52 0 102 -21l104 13v-532q0 -41 42 -41q20 0 35 7l-5 -100q-39 -11 -70 -11q-53 0 -87 27.5t-34 84.5v459q-35 22 -74 22q-74 0 -74 -80v-42h92v-93h-92v-369h-120v369h-148v-369h-119v369h-68v93h68v37q0 88 47 127.5t115 39.5
q49 0 91 -18l-19 -101q-27 19 -57 19q-58 0 -58 -68v-36h148z" />
    <glyph glyph-name="fi" unicode="fi" horiz-adv-x="533" 
d="M80 369h-68v93h68v35q0 94 57 136.5t136 42.5t138 -34l-42 -97q-41 30 -89 30q-81 0 -81 -82v-31h268v-462h-120v369h-148v-369h-119v369z" />
    <glyph glyph-name="fl" unicode="fl" horiz-adv-x="569" 
d="M543 102l-5 -100q-39 -11 -70 -11q-53 0 -87 27.5t-34 84.5v459q-35 22 -74 22q-74 0 -74 -80v-42h93v-93h-93v-369h-119v369h-68v93h68v38q0 91 51.5 133.5t128.5 42.5q54 0 102 -21l105 13v-532q0 -41 41 -41q20 0 35 7z" />
    <glyph glyph-name=".notdef" horiz-adv-x="608" 
 />
    <glyph glyph-name=".null" horiz-adv-x="0" 
 />
    <glyph glyph-name="nonmarkingreturn" horiz-adv-x="333" 
 />
    <glyph glyph-name="space" unicode=" " horiz-adv-x="221" 
 />
    <glyph glyph-name="exclam" unicode="!" horiz-adv-x="238" 
d="M46 589h147l-34 -399h-80zM43 67q0 32 21.5 52t54.5 20t55.5 -20t22.5 -52t-22.5 -52t-55.5 -20t-54.5 20t-21.5 52z" />
    <glyph glyph-name="quotedbl" unicode="&#x22;" horiz-adv-x="393" 
d="M63 412v256h120l-48 -256h-72zM230 412v256h120l-48 -256h-72z" />
    <glyph glyph-name="numbersign" unicode="#" horiz-adv-x="632" 
d="M578 129h-166l-39 -129h-87l39 129h-95l-40 -129h-87l39 129h-108v83h133l24 79h-137v83h162l33 107h90l-33 -107h93l33 107h89l-33 -107h110v-83h-136l-24 -79h140v-83zM280 291l-25 -79h95l24 79h-94z" />
    <glyph glyph-name="dollar" unicode="$" horiz-adv-x="477" 
d="M219 -106v95q-161 6 -181 123l97 35q15 -64 84 -75v119l-38 8q-126 28 -126 143q0 73 45.5 108.5t118.5 41.5v82h50v-82q74 -4 116 -37t46 -95l-106 -13q-5 50 -56 61v-120l28 -5q140 -24 140 -150q0 -68 -45.5 -103t-122.5 -41v-95h-50zM327 121q0 24 -13 38t-45 21
v-108q58 7 58 49zM163 355q0 -47 56 -58v112q-56 -8 -56 -54z" />
    <glyph glyph-name="percent" unicode="%" horiz-adv-x="876" 
d="M178 229q-74 0 -111.5 50.5t-37.5 133.5q0 81 39.5 132.5t109.5 51.5t109.5 -51.5t39.5 -132.5q0 -83 -38 -133.5t-111 -50.5zM178 519q-29 0 -44.5 -29t-15.5 -79q0 -48 16 -78t44 -30t44 30t16 78q0 50 -15.5 79t-44.5 29zM247 0l305 589h75l-307 -589h-73zM699 -7
q-74 0 -111.5 50.5t-37.5 133.5q0 81 39.5 132.5t109.5 51.5t109.5 -51.5t39.5 -132.5q0 -83 -38 -133.5t-111 -50.5zM699 283q-29 0 -44.5 -29t-15.5 -79q0 -48 16 -78t44 -30t44 30t16 78q0 50 -15.5 79t-44.5 29z" />
    <glyph glyph-name="ampersand" unicode="&#x26;" horiz-adv-x="571" 
d="M564 63l-86 -77l-70 70q-77 -68 -199 -68q-82 0 -137.5 39.5t-55.5 118.5q0 56 33.5 98.5t101.5 61.5l-30 30q-57 55 -57 123t50 105t129 37q77 0 125.5 -37t48.5 -103q0 -102 -125 -137l119 -117q21 38 23 96l99 -34q-10 -76 -51 -129zM135 158q0 -37 25.5 -59.5
t66.5 -22.5q73 0 114 45l-141 139q-33 -19 -49 -42t-16 -60zM243 520q-27 0 -43.5 -15.5t-16.5 -39.5q0 -29 31 -62l36 -37q56 33 56 92q0 62 -63 62z" />
    <glyph glyph-name="quotesingle" unicode="'" horiz-adv-x="226" 
d="M63 412v256h120l-48 -256h-72z" />
    <glyph glyph-name="parenleft" unicode="(" horiz-adv-x="354" 
d="M174 233q0 -130 43 -226t129 -209h-128q-74 95 -117 195.5t-43 239.5t43 239.5t117 195.5h128q-86 -113 -129 -209t-43 -226z" />
    <glyph glyph-name="parenright" unicode=")" horiz-adv-x="354" 
d="M179 233q0 130 -42.5 226.5t-128.5 208.5h128q74 -95 117 -195.5t43 -239.5t-43 -239.5t-117 -195.5h-128q86 112 128.5 208.5t42.5 226.5z" />
    <glyph glyph-name="asterisk" unicode="*" horiz-adv-x="393" 
d="M243 596l-17 -104l95 47l27 -84l-105 -17l76 -77l-75 -54l-47 95l-49 -95l-72 54l74 77l-105 17l29 83l94 -46l-17 104h92z" />
    <glyph glyph-name="plus" unicode="+" horiz-adv-x="498" 
d="M45 282h168v163h68v-163h172v-68h-172v-177h-68v177h-168v68z" />
    <glyph glyph-name="comma" unicode="," horiz-adv-x="288" 
d="M226 45q0 -159 -175 -164v51q90 10 90 75q-34 -5 -59 13t-25 54q0 35 22.5 54t56.5 19q39 0 64.5 -28t25.5 -74z" />
    <glyph glyph-name="hyphen" unicode="-" horiz-adv-x="370" 
d="M64 208v100h242v-100h-242z" />
    <glyph glyph-name="period" unicode="." horiz-adv-x="290" 
d="M65 73q0 35 23 58.5t56 23.5q35 0 58 -23.5t23 -58.5q0 -33 -23.5 -55.5t-57.5 -22.5q-33 0 -56 22.5t-23 55.5z" />
    <glyph glyph-name="slash" unicode="/" horiz-adv-x="419" 
d="M10 -203l273 871h106l-276 -871h-103z" />
    <glyph glyph-name="zero" unicode="0" horiz-adv-x="584" 
d="M292 -12q-115 0 -181.5 71.5t-66.5 181.5q0 109 66.5 180.5t181.5 71.5t181.5 -71.5t66.5 -180.5q0 -110 -66.5 -181.5t-181.5 -71.5zM292 388q-62 0 -97 -41.5t-35 -107.5q0 -67 35 -108.5t97 -41.5q63 0 98 41.5t35 108.5q0 66 -35 107.5t-98 41.5z" />
    <glyph glyph-name="one" unicode="1" horiz-adv-x="361" 
d="M269 0h-113v372l-136 -19v97l249 39v-489z" />
    <glyph glyph-name="two" unicode="2" horiz-adv-x="468" 
d="M428 99v-99h-389v85q141 71 197 124t56 110q0 34 -19 52.5t-52 18.5q-69 0 -76 -88l-110 26q11 83 64.5 124t133.5 41q77 0 126.5 -43t49.5 -122q0 -85 -58 -141.5t-158 -83.5v-4h235z" />
    <glyph glyph-name="three" unicode="3" horiz-adv-x="467" 
d="M258 190v-5q76 -7 117 -49.5t41 -108.5q0 -78 -57.5 -121.5t-153.5 -43.5q-84 0 -137.5 36.5t-64.5 103.5l113 38q11 -88 95 -88q40 0 64 20.5t24 59.5q0 103 -161 110v85q88 6 117.5 32.5t29.5 70.5q0 31 -19.5 49t-49.5 18q-32 0 -53 -19.5t-25 -58.5l-112 30
q12 67 64 105.5t132 38.5q81 0 132.5 -39t51.5 -114q0 -63 -37 -102t-111 -48z" />
    <glyph glyph-name="four" unicode="4" horiz-adv-x="548" 
d="M303 -131v164h-285v79l292 369h112v-358h98v-90h-98v-164h-119zM201 123h102v123l5 102h-4q-16 -32 -46 -72l-71 -94q-13 -17 -26.5 -32t-20.5 -21l-8 -6v-4q21 4 69 4z" />
    <glyph glyph-name="five" unicode="5" horiz-adv-x="475" 
d="M75 139l13 342h317v-106h-220l-6 -151q31 25 82 25q77 0 123.5 -49.5t46.5 -135.5q0 -98 -61.5 -150t-156.5 -52q-88 0 -140.5 36t-63.5 103l106 41q5 -46 32.5 -70t70.5 -24q46 0 73.5 28.5t27.5 85.5q0 50 -25.5 75.5t-67.5 25.5q-37 0 -63 -24h-88z" />
    <glyph glyph-name="six" unicode="6" horiz-adv-x="523" 
d="M472 495l-85 -58q-26 67 -98 67q-66 0 -101.5 -63.5t-35.5 -179.5h3q12 55 50.5 84.5t90.5 29.5q86 0 135.5 -53.5t49.5 -133.5q0 -90 -56.5 -145t-156.5 -55q-103 0 -162.5 74t-59.5 211q0 161 69.5 244.5t176.5 83.5q63 0 110 -28t70 -78zM178 181q0 -44 28 -72t68 -28
q42 0 70 28t28 72q0 46 -28 74t-70 28q-40 0 -68 -28t-28 -74z" />
    <glyph glyph-name="seven" unicode="7" horiz-adv-x="481" 
d="M313 375h-184v-73h-101v179h410v-84l-213 -528h-118z" />
    <glyph glyph-name="eight" unicode="8" horiz-adv-x="517" 
d="M258 -12q-102 0 -158 44.5t-56 117.5q0 55 33 94t87 54v5q-54 13 -80.5 50t-26.5 87q0 72 54.5 116.5t146.5 44.5q93 0 147.5 -44.5t54.5 -116.5q0 -50 -26.5 -87t-80.5 -50v-5q54 -15 87 -54t33 -94q0 -73 -56 -117.5t-159 -44.5zM258 517q-40 0 -63 -23.5t-23 -60.5
q0 -43 24.5 -65.5t61.5 -22.5t62 22.5t25 65.5q0 37 -23 60.5t-64 23.5zM258 254q-40 0 -68.5 -23t-28.5 -65q0 -40 26.5 -65.5t70.5 -25.5q45 0 71.5 25.5t26.5 65.5q0 42 -28.5 65t-69.5 23z" />
    <glyph glyph-name="nine" unicode="9" horiz-adv-x="519" 
d="M23 -30l85 57q27 -71 105 -71q56 0 91.5 38.5t49 95.5t13.5 133h-4q-11 -58 -48.5 -88t-92.5 -30q-84 0 -134 53t-50 134q0 90 55.5 145.5t153.5 55.5q110 0 168 -71.5t58 -214.5q0 -167 -69.5 -256t-195.5 -89q-66 0 -114.5 28t-70.5 80zM341 299q0 45 -28 72.5
t-69 27.5q-42 0 -70 -27.5t-28 -72.5q0 -47 28 -75t70 -28q41 0 69 28t28 75z" />
    <glyph glyph-name="colon" unicode=":" horiz-adv-x="290" 
d="M65 73q0 35 23 58.5t56 23.5q35 0 58 -23.5t23 -58.5q0 -33 -23.5 -55.5t-57.5 -22.5q-33 0 -56 22.5t-23 55.5zM65 384q0 35 23 58.5t56 23.5q35 0 58 -23.5t23 -58.5q0 -33 -23.5 -55.5t-57.5 -22.5q-33 0 -56 22.5t-23 55.5z" />
    <glyph glyph-name="semicolon" unicode=";" horiz-adv-x="288" 
d="M226 45q0 -159 -175 -164v51q90 10 90 75q-34 -5 -59 13t-25 54q0 35 22.5 54t56.5 19q39 0 64.5 -28t25.5 -74zM57 384q0 35 23 58.5t56 23.5q35 0 58 -23.5t23 -58.5q0 -33 -23.5 -55.5t-57.5 -22.5q-33 0 -56 22.5t-23 55.5z" />
    <glyph glyph-name="less" unicode="&#x3c;" horiz-adv-x="393" 
d="M346 404l-195 -157l192 -159l-48 -56l-250 215l254 212z" />
    <glyph glyph-name="equal" unicode="=" horiz-adv-x="498" 
d="M453 141h-408v67h408v-67zM453 284h-408v67h408v-67z" />
    <glyph glyph-name="greater" unicode="&#x3e;" horiz-adv-x="393" 
d="M240 247l-194 157l47 55l253 -212l-250 -215l-48 56z" />
    <glyph glyph-name="question" unicode="?" horiz-adv-x="424" 
d="M110 406l-110 39q33 156 210 156q91 0 147 -50.5t56 -130.5q0 -87 -52.5 -128.5t-125.5 -43.5v-68h-104v134h44q56 0 84 22.5t28 74.5q0 42 -23 64.5t-62 22.5q-81 0 -92 -92zM107 67q0 32 21.5 52t54.5 20t55 -20t22 -52t-22 -52t-55 -20t-54.5 20t-21.5 52z" />
    <glyph glyph-name="at" unicode="@" horiz-adv-x="890" 
d="M519 166v75q0 42 -25 63.5t-57 21.5q-36 0 -61 -31t-25 -98q0 -56 23 -87t63 -31q32 0 57 22t25 65zM628 400v-296q0 -51 38 -51q48 0 74.5 54.5t26.5 148.5q0 135 -87.5 206.5t-221.5 71.5q-90 0 -165 -37t-123 -116t-48 -187q0 -160 97.5 -246t259.5 -86q98 0 193 32
l15 -65q-97 -31 -209 -31q-202 1 -317.5 104t-115.5 292q0 178 115.5 290.5t298.5 112.5q182 0 282 -95.5t100 -239.5q0 -274 -199 -274q-110 0 -119 88q-25 -88 -130 -88q-68 0 -113.5 52.5t-45.5 149.5q0 103 46.5 161t132.5 58q87 0 114 -61l27 52h74z" />
    <glyph glyph-name="A" unicode="A" horiz-adv-x="600" 
d="M460 0l-48 136h-229l-46 -136h-127l214 589h152l214 -589h-130zM248 325l-31 -89h160l-31 88q-15 43 -26.5 84t-15.5 60l-4 20h-4q-15 -69 -48 -163z" />
    <glyph glyph-name="B" unicode="B" horiz-adv-x="557" 
d="M382 304v-4q61 -7 95.5 -43.5t34.5 -94.5q0 -76 -52 -119t-157 -43h-224v589h226q89 0 136 -38.5t47 -110.5q0 -55 -28.5 -90t-77.5 -46zM200 339h83q84 0 84 74t-88 74h-79v-148zM200 249v-147h100q89 0 89 76q0 71 -90 71h-99z" />
    <glyph glyph-name="C" unicode="C" horiz-adv-x="578" 
d="M455 182l101 -63q-42 -69 -99 -100t-149 -31q-121 0 -193.5 81t-72.5 225q0 146 75.5 226.5t208.5 80.5q168 0 233 -147l-116 -56q-31 97 -122 97q-72 0 -113 -54t-41 -149q0 -94 39 -145.5t114 -51.5q92 0 135 87z" />
    <glyph glyph-name="D" unicode="D" horiz-adv-x="613" 
d="M200 102h66q86 0 132 45t46 147q0 105 -44.5 149t-125.5 44h-74v-385zM278 0h-199v589h206q131 0 208.5 -70t77.5 -218q0 -155 -80 -228t-213 -73z" />
    <glyph glyph-name="E" unicode="E" horiz-adv-x="513" 
d="M463 105v-105h-384v589h384v-105h-263v-136h232v-102h-232v-141h263z" />
    <glyph glyph-name="F" unicode="F" horiz-adv-x="484" 
d="M200 0h-121v589h372v-105h-251v-154h220v-102h-220v-228z" />
    <glyph glyph-name="G" unicode="G" horiz-adv-x="623" 
d="M316 311h248v-311h-81l-18 69q-20 -39 -64 -60t-98 -21q-119 0 -190 78t-71 226q0 147 76 228t208 81q174 0 233 -147l-116 -56q-30 97 -122 97q-65 0 -109.5 -50.5t-44.5 -153.5q0 -92 37.5 -148t115.5 -56q59 0 93 26t34 71v28h-131v99z" />
    <glyph glyph-name="H" unicode="H" horiz-adv-x="645" 
d="M200 0h-121v589h121v-237h245v237h121v-589h-121v246h-245v-246z" />
    <glyph glyph-name="I" unicode="I" horiz-adv-x="279" 
d="M79 589h121v-589h-121v589z" />
    <glyph glyph-name="J" unicode="J" horiz-adv-x="458" 
d="M275 589h121v-418q0 -95 -55 -139t-144 -44q-139 0 -197 114l91 78q20 -48 44 -70t61 -22q44 0 61.5 26t17.5 80v395z" />
    <glyph glyph-name="K" unicode="K" horiz-adv-x="566" 
d="M552 0h-145l-168 246h-39v-246h-121v589h121v-237h41l154 237h140l-192 -285z" />
    <glyph glyph-name="L" unicode="L" horiz-adv-x="468" 
d="M79 589h121v-484h242v-105h-363v589z" />
    <glyph glyph-name="M" unicode="M" horiz-adv-x="732" 
d="M398 139h-64l-91 158q-14 24 -25 47t-15 34l-4 12h-4q5 -34 5 -102v-288h-121v589h128l120 -223q14 -24 23.5 -44.5t11.5 -29.5l3 -8h4q8 28 38 82l121 223h125v-589h-121v288q0 30 1.5 55.5t2.5 36.5l2 10h-4q-13 -39 -45 -93z" />
    <glyph glyph-name="N" unicode="N" horiz-adv-x="667" 
d="M196 589l216 -302q15 -21 28.5 -43.5t19.5 -34.5l7 -12h4q-4 54 -4 129v263h121v-589h-113l-217 299q-16 23 -31 47t-22 36l-7 13h-4q6 -53 6 -135v-260h-121v589h117z" />
    <glyph glyph-name="O" unicode="O" horiz-adv-x="634" 
d="M317 -12q-129 0 -202 80t-73 226q0 147 73 227t202 80t202 -80t73 -227q0 -146 -73 -226t-202 -80zM317 493q-73 0 -111 -52.5t-38 -147.5t38 -147.5t111 -52.5t110.5 52.5t37.5 147.5t-38 147.5t-110 52.5z" />
    <glyph glyph-name="P" unicode="P" horiz-adv-x="520" 
d="M200 487v-189h75q50 0 72 23.5t22 69.5q0 96 -94 96h-75zM200 0h-121v589h199q110 0 161 -49t51 -144q0 -93 -52 -145t-148 -52h-90v-199z" />
    <glyph glyph-name="Q" unicode="Q" horiz-adv-x="634" 
d="M526 -55l-35 -105q-190 -1 -244 155q-97 20 -151 97t-54 202q0 147 73 227t202 80t202 -80t73 -227q0 -131 -59.5 -209.5t-165.5 -92.5q57 -56 159 -47zM317 493q-73 0 -111 -52.5t-38 -147.5t38 -147.5t111 -52.5t110.5 52.5t37.5 147.5t-38 147.5t-110 52.5z" />
    <glyph glyph-name="R" unicode="R" horiz-adv-x="571" 
d="M542 0h-135q-19 17 -29 59l-23 93q-9 40 -29.5 53t-60.5 13h-65v-218h-121v589h223q209 0 209 -176q0 -67 -36 -104.5t-95 -42.5v-3q42 -6 65 -26t34 -62l30 -112q12 -41 33 -63zM200 487v-168h94q93 0 93 84t-92 84h-95z" />
    <glyph glyph-name="S" unicode="S" horiz-adv-x="503" 
d="M24 135l111 44q9 -46 39.5 -72t75.5 -26q40 0 63.5 17t23.5 50q0 32 -22 51t-84 40q-96 31 -140.5 73t-44.5 116q0 90 58.5 132t142.5 42q200 0 215 -154l-120 -28q-4 40 -30 61.5t-63 21.5q-34 0 -55.5 -17t-21.5 -48q0 -33 25 -51t86 -38q93 -31 136 -71t43 -118
q0 -88 -61.5 -130t-159.5 -42q-181 0 -217 147z" />
    <glyph glyph-name="T" unicode="T" horiz-adv-x="471" 
d="M295 0h-121v484h-164v105h451v-105h-166v-484z" />
    <glyph glyph-name="U" unicode="U" horiz-adv-x="599" 
d="M416 589h121v-393q0 -57 -19 -98.5t-53 -64.5t-75 -34t-90 -11q-105 0 -171.5 49t-66.5 159v393h121v-360q0 -71 27 -105.5t90 -34.5q62 0 89 34.5t27 105.5v360z" />
    <glyph glyph-name="V" unicode="V" horiz-adv-x="558" 
d="M140 589l105 -336q12 -38 20.5 -76.5t11.5 -58.5l3 -19h4q8 70 33 153l104 337h127l-195 -589h-149l-194 589h130z" />
    <glyph glyph-name="W" unicode="W" horiz-adv-x="857" 
d="M504 589l79 -339q9 -39 16.5 -80t10.5 -62l3 -22h4q8 78 26 163l75 340h123l-137 -589h-175l-75 310q-9 38 -15 78.5t-7 61.5l-2 22h-4q-4 -76 -25 -163l-77 -309h-171l-137 589h129l76 -338q8 -39 15 -80t10 -63l3 -22h4q8 79 28 164l79 339h144z" />
    <glyph glyph-name="X" unicode="X" 
d="M421 0l-93 140q-17 27 -27.5 47t-12.5 27l-2 6h-4q-5 -20 -43 -80l-89 -140h-140l202 297l-193 292h144l78 -124q19 -31 30.5 -52.5t12.5 -28.5l2 -6h4q2 17 43 87l75 124h135l-184 -285l201 -304h-139z" />
    <glyph glyph-name="Y" unicode="Y" horiz-adv-x="525" 
d="M148 589l76 -156q16 -33 27 -62.5t13 -42.5l3 -13h4q6 45 42 118l74 156h128l-186 -384v-205h-121v205l-198 384h138z" />
    <glyph glyph-name="Z" unicode="Z" horiz-adv-x="500" 
d="M467 505l-232 -327q-16 -22 -31 -40t-22 -26l-8 -7v-4q27 4 82 4h218v-105h-448v84l228 327q15 22 30.5 40t23.5 25l7 8v4q-28 -4 -82 -4h-198v105h432v-84z" />
    <glyph glyph-name="bracketleft" unicode="[" horiz-adv-x="357" 
d="M197 579v-693h125v-89h-243v871h243v-89h-125z" />
    <glyph glyph-name="backslash" unicode="\" horiz-adv-x="419" 
d="M135 668l274 -871h-104l-275 871h105z" />
    <glyph glyph-name="bracketright" unicode="]" horiz-adv-x="357" 
d="M160 -114v693h-125v89h243v-871h-243v89h125z" />
    <glyph glyph-name="asciicircum" unicode="^" horiz-adv-x="523" 
d="M373 321l-63 131q-20 41 -31.5 74t-13.5 46l-2 13h-4q-3 -43 -48 -132l-67 -132h-114l180 347h104l179 -347h-120z" />
    <glyph glyph-name="underscore" unicode="_" horiz-adv-x="481" 
d="M50 -112v90h381v-90h-381z" />
    <glyph glyph-name="grave" unicode="`" horiz-adv-x="385" 
d="M304 527h-108l-116 151h152z" />
    <glyph glyph-name="a" unicode="a" horiz-adv-x="494" 
d="M294 143v54q-144 4 -144 -70q0 -24 15.5 -38.5t43.5 -14.5q33 0 59 18t26 51zM413 324v-194q0 -43 34 -43q12 0 28 7v-88q-24 -14 -67 -14q-88 0 -105 73q-30 -77 -135 -77q-62 0 -99.5 33.5t-37.5 92.5q0 79 65 118t198 32v49q0 69 -63 69q-62 0 -67 -70l-117 21
q5 70 58 105t132 35q83 0 129.5 -37t46.5 -112z" />
    <glyph glyph-name="b" unicode="b" horiz-adv-x="549" 
d="M185 260v-74q0 -57 28.5 -84t67.5 -27q49 0 80.5 40t31.5 116q0 146 -103 146q-44 0 -74.5 -31.5t-30.5 -85.5zM178 67l-30 -67h-82v668h119v-293q35 98 149 98q85 0 132 -60t47 -171q0 -113 -52.5 -183.5t-144.5 -70.5q-56 0 -91 22t-47 57z" />
    <glyph glyph-name="c" unicode="c" horiz-adv-x="466" 
d="M338 153l105 -31q-12 -67 -63.5 -100.5t-126.5 -33.5q-99 0 -158 63.5t-59 177.5t59.5 179t160.5 65q79 0 127 -40t53 -109l-102 -27q-12 81 -80 81q-49 0 -75.5 -39.5t-26.5 -108.5t28 -109t76 -40q66 0 82 72z" />
    <glyph glyph-name="d" unicode="d" horiz-adv-x="549" 
d="M365 189v92q0 51 -29 77t-70 26q-48 0 -79 -38t-31 -119q0 -70 29 -108.5t80 -38.5q39 0 69.5 29t30.5 80zM364 401v267h119v-668h-104l-14 80q-26 -92 -145 -92q-79 0 -131.5 61.5t-52.5 172.5q0 118 54 184.5t152 66.5q44 0 78 -20t44 -52z" />
    <glyph glyph-name="e" unicode="e" horiz-adv-x="485" 
d="M257 80q67 0 88 67l102 -33q-16 -66 -68 -96t-126 -30q-98 0 -157.5 63t-59.5 174q0 117 59 182.5t161 65.5q92 0 141.5 -55.5t49.5 -146.5q0 -37 -7 -62h-289q2 -59 29.5 -94t76.5 -35zM154 280h178q1 7 1 17q0 38 -21.5 62t-60.5 24q-41 0 -66.5 -27.5t-30.5 -75.5z
" />
    <glyph glyph-name="f" unicode="f" horiz-adv-x="307" 
d="M80 369h-68v93h68v40q0 91 49 132.5t127 41.5q57 0 107 -21l-19 -100q-35 20 -77 20q-68 0 -68 -77v-36h118v-93h-118v-369h-119v369z" />
    <glyph glyph-name="g" unicode="g" horiz-adv-x="496" 
d="M236 473q80 0 132 -32q15 13 22 27t13 43l96 -32q-4 -32 -27 -54.5t-54 -31.5q21 -33 21 -83q0 -77 -58 -118.5t-147 -41.5q-38 0 -57 7q-25 -14 -25 -41q0 -32 41 -32h125q78 0 120.5 -35.5t42.5 -97.5q0 -61 -40.5 -99t-95.5 -50.5t-127 -12.5q-211 0 -211 118
q0 88 121 97q-33 3 -52 25.5t-19 53.5q0 29 18.5 53t55.5 34q-94 39 -94 140q0 78 54 120.5t145 42.5zM117 -73q0 -57 114 -57q71 0 104 14t33 47q0 46 -64 46h-109q-78 0 -78 -50zM157 310q0 -36 20.5 -58t58.5 -22q39 0 60 20.5t21 59.5q0 40 -21 60.5t-60 19.5
q-38 0 -58.5 -21t-20.5 -59z" />
    <glyph glyph-name="h" unicode="h" horiz-adv-x="526" 
d="M185 668v-294q35 99 143 99q59 0 98 -36t39 -109v-328h-119v286q0 86 -68 86q-93 0 -93 -114v-258h-119v668h119z" />
    <glyph glyph-name="i" unicode="i" horiz-adv-x="251" 
d="M51 605q0 33 21.5 52.5t52.5 19.5q33 0 55 -19.5t22 -52.5q0 -32 -22 -51t-55 -19q-31 0 -52.5 19t-21.5 51zM66 462h119v-462h-119v462z" />
    <glyph glyph-name="j" unicode="j" horiz-adv-x="251" 
d="M66 462h119v-461q0 -111 -65.5 -160.5t-182.5 -42.5v100q67 -8 98 17t31 99v448zM50 605q0 33 21 52.5t53 19.5q34 0 55.5 -19t21.5 -53q0 -32 -21.5 -51t-55.5 -19q-32 0 -53 19t-21 51z" />
    <glyph glyph-name="k" unicode="k" horiz-adv-x="502" 
d="M310 247l184 -247h-141l-140 196h-28v-196h-119v668h119v-380h25l129 174h140z" />
    <glyph glyph-name="l" unicode="l" horiz-adv-x="280" 
d="M254 102l-5 -100q-41 -11 -70 -11q-53 0 -87 27.5t-34 84.5v565h119v-532q0 -41 42 -41q18 0 35 7z" />
    <glyph glyph-name="m" unicode="m" horiz-adv-x="789" 
d="M446 372q17 51 56.5 76t91.5 25q61 0 97.5 -35.5t36.5 -107.5v-330h-119v286q0 86 -67 86q-37 0 -61 -27t-24 -87v-258h-120v286q0 86 -66 86q-37 0 -61.5 -27.5t-24.5 -86.5v-258h-119v462h100l14 -89q36 100 143 100t123 -101z" />
    <glyph glyph-name="n" unicode="n" horiz-adv-x="526" 
d="M166 462l14 -89q36 100 148 100q59 0 98 -36t39 -109v-328h-119v286q0 86 -68 86q-93 0 -93 -114v-258h-119v462h100z" />
    <glyph glyph-name="o" unicode="o" horiz-adv-x="510" 
d="M255 -12q-101 0 -160 64.5t-59 180.5t59 178t160 62t160 -62t59 -178t-59 -180.5t-160 -64.5zM255 377q-101 0 -101 -145q0 -151 101 -151q102 0 102 151q0 145 -102 145z" />
    <glyph glyph-name="p" unicode="p" horiz-adv-x="549" 
d="M185 257v-71q0 -57 28.5 -84t67.5 -27q49 0 80.5 40t31.5 116q0 146 -103 146q-44 0 -74.5 -32t-30.5 -88zM185 61v-264h-119v665h101l15 -89q19 52 60 76t92 24q85 0 132 -60t47 -171q0 -114 -52.5 -184t-145.5 -70q-51 0 -85 21t-45 52z" />
    <glyph glyph-name="q" unicode="q" horiz-adv-x="549" 
d="M365 189v92q0 51 -29 77t-70 26q-48 0 -79 -38t-31 -119q0 -70 29 -108.5t80 -38.5q39 0 69.5 29t30.5 80zM371 402l31 60h81v-665h-118v283q-26 -92 -145 -92q-79 0 -131.5 61.5t-52.5 172.5q0 118 54 184.5t152 66.5q99 0 129 -71z" />
    <glyph glyph-name="r" unicode="r" horiz-adv-x="381" 
d="M367 472l-12 -132q-22 6 -48 6q-49 0 -85.5 -31.5t-36.5 -95.5v-219h-119v462h103l14 -126q34 144 184 136z" />
    <glyph glyph-name="s" unicode="s" horiz-adv-x="436" 
d="M21 106l100 37q13 -71 93 -71q73 0 73 47q0 22 -14.5 35t-48.5 22l-68 16q-118 29 -118 135q0 53 27.5 87t66.5 46.5t90 12.5q166 0 177 -128l-113 -16q-3 29 -20 42t-50 13q-29 0 -45.5 -12t-16.5 -34q0 -39 51 -49l65 -15q134 -30 134 -145q0 -73 -52 -107t-139 -34
q-86 0 -133 27.5t-59 90.5z" />
    <glyph glyph-name="t" unicode="t" horiz-adv-x="370" 
d="M334 117l21 -100q-55 -29 -132 -29q-146 0 -146 143v238h-67v93h68v98l119 14v-112h137v-93h-138v-212q0 -67 58 -67q40 0 80 27z" />
    <glyph glyph-name="u" unicode="u" horiz-adv-x="523" 
d="M354 0l-14 85q-27 -97 -143 -97q-139 0 -139 150v324h119v-294q0 -90 70 -90q38 0 64.5 32.5t26.5 95.5v256h119v-462h-103z" />
    <glyph glyph-name="v" unicode="v" horiz-adv-x="467" 
d="M166 0l-162 462h127l69 -225q11 -35 19 -72.5t11 -56.5l3 -20h4q9 70 33 149l70 225h123l-164 -462h-133z" />
    <glyph glyph-name="w" unicode="w" horiz-adv-x="705" 
d="M410 462l55 -202q12 -41 19.5 -84t9.5 -66l2 -22h4q4 77 26 171l50 203h119l-122 -462h-142l-51 183q-9 35 -15.5 72t-8.5 57l-2 19h-4q-5 -68 -25 -149l-46 -182h-141l-128 462h122l53 -203q11 -41 18 -84t9 -65l2 -22h4q5 80 28 172l52 202h112z" />
    <glyph glyph-name="x" unicode="x" horiz-adv-x="472" 
d="M332 0l-57 92q-17 27 -26.5 47.5t-10.5 27.5l-2 7h-4q-4 -22 -41 -82l-56 -92h-128l150 231l-141 231h138l42 -76q16 -31 26.5 -53t12.5 -29l2 -7h4q4 21 42 89l45 76h129l-143 -227l151 -235h-133z" />
    <glyph glyph-name="y" unicode="y" horiz-adv-x="469" 
d="M134 462l67 -225q12 -40 20 -77t11 -54l2 -17h4q7 58 34 148l68 225h125l-178 -502q-36 -99 -82.5 -133.5t-121.5 -34.5q-35 0 -77 11l16 104q27 -15 60 -15q34 0 55.5 18.5t37.5 63.5l-171 488h130z" />
    <glyph glyph-name="z" unicode="z" horiz-adv-x="416" 
d="M381 386l-158 -219q-16 -22 -31 -40t-22 -25l-8 -8v-4q27 4 82 4h146v-94h-364v71l154 222q16 22 31 40t23 25l7 8v4q-27 -4 -82 -4h-124v96h346v-76z" />
    <glyph glyph-name="braceleft" unicode="{" horiz-adv-x="412" 
d="M154 236v-4q45 -5 70 -28.5t25 -78.5v-168q0 -37 11 -54t41 -17q32 0 63 17l20 -84q-47 -25 -112 -25q-135 0 -135 144v173q0 45 -18 61t-51 16h-41v91h41q33 0 51 16.5t18 60.5v174q0 143 135 143q68 0 112 -25l-20 -84q-31 17 -63 17q-29 0 -40.5 -17t-11.5 -53v-168
q0 -58 -25 -80.5t-70 -26.5z" />
    <glyph glyph-name="bar" unicode="|" horiz-adv-x="297" 
d="M197 -203h-97v871h97v-871z" />
    <glyph glyph-name="braceright" unicode="}" horiz-adv-x="412" 
d="M257 232v4q-45 4 -70 26.5t-25 80.5v168q0 36 -11 53t-40 17q-33 0 -63 -17l-20 84q43 25 112 25q135 0 135 -143v-174q0 -44 18 -60.5t51 -16.5h41v-91h-41q-33 0 -51 -16t-18 -61v-173q0 -144 -135 -144q-66 0 -112 25l20 84q30 -17 63 -17q29 0 40 17t11 54v168
q0 55 25.5 78.5t69.5 28.5z" />
    <glyph glyph-name="asciitilde" unicode="~" horiz-adv-x="497" 
d="M323 195q-33 0 -74 23q-44 25 -58 25q-38 0 -31 -48h-68q-25 54 1.5 100.5t81.5 46.5q31 0 72 -23q44 -26 59 -26q34 0 27 47h71q24 -58 0.5 -101.5t-81.5 -43.5z" />
    <glyph glyph-name="nbspace" unicode="&#xa0;" horiz-adv-x="153" 
 />
    <glyph glyph-name="exclamdown" unicode="&#xa1;" horiz-adv-x="238" 
d="M193 -126h-147l33 399h80zM43 396q0 32 21.5 52t54.5 20t55.5 -20t22.5 -52t-22.5 -52t-55.5 -20t-54.5 20t-21.5 52z" />
    <glyph glyph-name="cent" unicode="&#xa2;" horiz-adv-x="516" 
d="M253 -106v95q-96 8 -152.5 71.5t-56.5 178.5q0 112 55.5 177t153.5 75v83h50v-82q133 -6 183 -124l-105 -54q-24 71 -78 81v-309q57 7 87 71l96 -61q-57 -100 -183 -107v-95h-50zM166 242q0 -65 22.5 -104.5t64.5 -49.5v306q-87 -21 -87 -152z" />
    <glyph glyph-name="sterling" unicode="&#xa3;" horiz-adv-x="515" 
d="M354 196h-119q1 -4 1 -12q0 -66 -42 -86h139q28 0 46.5 9.5t27.5 38.5l84 -48q-8 -47 -45.5 -72.5t-92.5 -25.5h-301v99h31q25 0 37 18t12 43q0 14 -6 36h-88v64h60q-14 35 -14 80q0 71 53 112t127 41q159 0 178 -135l-106 -25q-13 66 -72 66q-71 0 -71 -69q0 -26 22 -70
h139v-64z" />
    <glyph glyph-name="currency" unicode="&#xa4;" horiz-adv-x="452" 
d="M322 423l67 67l33 -33l-67 -67q27 -41 27 -100q0 -56 -24 -96l64 -63l-33 -33l-61 61q-38 -31 -101 -31q-62 0 -102 32l-62 -62l-33 33l65 65q-22 39 -22 94q0 60 26 98l-69 69l33 33l67 -68q40 28 97 28t95 -27zM227 384q-58 0 -58 -94q0 -96 58 -96t58 96q0 94 -58 94z
" />
    <glyph glyph-name="yen" unicode="&#xa5;" horiz-adv-x="545" 
d="M493 141h-156v-141h-121v141h-158v52h138l-28 48h-110v52h81l-107 188h137l70 -134q15 -28 24.5 -53t10.5 -36l2 -10h4q3 34 35 98l69 135h129l-103 -188h83v-52h-111l-26 -48h137v-52z" />
    <glyph glyph-name="brokenbar" unicode="&#xa6;" horiz-adv-x="297" 
d="M197 278h-97v390h97v-390zM197 -202h-97v389h97v-389z" />
    <glyph glyph-name="section" unicode="&#xa7;" horiz-adv-x="463" 
d="M40 25l101 35q16 -71 94 -71q29 0 47.5 12t18.5 34q0 37 -64 55l-72 21q-57 17 -82.5 45t-25.5 74q0 80 80 102q-40 17 -59.5 51.5t-19.5 71.5q0 77 51.5 111.5t128.5 34.5q173 0 180 -128l-113 -16q-3 55 -69 55q-59 0 -59 -46q0 -18 11.5 -30.5t42.5 -21.5l68 -19
q62 -18 93 -48t31 -82q0 -42 -22.5 -69t-59.5 -33q37 -16 58.5 -48.5t21.5 -72.5q0 -72 -52 -106t-138 -34q-172 0 -191 123zM303 244q0 24 -22 37.5t-70 27.5q-37 -15 -37 -51q0 -26 19.5 -38.5t71.5 -27.5q16 6 27 19.5t11 32.5z" />
    <glyph glyph-name="dieresis" unicode="&#xa8;" horiz-adv-x="511" 
d="M80 596q0 32 20 51t49 19q31 0 51 -18.5t20 -51.5q0 -32 -20 -51t-51 -19q-29 0 -49 19t-20 51zM291 595q0 33 19.5 51.5t49.5 18.5q31 0 50.5 -18.5t19.5 -51.5q0 -32 -19.5 -50.5t-50.5 -18.5q-29 0 -49 19t-20 50z" />
    <glyph glyph-name="copyright" unicode="&#xa9;" horiz-adv-x="703" 
d="M438 239l81 -56q-29 -43 -68.5 -63t-100.5 -20q-83 0 -134 51t-51 144t52.5 144t142.5 51q114 0 159 -96l-89 -45q-20 59 -73 59q-40 0 -64.5 -30t-24.5 -82t23.5 -81.5t65.5 -29.5q52 0 81 54zM45 294q0 132 89 219.5t217 87.5t217.5 -87.5t89.5 -219.5t-89.5 -219
t-217.5 -87t-217 87t-89 219zM76 294q0 -120 80.5 -198.5t196.5 -78.5q115 0 195 78.5t80 198.5t-80 199t-195 79q-116 0 -196.5 -79t-80.5 -199z" />
    <glyph glyph-name="ordfeminine" unicode="&#xaa;" horiz-adv-x="381" 
d="M210 381v39q-82 0 -82 -48q0 -33 34 -33q19 0 33.5 11t14.5 31zM306 501v-127q0 -21 18 -21q15 0 24 6v-65q-19 -12 -57 -12q-60 0 -77 44q-21 -47 -89 -47q-41 0 -65.5 21.5t-24.5 60.5q0 105 175 102v28q0 43 -37 43q-17 0 -27 -12t-12 -29l-89 14q4 47 41 70.5
t95 23.5q55 0 90 -24t35 -76z" />
    <glyph glyph-name="guillemotleft" unicode="&#xab;" horiz-adv-x="528" 
d="M350 236v-4q20 -6 53 -43l94 -108l-60 -58l-194 212l194 213l60 -61l-95 -107q-15 -16 -28 -27t-18 -14zM137 236v-4q20 -6 53 -43l95 -108l-61 -58l-194 212l194 213l61 -61l-95 -107q-15 -16 -28.5 -27t-19.5 -14z" />
    <glyph glyph-name="logicalnot" unicode="&#xac;" horiz-adv-x="504" 
d="M382 247h-334v68h408v-192h-74v124z" />
    <glyph glyph-name="uni00AD" unicode="&#xad;" horiz-adv-x="352" 
d="M64 208v100h224v-100h-224z" />
    <glyph glyph-name="registered" unicode="&#xae;" horiz-adv-x="703" 
d="M525 121h-108q-14 13 -21 40l-10 38q-10 39 -57 39h-18v-117h-96v361h151q140 0 140 -116q0 -45 -27 -69t-70 -28q32 -5 48.5 -16t25.5 -35l18 -54q7 -25 24 -43zM311 403v-92h36q65 0 65 44q0 48 -57 48h-44zM45 294q0 132 89 219.5t217 87.5t217.5 -87.5t89.5 -219.5
t-89.5 -219t-217.5 -87t-217 87t-89 219zM76 294q0 -120 80.5 -198.5t196.5 -78.5q115 0 195 78.5t80 198.5t-80 199t-195 79q-116 0 -196.5 -79t-80.5 -199z" />
    <glyph glyph-name="macron" unicode="&#xaf;" horiz-adv-x="443" 
d="M363 545h-283v97h283v-97z" />
    <glyph glyph-name="degree" unicode="&#xb0;" horiz-adv-x="265" 
d="M28 496q0 44 29 74.5t75 30.5q45 0 75 -31t30 -74q0 -44 -30 -74t-75 -30q-46 0 -75 30t-29 74zM90 496q0 -19 11.5 -32t30.5 -13t30.5 13t11.5 32q0 20 -11.5 33t-30.5 13t-30.5 -13t-11.5 -33z" />
    <glyph glyph-name="plusminus" unicode="&#xb1;" horiz-adv-x="498" 
d="M45 353h168v127h68v-127h172v-68h-172v-141h-68v141h-168v68zM453 30h-408v68h408v-68z" />
    <glyph glyph-name="twosuperior" unicode="&#xb2;" horiz-adv-x="325" 
d="M301 306v-70h-274v60q95 68 131 104t36 74q0 45 -44 45q-23 0 -38 -17t-15 -47l-75 31q2 46 38 78.5t100 32.5q57 0 92.5 -29t35.5 -83q0 -103 -147 -175v-4h160z" />
    <glyph glyph-name="threesuperior" unicode="&#xb3;" horiz-adv-x="322" 
d="M193 417v-2q98 -7 98 -90q0 -46 -38 -71t-105 -25q-56 0 -93 21.5t-45 59.5l75 30q11 -46 64 -46q48 0 48 38q0 51 -94 52v54q87 2 87 50q0 38 -40 38q-43 0 -51 -41l-73 27q7 40 42.5 62.5t89.5 22.5t87.5 -23.5t33.5 -69.5q0 -72 -86 -87z" />
    <glyph glyph-name="acute" unicode="&#xb4;" horiz-adv-x="385" 
d="M189 527h-107l71 151h152z" />
    <glyph glyph-name="mu" unicode="&#xb5;" horiz-adv-x="531" 
d="M360 0l-14 87q-24 -99 -117 -99q-31 0 -46 13v-204h-119v665h119v-289q0 -89 67 -89q35 0 64.5 28t29.5 85v265h119v-462h-103z" />
    <glyph glyph-name="paragraph" unicode="&#xb6;" horiz-adv-x="548" 
d="M430 492v-506q0 -77 -43 -113t-114 -36q-60 0 -109 27l24 105q34 -30 77 -30q49 0 49 59v176h-49q-107 0 -168 50.5t-61 150.5q0 214 259 214h214v-97h-79z" />
    <glyph glyph-name="periodcentered" unicode="&#xb7;" horiz-adv-x="290" 
d="M65 264q0 35 23 58.5t56 23.5q35 0 58 -23.5t23 -58.5q0 -33 -23.5 -55.5t-57.5 -22.5q-33 0 -56 22.5t-23 55.5z" />
    <glyph glyph-name="periodcentered" unicode="&#x22c5;" horiz-adv-x="290" 
d="M65 264q0 35 23 58.5t56 23.5q35 0 58 -23.5t23 -58.5q0 -33 -23.5 -55.5t-57.5 -22.5q-33 0 -56 22.5t-23 55.5z" />
    <glyph glyph-name="cedilla" unicode="&#xb8;" horiz-adv-x="366" 
d="M286 -120q0 -45 -31 -68t-80 -23q-70 0 -100 37l24 59q29 -35 65 -35q32 0 32 29q0 36 -56 40l9 96h54l-5 -53q88 -6 88 -82z" />
    <glyph glyph-name="onesuperior" unicode="&#xb9;" horiz-adv-x="309" 
d="M293 236h-258v67h89v203l-98 -9v71l187 21v-286h80v-67z" />
    <glyph glyph-name="ordmasculine" unicode="&#xba;" horiz-adv-x="393" 
d="M196 279q-70 0 -112 42.5t-42 119.5t42 118.5t112 41.5q71 0 113 -41.5t42 -118.5t-42 -119.5t-113 -42.5zM196 535q-58 0 -58 -94q0 -96 58 -96t58 96q0 94 -58 94z" />
    <glyph glyph-name="guillemotright" unicode="&#xbb;" horiz-adv-x="528" 
d="M178 232v4q-19 7 -52 44l-95 107l60 61l194 -213l-194 -212l-61 58l95 108q15 16 28 27t19 14zM391 232v4q-20 7 -53 44l-95 107l61 61l194 -213l-194 -212l-61 58l95 108q14 16 27.5 27t19.5 14z" />
    <glyph glyph-name="onequarter" unicode="&#xbc;" horiz-adv-x="868" 
d="M307 236h-258v67h89v203l-98 -9v71l187 21v-286h80v-67zM244 0l305 589h75l-307 -589h-73zM706 0v75h-176v63l177 215h89v-212h52v-66h-52v-75h-90zM708 139v71l4 71h-4q-9 -25 -31 -53l-35 -44q-10 -12 -22 -23.5t-18 -16.5l-7 -6v-4q19 5 56 5h57z" />
    <glyph glyph-name="onehalf" unicode="&#xbd;" horiz-adv-x="868" 
d="M307 236h-258v67h89v203l-98 -9v71l187 21v-286h80v-67zM244 0l305 589h75l-307 -589h-73zM819 70v-70h-274v60q95 68 131 104t36 74q0 45 -44 45q-23 0 -38 -17t-15 -47l-75 31q2 46 38 78.5t100 32.5q57 0 92.5 -29t35.5 -83q0 -103 -147 -175v-4h160z" />
    <glyph glyph-name="threequarters" unicode="&#xbe;" horiz-adv-x="868" 
d="M217 417v-2q98 -7 98 -90q0 -46 -38 -71t-105 -25q-56 0 -93 21.5t-45 59.5l75 30q11 -46 64 -46q48 0 48 38q0 51 -94 52v54q87 2 87 50q0 38 -40 38q-43 0 -51 -41l-73 27q7 40 42.5 62.5t89.5 22.5t87.5 -23.5t33.5 -69.5q0 -72 -86 -87zM244 0l305 589h75l-307 -589
h-73zM706 0v75h-176v63l177 215h89v-212h52v-66h-52v-75h-90zM708 139v71l4 71h-4q-9 -25 -31 -53l-35 -44q-10 -12 -22 -23.5t-18 -16.5l-7 -6v-4q19 5 56 5h57z" />
    <glyph glyph-name="questiondown" unicode="&#xbf;" horiz-adv-x="424" 
d="M314 56l110 -39q-33 -156 -210 -156q-91 0 -147 50.5t-56 130.5q0 87 52.5 128.5t125.5 43.5v68h104v-134h-44q-56 0 -84 -22.5t-28 -74.5q0 -42 23 -64.5t62 -22.5q81 0 92 92zM317 395q0 -32 -21.5 -52t-54.5 -20t-55 20t-22 52t22 52t55 20t54.5 -20t21.5 -52z" />
    <glyph glyph-name="Agrave" unicode="&#xc0;" horiz-adv-x="600" 
d="M460 0l-48 136h-229l-46 -136h-127l214 589h152l214 -589h-130zM248 325l-31 -89h160l-31 88q-15 43 -26.5 84t-15.5 60l-4 20h-4q-15 -69 -48 -163zM361 649h-109l-107 136h152z" />
    <glyph glyph-name="Aacute" unicode="&#xc1;" horiz-adv-x="600" 
d="M460 0l-48 136h-229l-46 -136h-127l214 589h152l214 -589h-130zM248 325l-31 -89h160l-31 88q-15 43 -26.5 84t-15.5 60l-4 20h-4q-15 -69 -48 -163zM348 649h-109l64 136h152z" />
    <glyph glyph-name="Acircumflex" unicode="&#xc2;" horiz-adv-x="600" 
d="M460 0l-48 136h-229l-46 -136h-127l214 589h152l214 -589h-130zM248 325l-31 -89h160l-31 88q-15 43 -26.5 84t-15.5 60l-4 20h-4q-15 -69 -48 -163zM260 789h76l131 -140h-115l-31 32q-8 8 -13.5 15.5t-6.5 11.5l-1 4h-4q-3 -13 -21 -31l-31 -32h-115z" />
    <glyph glyph-name="Atilde" unicode="&#xc3;" horiz-adv-x="600" 
d="M460 0l-48 136h-229l-46 -136h-127l214 589h152l214 -589h-130zM248 325l-31 -89h160l-31 88q-15 43 -26.5 84t-15.5 60l-4 20h-4q-15 -69 -48 -163zM373 650q-33 0 -74 23q-44 25 -58 25q-38 0 -31 -48h-68q-25 54 1.5 100t81.5 46q33 0 72 -22q44 -26 59 -26
q34 0 27 47h71q24 -59 0.5 -102t-81.5 -43z" />
    <glyph glyph-name="Adieresis" unicode="&#xc4;" horiz-adv-x="600" 
d="M460 0l-48 136h-229l-46 -136h-127l214 589h152l214 -589h-130zM248 325l-31 -89h160l-31 88q-15 43 -26.5 84t-15.5 60l-4 20h-4q-15 -69 -48 -163zM123 720q0 32 20 51t49 19q31 0 51 -18.5t20 -51.5q0 -32 -20 -51t-51 -19q-29 0 -49 19t-20 51zM334 719
q0 33 19.5 51.5t49.5 18.5q31 0 50.5 -18.5t19.5 -51.5q0 -32 -19.5 -50.5t-50.5 -18.5q-29 0 -49 19t-20 50z" />
    <glyph glyph-name="Aring" unicode="&#xc5;" horiz-adv-x="600" 
d="M460 0l-48 136h-229l-46 -136h-127l214 589h152l214 -589h-130zM248 325l-31 -89h160l-31 88q-15 43 -26.5 84t-15.5 60l-4 20h-4q-15 -69 -48 -163zM298 632q-52 0 -81.5 30.5t-29.5 77.5q0 43 31 73.5t80 30.5t80 -30.5t31 -73.5q0 -47 -29.5 -77.5t-81.5 -30.5z
M298 790q-24 0 -37.5 -14t-13.5 -38q0 -21 13.5 -35t37.5 -14t37.5 14t13.5 35q0 24 -13.5 38t-37.5 14z" />
    <glyph glyph-name="AE" unicode="&#xc6;" horiz-adv-x="862" 
d="M812 0h-385v136h-206l-84 -136h-133l354 589h454v-105h-263v-136h232v-102h-232v-141h263v-105zM429 501l-154 -265h152v108q0 45 1.5 84t3.5 56l1 17h-4z" />
    <glyph glyph-name="Ccedilla" unicode="&#xc7;" horiz-adv-x="578" 
d="M427 -120q0 -45 -31 -68t-80 -23q-70 0 -100 37l24 59q29 -35 65 -35q32 0 32 29q0 36 -56 40l6 70q-112 7 -178.5 87t-66.5 218q0 146 75.5 226.5t208.5 80.5q168 0 233 -147l-116 -56q-31 97 -122 97q-72 0 -113 -54t-41 -149q0 -94 39 -145.5t114 -51.5q92 0 135 87
l101 -63q-38 -62 -88 -93.5t-127 -36.5l-2 -27q88 -6 88 -82z" />
    <glyph glyph-name="Egrave" unicode="&#xc8;" horiz-adv-x="513" 
d="M463 105v-105h-384v589h384v-105h-263v-136h232v-102h-232v-141h263zM333 649h-109l-107 136h152z" />
    <glyph glyph-name="Eacute" unicode="&#xc9;" horiz-adv-x="513" 
d="M463 105v-105h-384v589h384v-105h-263v-136h232v-102h-232v-141h263zM319 649h-109l64 136h152z" />
    <glyph glyph-name="Ecircumflex" unicode="&#xca;" horiz-adv-x="513" 
d="M463 105v-105h-384v589h384v-105h-263v-136h232v-102h-232v-141h263zM234 789h76l131 -140h-115l-31 32q-8 8 -13.5 15.5t-6.5 11.5l-1 4h-4q-3 -13 -21 -31l-31 -32h-115z" />
    <glyph glyph-name="Edieresis" unicode="&#xcb;" horiz-adv-x="513" 
d="M463 105v-105h-384v589h384v-105h-263v-136h232v-102h-232v-141h263zM94 720q0 32 20 51t49 19q31 0 51 -18.5t20 -51.5q0 -32 -20 -51t-51 -19q-29 0 -49 19t-20 51zM305 719q0 33 19.5 51.5t49.5 18.5q31 0 50.5 -18.5t19.5 -51.5q0 -32 -19.5 -50.5t-50.5 -18.5
q-29 0 -49 19t-20 50z" />
    <glyph glyph-name="Igrave" unicode="&#xcc;" horiz-adv-x="279" 
d="M79 589h121v-589h-121v589zM199 649h-109l-107 136h152z" />
    <glyph glyph-name="Iacute" unicode="&#xcd;" horiz-adv-x="279" 
d="M79 589h121v-589h-121v589zM189 649h-109l64 136h152z" />
    <glyph glyph-name="Icircumflex" unicode="&#xce;" horiz-adv-x="279" 
d="M79 589h121v-589h-121v589zM102 789h76l131 -140h-115l-31 32q-8 8 -13.5 15.5t-6.5 11.5l-1 4h-4q-3 -13 -21 -31l-31 -32h-115z" />
    <glyph glyph-name="Idieresis" unicode="&#xcf;" horiz-adv-x="279" 
d="M79 589h121v-589h-121v589zM-38 720q0 32 20 51t49 19q31 0 51 -18.5t20 -51.5q0 -32 -20 -51t-51 -19q-29 0 -49 19t-20 51zM173 719q0 33 19.5 51.5t49.5 18.5q31 0 50.5 -18.5t19.5 -51.5q0 -32 -19.5 -50.5t-50.5 -18.5q-29 0 -49 19t-20 50z" />
    <glyph glyph-name="Eth" unicode="&#xd0;" horiz-adv-x="613" 
d="M278 0h-199v247h-63v99h63v243h206q131 0 208.5 -70t77.5 -218q0 -155 -80 -228t-213 -73zM200 102h66q86 0 132 45t46 147q0 105 -44.5 149t-125.5 44h-74v-141h99v-99h-99v-145z" />
    <glyph glyph-name="Ntilde" unicode="&#xd1;" horiz-adv-x="667" 
d="M196 589l216 -302q15 -21 28.5 -43.5t19.5 -34.5l7 -12h4q-4 54 -4 129v263h121v-589h-113l-217 299q-16 23 -31 47t-22 36l-7 13h-4q6 -53 6 -135v-260h-121v589h117zM408 650q-33 0 -74 23q-44 25 -58 25q-38 0 -31 -48h-68q-25 54 1.5 100t81.5 46q33 0 72 -22
q44 -26 59 -26q34 0 27 47h71q24 -59 0.5 -102t-81.5 -43z" />
    <glyph glyph-name="Ograve" unicode="&#xd2;" horiz-adv-x="634" 
d="M317 -12q-129 0 -202 80t-73 226q0 147 73 227t202 80t202 -80t73 -227q0 -146 -73 -226t-202 -80zM317 493q-73 0 -111 -52.5t-38 -147.5t38 -147.5t111 -52.5t110.5 52.5t37.5 147.5t-38 147.5t-110 52.5zM378 649h-109l-107 136h152z" />
    <glyph glyph-name="Oacute" unicode="&#xd3;" horiz-adv-x="634" 
d="M317 -12q-129 0 -202 80t-73 226q0 147 73 227t202 80t202 -80t73 -227q0 -146 -73 -226t-202 -80zM317 493q-73 0 -111 -52.5t-38 -147.5t38 -147.5t111 -52.5t110.5 52.5t37.5 147.5t-38 147.5t-110 52.5zM365 649h-109l64 136h152z" />
    <glyph glyph-name="Ocircumflex" unicode="&#xd4;" horiz-adv-x="634" 
d="M317 -12q-129 0 -202 80t-73 226q0 147 73 227t202 80t202 -80t73 -227q0 -146 -73 -226t-202 -80zM317 493q-73 0 -111 -52.5t-38 -147.5t38 -147.5t111 -52.5t110.5 52.5t37.5 147.5t-38 147.5t-110 52.5zM279 789h76l131 -140h-115l-31 32q-8 8 -13 15.5t-7 11.5l-1 4
h-4q-3 -13 -21 -31l-31 -32h-115z" />
    <glyph glyph-name="Otilde" unicode="&#xd5;" horiz-adv-x="634" 
d="M317 -12q-129 0 -202 80t-73 226q0 147 73 227t202 80t202 -80t73 -227q0 -146 -73 -226t-202 -80zM317 493q-73 0 -111 -52.5t-38 -147.5t38 -147.5t111 -52.5t110.5 52.5t37.5 147.5t-38 147.5t-110 52.5zM391 650q-33 0 -74 23q-44 25 -58 25q-38 0 -31 -48h-68
q-25 54 1.5 100t81.5 46q33 0 72 -22q44 -26 59 -26q34 0 27 47h71q24 -59 0.5 -102t-81.5 -43z" />
    <glyph glyph-name="Odieresis" unicode="&#xd6;" horiz-adv-x="634" 
d="M317 -12q-129 0 -202 80t-73 226q0 147 73 227t202 80t202 -80t73 -227q0 -146 -73 -226t-202 -80zM317 493q-73 0 -111 -52.5t-38 -147.5t38 -147.5t111 -52.5t110.5 52.5t37.5 147.5t-38 147.5t-110 52.5zM140 720q0 32 20 51t49 19q31 0 51 -18.5t20 -51.5
q0 -32 -20 -51t-51 -19q-29 0 -49 19t-20 51zM351 719q0 33 19.5 51.5t49.5 18.5q31 0 50.5 -18.5t19.5 -51.5q0 -32 -19.5 -50.5t-50.5 -18.5q-29 0 -49 19t-20 50z" />
    <glyph glyph-name="multiply" unicode="&#xd7;" horiz-adv-x="455" 
d="M45 118l131 131l-127 128l47 48l128 -127l134 133l49 -47l-135 -135l138 -138l-48 -47l-138 138l-131 -132z" />
    <glyph glyph-name="Oslash" unicode="&#xd8;" horiz-adv-x="634" 
d="M85 -13l-45 40l57 64q-55 76 -55 203q0 147 73 227t202 80q109 0 180 -60l50 56l47 -40l-55 -62q53 -79 53 -201q0 -146 -73 -226t-202 -80q-109 0 -179 58zM317 493q-73 0 -110 -52.5t-37 -147.5q0 -60 15 -104l232 262q-37 42 -100 42zM464 293q0 59 -15 102l-233 -262
q37 -40 101 -40q73 0 110 52t37 148z" />
    <glyph glyph-name="Ugrave" unicode="&#xd9;" horiz-adv-x="599" 
d="M416 589h121v-393q0 -57 -19 -98.5t-53 -64.5t-75 -34t-90 -11q-105 0 -171.5 49t-66.5 159v393h121v-360q0 -71 27 -105.5t90 -34.5q62 0 89 34.5t27 105.5v360zM361 649h-109l-107 136h152z" />
    <glyph glyph-name="Uacute" unicode="&#xda;" horiz-adv-x="599" 
d="M416 589h121v-393q0 -57 -19 -98.5t-53 -64.5t-75 -34t-90 -11q-105 0 -171.5 49t-66.5 159v393h121v-360q0 -71 27 -105.5t90 -34.5q62 0 89 34.5t27 105.5v360zM347 649h-109l64 136h152z" />
    <glyph glyph-name="Ucircumflex" unicode="&#xdb;" horiz-adv-x="599" 
d="M416 589h121v-393q0 -57 -19 -98.5t-53 -64.5t-75 -34t-90 -11q-105 0 -171.5 49t-66.5 159v393h121v-360q0 -71 27 -105.5t90 -34.5q62 0 89 34.5t27 105.5v360zM262 789h76l131 -140h-115l-31 32q-8 8 -13.5 15.5t-6.5 11.5l-1 4h-4q-3 -13 -21 -31l-31 -32h-115z" />
    <glyph glyph-name="Udieresis" unicode="&#xdc;" horiz-adv-x="599" 
d="M416 589h121v-393q0 -57 -19 -98.5t-53 -64.5t-75 -34t-90 -11q-105 0 -171.5 49t-66.5 159v393h121v-360q0 -71 27 -105.5t90 -34.5q62 0 89 34.5t27 105.5v360zM122 720q0 32 20 51t49 19q31 0 51 -18.5t20 -51.5q0 -32 -20 -51t-51 -19q-29 0 -49 19t-20 51zM333 719
q0 33 19.5 51.5t49.5 18.5q31 0 50.5 -18.5t19.5 -51.5q0 -32 -19.5 -50.5t-50.5 -18.5q-29 0 -49 19t-20 50z" />
    <glyph glyph-name="Yacute" unicode="&#xdd;" horiz-adv-x="525" 
d="M148 589l76 -156q16 -33 27 -62.5t13 -42.5l3 -13h4q6 45 42 118l74 156h128l-186 -384v-205h-121v205l-198 384h138zM310 649h-109l64 136h152z" />
    <glyph glyph-name="Thorn" unicode="&#xde;" horiz-adv-x="514" 
d="M200 393v-179h75q51 0 72.5 21.5t21.5 66.5q0 47 -23 69t-71 22h-75zM200 0h-121v589h121v-94h78q111 0 161.5 -46.5t50.5 -141.5q0 -93 -52 -143t-148 -50h-90v-114z" />
    <glyph glyph-name="germandbls" unicode="&#xdf;" horiz-adv-x="565" 
d="M66 0v426q0 250 233 250q93 0 144 -45t51 -118q0 -120 -116 -137v-4q74 -6 113.5 -53t39.5 -130q0 -94 -48 -147.5t-139 -53.5q-87 0 -126 60l37 88q33 -54 85 -54q74 0 74 113q0 60 -32 93t-92 33h-53v95h53q89 0 89 80q0 39 -23 61t-65 22q-106 0 -106 -150v-429h-119z
" />
    <glyph glyph-name="agrave" unicode="&#xe0;" horiz-adv-x="494" 
d="M294 143v54q-144 4 -144 -70q0 -24 15.5 -38.5t43.5 -14.5q33 0 59 18t26 51zM413 324v-194q0 -43 34 -43q12 0 28 7v-88q-24 -14 -67 -14q-88 0 -105 73q-30 -77 -135 -77q-62 0 -99.5 33.5t-37.5 92.5q0 79 65 118t198 32v49q0 69 -63 69q-62 0 -67 -70l-117 21
q5 70 58 105t132 35q83 0 129.5 -37t46.5 -112zM302 527h-108l-116 151h152z" />
    <glyph glyph-name="aacute" unicode="&#xe1;" horiz-adv-x="494" 
d="M294 143v54q-144 4 -144 -70q0 -24 15.5 -38.5t43.5 -14.5q33 0 59 18t26 51zM413 324v-194q0 -43 34 -43q12 0 28 7v-88q-24 -14 -67 -14q-88 0 -105 73q-30 -77 -135 -77q-62 0 -99.5 33.5t-37.5 92.5q0 79 65 118t198 32v49q0 69 -63 69q-62 0 -67 -70l-117 21
q5 70 58 105t132 35q83 0 129.5 -37t46.5 -112zM284 527h-107l71 151h152z" />
    <glyph glyph-name="acircumflex" unicode="&#xe2;" horiz-adv-x="494" 
d="M294 143v54q-144 4 -144 -70q0 -24 15.5 -38.5t43.5 -14.5q33 0 59 18t26 51zM413 324v-194q0 -43 34 -43q12 0 28 7v-88q-24 -14 -67 -14q-88 0 -105 73q-30 -77 -135 -77q-62 0 -99.5 33.5t-37.5 92.5q0 79 65 118t198 32v49q0 69 -63 69q-62 0 -67 -70l-117 21
q5 70 58 105t132 35q83 0 129.5 -37t46.5 -112zM199 680h73l132 -155h-113l-32 37q-8 10 -13.5 18.5t-6.5 12.5l-1 4h-5q-2 -13 -21 -35l-32 -37h-113z" />
    <glyph glyph-name="atilde" unicode="&#xe3;" horiz-adv-x="494" 
d="M294 143v54q-144 4 -144 -70q0 -24 15.5 -38.5t43.5 -14.5q33 0 59 18t26 51zM413 324v-194q0 -43 34 -43q12 0 28 7v-88q-24 -14 -67 -14q-88 0 -105 73q-30 -77 -135 -77q-62 0 -99.5 33.5t-37.5 92.5q0 79 65 118t198 32v49q0 69 -63 69q-62 0 -67 -70l-117 21
q5 70 58 105t132 35q83 0 129.5 -37t46.5 -112zM310 524q-36 0 -74 23q-44 25 -58 25q-38 0 -31 -49h-68q-25 55 1 100.5t82 45.5q31 0 72 -23q44 -26 59 -26q34 0 27 47h71q24 -58 0.5 -100.5t-81.5 -42.5z" />
    <glyph glyph-name="adieresis" unicode="&#xe4;" horiz-adv-x="494" 
d="M294 143v54q-144 4 -144 -70q0 -24 15.5 -38.5t43.5 -14.5q33 0 59 18t26 51zM413 324v-194q0 -43 34 -43q12 0 28 7v-88q-24 -14 -67 -14q-88 0 -105 73q-30 -77 -135 -77q-62 0 -99.5 33.5t-37.5 92.5q0 79 65 118t198 32v49q0 69 -63 69q-62 0 -67 -70l-117 21
q5 70 58 105t132 35q83 0 129.5 -37t46.5 -112zM62 596q0 32 20 51t49 19q31 0 51 -18.5t20 -51.5q0 -32 -20 -51t-51 -19q-29 0 -49 19t-20 51zM273 595q0 33 19.5 51.5t49.5 18.5q31 0 50.5 -18.5t19.5 -51.5q0 -32 -19.5 -50.5t-50.5 -18.5q-29 0 -49 19t-20 50z" />
    <glyph glyph-name="aring" unicode="&#xe5;" horiz-adv-x="494" 
d="M294 143v54q-144 4 -144 -70q0 -24 15.5 -38.5t43.5 -14.5q33 0 59 18t26 51zM413 324v-194q0 -43 34 -43q12 0 28 7v-88q-24 -14 -67 -14q-88 0 -105 73q-30 -77 -135 -77q-62 0 -99.5 33.5t-37.5 92.5q0 79 65 118t198 32v49q0 69 -63 69q-62 0 -67 -70l-117 21
q5 70 58 105t132 35q83 0 129.5 -37t46.5 -112zM236 511q-52 0 -81.5 30.5t-29.5 77.5q0 43 31 73.5t80 30.5t80 -30.5t31 -73.5q0 -47 -29.5 -77.5t-81.5 -30.5zM236 669q-24 0 -37.5 -14t-13.5 -38q0 -21 13.5 -35t37.5 -14t37.5 14t13.5 35q0 24 -13.5 38t-37.5 14z" />
    <glyph glyph-name="ae" unicode="&#xe6;" horiz-adv-x="741" 
d="M513 80q67 0 88 67l102 -33q-16 -66 -68 -96t-125 -30q-109 0 -167 75q-36 -75 -158 -75q-70 0 -112 34t-42 97q0 156 266 157q3 24 9 45q-6 61 -72 61q-31 0 -49.5 -18.5t-20.5 -51.5l-117 21q5 70 57 105t128 35q96 0 134 -51q57 51 147 51q92 0 141.5 -57.5
t49.5 -149.5q0 -33 -8 -62h-289q2 -59 29.5 -91.5t76.5 -32.5zM410 276h178q1 6 1 16q0 38 -21.5 64.5t-59.5 26.5q-44 0 -68 -29t-30 -78zM209 74q35 0 62 17t34 48q-8 28 -10 66q-145 -1 -145 -78q0 -24 15.5 -38.5t43.5 -14.5z" />
    <glyph glyph-name="ccedilla" unicode="&#xe7;" horiz-adv-x="466" 
d="M364 -120q0 -45 -31 -68t-80 -23q-70 0 -100 37l24 59q29 -35 65 -35q32 0 32 29q0 36 -56 40l6 71q-87 8 -137.5 70.5t-50.5 168.5q0 114 59.5 179t160.5 65q79 0 127 -40t53 -109l-102 -27q-12 81 -80 81q-49 0 -75.5 -39.5t-26.5 -108.5t28 -109t76 -40q66 0 82 72
l105 -31q-12 -61 -55.5 -94t-109.5 -39l-2 -27q88 -6 88 -82z" />
    <glyph glyph-name="egrave" unicode="&#xe8;" horiz-adv-x="485" 
d="M257 80q67 0 88 67l102 -33q-16 -66 -68 -96t-126 -30q-98 0 -157.5 63t-59.5 174q0 117 59 182.5t161 65.5q92 0 141.5 -55.5t49.5 -146.5q0 -37 -7 -62h-289q2 -59 29.5 -94t76.5 -35zM154 280h178q1 7 1 17q0 38 -21.5 62t-60.5 24q-41 0 -66.5 -27.5t-30.5 -75.5z
M310 527h-108l-116 151h152z" />
    <glyph glyph-name="eacute" unicode="&#xe9;" horiz-adv-x="485" 
d="M257 80q67 0 88 67l102 -33q-16 -66 -68 -96t-126 -30q-98 0 -157.5 63t-59.5 174q0 117 59 182.5t161 65.5q92 0 141.5 -55.5t49.5 -146.5q0 -37 -7 -62h-289q2 -59 29.5 -94t76.5 -35zM154 280h178q1 7 1 17q0 38 -21.5 62t-60.5 24q-41 0 -66.5 -27.5t-30.5 -75.5z
M293 527h-107l71 151h152z" />
    <glyph glyph-name="ecircumflex" unicode="&#xea;" horiz-adv-x="485" 
d="M257 80q67 0 88 67l102 -33q-16 -66 -68 -96t-126 -30q-98 0 -157.5 63t-59.5 174q0 117 59 182.5t161 65.5q92 0 141.5 -55.5t49.5 -146.5q0 -37 -7 -62h-289q2 -59 29.5 -94t76.5 -35zM154 280h178q1 7 1 17q0 38 -21.5 62t-60.5 24q-41 0 -66.5 -27.5t-30.5 -75.5z
M217 680h73l132 -155h-113l-32 37q-8 10 -13.5 18.5t-6.5 12.5l-1 4h-5q-2 -13 -21 -35l-32 -37h-113z" />
    <glyph glyph-name="edieresis" unicode="&#xeb;" horiz-adv-x="485" 
d="M257 80q67 0 88 67l102 -33q-16 -66 -68 -96t-126 -30q-98 0 -157.5 63t-59.5 174q0 117 59 182.5t161 65.5q92 0 141.5 -55.5t49.5 -146.5q0 -37 -7 -62h-289q2 -59 29.5 -94t76.5 -35zM154 280h178q1 7 1 17q0 38 -21.5 62t-60.5 24q-41 0 -66.5 -27.5t-30.5 -75.5z
M79 596q0 32 20 51t49 19q31 0 51 -18.5t20 -51.5q0 -32 -20 -51t-51 -19q-29 0 -49 19t-20 51zM290 595q0 33 19.5 51.5t49.5 18.5q31 0 50.5 -18.5t19.5 -51.5q0 -32 -19.5 -50.5t-50.5 -18.5q-29 0 -49 19t-20 50z" />
    <glyph glyph-name="igrave" unicode="&#xec;" horiz-adv-x="251" 
d="M185 527h-108l-116 151h152zM66 462h119v-462h-119v462z" />
    <glyph glyph-name="iacute" unicode="&#xed;" horiz-adv-x="251" 
d="M174 527h-107l71 151h152zM66 462h119v-462h-119v462z" />
    <glyph glyph-name="icircumflex" unicode="&#xee;" horiz-adv-x="251" 
d="M66 462h119v-462h-119v462zM89 680h73l132 -155h-113l-32 37q-8 10 -13.5 18.5t-6.5 12.5l-1 4h-5q-2 -13 -21 -35l-32 -37h-113z" />
    <glyph glyph-name="idieresis" unicode="&#xef;" horiz-adv-x="251" 
d="M-52 596q0 32 20 51t49 19q31 0 51 -18.5t20 -51.5q0 -32 -20 -51t-51 -19q-29 0 -49 19t-20 51zM159 595q0 33 19.5 51.5t49.5 18.5q31 0 50.5 -18.5t19.5 -51.5q0 -32 -19.5 -50.5t-50.5 -18.5q-29 0 -49 19t-20 50zM66 462h119v-462h-119v462z" />
    <glyph glyph-name="eth" unicode="&#xf0;" horiz-adv-x="514" 
d="M116 488l-11 48l120 24q-38 32 -113 72l114 45q71 -37 116 -81l105 24l16 -49l-82 -19q97 -124 97 -287q0 -139 -59 -206.5t-163 -67.5q-103 0 -161.5 60.5t-58.5 178.5q0 113 56 172.5t136 59.5q76 0 120 -60h4q-29 69 -83 119zM359 226q0 146 -104 146
q-100 0 -100 -146q0 -143 102 -143t102 143z" />
    <glyph glyph-name="ntilde" unicode="&#xf1;" horiz-adv-x="526" 
d="M166 462l14 -89q36 100 148 100q59 0 98 -36t39 -109v-328h-119v286q0 86 -68 86q-93 0 -93 -114v-258h-119v462h100zM342 524q-36 0 -74 23q-44 25 -58 25q-38 0 -31 -49h-68q-25 55 1 100.5t82 45.5q31 0 72 -23q44 -26 59 -26q34 0 27 47h71q24 -58 0.5 -100.5
t-81.5 -42.5z" />
    <glyph glyph-name="ograve" unicode="&#xf2;" horiz-adv-x="510" 
d="M255 -12q-101 0 -160 64.5t-59 180.5t59 178t160 62t160 -62t59 -178t-59 -180.5t-160 -64.5zM255 377q-101 0 -101 -145q0 -151 101 -151q102 0 102 151q0 145 -102 145zM318 527h-108l-116 151h152z" />
    <glyph glyph-name="oacute" unicode="&#xf3;" horiz-adv-x="510" 
d="M255 -12q-101 0 -160 64.5t-59 180.5t59 178t160 62t160 -62t59 -178t-59 -180.5t-160 -64.5zM255 377q-101 0 -101 -145q0 -151 101 -151q102 0 102 151q0 145 -102 145zM300 527h-107l71 151h152z" />
    <glyph glyph-name="ocircumflex" unicode="&#xf4;" horiz-adv-x="510" 
d="M255 -12q-101 0 -160 64.5t-59 180.5t59 178t160 62t160 -62t59 -178t-59 -180.5t-160 -64.5zM255 377q-101 0 -101 -145q0 -151 101 -151q102 0 102 151q0 145 -102 145zM219 680h73l132 -155h-113l-32 37q-8 10 -13.5 18.5t-6.5 12.5l-1 4h-5q-2 -13 -21 -35l-32 -37
h-113z" />
    <glyph glyph-name="otilde" unicode="&#xf5;" horiz-adv-x="510" 
d="M255 -12q-101 0 -160 64.5t-59 180.5t59 178t160 62t160 -62t59 -178t-59 -180.5t-160 -64.5zM255 377q-101 0 -101 -145q0 -151 101 -151q102 0 102 151q0 145 -102 145zM330 524q-36 0 -74 23q-44 25 -58 25q-38 0 -31 -49h-68q-25 55 1 100.5t82 45.5q31 0 72 -23
q44 -26 59 -26q34 0 27 47h71q24 -58 0.5 -100.5t-81.5 -42.5z" />
    <glyph glyph-name="odieresis" unicode="&#xf6;" horiz-adv-x="510" 
d="M255 -12q-101 0 -160 64.5t-59 180.5t59 178t160 62t160 -62t59 -178t-59 -180.5t-160 -64.5zM255 377q-101 0 -101 -145q0 -151 101 -151q102 0 102 151q0 145 -102 145zM78 596q0 32 20 51t49 19q31 0 51 -18.5t20 -51.5q0 -32 -20 -51t-51 -19q-29 0 -49 19t-20 51z
M289 595q0 33 19.5 51.5t49.5 18.5q31 0 50.5 -18.5t19.5 -51.5q0 -32 -19.5 -50.5t-50.5 -18.5q-29 0 -49 19t-20 50z" />
    <glyph glyph-name="divide" unicode="&#xf7;" horiz-adv-x="498" 
d="M453 214h-408v68h408v-68zM192 81q0 23 15.5 38.5t37.5 15.5t37.5 -16t15.5 -38q0 -21 -15.5 -36t-37.5 -15t-37.5 15t-15.5 36zM192 408q0 23 15.5 38.5t37.5 15.5t37.5 -16t15.5 -38q0 -21 -15.5 -36t-37.5 -15t-37.5 15t-15.5 36z" />
    <glyph glyph-name="oslash" unicode="&#xf8;" horiz-adv-x="510" 
d="M72 -15l-44 41l48 51q-40 62 -40 156q0 116 59 178t160 62q87 0 144 -48l44 48l47 -40l-51 -55q35 -59 35 -145q0 -116 -59 -180.5t-160 -64.5q-83 0 -139 44zM255 377q-101 0 -101 -145q0 -41 5 -65l167 180q-26 30 -71 30zM357 232q0 33 -4 54l-166 -178q24 -27 68 -27
q102 0 102 151z" />
    <glyph glyph-name="ugrave" unicode="&#xf9;" horiz-adv-x="523" 
d="M354 0l-14 85q-27 -97 -143 -97q-139 0 -139 150v324h119v-294q0 -90 70 -90q38 0 64.5 32.5t26.5 95.5v256h119v-462h-103zM320 527h-108l-116 151h152z" />
    <glyph glyph-name="uacute" unicode="&#xfa;" horiz-adv-x="523" 
d="M354 0l-14 85q-27 -97 -143 -97q-139 0 -139 150v324h119v-294q0 -90 70 -90q38 0 64.5 32.5t26.5 95.5v256h119v-462h-103zM303 527h-107l71 151h152z" />
    <glyph glyph-name="ucircumflex" unicode="&#xfb;" horiz-adv-x="523" 
d="M354 0l-14 85q-27 -97 -143 -97q-139 0 -139 150v324h119v-294q0 -90 70 -90q38 0 64.5 32.5t26.5 95.5v256h119v-462h-103zM221 680h73l132 -155h-113l-32 37q-8 10 -13.5 18.5t-6.5 12.5l-1 4h-5q-2 -13 -21 -35l-32 -37h-113z" />
    <glyph glyph-name="udieresis" unicode="&#xfc;" horiz-adv-x="523" 
d="M354 0l-14 85q-27 -97 -143 -97q-139 0 -139 150v324h119v-294q0 -90 70 -90q38 0 64.5 32.5t26.5 95.5v256h119v-462h-103zM80 596q0 32 20 51t49 19q31 0 51 -18.5t20 -51.5q0 -32 -20 -51t-51 -19q-29 0 -49 19t-20 51zM291 595q0 33 19.5 51.5t49.5 18.5
q31 0 50.5 -18.5t19.5 -51.5q0 -32 -19.5 -50.5t-50.5 -18.5q-29 0 -49 19t-20 50z" />
    <glyph glyph-name="yacute" unicode="&#xfd;" horiz-adv-x="469" 
d="M134 462l67 -225q12 -40 20 -77t11 -54l2 -17h4q7 58 34 148l68 225h125l-178 -502q-36 -99 -82.5 -133.5t-121.5 -34.5q-35 0 -77 11l16 104q27 -15 60 -15q34 0 55.5 18.5t37.5 63.5l-171 488h130zM282 527h-107l71 151h152z" />
    <glyph glyph-name="thorn" unicode="&#xfe;" horiz-adv-x="549" 
d="M185 257v-71q0 -57 28.5 -84t67.5 -27q49 0 80.5 40t31.5 116q0 146 -103 146q-44 0 -74.5 -32t-30.5 -88zM185 61v-264h-119v871h119v-291q34 96 149 96q85 0 132 -60t47 -171q0 -114 -52.5 -184t-145.5 -70q-51 0 -85 21t-45 52z" />
    <glyph glyph-name="ydieresis" unicode="&#xff;" horiz-adv-x="469" 
d="M134 462l67 -225q12 -40 20 -77t11 -54l2 -17h4q7 58 34 148l68 225h125l-178 -502q-36 -99 -82.5 -133.5t-121.5 -34.5q-35 0 -77 11l16 104q27 -15 60 -15q34 0 55.5 18.5t37.5 63.5l-171 488h130zM60 596q0 32 20 51t49 19q31 0 51 -18.5t20 -51.5q0 -32 -20 -51
t-51 -19q-29 0 -49 19t-20 51zM271 595q0 33 19.5 51.5t49.5 18.5q31 0 50.5 -18.5t19.5 -51.5q0 -32 -19.5 -50.5t-50.5 -18.5q-29 0 -49 19t-20 50z" />
    <glyph glyph-name="Amacron" unicode="&#x100;" horiz-adv-x="600" 
d="M460 0l-48 136h-229l-46 -136h-127l214 589h152l214 -589h-130zM248 325l-31 -89h160l-31 88q-15 43 -26.5 84t-15.5 60l-4 20h-4q-15 -69 -48 -163zM443 667h-289v96h289v-96z" />
    <glyph glyph-name="amacron" unicode="&#x101;" horiz-adv-x="494" 
d="M294 143v54q-144 4 -144 -70q0 -24 15.5 -38.5t43.5 -14.5q33 0 59 18t26 51zM413 324v-194q0 -43 34 -43q12 0 28 7v-88q-24 -14 -67 -14q-88 0 -105 73q-30 -77 -135 -77q-62 0 -99.5 33.5t-37.5 92.5q0 79 65 118t198 32v49q0 69 -63 69q-62 0 -67 -70l-117 21
q5 70 58 105t132 35q83 0 129.5 -37t46.5 -112zM378 545h-283v97h283v-97z" />
    <glyph glyph-name="Abreve" unicode="&#x102;" horiz-adv-x="600" 
d="M460 0l-48 136h-229l-46 -136h-127l214 589h152l214 -589h-130zM248 325l-31 -89h160l-31 88q-15 43 -26.5 84t-15.5 60l-4 20h-4q-15 -69 -48 -163zM298 645q-72 0 -108.5 38t-36.5 105h90q1 -30 13 -44.5t42 -14.5q29 0 41.5 14.5t14.5 44.5h89q0 -67 -36.5 -105
t-108.5 -38z" />
    <glyph glyph-name="abreve" unicode="&#x103;" horiz-adv-x="494" 
d="M294 143v54q-144 4 -144 -70q0 -24 15.5 -38.5t43.5 -14.5q33 0 59 18t26 51zM413 324v-194q0 -43 34 -43q12 0 28 7v-88q-24 -14 -67 -14q-88 0 -105 73q-30 -77 -135 -77q-62 0 -99.5 33.5t-37.5 92.5q0 79 65 118t198 32v49q0 69 -63 69q-62 0 -67 -70l-117 21
q5 70 58 105t132 35q83 0 129.5 -37t46.5 -112zM238 522q-71 0 -108 42t-37 110h90q1 -33 12.5 -49.5t42.5 -16.5q32 0 43 16t13 50h90q0 -68 -37 -110t-109 -42z" />
    <glyph glyph-name="Aogonek" unicode="&#x104;" horiz-adv-x="600" 
d="M323 -101q0 57 37 90.5t87 47.5l-35 99h-229l-46 -136h-127l214 589h152l214 -589h-69q-41 0 -70 -21t-29 -59q0 -25 13.5 -39t36.5 -14q37 0 67 34l29 -60q-41 -52 -121 -52q-54 0 -89 27.5t-35 82.5zM248 325l-31 -89h160l-31 88q-15 43 -26.5 84t-15.5 60l-4 20h-4
q-15 -69 -48 -163z" />
    <glyph glyph-name="aogonek" unicode="&#x105;" horiz-adv-x="494" 
d="M246 -101q0 42 24.5 72.5t60.5 45.5q-21 13 -28 48q-30 -77 -135 -77q-62 0 -99.5 33.5t-37.5 92.5q0 79 65 118t198 32v49q0 69 -63 69q-62 0 -67 -70l-117 21q5 70 58 105t132 35q83 0 129.5 -37t46.5 -112v-194q0 -43 34 -43q12 0 28 7v-88q-26 -5 -43 -9t-40 -13.5
t-35 -25.5t-12 -38q0 -25 13.5 -39t36.5 -14q37 0 67 34l29 -60q-41 -52 -121 -52q-54 0 -89 27.5t-35 82.5zM294 143v54q-144 4 -144 -70q0 -24 15.5 -38.5t43.5 -14.5q33 0 59 18t26 51z" />
    <glyph glyph-name="Cacute" unicode="&#x106;" horiz-adv-x="578" 
d="M455 182l101 -63q-42 -69 -99 -100t-149 -31q-121 0 -193.5 81t-72.5 225q0 146 75.5 226.5t208.5 80.5q168 0 233 -147l-116 -56q-31 97 -122 97q-72 0 -113 -54t-41 -149q0 -94 39 -145.5t114 -51.5q92 0 135 87zM368 649h-109l64 136h152z" />
    <glyph glyph-name="cacute" unicode="&#x107;" horiz-adv-x="466" 
d="M338 153l105 -31q-12 -67 -63.5 -100.5t-126.5 -33.5q-99 0 -158 63.5t-59 177.5t59.5 179t160.5 65q79 0 127 -40t53 -109l-102 -27q-12 81 -80 81q-49 0 -75.5 -39.5t-26.5 -108.5t28 -109t76 -40q66 0 82 72zM306 527h-107l71 151h152z" />
    <glyph glyph-name="Ccircumflex" unicode="&#x108;" horiz-adv-x="578" 
d="M455 182l101 -63q-42 -69 -99 -100t-149 -31q-121 0 -193.5 81t-72.5 225q0 146 75.5 226.5t208.5 80.5q168 0 233 -147l-116 -56q-31 97 -122 97q-72 0 -113 -54t-41 -149q0 -94 39 -145.5t114 -51.5q92 0 135 87zM284 789h76l131 -140h-115l-31 32q-8 8 -13.5 15.5
t-6.5 11.5l-1 4h-4q-3 -13 -21 -31l-31 -32h-115z" />
    <glyph glyph-name="ccircumflex" unicode="&#x109;" horiz-adv-x="466" 
d="M338 153l105 -31q-12 -67 -63.5 -100.5t-126.5 -33.5q-99 0 -158 63.5t-59 177.5t59.5 179t160.5 65q79 0 127 -40t53 -109l-102 -27q-12 81 -80 81q-49 0 -75.5 -39.5t-26.5 -108.5t28 -109t76 -40q66 0 82 72zM217 680h73l132 -155h-113l-32 37q-8 10 -13.5 18.5
t-6.5 12.5l-1 4h-5q-2 -13 -21 -35l-32 -37h-113z" />
    <glyph glyph-name="Cdotaccent" unicode="&#x10a;" horiz-adv-x="578" 
d="M455 182l101 -63q-42 -69 -99 -100t-149 -31q-121 0 -193.5 81t-72.5 225q0 146 75.5 226.5t208.5 80.5q168 0 233 -147l-116 -56q-31 97 -122 97q-72 0 -113 -54t-41 -149q0 -94 39 -145.5t114 -51.5q92 0 135 87zM240 720q0 33 21 52.5t53 19.5q34 0 55.5 -19t21.5 -53
q0 -32 -21.5 -51.5t-55.5 -19.5q-32 0 -53 19.5t-21 51.5z" />
    <glyph glyph-name="cdotaccent" unicode="&#x10b;" horiz-adv-x="466" 
d="M338 153l105 -31q-12 -67 -63.5 -100.5t-126.5 -33.5q-99 0 -158 63.5t-59 177.5t59.5 179t160.5 65q79 0 127 -40t53 -109l-102 -27q-12 81 -80 81q-49 0 -75.5 -39.5t-26.5 -108.5t28 -109t76 -40q66 0 82 72zM179 594q0 33 21.5 52.5t52.5 19.5q34 0 55.5 -19.5
t21.5 -52.5q0 -32 -21.5 -51.5t-55.5 -19.5q-31 0 -52.5 19.5t-21.5 51.5z" />
    <glyph glyph-name="Ccaron" unicode="&#x10c;" horiz-adv-x="578" 
d="M455 182l101 -63q-42 -69 -99 -100t-149 -31q-121 0 -193.5 81t-72.5 225q0 146 75.5 226.5t208.5 80.5q168 0 233 -147l-116 -56q-31 97 -122 97q-72 0 -113 -54t-41 -149q0 -94 39 -145.5t114 -51.5q92 0 135 87zM350 647h-76l-131 140h115l31 -32q8 -8 13.5 -16
t6.5 -11l1 -4h4q3 12 21 31l31 32h115z" />
    <glyph glyph-name="ccaron" unicode="&#x10d;" horiz-adv-x="466" 
d="M338 153l105 -31q-12 -67 -63.5 -100.5t-126.5 -33.5q-99 0 -158 63.5t-59 177.5t59.5 179t160.5 65q79 0 127 -40t53 -109l-102 -27q-12 81 -80 81q-49 0 -75.5 -39.5t-26.5 -108.5t28 -109t76 -40q66 0 82 72zM293 525h-73l-132 155h113l32 -37q8 -10 13.5 -18.5
t6.5 -12.5l1 -4h5q2 13 21 35l32 37h113z" />
    <glyph glyph-name="Dcaron" unicode="&#x10e;" horiz-adv-x="613" 
d="M200 102h66q86 0 132 45t46 147q0 105 -44.5 149t-125.5 44h-74v-385zM278 0h-199v589h206q131 0 208.5 -70t77.5 -218q0 -155 -80 -228t-213 -73zM318 647h-76l-131 140h115l31 -32q8 -8 13.5 -16t6.5 -11l1 -4h4q3 12 21 31l31 32h115z" />
    <glyph glyph-name="dcaron" unicode="&#x10f;" horiz-adv-x="549" 
d="M682 686l-56 -177h-86l16 177h126zM365 189v92q0 51 -29 77t-70 26q-48 0 -79 -38t-31 -119q0 -70 29 -108.5t80 -38.5q39 0 69.5 29t30.5 80zM364 401v267h119v-668h-104l-14 80q-26 -92 -145 -92q-79 0 -131.5 61.5t-52.5 172.5q0 118 54 184.5t152 66.5q44 0 78 -20
t44 -52z" />
    <glyph glyph-name="Dcroat" unicode="&#x110;" horiz-adv-x="613" 
d="M278 0h-199v247h-63v99h63v243h206q131 0 208.5 -70t77.5 -218q0 -155 -80 -228t-213 -73zM200 102h66q86 0 132 45t46 147q0 105 -44.5 149t-125.5 44h-74v-141h99v-99h-99v-145z" />
    <glyph glyph-name="dcroat" unicode="&#x111;" horiz-adv-x="549" 
d="M221 522v76h143v70h119v-70h69v-76h-69v-522h-104l-14 80q-26 -92 -145 -92q-79 0 -131.5 61.5t-52.5 172.5q0 118 54 184.5t152 66.5q44 0 78 -20t44 -52v121h-143zM365 189v92q0 51 -29 77t-70 26q-48 0 -79 -38t-31 -119q0 -70 29 -108.5t80 -38.5q39 0 69.5 29
t30.5 80z" />
    <glyph glyph-name="Emacron" unicode="&#x112;" horiz-adv-x="513" 
d="M463 105v-105h-384v589h384v-105h-263v-136h232v-102h-232v-141h263zM416 667h-289v96h289v-96z" />
    <glyph glyph-name="emacron" unicode="&#x113;" horiz-adv-x="485" 
d="M257 80q67 0 88 67l102 -33q-16 -66 -68 -96t-126 -30q-98 0 -157.5 63t-59.5 174q0 117 59 182.5t161 65.5q92 0 141.5 -55.5t49.5 -146.5q0 -37 -7 -62h-289q2 -59 29.5 -94t76.5 -35zM154 280h178q1 7 1 17q0 38 -21.5 62t-60.5 24q-41 0 -66.5 -27.5t-30.5 -75.5z
M391 545h-283v97h283v-97z" />
    <glyph glyph-name="Ebreve" unicode="&#x114;" horiz-adv-x="513" 
d="M463 105v-105h-384v589h384v-105h-263v-136h232v-102h-232v-141h263zM264 645q-72 0 -108.5 38t-36.5 105h90q1 -30 13 -44.5t42 -14.5q29 0 41.5 14.5t14.5 44.5h89q0 -67 -36.5 -105t-108.5 -38z" />
    <glyph glyph-name="ebreve" unicode="&#x115;" horiz-adv-x="485" 
d="M257 80q67 0 88 67l102 -33q-16 -66 -68 -96t-126 -30q-98 0 -157.5 63t-59.5 174q0 117 59 182.5t161 65.5q92 0 141.5 -55.5t49.5 -146.5q0 -37 -7 -62h-289q2 -59 29.5 -94t76.5 -35zM154 280h178q1 7 1 17q0 38 -21.5 62t-60.5 24q-41 0 -66.5 -27.5t-30.5 -75.5z
M251 522q-71 0 -108 42t-37 110h90q1 -33 12.5 -49.5t42.5 -16.5q32 0 43 16t13 50h90q0 -68 -37 -110t-109 -42z" />
    <glyph glyph-name="Edotaccent" unicode="&#x116;" horiz-adv-x="513" 
d="M463 105v-105h-384v589h384v-105h-263v-136h232v-102h-232v-141h263zM194 719q0 33 21 52.5t53 19.5q34 0 55.5 -19t21.5 -53q0 -32 -21.5 -51.5t-55.5 -19.5q-32 0 -53 19.5t-21 51.5z" />
    <glyph glyph-name="edotaccent" unicode="&#x117;" horiz-adv-x="485" 
d="M257 80q67 0 88 67l102 -33q-16 -66 -68 -96t-126 -30q-98 0 -157.5 63t-59.5 174q0 117 59 182.5t161 65.5q92 0 141.5 -55.5t49.5 -146.5q0 -37 -7 -62h-289q2 -59 29.5 -94t76.5 -35zM154 280h178q1 7 1 17q0 38 -21.5 62t-60.5 24q-41 0 -66.5 -27.5t-30.5 -75.5z
M173 594q0 33 21.5 52.5t52.5 19.5q34 0 55.5 -19.5t21.5 -52.5q0 -32 -21.5 -51.5t-55.5 -19.5q-31 0 -52.5 19.5t-21.5 51.5z" />
    <glyph glyph-name="Eogonek" unicode="&#x118;" horiz-adv-x="513" 
d="M463 105v-105h-29q-45 0 -69.5 -20t-24.5 -57q0 -27 13.5 -41.5t36.5 -14.5q37 0 67 34l29 -60q-41 -52 -121 -52q-54 0 -89 27.5t-35 82.5q0 67 65 101h-227v589h384v-105h-263v-136h232v-102h-232v-141h263z" />
    <glyph glyph-name="eogonek" unicode="&#x119;" horiz-adv-x="485" 
d="M177 -101q0 55 39 92q-83 11 -131.5 72.5t-48.5 161.5q0 117 59 182.5t161 65.5q92 0 141.5 -55.5t49.5 -146.5q0 -37 -7 -62h-289q2 -59 29.5 -94t76.5 -35q67 0 88 67l102 -33q-20 -82 -108 -113q-63 -22 -63 -78q0 -27 13.5 -41.5t36.5 -14.5q37 0 67 34l29 -60
q-41 -52 -121 -52q-54 0 -89 27.5t-35 82.5zM154 280h178q1 7 1 17q0 38 -21.5 62t-60.5 24q-41 0 -66.5 -27.5t-30.5 -75.5z" />
    <glyph glyph-name="Ecaron" unicode="&#x11a;" horiz-adv-x="513" 
d="M463 105v-105h-384v589h384v-105h-263v-136h232v-102h-232v-141h263zM304 647h-76l-131 140h115l31 -32q8 -8 13.5 -16t6.5 -11l1 -4h4q3 12 21 31l31 32h115z" />
    <glyph glyph-name="ecaron" unicode="&#x11b;" horiz-adv-x="485" 
d="M257 80q67 0 88 67l102 -33q-16 -66 -68 -96t-126 -30q-98 0 -157.5 63t-59.5 174q0 117 59 182.5t161 65.5q92 0 141.5 -55.5t49.5 -146.5q0 -37 -7 -62h-289q2 -59 29.5 -94t76.5 -35zM154 280h178q1 7 1 17q0 38 -21.5 62t-60.5 24q-41 0 -66.5 -27.5t-30.5 -75.5z
M288 525h-73l-132 155h113l32 -37q8 -10 13.5 -18.5t6.5 -12.5l1 -4h5q2 13 21 35l32 37h113z" />
    <glyph glyph-name="Gcircumflex" unicode="&#x11c;" horiz-adv-x="623" 
d="M316 311h248v-311h-81l-18 69q-20 -39 -64 -60t-98 -21q-119 0 -190 78t-71 226q0 147 76 228t208 81q174 0 233 -147l-116 -56q-30 97 -122 97q-65 0 -109.5 -50.5t-44.5 -153.5q0 -92 37.5 -148t115.5 -56q59 0 93 26t34 71v28h-131v99zM289 789h76l131 -140h-115
l-31 32q-8 8 -13 15.5t-7 11.5l-1 4h-4q-3 -13 -21 -31l-31 -32h-115z" />
    <glyph glyph-name="gcircumflex" unicode="&#x11d;" horiz-adv-x="496" 
d="M236 473q80 0 132 -32q15 13 22 27t13 43l96 -32q-4 -32 -27 -54.5t-54 -31.5q21 -33 21 -83q0 -77 -58 -118.5t-147 -41.5q-38 0 -57 7q-25 -14 -25 -41q0 -32 41 -32h125q78 0 120.5 -35.5t42.5 -97.5q0 -61 -40.5 -99t-95.5 -50.5t-127 -12.5q-211 0 -211 118
q0 88 121 97q-33 3 -52 25.5t-19 53.5q0 29 18.5 53t55.5 34q-94 39 -94 140q0 78 54 120.5t145 42.5zM117 -73q0 -57 114 -57q71 0 104 14t33 47q0 46 -64 46h-109q-78 0 -78 -50zM157 310q0 -36 20.5 -58t58.5 -22q39 0 60 20.5t21 59.5q0 40 -21 60.5t-60 19.5
q-38 0 -58.5 -21t-20.5 -59zM217 686h73l132 -155h-113l-32 37q-8 10 -13.5 18.5t-6.5 12.5l-1 4h-5q-2 -13 -21 -35l-32 -37h-113z" />
    <glyph glyph-name="Gbreve" unicode="&#x11e;" horiz-adv-x="623" 
d="M316 311h248v-311h-81l-18 69q-20 -39 -64 -60t-98 -21q-119 0 -190 78t-71 226q0 147 76 228t208 81q174 0 233 -147l-116 -56q-30 97 -122 97q-65 0 -109.5 -50.5t-44.5 -153.5q0 -92 37.5 -148t115.5 -56q59 0 93 26t34 71v28h-131v99zM327 645q-72 0 -108.5 38
t-36.5 105h90q1 -30 13 -44.5t42 -14.5q29 0 41.5 14.5t14.5 44.5h89q0 -67 -36.5 -105t-108.5 -38z" />
    <glyph glyph-name="gbreve" unicode="&#x11f;" horiz-adv-x="496" 
d="M236 473q80 0 132 -32q15 13 22 27t13 43l96 -32q-4 -32 -27 -54.5t-54 -31.5q21 -33 21 -83q0 -77 -58 -118.5t-147 -41.5q-38 0 -57 7q-25 -14 -25 -41q0 -32 41 -32h125q78 0 120.5 -35.5t42.5 -97.5q0 -61 -40.5 -99t-95.5 -50.5t-127 -12.5q-211 0 -211 118
q0 88 121 97q-33 3 -52 25.5t-19 53.5q0 29 18.5 53t55.5 34q-94 39 -94 140q0 78 54 120.5t145 42.5zM117 -73q0 -57 114 -57q71 0 104 14t33 47q0 46 -64 46h-109q-78 0 -78 -50zM157 310q0 -36 20.5 -58t58.5 -22q39 0 60 20.5t21 59.5q0 40 -21 60.5t-60 19.5
q-38 0 -58.5 -21t-20.5 -59zM241 522q-71 0 -108 42t-37 110h90q1 -33 12.5 -49.5t42.5 -16.5q32 0 43 16t13 50h90q0 -68 -37 -110t-109 -42z" />
    <glyph glyph-name="Gdotaccent" unicode="&#x120;" horiz-adv-x="623" 
d="M316 311h248v-311h-81l-18 69q-20 -39 -64 -60t-98 -21q-119 0 -190 78t-71 226q0 147 76 228t208 81q174 0 233 -147l-116 -56q-30 97 -122 97q-65 0 -109.5 -50.5t-44.5 -153.5q0 -92 37.5 -148t115.5 -56q59 0 93 26t34 71v28h-131v99zM252 727q0 33 21 52.5t53 19.5
q34 0 55.5 -19t21.5 -53q0 -32 -21.5 -51.5t-55.5 -19.5q-32 0 -53 19.5t-21 51.5z" />
    <glyph glyph-name="gdotaccent" unicode="&#x121;" horiz-adv-x="496" 
d="M236 473q80 0 132 -32q15 13 22 27t13 43l96 -32q-4 -32 -27 -54.5t-54 -31.5q21 -33 21 -83q0 -77 -58 -118.5t-147 -41.5q-38 0 -57 7q-25 -14 -25 -41q0 -32 41 -32h125q78 0 120.5 -35.5t42.5 -97.5q0 -61 -40.5 -99t-95.5 -50.5t-127 -12.5q-211 0 -211 118
q0 88 121 97q-33 3 -52 25.5t-19 53.5q0 29 18.5 53t55.5 34q-94 39 -94 140q0 78 54 120.5t145 42.5zM117 -73q0 -57 114 -57q71 0 104 14t33 47q0 46 -64 46h-109q-78 0 -78 -50zM157 310q0 -36 20.5 -58t58.5 -22q39 0 60 20.5t21 59.5q0 40 -21 60.5t-60 19.5
q-38 0 -58.5 -21t-20.5 -59zM162 596q0 33 21.5 52.5t52.5 19.5q34 0 55.5 -19.5t21.5 -52.5q0 -32 -21.5 -51.5t-55.5 -19.5q-31 0 -52.5 19.5t-21.5 51.5z" />
    <glyph glyph-name="Gcommaaccent" unicode="&#x122;" horiz-adv-x="623" 
d="M316 311h248v-311h-81l-18 69q-20 -39 -64 -60t-98 -21q-119 0 -190 78t-71 226q0 147 76 228t208 81q174 0 233 -147l-116 -56q-30 97 -122 97q-65 0 -109.5 -50.5t-44.5 -153.5q0 -92 37.5 -148t115.5 -56q59 0 93 26t34 71v28h-131v99zM406 -141q0 -111 -135 -111v42
q33 1 48.5 9.5t15.5 30.5q-29 -5 -49 9.5t-20 43.5t18.5 45t47.5 16q32 0 53 -23.5t21 -61.5z" />
    <glyph glyph-name="gcommaaccent" unicode="&#x123;" horiz-adv-x="496" 
d="M236 473q80 0 132 -32q15 13 22 27t13 43l96 -32q-4 -32 -27 -54.5t-54 -31.5q21 -33 21 -83q0 -77 -58 -118.5t-147 -41.5q-38 0 -57 7q-25 -14 -25 -41q0 -32 41 -32h125q78 0 120.5 -35.5t42.5 -97.5q0 -61 -40.5 -99t-95.5 -50.5t-127 -12.5q-211 0 -211 118
q0 88 121 97q-33 3 -52 25.5t-19 53.5q0 29 18.5 53t55.5 34q-94 39 -94 140q0 78 54 120.5t145 42.5zM117 -73q0 -57 114 -57q71 0 104 14t33 47q0 46 -64 46h-109q-78 0 -78 -50zM157 310q0 -36 20.5 -58t58.5 -22q39 0 60 20.5t21 59.5q0 40 -21 60.5t-60 19.5
q-38 0 -58.5 -21t-20.5 -59zM168 609q0 111 136 111v-42q-33 -1 -48.5 -9.5t-15.5 -30.5q28 5 48 -9.5t20 -43.5t-18.5 -45t-47.5 -16q-32 0 -53 23.5t-21 61.5z" />
    <glyph glyph-name="Hcircumflex" unicode="&#x124;" horiz-adv-x="645" 
d="M200 0h-121v589h121v-237h245v237h121v-589h-121v246h-245v-246zM285 789h76l131 -140h-115l-31 32q-8 8 -13 15.5t-7 11.5l-1 4h-4q-3 -13 -21 -31l-31 -32h-115z" />
    <glyph glyph-name="hcircumflex" unicode="&#x125;" horiz-adv-x="526" 
d="M185 668v-294q35 99 143 99q59 0 98 -36t39 -109v-328h-119v286q0 86 -68 86q-93 0 -93 -114v-258h-119v668h119zM92 846h76l131 -140h-115l-31 32q-8 8 -13.5 16t-6.5 12l-1 3h-4q-3 -13 -21 -31l-31 -32h-115z" />
    <glyph glyph-name="Hbar" unicode="&#x126;" horiz-adv-x="657" 
d="M9 414v95h75v80h122v-80h244v80h121v-80h77v-95h-77v-414h-121v240h-244v-240h-122v414h-75zM206 339h244v75h-244v-75z" />
    <glyph glyph-name="hbar" unicode="&#x127;" horiz-adv-x="526" 
d="M185 668v-70h141v-76h-141v-148q35 99 143 99q59 0 98 -36t39 -109v-328h-119v286q0 86 -68 86q-93 0 -93 -114v-258h-119v522h-71v76h71v70h119z" />
    <glyph glyph-name="Itilde" unicode="&#x128;" horiz-adv-x="279" 
d="M79 589h121v-589h-121v589zM215 650q-33 0 -74 23q-44 25 -58 25q-38 0 -31 -48h-68q-25 54 1.5 100t81.5 46q33 0 72 -22q44 -26 59 -26q34 0 27 47h71q24 -59 0.5 -102t-81.5 -43z" />
    <glyph glyph-name="itilde" unicode="&#x129;" horiz-adv-x="251" 
d="M201 524q-36 0 -74 23q-44 25 -58 25q-38 0 -31 -49h-68q-25 55 1 100.5t82 45.5q31 0 72 -23q44 -26 59 -26q34 0 27 47h71q24 -58 0.5 -100.5t-81.5 -42.5zM66 462h119v-462h-119v462z" />
    <glyph glyph-name="Imacron" unicode="&#x12a;" horiz-adv-x="279" 
d="M79 589h121v-589h-121v589zM284 667h-289v96h289v-96z" />
    <glyph glyph-name="imacron" unicode="&#x12b;" horiz-adv-x="251" 
d="M249 545h-248v97h248v-97zM66 462h119v-462h-119v462z" />
    <glyph glyph-name="Ibreve" unicode="&#x12c;" horiz-adv-x="279" 
d="M79 589h121v-589h-121v589zM140 645q-72 0 -108.5 38t-36.5 105h90q1 -30 13 -44.5t42 -14.5q29 0 41.5 14.5t14.5 44.5h89q0 -67 -36.5 -105t-108.5 -38z" />
    <glyph glyph-name="Iogonek" unicode="&#x12e;" horiz-adv-x="279" 
d="M2 -101q0 77 77 117v573h121v-589q-41 0 -70 -21t-29 -59q0 -25 13.5 -39t37.5 -14q38 0 66 34l29 -60q-41 -52 -121 -52q-54 0 -89 27.5t-35 82.5z" />
    <glyph glyph-name="iogonek" unicode="&#x12f;" horiz-adv-x="251" 
d="M-13 -101q0 78 79 118v445h119v-462q-41 0 -70 -21t-29 -59q0 -25 13.5 -39t37.5 -14q38 0 66 34l29 -60q-41 -52 -121 -52q-54 0 -89 27.5t-35 82.5zM51 605q0 33 21.5 52.5t52.5 19.5q33 0 55 -19.5t22 -52.5q0 -32 -22 -51t-55 -19q-31 0 -52.5 19t-21.5 51z" />
    <glyph glyph-name="Idotaccent" unicode="&#x130;" horiz-adv-x="279" 
d="M79 589h121v-589h-121v589zM65 721q0 33 21 52.5t53 19.5q34 0 55.5 -19t21.5 -53q0 -32 -21.5 -51.5t-55.5 -19.5q-32 0 -53 19.5t-21 51.5z" />
    <glyph glyph-name="dotlessi" unicode="&#x131;" horiz-adv-x="251" 
d="M66 462h119v-462h-119v462z" />
    <glyph glyph-name="IJ" unicode="&#x132;" horiz-adv-x="715" 
d="M79 589h121v-589h-121v589zM532 589h121v-418q0 -95 -55 -139t-144 -44q-139 0 -197 114l91 78q20 -48 44 -70t61 -22q44 0 61.5 26t17.5 80v395z" />
    <glyph glyph-name="ij" unicode="&#x133;" horiz-adv-x="502" 
d="M51 605q0 33 21.5 52.5t52.5 19.5q33 0 55 -19.5t22 -52.5q0 -32 -22 -51t-55 -19q-31 0 -52.5 19t-21.5 51zM66 462h119v-462h-119v462zM317 462h119v-461q0 -111 -65.5 -160.5t-182.5 -42.5v100q67 -8 98 17t31 99v448zM301 605q0 33 21 52.5t53 19.5q34 0 55.5 -19
t21.5 -53q0 -32 -21.5 -51t-55.5 -19q-32 0 -53 19t-21 51z" />
    <glyph glyph-name="Jcircumflex" unicode="&#x134;" horiz-adv-x="458" 
d="M275 589h121v-418q0 -95 -55 -139t-144 -44q-139 0 -197 114l91 78q20 -48 44 -70t61 -22q44 0 61.5 26t17.5 80v395zM295 789h76l131 -140h-115l-31 32q-8 8 -13 15.5t-7 11.5l-1 4h-4q-3 -13 -21 -31l-31 -32h-115z" />
    <glyph glyph-name="jcircumflex" unicode="&#x135;" horiz-adv-x="251" 
d="M66 462h119v-461q0 -111 -66 -160.5t-183 -42.5v100q68 -8 99 17t31 99v448zM87 680h73l132 -155h-113l-32 37q-8 10 -13.5 18.5t-6.5 12.5l-1 4h-5q-2 -13 -21 -35l-32 -37h-113z" />
    <glyph glyph-name="Kcommaaccent" unicode="&#x136;" horiz-adv-x="566" 
d="M552 0h-145l-168 246h-39v-246h-121v589h121v-237h41l154 237h140l-192 -285zM356 -141q0 -111 -135 -111v42q33 1 48.5 9.5t15.5 30.5q-29 -5 -49 9.5t-20 43.5t18.5 45t47.5 16q32 0 53 -23.5t21 -61.5z" />
    <glyph glyph-name="kcommaaccent" unicode="&#x137;" horiz-adv-x="502" 
d="M310 247l184 -247h-141l-140 196h-28v-196h-119v668h119v-380h25l129 174h140zM332 -141q0 -111 -135 -111v42q33 1 48.5 9.5t15.5 30.5q-29 -5 -49 9.5t-20 43.5t18.5 45t47.5 16q32 0 53 -23.5t21 -61.5z" />
    <glyph glyph-name="kgreenlandic" unicode="&#x138;" horiz-adv-x="502" 
d="M310 247l184 -247h-141l-140 196h-28v-196h-119v462h118v-174h26l129 174h140z" />
    <glyph glyph-name="Lacute" unicode="&#x139;" horiz-adv-x="468" 
d="M79 589h121v-484h242v-105h-363v589zM193 649h-109l64 136h152z" />
    <glyph glyph-name="lacute" unicode="&#x13a;" horiz-adv-x="280" 
d="M254 102l-5 -100q-41 -11 -70 -11q-53 0 -87 27.5t-34 84.5v565h119v-532q0 -41 42 -41q18 0 35 7zM171 722h-109l64 136h152z" />
    <glyph glyph-name="Lcommaaccent" unicode="&#x13b;" horiz-adv-x="468" 
d="M79 589h121v-484h242v-105h-363v589zM340 -141q0 -111 -135 -111v42q33 1 48.5 9.5t15.5 30.5q-29 -5 -49 9.5t-20 43.5t18.5 45t47.5 16q32 0 53 -23.5t21 -61.5z" />
    <glyph glyph-name="lcommaaccent" unicode="&#x13c;" horiz-adv-x="280" 
d="M254 102l-5 -100q-41 -11 -70 -11q-53 0 -87 27.5t-34 84.5v565h119v-532q0 -41 42 -41q18 0 35 7zM230 -141q0 -111 -135 -111v42q33 1 48.5 9.5t15.5 30.5q-29 -5 -49 9.5t-20 43.5t18.5 45t47.5 16q32 0 53 -23.5t21 -61.5z" />
    <glyph glyph-name="Lcaron" unicode="&#x13d;" horiz-adv-x="468" 
d="M79 589h121v-484h242v-105h-363v589zM445 618l-56 -189h-86l16 189h126z" />
    <glyph glyph-name="lcaron" unicode="&#x13e;" horiz-adv-x="280" 
d="M376 686l-55 -177h-86l15 177h126zM254 102l-5 -100q-41 -11 -70 -11q-53 0 -87 27.5t-34 84.5v565h119v-532q0 -41 42 -41q18 0 35 7z" />
    <glyph glyph-name="Ldot" unicode="&#x13f;" horiz-adv-x="468" 
d="M79 589h121v-484h242v-105h-363v589zM265 330q0 35 23 58.5t56 23.5q35 0 58 -23.5t23 -58.5q0 -33 -23.5 -55.5t-57.5 -22.5q-33 0 -56 22.5t-23 55.5z" />
    <glyph glyph-name="ldot" unicode="&#x140;" horiz-adv-x="360" 
d="M254 102l-5 -100q-41 -11 -70 -11q-53 0 -87 27.5t-34 84.5v565h119v-532q0 -41 42 -41q18 0 35 7zM223 324q0 35 23 58.5t56 23.5q35 0 58 -23.5t23 -58.5q0 -33 -23.5 -55.5t-57.5 -22.5q-33 0 -56 22.5t-23 55.5z" />
    <glyph glyph-name="Lslash" unicode="&#x141;" horiz-adv-x="479" 
d="M30 214v83l60 21v271h121v-227l137 49v-85l-137 -49v-172h242v-105h-363v235z" />
    <glyph glyph-name="lslash" unicode="&#x142;" horiz-adv-x="295" 
d="M8 249v90l62 31v298h119v-239l80 40v-90l-80 -40v-203q0 -41 42 -41q18 0 35 7l-5 -100q-41 -11 -70 -11q-53 0 -87 27.5t-34 84.5v177z" />
    <glyph glyph-name="Nacute" unicode="&#x143;" horiz-adv-x="667" 
d="M196 589l216 -302q15 -21 28.5 -43.5t19.5 -34.5l7 -12h4q-4 54 -4 129v263h121v-589h-113l-217 299q-16 23 -31 47t-22 36l-7 13h-4q6 -53 6 -135v-260h-121v589h117zM381 649h-109l64 136h152z" />
    <glyph glyph-name="nacute" unicode="&#x144;" horiz-adv-x="526" 
d="M166 462l14 -89q36 100 148 100q59 0 98 -36t39 -109v-328h-119v286q0 86 -68 86q-93 0 -93 -114v-258h-119v462h100zM313 527h-107l71 151h152z" />
    <glyph glyph-name="Ncommaaccent" unicode="&#x145;" horiz-adv-x="667" 
d="M196 589l216 -302q15 -21 28.5 -43.5t19.5 -34.5l7 -12h4q-4 54 -4 129v263h121v-589h-113l-217 299q-16 23 -31 47t-22 36l-7 13h-4q6 -53 6 -135v-260h-121v589h117zM413 -141q0 -111 -135 -111v42q33 1 48.5 9.5t15.5 30.5q-29 -5 -49 9.5t-20 43.5t18.5 45t47.5 16
q32 0 53 -23.5t21 -61.5z" />
    <glyph glyph-name="ncommaaccent" unicode="&#x146;" horiz-adv-x="526" 
d="M166 462l14 -89q36 100 148 100q59 0 98 -36t39 -109v-328h-119v286q0 86 -68 86q-93 0 -93 -114v-258h-119v462h100zM338 -141q0 -111 -135 -111v42q33 1 48.5 9.5t15.5 30.5q-29 -5 -49 9.5t-20 43.5t18.5 45t47.5 16q32 0 53 -23.5t21 -61.5z" />
    <glyph glyph-name="Ncaron" unicode="&#x147;" horiz-adv-x="667" 
d="M196 589l216 -302q15 -21 28.5 -43.5t19.5 -34.5l7 -12h4q-4 54 -4 129v263h121v-589h-113l-217 299q-16 23 -31 47t-22 36l-7 13h-4q6 -53 6 -135v-260h-121v589h117zM372 647h-76l-131 140h115l31 -32q8 -8 13.5 -16t6.5 -11l1 -4h4q3 12 21 31l31 32h115z" />
    <glyph glyph-name="ncaron" unicode="&#x148;" horiz-adv-x="526" 
d="M166 462l14 -89q36 100 148 100q59 0 98 -36t39 -109v-328h-119v286q0 86 -68 86q-93 0 -93 -114v-258h-119v462h100zM304 525h-73l-132 155h113l32 -37q8 -10 13.5 -18.5t6.5 -12.5l1 -4h5q2 13 21 35l32 37h113z" />
    <glyph glyph-name="Eng" unicode="&#x14a;" horiz-adv-x="667" 
d="M588 589v-617q0 -97 -56.5 -140t-144.5 -43q-109 0 -174 68l68 97q18 -29 46.5 -46.5t56.5 -17.5q46 0 64.5 25.5t18.5 79.5v16l-209 288q-16 23 -31 47t-22 36l-7 13h-4q6 -53 6 -135v-260h-121v589h117l216 -302q15 -21 28.5 -43.5t19.5 -34.5l7 -12h4q-4 54 -4 129
v263h121z" />
    <glyph glyph-name="eng" unicode="&#x14b;" horiz-adv-x="526" 
d="M185 0h-119v462h100l14 -89q36 100 148 100q59 0 98 -36t39 -109v-327q0 -111 -65.5 -160.5t-182.5 -42.5v100q67 -8 98 17t31 98v273q0 86 -68 86q-93 0 -93 -114v-258z" />
    <glyph glyph-name="Omacron" unicode="&#x14c;" horiz-adv-x="634" 
d="M317 -12q-129 0 -202 80t-73 226q0 147 73 227t202 80t202 -80t73 -227q0 -146 -73 -226t-202 -80zM317 493q-73 0 -111 -52.5t-38 -147.5t38 -147.5t111 -52.5t110.5 52.5t37.5 147.5t-38 147.5t-110 52.5zM462 667h-289v96h289v-96z" />
    <glyph glyph-name="omacron" unicode="&#x14d;" horiz-adv-x="510" 
d="M255 -12q-101 0 -160 64.5t-59 180.5t59 178t160 62t160 -62t59 -178t-59 -180.5t-160 -64.5zM255 377q-101 0 -101 -145q0 -151 101 -151q102 0 102 151q0 145 -102 145zM397 545h-283v97h283v-97z" />
    <glyph glyph-name="Obreve" unicode="&#x14e;" horiz-adv-x="634" 
d="M317 -12q-129 0 -202 80t-73 226q0 147 73 227t202 80t202 -80t73 -227q0 -146 -73 -226t-202 -80zM317 493q-73 0 -111 -52.5t-38 -147.5t38 -147.5t111 -52.5t110.5 52.5t37.5 147.5t-38 147.5t-110 52.5zM317 645q-72 0 -108.5 38t-36.5 105h90q1 -30 13 -44.5
t42 -14.5q29 0 41.5 14.5t14.5 44.5h89q0 -67 -36.5 -105t-108.5 -38z" />
    <glyph glyph-name="obreve" unicode="&#x14f;" horiz-adv-x="510" 
d="M255 -12q-101 0 -160 64.5t-59 180.5t59 178t160 62t160 -62t59 -178t-59 -180.5t-160 -64.5zM255 377q-101 0 -101 -145q0 -151 101 -151q102 0 102 151q0 145 -102 145zM255 522q-71 0 -108 42t-37 110h90q1 -33 12.5 -49.5t42.5 -16.5q32 0 43 16t13 50h90
q0 -68 -37 -110t-109 -42z" />
    <glyph glyph-name="Ohungarumlaut" unicode="&#x150;" horiz-adv-x="634" 
d="M317 -12q-129 0 -202 80t-73 226q0 147 73 227t202 80t202 -80t73 -227q0 -146 -73 -226t-202 -80zM317 493q-73 0 -111 -52.5t-38 -147.5t38 -147.5t111 -52.5t110.5 52.5t37.5 147.5t-38 147.5t-110 52.5zM277 649h-86l55 136h131zM443 649h-93l72 136h137z" />
    <glyph glyph-name="ohungarumlaut" unicode="&#x151;" horiz-adv-x="510" 
d="M255 -12q-101 0 -160 64.5t-59 180.5t59 178t160 62t160 -62t59 -178t-59 -180.5t-160 -64.5zM255 377q-101 0 -101 -145q0 -151 101 -151q102 0 102 151q0 145 -102 145zM213 527h-86l55 151h131zM379 527h-93l72 151h137z" />
    <glyph glyph-name="OE" unicode="&#x152;" horiz-adv-x="862" 
d="M317 -12q-129 0 -202 80t-73 226q0 147 73 227t202 80q48 0 90 -12h405v-105h-269q36 -54 45 -136h193v-102h-192q-8 -86 -46 -141h269v-105h-405q-42 -12 -90 -12zM317 493q-73 0 -110 -52.5t-37 -147.5q0 -96 37 -148t110 -52t110 52t37 148q0 95 -37.5 147.5
t-109.5 52.5z" />
    <glyph glyph-name="oe" unicode="&#x153;" horiz-adv-x="806" 
d="M579 80q67 0 87 67l103 -33q-16 -66 -68.5 -96t-125.5 -30q-113 0 -161 79q-43 -79 -159 -79q-101 0 -160 64.5t-59 180.5t59 178t160 62q118 0 161 -83q49 83 162 83q92 0 141.5 -55.5t49.5 -146.5q0 -31 -7 -62h-289q2 -59 29.5 -94t76.5 -35zM255 377
q-101 0 -101 -145q0 -151 101 -151q102 0 102 151q0 145 -102 145zM476 280h178q1 7 1 17q0 38 -21.5 62t-60.5 24q-41 0 -66.5 -27.5t-30.5 -75.5z" />
    <glyph glyph-name="Racute" unicode="&#x154;" horiz-adv-x="571" 
d="M542 0h-135q-19 17 -29 59l-23 93q-9 40 -29.5 53t-60.5 13h-65v-218h-121v589h223q209 0 209 -176q0 -67 -36 -104.5t-95 -42.5v-3q42 -6 65 -26t34 -62l30 -112q12 -41 33 -63zM200 487v-168h94q93 0 93 84t-92 84h-95zM320 649h-109l64 136h152z" />
    <glyph glyph-name="racute" unicode="&#x155;" horiz-adv-x="381" 
d="M367 472l-12 -132q-22 6 -48 6q-49 0 -85.5 -31.5t-36.5 -95.5v-219h-119v462h103l14 -126q34 144 184 136zM261 527h-107l71 151h152z" />
    <glyph glyph-name="Rcommaaccent" unicode="&#x156;" horiz-adv-x="571" 
d="M542 0h-135q-19 17 -29 59l-23 93q-9 40 -29.5 53t-60.5 13h-65v-218h-121v589h223q209 0 209 -176q0 -67 -36 -104.5t-95 -42.5v-3q42 -6 65 -26t34 -62l30 -112q12 -41 33 -63zM200 487v-168h94q93 0 93 84t-92 84h-95zM352 -141q0 -111 -135 -111v42q33 1 48.5 9.5
t15.5 30.5q-29 -5 -49 9.5t-20 43.5t18.5 45t47.5 16q32 0 53 -23.5t21 -61.5z" />
    <glyph glyph-name="rcommaaccent" unicode="&#x157;" horiz-adv-x="381" 
d="M367 472l-12 -132q-22 6 -48 6q-49 0 -85.5 -31.5t-36.5 -95.5v-219h-119v462h103l14 -126q34 144 184 136zM194 -141q0 -111 -135 -111v42q33 1 48.5 9.5t15.5 30.5q-29 -5 -49 9.5t-20 43.5t18.5 45t47.5 16q32 0 53 -23.5t21 -61.5z" />
    <glyph glyph-name="Rcaron" unicode="&#x158;" horiz-adv-x="571" 
d="M542 0h-135q-19 17 -29 59l-23 93q-9 40 -29.5 53t-60.5 13h-65v-218h-121v589h223q209 0 209 -176q0 -67 -36 -104.5t-95 -42.5v-3q42 -6 65 -26t34 -62l30 -112q12 -41 33 -63zM200 487v-168h94q93 0 93 84t-92 84h-95zM311 647h-76l-131 140h115l31 -32q8 -8 13 -16
t7 -11l1 -4h4q3 12 21 31l31 32h115z" />
    <glyph glyph-name="rcaron" unicode="&#x159;" horiz-adv-x="381" 
d="M367 472l-12 -132q-22 6 -48 6q-49 0 -85.5 -31.5t-36.5 -95.5v-219h-119v462h103l14 -126q34 144 184 136zM245 525h-73l-132 155h113l32 -37q8 -10 13.5 -18.5t6.5 -12.5l1 -4h5q2 13 21 35l32 37h113z" />
    <glyph glyph-name="Sacute" unicode="&#x15a;" horiz-adv-x="503" 
d="M24 135l111 44q9 -46 39.5 -72t75.5 -26q40 0 63.5 17t23.5 50q0 32 -22 51t-84 40q-96 31 -140.5 73t-44.5 116q0 90 58.5 132t142.5 42q200 0 215 -154l-120 -28q-4 40 -30 61.5t-63 21.5q-34 0 -55.5 -17t-21.5 -48q0 -33 25 -51t86 -38q93 -31 136 -71t43 -118
q0 -88 -61.5 -130t-159.5 -42q-181 0 -217 147zM303 649h-109l64 136h152z" />
    <glyph glyph-name="sacute" unicode="&#x15b;" horiz-adv-x="436" 
d="M21 106l100 37q13 -71 93 -71q73 0 73 47q0 22 -14.5 35t-48.5 22l-68 16q-118 29 -118 135q0 53 27.5 87t66.5 46.5t90 12.5q166 0 177 -128l-113 -16q-3 29 -20 42t-50 13q-29 0 -45.5 -12t-16.5 -34q0 -39 51 -49l65 -15q134 -30 134 -145q0 -73 -52 -107t-139 -34
q-86 0 -133 27.5t-59 90.5zM274 527h-107l71 151h152z" />
    <glyph glyph-name="Scircumflex" unicode="&#x15c;" horiz-adv-x="503" 
d="M24 135l111 44q9 -46 39.5 -72t75.5 -26q40 0 63.5 17t23.5 50q0 32 -22 51t-84 40q-96 31 -140.5 73t-44.5 116q0 90 58.5 132t142.5 42q200 0 215 -154l-120 -28q-4 40 -30 61.5t-63 21.5q-34 0 -55.5 -17t-21.5 -48q0 -33 25 -51t86 -38q93 -31 136 -71t43 -118
q0 -88 -61.5 -130t-159.5 -42q-181 0 -217 147zM218 789h76l131 -140h-115l-31 32q-8 8 -13.5 15.5t-6.5 11.5l-1 4h-4q-3 -13 -21 -31l-31 -32h-115z" />
    <glyph glyph-name="scircumflex" unicode="&#x15d;" horiz-adv-x="436" 
d="M21 106l100 37q13 -71 93 -71q73 0 73 47q0 22 -14.5 35t-48.5 22l-68 16q-118 29 -118 135q0 53 27.5 87t66.5 46.5t90 12.5q166 0 177 -128l-113 -16q-3 29 -20 42t-50 13q-29 0 -45.5 -12t-16.5 -34q0 -39 51 -49l65 -15q134 -30 134 -145q0 -73 -52 -107t-139 -34
q-86 0 -133 27.5t-59 90.5zM193 680h73l132 -155h-113l-32 37q-8 10 -13.5 18.5t-6.5 12.5l-1 4h-5q-2 -13 -21 -35l-32 -37h-113z" />
    <glyph glyph-name="Scedilla" unicode="&#x15e;" horiz-adv-x="503" 
d="M358 -120q0 -45 -31 -68t-80 -23q-70 0 -100 37l24 59q29 -35 65 -35q32 0 32 29q0 36 -56 40l6 70q-160 8 -194 146l111 44q9 -46 39.5 -72t75.5 -26q40 0 63.5 17t23.5 50q0 32 -22 51t-84 40q-96 31 -140.5 73t-44.5 116q0 90 58.5 132t142.5 42q200 0 215 -154
l-120 -28q-4 40 -30 61.5t-63 21.5q-34 0 -55.5 -17t-21.5 -48q0 -33 25 -51t86 -38q93 -31 136 -71t43 -118q0 -80 -52 -122t-138 -48l-2 -28q88 -6 88 -82z" />
    <glyph glyph-name="scedilla" unicode="&#x15f;" horiz-adv-x="436" 
d="M322 -120q0 -45 -31 -68t-80 -23q-70 0 -100 37l24 59q29 -35 65 -35q32 0 32 29q0 36 -56 40l6 70q-142 9 -161 117l100 37q13 -71 93 -71q73 0 73 47q0 22 -14.5 35t-48.5 22l-68 16q-118 29 -118 135q0 53 27.5 87t66.5 46.5t90 12.5q166 0 177 -128l-113 -16
q-3 29 -20 42t-50 13q-29 0 -45.5 -12t-16.5 -34q0 -39 51 -49l65 -15q134 -30 134 -145q0 -131 -168 -140l-2 -27q88 -6 88 -82z" />
    <glyph glyph-name="Scaron" unicode="&#x160;" horiz-adv-x="503" 
d="M24 135l111 44q9 -46 39.5 -72t75.5 -26q40 0 63.5 17t23.5 50q0 32 -22 51t-84 40q-96 31 -140.5 73t-44.5 116q0 90 58.5 132t142.5 42q200 0 215 -154l-120 -28q-4 40 -30 61.5t-63 21.5q-34 0 -55.5 -17t-21.5 -48q0 -33 25 -51t86 -38q93 -31 136 -71t43 -118
q0 -88 -61.5 -130t-159.5 -42q-181 0 -217 147zM294 647h-76l-131 140h115l31 -32q8 -8 13.5 -16t6.5 -11l1 -4h4q3 12 21 31l31 32h115z" />
    <glyph glyph-name="scaron" unicode="&#x161;" horiz-adv-x="436" 
d="M21 106l100 37q13 -71 93 -71q73 0 73 47q0 22 -14.5 35t-48.5 22l-68 16q-118 29 -118 135q0 53 27.5 87t66.5 46.5t90 12.5q166 0 177 -128l-113 -16q-3 29 -20 42t-50 13q-29 0 -45.5 -12t-16.5 -34q0 -39 51 -49l65 -15q134 -30 134 -145q0 -73 -52 -107t-139 -34
q-86 0 -133 27.5t-59 90.5zM257 525h-73l-132 155h113l32 -37q8 -10 13.5 -18.5t6.5 -12.5l1 -4h5q2 13 21 35l32 37h113z" />
    <glyph glyph-name="Tcommaaccent" unicode="&#x162;" horiz-adv-x="471" 
d="M295 0h-121v484h-164v105h451v-105h-166v-484zM302 -141q0 -111 -135 -111v42q33 1 48.5 9.5t15.5 30.5q-29 -5 -49 9.5t-20 43.5t18.5 45t47.5 16q32 0 53 -23.5t21 -61.5z" />
    <glyph glyph-name="tcommaaccent" unicode="&#x163;" horiz-adv-x="370" 
d="M334 117l21 -100q-55 -29 -132 -29q-146 0 -146 143v238h-67v93h68v98l119 14v-112h137v-93h-138v-212q0 -67 58 -67q40 0 80 27zM269 -141q0 -111 -135 -111v42q33 1 48.5 9.5t15.5 30.5q-29 -5 -49 9.5t-20 43.5t18.5 45t47.5 16q32 0 53 -23.5t21 -61.5z" />
    <glyph glyph-name="Tcaron" unicode="&#x164;" horiz-adv-x="471" 
d="M295 0h-121v484h-164v105h451v-105h-166v-484zM274 647h-76l-131 140h115l31 -32q8 -8 13.5 -16t6.5 -11l1 -4h4q3 12 21 31l31 32h115z" />
    <glyph glyph-name="tcaron" unicode="&#x165;" horiz-adv-x="370" 
d="M334 117l21 -100q-55 -29 -132 -29q-146 0 -146 143v238h-67v93h68v98l119 14v-112h137v-93h-138v-212q0 -67 58 -67q40 0 80 27zM385 705l-56 -189h-86l16 189h126z" />
    <glyph glyph-name="Tbar" unicode="&#x166;" horiz-adv-x="471" 
d="M295 0h-121v232h-104v98h104v154h-164v105h451v-105h-166v-154h108v-98h-108v-232z" />
    <glyph glyph-name="tbar" unicode="&#x167;" horiz-adv-x="370" 
d="M10 214v88h67v67h-67v93h68v98l119 14v-112h137v-93h-138v-67h138v-88h-138v-57q0 -67 58 -67q40 0 80 27l21 -100q-55 -29 -132 -29q-146 0 -146 143v83h-67z" />
    <glyph glyph-name="Utilde" unicode="&#x168;" horiz-adv-x="599" 
d="M416 589h121v-393q0 -57 -19 -98.5t-53 -64.5t-75 -34t-90 -11q-105 0 -171.5 49t-66.5 159v393h121v-360q0 -71 27 -105.5t90 -34.5q62 0 89 34.5t27 105.5v360zM374 650q-33 0 -74 23q-44 25 -58 25q-38 0 -31 -48h-68q-25 54 1.5 100t81.5 46q33 0 72 -22
q44 -26 59 -26q34 0 27 47h71q24 -59 0.5 -102t-81.5 -43z" />
    <glyph glyph-name="utilde" unicode="&#x169;" horiz-adv-x="523" 
d="M354 0l-14 85q-27 -97 -143 -97q-139 0 -139 150v324h119v-294q0 -90 70 -90q38 0 64.5 32.5t26.5 95.5v256h119v-462h-103zM332 524q-36 0 -74 23q-44 25 -58 25q-38 0 -31 -49h-68q-25 55 1 100.5t82 45.5q31 0 72 -23q44 -26 59 -26q34 0 27 47h71q24 -58 0.5 -100.5
t-81.5 -42.5z" />
    <glyph glyph-name="Umacron" unicode="&#x16a;" horiz-adv-x="599" 
d="M416 589h121v-393q0 -57 -19 -98.5t-53 -64.5t-75 -34t-90 -11q-105 0 -171.5 49t-66.5 159v393h121v-360q0 -71 27 -105.5t90 -34.5q62 0 89 34.5t27 105.5v360zM444 667h-289v96h289v-96z" />
    <glyph glyph-name="umacron" unicode="&#x16b;" horiz-adv-x="523" 
d="M354 0l-14 85q-27 -97 -143 -97q-139 0 -139 150v324h119v-294q0 -90 70 -90q38 0 64.5 32.5t26.5 95.5v256h119v-462h-103zM399 545h-283v97h283v-97z" />
    <glyph glyph-name="Ubreve" unicode="&#x16c;" horiz-adv-x="599" 
d="M416 589h121v-393q0 -57 -19 -98.5t-53 -64.5t-75 -34t-90 -11q-105 0 -171.5 49t-66.5 159v393h121v-360q0 -71 27 -105.5t90 -34.5q62 0 89 34.5t27 105.5v360zM299 645q-72 0 -108.5 38t-36.5 105h90q1 -30 13 -44.5t42 -14.5q29 0 41.5 14.5t14.5 44.5h89
q0 -67 -36.5 -105t-108.5 -38z" />
    <glyph glyph-name="ubreve" unicode="&#x16d;" horiz-adv-x="523" 
d="M354 0l-14 85q-27 -97 -143 -97q-139 0 -139 150v324h119v-294q0 -90 70 -90q38 0 64.5 32.5t26.5 95.5v256h119v-462h-103zM257 522q-71 0 -108 42t-37 110h90q1 -33 12.5 -49.5t42.5 -16.5q32 0 43 16t13 50h90q0 -68 -37 -110t-109 -42z" />
    <glyph glyph-name="Uring" unicode="&#x16e;" horiz-adv-x="599" 
d="M416 589h121v-393q0 -57 -19 -98.5t-53 -64.5t-75 -34t-90 -11q-105 0 -171.5 49t-66.5 159v393h121v-360q0 -71 27 -105.5t90 -34.5q62 0 89 34.5t27 105.5v360zM306 632q-52 0 -81.5 30.5t-29.5 77.5q0 43 31 73.5t80 30.5t80 -30.5t31 -73.5q0 -47 -29.5 -77.5
t-81.5 -30.5zM306 790q-24 0 -37.5 -14t-13.5 -38q0 -21 13.5 -35t37.5 -14t37.5 14t13.5 35q0 24 -13.5 38t-37.5 14z" />
    <glyph glyph-name="uring" unicode="&#x16f;" horiz-adv-x="523" 
d="M354 0l-14 85q-27 -97 -143 -97q-139 0 -139 150v324h119v-294q0 -90 70 -90q38 0 64.5 32.5t26.5 95.5v256h119v-462h-103zM258 511q-52 0 -81.5 30.5t-29.5 77.5q0 43 31 73.5t80 30.5t80 -30.5t31 -73.5q0 -47 -29.5 -77.5t-81.5 -30.5zM258 669q-24 0 -37.5 -14
t-13.5 -38q0 -21 13.5 -35t37.5 -14t37.5 14t13.5 35q0 24 -13.5 38t-37.5 14z" />
    <glyph glyph-name="Uhungarumlaut" unicode="&#x170;" horiz-adv-x="599" 
d="M416 589h121v-393q0 -57 -19 -98.5t-53 -64.5t-75 -34t-90 -11q-105 0 -171.5 49t-66.5 159v393h121v-360q0 -71 27 -105.5t90 -34.5q62 0 89 34.5t27 105.5v360zM259 649h-86l55 136h131zM425 649h-93l72 136h137z" />
    <glyph glyph-name="uhungarumlaut" unicode="&#x171;" horiz-adv-x="523" 
d="M354 0l-14 85q-27 -97 -143 -97q-139 0 -139 150v324h119v-294q0 -90 70 -90q38 0 64.5 32.5t26.5 95.5v256h119v-462h-103zM215 527h-86l55 151h131zM381 527h-93l72 151h137z" />
    <glyph glyph-name="Uogonek" unicode="&#x172;" horiz-adv-x="599" 
d="M194 -101q0 56 41 95q-173 27 -173 202v393h121v-360q0 -71 27 -105.5t90 -34.5q62 0 89 34.5t27 105.5v360h121v-393q0 -99 -54 -148.5t-143 -57.5q-47 -21 -47 -70q0 -25 13.5 -39t36.5 -14q37 0 67 34l29 -60q-41 -52 -121 -52q-54 0 -89 27.5t-35 82.5z" />
    <glyph glyph-name="uogonek" unicode="&#x173;" horiz-adv-x="523" 
d="M261 -103q0 78 90 120l-11 70q-29 -99 -143 -99q-139 0 -139 150v324h119v-294q0 -90 69 -90q39 0 65.5 33.5t26.5 96.5v254h119v-462q-43 -2 -70 -23t-27 -58q0 -52 49 -52q38 0 66 34l29 -60q-41 -52 -121 -52q-53 0 -87.5 27.5t-34.5 80.5z" />
    <glyph glyph-name="Wcircumflex" unicode="&#x174;" horiz-adv-x="857" 
d="M504 589l79 -339q9 -39 16.5 -80t10.5 -62l3 -22h4q8 78 26 163l75 340h123l-137 -589h-175l-75 310q-9 38 -15 78.5t-7 61.5l-2 22h-4q-4 -76 -25 -163l-77 -309h-171l-137 589h129l76 -338q8 -39 15 -80t10 -63l3 -22h4q8 79 28 164l79 339h144zM391 789h76l131 -140
h-115l-31 32q-8 8 -13 15.5t-7 11.5l-1 4h-4q-3 -13 -21 -31l-31 -32h-115z" />
    <glyph glyph-name="wcircumflex" unicode="&#x175;" horiz-adv-x="705" 
d="M410 462l55 -202q12 -41 19.5 -84t9.5 -66l2 -22h4q4 77 26 171l50 203h119l-122 -462h-142l-51 183q-9 35 -15.5 72t-8.5 57l-2 19h-4q-5 -68 -25 -149l-46 -182h-141l-128 462h122l53 -203q11 -41 18 -84t9 -65l2 -22h4q5 80 28 172l52 202h112zM316 680h73l132 -155
h-113l-32 37q-8 10 -13.5 18.5t-6.5 12.5l-1 4h-5q-2 -13 -21 -35l-32 -37h-113z" />
    <glyph glyph-name="Ycircumflex" unicode="&#x176;" horiz-adv-x="525" 
d="M148 589l76 -156q16 -33 27 -62.5t13 -42.5l3 -13h4q6 45 42 118l74 156h128l-186 -384v-205h-121v205l-198 384h138zM224 789h76l131 -140h-115l-31 32q-8 8 -13.5 15.5t-6.5 11.5l-1 4h-4q-3 -13 -21 -31l-31 -32h-115z" />
    <glyph glyph-name="ycircumflex" unicode="&#x177;" horiz-adv-x="469" 
d="M134 462l67 -225q12 -40 20 -77t11 -54l2 -17h4q7 58 34 148l68 225h125l-178 -502q-36 -99 -82.5 -133.5t-121.5 -34.5q-35 0 -77 11l16 104q27 -15 60 -15q34 0 55.5 18.5t37.5 63.5l-171 488h130zM201 680h73l132 -155h-113l-32 37q-8 10 -13.5 18.5t-6.5 12.5l-1 4
h-5q-2 -13 -21 -35l-32 -37h-113z" />
    <glyph glyph-name="Ydieresis" unicode="&#x178;" horiz-adv-x="525" 
d="M148 589l76 -156q16 -33 27 -62.5t13 -42.5l3 -13h4q6 45 42 118l74 156h128l-186 -384v-205h-121v205l-198 384h138zM85 720q0 32 20 51t49 19q31 0 51 -18.5t20 -51.5q0 -32 -20 -51t-51 -19q-29 0 -49 19t-20 51zM296 719q0 33 19.5 51.5t49.5 18.5q31 0 50.5 -18.5
t19.5 -51.5q0 -32 -19.5 -50.5t-50.5 -18.5q-29 0 -49 19t-20 50z" />
    <glyph glyph-name="Zacute" unicode="&#x179;" horiz-adv-x="500" 
d="M467 505l-232 -327q-16 -22 -31 -40t-22 -26l-8 -7v-4q27 4 82 4h218v-105h-448v84l228 327q15 22 30.5 40t23.5 25l7 8v4q-28 -4 -82 -4h-198v105h432v-84zM298 649h-109l64 136h152z" />
    <glyph glyph-name="zacute" unicode="&#x17a;" horiz-adv-x="416" 
d="M381 386l-158 -219q-16 -22 -31 -40t-22 -25l-8 -8v-4q27 4 82 4h146v-94h-364v71l154 222q16 22 31 40t23 25l7 8v4q-27 -4 -82 -4h-124v96h346v-76zM255 527h-107l71 151h152z" />
    <glyph glyph-name="Zdotaccent" unicode="&#x17b;" horiz-adv-x="500" 
d="M467 505l-232 -327q-16 -22 -31 -40t-22 -26l-8 -7v-4q27 4 82 4h218v-105h-448v84l228 327q15 22 30.5 40t23.5 25l7 8v4q-28 -4 -82 -4h-198v105h432v-84zM175 730q0 33 21 52.5t53 19.5q34 0 55.5 -19t21.5 -53q0 -32 -21.5 -51.5t-55.5 -19.5q-32 0 -53 19.5
t-21 51.5z" />
    <glyph glyph-name="zdotaccent" unicode="&#x17c;" horiz-adv-x="416" 
d="M381 386l-158 -219q-16 -22 -31 -40t-22 -25l-8 -8v-4q27 4 82 4h146v-94h-364v71l154 222q16 22 31 40t23 25l7 8v4q-27 -4 -82 -4h-124v96h346v-76zM135 602q0 33 21.5 52.5t52.5 19.5q34 0 55.5 -19.5t21.5 -52.5q0 -32 -21.5 -51.5t-55.5 -19.5q-31 0 -52.5 19.5
t-21.5 51.5z" />
    <glyph glyph-name="Zcaron" unicode="&#x17d;" horiz-adv-x="500" 
d="M467 505l-232 -327q-16 -22 -31 -40t-22 -26l-8 -7v-4q27 4 82 4h218v-105h-448v84l228 327q15 22 30.5 40t23.5 25l7 8v4q-28 -4 -82 -4h-198v105h432v-84zM289 647h-76l-131 140h115l31 -32q8 -8 13.5 -16t6.5 -11l1 -4h4q3 12 21 31l31 32h115z" />
    <glyph glyph-name="zcaron" unicode="&#x17e;" horiz-adv-x="416" 
d="M381 386l-158 -219q-16 -22 -31 -40t-22 -25l-8 -8v-4q27 4 82 4h146v-94h-364v71l154 222q16 22 31 40t23 25l7 8v4q-27 -4 -82 -4h-124v96h346v-76zM252 525h-73l-132 155h113l32 -37q8 -10 13.5 -18.5t6.5 -12.5l1 -4h5q2 13 21 35l32 37h113z" />
    <glyph glyph-name="Schwa" unicode="&#x18f;" horiz-adv-x="585" 
d="M45 441q21 82 83 121t149 39q122 0 194 -79t72 -222q0 -150 -71 -231t-196 -81q-114 0 -174 68t-60 185q0 47 10 85h366q-3 73 -41.5 120t-105.5 47q-91 0 -121 -92zM417 234h-252q-2 -14 -2 -25q2 -54 32 -87t84 -33q61 0 97 40.5t41 104.5z" />
    <glyph glyph-name="florin" unicode="&#x192;" horiz-adv-x="473" 
d="M32 -121l55 263h-67l16 93h69l18 92q16 86 71 126t129 40q94 0 140 -60l-70 -89q-29 46 -77 46q-57 0 -72 -71l-18 -84h117l-15 -93h-120l-56 -263h-120z" />
    <glyph glyph-name="Khook" unicode="&#x198;" horiz-adv-x="566" 
d="M397 433l-56 -132l211 -301h-145l-167 239h-40v-239h-121v589h121v-241h42l51 129q47 124 150 124q79 0 114 -73l-69 -79q-15 30 -40 30q-31 0 -51 -46z" />
    <glyph glyph-name="khook" unicode="&#x199;" horiz-adv-x="502" 
d="M185 196v-196h-119v504q0 62 27 102t70.5 54t91 12t94.5 -18l-19 -108q-37 22 -68.5 26.5t-54.5 -18.5t-23 -77v-189h26l129 174h140l-169 -215l184 -247h-141l-140 196h-28z" />
    <glyph glyph-name="Ezh" unicode="&#x1b7;" horiz-adv-x="489" 
d="M145 272l96 139q15 22 30.5 40t22.5 25l8 8v4q-27 -4 -82 -4h-186v105h415v-84l-185 -245v-4q98 -4 149 -63.5t51 -151.5q0 -102 -63.5 -161t-171.5 -59q-101 0 -164 46.5t-77 133.5l101 48q10 -67 46 -101.5t91 -34.5q58 0 90 33t32 92q0 68 -51 108.5t-152 42.5v83z
" />
    <glyph glyph-name="Acaron" unicode="&#x1cd;" horiz-adv-x="600" 
d="M460 0l-48 136h-229l-46 -136h-127l214 589h152l214 -589h-130zM248 325l-31 -89h160l-31 88q-15 43 -26.5 84t-15.5 60l-4 20h-4q-15 -69 -48 -163zM336 647h-76l-131 140h115l31 -32q8 -8 13.5 -16t6.5 -11l1 -4h4q3 12 21 31l31 32h115z" />
    <glyph glyph-name="acaron" unicode="&#x1ce;" horiz-adv-x="494" 
d="M294 143v54q-144 4 -144 -70q0 -24 15.5 -38.5t43.5 -14.5q33 0 59 18t26 51zM413 324v-194q0 -43 34 -43q12 0 28 7v-88q-24 -14 -67 -14q-88 0 -105 73q-30 -77 -135 -77q-62 0 -99.5 33.5t-37.5 92.5q0 79 65 118t198 32v49q0 69 -63 69q-62 0 -67 -70l-117 21
q5 70 58 105t132 35q83 0 129.5 -37t46.5 -112zM276 525h-73l-132 155h113l32 -37q8 -10 13.5 -18.5t6.5 -12.5l1 -4h5q2 13 21 35l32 37h113z" />
    <glyph glyph-name="Icaron" unicode="&#x1cf;" horiz-adv-x="279" 
d="M79 589h121v-589h-121v589zM178 647h-76l-131 140h115l31 -32q8 -8 13.5 -16t6.5 -11l1 -4h4q3 12 21 31l31 32h115z" />
    <glyph glyph-name="icaron" unicode="&#x1d0;" horiz-adv-x="251" 
d="M162 525h-73l-132 155h113l32 -37q8 -10 13.5 -18.5t6.5 -12.5l1 -4h5q2 13 21 35l32 37h113zM66 462h119v-462h-119v462z" />
    <glyph glyph-name="Ocaron" unicode="&#x1d1;" horiz-adv-x="634" 
d="M317 -12q-129 0 -202 80t-73 226q0 147 73 227t202 80t202 -80t73 -227q0 -146 -73 -226t-202 -80zM317 493q-73 0 -111 -52.5t-38 -147.5t38 -147.5t111 -52.5t110.5 52.5t37.5 147.5t-38 147.5t-110 52.5zM355 647h-76l-131 140h115l31 -32q8 -8 13 -16t7 -11l1 -4h4
q3 12 21 31l31 32h115z" />
    <glyph glyph-name="ocaron" unicode="&#x1d2;" horiz-adv-x="510" 
d="M255 -12q-101 0 -160 64.5t-59 180.5t59 178t160 62t160 -62t59 -178t-59 -180.5t-160 -64.5zM255 377q-101 0 -101 -145q0 -151 101 -151q102 0 102 151q0 145 -102 145zM292 525h-73l-132 155h113l32 -37q8 -10 13.5 -18.5t6.5 -12.5l1 -4h5q2 13 21 35l32 37h113z" />
    <glyph glyph-name="Ucaron" unicode="&#x1d3;" horiz-adv-x="599" 
d="M416 589h121v-393q0 -57 -19 -98.5t-53 -64.5t-75 -34t-90 -11q-105 0 -171.5 49t-66.5 159v393h121v-360q0 -71 27 -105.5t90 -34.5q62 0 89 34.5t27 105.5v360zM338 647h-76l-131 140h115l31 -32q8 -8 13.5 -16t6.5 -11l1 -4h4q3 12 21 31l31 32h115z" />
    <glyph glyph-name="ucaron" unicode="&#x1d4;" horiz-adv-x="523" 
d="M354 0l-14 85q-27 -97 -143 -97q-139 0 -139 150v324h119v-294q0 -90 70 -90q38 0 64.5 32.5t26.5 95.5v256h119v-462h-103zM294 525h-73l-132 155h113l32 -37q8 -10 13.5 -18.5t6.5 -12.5l1 -4h5q2 13 21 35l32 37h113z" />
    <glyph glyph-name="uni004100A800AF" unicode="&#x1de;" horiz-adv-x="600" 
d="M460 0l-48 136h-229l-46 -136h-127l214 589h152l214 -589h-130zM248 325l-31 -89h160l-31 88q-15 43 -26.5 84t-15.5 60l-4 20h-4q-15 -69 -48 -163zM442 821h-289v96h289v-96zM123 704q0 32 20 51t49 19q31 0 51 -18.5t20 -51.5q0 -32 -20 -51t-51 -19q-29 0 -49 19
t-20 51zM334 703q0 33 19.5 51.5t49.5 18.5q31 0 50.5 -18.5t19.5 -51.5q0 -32 -19.5 -50.5t-50.5 -18.5q-29 0 -49 19t-20 50z" />
    <glyph glyph-name="adieresismacron" unicode="&#x1df;" horiz-adv-x="494" 
d="M294 143v54q-144 4 -144 -70q0 -24 15.5 -38.5t43.5 -14.5q33 0 59 18t26 51zM413 324v-194q0 -43 34 -43q12 0 28 7v-88q-24 -14 -67 -14q-88 0 -105 73q-30 -77 -135 -77q-62 0 -99.5 33.5t-37.5 92.5q0 79 65 118t198 32v49q0 69 -63 69q-62 0 -67 -70l-117 21
q5 70 58 105t132 35q83 0 129.5 -37t46.5 -112zM381 683h-283v97h283v-97zM62 572q0 32 20 51t49 19q31 0 51 -18.5t20 -51.5q0 -32 -20 -51t-51 -19q-29 0 -49 19t-20 51zM273 571q0 33 19.5 51.5t49.5 18.5q31 0 50.5 -18.5t19.5 -51.5q0 -32 -19.5 -50.5t-50.5 -18.5
q-29 0 -49 19t-20 50z" />
    <glyph glyph-name="AEmacron" unicode="&#x1e2;" horiz-adv-x="862" 
d="M812 0h-385v136h-206l-84 -136h-133l354 589h454v-105h-263v-136h232v-102h-232v-141h263v-105zM429 501l-154 -265h152v108q0 45 1.5 84t3.5 56l1 17h-4zM699 667h-289v96h289v-96z" />
    <glyph glyph-name="aemacron" unicode="&#x1e3;" horiz-adv-x="734" 
d="M507 84q63 0 87 64l103 -34q-16 -66 -68.5 -96t-125.5 -30q-108 0 -167 74q-46 -74 -159 -74q-67 0 -106.5 33.5t-39.5 92.5q0 159 257 160q6 34 11 51q-7 57 -67 57q-62 0 -67 -70l-117 21q5 70 58.5 105t133.5 35q83 0 128 -45q54 45 138 45q92 0 141 -56.5t50 -145.5
q0 -37 -6 -67h-285q2 -54 27.5 -87t73.5 -33zM408 274h172q1 7 1 23q0 38 -20.5 62t-57.5 24q-41 0 -66 -30.5t-29 -78.5zM212 76q29 0 53 14.5t34 40.5q-12 36 -13 73q-130 -1 -130 -73q0 -25 15 -40t41 -15zM503 545h-283v97h283v-97z" />
    <glyph glyph-name="Gstroke" unicode="&#x1e4;" horiz-adv-x="649" 
d="M316 328h248v-116h57v-69h-57v-143h-81l-18 69q-20 -39 -64 -60t-98 -21q-119 0 -190 78t-71 226q0 147 76 228t208 81q174 0 233 -147l-116 -56q-30 97 -122 97q-64 0 -108.5 -50.5t-44.5 -153.5q0 -93 37 -150t115 -57q96 0 126 59h-130v69h131v42h-131v74z" />
    <glyph glyph-name="gstroke" unicode="&#x1e5;" horiz-adv-x="561" 
d="M270 473q80 0 132 -32q23 20 35 70l96 -32q-4 -32 -27.5 -54.5t-54.5 -31.5q21 -33 21 -83q0 -77 -57.5 -118.5t-147.5 -41.5q-36 0 -57 7q-25 -15 -25 -41q0 -32 41 -32h126q77 0 119.5 -35.5t42.5 -97.5q0 -8 -1 -12h48v-35h-54q-37 -115 -255 -115q-92 0 -151.5 27
t-60.5 88h-40v35h45q22 58 116 65q-32 3 -51.5 25.5t-19.5 53.5q0 29 18.5 53t56.5 34q-94 39 -94 140q0 78 54 120.5t145 42.5zM191 310q0 -36 20.5 -58t58.5 -22q39 0 60 20.5t21 59.5q0 40 -21 60.5t-60 19.5q-79 0 -79 -80zM228 -20q-68 0 -78 -41h255q-5 41 -64 41
h-113zM266 -136q113 0 134 40h-247q19 -40 113 -40z" />
    <glyph glyph-name="Gcaron" unicode="&#x1e6;" horiz-adv-x="623" 
d="M316 311h248v-311h-81l-18 69q-20 -39 -64 -60t-98 -21q-119 0 -190 78t-71 226q0 147 76 228t208 81q174 0 233 -147l-116 -56q-30 97 -122 97q-65 0 -109.5 -50.5t-44.5 -153.5q0 -92 37.5 -148t115.5 -56q59 0 93 26t34 71v28h-131v99zM365 647h-76l-131 140h115
l31 -32q8 -8 13 -16t7 -11l1 -4h4q3 12 21 31l31 32h115z" />
    <glyph glyph-name="gcaron" unicode="&#x1e7;" horiz-adv-x="496" 
d="M236 473q80 0 132 -32q15 13 22 27t13 43l96 -32q-4 -32 -27 -54.5t-54 -31.5q21 -33 21 -83q0 -77 -58 -118.5t-147 -41.5q-38 0 -57 7q-25 -14 -25 -41q0 -32 41 -32h125q78 0 120.5 -35.5t42.5 -97.5q0 -61 -40.5 -99t-95.5 -50.5t-127 -12.5q-211 0 -211 118
q0 88 121 97q-33 3 -52 25.5t-19 53.5q0 29 18.5 53t55.5 34q-94 39 -94 140q0 78 54 120.5t145 42.5zM117 -73q0 -57 114 -57q71 0 104 14t33 47q0 46 -64 46h-109q-78 0 -78 -50zM157 310q0 -36 20.5 -58t58.5 -22q39 0 60 20.5t21 59.5q0 40 -21 60.5t-60 19.5
q-38 0 -58.5 -21t-20.5 -59zM280 525h-73l-132 155h113l32 -37q8 -10 13.5 -18.5t6.5 -12.5l1 -4h5q2 13 21 35l32 37h113z" />
    <glyph glyph-name="Kcaron" unicode="&#x1e8;" horiz-adv-x="566" 
d="M552 0h-145l-168 246h-39v-246h-121v589h121v-237h41l154 237h140l-192 -285zM315 647h-76l-131 140h115l31 -32q8 -8 13 -16t7 -11l1 -4h4q3 12 21 31l31 32h115z" />
    <glyph glyph-name="kcaron" unicode="&#x1e9;" horiz-adv-x="502" 
d="M310 247l184 -247h-141l-140 196h-28v-196h-119v668h119v-380h25l129 174h140zM165 710h-76l-131 140h115l31 -32q8 -8 13.5 -16t6.5 -12l1 -3h4q3 12 21 31l31 32h115z" />
    <glyph glyph-name="Oogonek" unicode="&#x1ea;" horiz-adv-x="634" 
d="M206 -101q0 56 43 96q-99 19 -153 96t-54 203q0 147 73 227t202 80t202 -80t73 -227q0 -136 -63.5 -214.5t-176.5 -88.5q-47 -23 -47 -71q0 -25 13.5 -39t37.5 -14q38 0 66 34l29 -60q-41 -52 -121 -52q-54 0 -89 27.5t-35 82.5zM317 493q-73 0 -111 -52.5t-38 -147.5
t38 -147.5t111 -52.5t110.5 52.5t37.5 147.5t-38 147.5t-110 52.5z" />
    <glyph glyph-name="oogonek" unicode="&#x1eb;" horiz-adv-x="510" 
d="M135 -101q0 61 47 99q-69 21 -107.5 81t-38.5 154q0 116 59 178t160 62t160 -62t59 -178q0 -109 -52 -172.5t-142 -70.5q-46 -22 -46 -70q0 -25 13.5 -39t36.5 -14q39 0 67 34l29 -60q-41 -52 -121 -52q-54 0 -89 27.5t-35 82.5zM255 377q-101 0 -101 -145
q0 -151 101 -151q102 0 102 151q0 145 -102 145z" />
    <glyph glyph-name="uni004F02DB00AF" unicode="&#x1ec;" horiz-adv-x="634" 
d="M462 667h-289v96h289v-96zM206 -101q0 56 43 96q-99 19 -153 96t-54 203q0 147 73 227t202 80t202 -80t73 -227q0 -136 -63.5 -214.5t-176.5 -88.5q-47 -23 -47 -71q0 -25 13.5 -39t37.5 -14q38 0 66 34l29 -60q-41 -52 -121 -52q-54 0 -89 27.5t-35 82.5zM317 493
q-73 0 -111 -52.5t-38 -147.5t38 -147.5t111 -52.5t110.5 52.5t37.5 147.5t-38 147.5t-110 52.5z" />
    <glyph glyph-name="oogonekmacron" unicode="&#x1ed;" horiz-adv-x="510" 
d="M397 545h-283v97h283v-97zM135 -101q0 61 47 99q-69 21 -107.5 81t-38.5 154q0 116 59 178t160 62t160 -62t59 -178q0 -109 -52 -172.5t-142 -70.5q-46 -22 -46 -70q0 -25 13.5 -39t36.5 -14q39 0 67 34l29 -60q-41 -52 -121 -52q-54 0 -89 27.5t-35 82.5zM255 377
q-101 0 -101 -145q0 -151 101 -151q102 0 102 151q0 145 -102 145z" />
    <glyph glyph-name="Ezhcaron" unicode="&#x1ee;" horiz-adv-x="489" 
d="M145 272l96 139q15 22 30.5 40t22.5 25l8 8v4q-27 -4 -82 -4h-186v105h415v-84l-185 -245v-4q98 -4 149 -63.5t51 -151.5q0 -102 -63.5 -161t-171.5 -59q-101 0 -164 46.5t-77 133.5l101 48q10 -67 46 -101.5t91 -34.5q58 0 90 33t32 92q0 68 -51 108.5t-152 42.5v83z
M290 647h-76l-131 140h115l31 -32q8 -8 13 -16t6 -11l2 -4h4q3 12 21 31l31 32h115z" />
    <glyph glyph-name="ezhcaron" unicode="&#x1ef;" horiz-adv-x="418" 
d="M116 220l57 73q16 21 32 39.5t24 25.5l8 8v4q-31 -4 -85 -4h-122v96h346v-76l-152 -183v-3q77 -4 119.5 -53t42.5 -124q0 -84 -56 -130t-153 -46q-77 0 -127.5 37t-62.5 103l109 39q4 -42 29 -64t62 -22q36 0 60 22t24 57q0 110 -155 127v74zM246 525h-73l-132 155h113
l32 -37q8 -10 13.5 -18.5t6.5 -12.5l1 -4h5q2 13 21 35l32 37h113z" />
    <glyph glyph-name="jcaron" unicode="&#x1f0;" horiz-adv-x="251" 
d="M160 525h-73l-132 155h113l32 -37q8 -10 13.5 -18.5t6.5 -12.5l1 -4h5q2 13 21 35l32 37h113zM66 462h119v-461q0 -111 -66 -160.5t-183 -42.5v100q68 -8 99 17t31 99v448z" />
    <glyph glyph-name="jcaron" unicode="&#xe10c;" horiz-adv-x="251" 
d="M160 525h-73l-132 155h113l32 -37q8 -10 13.5 -18.5t6.5 -12.5l1 -4h5q2 13 21 35l32 37h113zM66 462h119v-461q0 -111 -66 -160.5t-183 -42.5v100q68 -8 99 17t31 99v448z" />
    <glyph glyph-name="Gacute" unicode="&#x1f4;" horiz-adv-x="623" 
d="M316 311h248v-311h-81l-18 69q-20 -39 -64 -60t-98 -21q-119 0 -190 78t-71 226q0 147 76 228t208 81q174 0 233 -147l-116 -56q-30 97 -122 97q-65 0 -109.5 -50.5t-44.5 -153.5q0 -92 37.5 -148t115.5 -56q59 0 93 26t34 71v28h-131v99zM375 649h-109l64 136h152z" />
    <glyph glyph-name="gacute" unicode="&#x1f5;" horiz-adv-x="496" 
d="M236 473q80 0 132 -32q15 13 22 27t13 43l96 -32q-4 -32 -27 -54.5t-54 -31.5q21 -33 21 -83q0 -77 -58 -118.5t-147 -41.5q-38 0 -57 7q-25 -14 -25 -41q0 -32 41 -32h125q78 0 120.5 -35.5t42.5 -97.5q0 -61 -40.5 -99t-95.5 -50.5t-127 -12.5q-211 0 -211 118
q0 88 121 97q-33 3 -52 25.5t-19 53.5q0 29 18.5 53t55.5 34q-94 39 -94 140q0 78 54 120.5t145 42.5zM117 -73q0 -57 114 -57q71 0 104 14t33 47q0 46 -64 46h-109q-78 0 -78 -50zM157 310q0 -36 20.5 -58t58.5 -22q39 0 60 20.5t21 59.5q0 40 -21 60.5t-60 19.5
q-38 0 -58.5 -21t-20.5 -59zM298 527h-107l71 151h152z" />
    <glyph glyph-name="Ngrave" unicode="&#x1f8;" horiz-adv-x="667" 
d="M196 589l216 -302q15 -21 28.5 -43.5t19.5 -34.5l7 -12h4q-4 54 -4 129v263h121v-589h-113l-217 299q-16 23 -31 47t-22 36l-7 13h-4q6 -53 6 -135v-260h-121v589h117zM395 649h-109l-107 136h152z" />
    <glyph glyph-name="ngrave" unicode="&#x1f9;" horiz-adv-x="526" 
d="M166 462l14 -89q36 100 148 100q59 0 98 -36t39 -109v-328h-119v286q0 86 -68 86q-93 0 -93 -114v-258h-119v462h100zM330 527h-108l-116 151h152z" />
    <glyph glyph-name="uni004102DA00B4" unicode="&#x1fa;" horiz-adv-x="600" 
d="M460 0l-48 136h-229l-46 -136h-127l214 589h152l214 -589h-130zM248 325l-31 -89h160l-31 88q-15 43 -26.5 84t-15.5 60l-4 20h-4q-15 -69 -48 -163zM298 620q-52 0 -81.5 30.5t-29.5 77.5q0 43 31 73.5t80 30.5t80 -30.5t31 -73.5q0 -47 -29.5 -77.5t-81.5 -30.5z
M298 778q-24 0 -37.5 -14t-13.5 -38q0 -21 13.5 -35t37.5 -14t37.5 14t13.5 35q0 24 -13.5 38t-37.5 14zM351 863h-109l64 136h152z" />
    <glyph glyph-name="aringacute" unicode="&#x1fb;" horiz-adv-x="494" 
d="M294 143v54q-144 4 -144 -70q0 -24 15.5 -38.5t43.5 -14.5q33 0 59 18t26 51zM413 324v-194q0 -43 34 -43q12 0 28 7v-88q-24 -14 -67 -14q-88 0 -105 73q-30 -77 -135 -77q-62 0 -99.5 33.5t-37.5 92.5q0 79 65 118t198 32v49q0 69 -63 69q-62 0 -67 -70l-117 21
q5 70 58 105t132 35q83 0 129.5 -37t46.5 -112zM238 504q-52 0 -81.5 30.5t-29.5 77.5q0 43 31 73.5t80 30.5t80 -30.5t31 -73.5q0 -47 -29.5 -77.5t-81.5 -30.5zM238 662q-24 0 -37.5 -14t-13.5 -38q0 -21 13.5 -35t37.5 -14t37.5 14t13.5 35q0 24 -13.5 38t-37.5 14z
M288 748h-109l64 136h152z" />
    <glyph glyph-name="AEacute" unicode="&#x1fc;" horiz-adv-x="862" 
d="M812 0h-385v136h-206l-84 -136h-133l354 589h454v-105h-263v-136h232v-102h-232v-141h263v-105zM429 501l-154 -265h152v108q0 45 1.5 84t3.5 56l1 17h-4zM602 649h-109l64 136h152z" />
    <glyph glyph-name="aeacute" unicode="&#x1fd;" horiz-adv-x="734" 
d="M507 84q63 0 87 64l103 -34q-16 -66 -68.5 -96t-125.5 -30q-108 0 -167 74q-46 -74 -159 -74q-67 0 -106.5 33.5t-39.5 92.5q0 159 257 160q6 34 11 51q-7 57 -67 57q-62 0 -67 -70l-117 21q5 70 58.5 105t133.5 35q83 0 128 -45q54 45 138 45q92 0 141 -56.5t50 -145.5
q0 -37 -6 -67h-285q2 -54 27.5 -87t73.5 -33zM408 274h172q1 7 1 23q0 38 -20.5 62t-57.5 24q-41 0 -66 -30.5t-29 -78.5zM212 76q29 0 53 14.5t34 40.5q-12 36 -13 73q-130 -1 -130 -73q0 -25 15 -40t41 -15zM406 527h-107l71 151h152z" />
    <glyph glyph-name="Oslashacute" unicode="&#x1fe;" horiz-adv-x="634" 
d="M85 -13l-45 40l57 64q-55 76 -55 203q0 147 73 227t202 80q109 0 180 -60l50 56l47 -40l-55 -62q53 -79 53 -201q0 -146 -73 -226t-202 -80q-109 0 -179 58zM317 493q-73 0 -110 -52.5t-37 -147.5q0 -60 15 -104l232 262q-37 42 -100 42zM464 293q0 59 -15 102l-233 -262
q37 -40 101 -40q73 0 110 52t37 148zM365 649h-109l64 136h152z" />
    <glyph glyph-name="oslashacute" unicode="&#x1ff;" horiz-adv-x="510" 
d="M72 -15l-44 41l48 51q-40 62 -40 156q0 116 59 178t160 62q87 0 144 -48l44 48l47 -40l-51 -55q35 -59 35 -145q0 -116 -59 -180.5t-160 -64.5q-83 0 -139 44zM304 527h-107l71 151h152zM255 377q-101 0 -101 -145q0 -41 5 -65l167 180q-26 30 -71 30zM357 232
q0 33 -4 54l-166 -178q24 -27 68 -27q102 0 102 151z" />
    <glyph glyph-name="Adoublegrave" unicode="&#x200;" horiz-adv-x="600" 
d="M460 0l-48 136h-229l-46 -136h-127l214 589h152l214 -589h-130zM248 325l-31 -89h160l-31 88q-15 43 -26.5 84t-15.5 60l-4 20h-4q-15 -69 -48 -163zM429 649h-85l-100 136h130zM270 649h-93l-116 136h138z" />
    <glyph glyph-name="edoublegrave" unicode="&#x201;" horiz-adv-x="485" 
d="M257 80q67 0 88 67l102 -33q-16 -66 -68 -96t-126 -30q-98 0 -157.5 63t-59.5 174q0 117 59 182.5t161 65.5q92 0 141.5 -55.5t49.5 -146.5q0 -37 -7 -62h-289q2 -59 29.5 -94t76.5 -35zM154 280h178q1 7 1 17q0 38 -21.5 62t-60.5 24q-41 0 -66.5 -27.5t-30.5 -75.5z
M385 527h-85l-100 151h130zM226 527h-93l-116 151h138z" />
    <glyph glyph-name="edoublegrave" unicode="&#x205;" horiz-adv-x="485" 
d="M257 80q67 0 88 67l102 -33q-16 -66 -68 -96t-126 -30q-98 0 -157.5 63t-59.5 174q0 117 59 182.5t161 65.5q92 0 141.5 -55.5t49.5 -146.5q0 -37 -7 -62h-289q2 -59 29.5 -94t76.5 -35zM154 280h178q1 7 1 17q0 38 -21.5 62t-60.5 24q-41 0 -66.5 -27.5t-30.5 -75.5z
M385 527h-85l-100 151h130zM226 527h-93l-116 151h138z" />
    <glyph glyph-name="Ainvertedbreve" unicode="&#x202;" horiz-adv-x="600" 
d="M460 0l-48 136h-229l-46 -136h-127l214 589h152l214 -589h-130zM248 325l-31 -89h160l-31 88q-15 43 -26.5 84t-15.5 60l-4 20h-4q-15 -69 -48 -163zM297 793q72 0 108.5 -37.5t36.5 -104.5h-89q-2 29 -14.5 43.5t-41.5 14.5t-41.5 -14.5t-13.5 -43.5h-90
q0 67 36.5 104.5t108.5 37.5z" />
    <glyph glyph-name="ainvertedbreve" unicode="&#x203;" horiz-adv-x="494" 
d="M294 143v54q-144 4 -144 -70q0 -24 15.5 -38.5t43.5 -14.5q33 0 59 18t26 51zM413 324v-194q0 -43 34 -43q12 0 28 7v-88q-24 -14 -67 -14q-88 0 -105 73q-30 -77 -135 -77q-62 0 -99.5 33.5t-37.5 92.5q0 79 65 118t198 32v49q0 69 -63 69q-62 0 -67 -70l-117 21
q5 70 58 105t132 35q83 0 129.5 -37t46.5 -112zM234 681q72 0 109 -41.5t37 -110.5h-90q-2 34 -13 50t-43 16q-31 0 -42.5 -16.5t-12.5 -49.5h-90q0 68 37 110t108 42z" />
    <glyph glyph-name="Edoublegrave" unicode="&#x204;" horiz-adv-x="513" 
d="M463 105v-105h-384v589h384v-105h-263v-136h232v-102h-232v-141h263zM400 649h-85l-100 136h130zM241 649h-93l-116 136h138z" />
    <glyph glyph-name="Einvertedbreve" unicode="&#x206;" horiz-adv-x="513" 
d="M463 105v-105h-384v589h384v-105h-263v-136h232v-102h-232v-141h263zM266 794q72 0 108.5 -37.5t36.5 -104.5h-89q-2 29 -14.5 43.5t-41.5 14.5t-41.5 -14.5t-13.5 -43.5h-90q0 67 36.5 104.5t108.5 37.5z" />
    <glyph glyph-name="einvertedbreve" unicode="&#x207;" horiz-adv-x="485" 
d="M257 80q67 0 88 67l102 -33q-16 -66 -68 -96t-126 -30q-98 0 -157.5 63t-59.5 174q0 117 59 182.5t161 65.5q92 0 141.5 -55.5t49.5 -146.5q0 -37 -7 -62h-289q2 -59 29.5 -94t76.5 -35zM154 280h178q1 7 1 17q0 38 -21.5 62t-60.5 24q-41 0 -66.5 -27.5t-30.5 -75.5z
M253 681q72 0 109 -41.5t37 -110.5h-90q-2 34 -13 50t-43 16q-31 0 -42.5 -16.5t-12.5 -49.5h-90q0 68 37 110t108 42z" />
    <glyph glyph-name="Idoublegrave" unicode="&#x208;" horiz-adv-x="279" 
d="M79 589h121v-589h-121v589zM269 649h-85l-100 136h130zM110 649h-93l-116 136h138z" />
    <glyph glyph-name="idoublegrave" unicode="&#x209;" horiz-adv-x="251" 
d="M66 462h119v-462h-119v462zM256 527h-85l-100 151h130zM97 527h-93l-116 151h138z" />
    <glyph glyph-name="Iinvertedbreve" unicode="&#x20a;" horiz-adv-x="279" 
d="M79 589h121v-589h-121v589zM140 794q72 0 108.5 -37.5t36.5 -104.5h-89q-2 29 -14.5 43.5t-41.5 14.5t-41.5 -14.5t-13.5 -43.5h-90q0 67 36.5 104.5t108.5 37.5z" />
    <glyph glyph-name="iinvertedbreve" unicode="&#x20b;" horiz-adv-x="251" 
d="M66 462h119v-462h-119v462zM125 681q72 0 109 -41.5t37 -110.5h-90q-2 34 -13 50t-43 16q-31 0 -42.5 -16.5t-12.5 -49.5h-90q0 68 37 110t108 42z" />
    <glyph glyph-name="Odoublegrave" unicode="&#x20c;" horiz-adv-x="634" 
d="M317 -12q-129 0 -202 80t-73 226q0 147 73 227t202 80t202 -80t73 -227q0 -146 -73 -226t-202 -80zM317 493q-73 0 -111 -52.5t-38 -147.5t38 -147.5t111 -52.5t110.5 52.5t37.5 147.5t-38 147.5t-110 52.5zM446 649h-85l-100 136h130zM287 649h-93l-116 136h138z" />
    <glyph glyph-name="odoublegrave" unicode="&#x20d;" horiz-adv-x="510" 
d="M255 -12q-101 0 -160 64.5t-59 180.5t59 178t160 62t160 -62t59 -178t-59 -180.5t-160 -64.5zM255 377q-101 0 -101 -145q0 -151 101 -151q102 0 102 151q0 145 -102 145zM386 527h-85l-100 151h130zM227 527h-93l-116 151h138z" />
    <glyph glyph-name="Oinvertedbreve" unicode="&#x20e;" horiz-adv-x="634" 
d="M317 -12q-129 0 -202 80t-73 226q0 147 73 227t202 80t202 -80t73 -227q0 -146 -73 -226t-202 -80zM317 493q-73 0 -111 -52.5t-38 -147.5t38 -147.5t111 -52.5t110.5 52.5t37.5 147.5t-38 147.5t-110 52.5zM317 794q72 0 108.5 -37.5t36.5 -104.5h-89q-2 29 -14.5 43.5
t-41.5 14.5t-41.5 -14.5t-13.5 -43.5h-90q0 67 36.5 104.5t108.5 37.5z" />
    <glyph glyph-name="oinvertedbreve" unicode="&#x20f;" horiz-adv-x="510" 
d="M255 -12q-101 0 -160 64.5t-59 180.5t59 178t160 62t160 -62t59 -178t-59 -180.5t-160 -64.5zM255 377q-101 0 -101 -145q0 -151 101 -151q102 0 102 151q0 145 -102 145zM255 681q72 0 109 -41.5t37 -110.5h-90q-2 34 -13 50t-43 16q-31 0 -42.5 -16.5t-12.5 -49.5h-90
q0 68 37 110t108 42z" />
    <glyph glyph-name="Rinvertedbreve" unicode="&#x212;" horiz-adv-x="571" 
d="M542 0h-135q-19 17 -29 59l-23 93q-9 40 -29.5 53t-60.5 13h-65v-218h-121v589h223q209 0 209 -176q0 -67 -36 -104.5t-95 -42.5v-3q42 -6 65 -26t34 -62l30 -112q12 -41 33 -63zM200 487v-168h94q93 0 93 84t-92 84h-95zM272 794q72 0 108.5 -37.5t36.5 -104.5h-89
q-2 29 -14.5 43.5t-41.5 14.5t-41.5 -14.5t-13.5 -43.5h-90q0 67 36.5 104.5t108.5 37.5z" />
    <glyph glyph-name="rinvertedbreve" unicode="&#x213;" horiz-adv-x="381" 
d="M367 472l-12 -132q-22 6 -48 6q-49 0 -85.5 -31.5t-36.5 -95.5v-219h-119v462h103l14 -126q34 144 184 136zM216 681q72 0 109 -41.5t37 -110.5h-90q-2 34 -13 50t-43 16q-31 0 -42.5 -16.5t-12.5 -49.5h-90q0 68 37 110t108 42z" />
    <glyph glyph-name="Udoublegrave" unicode="&#x214;" horiz-adv-x="599" 
d="M416 589h121v-393q0 -57 -19 -98.5t-53 -64.5t-75 -34t-90 -11q-105 0 -171.5 49t-66.5 159v393h121v-360q0 -71 27 -105.5t90 -34.5q62 0 89 34.5t27 105.5v360zM428 649h-85l-100 136h130zM269 649h-93l-116 136h138z" />
    <glyph glyph-name="udoublegrave" unicode="&#x215;" horiz-adv-x="523" 
d="M354 0l-14 85q-27 -97 -143 -97q-139 0 -139 150v324h119v-294q0 -90 70 -90q38 0 64.5 32.5t26.5 95.5v256h119v-462h-103zM388 527h-85l-100 151h130zM229 527h-93l-116 151h138z" />
    <glyph glyph-name="Uinvertedbreve" unicode="&#x216;" horiz-adv-x="599" 
d="M416 589h121v-393q0 -57 -19 -98.5t-53 -64.5t-75 -34t-90 -11q-105 0 -171.5 49t-66.5 159v393h121v-360q0 -71 27 -105.5t90 -34.5q62 0 89 34.5t27 105.5v360zM299 794q72 0 108.5 -37.5t36.5 -104.5h-89q-2 29 -14.5 43.5t-41.5 14.5t-41.5 -14.5t-13.5 -43.5h-90
q0 67 36.5 104.5t108.5 37.5z" />
    <glyph glyph-name="uinvertedbreve" unicode="&#x217;" horiz-adv-x="523" 
d="M354 0l-14 85q-27 -97 -143 -97q-139 0 -139 150v324h119v-294q0 -90 70 -90q38 0 64.5 32.5t26.5 95.5v256h119v-462h-103zM257 681q72 0 109 -41.5t37 -110.5h-90q-2 34 -13 50t-43 16q-31 0 -42.5 -16.5t-12.5 -49.5h-90q0 68 37 110t108 42z" />
    <glyph glyph-name="Scommaaccent" unicode="&#x218;" horiz-adv-x="503" 
d="M24 135l111 44q9 -46 39.5 -72t75.5 -26q40 0 63.5 17t23.5 50q0 32 -22 51t-84 40q-96 31 -140.5 73t-44.5 116q0 90 58.5 132t142.5 42q200 0 215 -154l-120 -28q-4 40 -30 61.5t-63 21.5q-34 0 -55.5 -17t-21.5 -48q0 -33 25 -51t86 -38q93 -31 136 -71t43 -118
q0 -88 -61.5 -130t-159.5 -42q-181 0 -217 147zM335 -141q0 -111 -135 -111v42q33 1 48.5 9.5t15.5 30.5q-29 -5 -49 9.5t-20 43.5t18.5 45t47.5 16q32 0 53 -23.5t21 -61.5z" />
    <glyph glyph-name="scommaaccent" unicode="&#x219;" horiz-adv-x="436" 
d="M21 106l100 37q13 -71 93 -71q73 0 73 47q0 22 -14.5 35t-48.5 22l-68 16q-118 29 -118 135q0 53 27.5 87t66.5 46.5t90 12.5q166 0 177 -128l-113 -16q-3 29 -20 42t-50 13q-29 0 -45.5 -12t-16.5 -34q0 -39 51 -49l65 -15q134 -30 134 -145q0 -73 -52 -107t-139 -34
q-86 0 -133 27.5t-59 90.5zM292 -141q0 -111 -135 -111v42q33 1 48.5 9.5t15.5 30.5q-29 -5 -49 9.5t-20 43.5t18.5 45t47.5 16q32 0 53 -23.5t21 -61.5z" />
    <glyph glyph-name="Hcaron" unicode="&#x21e;" horiz-adv-x="645" 
d="M200 0h-121v589h121v-237h245v237h121v-589h-121v246h-245v-246zM361 647h-76l-131 140h115l31 -32q8 -8 13.5 -16t6.5 -11l1 -4h4q3 12 21 31l31 32h115z" />
    <glyph glyph-name="hcaron" unicode="&#x21f;" horiz-adv-x="526" 
d="M185 668v-294q35 99 143 99q59 0 98 -36t39 -109v-328h-119v286q0 86 -68 86q-93 0 -93 -114v-258h-119v668h119zM165 710h-76l-131 140h115l31 -32q8 -8 13.5 -16t6.5 -12l1 -3h4q3 12 21 31l31 32h115z" />
    <glyph glyph-name="Adotabove" unicode="&#x226;" horiz-adv-x="600" 
d="M460 0l-48 136h-229l-46 -136h-127l214 589h152l214 -589h-130zM248 325l-31 -89h160l-31 88q-15 43 -26.5 84t-15.5 60l-4 20h-4q-15 -69 -48 -163zM223 719q0 33 21 52.5t53 19.5q34 0 55.5 -19t21.5 -53q0 -32 -21.5 -51.5t-55.5 -19.5q-32 0 -53 19.5t-21 51.5z" />
    <glyph glyph-name="adotabove" unicode="&#x227;" horiz-adv-x="494" 
d="M294 143v54q-144 4 -144 -70q0 -24 15.5 -38.5t43.5 -14.5q33 0 59 18t26 51zM413 324v-194q0 -43 34 -43q12 0 28 7v-88q-24 -14 -67 -14q-88 0 -105 73q-30 -77 -135 -77q-62 0 -99.5 33.5t-37.5 92.5q0 79 65 118t198 32v49q0 69 -63 69q-62 0 -67 -70l-117 21
q5 70 58 105t132 35q83 0 129.5 -37t46.5 -112zM157 596q0 33 21.5 52.5t52.5 19.5q34 0 55.5 -19.5t21.5 -52.5q0 -32 -21.5 -51.5t-55.5 -19.5q-31 0 -52.5 19.5t-21.5 51.5z" />
    <glyph glyph-name="Otildemacron" unicode="&#x22c;" horiz-adv-x="634" 
d="M317 -12q-129 0 -202 80t-73 226q0 147 73 227t202 80t202 -80t73 -227q0 -146 -73 -226t-202 -80zM317 493q-73 0 -111 -52.5t-38 -147.5t38 -147.5t111 -52.5t110.5 52.5t37.5 147.5t-38 147.5t-110 52.5zM391 633q-33 0 -74 23q-44 25 -58 25q-38 0 -31 -48h-68
q-25 54 1.5 100t81.5 46q33 0 72 -22q44 -26 59 -26q34 0 27 47h71q24 -58 0.5 -101.5t-81.5 -43.5zM462 823h-289v96h289v-96z" />
    <glyph glyph-name="otildemacron" unicode="&#x22d;" horiz-adv-x="510" 
d="M255 -12q-101 0 -160 64.5t-59 180.5t59 178t160 62t160 -62t59 -178t-59 -180.5t-160 -64.5zM255 377q-101 0 -101 -145q0 -151 101 -151q102 0 102 151q0 145 -102 145zM330 508q-36 0 -74 23q-44 25 -58 25q-38 0 -31 -49h-68q-25 55 1 100.5t82 45.5q31 0 72 -23
q44 -26 59 -26q34 0 27 47h71q24 -58 0.5 -100.5t-81.5 -42.5zM397 694h-283v97h283v-97z" />
    <glyph glyph-name="Odotabove" unicode="&#x22e;" horiz-adv-x="634" 
d="M317 -12q-129 0 -202 80t-73 226q0 147 73 227t202 80t202 -80t73 -227q0 -146 -73 -226t-202 -80zM317 493q-73 0 -111 -52.5t-38 -147.5t38 -147.5t111 -52.5t110.5 52.5t37.5 147.5t-38 147.5t-110 52.5zM242 719q0 33 21 52.5t53 19.5q34 0 55.5 -19t21.5 -53
q0 -32 -21.5 -51.5t-55.5 -19.5q-32 0 -53 19.5t-21 51.5z" />
    <glyph glyph-name="odotabove" unicode="&#x22f;" horiz-adv-x="510" 
d="M255 -12q-101 0 -160 64.5t-59 180.5t59 178t160 62t160 -62t59 -178t-59 -180.5t-160 -64.5zM255 377q-101 0 -101 -145q0 -151 101 -151q102 0 102 151q0 145 -102 145zM180 595q0 33 21.5 52.5t52.5 19.5q34 0 55.5 -19.5t21.5 -52.5q0 -32 -21.5 -51.5t-55.5 -19.5
q-31 0 -52.5 19.5t-21.5 51.5z" />
    <glyph glyph-name="odotabovemacron" unicode="&#x231;" horiz-adv-x="510" 
d="M180 584q0 33 21.5 52.5t52.5 19.5q34 0 55.5 -19.5t21.5 -52.5q0 -32 -21.5 -51.5t-55.5 -19.5q-31 0 -52.5 19.5t-21.5 51.5zM255 -12q-101 0 -160 64.5t-59 180.5t59 178t160 62t160 -62t59 -178t-59 -180.5t-160 -64.5zM255 377q-101 0 -101 -145q0 -151 101 -151
q102 0 102 151q0 145 -102 145zM397 694h-283v97h283v-97z" />
    <glyph glyph-name="odotabovemacron" unicode="&#xe11e;" horiz-adv-x="510" 
d="M180 584q0 33 21.5 52.5t52.5 19.5q34 0 55.5 -19.5t21.5 -52.5q0 -32 -21.5 -51.5t-55.5 -19.5q-31 0 -52.5 19.5t-21.5 51.5zM255 -12q-101 0 -160 64.5t-59 180.5t59 178t160 62t160 -62t59 -178t-59 -180.5t-160 -64.5zM255 377q-101 0 -101 -145q0 -151 101 -151
q102 0 102 151q0 145 -102 145zM397 694h-283v97h283v-97z" />
    <glyph glyph-name="Ymacron" unicode="&#x232;" horiz-adv-x="525" 
d="M148 589l76 -156q16 -33 27 -62.5t13 -42.5l3 -13h4q6 45 42 118l74 156h128l-186 -384v-205h-121v205l-198 384h138zM407 667h-289v96h289v-96z" />
    <glyph glyph-name="ymacron" unicode="&#x233;" horiz-adv-x="469" 
d="M134 462l67 -225q12 -40 20 -77t11 -54l2 -17h4q7 58 34 148l68 225h125l-178 -502q-36 -99 -82.5 -133.5t-121.5 -34.5q-35 0 -77 11l16 104q27 -15 60 -15q34 0 55.5 18.5t37.5 63.5l-171 488h130zM379 545h-283v97h283v-97z" />
    <glyph glyph-name="dotlessj" unicode="&#x237;" horiz-adv-x="251" 
d="M66 462h119v-461q0 -111 -66 -160.5t-183 -42.5v100q68 -8 99 17t31 99v448z" />
    <glyph glyph-name="schwa" unicode="&#x259;" horiz-adv-x="485" 
d="M229 377q-64 0 -89 -68l-102 32q16 66 68.5 99t124.5 33q99 0 158.5 -63t59.5 -174q0 -118 -58.5 -183t-161.5 -65q-92 0 -141.5 56t-50.5 148q0 29 6 59h285q-2 57 -27.5 91.5t-71.5 34.5zM327 179h-173q-1 -6 -1 -16q0 -38 21.5 -62t58.5 -24q42 0 65.5 27.5t28.5 74.5
z" />
    <glyph glyph-name="ezh" unicode="&#x292;" horiz-adv-x="418" 
d="M116 220l57 73q16 21 32 39.5t24 25.5l8 8v4q-31 -4 -85 -4h-122v96h346v-76l-152 -183v-3q77 -4 119.5 -53t42.5 -124q0 -84 -56 -130t-153 -46q-77 0 -127.5 37t-62.5 103l109 39q4 -42 29 -64t62 -22q36 0 60 22t24 57q0 110 -155 127v74z" />
    <glyph glyph-name="circumflex" unicode="&#x2c6;" horiz-adv-x="497" 
d="M212 680h73l132 -155h-113l-32 37q-8 10 -13.5 18.5t-6.5 12.5l-1 4h-5q-2 -13 -21 -35l-32 -37h-113z" />
    <glyph glyph-name="caron" unicode="&#x2c7;" horiz-adv-x="497" 
d="M285 525h-73l-132 155h113l32 -37q8 -10 13.5 -18.5t6.5 -12.5l1 -4h5q2 13 21 35l32 37h113z" />
    <glyph glyph-name="breve" unicode="&#x2d8;" horiz-adv-x="451" 
d="M225 522q-71 0 -108 42t-37 110h90q1 -33 12.5 -49.5t42.5 -16.5q32 0 43 16t13 50h90q0 -68 -37 -110t-109 -42z" />
    <glyph glyph-name="dotaccent" unicode="&#x2d9;" horiz-adv-x="311" 
d="M80 602q0 33 21.5 52.5t52.5 19.5q34 0 55.5 -19.5t21.5 -52.5q0 -32 -21.5 -51.5t-55.5 -19.5q-31 0 -52.5 19.5t-21.5 51.5z" />
    <glyph glyph-name="ring" unicode="&#x2da;" horiz-adv-x="382" 
d="M191 511q-52 0 -81.5 30.5t-29.5 77.5q0 43 31 73.5t80 30.5t80 -30.5t31 -73.5q0 -47 -29.5 -77.5t-81.5 -30.5zM191 669q-24 0 -37.5 -14t-13.5 -38q0 -21 13.5 -35t37.5 -14t37.5 14t13.5 35q0 24 -13.5 38t-37.5 14z" />
    <glyph glyph-name="ogonek" unicode="&#x2db;" horiz-adv-x="401" 
d="M66 -101q0 38 18.5 67.5t46.5 45t53.5 23.5t46.5 9l33 -44q-41 0 -70 -21t-29 -59q0 -25 13.5 -39t36.5 -14q37 0 67 34l29 -60q-41 -52 -121 -52q-54 0 -89 27.5t-35 82.5z" />
    <glyph glyph-name="tilde" unicode="&#x2dc;" horiz-adv-x="497" 
d="M323 524q-36 0 -74 23q-44 25 -58 25q-38 0 -31 -49h-68q-25 55 1 100.5t82 45.5q31 0 72 -23q44 -26 59 -26q34 0 27 47h71q24 -58 0.5 -100.5t-81.5 -42.5z" />
    <glyph glyph-name="hungarumlaut" unicode="&#x2dd;" horiz-adv-x="528" 
d="M166 527h-86l55 151h131zM332 527h-93l72 151h137z" />
    <glyph glyph-name="uni0312" unicode="&#x312;" horiz-adv-x="300" 
d="M80 732q0 111 136 111v-42q-33 -1 -48.5 -9.5t-15.5 -30.5q28 5 48 -9.5t20 -43.5t-18.5 -45t-47.5 -16q-32 0 -53 23.5t-21 61.5z" />
    <glyph glyph-name="uni0320" unicode="&#x320;" horiz-adv-x="443" 
d="M363 -189h-283v96h283v-96z" />
    <glyph glyph-name="uni0323" unicode="&#x323;" horiz-adv-x="311" 
d="M80 -124q0 33 21 52.5t53 19.5q33 0 55 -19.5t22 -52.5q0 -32 -22 -51.5t-55 -19.5q-32 0 -53 19.5t-21 51.5z" />
    <glyph glyph-name="uni0329" unicode="&#x329;" horiz-adv-x="275" 
d="M80 -208v162h115v-154z" />
    <glyph glyph-name="pi" unicode="&#x3c0;" horiz-adv-x="684" 
d="M162 481h450v-91h-101v-250q0 -54 38 -54q34 0 60 46l45 -69q-35 -75 -133 -75q-65 0 -98 32.5t-33 108.5v261h-97l-46 -390h-121l50 390h-12q-58 0 -62 -73h-92q0 164 152 164z" />
    <glyph glyph-name="uni0E3F" unicode="&#xe3f;" horiz-adv-x="559" 
d="M262 -106v106h-178v481h178v93h50v-93h22q75 0 117.5 -31t42.5 -91q0 -95 -94 -111v-4q54 -4 84.5 -34.5t30.5 -77.5q0 -132 -179 -132h-24v-106h-50zM320 204h-8v-119h4q41 0 61 13.5t20 47.5q0 58 -77 58zM204 280h58v119h-58v-119zM204 204v-119h58v119h-58zM380 339
q0 57 -68 60v-119q68 0 68 59z" />
    <glyph glyph-name="Ddotbelow" unicode="&#x1e0c;" horiz-adv-x="613" 
d="M200 102h66q86 0 132 45t46 147q0 105 -44.5 149t-125.5 44h-74v-385zM278 0h-199v589h206q131 0 208.5 -70t77.5 -218q0 -155 -80 -228t-213 -73zM205 -134q0 33 21 52.5t53 19.5q34 0 55.5 -19.5t21.5 -52.5q0 -32 -21.5 -51.5t-55.5 -19.5q-32 0 -53 19.5t-21 51.5z
" />
    <glyph glyph-name="ddotbelow" unicode="&#x1e0d;" horiz-adv-x="549" 
d="M365 189v92q0 51 -29 77t-70 26q-48 0 -79 -38t-31 -119q0 -70 29 -108.5t80 -38.5q39 0 69.5 29t30.5 80zM364 401v267h119v-668h-104l-14 80q-26 -92 -145 -92q-79 0 -131.5 61.5t-52.5 172.5q0 118 54 184.5t152 66.5q44 0 78 -20t44 -52zM184 -134q0 33 21 52.5
t53 19.5q34 0 55.5 -19.5t21.5 -52.5q0 -32 -21.5 -51.5t-55.5 -19.5q-32 0 -53 19.5t-21 51.5z" />
    <glyph glyph-name="Dcedilla" unicode="&#x1e10;" horiz-adv-x="613" 
d="M383 -120q0 -45 -31 -68t-80 -23q-70 0 -100 37l24 59q29 -35 65 -35q32 0 32 29q0 36 -56 40l7 81h-165v589h206q131 0 208.5 -70t77.5 -218q0 -149 -74 -222t-199 -79l-3 -38q88 -6 88 -82zM200 102h66q86 0 132 45t46 147q0 105 -44.5 149t-125.5 44h-74v-385z" />
    <glyph glyph-name="dcedilla" unicode="&#x1e11;" horiz-adv-x="549" 
d="M362 -120q0 -45 -31 -68t-80 -23q-70 0 -100 37l24 59q29 -35 65 -35q32 0 32 29q0 36 -56 40l6 69h-2q-79 0 -131.5 61.5t-52.5 172.5q0 118 54 184.5t152 66.5q44 0 78 -20t44 -52v267h119v-668h-104l-14 80q-20 -68 -88 -85l-3 -33q88 -6 88 -82zM365 189v92
q0 51 -29 77t-70 26q-48 0 -79 -38t-31 -119q0 -70 29 -108.5t80 -38.5q39 0 69.5 29t30.5 80z" />
    <glyph glyph-name="Hdotbelow" unicode="&#x1e24;" horiz-adv-x="645" 
d="M200 0h-121v589h121v-237h245v237h121v-589h-121v246h-245v-246zM247 -134q0 33 21 52.5t53 19.5q34 0 55.5 -19.5t21.5 -52.5q0 -32 -21.5 -51.5t-55.5 -19.5q-32 0 -53 19.5t-21 51.5z" />
    <glyph glyph-name="hdotbelow" unicode="&#x1e25;" horiz-adv-x="526" 
d="M185 668v-294q35 99 143 99q59 0 98 -36t39 -109v-328h-119v286q0 86 -68 86q-93 0 -93 -114v-258h-119v668h119zM191 -134q0 33 21 52.5t53 19.5q34 0 55.5 -19.5t21.5 -52.5q0 -32 -21.5 -51.5t-55.5 -19.5q-32 0 -53 19.5t-21 51.5z" />
    <glyph glyph-name="Ldotbelow" unicode="&#x1e36;" horiz-adv-x="468" 
d="M79 589h121v-484h242v-105h-363v589zM185 -134q0 33 21 52.5t53 19.5q34 0 55.5 -19.5t21.5 -52.5q0 -32 -21.5 -51.5t-55.5 -19.5q-32 0 -53 19.5t-21 51.5z" />
    <glyph glyph-name="ldotbelow" unicode="&#x1e37;" horiz-adv-x="280" 
d="M254 102l-5 -100q-41 -11 -70 -11q-53 0 -87 27.5t-34 84.5v565h119v-532q0 -41 42 -41q18 0 35 7zM81 -134q0 33 21 52.5t53 19.5q34 0 55.5 -19.5t21.5 -52.5q0 -32 -21.5 -51.5t-55.5 -19.5q-32 0 -53 19.5t-21 51.5z" />
    <glyph glyph-name="uni004C032300AF" unicode="&#x1e38;" horiz-adv-x="468" 
d="M79 589h121v-484h242v-105h-363v589zM185 -134q0 33 21 52.5t53 19.5q34 0 55.5 -19.5t21.5 -52.5q0 -32 -21.5 -51.5t-55.5 -19.5q-32 0 -53 19.5t-21 51.5zM304 667h-289v96h289v-96z" />
    <glyph glyph-name="ldotbelowmacron" unicode="&#x1e39;" horiz-adv-x="280" 
d="M254 102l-5 -100q-41 -11 -70 -11q-53 0 -87 27.5t-34 84.5v565h119v-532q0 -41 42 -41q18 0 35 7zM81 -134q0 33 21 52.5t53 19.5q34 0 55.5 -19.5t21.5 -52.5q0 -32 -21.5 -51.5t-55.5 -19.5q-32 0 -53 19.5t-21 51.5zM267 735h-289v96h289v-96z" />
    <glyph glyph-name="Mdotbelow" unicode="&#x1e42;" horiz-adv-x="732" 
d="M398 139h-64l-91 158q-14 24 -25 47t-15 34l-4 12h-4q5 -34 5 -102v-288h-121v589h128l120 -223q14 -24 23.5 -44.5t11.5 -29.5l3 -8h4q8 28 38 82l121 223h125v-589h-121v288q0 30 1.5 55.5t2.5 36.5l2 10h-4q-13 -39 -45 -93zM291 -134q0 33 21 52.5t53 19.5
q34 0 55.5 -19.5t21.5 -52.5q0 -32 -21.5 -51.5t-55.5 -19.5q-32 0 -53 19.5t-21 51.5z" />
    <glyph glyph-name="mdotbelow" unicode="&#x1e43;" horiz-adv-x="789" 
d="M446 372q17 51 56.5 76t91.5 25q61 0 97.5 -35.5t36.5 -107.5v-330h-119v286q0 86 -67 86q-37 0 -61 -27t-24 -87v-258h-120v286q0 86 -66 86q-37 0 -61.5 -27.5t-24.5 -86.5v-258h-119v462h100l14 -89q36 100 143 100t123 -101zM322 -134q0 33 21 52.5t53 19.5
q34 0 55.5 -19.5t21.5 -52.5q0 -32 -21.5 -51.5t-55.5 -19.5q-32 0 -53 19.5t-21 51.5z" />
    <glyph glyph-name="Ndotaccent" unicode="&#x1e44;" horiz-adv-x="667" 
d="M196 589l216 -302q15 -21 28.5 -43.5t19.5 -34.5l7 -12h4q-4 54 -4 129v263h121v-589h-113l-217 299q-16 23 -31 47t-22 36l-7 13h-4q6 -53 6 -135v-260h-121v589h117zM259 719q0 33 21 52.5t53 19.5q34 0 55.5 -19t21.5 -53q0 -32 -21.5 -51.5t-55.5 -19.5
q-32 0 -53 19.5t-21 51.5z" />
    <glyph glyph-name="ndotaccent" unicode="&#x1e45;" horiz-adv-x="526" 
d="M166 462l14 -89q36 100 148 100q59 0 98 -36t39 -109v-328h-119v286q0 86 -68 86q-93 0 -93 -114v-258h-119v462h100zM193 596q0 33 21.5 52.5t52.5 19.5q34 0 55.5 -19.5t21.5 -52.5q0 -32 -21.5 -51.5t-55.5 -19.5q-31 0 -52.5 19.5t-21.5 51.5z" />
    <glyph glyph-name="Ndotbelow" unicode="&#x1e46;" horiz-adv-x="667" 
d="M196 589l216 -302q15 -21 28.5 -43.5t19.5 -34.5l7 -12h4q-4 54 -4 129v263h121v-589h-113l-217 299q-16 23 -31 47t-22 36l-7 13h-4q6 -53 6 -135v-260h-121v589h117zM259 -134q0 33 21 52.5t53 19.5q34 0 55.5 -19.5t21.5 -52.5q0 -32 -21.5 -51.5t-55.5 -19.5
q-32 0 -53 19.5t-21 51.5z" />
    <glyph glyph-name="ndotbelow" unicode="&#x1e47;" horiz-adv-x="526" 
d="M166 462l14 -89q36 100 148 100q59 0 98 -36t39 -109v-328h-119v286q0 86 -68 86q-93 0 -93 -114v-258h-119v462h100zM192 -134q0 33 21 52.5t53 19.5q34 0 55.5 -19.5t21.5 -52.5q0 -32 -21.5 -51.5t-55.5 -19.5q-32 0 -53 19.5t-21 51.5z" />
    <glyph glyph-name="Rdotbelow" unicode="&#x1e5a;" horiz-adv-x="571" 
d="M542 0h-135q-19 17 -29 59l-23 93q-9 40 -29.5 53t-60.5 13h-65v-218h-121v589h223q209 0 209 -176q0 -67 -36 -104.5t-95 -42.5v-3q42 -6 65 -26t34 -62l30 -112q12 -41 33 -63zM200 487v-168h94q93 0 93 84t-92 84h-95zM197 -134q0 33 21 52.5t53 19.5q34 0 55.5 -19.5
t21.5 -52.5q0 -32 -21.5 -51.5t-55.5 -19.5q-32 0 -53 19.5t-21 51.5z" />
    <glyph glyph-name="rdotbelow" unicode="&#x1e5b;" horiz-adv-x="381" 
d="M367 472l-12 -132q-22 6 -48 6q-49 0 -85.5 -31.5t-36.5 -95.5v-219h-119v462h103l14 -126q34 144 184 136zM50 -134q0 33 21 52.5t53 19.5q34 0 55.5 -19.5t21.5 -52.5q0 -32 -21.5 -51.5t-55.5 -19.5q-32 0 -53 19.5t-21 51.5z" />
    <glyph glyph-name="Rdotbelowmacron" unicode="&#x1e5c;" horiz-adv-x="571" 
d="M542 0h-135q-19 17 -29 59l-23 93q-9 40 -29.5 53t-60.5 13h-65v-218h-121v589h223q209 0 209 -176q0 -67 -36 -104.5t-95 -42.5v-3q42 -6 65 -26t34 -62l30 -112q12 -41 33 -63zM200 487v-168h94q93 0 93 84t-92 84h-95zM197 -134q0 33 21 52.5t53 19.5q34 0 55.5 -19.5
t21.5 -52.5q0 -32 -21.5 -51.5t-55.5 -19.5q-32 0 -53 19.5t-21 51.5zM417 667h-289v96h289v-96z" />
    <glyph glyph-name="rdotbelowmacron" unicode="&#x1e5d;" horiz-adv-x="381" 
d="M367 472l-12 -132q-22 6 -48 6q-49 0 -85.5 -31.5t-36.5 -95.5v-219h-119v462h103l14 -126q34 144 184 136zM358 545h-283v97h283v-97zM50 -134q0 33 21 52.5t53 19.5q34 0 55.5 -19.5t21.5 -52.5q0 -32 -21.5 -51.5t-55.5 -19.5q-32 0 -53 19.5t-21 51.5z" />
    <glyph glyph-name="Sdotbelow" unicode="&#x1e62;" horiz-adv-x="503" 
d="M24 135l111 44q9 -46 39.5 -72t75.5 -26q40 0 63.5 17t23.5 50q0 32 -22 51t-84 40q-96 31 -140.5 73t-44.5 116q0 90 58.5 132t142.5 42q200 0 215 -154l-120 -28q-4 40 -30 61.5t-63 21.5q-34 0 -55.5 -17t-21.5 -48q0 -33 25 -51t86 -38q93 -31 136 -71t43 -118
q0 -88 -61.5 -130t-159.5 -42q-181 0 -217 147zM180 -134q0 33 21 52.5t53 19.5q34 0 55.5 -19.5t21.5 -52.5q0 -32 -21.5 -51.5t-55.5 -19.5q-32 0 -53 19.5t-21 51.5z" />
    <glyph glyph-name="sdotbelow" unicode="&#x1e63;" horiz-adv-x="436" 
d="M21 106l100 37q13 -71 93 -71q73 0 73 47q0 22 -14.5 35t-48.5 22l-68 16q-118 29 -118 135q0 53 27.5 87t66.5 46.5t90 12.5q166 0 177 -128l-113 -16q-3 29 -20 42t-50 13q-29 0 -45.5 -12t-16.5 -34q0 -39 51 -49l65 -15q134 -30 134 -145q0 -73 -52 -107t-139 -34
q-86 0 -133 27.5t-59 90.5zM146 -134q0 33 21 52.5t53 19.5q34 0 55.5 -19.5t21.5 -52.5q0 -32 -21.5 -51.5t-55.5 -19.5q-32 0 -53 19.5t-21 51.5z" />
    <glyph glyph-name="Tdotbelow" unicode="&#x1e6c;" horiz-adv-x="471" 
d="M295 0h-121v484h-164v105h451v-105h-166v-484zM160 -134q0 33 21 52.5t53 19.5q34 0 55.5 -19.5t21.5 -52.5q0 -32 -21.5 -51.5t-55.5 -19.5q-32 0 -53 19.5t-21 51.5z" />
    <glyph glyph-name="tdotbelow" unicode="&#x1e6d;" horiz-adv-x="370" 
d="M334 117l21 -100q-55 -29 -132 -29q-146 0 -146 143v238h-67v93h68v98l119 14v-112h137v-93h-138v-212q0 -67 58 -67q40 0 80 27zM117 -134q0 33 21 52.5t53 19.5q34 0 55.5 -19.5t21.5 -52.5q0 -32 -21.5 -51.5t-55.5 -19.5q-32 0 -53 19.5t-21 51.5z" />
    <glyph glyph-name="Wgrave" unicode="&#x1e80;" horiz-adv-x="857" 
d="M504 589l79 -339q9 -39 16.5 -80t10.5 -62l3 -22h4q8 78 26 163l75 340h123l-137 -589h-175l-75 310q-9 38 -15 78.5t-7 61.5l-2 22h-4q-4 -76 -25 -163l-77 -309h-171l-137 589h129l76 -338q8 -39 15 -80t10 -63l3 -22h4q8 79 28 164l79 339h144zM490 649h-109l-107 136
h152z" />
    <glyph glyph-name="wgrave" unicode="&#x1e81;" horiz-adv-x="705" 
d="M410 462l55 -202q12 -41 19.5 -84t9.5 -66l2 -22h4q4 77 26 171l50 203h119l-122 -462h-142l-51 183q-9 35 -15.5 72t-8.5 57l-2 19h-4q-5 -68 -25 -149l-46 -182h-141l-128 462h122l53 -203q11 -41 18 -84t9 -65l2 -22h4q5 80 28 172l52 202h112zM415 527h-108l-116 151
h152z" />
    <glyph glyph-name="Wacute" unicode="&#x1e82;" horiz-adv-x="857" 
d="M504 589l79 -339q9 -39 16.5 -80t10.5 -62l3 -22h4q8 78 26 163l75 340h123l-137 -589h-175l-75 310q-9 38 -15 78.5t-7 61.5l-2 22h-4q-4 -76 -25 -163l-77 -309h-171l-137 589h129l76 -338q8 -39 15 -80t10 -63l3 -22h4q8 79 28 164l79 339h144zM476 649h-109l64 136
h152z" />
    <glyph glyph-name="wacute" unicode="&#x1e83;" horiz-adv-x="705" 
d="M410 462l55 -202q12 -41 19.5 -84t9.5 -66l2 -22h4q4 77 26 171l50 203h119l-122 -462h-142l-51 183q-9 35 -15.5 72t-8.5 57l-2 19h-4q-5 -68 -25 -149l-46 -182h-141l-128 462h122l53 -203q11 -41 18 -84t9 -65l2 -22h4q5 80 28 172l52 202h112zM397 527h-107l71 151
h152z" />
    <glyph glyph-name="Wdieresis" unicode="&#x1e84;" horiz-adv-x="857" 
d="M504 589l79 -339q9 -39 16.5 -80t10.5 -62l3 -22h4q8 78 26 163l75 340h123l-137 -589h-175l-75 310q-9 38 -15 78.5t-7 61.5l-2 22h-4q-4 -76 -25 -163l-77 -309h-171l-137 589h129l76 -338q8 -39 15 -80t10 -63l3 -22h4q8 79 28 164l79 339h144zM251 720q0 32 20 51
t49 19q31 0 51 -18.5t20 -51.5q0 -32 -20 -51t-51 -19q-29 0 -49 19t-20 51zM462 719q0 33 19.5 51.5t49.5 18.5q31 0 50.5 -18.5t19.5 -51.5q0 -32 -19.5 -50.5t-50.5 -18.5q-29 0 -49 19t-20 50z" />
    <glyph glyph-name="wdieresis" unicode="&#x1e85;" horiz-adv-x="705" 
d="M410 462l55 -202q12 -41 19.5 -84t9.5 -66l2 -22h4q4 77 26 171l50 203h119l-122 -462h-142l-51 183q-9 35 -15.5 72t-8.5 57l-2 19h-4q-5 -68 -25 -149l-46 -182h-141l-128 462h122l53 -203q11 -41 18 -84t9 -65l2 -22h4q5 80 28 172l52 202h112zM175 596q0 32 20 51
t49 19q31 0 51 -18.5t20 -51.5q0 -32 -20 -51t-51 -19q-29 0 -49 19t-20 51zM386 595q0 33 19.5 51.5t49.5 18.5q31 0 50.5 -18.5t19.5 -51.5q0 -32 -19.5 -50.5t-50.5 -18.5q-29 0 -49 19t-20 50z" />
    <glyph glyph-name="Idotbelow" unicode="&#x1eca;" horiz-adv-x="279" 
d="M79 589h121v-589h-121v589zM65 -134q0 33 21 52.5t53 19.5q34 0 55.5 -19.5t21.5 -52.5q0 -32 -21.5 -51.5t-55.5 -19.5q-32 0 -53 19.5t-21 51.5z" />
    <glyph glyph-name="idotbelow" unicode="&#x1ecb;" horiz-adv-x="251" 
d="M51 605q0 33 21.5 52.5t52.5 19.5q33 0 55 -19.5t22 -52.5q0 -32 -22 -51t-55 -19q-31 0 -52.5 19t-21.5 51zM66 462h119v-462h-119v462zM51 -134q0 33 21 52.5t53 19.5q34 0 55.5 -19.5t21.5 -52.5q0 -32 -21.5 -51.5t-55.5 -19.5q-32 0 -53 19.5t-21 51.5z" />
    <glyph glyph-name="Odotbelow" unicode="&#x1ecc;" horiz-adv-x="634" 
d="M317 -12q-129 0 -202 80t-73 226q0 147 73 227t202 80t202 -80t73 -227q0 -146 -73 -226t-202 -80zM317 493q-73 0 -111 -52.5t-38 -147.5t38 -147.5t111 -52.5t110.5 52.5t37.5 147.5t-38 147.5t-110 52.5zM242 -134q0 33 21 52.5t53 19.5q34 0 55.5 -19.5t21.5 -52.5
q0 -32 -21.5 -51.5t-55.5 -19.5q-32 0 -53 19.5t-21 51.5z" />
    <glyph glyph-name="odotbelow" unicode="&#x1ecd;" horiz-adv-x="510" 
d="M255 -12q-101 0 -160 64.5t-59 180.5t59 178t160 62t160 -62t59 -178t-59 -180.5t-160 -64.5zM255 377q-101 0 -101 -145q0 -151 101 -151q102 0 102 151q0 145 -102 145zM180 -134q0 33 21 52.5t53 19.5q34 0 55.5 -19.5t21.5 -52.5q0 -32 -21.5 -51.5t-55.5 -19.5
q-32 0 -53 19.5t-21 51.5z" />
    <glyph glyph-name="Udotbelow" unicode="&#x1ee4;" horiz-adv-x="599" 
d="M416 589h121v-393q0 -57 -19 -98.5t-53 -64.5t-75 -34t-90 -11q-105 0 -171.5 49t-66.5 159v393h121v-360q0 -71 27 -105.5t90 -34.5q62 0 89 34.5t27 105.5v360zM224 -134q0 33 21 52.5t53 19.5q34 0 55.5 -19.5t21.5 -52.5q0 -32 -21.5 -51.5t-55.5 -19.5
q-32 0 -53 19.5t-21 51.5z" />
    <glyph glyph-name="udotbelow" unicode="&#x1ee5;" horiz-adv-x="523" 
d="M354 0l-14 85q-27 -97 -143 -97q-139 0 -139 150v324h119v-294q0 -90 70 -90q38 0 64.5 32.5t26.5 95.5v256h119v-462h-103zM183 -134q0 33 21 52.5t53 19.5q34 0 55.5 -19.5t21.5 -52.5q0 -32 -21.5 -51.5t-55.5 -19.5q-32 0 -53 19.5t-21 51.5z" />
    <glyph glyph-name="Ygrave" unicode="&#x1ef2;" horiz-adv-x="525" 
d="M148 589l76 -156q16 -33 27 -62.5t13 -42.5l3 -13h4q6 45 42 118l74 156h128l-186 -384v-205h-121v205l-198 384h138zM324 649h-109l-107 136h152z" />
    <glyph glyph-name="ygrave" unicode="&#x1ef3;" horiz-adv-x="469" 
d="M134 462l67 -225q12 -40 20 -77t11 -54l2 -17h4q7 58 34 148l68 225h125l-178 -502q-36 -99 -82.5 -133.5t-121.5 -34.5q-35 0 -77 11l16 104q27 -15 60 -15q34 0 55.5 18.5t37.5 63.5l-171 488h130zM300 527h-108l-116 151h152z" />
    <glyph glyph-name="Ytilde" unicode="&#x1ef8;" horiz-adv-x="525" 
d="M148 589l76 -156q16 -33 27 -62.5t13 -42.5l3 -13h4q6 45 42 118l74 156h128l-186 -384v-205h-121v205l-198 384h138zM336 650q-33 0 -74 23q-44 25 -58 25q-38 0 -31 -48h-68q-25 54 1.5 100t81.5 46q33 0 72 -22q44 -26 59 -26q34 0 27 47h71q24 -59 0.5 -102
t-81.5 -43z" />
    <glyph glyph-name="ytilde" unicode="&#x1ef9;" horiz-adv-x="469" 
d="M134 462l67 -225q12 -40 20 -77t11 -54l2 -17h4q7 58 34 148l68 225h125l-178 -502q-36 -99 -82.5 -133.5t-121.5 -34.5q-35 0 -77 11l16 104q27 -15 60 -15q34 0 55.5 18.5t37.5 63.5l-171 488h130zM313 524q-36 0 -74 23q-44 25 -58 25q-38 0 -31 -49h-68
q-25 55 1 100.5t82 45.5q31 0 72 -23q44 -26 59 -26q34 0 27 47h71q24 -58 0.5 -100.5t-81.5 -42.5z" />
    <glyph glyph-name="enspace" unicode="&#x2002;" horiz-adv-x="450" 
 />
    <glyph glyph-name="emspace" unicode="&#x2003;" horiz-adv-x="900" 
 />
    <glyph glyph-name="threeperemspace" unicode="&#x2004;" horiz-adv-x="300" 
 />
    <glyph glyph-name="fourperemspace" unicode="&#x2005;" horiz-adv-x="225" 
 />
    <glyph glyph-name="sixperemspace" unicode="&#x2006;" horiz-adv-x="150" 
 />
    <glyph glyph-name="figurespace" unicode="&#x2007;" horiz-adv-x="513" 
 />
    <glyph glyph-name="punctuationspace" unicode="&#x2008;" horiz-adv-x="171" 
 />
    <glyph glyph-name="thinspace" unicode="&#x2009;" horiz-adv-x="90" 
 />
    <glyph glyph-name="hairspace" unicode="&#x200a;" horiz-adv-x="45" 
 />
    <glyph glyph-name="zerowidthspace" unicode="&#x200b;" horiz-adv-x="0" 
 />
    <glyph glyph-name="figuredash" unicode="&#x2012;" horiz-adv-x="587" 
d="M64 213v81h459v-81h-459z" />
    <glyph glyph-name="endash" unicode="&#x2013;" horiz-adv-x="500" 
d="M64 213v81h372v-81h-372z" />
    <glyph glyph-name="emdash" unicode="&#x2014;" horiz-adv-x="1000" 
d="M64 213v81h872v-81h-872z" />
    <glyph glyph-name="uni2015" unicode="&#x2015;" horiz-adv-x="1250" 
d="M64 213v81h1122v-81h-1122z" />
    <glyph glyph-name="doublebar" unicode="&#x2016;" horiz-adv-x="485" 
d="M197 -203h-97v871h97v-871zM385 -203h-97v871h97v-871z" />
    <glyph glyph-name="quoteleft" unicode="&#x2018;" horiz-adv-x="243" 
d="M34 516q0 161 175 164v-51q-91 -10 -91 -75q35 6 59.5 -12.5t24.5 -54.5q0 -35 -22 -54t-57 -19q-39 0 -64 28t-25 74z" />
    <glyph glyph-name="quoteright" unicode="&#x2019;" horiz-adv-x="243" 
d="M209 578q0 -159 -175 -164v51q90 10 90 75q-34 -5 -59 13t-25 54q0 35 22.5 54t56.5 19q39 0 64.5 -28t25.5 -74z" />
    <glyph glyph-name="quotesinglbase" unicode="&#x201a;" horiz-adv-x="243" 
d="M209 39q0 -159 -175 -164v51q90 10 90 75q-34 -5 -59 13t-25 54q0 35 22.5 54t56.5 19q39 0 64.5 -28t25.5 -74z" />
    <glyph glyph-name="reversequoteleft" unicode="&#x201b;" horiz-adv-x="243" 
d="M34 578q0 46 25.5 74t64.5 28q34 0 56.5 -19t22.5 -54q0 -36 -25 -54t-59 -13q0 -65 90 -75v-51q-175 5 -175 164z" />
    <glyph glyph-name="quotedblleft" unicode="&#x201c;" horiz-adv-x="462" 
d="M34 516q0 161 175 164v-51q-91 -10 -91 -75q35 6 59.5 -12.5t24.5 -54.5q0 -35 -22 -54t-57 -19q-39 0 -64 28t-25 74zM253 516q0 161 175 164v-51q-91 -10 -91 -75q35 6 59.5 -12.5t24.5 -54.5q0 -35 -22 -54t-57 -19q-39 0 -64 28t-25 74z" />
    <glyph glyph-name="quotedblright" unicode="&#x201d;" horiz-adv-x="462" 
d="M209 578q0 -161 -175 -164v51q91 10 91 75q-35 -6 -59.5 12.5t-24.5 54.5q0 35 22 54t57 19q39 0 64 -28t25 -74zM428 578q0 -161 -175 -164v51q91 10 91 75q-35 -6 -59.5 12.5t-24.5 54.5q0 35 22 54t57 19q39 0 64 -28t25 -74z" />
    <glyph glyph-name="quotedblbase" unicode="&#x201e;" horiz-adv-x="462" 
d="M209 39q0 -161 -175 -164v51q91 10 91 75q-35 -6 -59.5 12.5t-24.5 54.5q0 35 22 54t57 19q39 0 64 -28t25 -74zM428 39q0 -161 -175 -164v51q91 10 91 75q-35 -6 -59.5 12.5t-24.5 54.5q0 35 22 54t57 19q39 0 64 -28t25 -74z" />
    <glyph glyph-name="reversequotedblleft" unicode="&#x201f;" horiz-adv-x="462" 
d="M34 578q0 46 25 74t64 28q35 0 57 -19t22 -54q0 -36 -24.5 -54.5t-59.5 -12.5q0 -65 91 -75v-51q-175 3 -175 164zM253 578q0 46 25 74t64 28q35 0 57 -19t22 -54q0 -36 -24.5 -54.5t-59.5 -12.5q0 -65 91 -75v-51q-175 3 -175 164z" />
    <glyph glyph-name="dagger" unicode="&#x2020;" horiz-adv-x="551" 
d="M226 265l-182 -11v111l181 -10l-10 234h121l-10 -234l181 10v-111l-181 11l10 -415h-120z" />
    <glyph glyph-name="daggerdbl" unicode="&#x2021;" horiz-adv-x="551" 
d="M326 299l-1 -148l182 10v-110l-181 11l10 -212h-119l10 212l-183 -11v110l182 -10v148l-182 -11v111l182 -11l-10 201h120l-11 -201l182 11v-111z" />
    <glyph glyph-name="bullet" unicode="&#x2022;" horiz-adv-x="349" 
d="M67 252q0 44 31.5 76t75.5 32t76 -32t32 -76t-32 -75.5t-76 -31.5t-75.5 31.5t-31.5 75.5z" />
    <glyph glyph-name="ellipsis" unicode="&#x2026;" horiz-adv-x="870" 
d="M65 73q0 35 23 58.5t56 23.5q35 0 58 -23.5t23 -58.5q0 -33 -23.5 -55.5t-57.5 -22.5q-33 0 -56 22.5t-23 55.5zM355 73q0 35 23 58.5t56 23.5q35 0 58 -23.5t23 -58.5q0 -33 -23.5 -55.5t-57.5 -22.5q-33 0 -56 22.5t-23 55.5zM645 73q0 35 23 58.5t56 23.5
q35 0 58 -23.5t23 -58.5q0 -33 -23.5 -55.5t-57.5 -22.5q-33 0 -56 22.5t-23 55.5z" />
    <glyph glyph-name="perthousand" unicode="&#x2030;" horiz-adv-x="1226" 
d="M178 229q-74 0 -111.5 50.5t-37.5 133.5q0 81 39.5 132.5t109.5 51.5t109.5 -51.5t39.5 -132.5q0 -83 -38 -133.5t-111 -50.5zM178 519q-29 0 -44.5 -29t-15.5 -79q0 -48 16 -78t44 -30t44 30t16 78q0 50 -15.5 79t-44.5 29zM247 0l305 589h75l-307 -589h-73zM699 -7
q-74 0 -111.5 50.5t-37.5 133.5q0 81 39.5 132.5t109.5 51.5t109.5 -51.5t39.5 -132.5q0 -83 -38 -133.5t-111 -50.5zM699 283q-29 0 -44.5 -29t-15.5 -79q0 -48 16 -78t44 -30t44 30t16 78q0 50 -15.5 79t-44.5 29zM1049 -7q-74 0 -111.5 50.5t-37.5 133.5q0 81 39.5 132.5
t109.5 51.5t109.5 -51.5t39.5 -132.5q0 -83 -38 -133.5t-111 -50.5zM1049 283q-29 0 -44.5 -29t-15.5 -79q0 -48 16 -78t44 -30t44 30t16 78q0 50 -15.5 79t-44.5 29z" />
    <glyph glyph-name="tripleprime" unicode="&#x2034;" horiz-adv-x="559" 
d="M63 412v256h120l-48 -256h-72zM230 412v256h120l-48 -256h-72zM396 412v256h120l-48 -256h-72z" />
    <glyph glyph-name="guilsinglleft" unicode="&#x2039;" horiz-adv-x="315" 
d="M137 236v-4q20 -6 53 -43l95 -108l-61 -58l-194 212l194 213l61 -61l-95 -107q-15 -16 -28.5 -27t-19.5 -14z" />
    <glyph glyph-name="guilsinglright" unicode="&#x203a;" horiz-adv-x="315" 
d="M178 232v4q-19 7 -52 44l-95 107l60 61l194 -213l-194 -212l-61 58l95 108q15 16 28 27t19 14z" />
    <glyph glyph-name="fraction" unicode="&#x2044;" horiz-adv-x="168" 
d="M-106 0l305 589h75l-307 -589h-73z" />
    <glyph glyph-name="uni2070" unicode="&#x2070;" horiz-adv-x="356" 
d="M178 229q-74 0 -111.5 50.5t-37.5 133.5q0 81 39.5 132.5t109.5 51.5t109.5 -51.5t39.5 -132.5q0 -83 -38 -133.5t-111 -50.5zM178 519q-29 0 -44.5 -29t-15.5 -79q0 -48 16 -78t44 -30t44 30t16 78q0 50 -15.5 79t-44.5 29z" />
    <glyph glyph-name="uni2074" unicode="&#x2074;" horiz-adv-x="350" 
d="M188 236v75h-176v63l177 215h89v-212h52v-66h-52v-75h-90zM190 375v71l4 71h-4q-9 -25 -31 -53l-35 -44q-10 -12 -22 -23.5t-18 -16.5l-7 -6v-4q19 5 56 5h57z" />
    <glyph glyph-name="uni2075" unicode="&#x2075;" horiz-adv-x="324" 
d="M45 386l9 203h224v-74h-155l-4 -75q22 25 71 25q48 0 77.5 -29.5t29.5 -81.5q0 -61 -40.5 -93t-107.5 -32q-57 0 -92 22t-43 62l77 35q8 -52 61 -52q59 0 59 55q0 25 -13.5 39.5t-34.5 14.5q-28 0 -44 -19h-74z" />
    <glyph glyph-name="uni2076" unicode="&#x2076;" horiz-adv-x="339" 
d="M306 536l-62 -47q-15 36 -57 36q-75 0 -75 -126h4q16 61 89 61q49 0 79 -31t30 -80q0 -54 -37 -87t-102 -33q-69 0 -107.5 44.5t-38.5 130.5q0 94 46 143.5t116 49.5q80 0 115 -61zM128 347q0 -24 15 -38t38 -14t38.5 14.5t15.5 37.5q0 24 -15.5 38.5t-37.5 14.5
q-24 0 -39 -14.5t-15 -38.5z" />
    <glyph glyph-name="uni2077" unicode="&#x2077;" horiz-adv-x="313" 
d="M203 515h-111v-55h-75v129h283v-61l-135 -292h-95z" />
    <glyph glyph-name="uni2078" unicode="&#x2078;" horiz-adv-x="345" 
d="M173 384q-22 0 -37.5 -11.5t-15.5 -34.5q0 -20 14.5 -32.5t38.5 -12.5t38 12.5t14 32.5q0 23 -15 34.5t-37 11.5zM173 229q-65 0 -103.5 25.5t-38.5 73.5q0 34 21 56.5t59 28.5v4q-34 4 -52.5 26t-18.5 52q0 47 35.5 74.5t97.5 27.5q61 0 96.5 -27.5t35.5 -74.5
q0 -30 -18.5 -52t-52.5 -26v-4q38 -6 59 -28.5t21 -56.5q0 -48 -38.5 -73.5t-102.5 -25.5zM173 534q-23 0 -36.5 -12t-13.5 -31t14.5 -29.5t35.5 -10.5q20 0 35 10.5t15 29.5t-13.5 31t-36.5 12z" />
    <glyph glyph-name="uni2079" unicode="&#x2079;" horiz-adv-x="339" 
d="M31 290l62 47q17 -36 57 -36q77 0 77 126h-4q-16 -61 -90 -61q-48 0 -78 31t-30 80q0 54 37 87t102 33q69 0 107.5 -44.5t38.5 -130.5q0 -94 -46 -143.5t-116 -49.5q-80 0 -117 61zM211 478q0 24 -15 38t-39 14q-23 0 -38 -14t-15 -38t15 -39t38 -15q24 0 39 15t15 39z
" />
    <glyph glyph-name="uni207A" unicode="&#x207a;" horiz-adv-x="444" 
d="M45 448h146v141h59v-141h149v-59h-149v-153h-59v153h-146v59z" />
    <glyph glyph-name="uni207B" unicode="&#x207b;" horiz-adv-x="444" 
d="M399 389h-354v59h354v-59z" />
    <glyph glyph-name="uni207C" unicode="&#x207c;" horiz-adv-x="444" 
d="M399 330h-354v59h354v-59zM399 458h-354v59h354v-59z" />
    <glyph glyph-name="uni207D" unicode="&#x207d;" horiz-adv-x="231" 
d="M110 408q0 -67 21 -116t64 -110h-70q-79 105 -79 226q0 123 79 228h70q-42 -59 -63.5 -109.5t-21.5 -118.5z" />
    <glyph glyph-name="uni207E" unicode="&#x207e;" horiz-adv-x="231" 
d="M131 408q0 68 -21.5 118.5t-63.5 109.5h70q79 -105 79 -228q0 -121 -79 -226h-70q43 61 64 110t21 116z" />
    <glyph glyph-name="n.superior" unicode="&#x207f;" horiz-adv-x="407" 
d="M138 593l11 -59q23 67 102 67q45 0 74.5 -26t29.5 -80v-208h-96v183q0 59 -45 59q-62 0 -62 -79v-163h-95v306h81z" />
    <glyph glyph-name="uni2080" unicode="&#x2080;" horiz-adv-x="356" 
d="M178 -7q-74 0 -111.5 50.5t-37.5 133.5q0 81 39.5 132.5t109.5 51.5t109.5 -51.5t39.5 -132.5q0 -83 -38 -133.5t-111 -50.5zM178 283q-29 0 -44.5 -29t-15.5 -79q0 -48 16 -78t44 -30t44 30t16 78q0 50 -15.5 79t-44.5 29z" />
    <glyph glyph-name="uni2081" unicode="&#x2081;" horiz-adv-x="309" 
d="M293 0h-258v67h89v203l-98 -9v71l187 21v-286h80v-67z" />
    <glyph glyph-name="uni2082" unicode="&#x2082;" horiz-adv-x="325" 
d="M301 70v-70h-274v60q95 68 131 104t36 74q0 45 -44 45q-23 0 -38 -17t-15 -47l-75 31q2 46 38 78.5t100 32.5q57 0 92.5 -29t35.5 -83q0 -103 -147 -175v-4h160z" />
    <glyph glyph-name="uni2083" unicode="&#x2083;" horiz-adv-x="322" 
d="M193 181v-2q98 -7 98 -90q0 -46 -38 -71t-105 -25q-56 0 -93 21.5t-45 59.5l75 30q11 -46 64 -46q48 0 48 38q0 51 -94 52v54q87 2 87 50q0 38 -40 38q-43 0 -51 -41l-73 27q7 40 42.5 62.5t89.5 22.5t87.5 -23.5t33.5 -69.5q0 -72 -86 -87z" />
    <glyph glyph-name="uni2084" unicode="&#x2084;" horiz-adv-x="350" 
d="M188 0v75h-176v63l177 215h89v-212h52v-66h-52v-75h-90zM190 139v71l4 71h-4q-9 -25 -31 -53l-35 -44q-10 -12 -22 -23.5t-18 -16.5l-7 -6v-4q19 5 56 5h57z" />
    <glyph glyph-name="uni2085" unicode="&#x2085;" horiz-adv-x="324" 
d="M45 150l9 203h224v-74h-155l-4 -75q22 25 71 25q48 0 77.5 -29.5t29.5 -81.5q0 -61 -40.5 -93t-107.5 -32q-57 0 -92 22t-43 62l77 35q8 -52 61 -52q59 0 59 55q0 25 -13.5 39.5t-34.5 14.5q-28 0 -44 -19h-74z" />
    <glyph glyph-name="uni2086" unicode="&#x2086;" horiz-adv-x="339" 
d="M306 300l-62 -47q-15 36 -57 36q-75 0 -75 -126h4q16 61 89 61q49 0 79 -31t30 -80q0 -54 -37 -87t-102 -33q-69 0 -107.5 44.5t-38.5 130.5q0 94 46 143.5t116 49.5q80 0 115 -61zM128 111q0 -24 15 -38t38 -14t38.5 14.5t15.5 37.5q0 24 -15.5 38.5t-37.5 14.5
q-24 0 -39 -14.5t-15 -38.5z" />
    <glyph glyph-name="uni2087" unicode="&#x2087;" horiz-adv-x="313" 
d="M203 279h-111v-55h-75v129h283v-61l-135 -292h-95z" />
    <glyph glyph-name="uni2088" unicode="&#x2088;" horiz-adv-x="345" 
d="M173 148q-22 0 -37.5 -11.5t-15.5 -34.5q0 -20 14.5 -32.5t38.5 -12.5t38 12.5t14 32.5q0 23 -15 34.5t-37 11.5zM173 -7q-65 0 -103.5 25.5t-38.5 73.5q0 34 21 56.5t59 28.5v4q-34 4 -52.5 26t-18.5 52q0 47 35.5 74.5t97.5 27.5q61 0 96.5 -27.5t35.5 -74.5
q0 -30 -18.5 -52t-52.5 -26v-4q38 -6 59 -28.5t21 -56.5q0 -48 -38.5 -73.5t-102.5 -25.5zM173 298q-23 0 -36.5 -12t-13.5 -31t14.5 -29.5t35.5 -10.5q20 0 35 10.5t15 29.5t-13.5 31t-36.5 12z" />
    <glyph glyph-name="uni2089" unicode="&#x2089;" horiz-adv-x="339" 
d="M31 54l62 47q17 -36 57 -36q77 0 77 126h-4q-16 -61 -90 -61q-48 0 -78 31t-30 80q0 54 37 87t102 33q69 0 107.5 -44.5t38.5 -130.5q0 -94 -46 -143.5t-116 -49.5q-80 0 -117 61zM211 242q0 24 -15 38t-39 14q-23 0 -38 -14t-15 -38t15 -39t38 -15q24 0 39 15t15 39z
" />
    <glyph glyph-name="uni208A" unicode="&#x208a;" horiz-adv-x="444" 
d="M45 212h146v142h59v-142h149v-58h-149v-154h-59v154h-146v58z" />
    <glyph glyph-name="uni208B" unicode="&#x208b;" horiz-adv-x="444" 
d="M399 153h-354v59h354v-59z" />
    <glyph glyph-name="uni208C" unicode="&#x208c;" horiz-adv-x="444" 
d="M399 95h-354v58h354v-58zM399 222h-354v60h354v-60z" />
    <glyph glyph-name="uni208D" unicode="&#x208d;" horiz-adv-x="231" 
d="M110 173q0 -68 21 -116.5t64 -110.5h-70q-37 50 -58 102t-21 125q0 122 79 227h70q-42 -59 -63.5 -109.5t-21.5 -117.5z" />
    <glyph glyph-name="uni208E" unicode="&#x208e;" horiz-adv-x="231" 
d="M131 173q0 67 -21.5 117.5t-63.5 109.5h70q79 -105 79 -227q0 -73 -21 -125t-58 -102h-70q43 62 64 110.5t21 116.5z" />
    <glyph glyph-name="uni20A1" unicode="&#x20a1;" horiz-adv-x="514" 
d="M109 -67l32 91q-97 63 -97 215q0 122 65 188t178 66q14 0 21 -1l29 82l47 -17l-26 -72q22 -6 38 -15l28 78l47 -17l-32 -91q27 -27 47 -72l-89 -45l-86 -241q53 11 81 73l94 -59q-33 -57 -82.5 -82.5t-126.5 -25.5l-34 -97l-47 16l30 85q-26 6 -39 10l-30 -86zM162 242
q0 -61 20 -103l94 263q-54 -2 -84 -42.5t-30 -117.5zM221 96q18 -11 37 -14l101 283q-13 18 -33 27z" />
    <glyph glyph-name="uni20A2" unicode="&#x20a2;" horiz-adv-x="520" 
d="M403 150l85 -54q-33 -57 -82.5 -82.5t-126.5 -25.5q-106 0 -169.5 64.5t-63.5 186.5t65 188t178 66q76 0 124 -30.5t75 -94.5l-103 -52q-27 86 -104 86q-55 0 -86 -41t-31 -119q0 -130 78 -161v193h73l9 -67q18 74 99 74l-8 -93q-13 5 -26 5q-25 0 -44.5 -13.5
t-19.5 -46.5v-54q51 13 78 71z" />
    <glyph glyph-name="franc" unicode="&#x20a3;" horiz-adv-x="462" 
d="M368 145h-146v-145h-120v145h-66v52h66v48h-66v52h66v184h343v-98h-223v-86h146v-52h-146v-48h146v-52z" />
    <glyph glyph-name="lira" unicode="&#x20a4;" horiz-adv-x="509" 
d="M338 157h-104q-8 -44 -40 -59h139q28 0 46.5 9.5t27.5 38.5l84 -48q-8 -47 -45.5 -72.5t-92.5 -25.5h-301v99h31q47 0 49 58h-94v52h83q-3 7 -9 19.5t-8 16.5h-66v52h49q-3 18 -3 43q0 71 53 112t127 41q159 0 178 -135l-106 -25q-13 66 -72 66q-71 0 -71 -69
q0 -16 5 -33h140v-52h-116q8 -18 11 -36h105v-52z" />
    <glyph glyph-name="uni20A6" unicode="&#x20a6;" horiz-adv-x="687" 
d="M656 155h-77v-155h-113l-176 225q-18 24 -33.5 47.5t-22.5 35.5l-6 12h-4q5 -58 5 -139v-181h-120v155h-78v52h78v50h-77v52h77v172h130l165 -218q17 -23 31 -44.5t19 -32.5l5 -10h4q-4 60 -4 135v170h120v-172h76v-52h-76v-50h77v-52z" />
    <glyph glyph-name="peseta" unicode="&#x20a7;" horiz-adv-x="1235" 
d="M198 0h-120v481h188q152 0 193 -90h341q17 53 67.5 77.5t118.5 24.5q85 0 133 -33.5t52 -99.5l-117 -13q-4 59 -75 59q-31 0 -49 -13.5t-18 -38.5q0 -45 56 -56l69 -14q68 -13 104 -52.5t36 -98.5q0 -75 -54 -110t-145 -35q-178 0 -200 124l97 35q17 -73 109 -73
q76 0 76 49q0 24 -14 35.5t-52 21.5l-73 16q-99 22 -121 97h-111v-293h-120v293h-94q-4 -83 -55.5 -125t-145.5 -42h-76v-126zM198 385v-163h61q50 0 72.5 18.5t22.5 64.5q0 43 -22.5 61.5t-71.5 18.5h-62z" />
    <glyph glyph-name="uni20A8" unicode="&#x20a8;" horiz-adv-x="866" 
d="M198 385v-133h76q41 0 59.5 15.5t18.5 50.5q0 67 -78 67h-76zM286 481q190 0 190 -152q0 -59 -33.5 -89.5t-90.5 -34.5v-4q18 -2 33.5 -7.5t22.5 -9.5t23 -16.5t22 -16.5l75 -48q51 -37 125 -37q54 0 54 29q0 14 -9.5 22.5t-34.5 13.5l-58 13q-90 21 -90 107
q0 60 42.5 86.5t106.5 26.5q137 0 143 -100l-96 -10q-4 40 -53 40q-41 0 -41 -31q0 -14 9 -22t33 -13l43 -9q58 -12 84 -41.5t26 -80.5q0 -109 -169 -109q-85 0 -140.5 17t-104.5 56l-59 46q-50 40 -73 47q-16 6 -33 6h-35v-160h-120v481h208z" />
    <glyph glyph-name="uni20A9" unicode="&#x20a9;" horiz-adv-x="881" 
d="M841 168h-126l-42 -168h-148l-62 228q-8 30 -13.5 65t-7.5 55l-1 20h-3q-3 -70 -22 -141l-60 -227h-149l-42 168h-125v51h112l-13 51h-98v51h86l-40 160h125l61 -258q8 -32 13 -66.5t6 -52.5l1 -19h3q5 67 22 137l63 259h123l65 -258q8 -32 13.5 -66t7.5 -53l1 -18h3
q2 67 18 136l63 259h119l-40 -160h86v-51h-99l-13 -51h113v-51z" />
    <glyph glyph-name="uni20AA" unicode="&#x20aa;" horiz-adv-x="790" 
d="M535 142h-105v187q0 62 -66 62h-159v-391h-121v481h298q84 0 118.5 -39.5t34.5 -112.5v-187zM596 481h120v-329q0 -74 -34.5 -113t-118.5 -39h-297v338h105v-248h162q32 0 47.5 16.5t15.5 43.5v331z" />
    <glyph glyph-name="Euro" unicode="&#x20ac;" horiz-adv-x="552" 
d="M340 163h-118q24 -78 102 -78q38 0 62 17t42 55l94 -61q-31 -57 -80 -82.5t-124 -25.5q-85 0 -143 44.5t-76 130.5h-75v52h68v24q0 18 1 27h-69v52h76q19 84 78.5 129.5t150.5 45.5q142 0 192 -125l-101 -54q-27 83 -99 83q-76 0 -100 -79h146l-10 -52h-146v-24
q0 -19 1 -27h138z" />
    <glyph glyph-name="uni20AE" unicode="&#x20ae;" horiz-adv-x="473" 
d="M295 0h-120v124l-104 -18v51l104 18v49l-104 -18v51l104 18v108h-155v98h433v-98h-158v-88l104 18v-51l-104 -18v-49l104 18v-51l-104 -18v-144z" />
    <glyph glyph-name="uni20B1" unicode="&#x20b1;" horiz-adv-x="589" 
d="M569 274h-73q-16 -148 -199 -148h-75v-126h-120v274h-72v52h72v155h187q197 0 208 -155h72v-52zM222 390v-64h154q-10 64 -92 64h-62zM283 216q80 0 92 58h-153v-58h61z" />
    <glyph glyph-name="afii61289" unicode="&#x2113;" horiz-adv-x="375" 
d="M39 123l-30 53l75 52v236q0 108 37.5 156.5t112.5 48.5q123 0 123 -128q0 -197 -162 -332v-43q0 -44 15 -60.5t48 -16.5q32 0 62 14l-5 -100q-47 -15 -92 -15q-63 0 -101 30t-38 97v39zM195 487v-199q95 91 95 255q0 57 -44 57q-51 0 -51 -113z" />
    <glyph glyph-name="afii61352" unicode="&#x2116;" horiz-adv-x="1026" 
d="M673 0v87h305v-87h-305zM202 246v-103q0 -85 -38 -122t-116 -44l-24 111q30 3 43.5 19t13.5 55v427h116l204 -290q15 -21 29 -43.5t20 -34.5l6 -12h4q-3 54 -3 129v98q0 84 38.5 121.5t115.5 44.5l23 -112q-30 -3 -43 -18.5t-13 -54.5v-417h-113l-205 287q-17 23 -32 47
t-22 36l-6 13h-4q6 -55 6 -137zM824 152q-71 0 -113 43t-42 120q0 76 42 117.5t113 41.5t112.5 -41.5t41.5 -117.5q0 -77 -42 -120t-112 -43zM823 401q-53 0 -53 -88q0 -90 53 -90t53 90q0 88 -53 88z" />
    <glyph glyph-name="published" unicode="&#x2117;" horiz-adv-x="703" 
d="M379 228h-54v-116h-99v373h156q144 0 144 -126q0 -69 -40.5 -100t-106.5 -31zM325 405v-101h44q59 0 59 51q0 50 -59 50h-44zM45 294q0 132 89 219.5t217 87.5t217.5 -87.5t89.5 -219.5t-89.5 -219t-217.5 -87t-217 87t-89 219zM76 294q0 -120 80.5 -198.5t196.5 -78.5
q115 0 195 78.5t80 198.5t-80 199t-195 79q-116 0 -196.5 -79t-80.5 -199z" />
    <glyph glyph-name="servicemark" unicode="&#x2120;" horiz-adv-x="613" 
d="M20 402l60 19q10 -36 50 -36q34 0 34 23q0 20 -32 27l-38 9q-31 7 -48 26t-17 46q0 79 105 79q98 0 102 -68l-68 -9q-3 27 -36 27q-30 0 -30 -22q0 -20 29 -26l31 -7q37 -7 56.5 -27.5t19.5 -51.5q0 -74 -108 -74q-98 0 -110 65zM569 341h-68v147h-5l-43 -91h-46l-43 91
h-5v-147h-69v248h79l60 -115h2l60 115h78v-248z" />
    <glyph glyph-name="trademark" unicode="&#x2122;" horiz-adv-x="605" 
d="M158 341h-68v191h-70v57h209v-57h-71v-191zM561 341h-68v146h-5l-43 -90h-46l-43 90h-5v-146h-69v248h79l60 -115h2l60 115h78v-248z" />
    <glyph glyph-name="ohm" unicode="&#x2126;" horiz-adv-x="670" 
d="M335 494q-72 0 -110 -50.5t-38 -136.5q0 -74 28 -125t69 -73v-109h-228v109h115q-45 22 -78 79.5t-33 131.5q0 129 74 205t201 76t201 -76t74 -205q0 -74 -33 -131.5t-78 -79.5h116v-109h-229v109q41 21 69 72.5t28 125.5q0 86 -38 136.5t-110 50.5z" />
    <glyph glyph-name="estimated" unicode="&#x212e;" horiz-adv-x="647" 
d="M323 601q71 0 126 -25.5t87.5 -69.5t49 -98t16.5 -114v-26h-431v-169q58 -58 152 -58q130 0 184 104h66q-30 -73 -93 -115t-157 -42q-93 0 -157.5 45t-92.5 112.5t-28 148.5q0 82 28 149.5t92.5 112.5t157.5 45zM323 548q-96 0 -152 -58v-170h305v170q-56 58 -153 58z
" />
    <glyph glyph-name="uni2153" unicode="&#x2153;" horiz-adv-x="868" 
d="M307 236h-258v67h89v203l-98 -9v71l187 21v-286h80v-67zM244 0l305 589h75l-307 -589h-73zM711 181v-2q98 -7 98 -90q0 -46 -38 -71t-105 -25q-56 0 -93 21.5t-45 59.5l75 30q11 -46 64 -46q48 0 48 38q0 51 -94 52v54q87 2 87 50q0 38 -40 38q-43 0 -51 -41l-73 27
q7 40 42.5 62.5t89.5 22.5t87.5 -23.5t33.5 -69.5q0 -72 -86 -87z" />
    <glyph glyph-name="uni2154" unicode="&#x2154;" horiz-adv-x="868" 
d="M319 306v-70h-274v60q95 68 131 104t36 74q0 45 -44 45q-23 0 -38 -17t-15 -47l-75 31q2 46 38 78.5t100 32.5q57 0 92.5 -29t35.5 -83q0 -103 -147 -175v-4h160zM244 0l305 589h75l-307 -589h-73zM711 181v-2q98 -7 98 -90q0 -46 -38 -71t-105 -25q-56 0 -93 21.5
t-45 59.5l75 30q11 -46 64 -46q48 0 48 38q0 51 -94 52v54q87 2 87 50q0 38 -40 38q-43 0 -51 -41l-73 27q7 40 42.5 62.5t89.5 22.5t87.5 -23.5t33.5 -69.5q0 -72 -86 -87z" />
    <glyph glyph-name="uni215B" unicode="&#x215b;" horiz-adv-x="868" 
d="M307 236h-258v67h89v203l-98 -9v71l187 21v-286h80v-67zM244 0l305 589h75l-307 -589h-73zM691 148q-22 0 -37.5 -11.5t-15.5 -34.5q0 -20 14.5 -32.5t38.5 -12.5t38 12.5t14 32.5q0 23 -15 34.5t-37 11.5zM691 -7q-65 0 -103.5 25.5t-38.5 73.5q0 34 21 56.5t59 28.5v4
q-34 4 -52.5 26t-18.5 52q0 47 35.5 74.5t97.5 27.5q61 0 96.5 -27.5t35.5 -74.5q0 -30 -18.5 -52t-52.5 -26v-4q38 -6 59 -28.5t21 -56.5q0 -48 -38.5 -73.5t-102.5 -25.5zM691 298q-23 0 -36.5 -12t-13.5 -31t14.5 -29.5t35.5 -10.5q20 0 35 10.5t15 29.5t-13.5 31
t-36.5 12z" />
    <glyph glyph-name="uni215C" unicode="&#x215c;" horiz-adv-x="868" 
d="M217 417v-2q98 -7 98 -90q0 -46 -38 -71t-105 -25q-56 0 -93 21.5t-45 59.5l75 30q11 -46 64 -46q48 0 48 38q0 51 -94 52v54q87 2 87 50q0 38 -40 38q-43 0 -51 -41l-73 27q7 40 42.5 62.5t89.5 22.5t87.5 -23.5t33.5 -69.5q0 -72 -86 -87zM244 0l305 589h75l-307 -589
h-73zM691 148q-22 0 -37.5 -11.5t-15.5 -34.5q0 -20 14.5 -32.5t38.5 -12.5t38 12.5t14 32.5q0 23 -15 34.5t-37 11.5zM691 -7q-65 0 -103.5 25.5t-38.5 73.5q0 34 21 56.5t59 28.5v4q-34 4 -52.5 26t-18.5 52q0 47 35.5 74.5t97.5 27.5q61 0 96.5 -27.5t35.5 -74.5
q0 -30 -18.5 -52t-52.5 -26v-4q38 -6 59 -28.5t21 -56.5q0 -48 -38.5 -73.5t-102.5 -25.5zM691 298q-23 0 -36.5 -12t-13.5 -31t14.5 -29.5t35.5 -10.5q20 0 35 10.5t15 29.5t-13.5 31t-36.5 12z" />
    <glyph glyph-name="uni215D" unicode="&#x215d;" horiz-adv-x="868" 
d="M64 386l9 203h224v-74h-155l-4 -75q22 25 71 25q47 0 77 -29.5t30 -81.5q0 -61 -40.5 -93t-107.5 -32q-57 0 -92 22t-43 62l77 35q8 -52 61 -52q59 0 59 55q0 25 -13.5 39.5t-34.5 14.5q-28 0 -44 -19h-74zM244 0l305 589h75l-307 -589h-73zM691 148q-22 0 -37.5 -11.5
t-15.5 -34.5q0 -20 14.5 -32.5t38.5 -12.5t38 12.5t14 32.5q0 23 -15 34.5t-37 11.5zM691 -7q-65 0 -103.5 25.5t-38.5 73.5q0 34 21 56.5t59 28.5v4q-34 4 -52.5 26t-18.5 52q0 47 35.5 74.5t97.5 27.5q61 0 96.5 -27.5t35.5 -74.5q0 -30 -18.5 -52t-52.5 -26v-4
q38 -6 59 -28.5t21 -56.5q0 -48 -38.5 -73.5t-102.5 -25.5zM691 298q-23 0 -36.5 -12t-13.5 -31t14.5 -29.5t35.5 -10.5q20 0 35 10.5t15 29.5t-13.5 31t-36.5 12z" />
    <glyph glyph-name="uni215E" unicode="&#x215e;" horiz-adv-x="819" 
d="M220 515h-111v-55h-75v129h283v-61l-135 -292h-95zM200 0l305 589h75l-307 -589h-73zM647 148q-22 0 -37.5 -11.5t-15.5 -34.5q0 -20 14.5 -32.5t38.5 -12.5t38 12.5t14 32.5q0 23 -15 34.5t-37 11.5zM647 -7q-65 0 -103.5 25.5t-38.5 73.5q0 34 21 56.5t59 28.5v4
q-34 4 -52.5 26t-18.5 52q0 47 35.5 74.5t97.5 27.5q61 0 96.5 -27.5t35.5 -74.5q0 -30 -18.5 -52t-52.5 -26v-4q38 -6 59 -28.5t21 -56.5q0 -48 -38.5 -73.5t-102.5 -25.5zM647 298q-23 0 -36.5 -12t-13.5 -31t14.5 -29.5t35.5 -10.5q20 0 35 10.5t15 29.5t-13.5 31
t-36.5 12z" />
    <glyph glyph-name="arrowleft" unicode="&#x2190;" horiz-adv-x="695" 
d="M211 347h439v-104h-440l180 -182l-74 -73l-293 306l292 307l75 -73z" />
    <glyph glyph-name="arrowup" unicode="&#x2191;" horiz-adv-x="685" 
d="M395 414v-414h-104v414l-182 -180l-73 75l306 292l307 -291l-74 -76z" />
    <glyph glyph-name="arrowright" unicode="&#x2192;" horiz-adv-x="695" 
d="M23 347h439l-177 181l75 73l290 -307l-290 -306l-75 73l178 182h-440v104z" />
    <glyph glyph-name="arrowdown" unicode="&#x2193;" horiz-adv-x="685" 
d="M290 176v413h104v-414l182 180l73 -74l-306 -293l-307 292l74 75z" />
    <glyph glyph-name="uni2196" unicode="&#x2196;" horiz-adv-x="684" 
d="M592 0l-415 417v-319h-101v491h474v-98h-300l416 -417z" />
    <glyph glyph-name="uni2197" unicode="&#x2197;" horiz-adv-x="684" 
d="M507 417l-416 -417l-73 74l416 417h-300v98h474v-491h-101v319z" />
    <glyph glyph-name="uni2198" unicode="&#x2198;" horiz-adv-x="684" 
d="M91 589l416 -416v318h101v-491h-474v98h300l-416 417z" />
    <glyph glyph-name="uni2199" unicode="&#x2199;" horiz-adv-x="684" 
d="M177 173l415 416l74 -74l-416 -417h300v-98h-474v491h101v-318z" />
    <glyph glyph-name="partialdiff" unicode="&#x2202;" horiz-adv-x="528" 
d="M137 619l95 61q119 -61 185.5 -168.5t66.5 -244.5q0 -139 -58 -206.5t-162 -67.5q-101 0 -160.5 62.5t-59.5 176.5q0 109 56.5 168.5t134.5 59.5t124 -64q-63 140 -222 223zM367 226q0 66 -27 101t-77 35q-100 0 -100 -136q0 -67 26 -103.5t76 -36.5q102 0 102 140z" />
    <glyph glyph-name="increment" unicode="&#x2206;" horiz-adv-x="600" 
d="M590 0h-580l214 589h152zM424 101l-78 223q-15 43 -27 83.5t-16 59.5l-4 19h-4q-15 -67 -47 -161l-76 -224h252z" />
    <glyph glyph-name="product" unicode="&#x220f;" horiz-adv-x="640" 
d="M197 -203h-120v792h486v-792h-120v682h-246v-682z" />
    <glyph glyph-name="summation" unicode="&#x2211;" horiz-adv-x="465" 
d="M413 484h-148l-79 3v-4q20 -14 54 -64l87 -124l-89 -125q-15 -22 -29 -38t-20 -21l-6 -5v-4q25 3 79 3h151v-105h-413l194 296l-194 293h413v-105z" />
    <glyph glyph-name="minus" unicode="&#x2212;" horiz-adv-x="498" 
d="M453 214h-408v68h408v-68z" />
    <glyph glyph-name="radical" unicode="&#x221a;" horiz-adv-x="614" 
d="M212 466l130 -342h3l149 555l110 -14l-200 -665h-114l-141 327l-92 -46l-43 88z" />
    <glyph glyph-name="infinity" unicode="&#x221e;" horiz-adv-x="863" 
d="M140 244q0 -48 25 -74t62 -26q55 0 99 45l52 55l-52 55q-44 45 -99 45q-37 0 -62 -26t-25 -74zM432 184l-47 -48q-42 -43 -77 -62.5t-87 -19.5q-75 0 -124.5 49.5t-49.5 140.5t49.5 140.5t124.5 49.5q52 0 88 -19.5t76 -62.5l46 -48l47 48q43 43 78.5 62.5t86.5 19.5
q74 0 123.5 -49.5t49.5 -140.5t-49.5 -140.5t-123.5 -49.5q-52 0 -88 19.5t-77 62.5zM724 244q0 49 -25 74.5t-63 25.5q-56 0 -98 -45l-53 -55l53 -55q42 -45 98 -45q38 0 63 25.5t25 74.5z" />
    <glyph glyph-name="integral" unicode="&#x222b;" horiz-adv-x="299" 
d="M82 -20v535q0 82 50.5 120t127.5 39q57 0 105 -18l-19 -110q-37 23 -75 23q-70 0 -70 -79v-535q0 -82 -51 -120t-127 -38q-56 0 -105 17l19 109q37 -23 75 -23q70 0 70 80z" />
    <glyph glyph-name="approxequal" unicode="&#x2248;" horiz-adv-x="498" 
d="M360 247q-34 0 -110 22t-104 22q-56 0 -101 -43v67q43 44 104 44q33 0 105 -21t103 -21q54 0 96 39v-73q-33 -36 -93 -36zM360 121q-34 0 -110 22t-104 22q-57 0 -101 -44v68q44 44 104 44q33 0 105 -21.5t103 -21.5q53 0 96 40v-73q-33 -36 -93 -36z" />
    <glyph glyph-name="notequal" unicode="&#x2260;" horiz-adv-x="498" 
d="M453 284h-126l-57 -76h183v-67h-234l-92 -121l-54 40l62 81h-90v67h140l58 76h-198v67h248l85 111l54 -40l-55 -71h76v-67z" />
    <glyph glyph-name="lessequal" unicode="&#x2264;" horiz-adv-x="424" 
d="M357 420l-184 -123l184 -126l-48 -60l-259 185l263 182zM379 20h-334v67h334v-67z" />
    <glyph glyph-name="greaterequal" unicode="&#x2265;" horiz-adv-x="424" 
d="M250 297l-184 123l45 58l262 -182l-259 -185l-47 60zM379 20h-334v67h334v-67z" />
    <glyph glyph-name="blacksquare" unicode="&#x25a0;" horiz-adv-x="747" 
d="M79 0v589h589v-589h-589z" />
    <glyph glyph-name="whitesquare" unicode="&#x25a1;" horiz-adv-x="747" 
d="M79 0v589h589v-589h-589zM122 546v-503h504v503h-504z" />
    <glyph glyph-name="blacksmallsquare" unicode="&#x25aa;" horiz-adv-x="483" 
d="M79 139v325h325v-325h-325z" />
    <glyph glyph-name="whitesmallsquare" unicode="&#x25ab;" horiz-adv-x="484" 
d="M79 139v325h326v-325h-326zM122 421v-239h240v239h-240z" />
    <glyph glyph-name="triagup" unicode="&#x25b2;" 
d="M40 0l245 601l245 -601h-490z" />
    <glyph glyph-name="triagrt" unicode="&#x25ba;" horiz-adv-x="680" 
d="M79 536l601 -245l-601 -245v490z" />
    <glyph glyph-name="triagdn" unicode="&#x25bc;" 
d="M285 -12l-245 601h490z" />
    <glyph glyph-name="triaglf" unicode="&#x25c4;" horiz-adv-x="680" 
d="M0 291l601 245v-490z" />
    <glyph glyph-name="lozenge" unicode="&#x25ca;" horiz-adv-x="516" 
d="M472 302l-171 -336h-87l-170 336l170 328h87zM375 301l-116 232l-115 -232l115 -239z" />
    <glyph glyph-name="circle" unicode="&#x25cb;" horiz-adv-x="519" 
d="M42 295q0 90 63.5 154t153.5 64t154 -64t64 -154t-64 -153.5t-154 -63.5t-153.5 63.5t-63.5 153.5zM88 294q0 -72 50 -123t122 -51q70 0 120.5 51t50.5 123t-50.5 123.5t-120.5 51.5q-72 0 -122 -51t-50 -124z" />
    <glyph glyph-name="blackcircle" unicode="&#x25cf;" horiz-adv-x="697" 
d="M42 294q0 127 89.5 217t216.5 90t217 -90t90 -217t-90 -216.5t-217 -89.5t-216.5 89.5t-89.5 216.5z" />
    <glyph glyph-name="whitecircle" unicode="&#x25ef;" horiz-adv-x="697" 
d="M42 294q0 127 89.5 217t216.5 90t217 -90t90 -217t-90 -216.5t-217 -89.5t-216.5 89.5t-89.5 216.5zM86 294q0 -110 76.5 -188t185.5 -78q108 0 185 78t77 188t-77 188t-185 78q-109 0 -185.5 -78t-76.5 -188z" />
    <glyph glyph-name="anglebracketleft" unicode="&#x3008;" horiz-adv-x="339" 
d="M309 -203h-119l-153 440l153 431h119l-151 -434z" />
    <glyph glyph-name="anglebracketright" unicode="&#x3009;" horiz-adv-x="339" 
d="M149 -203h-119l151 437l-151 434h119l153 -431z" />
    <glyph glyph-name="lcedilla" unicode="&#xe100;" horiz-adv-x="280" 
d="M262 -120q0 -45 -31 -68t-80 -23q-70 0 -100 37l24 59q29 -35 65 -35q32 0 32 29q0 36 -56 40l7 81q-65 26 -65 103v565h119v-532q0 -41 42 -41q18 0 35 7l-5 -100q-41 -11 -70 -11h-3l-2 -29q88 -6 88 -82z" />
    <glyph glyph-name="uni004500600323" unicode="&#xe101;" horiz-adv-x="513" 
d="M463 105v-105h-384v589h384v-105h-263v-136h232v-102h-232v-141h263zM196 -134q0 33 21 52.5t53 19.5q34 0 55.5 -19.5t21.5 -52.5q0 -32 -21.5 -51.5t-55.5 -19.5q-32 0 -53 19.5t-21 51.5zM319 649h-109l64 136h152z" />
    <glyph glyph-name="uni006500600323" unicode="&#xe102;" horiz-adv-x="485" 
d="M257 80q67 0 88 67l102 -33q-16 -66 -68 -96t-126 -30q-98 0 -157.5 63t-59.5 174q0 117 59 182.5t161 65.5q92 0 141.5 -55.5t49.5 -146.5q0 -37 -7 -62h-289q2 -59 29.5 -94t76.5 -35zM154 280h178q1 7 1 17q0 38 -21.5 62t-60.5 24q-41 0 -66.5 -27.5t-30.5 -75.5z
M293 527h-107l71 151h152zM173 -134q0 33 21 52.5t53 19.5q34 0 55.5 -19.5t21.5 -52.5q0 -32 -21.5 -51.5t-55.5 -19.5q-32 0 -53 19.5t-21 51.5z" />
    <glyph glyph-name="uni004500B40323" unicode="&#xe103;" horiz-adv-x="513" 
d="M463 105v-105h-384v589h384v-105h-263v-136h232v-102h-232v-141h263zM196 -134q0 33 21 52.5t53 19.5q34 0 55.5 -19.5t21.5 -52.5q0 -32 -21.5 -51.5t-55.5 -19.5q-32 0 -53 19.5t-21 51.5zM333 649h-109l-107 136h152z" />
    <glyph glyph-name="uni006500B40323" unicode="&#xe104;" horiz-adv-x="485" 
d="M257 80q67 0 88 67l102 -33q-16 -66 -68 -96t-126 -30q-98 0 -157.5 63t-59.5 174q0 117 59 182.5t161 65.5q92 0 141.5 -55.5t49.5 -146.5q0 -37 -7 -62h-289q2 -59 29.5 -94t76.5 -35zM154 280h178q1 7 1 17q0 38 -21.5 62t-60.5 24q-41 0 -66.5 -27.5t-30.5 -75.5z
M310 527h-108l-116 151h152zM173 -134q0 33 21 52.5t53 19.5q34 0 55.5 -19.5t21.5 -52.5q0 -32 -21.5 -51.5t-55.5 -19.5q-32 0 -53 19.5t-21 51.5z" />
    <glyph glyph-name="Gtilde" unicode="&#xe105;" horiz-adv-x="623" 
d="M316 311h248v-311h-81l-18 69q-20 -39 -64 -60t-98 -21q-119 0 -190 78t-71 226q0 147 76 228t208 81q174 0 233 -147l-116 -56q-30 97 -122 97q-65 0 -109.5 -50.5t-44.5 -153.5q0 -92 37.5 -148t115.5 -56q59 0 93 26t34 71v28h-131v99zM401 650q-33 0 -74 23
q-44 25 -58 25q-38 0 -31 -48h-68q-25 54 1.5 100t81.5 46q33 0 72 -22q44 -26 59 -26q34 0 27 47h71q24 -59 0.5 -102t-81.5 -43z" />
    <glyph glyph-name="gtilde" unicode="&#xe106;" horiz-adv-x="496" 
d="M236 473q80 0 132 -32q15 13 22 27t13 43l96 -32q-4 -32 -27 -54.5t-54 -31.5q21 -33 21 -83q0 -77 -58 -118.5t-147 -41.5q-38 0 -57 7q-25 -14 -25 -41q0 -32 41 -32h125q78 0 120.5 -35.5t42.5 -97.5q0 -61 -40.5 -99t-95.5 -50.5t-127 -12.5q-211 0 -211 118
q0 88 121 97q-33 3 -52 25.5t-19 53.5q0 29 18.5 53t55.5 34q-94 39 -94 140q0 78 54 120.5t145 42.5zM117 -73q0 -57 114 -57q71 0 104 14t33 47q0 46 -64 46h-109q-78 0 -78 -50zM157 310q0 -36 20.5 -58t58.5 -22q39 0 60 20.5t21 59.5q0 40 -21 60.5t-60 19.5
q-38 0 -58.5 -21t-20.5 -59zM316 524q-36 0 -74 23q-44 25 -58 25q-38 0 -31 -49h-68q-25 55 1 100.5t82 45.5q31 0 72 -23q44 -26 59 -26q34 0 27 47h71q24 -58 0.5 -100.5t-81.5 -42.5z" />
    <glyph glyph-name="Gcommaturnedabove" unicode="&#xe107;" horiz-adv-x="623" 
d="M316 311h248v-311h-81l-18 69q-20 -39 -64 -60t-98 -21q-119 0 -190 78t-71 226q0 147 76 228t208 81q174 0 233 -147l-116 -56q-30 97 -122 97q-65 0 -109.5 -50.5t-44.5 -153.5q0 -92 37.5 -148t115.5 -56q59 0 93 26t34 71v28h-131v99zM242 732q0 111 136 111v-42
q-33 -1 -48.5 -9.5t-15.5 -30.5q28 5 48 -9.5t20 -43.5t-18.5 -45t-47.5 -16q-32 0 -53 23.5t-21 61.5z" />
    <glyph glyph-name="gcommaturnedabove" unicode="&#xe108;" horiz-adv-x="496" 
d="M236 473q80 0 132 -32q15 13 22 27t13 43l96 -32q-4 -32 -27 -54.5t-54 -31.5q21 -33 21 -83q0 -77 -58 -118.5t-147 -41.5q-38 0 -57 7q-25 -14 -25 -41q0 -32 41 -32h125q78 0 120.5 -35.5t42.5 -97.5q0 -61 -40.5 -99t-95.5 -50.5t-127 -12.5q-211 0 -211 118
q0 88 121 97q-33 3 -52 25.5t-19 53.5q0 29 18.5 53t55.5 34q-94 39 -94 140q0 78 54 120.5t145 42.5zM117 -73q0 -57 114 -57q71 0 104 14t33 47q0 46 -64 46h-109q-78 0 -78 -50zM157 310q0 -36 20.5 -58t58.5 -22q39 0 60 20.5t21 59.5q0 40 -21 60.5t-60 19.5
q-38 0 -58.5 -21t-20.5 -59zM168 609q0 111 136 111v-42q-33 -1 -48.5 -9.5t-15.5 -30.5q28 5 48 -9.5t20 -43.5t-18.5 -45t-47.5 -16q-32 0 -53 23.5t-21 61.5z" />
    <glyph glyph-name="Hmacronbelow" unicode="&#xe109;" horiz-adv-x="645" 
d="M200 0h-121v589h121v-237h245v237h121v-589h-121v246h-245v-246zM464 -189h-283v96h283v-96z" />
    <glyph glyph-name="hmacronbelow" unicode="&#xe10a;" horiz-adv-x="526" 
d="M185 668v-294q35 99 143 99q59 0 98 -36t39 -109v-328h-119v286q0 86 -68 86q-93 0 -93 -114v-258h-119v668h119zM407 -189h-283v96h283v-96z" />
    <glyph glyph-name="Jcaron" unicode="&#xe10b;" horiz-adv-x="458" 
d="M275 589h121v-418q0 -95 -55 -139t-144 -44q-139 0 -197 114l91 78q20 -48 44 -70t61 -22q44 0 61.5 26t17.5 80v395zM372 647h-76l-131 140h115l31 -32q8 -8 13.5 -16t6.5 -11l1 -4h4q3 12 21 31l31 32h115z" />
    <glyph glyph-name="Kcedilla" unicode="&#xe10d;" horiz-adv-x="566" 
d="M552 0h-145l-168 246h-39v-246h-121v589h121v-237h41l154 237h140l-192 -285zM380 -120q0 -45 -31 -68t-80 -23q-70 0 -100 37l24 59q29 -35 65 -35q32 0 32 29q0 36 -56 40l9 96h54l-5 -53q88 -6 88 -82z" />
    <glyph glyph-name="kcedilla" unicode="&#xe10e;" horiz-adv-x="502" 
d="M310 247l184 -247h-141l-140 196h-28v-196h-119v668h119v-380h25l129 174h140zM362 -120q0 -45 -31 -68t-80 -23q-70 0 -100 37l24 59q29 -35 65 -35q32 0 32 29q0 36 -56 40l9 96h54l-5 -53q88 -6 88 -82z" />
    <glyph glyph-name="Lcedilla" unicode="&#xe10f;" horiz-adv-x="468" 
d="M363 -120q0 -45 -31 -68t-80 -23q-70 0 -100 37l24 59q29 -35 65 -35q32 0 32 29q0 36 -56 40l7 81h-145v589h121v-484h242v-105h-164l-3 -38q88 -6 88 -82z" />
    <glyph glyph-name="ocedilla" unicode="&#xe110;" horiz-adv-x="510" 
d="M362 -120q0 -45 -31 -68t-80 -23q-70 0 -100 37l24 59q29 -35 65 -35q32 0 32 29q0 36 -56 40l6 71q-86 10 -136 73.5t-50 169.5q0 116 59 178t160 62t160 -62t59 -178q0 -110 -53 -173.5t-145 -70.5l-2 -27q88 -6 88 -82zM255 377q-101 0 -101 -145q0 -151 101 -151
q102 0 102 151q0 145 -102 145z" />
    <glyph glyph-name="Mmacron" unicode="&#xe111;" horiz-adv-x="732" 
d="M398 139h-64l-91 158q-14 24 -25 47t-15 34l-4 12h-4q5 -34 5 -102v-288h-121v589h128l120 -223q14 -24 23.5 -44.5t11.5 -29.5l3 -8h4q8 28 38 82l121 223h125v-589h-121v288q0 30 1.5 55.5t2.5 36.5l2 10h-4q-13 -39 -45 -93zM511 667h-289v96h289v-96z" />
    <glyph glyph-name="mmacron" unicode="&#xe112;" horiz-adv-x="789" 
d="M446 372q17 51 56.5 76t91.5 25q61 0 97.5 -35.5t36.5 -107.5v-330h-119v286q0 86 -67 86q-37 0 -61 -27t-24 -87v-258h-120v286q0 86 -66 86q-37 0 -61.5 -27.5t-24.5 -86.5v-258h-119v462h100l14 -89q36 100 143 100t123 -101zM539 545h-283v97h283v-97z" />
    <glyph glyph-name="Mcedilla" unicode="&#xe113;" horiz-adv-x="732" 
d="M398 139h-64l-91 158q-14 24 -25 47t-15 34l-4 12h-4q5 -34 5 -102v-288h-121v589h128l120 -223q14 -24 23.5 -44.5t11.5 -29.5l3 -8h4q8 28 38 82l121 223h125v-589h-121v288q0 30 1.5 55.5t2.5 36.5l2 10h-4q-13 -39 -45 -93zM469 -120q0 -45 -31 -68t-80 -23
q-70 0 -100 37l24 59q29 -35 65 -35q32 0 32 29q0 36 -56 40l9 96h54l-5 -53q88 -6 88 -82z" />
    <glyph glyph-name="mcedilla" unicode="&#xe114;" horiz-adv-x="789" 
d="M505 -120q0 -45 -31 -68t-80 -23q-70 0 -100 37l24 59q29 -35 65 -35q32 0 32 29q0 36 -56 40l7 81h-29v286q0 86 -66 86q-37 0 -61.5 -27.5t-24.5 -86.5v-258h-119v462h100l14 -89q36 100 143 100t123 -101q17 51 56.5 76t91.5 25q61 0 97.5 -35.5t36.5 -107.5v-330
h-119v286q0 86 -67 86q-37 0 -61 -27t-24 -87v-258h-37l-3 -38q88 -6 88 -82z" />
    <glyph glyph-name="Ndieresis" unicode="&#xe115;" horiz-adv-x="667" 
d="M196 589l216 -302q15 -21 28.5 -43.5t19.5 -34.5l7 -12h4q-4 54 -4 129v263h121v-589h-113l-217 299q-16 23 -31 47t-22 36l-7 13h-4q6 -53 6 -135v-260h-121v589h117zM156 720q0 32 20 51t49 19q31 0 51 -18.5t20 -51.5q0 -32 -20 -51t-51 -19q-29 0 -49 19t-20 51z
M367 719q0 33 19.5 51.5t49.5 18.5q31 0 50.5 -18.5t19.5 -51.5q0 -32 -19.5 -50.5t-50.5 -18.5q-29 0 -49 19t-20 50z" />
    <glyph glyph-name="ndieresis" unicode="&#xe116;" horiz-adv-x="526" 
d="M166 462l14 -89q36 100 148 100q59 0 98 -36t39 -109v-328h-119v286q0 86 -68 86q-93 0 -93 -114v-258h-119v462h100zM91 596q0 32 20 51t49 19q31 0 51 -18.5t20 -51.5q0 -32 -20 -51t-51 -19q-29 0 -49 19t-20 51zM302 595q0 33 19.5 51.5t49.5 18.5q31 0 50.5 -18.5
t19.5 -51.5q0 -32 -19.5 -50.5t-50.5 -18.5q-29 0 -49 19t-20 50z" />
    <glyph glyph-name="Nmacron" unicode="&#xe117;" horiz-adv-x="667" 
d="M196 589l216 -302q15 -21 28.5 -43.5t19.5 -34.5l7 -12h4q-4 54 -4 129v263h121v-589h-113l-217 299q-16 23 -31 47t-22 36l-7 13h-4q6 -53 6 -135v-260h-121v589h117zM478 667h-289v96h289v-96z" />
    <glyph glyph-name="nmacron" unicode="&#xe118;" horiz-adv-x="526" 
d="M166 462l14 -89q36 100 148 100q59 0 98 -36t39 -109v-328h-119v286q0 86 -68 86q-93 0 -93 -114v-258h-119v462h100zM410 545h-283v97h283v-97z" />
    <glyph glyph-name="Ncedilla" unicode="&#xe119;" horiz-adv-x="667" 
d="M196 589l216 -302q15 -21 28.5 -43.5t19.5 -34.5l7 -12h4q-4 54 -4 129v263h121v-589h-113l-217 299q-16 23 -31 47t-22 36l-7 13h-4q6 -53 6 -135v-260h-121v589h117zM436 -120q0 -45 -31 -68t-80 -23q-70 0 -100 37l24 59q29 -35 65 -35q32 0 32 29q0 36 -56 40l9 96
h54l-5 -53q88 -6 88 -82z" />
    <glyph glyph-name="ncedilla" unicode="&#xe11a;" horiz-adv-x="526" 
d="M166 462l14 -89q36 100 148 100q59 0 98 -36t39 -109v-328h-119v286q0 86 -68 86q-93 0 -93 -114v-258h-119v462h100zM371 -120q0 -45 -31 -68t-80 -23q-70 0 -100 37l24 59q29 -35 65 -35q32 0 32 29q0 36 -56 40l9 96h54l-5 -53q88 -6 88 -82z" />
    <glyph glyph-name="Ocommaturnedabove" unicode="&#xe11b;" horiz-adv-x="634" 
d="M317 -12q-129 0 -202 80t-73 226q0 147 73 227t202 80t202 -80t73 -227q0 -146 -73 -226t-202 -80zM317 493q-73 0 -111 -52.5t-38 -147.5t38 -147.5t111 -52.5t110.5 52.5t37.5 147.5t-38 147.5t-110 52.5zM241 732q0 111 136 111v-42q-33 -1 -48.5 -9.5t-15.5 -30.5
q28 5 48 -9.5t20 -43.5t-18.5 -45t-47.5 -16q-32 0 -53 23.5t-21 61.5z" />
    <glyph glyph-name="ocommaturnedabove" unicode="&#xe11c;" horiz-adv-x="510" 
d="M255 -12q-101 0 -160 64.5t-59 180.5t59 178t160 62t160 -62t59 -178t-59 -180.5t-160 -64.5zM255 377q-101 0 -101 -145q0 -151 101 -151q102 0 102 151q0 145 -102 145zM181 611q0 111 136 111v-42q-33 -1 -48.5 -9.5t-15.5 -30.5q28 5 48 -9.5t20 -43.5t-18.5 -45
t-47.5 -16q-32 0 -53 23.5t-21 61.5z" />
    <glyph glyph-name="uni004F02D900AF" unicode="&#xe11d;" horiz-adv-x="634" 
d="M317 -12q-129 0 -202 80t-73 226q0 147 73 227t202 80t202 -80t73 -227q0 -146 -73 -226t-202 -80zM317 493q-73 0 -111 -52.5t-38 -147.5t38 -147.5t111 -52.5t110.5 52.5t37.5 147.5t-38 147.5t-110 52.5zM242 712q0 33 21 52.5t53 19.5q34 0 55.5 -19t21.5 -53
q0 -32 -21.5 -51.5t-55.5 -19.5q-32 0 -53 19.5t-21 51.5zM462 823h-289v96h289v-96z" />
    <glyph glyph-name="Ocedilla" unicode="&#xe11f;" horiz-adv-x="634" 
d="M420 -120q0 -45 -31 -68t-80 -23q-70 0 -100 37l24 59q29 -35 65 -35q32 0 32 29q0 36 -56 40l6 71q-112 11 -175 89.5t-63 214.5q0 147 73 227t202 80t202 -80t73 -227q0 -141 -68.5 -220.5t-189.5 -84.5l-2 -27q88 -6 88 -82zM317 493q-73 0 -111 -52.5t-38 -147.5
t38 -147.5t111 -52.5t110.5 52.5t37.5 147.5t-38 147.5t-110 52.5z" />
    <glyph glyph-name="Ounderlineaccent" unicode="&#xe121;" horiz-adv-x="634" 
d="M317 -12q-129 0 -202 80t-73 226q0 147 73 227t202 80t202 -80t73 -227q0 -146 -73 -226t-202 -80zM317 493q-73 0 -111 -52.5t-38 -147.5t38 -147.5t111 -52.5t110.5 52.5t37.5 147.5t-38 147.5t-110 52.5zM357 -203h-80v150h80v-150z" />
    <glyph glyph-name="ounderlineaccent" unicode="&#xe122;" horiz-adv-x="510" 
d="M255 -12q-101 0 -160 64.5t-59 180.5t59 178t160 62t160 -62t59 -178t-59 -180.5t-160 -64.5zM255 377q-101 0 -101 -145q0 -151 101 -151q102 0 102 151q0 145 -102 145zM295 -203h-80v150h80v-150z" />
    <glyph glyph-name="Pmacron" unicode="&#xe123;" horiz-adv-x="520" 
d="M200 487v-189h75q50 0 72 23.5t22 69.5q0 96 -94 96h-75zM200 0h-121v589h199q110 0 161 -49t51 -144q0 -93 -52 -145t-148 -52h-90v-199zM404 667h-289v96h289v-96z" />
    <glyph glyph-name="pmacron" unicode="&#xe124;" horiz-adv-x="549" 
d="M185 257v-71q0 -57 28.5 -84t67.5 -27q49 0 80.5 40t31.5 116q0 146 -103 146q-44 0 -74.5 -32t-30.5 -88zM185 61v-264h-119v665h101l15 -89q19 52 60 76t92 24q85 0 132 -60t47 -171q0 -114 -52.5 -184t-145.5 -70q-51 0 -85 21t-45 52zM431 545h-283v97h283v-97z" />
    <glyph glyph-name="Rdoublegrave" unicode="&#xe125;" horiz-adv-x="571" 
d="M542 0h-135q-19 17 -29 59l-23 93q-9 40 -29.5 53t-60.5 13h-65v-218h-121v589h223q209 0 209 -176q0 -67 -36 -104.5t-95 -42.5v-3q42 -6 65 -26t34 -62l30 -112q12 -41 33 -63zM200 487v-168h94q93 0 93 84t-92 84h-95zM401 649h-85l-100 136h130zM242 649h-93
l-116 136h138z" />
    <glyph glyph-name="rdoublegrave" unicode="&#xe126;" horiz-adv-x="381" 
d="M367 472l-12 -132q-22 6 -48 6q-49 0 -85.5 -31.5t-36.5 -95.5v-219h-119v462h103l14 -126q34 144 184 136zM347 527h-85l-100 151h130zM188 527h-93l-116 151h138z" />
    <glyph glyph-name="Rcedilla" unicode="&#xe127;" horiz-adv-x="571" 
d="M542 0h-135q-19 17 -29 59l-23 93q-9 40 -29.5 53t-60.5 13h-65v-218h-121v589h223q209 0 209 -176q0 -67 -36 -104.5t-95 -42.5v-3q42 -6 65 -26t34 -62l30 -112q12 -41 33 -63zM200 487v-168h94q93 0 93 84t-92 84h-95zM375 -120q0 -45 -31 -68t-80 -23q-70 0 -100 37
l24 59q29 -35 65 -35q32 0 32 29q0 36 -56 40l9 96h54l-5 -53q88 -6 88 -82z" />
    <glyph glyph-name="rcedilla" unicode="&#xe128;" horiz-adv-x="381" 
d="M238 -120q0 -45 -31 -68t-80 -23q-70 0 -100 37l24 59q29 -35 65 -35q32 0 32 29q0 36 -56 40l7 81h-33v462h103l14 -126q34 144 184 136l-12 -132q-22 6 -48 6q-49 0 -85.5 -31.5t-36.5 -95.5v-219h-32l-3 -38q88 -6 88 -82z" />
    <glyph glyph-name="Tcedilla" unicode="&#xe129;" horiz-adv-x="471" 
d="M343 -120q0 -45 -31 -68t-80 -23q-70 0 -100 37l24 59q29 -35 65 -35q32 0 32 29q0 36 -56 40l7 81h-30v484h-164v105h451v-105h-166v-484h-37l-3 -38q88 -6 88 -82z" />
    <glyph glyph-name="tcedilla" unicode="&#xe12a;" horiz-adv-x="370" 
d="M300 -120q0 -45 -31 -68t-80 -23q-70 0 -100 37l24 59q29 -35 65 -35q32 0 32 29q0 36 -56 40l7 78q-84 25 -84 134v238h-67v93h68v98l119 14v-112h137v-93h-138v-212q0 -67 58 -67q40 0 80 27l21 -100q-55 -29 -132 -29h-9l-2 -26q88 -6 88 -82z" />
    <glyph glyph-name="Umacronbelow" unicode="&#xe12b;" horiz-adv-x="599" 
d="M416 589h121v-393q0 -57 -19 -98.5t-53 -64.5t-75 -34t-90 -11q-105 0 -171.5 49t-66.5 159v393h121v-360q0 -71 27 -105.5t90 -34.5q62 0 89 34.5t27 105.5v360zM441 -189h-283v96h283v-96z" />
    <glyph glyph-name="umacronbelow" unicode="&#xe12c;" horiz-adv-x="523" 
d="M354 0l-14 85q-27 -97 -143 -97q-139 0 -139 150v324h119v-294q0 -90 70 -90q38 0 64.5 32.5t26.5 95.5v256h119v-462h-103zM399 -189h-283v96h283v-96z" />
    <glyph glyph-name="R.alt" unicode="&#xe141;" horiz-adv-x="546" 
d="M374 226l160 -226h-142l-146 214h-46v-214h-121v589h201q105 0 158.5 -48t53.5 -140q0 -68 -30.5 -113.5t-87.5 -61.5zM200 487v-181h72q94 0 94 90q0 91 -93 91h-73z" />
    <glyph glyph-name="Racute.alt" unicode="&#xe142;" horiz-adv-x="546" 
d="M374 226l160 -226h-142l-146 214h-46v-214h-121v589h201q105 0 158.5 -48t53.5 -140q0 -68 -30.5 -113.5t-87.5 -61.5zM200 487v-181h72q94 0 94 90q0 91 -93 91h-73zM282 649h-109l64 136h152z" />
    <glyph glyph-name="Rcaron.alt" unicode="&#xe143;" horiz-adv-x="546" 
d="M374 226l160 -226h-142l-146 214h-46v-214h-121v589h201q105 0 158.5 -48t53.5 -140q0 -68 -30.5 -113.5t-87.5 -61.5zM200 487v-181h72q94 0 94 90q0 91 -93 91h-73zM296 647h-76l-131 140h115l31 -32q8 -8 13.5 -16t6.5 -11l1 -4h4q3 12 21 31l31 32h115z" />
    <glyph glyph-name="Rinvertedbreve.alt" unicode="&#xe144;" horiz-adv-x="546" 
d="M374 226l160 -226h-142l-146 214h-46v-214h-121v589h201q105 0 158.5 -48t53.5 -140q0 -68 -30.5 -113.5t-87.5 -61.5zM200 487v-181h72q94 0 94 90q0 91 -93 91h-73zM258 794q72 0 108.5 -37.5t36.5 -104.5h-89q-2 29 -14.5 43.5t-41.5 14.5t-41.5 -14.5t-13.5 -43.5
h-90q0 67 36.5 104.5t108.5 37.5z" />
    <glyph glyph-name="Rdoublegrave.alt" unicode="&#xe145;" horiz-adv-x="546" 
d="M374 226l160 -226h-142l-146 214h-46v-214h-121v589h201q105 0 158.5 -48t53.5 -140q0 -68 -30.5 -113.5t-87.5 -61.5zM200 487v-181h72q94 0 94 90q0 91 -93 91h-73zM390 649h-85l-100 136h130zM231 649h-93l-116 136h138z" />
    <glyph glyph-name="Rcommaaccent.alt" unicode="&#xe146;" horiz-adv-x="546" 
d="M374 226l160 -226h-142l-146 214h-46v-214h-121v589h201q105 0 158.5 -48t53.5 -140q0 -68 -30.5 -113.5t-87.5 -61.5zM200 487v-181h72q94 0 94 90q0 91 -93 91h-73zM362 -141q0 -111 -135 -111v42q33 1 48.5 9.5t15.5 30.5q-29 -5 -49 9.5t-20 43.5t18.5 45t47.5 16
q32 0 53 -23.5t21 -61.5z" />
    <glyph glyph-name="Rcedilla.alt" unicode="&#xe147;" horiz-adv-x="546" 
d="M374 226l160 -226h-142l-146 214h-46v-214h-121v589h201q105 0 158.5 -48t53.5 -140q0 -68 -30.5 -113.5t-87.5 -61.5zM200 487v-181h72q94 0 94 90q0 91 -93 91h-73zM382 -120q0 -45 -31 -68t-80 -23q-70 0 -100 37l24 59q29 -35 65 -35q32 0 32 29q0 36 -56 40l9 96h54
l-5 -53q88 -6 88 -82z" />
    <glyph glyph-name="Rdotbelow.alt" unicode="&#xe148;" horiz-adv-x="546" 
d="M374 226l160 -226h-142l-146 214h-46v-214h-121v589h201q105 0 158.5 -48t53.5 -140q0 -68 -30.5 -113.5t-87.5 -61.5zM200 487v-181h72q94 0 94 90q0 91 -93 91h-73zM201 -134q0 33 21 52.5t53 19.5q34 0 55.5 -19.5t21.5 -52.5q0 -32 -21.5 -51.5t-55.5 -19.5
q-32 0 -53 19.5t-21 51.5z" />
    <glyph glyph-name="Rdotbelowmacron.alt" unicode="&#xe149;" horiz-adv-x="546" 
d="M374 226l160 -226h-142l-146 214h-46v-214h-121v589h201q105 0 158.5 -48t53.5 -140q0 -68 -30.5 -113.5t-87.5 -61.5zM200 487v-181h72q94 0 94 90q0 91 -93 91h-73zM204 -134q0 33 21 52.5t53 19.5q34 0 55.5 -19.5t21.5 -52.5q0 -32 -21.5 -51.5t-55.5 -19.5
q-32 0 -53 19.5t-21 51.5zM402 667h-289v96h289v-96z" />
    <glyph glyph-name="aogonek.school" unicode="&#xe150;" horiz-adv-x="549" 
d="M371 402l31 60h81v-462q-43 -2 -70 -23.5t-27 -57.5q0 -24 13 -38t36 -14q37 0 67 34l29 -60q-43 -52 -121 -52q-53 0 -87.5 27.5t-34.5 80.5q0 80 88 119l-11 64q-26 -92 -145 -92q-79 0 -131.5 61.5t-52.5 172.5q0 118 54 184.5t152 66.5q99 0 129 -71zM365 190v93
q0 50 -29 76t-70 26q-48 0 -79 -37.5t-31 -118.5q0 -70 29 -108.5t80 -38.5q39 0 69.5 29t30.5 79z" />
    <glyph glyph-name="a.school" unicode="&#xe151;" horiz-adv-x="549" 
d="M365 188v93q0 51 -29 77t-70 26q-48 0 -79 -38t-31 -119q0 -70 29 -108.5t80 -38.5q39 0 69.5 29t30.5 79zM371 402l31 60h81v-462h-104l-14 80q-26 -92 -145 -92q-79 0 -131.5 61.5t-52.5 172.5q0 118 54 184.5t152 66.5q99 0 129 -71z" />
    <glyph glyph-name="agrave.school" unicode="&#xe152;" horiz-adv-x="549" 
d="M365 188v93q0 51 -29 77t-70 26q-48 0 -79 -38t-31 -119q0 -70 29 -108.5t80 -38.5q39 0 69.5 29t30.5 79zM371 402l31 60h81v-462h-104l-14 80q-26 -92 -145 -92q-79 0 -131.5 61.5t-52.5 172.5q0 118 54 184.5t152 66.5q99 0 129 -71zM325 527h-108l-116 151h152z" />
    <glyph glyph-name="aacute.school" unicode="&#xe153;" horiz-adv-x="549" 
d="M365 188v93q0 51 -29 77t-70 26q-48 0 -79 -38t-31 -119q0 -70 29 -108.5t80 -38.5q39 0 69.5 29t30.5 79zM371 402l31 60h81v-462h-104l-14 80q-26 -92 -145 -92q-79 0 -131.5 61.5t-52.5 172.5q0 118 54 184.5t152 66.5q99 0 129 -71zM311 527h-107l71 151h152z" />
    <glyph glyph-name="acircumflex.school" unicode="&#xe154;" horiz-adv-x="549" 
d="M365 188v93q0 51 -29 77t-70 26q-48 0 -79 -38t-31 -119q0 -70 29 -108.5t80 -38.5q39 0 69.5 29t30.5 79zM371 402l31 60h81v-462h-104l-14 80q-26 -92 -145 -92q-79 0 -131.5 61.5t-52.5 172.5q0 118 54 184.5t152 66.5q99 0 129 -71zM240 680h73l132 -155h-113l-32 37
q-8 10 -13.5 18.5t-6.5 12.5l-1 4h-5q-2 -13 -21 -35l-32 -37h-113z" />
    <glyph glyph-name="adieresis.school" unicode="&#xe155;" horiz-adv-x="549" 
d="M365 188v93q0 51 -29 77t-70 26q-48 0 -79 -38t-31 -119q0 -70 29 -108.5t80 -38.5q39 0 69.5 29t30.5 79zM371 402l31 60h81v-462h-104l-14 80q-26 -92 -145 -92q-79 0 -131.5 61.5t-52.5 172.5q0 118 54 184.5t152 66.5q99 0 129 -71zM99 596q0 32 20 51t49 19
q31 0 51 -18.5t20 -51.5q0 -32 -20 -51t-51 -19q-29 0 -49 19t-20 51zM310 595q0 33 19.5 51.5t49.5 18.5q31 0 50.5 -18.5t19.5 -51.5q0 -32 -19.5 -50.5t-50.5 -18.5q-29 0 -49 19t-20 50z" />
    <glyph glyph-name="atilde.school" unicode="&#xe156;" horiz-adv-x="549" 
d="M365 188v93q0 51 -29 77t-70 26q-48 0 -79 -38t-31 -119q0 -70 29 -108.5t80 -38.5q39 0 69.5 29t30.5 79zM371 402l31 60h81v-462h-104l-14 80q-26 -92 -145 -92q-79 0 -131.5 61.5t-52.5 172.5q0 118 54 184.5t152 66.5q99 0 129 -71zM350 524q-36 0 -74 23
q-44 25 -58 25q-38 0 -31 -49h-68q-25 55 1 100.5t82 45.5q31 0 72 -23q44 -26 59 -26q34 0 27 47h71q24 -58 0.5 -100.5t-81.5 -42.5z" />
    <glyph glyph-name="aring.school" unicode="&#xe157;" horiz-adv-x="549" 
d="M365 188v93q0 51 -29 77t-70 26q-48 0 -79 -38t-31 -119q0 -70 29 -108.5t80 -38.5q39 0 69.5 29t30.5 79zM371 402l31 60h81v-462h-104l-14 80q-26 -92 -145 -92q-79 0 -131.5 61.5t-52.5 172.5q0 118 54 184.5t152 66.5q99 0 129 -71zM271 511q-52 0 -81.5 30.5
t-29.5 77.5q0 43 31 73.5t80 30.5t80 -30.5t31 -73.5q0 -47 -29.5 -77.5t-81.5 -30.5zM271 669q-24 0 -37.5 -14t-13.5 -38q0 -21 13.5 -35t37.5 -14t37.5 14t13.5 35q0 24 -13.5 38t-37.5 14z" />
    <glyph glyph-name="acaron.school" unicode="&#xe158;" horiz-adv-x="549" 
d="M365 188v93q0 51 -29 77t-70 26q-48 0 -79 -38t-31 -119q0 -70 29 -108.5t80 -38.5q39 0 69.5 29t30.5 79zM371 402l31 60h81v-462h-104l-14 80q-26 -92 -145 -92q-79 0 -131.5 61.5t-52.5 172.5q0 118 54 184.5t152 66.5q99 0 129 -71zM308 525h-73l-132 155h113l32 -37
q8 -10 13.5 -18.5t6.5 -12.5l1 -4h5q2 13 21 35l32 37h113z" />
    <glyph glyph-name="amacron.school" unicode="&#xe159;" horiz-adv-x="549" 
d="M365 188v93q0 51 -29 77t-70 26q-48 0 -79 -38t-31 -119q0 -70 29 -108.5t80 -38.5q39 0 69.5 29t30.5 79zM371 402l31 60h81v-462h-104l-14 80q-26 -92 -145 -92q-79 0 -131.5 61.5t-52.5 172.5q0 118 54 184.5t152 66.5q99 0 129 -71zM419 545h-283v97h283v-97z" />
    <glyph glyph-name="abreve.school" unicode="&#xe15a;" horiz-adv-x="549" 
d="M365 188v93q0 51 -29 77t-70 26q-48 0 -79 -38t-31 -119q0 -70 29 -108.5t80 -38.5q39 0 69.5 29t30.5 79zM371 402l31 60h81v-462h-104l-14 80q-26 -92 -145 -92q-79 0 -131.5 61.5t-52.5 172.5q0 118 54 184.5t152 66.5q99 0 129 -71zM269 522q-71 0 -108 42t-37 110
h90q1 -33 12.5 -49.5t42.5 -16.5q32 0 43 16t13 50h90q0 -68 -37 -110t-109 -42z" />
    <glyph glyph-name="ainvertedbreve.school" unicode="&#xe15b;" horiz-adv-x="549" 
d="M365 188v93q0 51 -29 77t-70 26q-48 0 -79 -38t-31 -119q0 -70 29 -108.5t80 -38.5q39 0 69.5 29t30.5 79zM371 402l31 60h81v-462h-104l-14 80q-26 -92 -145 -92q-79 0 -131.5 61.5t-52.5 172.5q0 118 54 184.5t152 66.5q99 0 129 -71zM273 681q72 0 109 -41.5
t37 -110.5h-90q-2 34 -13 50t-43 16q-31 0 -42.5 -16.5t-12.5 -49.5h-90q0 68 37 110t108 42z" />
    <glyph glyph-name="adoublegrave.school" unicode="&#xe15c;" horiz-adv-x="549" 
d="M365 188v93q0 51 -29 77t-70 26q-48 0 -79 -38t-31 -119q0 -70 29 -108.5t80 -38.5q39 0 69.5 29t30.5 79zM371 402l31 60h81v-462h-104l-14 80q-26 -92 -145 -92q-79 0 -131.5 61.5t-52.5 172.5q0 118 54 184.5t152 66.5q99 0 129 -71zM398 527h-85l-100 151h130z
M239 527h-93l-116 151h138z" />
    <glyph glyph-name="adotabove.school" unicode="&#xe15d;" horiz-adv-x="549" 
d="M365 188v93q0 51 -29 77t-70 26q-48 0 -79 -38t-31 -119q0 -70 29 -108.5t80 -38.5q39 0 69.5 29t30.5 79zM371 402l31 60h81v-462h-104l-14 80q-26 -92 -145 -92q-79 0 -131.5 61.5t-52.5 172.5q0 118 54 184.5t152 66.5q99 0 129 -71zM195 595q0 33 21.5 52.5
t52.5 19.5q34 0 55.5 -19.5t21.5 -52.5q0 -32 -21.5 -51.5t-55.5 -19.5q-31 0 -52.5 19.5t-21.5 51.5z" />
    <glyph glyph-name="aringacute.school" unicode="&#xe15e;" horiz-adv-x="549" 
d="M365 188v93q0 51 -29 77t-70 26q-48 0 -79 -38t-31 -119q0 -70 29 -108.5t80 -38.5q39 0 69.5 29t30.5 79zM371 402l31 60h81v-462h-104l-14 80q-26 -92 -145 -92q-79 0 -131.5 61.5t-52.5 172.5q0 118 54 184.5t152 66.5q99 0 129 -71zM271 501q-52 0 -81.5 30.5
t-29.5 77.5q0 43 31 73.5t80 30.5t80 -30.5t31 -73.5q0 -47 -29.5 -77.5t-81.5 -30.5zM271 659q-24 0 -37.5 -14t-13.5 -38q0 -21 13.5 -35t37.5 -14t37.5 14t13.5 35q0 24 -13.5 38t-37.5 14zM322 748h-109l64 136h152z" />
    <glyph glyph-name="adieresismacron.school" unicode="&#xe15f;" horiz-adv-x="549" 
d="M365 188v93q0 51 -29 77t-70 26q-48 0 -79 -38t-31 -119q0 -70 29 -108.5t80 -38.5q39 0 69.5 29t30.5 79zM371 402l31 60h81v-462h-104l-14 80q-26 -92 -145 -92q-79 0 -131.5 61.5t-52.5 172.5q0 118 54 184.5t152 66.5q99 0 129 -71zM97 576q0 32 20 51t49 19
q31 0 51 -18.5t20 -51.5q0 -32 -20 -51t-51 -19q-29 0 -49 19t-20 51zM308 575q0 33 19.5 51.5t49.5 18.5q31 0 50.5 -18.5t19.5 -51.5q0 -32 -19.5 -50.5t-50.5 -18.5q-29 0 -49 19t-20 50zM416 685h-283v97h283v-97z" />
    <glyph glyph-name="ytilde.school" unicode="&#xe160;" horiz-adv-x="523" 
d="M58 462h119v-284q0 -91 70 -91q38 0 64.5 32.5t26.5 95.5v247h119v-449q0 -110 -58.5 -167t-168.5 -57q-159 0 -205 118l95 58q26 -87 111 -87q56 0 82 29.5t26 92.5v90q-25 -93 -139 -93q-65 0 -103.5 36.5t-38.5 113.5v315zM334 524q-36 0 -74 23q-44 25 -58 25
q-38 0 -31 -49h-68q-25 55 1 100.5t82 45.5q31 0 72 -23q44 -26 59 -26q34 0 27 47h71q24 -58 0.5 -100.5t-81.5 -42.5z" />
    <glyph glyph-name="g.school" unicode="&#xe161;" horiz-adv-x="549" 
d="M402 462h81v-441q0 -117 -67.5 -174.5t-171.5 -57.5q-170 0 -217 121l96 58q28 -89 121 -89q55 0 88 32t33 97v80q-30 -92 -146 -92q-77 0 -130 58t-53 170q0 116 54 182.5t152 66.5q100 0 129 -72zM365 200v82q0 48 -29.5 74t-69.5 26q-48 0 -79 -37t-31 -116
q0 -69 28.5 -106t78.5 -37q39 0 70.5 29t31.5 85z" />
    <glyph glyph-name="gacute.school" unicode="&#xe162;" horiz-adv-x="549" 
d="M402 462h81v-441q0 -117 -67.5 -174.5t-171.5 -57.5q-170 0 -217 121l96 58q28 -89 121 -89q55 0 88 32t33 97v80q-30 -92 -146 -92q-77 0 -130 58t-53 170q0 116 54 182.5t152 66.5q100 0 129 -72zM365 200v82q0 48 -29.5 74t-69.5 26q-48 0 -79 -37t-31 -116
q0 -69 28.5 -106t78.5 -37q39 0 70.5 29t31.5 85zM311 527h-107l71 151h152z" />
    <glyph glyph-name="gcircumflex.school" unicode="&#xe163;" horiz-adv-x="549" 
d="M402 462h81v-441q0 -117 -67.5 -174.5t-171.5 -57.5q-170 0 -217 121l96 58q28 -89 121 -89q55 0 88 32t33 97v80q-30 -92 -146 -92q-77 0 -130 58t-53 170q0 116 54 182.5t152 66.5q100 0 129 -72zM365 200v82q0 48 -29.5 74t-69.5 26q-48 0 -79 -37t-31 -116
q0 -69 28.5 -106t78.5 -37q39 0 70.5 29t31.5 85zM239 680h73l132 -155h-113l-32 37q-8 10 -13.5 18.5t-6.5 12.5l-1 4h-5q-2 -13 -21 -35l-32 -37h-113z" />
    <glyph glyph-name="gtilde.school" unicode="&#xe164;" horiz-adv-x="549" 
d="M402 462h81v-441q0 -117 -67.5 -174.5t-171.5 -57.5q-170 0 -217 121l96 58q28 -89 121 -89q55 0 88 32t33 97v80q-30 -92 -146 -92q-77 0 -130 58t-53 170q0 116 54 182.5t152 66.5q100 0 129 -72zM365 200v82q0 48 -29.5 74t-69.5 26q-48 0 -79 -37t-31 -116
q0 -69 28.5 -106t78.5 -37q39 0 70.5 29t31.5 85zM358 524q-36 0 -74 23q-44 25 -58 25q-38 0 -31 -49h-68q-25 55 1 100.5t82 45.5q31 0 72 -23q44 -26 59 -26q34 0 27 47h71q24 -58 0.5 -100.5t-81.5 -42.5z" />
    <glyph glyph-name="gcaron.school" unicode="&#xe165;" horiz-adv-x="549" 
d="M402 462h81v-441q0 -117 -67.5 -174.5t-171.5 -57.5q-170 0 -217 121l96 58q28 -89 121 -89q55 0 88 32t33 97v80q-30 -92 -146 -92q-77 0 -130 58t-53 170q0 116 54 182.5t152 66.5q100 0 129 -72zM365 200v82q0 48 -29.5 74t-69.5 26q-48 0 -79 -37t-31 -116
q0 -69 28.5 -106t78.5 -37q39 0 70.5 29t31.5 85zM312 525h-73l-132 155h113l32 -37q8 -10 13.5 -18.5t6.5 -12.5l1 -4h5q2 13 21 35l32 37h113z" />
    <glyph glyph-name="gbreve.school" unicode="&#xe166;" horiz-adv-x="549" 
d="M402 462h81v-441q0 -117 -67.5 -174.5t-171.5 -57.5q-170 0 -217 121l96 58q28 -89 121 -89q55 0 88 32t33 97v80q-30 -92 -146 -92q-77 0 -130 58t-53 170q0 116 54 182.5t152 66.5q100 0 129 -72zM365 200v82q0 48 -29.5 74t-69.5 26q-48 0 -79 -37t-31 -116
q0 -69 28.5 -106t78.5 -37q39 0 70.5 29t31.5 85zM272 522q-71 0 -108 42t-37 110h90q1 -33 12.5 -49.5t42.5 -16.5q32 0 43 16t13 50h90q0 -68 -37 -110t-109 -42z" />
    <glyph glyph-name="gdotaccent.school" unicode="&#xe167;" horiz-adv-x="549" 
d="M402 462h81v-441q0 -117 -67.5 -174.5t-171.5 -57.5q-170 0 -217 121l96 58q28 -89 121 -89q55 0 88 32t33 97v80q-30 -92 -146 -92q-77 0 -130 58t-53 170q0 116 54 182.5t152 66.5q100 0 129 -72zM365 200v82q0 48 -29.5 74t-69.5 26q-48 0 -79 -37t-31 -116
q0 -69 28.5 -106t78.5 -37q39 0 70.5 29t31.5 85zM199 595q0 33 21.5 52.5t52.5 19.5q34 0 55.5 -19.5t21.5 -52.5q0 -32 -21.5 -51.5t-55.5 -19.5q-31 0 -52.5 19.5t-21.5 51.5z" />
    <glyph glyph-name="gcommaaccent.school" unicode="&#xe168;" horiz-adv-x="549" 
d="M402 462h81v-441q0 -117 -67.5 -174.5t-171.5 -57.5q-170 0 -217 121l96 58q28 -89 121 -89q55 0 88 32t33 97v80q-30 -92 -146 -92q-77 0 -130 58t-53 170q0 116 54 182.5t152 66.5q100 0 129 -72zM365 200v82q0 48 -29.5 74t-69.5 26q-48 0 -79 -37t-31 -116
q0 -69 28.5 -106t78.5 -37q39 0 70.5 29t31.5 85zM214 611q0 111 136 111v-42q-33 -1 -48.5 -9.5t-15.5 -30.5q28 5 48 -9.5t20 -43.5t-18.5 -45t-47.5 -16q-32 0 -53 23.5t-21 61.5z" />
    <glyph glyph-name="gcommaturnedabove.school" unicode="&#xe169;" horiz-adv-x="549" 
d="M402 462h81v-441q0 -117 -67.5 -174.5t-171.5 -57.5q-170 0 -217 121l96 58q28 -89 121 -89q55 0 88 32t33 97v80q-30 -92 -146 -92q-77 0 -130 58t-53 170q0 116 54 182.5t152 66.5q100 0 129 -72zM365 200v82q0 48 -29.5 74t-69.5 26q-48 0 -79 -37t-31 -116
q0 -69 28.5 -106t78.5 -37q39 0 70.5 29t31.5 85zM214 611q0 111 136 111v-42q-33 -1 -48.5 -9.5t-15.5 -30.5q28 5 48 -9.5t20 -43.5t-18.5 -45t-47.5 -16q-32 0 -53 23.5t-21 61.5z" />
    <glyph glyph-name="gstroke.school" unicode="&#xe16a;" horiz-adv-x="549" 
d="M228 -74v35h132q5 22 5 43v84q-37 -92 -148 -92q-77 0 -129 58t-52 170q0 116 54 182.5t152 66.5q100 0 129 -72l31 61h81v-441q0 -31 -6 -60h76v-35h-86q-26 -68 -86 -102.5t-137 -34.5q-170 0 -217 121l96 53q28 -88 121 -88q70 0 102 51h-118zM365 199v84
q0 50 -31.5 76t-70.5 26q-42 0 -74.5 -38.5t-32.5 -114.5q0 -71 28.5 -106.5t78.5 -35.5q38 0 70 28t32 81z" />
    <glyph glyph-name="y.school" unicode="&#xe16b;" horiz-adv-x="523" 
d="M58 462h119v-284q0 -91 70 -91q38 0 64.5 32.5t26.5 95.5v247h119v-449q0 -110 -58.5 -167t-168.5 -57q-159 0 -205 118l95 58q26 -87 111 -87q56 0 82 29.5t26 92.5v90q-25 -93 -139 -93q-65 0 -103.5 36.5t-38.5 113.5v315z" />
    <glyph glyph-name="ygrave.school" unicode="&#xe16c;" horiz-adv-x="523" 
d="M58 462h119v-284q0 -91 70 -91q38 0 64.5 32.5t26.5 95.5v247h119v-449q0 -110 -58.5 -167t-168.5 -57q-159 0 -205 118l95 58q26 -87 111 -87q56 0 82 29.5t26 92.5v90q-25 -93 -139 -93q-65 0 -103.5 36.5t-38.5 113.5v315zM317 527h-108l-116 151h152z" />
    <glyph glyph-name="yacute.school" unicode="&#xe16d;" horiz-adv-x="523" 
d="M58 462h119v-284q0 -91 70 -91q38 0 64.5 32.5t26.5 95.5v247h119v-449q0 -110 -58.5 -167t-168.5 -57q-159 0 -205 118l95 58q26 -87 111 -87q56 0 82 29.5t26 92.5v90q-25 -93 -139 -93q-65 0 -103.5 36.5t-38.5 113.5v315zM299 527h-107l71 151h152z" />
    <glyph glyph-name="ycircumflex.school" unicode="&#xe16e;" horiz-adv-x="523" 
d="M58 462h119v-284q0 -91 70 -91q38 0 64.5 32.5t26.5 95.5v247h119v-449q0 -110 -58.5 -167t-168.5 -57q-159 0 -205 118l95 58q26 -87 111 -87q56 0 82 29.5t26 92.5v90q-25 -93 -139 -93q-65 0 -103.5 36.5t-38.5 113.5v315zM218 680h73l132 -155h-113l-32 37
q-8 10 -13.5 18.5t-6.5 12.5l-1 4h-5q-2 -13 -21 -35l-32 -37h-113z" />
    <glyph glyph-name="ydieresis.school" unicode="&#xe16f;" horiz-adv-x="523" 
d="M58 462h119v-284q0 -91 70 -91q38 0 64.5 32.5t26.5 95.5v247h119v-449q0 -110 -58.5 -167t-168.5 -57q-159 0 -205 118l95 58q26 -87 111 -87q56 0 82 29.5t26 92.5v90q-25 -93 -139 -93q-65 0 -103.5 36.5t-38.5 113.5v315zM78 596q0 32 20 51t49 19q31 0 51 -18.5
t20 -51.5q0 -32 -20 -51t-51 -19q-29 0 -49 19t-20 51zM289 595q0 33 19.5 51.5t49.5 18.5q31 0 50.5 -18.5t19.5 -51.5q0 -32 -19.5 -50.5t-50.5 -18.5q-29 0 -49 19t-20 50z" />
    <glyph glyph-name="ymacron.school" unicode="&#xe171;" horiz-adv-x="523" 
d="M58 462h119v-284q0 -91 70 -91q38 0 64.5 32.5t26.5 95.5v247h119v-449q0 -110 -58.5 -167t-168.5 -57q-159 0 -205 118l95 58q26 -87 111 -87q56 0 82 29.5t26 92.5v90q-25 -93 -139 -93q-65 0 -103.5 36.5t-38.5 113.5v315zM401 545h-283v97h283v-97z" />
    <glyph glyph-name="cordinal" unicode="&#xe181;" horiz-adv-x="351" 
d="M243 395l81 -28q-9 -44 -44.5 -66t-87.5 -22q-69 0 -109.5 41.5t-40.5 116.5q0 77 41 120.5t111 43.5q54 0 88 -27t37 -73l-78 -22q-8 47 -45 47q-58 0 -58 -85q0 -39 15 -63.5t44 -24.5q37 0 46 42z" />
    <glyph glyph-name="ordfeminine.school" unicode="&#xe182;" horiz-adv-x="400" 
d="M258 413v58q0 32 -18.5 48t-43.5 16q-28 0 -48 -23.5t-20 -74.5q0 -44 18 -68t49 -24q25 0 44 17.5t19 50.5zM258 553l16 40h79v-306h-77l-12 52q-29 -60 -105 -60q-53 0 -90 40.5t-37 112.5q0 79 37.5 124t106.5 45q30 0 53 -14t29 -34z" />
    <glyph glyph-name="gsuperior.school" unicode="&#xe183;" horiz-adv-x="420" 
d="M268 425v53q0 29 -18.5 44t-43.5 15q-28 0 -48 -22t-20 -69q0 -39 18 -61t49 -22q25 0 44 16t19 46zM363 593v-269q0 -153 -178 -153q-104 0 -146 56l55 58q34 -45 92 -45q82 0 82 68v41q-26 -51 -99 -51q-54 0 -90.5 37t-36.5 104q0 74 38 118t106 44q30 0 53.5 -14
t29.5 -34l16 40h78z" />
    </font>
</defs>
</svg>
