<?xml version="1.0" standalone="no"?>
<!DOCTYPE svg PUBLIC "-//W3C//DTD SVG 1.1//EN" "http://www.w3.org/Graphics/SVG/1.1/DTD/svg11.dtd" >
<svg xmlns="http://www.w3.org/2000/svg" xmlns:xlink="http://www.w3.org/1999/xlink" version="1.1">
<metadata>
Created by FontForge 20150102 at Fri Mar 13 11:46:09 2015
 By uniteet7
Copyright (c) 2004-9 by Kris Sowersby. All rights reserved.
</metadata>
<defs>
<font id="NationalLight" horiz-adv-x="487" >
  <font-face 
    font-family="NationalLight"
    font-weight="460"
    font-stretch="normal"
    units-per-em="1000"
    panose-1="0 0 0 0 0 0 0 0 0 0"
    ascent="800"
    descent="-200"
    x-height="462"
    cap-height="589"
    bbox="-91 -257 1184 927"
    underline-thickness="50"
    underline-position="-50"
    unicode-range="U+0020-F778"
  />
<missing-glyph horiz-adv-x="755" 
d="M83 0v589h589v-589h-589zM377 264l-221 -221h443zM156 546l221 -222l222 222h-443zM407 294l222 -221v443zM347 294l-221 222v-443z" />
    <glyph glyph-name="f_b" unicode="fb" horiz-adv-x="769" 
d="M366 0h-33v607q-43 26 -92 26q-46 0 -73.5 -28.5t-27.5 -88.5v-54h108v-42h-108v-420h-51v420h-67v42h67v56q0 81 44 119t107 38q56 0 101 -25l31 18h12v-308q14 53 56.5 82t98.5 29q86 0 135.5 -59.5t49.5 -171.5q0 -113 -53 -181t-144 -68q-59 0 -96.5 26.5t-51.5 67.5
zM384 267v-86q0 -73 40.5 -111.5t95.5 -38.5q67 0 109.5 52t42.5 153q0 94 -38 142.5t-104 48.5q-62 0 -104 -41.5t-42 -118.5z" />
    <glyph glyph-name="f_f_b" unicode="ffb" horiz-adv-x="1014" 
d="M628 267v-86q0 -73 40.5 -111.5t95.5 -38.5q67 0 109.5 52t42.5 153q0 94 -38 142.5t-104 48.5q-62 0 -104 -41.5t-42 -118.5zM616 668h12v-308q15 53 57 82t98 29q86 0 135.5 -59.5t49.5 -171.5q0 -113 -53 -181t-144 -68q-59 0 -96.5 26.5t-51.5 67.5l-12 -85h-34v607
q-43 26 -92 26q-46 0 -73.5 -28.5t-27.5 -88.5v-54h108v-42h-108v-420h-51v420h-193v-420h-51v420h-67v42h67v58q0 75 36 110.5t95 35.5q46 0 82 -22l-14 -44q-32 22 -70 22q-78 0 -78 -101v-59h193v56q0 81 44 119t107 38q58 0 101 -25z" />
    <glyph glyph-name="f_f_h" unicode="ffh" horiz-adv-x="991" 
d="M616 668h12v-311q15 52 53.5 83t95.5 31q64 0 103 -36t39 -110v-325h-51v312q0 55 -26.5 84.5t-75.5 29.5q-60 0 -99 -42t-39 -122v-262h-51v607q-43 26 -92 26q-46 0 -73.5 -28.5t-27.5 -88.5v-54h108v-42h-108v-420h-51v420h-193v-420h-51v420h-67v42h67v58
q0 75 36 110.5t95 35.5q46 0 82 -22l-14 -44q-32 22 -70 22q-78 0 -78 -101v-59h193v56q0 81 44 119t107 38q58 0 101 -25z" />
    <glyph glyph-name="f_f_j" unicode="ffj" horiz-adv-x="705" 
d="M384 420v-420h-51v420h-193v-420h-51v420h-67v42h67v58q0 75 36 110.5t95 35.5q46 0 82 -22l-14 -44q-32 22 -70 22q-78 0 -78 -101v-59h193v52q0 83 42.5 122t105.5 39q68 0 112 -31l-20 -42q-43 30 -92 30q-97 0 -97 -121v-49h244v-502q0 -88 -42.5 -126.5
t-127.5 -36.5v43q60 -3 89.5 24.5t29.5 90.5v465h-193z" />
    <glyph glyph-name="f_f_k" unicode="ffk" horiz-adv-x="930" 
d="M616 668h12v-405h36l177 199h63l-196 -216l215 -246h-65l-190 221h-40v-221h-51v607q-43 26 -92 26q-46 0 -73.5 -28.5t-27.5 -88.5v-54h108v-42h-108v-420h-51v420h-193v-420h-51v420h-67v42h67v58q0 75 36 110.5t95 35.5q46 0 82 -22l-14 -44q-32 22 -70 22
q-78 0 -78 -101v-59h193v56q0 81 44 119t107 38q58 0 101 -25z" />
    <glyph glyph-name="f_h" unicode="fh" horiz-adv-x="747" 
d="M372 668h12v-311q14 52 53 83t96 31q64 0 103 -36t39 -110v-325h-51v312q0 55 -26.5 84.5t-75.5 29.5q-60 0 -99 -42t-39 -122v-262h-51v607q-43 26 -92 26q-46 0 -73.5 -28.5t-27.5 -88.5v-54h108v-42h-108v-420h-51v420h-67v42h67v56q0 81 44 119t107 38q56 0 101 -25z
" />
    <glyph glyph-name="f_j" unicode="fj" horiz-adv-x="461" 
d="M333 -45v465h-193v-420h-51v420h-67v42h67v52q0 83 42.5 122t105.5 39q64 0 111 -33l-19 -42q-42 31 -92 31q-97 0 -97 -120v-49h244v-502q0 -88 -42.5 -126.5t-127.5 -36.5v43q60 -3 89.5 24.5t29.5 90.5z" />
    <glyph glyph-name="f_k" unicode="fk" horiz-adv-x="686" 
d="M372 668h12v-405h36l177 199h63l-196 -216l215 -246h-65l-190 221h-40v-221h-51v607q-43 26 -92 26q-46 0 -73.5 -28.5t-27.5 -88.5v-54h108v-42h-108v-420h-51v420h-67v42h67v56q0 81 44 119t107 38q56 0 101 -25z" />
    <glyph glyph-name="ff" unicode="ff" horiz-adv-x="501" 
d="M333 420h-193v-420h-51v420h-67v42h67v58q0 75 36 110.5t95 35.5q46 0 82 -22l-14 -44q-32 22 -70 22q-78 0 -78 -101v-59h193v65q0 75 37.5 111.5t97.5 36.5q51 0 87 -22l-13 -44q-34 22 -73 22q-85 0 -85 -107v-62h118v-42h-118v-420h-51v420z" />
    <glyph glyph-name="ffi" unicode="ffi" horiz-adv-x="705" 
d="M333 462v52q0 83 42.5 122t105.5 39q68 0 112 -31l-20 -42q-43 30 -92 30q-97 0 -97 -121v-49h244v-462h-51v420h-193v-420h-51v420h-193v-420h-51v420h-67v42h67v58q0 75 36 110.5t95 35.5q46 0 82 -22l-14 -44q-32 22 -70 22q-78 0 -78 -101v-59h193z" />
    <glyph glyph-name="ffl" unicode="ffl" horiz-adv-x="730" 
d="M616 668h12v-579q0 -50 43 -50q14 0 31 5v-44q-21 -5 -41 -5q-39 0 -61.5 22t-22.5 65v525q-43 26 -92 26q-46 0 -73.5 -28.5t-27.5 -88.5v-54h108v-42h-108v-420h-51v420h-193v-420h-51v420h-67v42h67v58q0 75 36 110.5t95 35.5q46 0 82 -22l-14 -44q-32 22 -70 22
q-78 0 -78 -101v-59h193v56q0 81 44 119t107 38q58 0 101 -25z" />
    <glyph glyph-name="fi" unicode="fi" horiz-adv-x="461" 
d="M89 420h-67v42h67v52q0 83 42.5 122t105.5 39q64 0 111 -33l-19 -42q-42 31 -92 31q-97 0 -97 -120v-49h244v-462h-51v420h-193v-420h-51v420z" />
    <glyph glyph-name="fl" unicode="fl" horiz-adv-x="486" 
d="M372 668h12v-579q0 -50 43 -50q15 0 30 5v-44q-20 -5 -40 -5q-39 0 -61.5 22t-22.5 65v525q-43 26 -92 26q-46 0 -73.5 -28.5t-27.5 -88.5v-54h108v-42h-108v-420h-51v420h-67v42h67v56q0 81 44 119t107 38q56 0 101 -25z" />
    <glyph glyph-name=".notdef" horiz-adv-x="755" 
d="M83 0v589h589v-589h-589zM377 264l-221 -221h443zM156 546l221 -222l222 222h-443zM407 294l222 -221v443zM347 294l-221 222v-443z" />
    <glyph glyph-name=".null" horiz-adv-x="0" 
 />
    <glyph glyph-name="nonmarkingreturn" horiz-adv-x="333" 
 />
    <glyph glyph-name="space" unicode=" " horiz-adv-x="207" 
 />
    <glyph glyph-name="exclam" unicode="!" horiz-adv-x="225" 
d="M79 589h66l-15 -423h-35zM73 36q0 17 11 28.5t28 11.5t28.5 -11.5t11.5 -28.5t-11.5 -28t-28.5 -11q-16 0 -27.5 11.5t-11.5 27.5z" />
    <glyph glyph-name="quotedbl" unicode="&#x22;" horiz-adv-x="289" 
d="M64 412v256h59l-25 -256h-34zM177 412v256h59l-26 -256h-33z" />
    <glyph glyph-name="numbersign" unicode="#" horiz-adv-x="612" 
d="M547 159h-161l-48 -159h-43l48 159h-126l-48 -159h-43l48 159h-130v41h142l32 109h-154v41h166l40 131h43l-39 -131h125l40 131h43l-39 -131h124v-41h-136l-33 -109h149v-41zM262 309l-33 -109h126l32 109h-125z" />
    <glyph glyph-name="dollar" unicode="$" horiz-adv-x="427" 
d="M201 -106v97q-150 5 -169 128l51 8q15 -91 118 -97v193l-29 6q-121 25 -121 130q0 63 42 95t108 36v84h36v-85q131 -6 147 -125l-51 -7q-12 80 -96 91v-183l18 -3q132 -26 132 -139q0 -60 -40 -93t-110 -38v-98h-36zM337 120q0 71 -84 92l-16 4v-185q100 10 100 89z
M101 363q0 -71 88 -88l12 -2v176q-45 -2 -72.5 -24t-27.5 -62z" />
    <glyph glyph-name="percent" unicode="%" horiz-adv-x="818" 
d="M172 230q-65 0 -100 50.5t-35 132.5q0 81 36 132t99 51q62 0 98 -51t36 -132q0 -82 -35 -132.5t-99 -50.5zM172 557q-43 0 -67 -40t-24 -105q0 -64 24.5 -105t66.5 -41t66 41t24 105q0 65 -23.5 105t-66.5 40zM227 0l324 590h41l-323 -590h-42zM647 -6q-64 0 -99.5 50.5
t-35.5 132.5q0 81 36 132t99 51t99 -51t36 -132q0 -82 -35.5 -132.5t-99.5 -50.5zM647 321q-43 0 -67 -40t-24 -105q0 -64 24.5 -104.5t66.5 -40.5t66.5 40.5t24.5 104.5q0 65 -24 105t-67 40z" />
    <glyph glyph-name="ampersand" unicode="&#x26;" horiz-adv-x="530" 
d="M514 24l-36 -33l-77 80q-72 -80 -189 -80q-84 0 -133.5 39t-49.5 113q0 111 135 173l-24 26q-59 61 -59 124q0 60 39.5 96t104.5 36q68 0 106 -36t38 -93q0 -55 -31.5 -92t-98.5 -70l159 -166q35 55 40 147l48 -11q-10 -104 -55 -168zM79 144q0 -53 37 -82.5t96 -29.5
q98 0 161 69l-180 185q-57 -26 -85.5 -58.5t-28.5 -83.5zM225 558q-44 0 -70 -24t-26 -66q0 -47 54 -104l27 -29q57 27 83.5 56.5t26.5 74.5q0 41 -24 66.5t-71 25.5z" />
    <glyph glyph-name="quotesingle" unicode="'" horiz-adv-x="177" 
d="M64 412v256h59l-25 -256h-34z" />
    <glyph glyph-name="parenleft" unicode="(" horiz-adv-x="322" 
d="M130 233q0 -130 43 -228t133 -207h-59q-80 95 -124 198.5t-44 236.5t44 236.5t124 198.5h59q-90 -109 -133 -207t-43 -228z" />
    <glyph glyph-name="parenright" unicode=")" horiz-adv-x="322" 
d="M193 233q0 130 -43 228t-133 207h58q80 -94 124 -198t44 -237t-44 -237t-124 -198h-58q90 109 133 207t43 228z" />
    <glyph glyph-name="asterisk" unicode="*" horiz-adv-x="340" 
d="M193 589l-7 -106l97 41l14 -44l-104 -23l70 -83l-38 -26l-55 90l-55 -91l-37 28l69 82l-104 23l15 43l97 -40l-8 106h46z" />
    <glyph glyph-name="plus" unicode="+" horiz-adv-x="507" 
d="M49 265h185v180h35v-180h188v-34h-188v-194h-35v194h-185v34z" />
    <glyph glyph-name="comma" unicode="," horiz-adv-x="245" 
d="M171 11q0 -101 -111 -107v28q67 6 68 63q0 7 -1 9q-7 -5 -15 -5q-16 0 -26 10.5t-10 26.5q0 19 11.5 29.5t31.5 10.5q21 0 36.5 -17.5t15.5 -47.5z" />
    <glyph glyph-name="hyphen" unicode="-" horiz-adv-x="373" 
d="M74 244v44h224v-44h-224z" />
    <glyph glyph-name="period" unicode="." horiz-adv-x="246" 
d="M81 39q0 18 12 30t30 12t30 -12t12 -30t-12 -30t-30 -12t-30 12t-12 30z" />
    <glyph glyph-name="slash" unicode="/" horiz-adv-x="379" 
d="M14 -203l274 872h49l-275 -872h-48z" />
    <glyph glyph-name="zero" unicode="0" horiz-adv-x="567" 
d="M284 -9q-111 0 -173.5 70.5t-62.5 178.5q0 109 62.5 179.5t173.5 70.5q110 0 172.5 -71t62.5 -179t-62.5 -178.5t-172.5 -70.5zM284 445q-87 0 -135.5 -57.5t-48.5 -147.5q0 -91 48 -148t136 -57q87 0 135 57t48 148q0 90 -48 147.5t-135 57.5z" />
    <glyph glyph-name="one" unicode="1" horiz-adv-x="322" 
d="M212 0h-51v430l-141 -32v44l192 46v-488z" />
    <glyph glyph-name="two" unicode="2" horiz-adv-x="434" 
d="M398 44v-44h-363v44q282 119 282 287q0 57 -32 86.5t-84 29.5q-49 0 -79.5 -29.5t-37.5 -89.5l-48 10q11 81 57.5 116.5t111.5 35.5q71 0 118 -39t47 -118q0 -99 -79.5 -176t-185.5 -110v-3h293z" />
    <glyph glyph-name="three" unicode="3" horiz-adv-x="435" 
d="M213 191v-4q75 -5 123 -49t48 -112q0 -74 -54 -119t-130 -45q-83 0 -133 37.5t-58 102.5l49 9q19 -108 141 -108q59 0 96.5 33.5t37.5 90.5q0 128 -195 138v43q91 8 135.5 40.5t44.5 95.5q0 50 -33.5 76.5t-83.5 26.5q-102 0 -122 -104l-48 11q12 62 56 99t116 37
q71 0 119 -37t48 -109q0 -63 -43 -104.5t-114 -48.5z" />
    <glyph glyph-name="four" unicode="4" horiz-adv-x="490" 
d="M314 -131v185h-299v36l299 391h51v-384h98v-43h-98v-185h-51zM143 97h171v230l4 96h-3q-18 -32 -59 -88l-130 -171q-16 -21 -30.5 -37.5t-20.5 -22.5l-6 -7v-3q25 3 74 3z" />
    <glyph glyph-name="five" unicode="5" horiz-adv-x="434" 
d="M76 158l13 323h283v-45h-238l-11 -243q38 43 108 43q75 0 121.5 -48t46.5 -137q0 -91 -54 -140.5t-143 -49.5q-78 0 -125.5 39t-54.5 103l45 9q8 -54 44.5 -82.5t92.5 -28.5q65 0 105.5 37.5t40.5 110.5q0 69 -36.5 108.5t-97.5 39.5q-55 0 -100 -39h-40z" />
    <glyph glyph-name="six" unicode="6" horiz-adv-x="496" 
d="M442 483l-46 -18q-31 90 -121 90q-77 0 -125 -71.5t-51 -205.5v-44h2q11 67 55.5 104t109.5 37q86 0 137 -53t51 -138q0 -82 -52 -137.5t-145 -55.5q-114 0 -167 98q-37 71 -37 189q0 156 63.5 238t160.5 82q125 0 165 -115zM118 181q0 -65 39.5 -106.5t102.5 -41.5
q65 0 104.5 41t39.5 107q0 67 -40 108.5t-104 41.5t-103 -41.5t-39 -108.5z" />
    <glyph glyph-name="seven" unicode="7" horiz-adv-x="436" 
d="M346 436h-274v-87h-49v132h377v-37l-226 -575h-51z" />
    <glyph glyph-name="eight" unicode="8" horiz-adv-x="482" 
d="M241 -9q-86 0 -139 42.5t-53 116.5q0 56 32 95t87 52v4q-106 31 -106 141q0 70 49.5 113t129.5 43t129.5 -43t49.5 -113q0 -110 -106 -141v-4q55 -13 87.5 -52t32.5 -95q0 -74 -53.5 -116.5t-139.5 -42.5zM241 559q-60 0 -94 -31.5t-34 -85.5q0 -59 35 -90t93 -31
q59 0 93.5 31t34.5 90q0 54 -34 85.5t-94 31.5zM241 279q-63 0 -103 -32.5t-40 -91.5q0 -58 39 -91.5t104 -33.5t104 33.5t39 91.5q0 59 -40 91.5t-103 32.5z" />
    <glyph glyph-name="nine" unicode="9" horiz-adv-x="493" 
d="M33 -21l46 18q31 -95 132 -95q91 0 136 82.5t47 220.5v44h-3q-9 -70 -53.5 -108.5t-110.5 -38.5q-87 0 -138 54t-51 137q0 84 50.5 140.5t144.5 56.5q100 0 155 -73q52 -72 52 -213q0 -163 -60.5 -252.5t-169.5 -89.5q-138 0 -177 117zM375 297q0 67 -40.5 109t-102.5 42
q-66 0 -106 -42t-40 -109q0 -68 39.5 -110.5t106.5 -42.5q63 0 103 43t40 110z" />
    <glyph glyph-name="colon" unicode=":" horiz-adv-x="246" 
d="M81 39q0 18 12 30t30 12t30 -12t12 -30t-12 -30t-30 -12t-30 12t-12 30zM81 392q0 18 12 30t30 12t30 -12t12 -30t-12 -30t-30 -12t-30 12t-12 30z" />
    <glyph glyph-name="semicolon" unicode=";" horiz-adv-x="245" 
d="M76 392q0 18 12 30t31 12q18 0 30 -12t12 -30t-12 -30t-30 -12q-19 0 -31 12t-12 30zM171 11q0 -101 -111 -107v28q67 6 68 63q0 7 -1 9q-7 -5 -15 -5q-16 0 -26 10.5t-10 26.5q0 19 11.5 29.5t31.5 10.5q21 0 36.5 -17.5t15.5 -47.5z" />
    <glyph glyph-name="less" unicode="&#x3c;" horiz-adv-x="388" 
d="M324 432l-222 -185l222 -187l-22 -26l-253 213l253 212z" />
    <glyph glyph-name="equal" unicode="=" horiz-adv-x="507" 
d="M457 164h-408v34h408v-34zM457 291h-408v35h408v-35z" />
    <glyph glyph-name="greater" unicode="&#x3e;" horiz-adv-x="388" 
d="M280 247l-221 185l21 27l252 -212l-252 -213l-22 26z" />
    <glyph glyph-name="question" unicode="?" horiz-adv-x="387" 
d="M52 449l-44 16q13 60 56.5 96.5t116.5 36.5q81 0 129.5 -46.5t48.5 -122.5q0 -84 -52.5 -130t-126.5 -48v-94h-48v128h28q66 0 106.5 35t40.5 106q0 63 -35 96t-94 33q-106 0 -126 -106zM117 36q0 17 11.5 28.5t28.5 11.5t28 -11.5t11 -28.5q0 -16 -11 -27.5t-28 -11.5
t-28.5 11t-11.5 28z" />
    <glyph glyph-name="at" unicode="@" horiz-adv-x="866" 
d="M546 163v81q0 61 -36 92.5t-85 31.5q-61 0 -97 -42.5t-36 -131.5q0 -80 34.5 -121.5t94.5 -41.5q50 0 87 34t38 98zM593 401v-304q0 -67 61 -67q116 0 116 219q0 142 -91 224t-239 82q-151 0 -249 -95.5t-98 -264.5q0 -93 31 -163t84.5 -110.5t119.5 -60.5t142 -20
q105 0 184 30l10 -41q-90 -30 -195 -30q-84 0 -156.5 21t-134 65t-97 123t-35.5 186q0 180 106.5 290.5t289.5 110.5q182 0 278 -97.5t96 -248.5q0 -257 -165 -257q-47 0 -75 23t-30 67q-29 -92 -139 -92q-72 0 -118 52t-46 150q0 103 47 159t132 56q47 0 80.5 -22.5
t43.5 -55.5l16 71h31z" />
    <glyph glyph-name="A" unicode="A" horiz-adv-x="535" 
d="M469 0l-70 187h-264l-70 -187h-55l224 589h69l222 -589h-56zM217 408l-66 -176h231l-65 175q-15 40 -27 76.5t-16 53.5l-5 17h-4q-14 -56 -48 -146z" />
    <glyph glyph-name="B" unicode="B" horiz-adv-x="501" 
d="M324 306v-3q56 -3 95 -39.5t39 -99.5q0 -164 -207 -164h-164v589h162q183 0 183 -149q0 -57 -29.5 -91.5t-78.5 -42.5zM140 322h111q128 0 128 111q0 58 -34 84.5t-102 26.5h-103v-222zM140 278v-233h116q150 0 150 121q0 53 -37 82.5t-111 29.5h-118z" />
    <glyph glyph-name="C" unicode="C" horiz-adv-x="552" 
d="M484 146l38 -30q-67 -125 -219 -125q-117 0 -186 78.5t-69 223.5t72 225t192 80q154 0 210 -140l-47 -23q-42 118 -166 118q-98 0 -152 -69t-54 -191q0 -121 52 -188t150 -67q64 0 107 26t72 82z" />
    <glyph glyph-name="D" unicode="D" horiz-adv-x="581" 
d="M140 45h104q110 0 172 64.5t62 189.5t-60 185t-169 60h-109v-499zM249 0h-162v589h163q132 0 207.5 -69.5t75.5 -218.5q0 -154 -79.5 -227.5t-204.5 -73.5z" />
    <glyph glyph-name="E" unicode="E" horiz-adv-x="474" 
d="M422 46v-46h-335v589h335v-46h-282v-225h251v-46h-251v-226h282z" />
    <glyph glyph-name="F" unicode="F" horiz-adv-x="436" 
d="M140 0h-53v589h321v-46h-268v-225h237v-46h-237v-272z" />
    <glyph glyph-name="G" unicode="G" horiz-adv-x="594" 
d="M315 288h212v-288h-46l-7 101q-15 -51 -62.5 -80.5t-108.5 -29.5q-117 0 -186 79t-69 223q0 145 72 225t192 80q157 0 210 -140l-47 -23q-42 118 -166 118q-98 0 -152 -69t-54 -191q0 -119 52.5 -188t149.5 -69q72 0 120.5 39t48.5 120v45h-159v48z" />
    <glyph glyph-name="H" unicode="H" horiz-adv-x="620" 
d="M140 0h-53v589h53v-268h340v268h52v-589h-52v274h-340v-274z" />
    <glyph glyph-name="I" unicode="I" horiz-adv-x="227" 
d="M87 589h53v-589h-53v589z" />
    <glyph glyph-name="J" unicode="J" horiz-adv-x="426" 
d="M306 589h52v-417q0 -95 -47.5 -138t-124.5 -43q-129 0 -177 118l43 27q22 -53 54 -76.5t82 -23.5q61 0 89.5 36t28.5 113v404z" />
    <glyph glyph-name="K" unicode="K" horiz-adv-x="500" 
d="M485 0h-66l-229 274h-50v-274h-53v589h53v-268h52l215 268h63l-235 -289z" />
    <glyph glyph-name="L" unicode="L" horiz-adv-x="436" 
d="M87 589h53v-543h274v-46h-327v589z" />
    <glyph glyph-name="M" unicode="M" horiz-adv-x="703" 
d="M372 147h-41l-145 270q-16 30 -28 56.5t-16 37.5l-3 11h-3q3 -37 3 -108v-414h-52v589h65l172 -327l28 -63h3q7 23 28 63l171 327h62v-589h-52v414l3 108h-3q-11 -37 -47 -105z" />
    <glyph glyph-name="N" unicode="N" horiz-adv-x="629" 
d="M144 589l280 -410q17 -24 33.5 -51.5t24.5 -42.5l8 -15h3q-3 58 -3 124v395h52v-589h-56l-281 410q-16 24 -32.5 51t-24.5 43l-9 15h-4q4 -58 4 -124v-395h-52v589h57z" />
    <glyph glyph-name="O" unicode="O" horiz-adv-x="608" 
d="M304 -9q-119 0 -187.5 79.5t-68.5 223.5t68.5 224t187.5 80t187.5 -80t68.5 -224t-68.5 -223.5t-187.5 -79.5zM304 552q-97 0 -149 -68t-52 -190q0 -121 52 -189t149 -68t149.5 68t52.5 189t-52.5 189.5t-149.5 68.5z" />
    <glyph glyph-name="P" unicode="P" horiz-adv-x="475" 
d="M140 544v-268h104q77 0 111.5 34t34.5 103q0 131 -147 131h-103zM140 0h-53v589h158q200 0 200 -174q0 -89 -49.5 -136t-146.5 -47h-109v-232z" />
    <glyph glyph-name="Q" unicode="Q" horiz-adv-x="608" 
d="M501 -88l-14 -46q-12 -2 -26 -2q-150 0 -190 129q-104 11 -163.5 89.5t-59.5 211.5q0 144 68.5 224t187.5 80t187.5 -80t68.5 -224q0 -137 -63.5 -217t-171.5 -85q39 -83 148 -83q15 0 28 3zM304 552q-97 0 -149 -68t-52 -190t52 -190t149 -68t149.5 68.5t52.5 189.5
t-52.5 189.5t-149.5 68.5z" />
    <glyph glyph-name="R" unicode="R" horiz-adv-x="530" 
d="M494 0h-58q-19 22 -28 59l-24 105q-12 52 -43.5 73.5t-89.5 21.5h-111v-259h-53v589h182q193 0 193 -162q0 -67 -39.5 -105.5t-97.5 -41.5v-2q44 -5 69.5 -27.5t38.5 -71.5l28 -114q10 -39 33 -65zM140 544v-240h128q139 0 139 120t-139 120h-128z" />
    <glyph glyph-name="S" unicode="S" horiz-adv-x="465" 
d="M31 148l50 10q21 -125 147 -125q64 0 100.5 28.5t36.5 82.5q0 51 -31.5 79.5t-111.5 54.5q-41 13 -65 23t-52 29t-41 47t-13 66q0 80 50.5 118t124.5 38q171 0 188 -155l-51 -8q-16 120 -136 120q-56 0 -90 -27.5t-34 -81.5q0 -51 33.5 -75t116.5 -51q82 -27 123.5 -63
t41.5 -108q0 -78 -52.5 -118.5t-138.5 -40.5q-172 0 -196 157z" />
    <glyph glyph-name="T" unicode="T" horiz-adv-x="465" 
d="M259 0h-53v543h-192v46h437v-46h-192v-543z" />
    <glyph glyph-name="U" unicode="U" horiz-adv-x="574" 
d="M454 589h52v-388q0 -107 -62.5 -158.5t-156.5 -51.5q-95 0 -157 51.5t-62 158.5v388h53v-377q0 -91 46 -134t120 -43q75 0 121 43t46 132v379z" />
    <glyph glyph-name="V" unicode="V" horiz-adv-x="514" 
d="M71 589l149 -430q13 -38 22 -68.5t12 -42.5l3 -12h3q6 38 35 122l150 431h54l-207 -589h-71l-207 589h57z" />
    <glyph glyph-name="W" unicode="W" horiz-adv-x="789" 
d="M426 589l110 -403l36 -152h4q11 60 36 151l110 404h53l-165 -589h-74l-107 391q-11 40 -19.5 77t-11.5 54l-2 17h-3q-8 -55 -33 -148l-107 -391h-74l-165 589h56l110 -402l36 -153h3q11 62 36 152l113 403h58z" />
    <glyph glyph-name="X" unicode="X" horiz-adv-x="502" 
d="M429 0l-136 200l-41 66h-3q-7 -15 -42 -67l-134 -199h-59l207 301l-195 288h61l122 -183l41 -68h3q6 14 41 67l122 184h57l-193 -283l207 -306h-58z" />
    <glyph glyph-name="Y" unicode="Y" horiz-adv-x="469" 
d="M74 589l118 -216l46 -93h3q9 27 44 93l114 216h55l-190 -353v-236h-52v236l-198 353h60z" />
    <glyph glyph-name="Z" unicode="Z" horiz-adv-x="465" 
d="M435 553l-290 -433l-52 -73v-3q21 2 84 2h264v-46h-413v31l290 438l52 73v3q-21 -2 -84 -2h-247v46h396v-36z" />
    <glyph glyph-name="bracketleft" unicode="[" horiz-adv-x="314" 
d="M137 629v-792h146v-40h-194v872h194v-40h-146z" />
    <glyph glyph-name="backslash" unicode="\" horiz-adv-x="379" 
d="M90 669l274 -872h-48l-274 872h48z" />
    <glyph glyph-name="bracketright" unicode="]" horiz-adv-x="314" 
d="M177 -163v792h-146v40h194v-872h-194v40h146z" />
    <glyph glyph-name="asciicircum" unicode="^" horiz-adv-x="480" 
d="M387 330l-98 189q-16 31 -27.5 58t-15.5 39l-4 11h-3q-11 -39 -48 -108l-100 -189h-52l181 338h40l181 -338h-54z" />
    <glyph glyph-name="underscore" unicode="_" horiz-adv-x="454" 
d="M54 -87v43h346v-43h-346z" />
    <glyph glyph-name="grave" unicode="`" horiz-adv-x="313" 
d="M226 533h-43l-99 136h71z" />
    <glyph glyph-name="a" unicode="a" horiz-adv-x="453" 
d="M319 145v76q-24 3 -48 3q-180 0 -180 -104q0 -41 25.5 -64.5t73.5 -23.5q52 0 90.5 30.5t38.5 82.5zM370 329v-233q0 -58 37 -58q13 0 21 4v-42q-16 -4 -31 -4q-71 0 -75 82q-16 -43 -54.5 -65t-87.5 -22q-64 0 -102 33t-38 91q0 147 221 147q37 0 58 -3v64
q0 105 -108 105q-100 0 -108 -93l-47 7q5 68 50 98.5t110 30.5q69 0 111.5 -33.5t42.5 -108.5z" />
    <glyph glyph-name="b" unicode="b" horiz-adv-x="513" 
d="M127 267v-86q0 -73 40.5 -111.5t95.5 -38.5q67 0 109.5 52t42.5 153q0 94 -38 142.5t-104 48.5q-62 0 -104 -41.5t-42 -118.5zM122 85l-12 -85h-34v668h51v-308q15 53 57 82t98 29q86 0 135.5 -59.5t49.5 -171.5q0 -113 -53 -181t-144 -68q-59 0 -96.5 26.5t-51.5 67.5z
" />
    <glyph glyph-name="c" unicode="c" horiz-adv-x="447" 
d="M368 128l43 -9q-22 -128 -173 -128q-89 0 -140.5 61.5t-51.5 176.5t52.5 178.5t145.5 63.5q150 0 162 -147l-47 -7q-14 110 -118 110q-70 0 -108 -53t-38 -146q0 -90 39.5 -142.5t107.5 -52.5q102 0 126 95z" />
    <glyph glyph-name="d" unicode="d" horiz-adv-x="513" 
d="M386 188v94q0 72 -41.5 109.5t-96.5 37.5q-69 0 -110 -50t-41 -154q0 -94 39.5 -143t106.5 -49q57 0 99.5 40t43.5 115zM386 379v289h51v-668h-44l-7 97q-17 -52 -58 -79t-98 -27q-80 0 -132 60.5t-52 172.5q0 119 53 183t148 64q52 0 90 -26.5t49 -65.5z" />
    <glyph glyph-name="e" unicode="e" horiz-adv-x="458" 
d="M245 32q98 0 122 91l45 -10q-24 -122 -171 -122q-91 0 -143 61.5t-52 177.5q0 114 53 177.5t145 63.5q81 0 125 -51t44 -133q0 -29 -6 -59h-312q0 -93 39.5 -144.5t110.5 -51.5zM97 270h265q1 9 1 27q0 58 -32.5 95t-89.5 37q-64 0 -100.5 -41.5t-43.5 -117.5z" />
    <glyph glyph-name="f" unicode="f" horiz-adv-x="257" 
d="M89 420h-67v42h67v65q0 75 37.5 111.5t97.5 36.5q51 0 87 -22l-14 -44q-35 24 -72 24q-85 0 -85 -107v-64h118v-42h-118v-420h-51v420z" />
    <glyph glyph-name="g" unicode="g" horiz-adv-x="460" 
d="M222 471q86 0 134 -51q36 20 41 82l46 -15q-7 -71 -67 -93q20 -35 20 -84q0 -74 -48.5 -116t-124.5 -42q-39 0 -67 10q-39 -18 -39 -54q0 -48 67 -48h105q71 0 111.5 -30t40.5 -93q0 -42 -20.5 -72t-55.5 -46t-73.5 -23t-82.5 -7q-55 0 -96.5 10.5t-71 40.5t-29.5 77
q0 51 34 82t89 34q-30 2 -46.5 20.5t-16.5 46.5q0 54 58 72q-81 40 -81 138q0 74 47 117.5t126 43.5zM61 -79q0 -93 152 -93q79 0 129 24.5t50 79.5q0 82 -104 82h-98q-129 0 -129 -93zM99 311q0 -55 33 -87.5t90 -32.5q56 0 89.5 31.5t33.5 88.5t-33.5 88.5t-89.5 31.5
q-57 -1 -90 -32.5t-33 -87.5z" />
    <glyph glyph-name="h" unicode="h" horiz-adv-x="490" 
d="M128 668v-311q15 52 53.5 83t95.5 31q64 0 103 -36t39 -110v-325h-51v312q0 55 -26.5 84.5t-75.5 29.5q-60 0 -99 -42t-39 -122v-262h-51v668h51z" />
    <glyph glyph-name="i" unicode="i" horiz-adv-x="205" 
d="M65 604q0 17 10.5 28t26.5 11t27.5 -11.5t11.5 -27.5t-11 -26.5t-28 -10.5q-16 0 -26.5 10.5t-10.5 26.5zM77 462h51v-462h-51v462z" />
    <glyph glyph-name="j" unicode="j" horiz-adv-x="205" 
d="M77 462h51v-502q0 -88 -42.5 -126.5t-127.5 -36.5v43q60 -3 89.5 24.5t29.5 90.5v507zM65 604q0 16 11 27.5t27 11.5t27 -11.5t11 -27.5t-11 -26.5t-27 -10.5t-27 10.5t-11 26.5z" />
    <glyph glyph-name="k" unicode="k" horiz-adv-x="429" 
d="M208 246l215 -246h-65l-190 221h-40v-221h-51v668h51v-405h36l177 199h63z" />
    <glyph glyph-name="l" unicode="l" horiz-adv-x="225" 
d="M195 44v-44q-21 -5 -40 -5q-40 0 -62.5 22t-22.5 65v586h51v-579q0 -50 43 -50q14 0 31 5z" />
    <glyph glyph-name="m" unicode="m" horiz-adv-x="758" 
d="M400 356q15 55 55 85t94 30q64 0 100.5 -35.5t36.5 -107.5v-328h-51v312q0 114 -97 114q-56 0 -93.5 -43t-37.5 -121v-262h-51v312q0 55 -24.5 84.5t-71.5 29.5q-56 0 -94 -43t-38 -121v-262h-51v462h39l7 -105q15 54 54 84t94 30q116 0 129 -115z" />
    <glyph glyph-name="n" unicode="n" horiz-adv-x="492" 
d="M116 462l7 -106q16 53 56.5 84t98.5 31q64 0 102.5 -36t38.5 -110v-325h-51v312q0 55 -26.5 84.5t-75.5 29.5q-59 0 -98.5 -42t-39.5 -122v-262h-51v462h39z" />
    <glyph glyph-name="o" unicode="o" 
d="M243 -9q-92 0 -144.5 63t-52.5 179q0 115 52.5 176.5t144.5 61.5q94 0 146 -61t52 -177q0 -117 -52.5 -179.5t-145.5 -62.5zM243 428q-147 0 -147 -195q0 -99 37.5 -150t109.5 -51t110 51t38 150q0 195 -148 195z" />
    <glyph glyph-name="p" unicode="p" horiz-adv-x="514" 
d="M128 267v-86q0 -74 40.5 -112t96.5 -38q67 0 109 52t42 153q0 94 -38 142.5t-104 48.5q-62 0 -103.5 -41.5t-42.5 -118.5zM128 82v-285h-51v665h39l7 -102q16 54 61 82.5t100 28.5q85 0 134.5 -59.5t49.5 -171.5q0 -113 -53 -181t-144 -68q-56 0 -92.5 25.5t-50.5 65.5z
" />
    <glyph glyph-name="q" unicode="q" horiz-adv-x="514" 
d="M386 189v93q0 72 -41.5 109.5t-96.5 37.5q-69 0 -110 -50t-41 -154q0 -94 39.5 -143t106.5 -49q57 0 99.5 40t43.5 116zM386 380l16 82h35v-665h-51v300q-17 -52 -58 -79t-98 -27q-80 0 -132 60.5t-52 172.5q0 119 53 183t148 64q51 0 89 -26.5t50 -64.5z" />
    <glyph glyph-name="r" unicode="r" horiz-adv-x="329" 
d="M309 465l-5 -56q-15 7 -43 7q-58 0 -95.5 -50t-37.5 -126v-240h-51v462h42l7 -131q11 64 50.5 101.5t101.5 37.5q18 0 31 -5z" />
    <glyph glyph-name="s" unicode="s" horiz-adv-x="399" 
d="M29 107l48 14q15 -90 121 -90q115 0 115 82q0 38 -22 59.5t-70 32.5l-60 15q-58 14 -86.5 42.5t-28.5 80.5q0 66 44 97t110 31q140 0 157 -122l-49 -6q-12 88 -108 88q-49 0 -77.5 -21.5t-28.5 -61.5q0 -36 19 -54.5t64 -29.5l59 -15q63 -17 94 -45.5t31 -85.5
q0 -64 -44 -95.5t-119 -31.5q-143 0 -169 116z" />
    <glyph glyph-name="t" unicode="t" horiz-adv-x="307" 
d="M276 63l14 -41q-35 -31 -99 -31q-54 0 -83 30t-29 87v312h-67v42h67v98l51 7v-105h138v-42h-139v-303q0 -82 68 -82q44 0 79 28z" />
    <glyph glyph-name="u" unicode="u" 
d="M367 0l-7 101q-15 -53 -54 -81.5t-96 -28.5q-141 0 -141 152v319h51v-313q0 -119 103 -119q56 0 96 44.5t40 119.5v268h51v-462h-43z" />
    <glyph glyph-name="v" unicode="v" horiz-adv-x="417" 
d="M180 0l-168 462h56l111 -316q11 -31 18.5 -59t10.5 -41l2 -13h3q6 44 29 112l109 317h53l-164 -462h-60z" />
    <glyph glyph-name="w" unicode="w" horiz-adv-x="631" 
d="M344 462l82 -290q12 -41 19.5 -75t8.5 -47l2 -14h3q4 43 29 136l79 290h52l-130 -462h-62l-79 275q-12 41 -19.5 74.5t-9.5 46.5l-2 14h-3q-5 -43 -31 -135l-77 -275h-62l-132 462h53l80 -290q11 -40 19 -74t10 -48l2 -14h3q4 45 29 136l82 290h54z" />
    <glyph glyph-name="x" unicode="x" horiz-adv-x="404" 
d="M333 0l-93 137q-15 23 -24 39t-10 20l-2 5h-4q-3 -12 -39 -65l-92 -136h-55l160 235l-151 227h59l82 -126l39 -66h3q4 13 37 65l83 127h56l-151 -226l159 -236h-57z" />
    <glyph glyph-name="y" unicode="y" horiz-adv-x="417" 
d="M67 462l111 -318q10 -30 18 -57.5t10 -40.5l3 -12h3q9 42 31 108l109 320h53l-171 -486q-35 -99 -74 -141.5t-97 -42.5q-35 0 -65 14l6 44q28 -16 60 -16q41 0 67.5 32.5t54.5 114.5l-174 481h55z" />
    <glyph glyph-name="z" unicode="z" horiz-adv-x="387" 
d="M353 427l-215 -310l-54 -73v-3q24 2 87 2h192v-43h-339v29l216 315l54 73v3q-24 -2 -87 -2h-172v44h318v-35z" />
    <glyph glyph-name="braceleft" unicode="{" horiz-adv-x="393" 
d="M93 256q71 0 71 85v201q0 134 116 134q46 0 88 -17l-11 -39q-36 17 -70 17q-76 0 -76 -97v-204q0 -51 -18.5 -73t-55.5 -26v-3q74 -8 74 -99v-204q0 -97 76 -97q34 0 70 17l11 -39q-42 -17 -88 -17q-116 0 -116 134v201q0 85 -71 85h-44v41h44z" />
    <glyph glyph-name="bar" unicode="|" horiz-adv-x="255" 
d="M150 -203h-46v872h46v-872z" />
    <glyph glyph-name="braceright" unicode="}" horiz-adv-x="393" 
d="M300 256h43v-41h-43q-71 0 -71 -85v-201q0 -134 -116 -134q-45 0 -88 17l11 39q36 -17 70 -17q76 0 76 97v204q0 91 74 99v3q-37 4 -55.5 26t-18.5 73v204q0 97 -76 97q-34 0 -70 -17l-11 39q43 17 88 17q116 0 116 -134v-201q0 -85 71 -85z" />
    <glyph glyph-name="asciitilde" unicode="~" horiz-adv-x="436" 
d="M288 207q-26 0 -74 30q-45 29 -64 29q-43 0 -32 -59h-34q-16 44 2.5 75t58.5 31q32 0 81 -32q40 -28 59 -28q41 0 33 61h35q16 -46 -2.5 -76.5t-62.5 -30.5z" />
    <glyph glyph-name="nbspace" unicode="&#xa0;" horiz-adv-x="153" 
 />
    <glyph glyph-name="exclamdown" unicode="&#xa1;" horiz-adv-x="225" 
d="M145 -124h-66l16 423h35zM73 429q0 17 11 28.5t28 11.5t28.5 -11.5t11.5 -28.5t-11.5 -28t-28.5 -11t-28 11t-11 28z" />
    <glyph glyph-name="cent" unicode="&#xa2;" horiz-adv-x="495" 
d="M247 -106v98q-90 6 -143.5 69.5t-53.5 177.5q0 112 53 177t144 73v85h36v-84q123 -4 171 -115l-47 -25q-34 90 -124 96v-412q89 4 131 87l40 -27q-54 -97 -171 -103v-97h-36zM102 242q0 -90 38 -144t107 -62v409q-70 -8 -107.5 -61.5t-37.5 -141.5z" />
    <glyph glyph-name="sterling" unicode="&#xa3;" horiz-adv-x="501" 
d="M332 207h-150q17 -47 17 -75q0 -69 -51 -88h186q74 0 86 55l42 -20q-20 -79 -122 -79h-281v46h29q27 0 44.5 22.5t17.5 59.5q0 31 -22 79h-84v36h70q-18 49 -18 95q0 77 48 114.5t120 37.5q138 0 158 -130l-48 -8q-18 96 -114 96q-52 0 -82.5 -27.5t-30.5 -82.5
q0 -40 22 -95h163v-36z" />
    <glyph glyph-name="currency" unicode="&#xa4;" horiz-adv-x="452" 
d="M320 412l73 73l25 -25l-77 -77q20 -40 20 -92t-18 -91l75 -74l-25 -25l-70 69q-37 -40 -97 -40q-62 0 -97 40l-70 -69l-25 25l75 74q-18 36 -18 91q0 53 19 93l-76 76l25 25l72 -73q36 38 95 38t94 -38zM226 415q-89 0 -89 -123q0 -128 89 -128t89 128q0 123 -89 123z
" />
    <glyph glyph-name="yen" unicode="&#xa5;" horiz-adv-x="455" 
d="M403 147h-149v-147h-51v147h-152v36h150l-36 64h-114v36h94l-114 198h58l98 -174q15 -27 25.5 -48t13.5 -29l2 -7h3q8 24 41 84l98 174h55l-114 -198h92v-36h-112l-37 -64h149v-36z" />
    <glyph glyph-name="brokenbar" unicode="&#xa6;" horiz-adv-x="255" 
d="M150 278h-46v391h46v-391zM150 -203h-46v391h46v-391z" />
    <glyph glyph-name="section" unicode="&#xa7;" horiz-adv-x="432" 
d="M53 15l53 7q14 -88 118 -88q46 0 76 20.5t30 60.5q0 67 -85 91l-67 18q-116 32 -116 123q0 78 80 108q-78 33 -78 114q0 65 44 97t107 32q73 0 112.5 -28.5t48.5 -92.5l-51 -6q-11 86 -109 86q-47 0 -75 -21.5t-28 -62.5q0 -34 19 -54t61 -32l63 -20q60 -18 91 -45
t31 -81q0 -39 -21.5 -67t-57.5 -39q35 -13 57 -43.5t22 -71.5q0 -64 -45 -95.5t-115 -31.5q-146 0 -165 122zM330 234q0 37 -25 57.5t-75 35.5l-56 16q-27 -11 -45 -34.5t-18 -54.5q0 -38 23 -57.5t74 -34.5l60 -15q25 10 43.5 33t18.5 54z" />
    <glyph glyph-name="dieresis" unicode="&#xa8;" horiz-adv-x="417" 
d="M84 595q0 16 11 27t27 11t27 -11t11 -27t-11 -27t-27 -11t-27 11t-11 27zM256 594q0 16 11 27t27 11t27 -11t11 -27q0 -15 -11 -26t-27 -11t-27 11t-11 26z" />
    <glyph glyph-name="copyright" unicode="&#xa9;" horiz-adv-x="706" 
d="M469 206l34 -25q-48 -79 -148 -79q-79 0 -127 49.5t-48 143.5q0 92 48.5 143t129.5 51q104 0 145 -89l-41 -23q-28 72 -105 72q-62 0 -96 -40t-34 -114q0 -73 34 -113t98 -40q72 0 110 64zM49 294q0 131 88 217.5t216 86.5q127 0 215.5 -86.5t88.5 -217.5t-88.5 -217
t-215.5 -86q-128 0 -216 86t-88 217zM75 294q0 -121 81 -200t197 -79q117 0 198 79t81 200t-81 200.5t-198 79.5q-116 0 -197 -79.5t-81 -200.5z" />
    <glyph glyph-name="ordfeminine" unicode="&#xaa;" horiz-adv-x="339" 
d="M218 384v48q-16 2 -25 2q-112 0 -112 -65q0 -54 60 -54q31 0 54 18.5t23 50.5zM263 506v-151q0 -34 23 -34q9 0 19 6v-35q-10 -7 -31 -7q-50 0 -55 52q-18 -55 -91 -55q-42 0 -67.5 22t-25.5 60q0 99 150 99q9 0 33 -2v35q0 68 -65 68q-28 0 -45.5 -14t-19.5 -41l-42 5
q3 45 34.5 66t75.5 21q47 0 77 -22.5t30 -72.5z" />
    <glyph glyph-name="guillemotleft" unicode="&#xab;" horiz-adv-x="437" 
d="M236 235v-4q12 -6 50 -51l107 -127l-30 -26l-175 206l175 206l31 -30l-108 -125q-17 -20 -29.5 -32t-16.5 -14zM92 235v-4q12 -6 49 -51l108 -127l-31 -26l-175 206l175 206l31 -30l-108 -125q-17 -20 -29 -32t-16 -14z" />
    <glyph glyph-name="logicalnot" unicode="&#xac;" horiz-adv-x="498" 
d="M411 281h-362v34h400v-188h-38v154z" />
    <glyph glyph-name="uni00AD" unicode="&#xad;" horiz-adv-x="373" 
d="M74 244v44h224v-44h-224z" />
    <glyph glyph-name="registered" unicode="&#xae;" horiz-adv-x="706" 
d="M505 120h-48q-12 15 -19 40l-13 55q-13 55 -84 55h-62v-150h-45v361h130q125 0 125 -105q0 -43 -26.5 -66t-69.5 -25q61 -8 75 -61l15 -59q7 -27 22 -45zM279 444v-139h73q93 0 93 70q0 69 -88 69h-78zM49 294q0 131 88 217.5t216 86.5q127 0 215.5 -86.5t88.5 -217.5
t-88.5 -217t-215.5 -86q-128 0 -216 86t-88 217zM76 294q0 -121 80.5 -200t196.5 -79q117 0 197.5 79t80.5 200t-80.5 200.5t-197.5 79.5q-116 0 -196.5 -79.5t-80.5 -200.5z" />
    <glyph glyph-name="macron" unicode="&#xaf;" horiz-adv-x="409" 
d="M315 564h-222v43h222v-43z" />
    <glyph glyph-name="degree" unicode="&#xb0;" horiz-adv-x="261" 
d="M40 510q0 38 25.5 64.5t64.5 26.5t65 -26.5t26 -64.5t-26 -64t-65 -26t-64.5 26t-25.5 64zM73 510q0 -26 15.5 -43t41.5 -17t41.5 17t15.5 43t-15.5 43.5t-41.5 17.5t-41.5 -17.5t-15.5 -43.5z" />
    <glyph glyph-name="plusminus" unicode="&#xb1;" horiz-adv-x="507" 
d="M49 327h185v144h35v-144h188v-35h-188v-157h-35v157h-185v35zM457 55h-408v35h408v-35z" />
    <glyph glyph-name="twosuperior" unicode="&#xb2;" horiz-adv-x="290" 
d="M268 272v-36h-246v34q60 42 93.5 68.5t62.5 66.5t29 78q0 35 -19.5 54.5t-52.5 19.5q-36 0 -54.5 -22.5t-18.5 -54.5l-38 15q0 40 31.5 70.5t85.5 30.5q48 0 79.5 -28t31.5 -82q0 -36 -18 -70.5t-47.5 -61.5t-55 -45.5t-53.5 -33.5v-3h190z" />
    <glyph glyph-name="threesuperior" unicode="&#xb3;" horiz-adv-x="290" 
d="M157 421v-3q47 -3 73.5 -27.5t26.5 -64.5q0 -45 -34 -70.5t-87 -25.5q-54 0 -86.5 22.5t-38.5 59.5l40 14q6 -29 28.5 -45.5t56.5 -16.5q35 0 56 17t21 48q0 72 -117 73v32q106 5 106 68q0 28 -18 43t-48 15q-60 0 -72 -58l-39 13q8 36 37 58.5t76 22.5t77 -22.5
t30 -66.5q0 -36 -22.5 -59t-65.5 -27z" />
    <glyph glyph-name="acute" unicode="&#xb4;" horiz-adv-x="313" 
d="M129 533h-42l71 136h70z" />
    <glyph glyph-name="mu" unicode="&#xb5;" horiz-adv-x="490" 
d="M367 0l-7 104q-16 -55 -54.5 -84t-91.5 -29q-71 0 -94 43v-237h-51v665h51v-309q0 -120 99 -120q55 0 98 41.5t43 116.5v271h50v-462h-43z" />
    <glyph glyph-name="paragraph" unicode="&#xb6;" horiz-adv-x="464" 
d="M342 547v-586q0 -62 -30 -93t-85 -31q-52 0 -97 29l19 47q35 -31 77 -31q63 0 63 72v277h-40q-105 0 -160 44.5t-55 130.5q0 91 61 137t177 46h149v-42h-79z" />
    <glyph glyph-name="periodcentered" unicode="&#xb7;" horiz-adv-x="254" 
d="M84 266q0 18 12.5 30t30.5 12t30 -12t12 -30q0 -19 -12 -31t-30 -12t-30.5 12t-12.5 31z" />
    <glyph glyph-name="periodcentered" unicode="&#x22c5;" horiz-adv-x="254" 
d="M84 266q0 18 12.5 30t30.5 12t30 -12t12 -30q0 -19 -12 -31t-30 -12t-30.5 12t-12.5 31z" />
    <glyph glyph-name="cedilla" unicode="&#xb8;" horiz-adv-x="349" 
d="M265 -126q0 -39 -26 -59t-67 -20q-57 0 -88 40l19 33q28 -39 69 -39q49 0 49 45q0 49 -80 52l10 79h30l-7 -51q43 -4 67 -24.5t24 -55.5z" />
    <glyph glyph-name="onesuperior" unicode="&#xb9;" horiz-adv-x="287" 
d="M276 236h-247v35h107v274l-110 -17v37l155 26v-320h95v-35z" />
    <glyph glyph-name="ordmasculine" unicode="&#xba;" horiz-adv-x="357" 
d="M178 282q-63 0 -99 41.5t-36 118.5t36 118t99 41q64 0 100 -41t36 -118t-36.5 -118.5t-99.5 -41.5zM178 566q-89 0 -89 -123q0 -127 89 -127t89 127q0 123 -89 123z" />
    <glyph glyph-name="guillemotright" unicode="&#xbb;" horiz-adv-x="437" 
d="M201 231v4q-11 4 -49 49l-108 125l31 30l175 -206l-175 -206l-31 26l108 127q16 20 28.5 32.5t16.5 15.5zM346 231v4q-12 4 -50 49l-108 125l31 30l175 -206l-175 -206l-30 26l107 127q17 20 29.5 33t16.5 15z" />
    <glyph glyph-name="onequarter" unicode="&#xbc;" horiz-adv-x="781" 
d="M287 236h-246v35h107v274l-110 -17v37l154 26v-320h95v-35zM227 0l324 590h41l-324 -590h-41zM649 0v95h-183v33l181 225h46v-224h60v-34h-60v-95h-44zM650 128v125l4 60h-3q-10 -22 -35 -55l-69 -86q-11 -13 -21.5 -24t-15.5 -15l-5 -4v-3q15 2 49 2h96z" />
    <glyph glyph-name="onehalf" unicode="&#xbd;" horiz-adv-x="800" 
d="M287 236h-246v35h107v274l-110 -17v37l154 26v-320h95v-35zM227 0l324 590h41l-324 -590h-41zM751 36v-36h-246v34q60 42 93.5 68.5t62.5 66.5t29 78q0 35 -19 54.5t-53 19.5q-36 0 -54.5 -22.5t-19.5 -54.5l-37 15q0 40 31.5 70.5t85.5 30.5q47 0 79 -28.5t32 -81.5
q0 -36 -18 -70.5t-47.5 -61.5t-55 -45.5t-53.5 -33.5v-3h190z" />
    <glyph glyph-name="threequarters" unicode="&#xbe;" horiz-adv-x="759" 
d="M174 421v-3q47 -3 74 -27.5t27 -64.5q0 -45 -34 -70.5t-87 -25.5q-54 0 -86.5 22.5t-38.5 59.5l39 14q6 -29 29 -45.5t57 -16.5q35 0 55.5 17t20.5 48q0 72 -117 73v32q106 4 106 68q0 28 -18 43t-48 15q-59 0 -71 -58l-39 13q8 36 37 58.5t76 22.5q46 0 76.5 -22.5
t30.5 -66.5q0 -36 -22.5 -59t-66.5 -27zM206 0l324 590h40l-323 -590h-41zM628 0v95h-183v33l181 225h45v-224h60v-34h-60v-95h-43zM629 128v125l3 60h-3q-9 -22 -35 -55l-69 -86q-11 -13 -21.5 -24t-15.5 -15l-5 -4v-3q16 2 50 2h96z" />
    <glyph glyph-name="questiondown" unicode="&#xbf;" horiz-adv-x="387" 
d="M330 15l45 -16q-13 -60 -56.5 -96.5t-116.5 -36.5q-82 0 -130 47t-48 123q0 84 52.5 130t125.5 47v95h48v-128h-27q-66 0 -106.5 -35t-40.5 -106q0 -63 35 -96t94 -33q51 0 83.5 27t41.5 78zM266 428q0 -17 -11.5 -28t-28.5 -11t-28.5 11t-11.5 28t11.5 28.5t28.5 11.5
t28.5 -11.5t11.5 -28.5z" />
    <glyph glyph-name="Agrave" unicode="&#xc0;" horiz-adv-x="535" 
d="M469 0l-70 187h-264l-70 -187h-55l224 589h69l222 -589h-56zM217 408l-66 -176h231l-65 175q-15 40 -27 76.5t-16 53.5l-5 17h-4q-14 -56 -48 -146zM293 642h-45l-89 121h70z" />
    <glyph glyph-name="Aacute" unicode="&#xc1;" horiz-adv-x="535" 
d="M469 0l-70 187h-264l-70 -187h-55l224 589h69l222 -589h-56zM217 408l-66 -176h231l-65 175q-15 40 -27 76.5t-16 53.5l-5 17h-4q-14 -56 -48 -146zM288 642h-45l64 121h70z" />
    <glyph glyph-name="Acircumflex" unicode="&#xc2;" horiz-adv-x="535" 
d="M469 0l-70 187h-264l-70 -187h-55l224 589h69l222 -589h-56zM217 408l-66 -176h231l-65 175q-15 40 -27 76.5t-16 53.5l-5 17h-4q-14 -56 -48 -146zM251 767h31l115 -125h-58l-43 47l-29 39h-2q-9 -16 -28 -39l-43 -47h-58z" />
    <glyph glyph-name="Atilde" unicode="&#xc3;" horiz-adv-x="535" 
d="M469 0l-70 187h-264l-70 -187h-55l224 589h69l222 -589h-56zM217 408l-66 -176h231l-65 175q-15 40 -27 76.5t-16 53.5l-5 17h-4q-14 -56 -48 -146zM335 647q-27 0 -71 30q-4 2 -12 7.5t-11 7.5t-9 5.5t-10 5t-9.5 2.5t-10.5 1q-45 0 -34 -59h-33q-16 43 3 74t59 31
q34 0 78 -31q43 -26 57 -28q43 0 33 61h35q16 -46 -2.5 -76.5t-62.5 -30.5z" />
    <glyph glyph-name="Adieresis" unicode="&#xc4;" horiz-adv-x="535" 
d="M469 0l-70 187h-264l-70 -187h-55l224 589h69l222 -589h-56zM217 408l-66 -176h231l-65 175q-15 40 -27 76.5t-16 53.5l-5 17h-4q-14 -56 -48 -146zM144 690q0 16 11 27t27 11t26.5 -11t10.5 -27t-10.5 -27t-26.5 -11t-27 11t-11 27zM315 689q0 16 11 27t27 11
q17 0 27.5 -10.5t10.5 -27.5q0 -16 -11 -27t-27 -11t-27 11t-11 27z" />
    <glyph glyph-name="Aring" unicode="&#xc5;" horiz-adv-x="535" 
d="M469 0l-70 187h-264l-70 -187h-55l224 589h69l222 -589h-56zM217 408l-66 -176h231l-65 175q-15 40 -27 76.5t-16 53.5l-5 17h-4q-14 -56 -48 -146zM267 629q-42 0 -65.5 24.5t-23.5 62.5q0 35 24.5 59.5t64.5 24.5t64.5 -24.5t24.5 -59.5q0 -38 -23.5 -62.5t-65.5 -24.5
zM267 773q-26 0 -41.5 -16.5t-15.5 -42.5q0 -25 15 -40t42 -15t42 15t15 40q0 26 -15.5 42.5t-41.5 16.5z" />
    <glyph glyph-name="AE" unicode="&#xc6;" horiz-adv-x="800" 
d="M748 0h-335v189h-227l-119 -189h-57l376 589h362v-46h-283v-225h252v-46h-252v-226h283v-46zM416 550l-203 -317h200v167q0 44 1.5 81.5t3.5 52.5l1 16h-3z" />
    <glyph glyph-name="Ccedilla" unicode="&#xc7;" horiz-adv-x="552" 
d="M401 -126q0 -39 -25.5 -59t-66.5 -20q-58 0 -88 40l18 33q28 -39 70 -39q48 0 48 45q0 49 -80 52l9 65q-110 6 -174 84.5t-64 217.5q0 145 72 225t192 80q154 0 210 -140l-47 -23q-42 118 -166 118q-98 0 -152 -69t-54 -191q0 -121 52 -188t150 -67q64 0 107 26t72 82
l38 -30q-66 -121 -206 -125l-6 -37q43 -4 67 -24.5t24 -55.5z" />
    <glyph glyph-name="Egrave" unicode="&#xc8;" horiz-adv-x="474" 
d="M422 46v-46h-335v589h335v-46h-282v-225h251v-46h-251v-226h282zM279 642h-45l-89 121h70z" />
    <glyph glyph-name="Eacute" unicode="&#xc9;" horiz-adv-x="474" 
d="M422 46v-46h-335v589h335v-46h-282v-225h251v-46h-251v-226h282zM274 642h-45l64 121h70z" />
    <glyph glyph-name="Ecircumflex" unicode="&#xca;" horiz-adv-x="474" 
d="M422 46v-46h-335v589h335v-46h-282v-225h251v-46h-251v-226h282zM238 767h31l115 -125h-58l-42 47l-29 39h-2q-9 -16 -29 -39l-42 -47h-58z" />
    <glyph glyph-name="Edieresis" unicode="&#xcb;" horiz-adv-x="474" 
d="M422 46v-46h-335v589h335v-46h-282v-225h251v-46h-251v-226h282zM130 690q0 16 11 27t27 11t27 -11t11 -27t-11 -27t-27 -11t-27 11t-11 27zM301 689q0 16 11 27t27 11q17 0 27.5 -10.5t10.5 -27.5q0 -16 -11 -27t-27 -11t-27 11t-11 27z" />
    <glyph glyph-name="Igrave" unicode="&#xcc;" horiz-adv-x="227" 
d="M87 589h53v-589h-53v589zM138 642h-45l-88 121h69z" />
    <glyph glyph-name="Iacute" unicode="&#xcd;" horiz-adv-x="227" 
d="M87 589h53v-589h-53v589zM133 642h-45l64 121h70z" />
    <glyph glyph-name="Icircumflex" unicode="&#xce;" horiz-adv-x="227" 
d="M87 589h53v-589h-53v589zM98 767h31l114 -125h-58l-42 47l-29 39h-2q-9 -16 -29 -39l-42 -47h-58z" />
    <glyph glyph-name="Idieresis" unicode="&#xcf;" horiz-adv-x="227" 
d="M87 589h53v-589h-53v589zM-11 690q0 16 11 27t27 11t27 -11t11 -27t-11 -27t-27 -11t-27 11t-11 27zM161 689q0 16 11 27t27 11t27 -11t11 -27t-11 -27t-27 -11t-27 11t-11 27z" />
    <glyph glyph-name="Eth" unicode="&#xd0;" horiz-adv-x="585" 
d="M252 0h-162v272h-61v46h61v271h163q132 0 207.5 -69.5t75.5 -218.5q0 -154 -79.5 -227.5t-204.5 -73.5zM143 45h104q110 0 172 64.5t62 189.5t-60 185t-168 60h-110v-226h137v-46h-137v-227z" />
    <glyph glyph-name="Ntilde" unicode="&#xd1;" horiz-adv-x="629" 
d="M382 647q-6 0 -12 0.5t-12 3t-9.5 3.5t-10 5t-9 5.5t-10 6.5t-9.5 6t-8.5 6t-8.5 6t-7.5 4.5t-8 4.5t-7 3t-7.5 3t-7 1.5t-8 0.5q-44 0 -33 -59h-33q-16 43 2.5 74t59.5 31q32 0 78 -31q37 -28 57 -28q43 0 33 61h35q15 -46 -3.5 -76.5t-61.5 -30.5zM144 589l280 -410
q17 -24 33.5 -51.5t24.5 -42.5l8 -15h3q-3 58 -3 124v395h52v-589h-56l-281 410q-16 24 -32.5 51t-24.5 43l-9 15h-4q4 -58 4 -124v-395h-52v589h57z" />
    <glyph glyph-name="Ograve" unicode="&#xd2;" horiz-adv-x="608" 
d="M304 -9q-119 0 -187.5 79.5t-68.5 223.5t68.5 224t187.5 80t187.5 -80t68.5 -224t-68.5 -223.5t-187.5 -79.5zM304 552q-97 0 -149 -68t-52 -190q0 -121 52 -189t149 -68t149.5 68t52.5 189t-52.5 189.5t-149.5 68.5zM329 642h-45l-89 121h70z" />
    <glyph glyph-name="Oacute" unicode="&#xd3;" horiz-adv-x="608" 
d="M304 -9q-119 0 -187.5 79.5t-68.5 223.5t68.5 224t187.5 80t187.5 -80t68.5 -224t-68.5 -223.5t-187.5 -79.5zM304 552q-97 0 -149 -68t-52 -190q0 -121 52 -189t149 -68t149.5 68t52.5 189t-52.5 189.5t-149.5 68.5zM324 642h-45l64 121h70z" />
    <glyph glyph-name="Ocircumflex" unicode="&#xd4;" horiz-adv-x="608" 
d="M304 -9q-119 0 -187.5 79.5t-68.5 223.5t68.5 224t187.5 80t187.5 -80t68.5 -224t-68.5 -223.5t-187.5 -79.5zM304 552q-97 0 -149 -68t-52 -190q0 -121 52 -189t149 -68t149.5 68t52.5 189t-52.5 189.5t-149.5 68.5zM289 767h31l114 -125h-58l-42 47l-29 39h-2
q-9 -16 -29 -39l-42 -47h-58z" />
    <glyph glyph-name="Otilde" unicode="&#xd5;" horiz-adv-x="608" 
d="M304 -9q-119 0 -187.5 79.5t-68.5 223.5t68.5 224t187.5 80t187.5 -80t68.5 -224t-68.5 -223.5t-187.5 -79.5zM304 552q-97 0 -149 -68t-52 -190q0 -121 52 -189t149 -68t149.5 68t52.5 189t-52.5 189.5t-149.5 68.5zM372 647q-6 0 -12 0.5t-12 3t-9.5 3.5t-10 5t-9 5.5
t-10 6.5t-9.5 6t-8.5 6t-8.5 6t-7.5 4.5t-8 4.5t-7 3t-7.5 3t-7 1.5t-8 0.5q-44 0 -33 -59h-33q-16 43 2.5 74t58.5 31q33 0 79 -31q37 -28 57 -28q43 0 33 61h35q15 -46 -3.5 -76.5t-61.5 -30.5z" />
    <glyph glyph-name="Odieresis" unicode="&#xd6;" horiz-adv-x="608" 
d="M304 -9q-119 0 -187.5 79.5t-68.5 223.5t68.5 224t187.5 80t187.5 -80t68.5 -224t-68.5 -223.5t-187.5 -79.5zM304 552q-97 0 -149 -68t-52 -190q0 -121 52 -189t149 -68t149.5 68t52.5 189t-52.5 189.5t-149.5 68.5zM180 690q0 16 11 27t27 11t27 -11t11 -27t-11 -27
t-27 -11t-27 11t-11 27zM352 689q0 16 11 27t27 11t27 -11t11 -27t-11 -27t-27 -11t-27 11t-11 27z" />
    <glyph glyph-name="multiply" unicode="&#xd7;" horiz-adv-x="449" 
d="M56 107l142 142l-140 139l24 25l141 -140l144 143l24 -24l-144 -143l146 -145l-24 -25l-146 145l-143 -142z" />
    <glyph glyph-name="Oslash" unicode="&#xd8;" horiz-adv-x="608" 
d="M67 -10l-30 27l65 74q-54 77 -54 203q0 144 68.5 224t187.5 80q109 0 177 -68l58 66l31 -28l-62 -73q52 -76 52 -201q0 -144 -68.5 -223.5t-187.5 -79.5q-111 0 -177 68zM304 552q-97 0 -148.5 -68t-51.5 -190q0 -97 35 -161l308 357q-53 62 -143 62zM504 294
q0 97 -35 159l-307 -356q51 -60 142 -60q97 0 148.5 67.5t51.5 189.5z" />
    <glyph glyph-name="Ugrave" unicode="&#xd9;" horiz-adv-x="574" 
d="M454 589h52v-388q0 -107 -62.5 -158.5t-156.5 -51.5q-95 0 -157 51.5t-62 158.5v388h53v-377q0 -91 46 -134t120 -43q75 0 121 43t46 132v379zM312 642h-45l-89 121h70z" />
    <glyph glyph-name="Uacute" unicode="&#xda;" horiz-adv-x="574" 
d="M454 589h52v-388q0 -107 -62.5 -158.5t-156.5 -51.5q-95 0 -157 51.5t-62 158.5v388h53v-377q0 -91 46 -134t120 -43q75 0 121 43t46 132v379zM307 642h-45l64 121h70z" />
    <glyph glyph-name="Ucircumflex" unicode="&#xdb;" horiz-adv-x="574" 
d="M454 589h52v-388q0 -107 -62.5 -158.5t-156.5 -51.5q-95 0 -157 51.5t-62 158.5v388h53v-377q0 -91 46 -134t120 -43q75 0 121 43t46 132v379zM272 767h30l115 -125h-58l-42 47l-29 39h-2q-9 -16 -29 -39l-42 -47h-58z" />
    <glyph glyph-name="Udieresis" unicode="&#xdc;" horiz-adv-x="574" 
d="M454 589h52v-388q0 -107 -62.5 -158.5t-156.5 -51.5q-95 0 -157 51.5t-62 158.5v388h53v-377q0 -91 46 -134t120 -43q75 0 121 43t46 132v379zM163 690q0 16 11 27t27 11t27 -11t11 -27t-11 -27t-27 -11t-27 11t-11 27zM335 689q0 16 10.5 27t26.5 11t27 -10.5t11 -27.5
q0 -16 -11 -27t-27 -11t-26.5 11t-10.5 27z" />
    <glyph glyph-name="Yacute" unicode="&#xdd;" horiz-adv-x="469" 
d="M74 589l118 -216l46 -93h3q9 27 44 93l114 216h55l-190 -353v-236h-52v236l-198 353h60zM254 642h-45l64 121h70z" />
    <glyph glyph-name="Thorn" unicode="&#xde;" horiz-adv-x="475" 
d="M140 434v-263h102q78 0 113 33t35 101q0 129 -149 129h-101zM140 0h-53v589h53v-111h103q202 0 202 -170q0 -89 -50 -135t-148 -46h-107v-127z" />
    <glyph glyph-name="germandbls" unicode="&#xdf;" horiz-adv-x="518" 
d="M77 0v460q0 107 49 161t139 54q82 0 125.5 -41.5t43.5 -109.5q0 -65 -36 -101.5t-92 -43.5v-3q72 -4 120 -55t48 -132q0 -198 -162 -198q-99 0 -135 78l34 30q29 -68 101 -68q110 0 110 159q0 75 -46 119.5t-128 44.5h-43v42h35q65 0 103.5 30.5t38.5 90.5q0 55 -30 86
t-88 31q-136 0 -136 -179v-455h-51z" />
    <glyph glyph-name="agrave" unicode="&#xe0;" horiz-adv-x="453" 
d="M245 533h-43l-99 136h71zM319 145v76q-24 3 -48 3q-180 0 -180 -104q0 -41 25.5 -64.5t73.5 -23.5q52 0 90.5 30.5t38.5 82.5zM370 329v-233q0 -58 37 -58q13 0 21 4v-42q-16 -4 -31 -4q-71 0 -75 82q-16 -43 -54.5 -65t-87.5 -22q-64 0 -102 33t-38 91q0 147 221 147
q37 0 58 -3v64q0 105 -108 105q-100 0 -108 -93l-47 7q5 68 50 98.5t110 30.5q69 0 111.5 -33.5t42.5 -108.5z" />
    <glyph glyph-name="aacute" unicode="&#xe1;" horiz-adv-x="453" 
d="M236 533h-43l71 136h71zM319 145v76q-24 3 -48 3q-180 0 -180 -104q0 -41 25.5 -64.5t73.5 -23.5q52 0 90.5 30.5t38.5 82.5zM370 329v-233q0 -58 37 -58q13 0 21 4v-42q-16 -4 -31 -4q-71 0 -75 82q-16 -43 -54.5 -65t-87.5 -22q-64 0 -102 33t-38 91q0 147 221 147
q37 0 58 -3v64q0 105 -108 105q-100 0 -108 -93l-47 7q5 68 50 98.5t110 30.5q69 0 111.5 -33.5t42.5 -108.5z" />
    <glyph glyph-name="acircumflex" unicode="&#xe2;" horiz-adv-x="453" 
d="M204 669h29l115 -136h-54l-45 53l-29 41h-3q-9 -17 -29 -41l-44 -53h-55zM319 145v76q-24 3 -48 3q-180 0 -180 -104q0 -41 25.5 -64.5t73.5 -23.5q52 0 90.5 30.5t38.5 82.5zM370 329v-233q0 -58 37 -58q13 0 21 4v-42q-16 -4 -31 -4q-71 0 -75 82q-16 -43 -54.5 -65
t-87.5 -22q-64 0 -102 33t-38 91q0 147 221 147q37 0 58 -3v64q0 105 -108 105q-100 0 -108 -93l-47 7q5 68 50 98.5t110 30.5q69 0 111.5 -33.5t42.5 -108.5z" />
    <glyph glyph-name="atilde" unicode="&#xe3;" horiz-adv-x="453" 
d="M287 539q-28 0 -71 29q-2 1 -8.5 6t-8.5 6t-7.5 4.5t-8 4.5t-7 3t-7.5 3t-7 1.5t-8 0.5q-45 0 -34 -59h-33q-16 44 3 74t59 30q33 0 78 -32l9 -6t8 -5.5t6.5 -4.5t7 -4t6.5 -3t6.5 -2.5t6 -1t7.5 -0.5q42 0 34 61h34q16 -46 -2.5 -75.5t-62.5 -29.5zM319 145v76
q-24 3 -48 3q-180 0 -180 -104q0 -41 25.5 -64.5t73.5 -23.5q52 0 90.5 30.5t38.5 82.5zM370 329v-233q0 -58 37 -58q13 0 21 4v-42q-16 -4 -31 -4q-71 0 -75 82q-16 -43 -54.5 -65t-87.5 -22q-64 0 -102 33t-38 91q0 147 221 147q37 0 58 -3v64q0 105 -108 105
q-100 0 -108 -93l-47 7q5 68 50 98.5t110 30.5q69 0 111.5 -33.5t42.5 -108.5z" />
    <glyph glyph-name="adieresis" unicode="&#xe4;" horiz-adv-x="453" 
d="M95 595q0 16 11 27t27 11t27 -11t11 -27t-11 -27t-27 -11t-27 11t-11 27zM266 594q0 16 11 27t27 11t27 -11t11 -27q0 -15 -11 -26t-27 -11t-27 11t-11 26zM319 145v76q-24 3 -48 3q-180 0 -180 -104q0 -41 25.5 -64.5t73.5 -23.5q52 0 90.5 30.5t38.5 82.5zM370 329
v-233q0 -58 37 -58q13 0 21 4v-42q-16 -4 -31 -4q-71 0 -75 82q-16 -43 -54.5 -65t-87.5 -22q-64 0 -102 33t-38 91q0 147 221 147q37 0 58 -3v64q0 105 -108 105q-100 0 -108 -93l-47 7q5 68 50 98.5t110 30.5q69 0 111.5 -33.5t42.5 -108.5z" />
    <glyph glyph-name="aring" unicode="&#xe5;" horiz-adv-x="453" 
d="M219 527q-41 0 -65 24.5t-24 61.5q0 36 24.5 60t64.5 24t64.5 -24t24.5 -60q0 -37 -24 -61.5t-65 -24.5zM219 670q-26 0 -41.5 -16.5t-15.5 -41.5t15 -40.5t42 -15.5t42 15.5t15 40.5t-15.5 41.5t-41.5 16.5zM319 145v76q-24 3 -48 3q-180 0 -180 -104q0 -41 25.5 -64.5
t73.5 -23.5q52 0 90.5 30.5t38.5 82.5zM370 329v-233q0 -58 37 -58q13 0 21 4v-42q-16 -4 -31 -4q-71 0 -75 82q-16 -43 -54.5 -65t-87.5 -22q-64 0 -102 33t-38 91q0 147 221 147q37 0 58 -3v64q0 105 -108 105q-100 0 -108 -93l-47 7q5 68 50 98.5t110 30.5
q69 0 111.5 -33.5t42.5 -108.5z" />
    <glyph glyph-name="ae" unicode="&#xe6;" horiz-adv-x="726" 
d="M512 32q98 0 122 91l45 -10q-24 -122 -170 -122q-113 0 -164 91q-17 -41 -60.5 -66t-102.5 -25q-66 0 -104 32.5t-38 93.5q0 78 67 114.5t208 38.5q3 34 12 62q-8 96 -111 96q-105 0 -113 -93l-47 7q5 68 50 98.5t110 30.5q110 0 139 -82q51 82 156 82q81 0 125 -51
t44 -133q0 -29 -6 -59h-312q0 -93 40 -144.5t110 -51.5zM187 32q49 0 87 25.5t52 72.5q-11 37 -13 89v9q-113 -1 -167.5 -25.5t-54.5 -83.5q0 -39 25.5 -63t70.5 -24zM364 270h265q1 9 1 27q0 58 -32.5 95t-89.5 37q-64 0 -100.5 -41.5t-43.5 -117.5z" />
    <glyph glyph-name="ccedilla" unicode="&#xe7;" horiz-adv-x="447" 
d="M337 -126q0 -39 -26 -59t-67 -20q-57 0 -88 40l19 33q28 -39 69 -39q49 0 49 45q0 49 -80 52l8 66q-82 5 -128.5 66t-46.5 171q0 115 52.5 178.5t145.5 63.5q150 0 162 -147l-47 -7q-14 110 -118 110q-70 0 -108 -53t-38 -146q0 -90 39.5 -142.5t107.5 -52.5
q102 0 126 95l43 -9q-21 -121 -160 -128l-5 -37q43 -4 67 -24.5t24 -55.5z" />
    <glyph glyph-name="egrave" unicode="&#xe8;" horiz-adv-x="458" 
d="M245 32q98 0 122 91l45 -10q-24 -122 -171 -122q-91 0 -143 61.5t-52 177.5q0 114 53 177.5t145 63.5q81 0 125 -51t44 -133q0 -29 -6 -59h-312q0 -93 39.5 -144.5t110.5 -51.5zM97 270h265q1 9 1 27q0 58 -32.5 95t-89.5 37q-64 0 -100.5 -41.5t-43.5 -117.5zM270 533
h-42l-99 136h71z" />
    <glyph glyph-name="eacute" unicode="&#xe9;" horiz-adv-x="458" 
d="M245 32q98 0 122 91l45 -10q-24 -122 -171 -122q-91 0 -143 61.5t-52 177.5q0 114 53 177.5t145 63.5q81 0 125 -51t44 -133q0 -29 -6 -59h-312q0 -93 39.5 -144.5t110.5 -51.5zM97 270h265q1 9 1 27q0 58 -32.5 95t-89.5 37q-64 0 -100.5 -41.5t-43.5 -117.5zM261 533
h-42l71 136h70z" />
    <glyph glyph-name="ecircumflex" unicode="&#xea;" horiz-adv-x="458" 
d="M245 32q98 0 122 91l45 -10q-24 -122 -171 -122q-91 0 -143 61.5t-52 177.5q0 114 53 177.5t145 63.5q81 0 125 -51t44 -133q0 -29 -6 -59h-312q0 -93 39.5 -144.5t110.5 -51.5zM97 270h265q1 9 1 27q0 58 -32.5 95t-89.5 37q-64 0 -100.5 -41.5t-43.5 -117.5zM231 669
h28l115 -136h-54l-45 53l-29 41h-3q-9 -17 -29 -41l-44 -53h-55z" />
    <glyph glyph-name="edieresis" unicode="&#xeb;" horiz-adv-x="458" 
d="M245 32q98 0 122 91l45 -10q-24 -122 -171 -122q-91 0 -143 61.5t-52 177.5q0 114 53 177.5t145 63.5q81 0 125 -51t44 -133q0 -29 -6 -59h-312q0 -93 39.5 -144.5t110.5 -51.5zM97 270h265q1 9 1 27q0 58 -32.5 95t-89.5 37q-64 0 -100.5 -41.5t-43.5 -117.5zM120 595
q0 16 11 27t27 11t27 -11t11 -27t-11 -27t-27 -11t-27 11t-11 27zM292 594q0 16 11 27t27 11t27 -11t11 -27q0 -15 -11 -26t-27 -11t-27 11t-11 26z" />
    <glyph glyph-name="igrave" unicode="&#xec;" horiz-adv-x="205" 
d="M128 533h-43l-99 136h71zM77 462h51v-462h-51v462z" />
    <glyph glyph-name="iacute" unicode="&#xed;" horiz-adv-x="205" 
d="M121 533h-43l71 136h71zM77 462h51v-462h-51v462z" />
    <glyph glyph-name="icircumflex" unicode="&#xee;" horiz-adv-x="205" 
d="M77 462h51v-462h-51v462zM88 669h29l115 -136h-54l-45 53l-29 41h-3q-9 -17 -29 -41l-44 -53h-55z" />
    <glyph glyph-name="idieresis" unicode="&#xef;" horiz-adv-x="205" 
d="M-21 595q0 16 11 27t27 11t27 -11t11 -27t-11 -27t-27 -11t-27 11t-11 27zM150 594q0 16 11 27t27 11t27 -11t11 -27q0 -15 -11 -26t-27 -11t-27 11t-11 26zM77 462h51v-462h-51v462z" />
    <glyph glyph-name="eth" unicode="&#xf0;" horiz-adv-x="488" 
d="M127 508l-9 30l132 32q-44 41 -123 75l37 27q76 -31 136 -88l103 25l9 -31l-85 -21q55 -62 85 -143.5t30 -167.5q0 -127 -52.5 -191t-146.5 -64q-92 0 -144.5 61.5t-52.5 176.5q0 114 51 175t138 61t130 -65h3q-31 84 -92 145zM390 229q0 95 -38 145t-110 50
q-71 0 -108.5 -50t-37.5 -145t37.5 -146t109.5 -51t109.5 51t37.5 146z" />
    <glyph glyph-name="ntilde" unicode="&#xf1;" horiz-adv-x="492" 
d="M116 462l7 -106q16 53 56.5 84t98.5 31q64 0 102.5 -36t38.5 -110v-325h-51v312q0 55 -26.5 84.5t-75.5 29.5q-59 0 -98.5 -42t-39.5 -122v-262h-51v462h39zM319 539q-28 0 -72 29q-3 2 -8 5.5t-7.5 5t-7 4.5t-6.5 4l-6 3t-6.5 3t-6 2t-7 1.5t-6.5 0.5q-45 0 -34 -59h-33
q-16 44 2.5 74t59.5 30q31 0 78 -32q38 -27 57 -27q43 0 33 61h35q15 -46 -3 -75.5t-62 -29.5z" />
    <glyph glyph-name="ograve" unicode="&#xf2;" 
d="M243 -9q-92 0 -144.5 63t-52.5 179q0 115 52.5 176.5t144.5 61.5q94 0 146 -61t52 -177q0 -117 -52.5 -179.5t-145.5 -62.5zM243 428q-147 0 -147 -195q0 -99 37.5 -150t109.5 -51t110 51t38 150q0 195 -148 195zM269 533h-42l-99 136h71z" />
    <glyph glyph-name="oacute" unicode="&#xf3;" 
d="M243 -9q-92 0 -144.5 63t-52.5 179q0 115 52.5 176.5t144.5 61.5q94 0 146 -61t52 -177q0 -117 -52.5 -179.5t-145.5 -62.5zM243 428q-147 0 -147 -195q0 -99 37.5 -150t109.5 -51t110 51t38 150q0 195 -148 195zM260 533h-42l71 136h70z" />
    <glyph glyph-name="ocircumflex" unicode="&#xf4;" 
d="M243 -9q-92 0 -144.5 63t-52.5 179q0 115 52.5 176.5t144.5 61.5q94 0 146 -61t52 -177q0 -117 -52.5 -179.5t-145.5 -62.5zM243 428q-147 0 -147 -195q0 -99 37.5 -150t109.5 -51t110 51t38 150q0 195 -148 195zM229 669h29l115 -136h-55l-44 53l-29 41h-3
q-9 -17 -29 -41l-45 -53h-54z" />
    <glyph glyph-name="otilde" unicode="&#xf5;" 
d="M243 -9q-92 0 -144.5 63t-52.5 179q0 115 52.5 176.5t144.5 61.5q94 0 146 -61t52 -177q0 -117 -52.5 -179.5t-145.5 -62.5zM243 428q-147 0 -147 -195q0 -99 37.5 -150t109.5 -51t110 51t38 150q0 195 -148 195zM311 539q-28 0 -72 29q-3 2 -8 5.5t-7.5 5t-7 4.5t-6.5 4
l-6 3t-6.5 3t-6 2t-7 1.5t-6.5 0.5q-45 0 -34 -59h-33q-16 44 2.5 74t59.5 30q31 0 78 -32q38 -27 57 -27q43 0 33 61h35q15 -46 -3 -75.5t-62 -29.5z" />
    <glyph glyph-name="odieresis" unicode="&#xf6;" 
d="M243 -9q-92 0 -144.5 63t-52.5 179q0 115 52.5 176.5t144.5 61.5q94 0 146 -61t52 -177q0 -117 -52.5 -179.5t-145.5 -62.5zM243 428q-147 0 -147 -195q0 -99 37.5 -150t109.5 -51t110 51t38 150q0 195 -148 195zM119 595q0 16 11 27t27 11t27 -11t11 -27t-11 -27
t-27 -11t-27 11t-11 27zM291 594q0 16 11 27t27 11t27 -11t11 -27q0 -15 -11 -26t-27 -11t-27 11t-11 26z" />
    <glyph glyph-name="divide" unicode="&#xf7;" horiz-adv-x="507" 
d="M457 231h-408v34h408v-34zM216 74q0 14 10 24.5t24 10.5t24.5 -10.5t10.5 -24.5t-10.5 -24t-24.5 -10t-24 10t-10 24zM216 415q0 15 10 25.5t24 10.5t24.5 -10.5t10.5 -25.5q0 -14 -10.5 -24t-24.5 -10t-24 10t-10 24z" />
    <glyph glyph-name="oslash" unicode="&#xf8;" 
d="M66 -10l-32 26l50 58q-38 59 -38 159q0 115 52.5 176.5t144.5 61.5q87 0 138 -54l45 53l32 -26l-52 -60q35 -58 35 -151q0 -117 -52.5 -179.5t-145.5 -62.5q-82 0 -133 49zM243 428q-147 0 -147 -195q0 -73 23 -121l231 271q-39 45 -107 45zM391 233q0 66 -21 111
l-230 -269q38 -43 103 -43q72 0 110 51t38 150z" />
    <glyph glyph-name="ugrave" unicode="&#xf9;" 
d="M367 0l-7 101q-15 -53 -54 -81.5t-96 -28.5q-141 0 -141 152v319h51v-313q0 -119 103 -119q56 0 96 44.5t40 119.5v268h51v-462h-43zM266 533h-43l-99 136h71z" />
    <glyph glyph-name="uacute" unicode="&#xfa;" 
d="M367 0l-7 101q-15 -53 -54 -81.5t-96 -28.5q-141 0 -141 152v319h51v-313q0 -119 103 -119q56 0 96 44.5t40 119.5v268h51v-462h-43zM257 533h-43l71 136h70z" />
    <glyph glyph-name="ucircumflex" unicode="&#xfb;" 
d="M367 0l-7 101q-15 -53 -54 -81.5t-96 -28.5q-141 0 -141 152v319h51v-313q0 -119 103 -119q56 0 96 44.5t40 119.5v268h51v-462h-43zM225 669h29l115 -136h-55l-44 53l-29 41h-3q-9 -17 -29 -41l-45 -53h-54z" />
    <glyph glyph-name="udieresis" unicode="&#xfc;" 
d="M367 0l-7 101q-15 -53 -54 -81.5t-96 -28.5q-141 0 -141 152v319h51v-313q0 -119 103 -119q56 0 96 44.5t40 119.5v268h51v-462h-43zM116 595q0 16 11 27t26 11q16 0 27 -11t11 -27t-11 -27t-27 -11q-15 0 -26 11t-11 27zM287 594q0 16 11 27t27 11t27 -11t11 -27
q0 -15 -11 -26t-27 -11t-27 11t-11 26z" />
    <glyph glyph-name="yacute" unicode="&#xfd;" horiz-adv-x="417" 
d="M67 462l111 -318q10 -30 18 -57.5t10 -40.5l3 -12h3q9 41 31 108l109 320h53l-171 -486q-35 -99 -74 -141.5t-97 -42.5q-35 0 -65 14l6 44q28 -16 60 -16q41 0 67.5 32.5t54.5 114.5l-174 481h55zM228 533h-43l71 136h71z" />
    <glyph glyph-name="thorn" unicode="&#xfe;" horiz-adv-x="514" 
d="M128 267v-86q0 -74 40.5 -112t96.5 -38q67 0 109 52t42 153q0 94 -38 142.5t-104 48.5q-62 0 -103.5 -41.5t-42.5 -118.5zM128 82v-285h-51v871h51v-302q15 51 57.5 78t98.5 27q85 0 134.5 -59.5t49.5 -171.5q0 -113 -53 -181t-144 -68q-56 0 -92.5 25.5t-50.5 65.5z" />
    <glyph glyph-name="ydieresis" unicode="&#xff;" horiz-adv-x="417" 
d="M67 462l111 -318q10 -30 18 -57.5t10 -40.5l3 -12h3q9 41 31 108l109 320h53l-171 -486q-35 -99 -74 -141.5t-97 -42.5q-35 0 -65 14l6 44q28 -16 60 -16q41 0 67.5 32.5t54.5 114.5l-174 481h55zM87 595q0 16 11 27t27 11t27 -11t11 -27t-11 -27t-27 -11t-27 11t-11 27z
M259 594q0 16 11 27t27 11t26.5 -11t10.5 -27q0 -15 -10.5 -26t-26.5 -11t-27 11t-11 26z" />
    <glyph glyph-name="Amacron" unicode="&#x100;" horiz-adv-x="535" 
d="M469 0l-70 187h-264l-70 -187h-55l224 589h69l222 -589h-56zM217 408l-66 -176h231l-65 175q-15 40 -27 76.5t-16 53.5l-5 17h-4q-14 -56 -48 -146zM378 667h-222v41h222v-41z" />
    <glyph glyph-name="amacron" unicode="&#x101;" horiz-adv-x="453" 
d="M328 564h-222v43h222v-43zM319 145v76q-24 3 -48 3q-180 0 -180 -104q0 -41 25.5 -64.5t73.5 -23.5q52 0 90.5 30.5t38.5 82.5zM370 329v-233q0 -58 37 -58q13 0 21 4v-42q-16 -4 -31 -4q-71 0 -75 82q-16 -43 -54.5 -65t-87.5 -22q-64 0 -102 33t-38 91q0 147 221 147
q37 0 58 -3v64q0 105 -108 105q-100 0 -108 -93l-47 7q5 68 50 98.5t110 30.5q69 0 111.5 -33.5t42.5 -108.5z" />
    <glyph glyph-name="Abreve" unicode="&#x102;" horiz-adv-x="535" 
d="M469 0l-70 187h-264l-70 -187h-55l224 589h69l222 -589h-56zM217 408l-66 -176h231l-65 175q-15 40 -27 76.5t-16 53.5l-5 17h-4q-14 -56 -48 -146zM267 638q-57 0 -88.5 32.5t-31.5 90.5h42q4 -83 78 -83q38 0 57 20t22 63h41q0 -58 -31.5 -90.5t-88.5 -32.5z" />
    <glyph glyph-name="abreve" unicode="&#x103;" horiz-adv-x="453" 
d="M219 529q-57 0 -89 34t-32 95h42q5 -89 79 -89q39 0 57.5 22.5t20.5 66.5h42q0 -61 -31.5 -95t-88.5 -34zM319 145v76q-24 3 -48 3q-180 0 -180 -104q0 -41 25.5 -64.5t73.5 -23.5q52 0 90.5 30.5t38.5 82.5zM370 329v-233q0 -58 37 -58q13 0 21 4v-42q-16 -4 -31 -4
q-71 0 -75 82q-16 -43 -54.5 -65t-87.5 -22q-64 0 -102 33t-38 91q0 147 221 147q37 0 58 -3v64q0 105 -108 105q-100 0 -108 -93l-47 7q5 68 50 98.5t110 30.5q69 0 111.5 -33.5t42.5 -108.5z" />
    <glyph glyph-name="Aogonek" unicode="&#x104;" horiz-adv-x="535" 
d="M352 -113q0 87 109 133l-62 167h-264l-70 -187h-55l224 589h69l222 -589q-59 -9 -92 -36.5t-33 -71.5q0 -56 50 -56q38 0 63 38l21 -25q-30 -50 -91 -50q-42 0 -66.5 23.5t-24.5 64.5zM217 408l-66 -176h231l-65 175q-15 40 -27 76.5t-16 53.5l-5 17h-4q-14 -56 -48 -146
z" />
    <glyph glyph-name="aogonek" unicode="&#x105;" horiz-adv-x="453" 
d="M260 -114q0 80 94 123q-31 14 -32 69q-15 -42 -54 -64.5t-88 -22.5q-64 0 -102 33t-38 91q0 147 221 147q37 0 58 -3v64q0 105 -108 105q-100 0 -108 -93l-47 7q5 68 50 98.5t110 30.5q69 0 111.5 -33.5t42.5 -108.5v-233q0 -58 37 -58q13 0 21 4v-42q-49 -9 -84.5 -36.5
t-35.5 -71.5q0 -56 50 -56q39 0 62 38l21 -25q-28 -50 -90 -50q-43 0 -67 23t-24 64zM319 145v76q-24 3 -48 3q-180 0 -180 -104q0 -41 25.5 -64.5t73.5 -23.5q52 0 90.5 30.5t38.5 82.5z" />
    <glyph glyph-name="Cacute" unicode="&#x106;" horiz-adv-x="552" 
d="M484 146l38 -30q-67 -125 -219 -125q-117 0 -186 78.5t-69 223.5t72 225t192 80q154 0 210 -140l-47 -23q-42 118 -166 118q-98 0 -152 -69t-54 -191q0 -121 52 -188t150 -67q64 0 107 26t72 82zM325 642h-45l64 121h70z" />
    <glyph glyph-name="cacute" unicode="&#x107;" horiz-adv-x="447" 
d="M368 128l43 -9q-22 -128 -173 -128q-89 0 -140.5 61.5t-51.5 176.5t52.5 178.5t145.5 63.5q150 0 162 -147l-47 -7q-14 110 -118 110q-70 0 -108 -53t-38 -146q0 -90 39.5 -142.5t107.5 -52.5q102 0 126 95zM263 533h-42l71 136h70z" />
    <glyph glyph-name="Ccircumflex" unicode="&#x108;" horiz-adv-x="552" 
d="M484 146l38 -30q-67 -125 -219 -125q-117 0 -186 78.5t-69 223.5t72 225t192 80q154 0 210 -140l-47 -23q-42 118 -166 118q-98 0 -152 -69t-54 -191q0 -121 52 -188t150 -67q64 0 107 26t72 82zM295 767h31l115 -125h-58l-42 47l-29 39h-2q-9 -16 -29 -39l-42 -47h-58z
" />
    <glyph glyph-name="ccircumflex" unicode="&#x109;" horiz-adv-x="447" 
d="M368 128l43 -9q-22 -128 -173 -128q-89 0 -140.5 61.5t-51.5 176.5t52.5 178.5t145.5 63.5q150 0 162 -147l-47 -7q-14 110 -118 110q-70 0 -108 -53t-38 -146q0 -90 39.5 -142.5t107.5 -52.5q102 0 126 95zM230 669h29l115 -136h-54l-45 53l-29 41h-3q-9 -17 -29 -41
l-44 -53h-55z" />
    <glyph glyph-name="Cdotaccent" unicode="&#x10a;" horiz-adv-x="552" 
d="M484 146l38 -30q-67 -125 -219 -125q-117 0 -186 78.5t-69 223.5t72 225t192 80q154 0 210 -140l-47 -23q-42 118 -166 118q-98 0 -152 -69t-54 -191q0 -121 52 -188t150 -67q64 0 107 26t72 82zM270 689q0 16 11 27.5t26 11.5q17 0 28 -11t11 -28q0 -16 -11.5 -27
t-27.5 -11q-15 0 -26 11t-11 27z" />
    <glyph glyph-name="cdotaccent" unicode="&#x10b;" horiz-adv-x="447" 
d="M368 128l43 -9q-22 -128 -173 -128q-89 0 -140.5 61.5t-51.5 176.5t52.5 178.5t145.5 63.5q150 0 162 -147l-47 -7q-14 110 -118 110q-70 0 -108 -53t-38 -146q0 -90 39.5 -142.5t107.5 -52.5q102 0 126 95zM207 593q0 17 10.5 28t26.5 11t27 -11t11 -28q0 -16 -11 -27
t-27 -11t-26.5 11t-10.5 27z" />
    <glyph glyph-name="Ccaron" unicode="&#x10c;" horiz-adv-x="552" 
d="M484 146l38 -30q-67 -125 -219 -125q-117 0 -186 78.5t-69 223.5t72 225t192 80q154 0 210 -140l-47 -23q-42 118 -166 118q-98 0 -152 -69t-54 -191q0 -121 52 -188t150 -67q64 0 107 26t72 82zM322 639h-31l-115 126h58l42 -48l29 -38h2q9 15 29 38l43 48h57z" />
    <glyph glyph-name="ccaron" unicode="&#x10d;" horiz-adv-x="447" 
d="M368 128l43 -9q-22 -128 -173 -128q-89 0 -140.5 61.5t-51.5 176.5t52.5 178.5t145.5 63.5q150 0 162 -147l-47 -7q-14 110 -118 110q-70 0 -108 -53t-38 -146q0 -90 39.5 -142.5t107.5 -52.5q102 0 126 95zM259 533h-29l-115 136h55l44 -55l29 -41h3q9 17 29 41l45 55
h54z" />
    <glyph glyph-name="Dcaron" unicode="&#x10e;" horiz-adv-x="581" 
d="M140 45h104q110 0 172 64.5t62 189.5t-60 185t-169 60h-109v-499zM249 0h-162v589h163q132 0 207.5 -69.5t75.5 -218.5q0 -154 -79.5 -227.5t-204.5 -73.5zM275 639h-31l-114 126h57l43 -48l29 -38h2q9 15 29 38l42 48h58z" />
    <glyph glyph-name="dcaron" unicode="&#x10f;" horiz-adv-x="513" 
d="M574 668l-39 -175h-37l16 175h60zM386 188v94q0 72 -41.5 109.5t-96.5 37.5q-69 0 -110 -50t-41 -154q0 -94 39.5 -143t106.5 -49q57 0 99.5 40t43.5 115zM385 379v289h52v-668h-44l-7 97q-17 -52 -58 -79t-98 -27q-80 0 -132 60.5t-52 172.5q0 119 53 183t148 64
q52 0 89.5 -26.5t48.5 -65.5z" />
    <glyph glyph-name="Dcroat" unicode="&#x110;" horiz-adv-x="585" 
d="M252 0h-162v272h-61v46h61v271h163q132 0 207.5 -69.5t75.5 -218.5q0 -154 -79.5 -227.5t-204.5 -73.5zM143 45h104q110 0 172 64.5t62 189.5t-60 185t-168 60h-110v-226h137v-46h-137v-227z" />
    <glyph glyph-name="dcroat" unicode="&#x111;" horiz-adv-x="513" 
d="M228 541v41h157v86h52v-86h71v-41h-71v-541h-44l-7 97q-17 -52 -58 -79t-98 -27q-80 0 -132 60.5t-52 172.5q0 119 53 183t148 64q52 0 89.5 -26.5t48.5 -65.5v162h-157zM386 188v94q0 72 -41.5 109.5t-96.5 37.5q-69 0 -110 -50t-41 -154q0 -94 39.5 -143t106.5 -49
q57 0 99.5 40t43.5 115z" />
    <glyph glyph-name="Emacron" unicode="&#x112;" horiz-adv-x="474" 
d="M422 46v-46h-335v589h335v-46h-282v-225h251v-46h-251v-226h282zM365 667h-222v41h222v-41z" />
    <glyph glyph-name="emacron" unicode="&#x113;" horiz-adv-x="458" 
d="M245 32q98 0 122 91l45 -10q-24 -122 -171 -122q-91 0 -143 61.5t-52 177.5q0 114 53 177.5t145 63.5q81 0 125 -51t44 -133q0 -29 -6 -59h-312q0 -93 39.5 -144.5t110.5 -51.5zM97 270h265q1 9 1 27q0 58 -32.5 95t-89.5 37q-64 0 -100.5 -41.5t-43.5 -117.5zM355 564
h-222v43h222v-43z" />
    <glyph glyph-name="Ebreve" unicode="&#x114;" horiz-adv-x="474" 
d="M422 46v-46h-335v589h335v-46h-282v-225h251v-46h-251v-226h282zM258 638q-56 0 -87.5 32.5t-31.5 90.5h41q4 -83 78 -83q75 0 79 83h42q0 -58 -32 -90.5t-89 -32.5z" />
    <glyph glyph-name="ebreve" unicode="&#x115;" horiz-adv-x="458" 
d="M245 32q98 0 122 91l45 -10q-24 -122 -171 -122q-91 0 -143 61.5t-52 177.5q0 114 53 177.5t145 63.5q81 0 125 -51t44 -133q0 -29 -6 -59h-312q0 -93 39.5 -144.5t110.5 -51.5zM97 270h265q1 9 1 27q0 58 -32.5 95t-89.5 37q-64 0 -100.5 -41.5t-43.5 -117.5zM243 529
q-57 0 -89 34t-32 95h42q5 -89 79 -89q39 0 57.5 22.5t20.5 66.5h42q0 -61 -31.5 -95t-88.5 -34z" />
    <glyph glyph-name="Edotaccent" unicode="&#x116;" horiz-adv-x="474" 
d="M422 46v-46h-335v589h335v-46h-282v-225h251v-46h-251v-226h282zM213 689q0 16 11 27.5t27 11.5t27 -11t11 -28q0 -16 -11 -27t-27 -11t-27 11t-11 27z" />
    <glyph glyph-name="edotaccent" unicode="&#x117;" horiz-adv-x="458" 
d="M245 32q98 0 122 91l45 -10q-24 -122 -171 -122q-91 0 -143 61.5t-52 177.5q0 114 53 177.5t145 63.5q81 0 125 -51t44 -133q0 -29 -6 -59h-312q0 -93 39.5 -144.5t110.5 -51.5zM97 270h265q1 9 1 27q0 58 -32.5 95t-89.5 37q-64 0 -100.5 -41.5t-43.5 -117.5zM207 593
q0 17 10.5 28t26.5 11t27 -11t11 -28q0 -16 -11 -27t-27 -11t-26.5 11t-10.5 27z" />
    <glyph glyph-name="Eogonek" unicode="&#x118;" horiz-adv-x="474" 
d="M422 46v-46q-110 -24 -110 -108q0 -56 50 -56q40 0 63 38l21 -25q-28 -50 -90 -50q-43 0 -67 23t-24 64q0 73 74 114h-252v589h335v-46h-282v-225h251v-46h-251v-226h282z" />
    <glyph glyph-name="eogonek" unicode="&#x119;" horiz-adv-x="458" 
d="M188 -114q0 64 55 106q-18 0 -28 1q-80 8 -124.5 69t-44.5 168q0 114 53 177.5t145 63.5q81 0 125 -51t44 -133q0 -29 -6 -59h-312q0 -93 39.5 -144.5t110.5 -51.5q98 0 122 91l45 -10q-15 -78 -96 -111q-80 -34 -80 -110q0 -56 50 -56q39 0 62 38l22 -25
q-30 -50 -91 -50q-42 0 -66.5 23t-24.5 64zM97 270h265q1 9 1 27q0 58 -32.5 95t-89.5 37q-64 0 -100.5 -41.5t-43.5 -117.5z" />
    <glyph glyph-name="Ecaron" unicode="&#x11a;" horiz-adv-x="474" 
d="M422 46v-46h-335v589h335v-46h-282v-225h251v-46h-251v-226h282zM274 639h-30l-115 126h58l42 -48l29 -38h2q9 15 29 38l42 48h58z" />
    <glyph glyph-name="ecaron" unicode="&#x11b;" horiz-adv-x="458" 
d="M245 32q98 0 122 91l45 -10q-24 -122 -171 -122q-91 0 -143 61.5t-52 177.5q0 114 53 177.5t145 63.5q81 0 125 -51t44 -133q0 -29 -6 -59h-312q0 -93 39.5 -144.5t110.5 -51.5zM97 270h265q1 9 1 27q0 58 -32.5 95t-89.5 37q-64 0 -100.5 -41.5t-43.5 -117.5zM259 533
h-29l-115 136h54l45 -55l29 -41h3q9 17 29 41l44 55h55z" />
    <glyph glyph-name="Gcircumflex" unicode="&#x11c;" horiz-adv-x="594" 
d="M315 288h212v-288h-46l-7 101q-15 -51 -62.5 -80.5t-108.5 -29.5q-117 0 -186 79t-69 223q0 145 72 225t192 80q157 0 210 -140l-47 -23q-42 118 -166 118q-98 0 -152 -69t-54 -191q0 -119 52.5 -188t149.5 -69q72 0 120.5 39t48.5 120v45h-159v48zM295 767h31l115 -125
h-58l-42 47l-29 39h-2q-9 -16 -29 -39l-43 -47h-57z" />
    <glyph glyph-name="gcircumflex" unicode="&#x11d;" horiz-adv-x="460" 
d="M222 471q86 0 134 -51q36 20 41 82l46 -15q-7 -71 -67 -93q20 -35 20 -84q0 -74 -48.5 -116t-124.5 -42q-39 0 -67 10q-39 -18 -39 -54q0 -48 67 -48h105q71 0 111.5 -30t40.5 -93q0 -42 -20.5 -72t-55.5 -46t-73.5 -23t-82.5 -7q-55 0 -96.5 10.5t-71 40.5t-29.5 77
q0 51 34 82t89 34q-30 2 -46.5 20.5t-16.5 46.5q0 54 58 72q-81 40 -81 138q0 74 47 117.5t126 43.5zM61 -79q0 -93 152 -93q79 0 129 24.5t50 79.5q0 82 -104 82h-98q-129 0 -129 -93zM99 311q0 -55 33 -87.5t90 -32.5q56 0 89.5 31.5t33.5 88.5t-33.5 88.5t-89.5 31.5
q-57 -1 -90 -32.5t-33 -87.5zM216 669h28l115 -136h-54l-45 53l-29 41h-3q-9 -17 -29 -41l-44 -53h-55z" />
    <glyph glyph-name="Gbreve" unicode="&#x11e;" horiz-adv-x="594" 
d="M315 288h212v-288h-46l-7 101q-15 -51 -62.5 -80.5t-108.5 -29.5q-117 0 -186 79t-69 223q0 145 72 225t192 80q157 0 210 -140l-47 -23q-42 118 -166 118q-98 0 -152 -69t-54 -191q0 -119 52.5 -188t149.5 -69q72 0 120.5 39t48.5 120v45h-159v48zM311 638
q-57 0 -88.5 32.5t-31.5 90.5h42q4 -83 78 -83t78 83h42q0 -58 -31.5 -90.5t-88.5 -32.5z" />
    <glyph glyph-name="gbreve" unicode="&#x11f;" horiz-adv-x="460" 
d="M222 471q86 0 134 -51q36 20 41 82l46 -15q-7 -71 -67 -93q20 -35 20 -84q0 -74 -48.5 -116t-124.5 -42q-39 0 -67 10q-39 -18 -39 -54q0 -48 67 -48h105q71 0 111.5 -30t40.5 -93q0 -42 -20.5 -72t-55.5 -46t-73.5 -23t-82.5 -7q-55 0 -96.5 10.5t-71 40.5t-29.5 77
q0 51 34 82t89 34q-30 2 -46.5 20.5t-16.5 46.5q0 54 58 72q-81 40 -81 138q0 74 47 117.5t126 43.5zM61 -79q0 -93 152 -93q79 0 129 24.5t50 79.5q0 82 -104 82h-98q-129 0 -129 -93zM99 311q0 -55 33 -87.5t90 -32.5q56 0 89.5 31.5t33.5 88.5t-33.5 88.5t-89.5 31.5
q-57 -1 -90 -32.5t-33 -87.5zM228 529q-58 0 -89.5 33.5t-31.5 95.5h42q5 -89 79 -89q39 0 57.5 22.5t20.5 66.5h42q0 -61 -31.5 -95t-88.5 -34z" />
    <glyph glyph-name="Gdotaccent" unicode="&#x120;" horiz-adv-x="594" 
d="M315 288h212v-288h-46l-7 101q-15 -51 -62.5 -80.5t-108.5 -29.5q-117 0 -186 79t-69 223q0 145 72 225t192 80q157 0 210 -140l-47 -23q-42 118 -166 118q-98 0 -152 -69t-54 -191q0 -119 52.5 -188t149.5 -69q72 0 120.5 39t48.5 120v45h-159v48zM273 698q0 16 10.5 27
t26.5 11t27 -11t11 -27t-11 -27t-27 -11t-26.5 11t-10.5 27z" />
    <glyph glyph-name="gdotaccent" unicode="&#x121;" horiz-adv-x="460" 
d="M222 471q86 0 134 -51q36 20 41 82l46 -15q-7 -71 -67 -93q20 -35 20 -84q0 -74 -48.5 -116t-124.5 -42q-39 0 -67 10q-39 -18 -39 -54q0 -48 67 -48h105q71 0 111.5 -30t40.5 -93q0 -42 -20.5 -72t-55.5 -46t-73.5 -23t-82.5 -7q-55 0 -96.5 10.5t-71 40.5t-29.5 77
q0 51 34 82t89 34q-30 2 -46.5 20.5t-16.5 46.5q0 54 58 72q-81 40 -81 138q0 74 47 117.5t126 43.5zM61 -79q0 -93 152 -93q79 0 129 24.5t50 79.5q0 82 -104 82h-98q-129 0 -129 -93zM99 311q0 -55 33 -87.5t90 -32.5q56 0 89.5 31.5t33.5 88.5t-33.5 88.5t-89.5 31.5
q-57 -1 -90 -32.5t-33 -87.5zM188 594q0 17 10.5 28t26.5 11t27 -11t11 -28q0 -15 -11 -26t-27 -11t-26.5 11t-10.5 26z" />
    <glyph glyph-name="Gcommaaccent" unicode="&#x122;" horiz-adv-x="594" 
d="M315 288h212v-288h-46l-7 101q-15 -51 -62.5 -80.5t-108.5 -29.5q-117 0 -186 79t-69 223q0 145 72 225t192 80q157 0 210 -140l-47 -23q-42 118 -166 118q-98 0 -152 -69t-54 -191q0 -119 52.5 -188t149.5 -69q72 0 120.5 39t48.5 120v45h-159v48zM368 -145
q0 -87 -95 -87v26q28 1 42 11.5t15 35.5q0 4 -2 8q-6 -4 -13 -4q-15 0 -24 9.5t-9 23.5q0 16 11 26t28 10q19 0 33 -16t14 -43z" />
    <glyph glyph-name="gcommaaccent" unicode="&#x123;" horiz-adv-x="460" 
d="M222 471q86 0 134 -51q36 20 41 82l46 -15q-7 -71 -67 -93q20 -35 20 -84q0 -74 -48.5 -116t-124.5 -42q-39 0 -67 10q-39 -18 -39 -54q0 -48 67 -48h105q71 0 111.5 -30t40.5 -93q0 -42 -20.5 -72t-55.5 -46t-73.5 -23t-82.5 -7q-55 0 -96.5 10.5t-71 40.5t-29.5 77
q0 51 34 82t89 34q-30 2 -46.5 20.5t-16.5 46.5q0 54 58 72q-81 40 -81 138q0 74 47 117.5t126 43.5zM61 -79q0 -93 152 -93q79 0 129 24.5t50 79.5q0 82 -104 82h-98q-129 0 -129 -93zM99 311q0 -55 33 -87.5t90 -32.5q56 0 89.5 31.5t33.5 88.5t-33.5 88.5t-89.5 31.5
q-57 -1 -90 -32.5t-33 -87.5zM174 603q0 87 95 87v-26q-28 -1 -42 -11.5t-15 -35.5q0 -6 1 -8q8 4 14 4q15 0 23.5 -9t8.5 -24q0 -16 -10.5 -26t-27.5 -10q-19 0 -33 16t-14 43z" />
    <glyph glyph-name="Hcircumflex" unicode="&#x124;" horiz-adv-x="620" 
d="M140 0h-53v589h53v-268h340v268h52v-589h-52v274h-340v-274zM294 767h31l115 -125h-58l-42 47l-29 39h-2q-9 -16 -29 -39l-42 -47h-58z" />
    <glyph glyph-name="hcircumflex" unicode="&#x125;" horiz-adv-x="490" 
d="M127 668v-311q15 52 53.5 83t95.5 31q64 0 103 -36t39 -110v-325h-51v312q0 55 -26.5 84.5t-75.5 29.5q-60 0 -99 -42t-39 -122v-262h-51v668h51zM87 823h31l115 -126h-58l-42 48l-29 38h-2q-9 -16 -29 -38l-42 -48h-58z" />
    <glyph glyph-name="Hbar" unicode="&#x126;" horiz-adv-x="633" 
d="M24 424v47h69v118h52v-118h340v118h53v-118h71v-47h-71v-424h-53v274h-340v-274h-52v424h-69zM145 321h340v103h-340v-103z" />
    <glyph glyph-name="hbar" unicode="&#x127;" horiz-adv-x="490" 
d="M127 668v-86h157v-41h-157v-184q15 52 53.5 83t95.5 31q64 0 103 -36t39 -110v-325h-51v312q0 55 -26.5 84.5t-75.5 29.5q-60 0 -99 -42t-39 -122v-262h-51v541h-72v41h72v86h51z" />
    <glyph glyph-name="Itilde" unicode="&#x128;" horiz-adv-x="227" 
d="M87 589h53v-589h-53v589zM182 647q-6 0 -12 0.5t-12 3t-9.5 3.5t-10 5t-9 5.5t-10 6.5t-9.5 6t-8.5 6t-8.5 6t-7.5 4.5t-8 4.5t-7 3t-7.5 3t-7 1.5t-8 0.5q-44 0 -33 -59h-33q-16 43 2.5 74t58.5 31q33 0 79 -31q37 -28 57 -28q43 0 33 61h35q15 -46 -3.5 -76.5
t-61.5 -30.5z" />
    <glyph glyph-name="itilde" unicode="&#x129;" horiz-adv-x="205" 
d="M171 539q-28 0 -71 29q-2 1 -8.5 6t-8.5 6t-7.5 4.5t-8 4.5t-7 3t-7.5 3t-7 1.5t-8 0.5q-45 0 -34 -59h-33q-16 44 3 74t59 30q33 0 78 -32l9 -6t8 -5.5t6.5 -4.5t7 -4t6.5 -3t6.5 -2.5t6 -1t7.5 -0.5q42 0 34 61h34q16 -46 -2.5 -75.5t-62.5 -29.5zM77 462h51v-462h-51
v462z" />
    <glyph glyph-name="Imacron" unicode="&#x12a;" horiz-adv-x="227" 
d="M87 589h53v-589h-53v589zM224 667h-221v41h221v-41z" />
    <glyph glyph-name="imacron" unicode="&#x12b;" horiz-adv-x="205" 
d="M204 564h-203v43h203v-43zM77 462h51v-462h-51v462z" />
    <glyph glyph-name="Ibreve" unicode="&#x12c;" horiz-adv-x="227" 
d="M87 589h53v-589h-53v589zM113 638q-56 0 -87.5 32.5t-31.5 90.5h41q4 -83 78 -83q75 0 79 83h41q0 -58 -31.5 -90.5t-88.5 -32.5z" />
    <glyph glyph-name="Iogonek" unicode="&#x12e;" horiz-adv-x="227" 
d="M-11 -114q0 83 98 129v574h53v-589q-43 -12 -73 -39.5t-30 -68.5q0 -56 50 -56q39 0 62 38l21 -25q-28 -50 -90 -50q-43 0 -67 23t-24 64z" />
    <glyph glyph-name="iogonek" unicode="&#x12f;" horiz-adv-x="205" 
d="M-23 -114q0 84 100 130v446h51v-462q-43 -12 -73 -39.5t-30 -68.5q0 -56 50 -56q39 0 62 38l22 -25q-30 -50 -91 -50q-42 0 -66.5 23t-24.5 64zM65 604q0 17 10.5 28t26.5 11t27.5 -11.5t11.5 -27.5t-11 -26.5t-28 -10.5q-16 0 -26.5 10.5t-10.5 26.5z" />
    <glyph glyph-name="Idotaccent" unicode="&#x130;" horiz-adv-x="227" 
d="M87 589h53v-589h-53v589zM75 689q0 16 11 27.5t27 11.5t27 -11t11 -28q0 -16 -11 -27t-27 -11t-27 11t-11 27z" />
    <glyph glyph-name="dotlessi" unicode="&#x131;" horiz-adv-x="205" 
d="M77 462h51v-462h-51v462z" />
    <glyph glyph-name="IJ" unicode="&#x132;" horiz-adv-x="639" 
d="M94 589h52v-589h-52v589zM510 589h52v-417q0 -95 -47.5 -138t-124.5 -43q-129 0 -177 118l43 27q22 -53 54 -76.5t82 -23.5q61 0 89.5 36t28.5 113v404z" />
    <glyph glyph-name="ij" unicode="&#x133;" horiz-adv-x="461" 
d="M74 604q0 17 10.5 28t26.5 11q17 0 28 -11.5t11 -27.5t-11 -26.5t-28 -10.5q-16 0 -26.5 10.5t-10.5 26.5zM86 462h51v-462h-51v462zM312 462h51v-502q0 -88 -42.5 -126.5t-127.5 -36.5v43q60 -3 89.5 24.5t29.5 90.5v507zM300 604q0 16 11 27.5t27 11.5t27 -11.5
t11 -27.5t-11 -26.5t-27 -10.5t-27 10.5t-11 26.5z" />
    <glyph glyph-name="Jcircumflex" unicode="&#x134;" horiz-adv-x="426" 
d="M306 589h52v-417q0 -95 -47.5 -138t-124.5 -43q-129 0 -177 118l43 27q22 -53 54 -76.5t82 -23.5q61 0 89.5 36t28.5 113v404zM317 767h31l114 -125h-57l-43 47l-29 39h-2q-9 -16 -29 -39l-42 -47h-58z" />
    <glyph glyph-name="jcircumflex" unicode="&#x135;" horiz-adv-x="205" 
d="M77 462h51v-502q0 -88 -42.5 -126.5t-127.5 -36.5v43q60 -3 89.5 24.5t29.5 90.5v507zM89 669h29l115 -136h-54l-45 53l-29 41h-3q-9 -17 -29 -41l-44 -53h-55z" />
    <glyph glyph-name="Kcommaaccent" unicode="&#x136;" horiz-adv-x="500" 
d="M485 0h-66l-229 274h-50v-274h-53v589h53v-268h52l215 268h63l-235 -289zM297 -145q0 -87 -96 -87v26q29 1 43 11.5t14 35.5q0 6 -1 8q-8 -4 -13 -4q-15 0 -24 9.5t-9 23.5q0 17 10.5 26.5t28.5 9.5q19 0 33 -16t14 -43z" />
    <glyph glyph-name="kcommaaccent" unicode="&#x137;" horiz-adv-x="429" 
d="M207 246l215 -246h-65l-190 221h-40v-221h-51v668h51v-405h36l177 199h63zM274 -145q0 -87 -96 -87v26q29 1 43 11.5t14 35.5q0 6 -1 8q-6 -4 -13 -4q-15 0 -24 9.5t-9 23.5q0 17 10.5 26.5t28.5 9.5q19 0 33 -16t14 -43z" />
    <glyph glyph-name="kgreenlandic" unicode="&#x138;" horiz-adv-x="429" 
d="M207 246l215 -246h-65l-190 221h-40v-221h-51v462h50v-199h37l177 199h63z" />
    <glyph glyph-name="Lacute" unicode="&#x139;" horiz-adv-x="436" 
d="M87 589h53v-543h274v-46h-327v589zM142 642h-45l64 121h70z" />
    <glyph glyph-name="lacute" unicode="&#x13a;" horiz-adv-x="225" 
d="M195 44v-44q-21 -5 -40 -5q-40 0 -62.5 22t-22.5 65v586h51v-579q0 -50 43 -50q14 0 31 5zM117 712h-45l64 121h70z" />
    <glyph glyph-name="Lcommaaccent" unicode="&#x13b;" horiz-adv-x="436" 
d="M87 589h53v-543h274v-46h-327v589zM303 -145q0 -87 -95 -87v26q28 1 42 11.5t15 35.5q0 4 -2 8q-6 -4 -13 -4q-15 0 -23.5 9t-8.5 24q0 16 10.5 26t27.5 10q19 0 33 -16t14 -43z" />
    <glyph glyph-name="lcommaaccent" unicode="&#x13c;" horiz-adv-x="225" 
d="M195 44v-44q-21 -5 -40 -5q-40 0 -62.5 22t-22.5 65v586h51v-579q0 -50 43 -50q14 0 31 5zM181 -145q0 -87 -95 -87v26q28 1 42 11.5t15 35.5q0 6 -1 8q-8 -4 -14 -4q-15 0 -23.5 9t-8.5 24q0 16 10.5 26t27.5 10q19 0 33 -16t14 -43z" />
    <glyph glyph-name="Lcaron" unicode="&#x13d;" horiz-adv-x="436" 
d="M87 589h53v-543h274v-46h-327v589zM365 601l-38 -175h-38l16 175h60z" />
    <glyph glyph-name="lcaron" unicode="&#x13e;" horiz-adv-x="225" 
d="M258 668l-38 -175h-38l16 175h60zM195 44v-44q-21 -5 -40 -5q-40 0 -62.5 22t-22.5 65v586h51v-579q0 -50 43 -50q14 0 31 5z" />
    <glyph glyph-name="Ldot" unicode="&#x13f;" horiz-adv-x="436" 
d="M87 589h53v-543h274v-46h-327v589zM265 302q0 18 12 30t30 12t30 -12t12 -30q0 -19 -12 -31t-30 -12t-30 12t-12 31z" />
    <glyph glyph-name="ldot" unicode="&#x140;" horiz-adv-x="261" 
d="M195 44v-44q-21 -5 -40 -5q-40 0 -62.5 22t-22.5 65v586h51v-579q0 -50 43 -50q14 0 31 5zM185 323q0 18 12 30t30 12q19 0 31 -12t12 -30t-12 -30t-31 -12q-18 0 -30 12t-12 30z" />
    <glyph glyph-name="Lslash" unicode="&#x141;" horiz-adv-x="440" 
d="M28 216v46l64 28v299h52v-278l153 70v-48l-153 -69v-218h274v-46h-326v244z" />
    <glyph glyph-name="lslash" unicode="&#x142;" horiz-adv-x="229" 
d="M20 298v47l56 30v293h51v-266l75 40v-50l-75 -39v-264q0 -50 44 -50q13 0 30 5v-44q-21 -5 -40 -5q-40 0 -62.5 22t-22.5 65v245z" />
    <glyph glyph-name="Nacute" unicode="&#x143;" horiz-adv-x="629" 
d="M334 642h-45l64 121h70zM144 589l280 -410q17 -24 33.5 -51.5t24.5 -42.5l8 -15h3q-3 58 -3 124v395h52v-589h-56l-281 410q-16 24 -32.5 51t-24.5 43l-9 15h-4q4 -58 4 -124v-395h-52v589h57z" />
    <glyph glyph-name="nacute" unicode="&#x144;" horiz-adv-x="492" 
d="M116 462l7 -106q16 53 56.5 84t98.5 31q64 0 102.5 -36t38.5 -110v-325h-51v312q0 55 -26.5 84.5t-75.5 29.5q-59 0 -98.5 -42t-39.5 -122v-262h-51v462h39zM268 533h-42l71 136h70z" />
    <glyph glyph-name="Ncommaaccent" unicode="&#x145;" horiz-adv-x="629" 
d="M367 -145q0 -87 -95 -87v26q28 1 42 11.5t15 35.5q0 4 -2 8q-6 -4 -13 -4q-15 0 -23.5 9t-8.5 24q0 16 10.5 26t27.5 10q19 0 33 -16t14 -43zM144 589l280 -410q17 -24 33.5 -51.5t24.5 -42.5l8 -15h3q-3 58 -3 124v395h52v-589h-56l-281 410q-16 24 -32.5 51t-24.5 43
l-9 15h-4q4 -58 4 -124v-395h-52v589h57z" />
    <glyph glyph-name="ncommaaccent" unicode="&#x146;" horiz-adv-x="492" 
d="M116 462l7 -106q16 53 56.5 84t98.5 31q64 0 102.5 -36t38.5 -110v-325h-51v312q0 55 -26.5 84.5t-75.5 29.5q-59 0 -98.5 -42t-39.5 -122v-262h-51v462h39zM299 -145q0 -87 -96 -87v26q29 1 43 11.5t14 35.5q0 6 -1 8q-8 -4 -13 -4q-15 0 -24 9.5t-9 23.5
q0 17 10.5 26.5t28.5 9.5q19 0 33 -16t14 -43z" />
    <glyph glyph-name="Ncaron" unicode="&#x147;" horiz-adv-x="629" 
d="M330 639h-31l-115 126h58l42 -48l29 -38h2q9 15 29 38l43 48h57zM144 589l280 -410q17 -24 33.5 -51.5t24.5 -42.5l8 -15h3q-3 58 -3 124v395h52v-589h-56l-281 410q-16 24 -32.5 51t-24.5 43l-9 15h-4q4 -58 4 -124v-395h-52v589h57z" />
    <glyph glyph-name="ncaron" unicode="&#x148;" horiz-adv-x="492" 
d="M116 462l7 -106q16 53 56.5 84t98.5 31q64 0 102.5 -36t38.5 -110v-325h-51v312q0 55 -26.5 84.5t-75.5 29.5q-59 0 -98.5 -42t-39.5 -122v-262h-51v462h39zM265 533h-29l-115 136h54l45 -55l29 -41h3q9 17 29 41l44 55h55z" />
    <glyph glyph-name="Eng" unicode="&#x14a;" horiz-adv-x="629" 
d="M542 589v-617q0 -97 -47.5 -139.5t-127.5 -42.5q-81 0 -136 55l32 39q46 -49 109 -49q61 0 89 36t28 113v11l-285 415q-16 23 -32 49.5t-24 41.5l-9 15h-4q5 -55 5 -121v-395h-53v589h57l281 -410l65 -106h3q-4 55 -4 121v395h53z" />
    <glyph glyph-name="eng" unicode="&#x14b;" horiz-adv-x="492" 
d="M128 0h-51v462h39l7 -106q16 53 56.5 84t98.5 31q64 0 102.5 -36t38.5 -110v-365q0 -89 -42 -127t-128 -36v43q61 -3 90 24.5t29 89.5v358q0 55 -26.5 84.5t-75.5 29.5q-59 0 -98.5 -42t-39.5 -122v-262z" />
    <glyph glyph-name="Omacron" unicode="&#x14c;" horiz-adv-x="608" 
d="M304 -9q-119 0 -187.5 79.5t-68.5 223.5t68.5 224t187.5 80t187.5 -80t68.5 -224t-68.5 -223.5t-187.5 -79.5zM304 552q-97 0 -149 -68t-52 -190q0 -121 52 -189t149 -68t149.5 68t52.5 189t-52.5 189.5t-149.5 68.5zM415 667h-221v41h221v-41z" />
    <glyph glyph-name="omacron" unicode="&#x14d;" 
d="M243 -9q-92 0 -144.5 63t-52.5 179q0 115 52.5 176.5t144.5 61.5q94 0 146 -61t52 -177q0 -117 -52.5 -179.5t-145.5 -62.5zM243 428q-147 0 -147 -195q0 -99 37.5 -150t109.5 -51t110 51t38 150q0 195 -148 195zM355 564h-222v43h222v-43z" />
    <glyph glyph-name="Obreve" unicode="&#x14e;" horiz-adv-x="608" 
d="M304 -9q-119 0 -187.5 79.5t-68.5 223.5t68.5 224t187.5 80t187.5 -80t68.5 -224t-68.5 -223.5t-187.5 -79.5zM304 552q-97 0 -149 -68t-52 -190q0 -121 52 -189t149 -68t149.5 68t52.5 189t-52.5 189.5t-149.5 68.5zM304 638q-56 0 -87.5 32.5t-31.5 90.5h41
q4 -83 78 -83q75 0 79 83h41q0 -58 -31.5 -90.5t-88.5 -32.5z" />
    <glyph glyph-name="obreve" unicode="&#x14f;" 
d="M243 -9q-92 0 -144.5 63t-52.5 179q0 115 52.5 176.5t144.5 61.5q94 0 146 -61t52 -177q0 -117 -52.5 -179.5t-145.5 -62.5zM243 428q-147 0 -147 -195q0 -99 37.5 -150t109.5 -51t110 51t38 150q0 195 -148 195zM243 529q-57 0 -88.5 34t-31.5 95h42q2 -44 20.5 -66.5
t57.5 -22.5q74 0 79 89h42q0 -62 -31.5 -95.5t-89.5 -33.5z" />
    <glyph glyph-name="Ohungarumlaut" unicode="&#x150;" horiz-adv-x="608" 
d="M304 -9q-119 0 -187.5 79.5t-68.5 223.5t68.5 224t187.5 80t187.5 -80t68.5 -224t-68.5 -223.5t-187.5 -79.5zM304 552q-97 0 -149 -68t-52 -190q0 -121 52 -189t149 -68t149.5 68t52.5 189t-52.5 189.5t-149.5 68.5zM257 642h-39l65 121h67zM380 642h-40l71 121h68z" />
    <glyph glyph-name="ohungarumlaut" unicode="&#x151;" 
d="M243 -9q-92 0 -144.5 63t-52.5 179q0 115 52.5 176.5t144.5 61.5q94 0 146 -61t52 -177q0 -117 -52.5 -179.5t-145.5 -62.5zM243 428q-147 0 -147 -195q0 -99 37.5 -150t109.5 -51t110 51t38 150q0 195 -148 195zM196 533h-39l66 136h66zM319 533h-40l71 136h68z" />
    <glyph glyph-name="OE" unicode="&#x152;" horiz-adv-x="849" 
d="M304 -9q-119 0 -187.5 79.5t-68.5 223.5t68.5 224t187.5 80q40 0 73 -9h420v-46h-336q92 -70 98 -225h207v-46h-207q-6 -157 -98 -226h336v-46h-420q-33 -9 -73 -9zM304 552q-97 0 -148.5 -68t-51.5 -190t51.5 -189.5t148.5 -67.5t148.5 67.5t51.5 189.5t-51.5 190
t-148.5 68z" />
    <glyph glyph-name="oe" unicode="&#x153;" horiz-adv-x="804" 
d="M590 32q99 0 123 91l45 -10q-24 -122 -171 -122q-133 0 -172 120q-36 -120 -172 -120q-92 0 -144.5 63t-52.5 179q0 115 52.5 176.5t144.5 61.5q65 0 110.5 -30.5t62.5 -89.5q20 58 65.5 89t107.5 31q82 0 126 -50.5t44 -133.5q0 -33 -7 -59h-311q-1 -92 39 -144t110 -52
zM243 428q-147 0 -147 -195q0 -99 37.5 -150t109.5 -51t110 51t38 150q0 195 -148 195zM442 270h266q1 9 1 27q0 58 -32.5 95t-89.5 37q-64 0 -101 -41.5t-44 -117.5z" />
    <glyph glyph-name="Racute" unicode="&#x154;" horiz-adv-x="530" 
d="M494 0h-58q-19 22 -28 59l-24 105q-12 52 -43.5 73.5t-89.5 21.5h-111v-259h-53v589h182q193 0 193 -162q0 -67 -39.5 -105.5t-97.5 -41.5v-2q44 -5 69.5 -27.5t38.5 -71.5l28 -114q10 -39 33 -65zM140 544v-240h128q139 0 139 120t-139 120h-128zM275 642h-45l64 121h70
z" />
    <glyph glyph-name="racute" unicode="&#x155;" horiz-adv-x="329" 
d="M201 533h-42l71 136h70zM309 465l-5 -56q-15 7 -43 7q-58 0 -95.5 -50t-37.5 -126v-240h-51v462h42l7 -131q11 64 50.5 101.5t101.5 37.5q18 0 31 -5z" />
    <glyph glyph-name="Rcommaaccent" unicode="&#x156;" horiz-adv-x="530" 
d="M494 0h-58q-19 22 -28 59l-24 105q-12 52 -43.5 73.5t-89.5 21.5h-111v-259h-53v589h182q193 0 193 -162q0 -67 -39.5 -105.5t-97.5 -41.5v-2q44 -5 69.5 -27.5t38.5 -71.5l28 -114q10 -39 33 -65zM140 544v-240h128q139 0 139 120t-139 120h-128zM308 -145
q0 -87 -96 -87v26q29 1 43 11.5t14 35.5q0 6 -1 8q-8 -4 -14 -4q-14 0 -23 9.5t-9 23.5q0 17 10.5 26.5t28.5 9.5q19 0 33 -16t14 -43z" />
    <glyph glyph-name="rcommaaccent" unicode="&#x157;" horiz-adv-x="329" 
d="M148 -145q0 -87 -95 -87v26q28 1 42 11.5t15 35.5q0 4 -2 8q-6 -4 -13 -4q-15 0 -24 9.5t-9 23.5q0 16 11 26t28 10q19 0 33 -16t14 -43zM309 465l-5 -56q-15 7 -43 7q-58 0 -95.5 -50t-37.5 -126v-240h-51v462h42l7 -131q11 64 50.5 101.5t101.5 37.5q18 0 31 -5z" />
    <glyph glyph-name="Rcaron" unicode="&#x158;" horiz-adv-x="530" 
d="M494 0h-58q-19 22 -28 59l-24 105q-12 52 -43.5 73.5t-89.5 21.5h-111v-259h-53v589h182q193 0 193 -162q0 -67 -39.5 -105.5t-97.5 -41.5v-2q44 -5 69.5 -27.5t38.5 -71.5l28 -114q10 -39 33 -65zM140 544v-240h128q139 0 139 120t-139 120h-128zM266 639h-31l-115 126
h58l42 -48l29 -38h2q9 15 29 38l42 48h58z" />
    <glyph glyph-name="rcaron" unicode="&#x159;" horiz-adv-x="329" 
d="M197 533h-29l-115 136h54l45 -55l29 -41h3q9 17 29 41l44 55h55zM309 465l-5 -56q-15 7 -43 7q-58 0 -95.5 -50t-37.5 -126v-240h-51v462h42l7 -131q11 64 50.5 101.5t101.5 37.5q18 0 31 -5z" />
    <glyph glyph-name="Sacute" unicode="&#x15a;" horiz-adv-x="465" 
d="M31 148l50 10q21 -125 147 -125q64 0 100.5 28.5t36.5 82.5q0 51 -31.5 79.5t-111.5 54.5q-41 13 -65 23t-52 29t-41 47t-13 66q0 80 50.5 118t124.5 38q171 0 188 -155l-51 -8q-16 120 -136 120q-56 0 -90 -27.5t-34 -81.5q0 -51 33.5 -75t116.5 -51q82 -27 123.5 -63
t41.5 -108q0 -78 -52.5 -118.5t-138.5 -40.5q-172 0 -196 157zM254 642h-45l64 121h70z" />
    <glyph glyph-name="sacute" unicode="&#x15b;" horiz-adv-x="399" 
d="M225 533h-43l71 136h70zM29 107l48 14q15 -90 121 -90q115 0 115 82q0 38 -22 59.5t-70 32.5l-60 15q-58 14 -86.5 42.5t-28.5 80.5q0 66 44 97t110 31q140 0 157 -122l-49 -6q-12 88 -108 88q-49 0 -77.5 -21.5t-28.5 -61.5q0 -36 19 -54.5t64 -29.5l59 -15
q63 -17 94 -45.5t31 -85.5q0 -64 -44 -95.5t-119 -31.5q-143 0 -169 116z" />
    <glyph glyph-name="Scircumflex" unicode="&#x15c;" horiz-adv-x="465" 
d="M31 148l50 10q21 -125 147 -125q64 0 100.5 28.5t36.5 82.5q0 51 -31.5 79.5t-111.5 54.5q-41 13 -65 23t-52 29t-41 47t-13 66q0 80 50.5 118t124.5 38q171 0 188 -155l-51 -8q-16 120 -136 120q-56 0 -90 -27.5t-34 -81.5q0 -51 33.5 -75t116.5 -51q82 -27 123.5 -63
t41.5 -108q0 -78 -52.5 -118.5t-138.5 -40.5q-172 0 -196 157zM218 767h31l115 -125h-58l-42 47l-29 39h-2q-9 -16 -29 -39l-43 -47h-57z" />
    <glyph glyph-name="scircumflex" unicode="&#x15d;" horiz-adv-x="399" 
d="M193 669h29l115 -136h-54l-45 53l-29 41h-3q-9 -17 -29 -41l-44 -53h-55zM29 107l48 14q15 -90 121 -90q115 0 115 82q0 38 -22 59.5t-70 32.5l-60 15q-58 14 -86.5 42.5t-28.5 80.5q0 66 44 97t110 31q140 0 157 -122l-49 -6q-12 88 -108 88q-49 0 -77.5 -21.5
t-28.5 -61.5q0 -36 19 -54.5t64 -29.5l59 -15q63 -17 94 -45.5t31 -85.5q0 -64 -44 -95.5t-119 -31.5q-143 0 -169 116z" />
    <glyph glyph-name="Scedilla" unicode="&#x15e;" horiz-adv-x="465" 
d="M324 -126q0 -39 -26 -59t-67 -20q-57 0 -87 40l18 33q28 -39 69 -39q49 0 49 45q0 49 -80 52l8 65q-155 9 -177 157l50 10q21 -125 147 -125q64 0 100.5 28.5t36.5 82.5q0 51 -31.5 79.5t-111.5 54.5q-41 13 -65 23t-52 29t-41 47t-13 66q0 80 50.5 118t124.5 38
q171 0 188 -155l-51 -8q-16 120 -136 120q-56 0 -90 -27.5t-34 -81.5q0 -51 33.5 -75t116.5 -51q82 -27 123.5 -63t41.5 -108q0 -75 -49 -115.5t-130 -43.5l-6 -37q43 -4 67 -24.5t24 -55.5z" />
    <glyph glyph-name="scedilla" unicode="&#x15f;" horiz-adv-x="399" 
d="M29 107l48 14q15 -90 121 -90q115 0 115 82q0 38 -22 59.5t-70 32.5l-60 15q-58 14 -86.5 42.5t-28.5 80.5q0 66 44 97t110 31q140 0 157 -122l-49 -6q-12 88 -108 88q-49 0 -77.5 -21.5t-28.5 -61.5q0 -36 19 -54.5t64 -29.5l59 -15q63 -17 94 -45.5t31 -85.5
q0 -62 -41.5 -93.5t-112.5 -33.5l-5 -37q43 -4 66.5 -24.5t23.5 -55.5q0 -39 -25.5 -59t-66.5 -20q-57 0 -88 40l19 33q27 -39 69 -39q49 0 49 45q0 49 -81 52l9 66q-125 8 -148 115z" />
    <glyph glyph-name="Scaron" unicode="&#x160;" horiz-adv-x="465" 
d="M31 148l50 10q21 -125 147 -125q64 0 100.5 28.5t36.5 82.5q0 51 -31.5 79.5t-111.5 54.5q-41 13 -65 23t-52 29t-41 47t-13 66q0 80 50.5 118t124.5 38q171 0 188 -155l-51 -8q-16 120 -136 120q-56 0 -90 -27.5t-34 -81.5q0 -51 33.5 -75t116.5 -51q82 -27 123.5 -63
t41.5 -108q0 -78 -52.5 -118.5t-138.5 -40.5q-172 0 -196 157zM249 639h-31l-114 126h57l43 -48l29 -38h2q9 15 29 38l42 48h58z" />
    <glyph glyph-name="scaron" unicode="&#x161;" horiz-adv-x="399" 
d="M217 533h-28l-115 136h54l45 -55l29 -41h3q9 17 29 41l44 55h55zM29 107l48 14q15 -90 121 -90q115 0 115 82q0 38 -22 59.5t-70 32.5l-60 15q-58 14 -86.5 42.5t-28.5 80.5q0 66 44 97t110 31q140 0 157 -122l-49 -6q-12 88 -108 88q-49 0 -77.5 -21.5t-28.5 -61.5
q0 -36 19 -54.5t64 -29.5l59 -15q63 -17 94 -45.5t31 -85.5q0 -64 -44 -95.5t-119 -31.5q-143 0 -169 116z" />
    <glyph glyph-name="Tcommaaccent" unicode="&#x162;" horiz-adv-x="465" 
d="M259 0h-53v543h-192v46h437v-46h-192v-543zM279 -145q0 -87 -96 -87v26q29 1 43 11.5t14 35.5q0 6 -1 8q-6 -4 -13 -4q-15 0 -24 9.5t-9 23.5q0 16 11 26t28 10q19 0 33 -16t14 -43z" />
    <glyph glyph-name="tcommaaccent" unicode="&#x163;" horiz-adv-x="307" 
d="M276 63l14 -41q-35 -31 -99 -31q-54 0 -83 30t-29 87v312h-67v42h67v98l52 7v-105h137v-42h-138v-303q0 -82 67 -82q44 0 79 28zM215 -145q0 -87 -96 -87v26q29 1 43 11.5t14 35.5q0 6 -1 8q-8 -4 -13 -4q-15 0 -24 9.5t-9 23.5q0 17 10.5 26.5t28.5 9.5q19 0 33 -16
t14 -43z" />
    <glyph glyph-name="Tcaron" unicode="&#x164;" horiz-adv-x="465" 
d="M259 0h-53v543h-192v46h437v-46h-192v-543zM247 639h-30l-115 126h58l42 -48l29 -38h2q9 15 29 38l42 48h58z" />
    <glyph glyph-name="tcaron" unicode="&#x165;" horiz-adv-x="307" 
d="M276 63l14 -41q-35 -31 -99 -31q-54 0 -83 30t-29 87v312h-67v42h67v98l52 7v-105h137v-42h-138v-303q0 -82 67 -82q44 0 79 28zM254 679l-39 -175h-37l16 175h60z" />
    <glyph glyph-name="Tbar" unicode="&#x166;" horiz-adv-x="465" 
d="M259 0h-53v282h-122v45h122v216h-192v46h437v-46h-192v-216h123v-45h-123v-282z" />
    <glyph glyph-name="tbar" unicode="&#x167;" horiz-adv-x="307" 
d="M12 266v41h67v113h-67v42h67v98l52 7v-105h137v-42h-138v-113h138v-41h-138v-149q0 -82 67 -82q44 0 79 28l14 -41q-35 -31 -99 -31q-54 0 -83 30t-29 87v158h-67z" />
    <glyph glyph-name="Utilde" unicode="&#x168;" horiz-adv-x="574" 
d="M454 589h52v-388q0 -107 -62.5 -158.5t-156.5 -51.5q-95 0 -157 51.5t-62 158.5v388h53v-377q0 -91 46 -134t120 -43q75 0 121 43t46 132v379zM354 647q-6 0 -11.5 0.5t-11.5 3t-9.5 3.5t-10 5t-9 5.5t-10 6.5t-9.5 6t-8.5 6t-8.5 6t-7.5 4.5t-8 4.5t-7 3t-7.5 3t-7 1.5
t-8 0.5q-46 0 -33 -59h-34q-16 43 3 74t59 31q34 0 78 -31q35 -25 50 -27q4 -1 8 -1q43 0 33 61h35q15 -46 -4 -76.5t-62 -30.5z" />
    <glyph glyph-name="utilde" unicode="&#x169;" 
d="M367 0l-7 101q-15 -53 -54 -81.5t-96 -28.5q-141 0 -141 152v319h51v-313q0 -119 103 -119q56 0 96 44.5t40 119.5v268h51v-462h-43zM307 539q-28 0 -71 29q-4 2 -12 7.5t-11 7.5t-9 5.5t-10 5t-9.5 2.5t-10.5 1q-45 0 -34 -59h-33q-16 44 2.5 74t59.5 30q31 0 78 -32
q38 -27 57 -27q43 0 33 61h35q16 -46 -2.5 -75.5t-62.5 -29.5z" />
    <glyph glyph-name="Umacron" unicode="&#x16a;" horiz-adv-x="574" 
d="M454 589h52v-388q0 -107 -62.5 -158.5t-156.5 -51.5q-95 0 -157 51.5t-62 158.5v388h53v-377q0 -91 46 -134t120 -43q75 0 121 43t46 132v379zM398 667h-222v41h222v-41z" />
    <glyph glyph-name="umacron" unicode="&#x16b;" 
d="M367 0l-7 101q-15 -53 -54 -81.5t-96 -28.5q-141 0 -141 152v319h51v-313q0 -119 103 -119q56 0 96 44.5t40 119.5v268h51v-462h-43zM351 564h-222v43h222v-43z" />
    <glyph glyph-name="Ubreve" unicode="&#x16c;" horiz-adv-x="574" 
d="M454 589h52v-388q0 -107 -62.5 -158.5t-156.5 -51.5q-95 0 -157 51.5t-62 158.5v388h53v-377q0 -91 46 -134t120 -43q75 0 121 43t46 132v379zM287 638q-57 0 -88.5 32.5t-31.5 90.5h42q4 -83 78 -83t78 83h42q0 -58 -31.5 -90.5t-88.5 -32.5z" />
    <glyph glyph-name="ubreve" unicode="&#x16d;" 
d="M367 0l-7 101q-15 -53 -54 -81.5t-96 -28.5q-141 0 -141 152v319h51v-313q0 -119 103 -119q56 0 96 44.5t40 119.5v268h51v-462h-43zM239 529q-57 0 -88.5 34t-31.5 95h42q5 -89 78 -89q74 0 79 89h42q0 -62 -31.5 -95.5t-89.5 -33.5z" />
    <glyph glyph-name="Uring" unicode="&#x16e;" horiz-adv-x="574" 
d="M454 589h52v-388q0 -107 -62.5 -158.5t-156.5 -51.5q-95 0 -157 51.5t-62 158.5v388h53v-377q0 -91 46 -134t120 -43q75 0 121 43t46 132v379zM292 629q-42 0 -65.5 24.5t-23.5 62.5q0 35 24.5 59.5t64.5 24.5t64.5 -24.5t24.5 -59.5q0 -38 -23.5 -62.5t-65.5 -24.5z
M292 773q-26 0 -41.5 -16.5t-15.5 -42.5q0 -25 15 -40t42 -15t42 15t15 40q0 26 -15.5 42.5t-41.5 16.5z" />
    <glyph glyph-name="uring" unicode="&#x16f;" 
d="M367 0l-7 101q-15 -53 -54 -81.5t-96 -28.5q-141 0 -141 152v319h51v-313q0 -119 103 -119q56 0 96 44.5t40 119.5v268h51v-462h-43zM240 527q-41 0 -65 24.5t-24 61.5q0 36 24.5 60t64.5 24t64.5 -24t24.5 -60q0 -37 -24 -61.5t-65 -24.5zM240 670q-26 0 -41.5 -16.5
t-15.5 -41.5t15 -40.5t42 -15.5t42 15.5t15 40.5t-15.5 41.5t-41.5 16.5z" />
    <glyph glyph-name="Uhungarumlaut" unicode="&#x170;" horiz-adv-x="574" 
d="M454 589h52v-388q0 -107 -62.5 -158.5t-156.5 -51.5q-95 0 -157 51.5t-62 158.5v388h53v-377q0 -91 46 -134t120 -43q75 0 121 43t46 132v379zM239 642h-38l65 121h67zM363 642h-40l71 121h67z" />
    <glyph glyph-name="uhungarumlaut" unicode="&#x171;" 
d="M367 0l-7 101q-15 -53 -54 -81.5t-96 -28.5q-141 0 -141 152v319h51v-313q0 -119 103 -119q56 0 96 44.5t40 119.5v268h51v-462h-43zM192 533h-39l66 136h66zM315 533h-40l71 136h68z" />
    <glyph glyph-name="Uogonek" unicode="&#x172;" horiz-adv-x="574" 
d="M216 -114q0 63 58 108q-26 2 -37 4q-76 10 -122.5 60.5t-46.5 142.5v388h53v-377q0 -91 46 -134t120 -43q75 0 121 43t46 132v379h52v-388q0 -92 -46.5 -142t-121.5 -63q-74 -40 -74 -104q0 -56 50 -56q39 0 62 38l21 -25q-28 -50 -90 -50q-42 0 -66.5 23t-24.5 64z" />
    <glyph glyph-name="uogonek" unicode="&#x173;" 
d="M262 -116q0 79 103 130l-5 90q-14 -52 -54 -82.5t-96 -30.5q-141 0 -141 152v319h51v-313q0 -119 102 -119q57 0 97 45.5t40 120.5v266h51v-462q-43 -12 -71.5 -41t-28.5 -69q0 -54 47 -54q39 0 62 38l22 -25q-30 -50 -91 -50q-42 0 -65 23t-23 62z" />
    <glyph glyph-name="Wcircumflex" unicode="&#x174;" horiz-adv-x="789" 
d="M379 767h31l115 -125h-58l-42 47l-29 39h-2q-9 -16 -29 -39l-43 -47h-57zM426 589l110 -403l36 -152h4q11 60 36 151l110 404h53l-165 -589h-74l-107 391q-11 40 -19.5 77t-11.5 54l-2 17h-3q-8 -55 -33 -148l-107 -391h-74l-165 589h56l110 -402l36 -153h3q11 62 36 152
l113 403h58z" />
    <glyph glyph-name="wcircumflex" unicode="&#x175;" horiz-adv-x="631" 
d="M344 462l82 -290q12 -41 19.5 -75t8.5 -47l2 -14h3q4 43 29 136l79 290h52l-130 -462h-62l-79 275q-12 41 -19.5 74.5t-9.5 46.5l-2 14h-3q-5 -43 -31 -135l-77 -275h-62l-132 462h53l80 -290q12 -40 19.5 -74t9.5 -48l2 -14h3q4 45 29 136l82 290h54zM301 669h29
l115 -136h-55l-44 53l-29 41h-3q-9 -17 -29 -41l-45 -53h-54z" />
    <glyph glyph-name="Ycircumflex" unicode="&#x176;" horiz-adv-x="469" 
d="M74 589l118 -216l46 -93h3q9 27 44 93l114 216h55l-190 -353v-236h-52v236l-198 353h60zM219 767h31l114 -125h-58l-42 47l-29 39h-2q-9 -16 -29 -39l-42 -47h-58z" />
    <glyph glyph-name="ycircumflex" unicode="&#x177;" horiz-adv-x="417" 
d="M67 462l111 -318q10 -30 18 -57.5t10 -40.5l3 -12h3q9 41 31 108l109 320h53l-171 -486q-35 -99 -74 -141.5t-97 -42.5q-35 0 -65 14l6 44q28 -16 60 -16q41 0 67.5 32.5t54.5 114.5l-174 481h55zM197 669h28l116 -136h-55l-44 53l-29 41h-4q-9 -17 -28 -41l-45 -53h-55z
" />
    <glyph glyph-name="Ydieresis" unicode="&#x178;" horiz-adv-x="469" 
d="M74 589l118 -216l46 -93h3q9 27 44 93l114 216h55l-190 -353v-236h-52v236l-198 353h60zM110 690q0 16 11 27t27 11t27 -11t11 -27t-11 -27t-27 -11t-27 11t-11 27zM282 689q0 16 11 27t27 11t27 -11t11 -27t-11 -27t-27 -11t-27 11t-11 27z" />
    <glyph glyph-name="Zacute" unicode="&#x179;" horiz-adv-x="465" 
d="M259 642h-45l64 121h70zM435 553l-290 -433l-52 -73v-3q21 2 84 2h264v-46h-413v31l290 438l52 73v3q-21 -2 -84 -2h-247v46h396v-36z" />
    <glyph glyph-name="zacute" unicode="&#x17a;" horiz-adv-x="387" 
d="M216 533h-42l71 136h70zM353 427l-215 -310l-54 -73v-3q24 2 87 2h192v-43h-339v29l216 315l54 73v3q-24 -2 -87 -2h-172v44h318v-35z" />
    <glyph glyph-name="Zdotaccent" unicode="&#x17b;" horiz-adv-x="465" 
d="M201 698q0 16 10.5 27t26.5 11t27 -11t11 -27t-11 -27t-27 -11t-26.5 11t-10.5 27zM435 553l-290 -433l-52 -73v-3q21 2 84 2h264v-46h-413v31l290 438l52 73v3q-21 -2 -84 -2h-247v46h396v-36z" />
    <glyph glyph-name="zdotaccent" unicode="&#x17c;" horiz-adv-x="387" 
d="M161 604q0 16 11 27.5t27 11.5t27 -11t11 -28q0 -16 -11 -26.5t-27 -10.5t-27 10.5t-11 26.5zM353 427l-215 -310l-54 -73v-3q24 2 87 2h192v-43h-339v29l216 315l54 73v3q-24 -2 -87 -2h-172v44h318v-35z" />
    <glyph glyph-name="Zcaron" unicode="&#x17d;" horiz-adv-x="465" 
d="M254 639h-31l-114 126h57l43 -48l29 -38h2q9 15 29 38l42 48h58zM435 553l-290 -433l-52 -73v-3q21 2 84 2h264v-46h-413v31l290 438l52 73v3q-21 -2 -84 -2h-247v46h396v-36z" />
    <glyph glyph-name="zcaron" unicode="&#x17e;" horiz-adv-x="387" 
d="M214 533h-29l-115 136h54l45 -55l29 -41h3q9 17 29 41l44 55h55zM353 427l-215 -310l-54 -73v-3q24 2 87 2h192v-43h-339v29l216 315l54 73v3q-24 -2 -87 -2h-172v44h318v-35z" />
    <glyph glyph-name="Schwa" unicode="&#x18f;" horiz-adv-x="553" 
d="M50 442q19 76 74.5 116t136.5 40q114 0 179 -79t65 -228q0 -143 -64 -221.5t-177 -78.5q-104 0 -161.5 64.5t-57.5 174.5q0 29 5 71h402q-1 118 -53 184.5t-143 66.5q-127 0 -162 -127zM451 258h-352q-2 -26 -2 -39q0 -81 44 -133.5t121 -52.5q87 0 136.5 62t52.5 163z
" />
    <glyph glyph-name="florin" unicode="&#x192;" horiz-adv-x="389" 
d="M51 -120l55 312h-77l8 46h77l21 113q25 140 136 140q73 0 103 -48l-30 -38q-28 42 -77 42q-63 0 -81 -95l-20 -114h122l-8 -46h-122l-56 -312h-51z" />
    <glyph glyph-name="Khook" unicode="&#x198;" horiz-adv-x="500" 
d="M333 482l-98 -182l250 -300h-66l-227 272h-52v-272h-53v589h53v-269h54l92 176q27 53 55.5 77.5t69.5 24.5q58 0 74 -51l-36 -28q-13 32 -42 32q-22 0 -38.5 -16t-35.5 -53z" />
    <glyph glyph-name="khook" unicode="&#x199;" horiz-adv-x="429" 
d="M127 221v-221h-51v524q0 75 38 111.5t99 36.5q48 0 85 -20l-14 -45q-39 21 -74 21q-84 0 -84 -114v-251h37l177 199h63l-196 -216l215 -246h-65l-190 221h-40z" />
    <glyph glyph-name="Ezh" unicode="&#x1b7;" horiz-adv-x="455" 
d="M135 269l158 201l59 72v3q-22 -2 -85 -2h-237v46h388v-36l-229 -287v-4q107 0 175.5 -57t68.5 -163q0 -104 -63.5 -163.5t-160.5 -59.5q-94 0 -151.5 47.5t-65.5 136.5l44 12q9 -77 55 -115.5t118 -38.5q79 0 126.5 48.5t47.5 132.5q0 96 -68.5 142t-179.5 45v40z" />
    <glyph glyph-name="Acaron" unicode="&#x1cd;" horiz-adv-x="535" 
d="M469 0l-70 187h-264l-70 -187h-55l224 589h69l222 -589h-56zM217 408l-66 -176h231l-65 175q-15 40 -27 76.5t-16 53.5l-5 17h-4q-14 -56 -48 -146zM282 639h-31l-115 126h58l43 -48l28 -38h2q10 15 29 38l43 48h58z" />
    <glyph glyph-name="acaron" unicode="&#x1ce;" horiz-adv-x="453" 
d="M233 533h-29l-115 136h55l44 -55l29 -41h3q9 17 29 41l45 55h54zM319 145v76q-24 3 -48 3q-180 0 -180 -104q0 -41 25.5 -64.5t73.5 -23.5q52 0 90.5 30.5t38.5 82.5zM370 329v-233q0 -58 37 -58q13 0 21 4v-42q-16 -4 -31 -4q-71 0 -75 82q-16 -43 -54.5 -65t-87.5 -22
q-64 0 -102 33t-38 91q0 147 221 147q37 0 58 -3v64q0 105 -108 105q-100 0 -108 -93l-47 7q5 68 50 98.5t110 30.5q69 0 111.5 -33.5t42.5 -108.5z" />
    <glyph glyph-name="Icaron" unicode="&#x1cf;" horiz-adv-x="227" 
d="M87 589h53v-589h-53v589zM129 639h-31l-115 126h58l42 -48l29 -38h2q9 15 29 38l42 48h58z" />
    <glyph glyph-name="icaron" unicode="&#x1d0;" horiz-adv-x="205" 
d="M117 533h-29l-115 136h55l44 -55l29 -41h3q9 17 29 41l45 55h54zM77 462h51v-462h-51v462z" />
    <glyph glyph-name="Ocaron" unicode="&#x1d1;" horiz-adv-x="608" 
d="M304 -9q-119 0 -187.5 79.5t-68.5 223.5t68.5 224t187.5 80t187.5 -80t68.5 -224t-68.5 -223.5t-187.5 -79.5zM304 552q-97 0 -149 -68t-52 -190q0 -121 52 -189t149 -68t149.5 68t52.5 189t-52.5 189.5t-149.5 68.5zM320 639h-31l-115 126h58l42 -48l29 -38h2
q9 15 29 38l42 48h58z" />
    <glyph glyph-name="ocaron" unicode="&#x1d2;" 
d="M243 -9q-92 0 -144.5 63t-52.5 179q0 115 52.5 176.5t144.5 61.5q94 0 146 -61t52 -177q0 -117 -52.5 -179.5t-145.5 -62.5zM243 428q-147 0 -147 -195q0 -99 37.5 -150t109.5 -51t110 51t38 150q0 195 -148 195zM258 533h-29l-115 136h54l45 -55l29 -41h3q9 17 29 41
l44 55h55z" />
    <glyph glyph-name="Ucaron" unicode="&#x1d3;" horiz-adv-x="574" 
d="M454 589h52v-388q0 -107 -62.5 -158.5t-156.5 -51.5q-95 0 -157 51.5t-62 158.5v388h53v-377q0 -91 46 -134t120 -43q75 0 121 43t46 132v379zM302 639h-30l-115 126h58l42 -48l29 -38h2q9 15 29 38l42 48h58z" />
    <glyph glyph-name="ucaron" unicode="&#x1d4;" 
d="M367 0l-7 101q-15 -53 -54 -81.5t-96 -28.5q-141 0 -141 152v319h51v-313q0 -119 103 -119q56 0 96 44.5t40 119.5v268h51v-462h-43zM254 533h-29l-115 136h54l45 -55l29 -41h3q9 17 29 41l44 55h55z" />
    <glyph glyph-name="uni01D9" unicode="&#x1d9;" horiz-adv-x="574" 
d="M302 728h-30l-115 125h58l42 -48l29 -38h2q9 16 29 38l42 48h58zM454 589h52v-388q0 -107 -62.5 -158.5t-156.5 -51.5q-95 0 -157 51.5t-62 158.5v388h53v-377q0 -91 46 -134t120 -43q75 0 121 43t46 132v379zM163 667q0 16 11 27t27 11t27 -11t11 -27q0 -15 -11 -26
t-27 -11t-27 11t-11 26zM335 667q0 16 10.5 27t26.5 11t27 -11t11 -27t-11 -27t-27 -11t-26.5 11t-10.5 27z" />
    <glyph glyph-name="uni01DA" unicode="&#x1da;" 
d="M256 608h-31l-115 126h58l43 -48l28 -39h2q10 16 29 39l43 48h58zM117 548q0 16 11 27t26 11q16 0 27 -11t11 -27t-11 -27t-27 -11q-15 0 -26 11t-11 27zM288 547q0 16 11 27t27 11t27 -11t11 -27q0 -15 -11 -26t-27 -11t-27 11t-11 26zM367 0l-7 101q-15 -53 -54 -81.5
t-96 -28.5q-141 0 -141 152v319h51v-313q0 -119 103 -119q56 0 96 44.5t40 119.5v268h51v-462h-43z" />
    <glyph glyph-name="uni004100A800AF" unicode="&#x1de;" horiz-adv-x="535" 
d="M469 0l-70 187h-264l-70 -187h-55l224 589h69l222 -589h-56zM217 408l-66 -176h231l-65 175q-15 40 -27 76.5t-16 53.5l-5 17h-4q-14 -56 -48 -146zM378 755h-222v41h222v-41zM144 671q0 16 11 27t27 11t26.5 -11t10.5 -27t-10.5 -27t-26.5 -11t-27 11t-11 27zM315 670
q0 16 11 27t27 11q17 0 27.5 -11t10.5 -27t-11 -27t-27 -11t-27 11t-11 27z" />
    <glyph glyph-name="adieresismacron" unicode="&#x1df;" horiz-adv-x="453" 
d="M330 638h-222v42h222v-42zM95 553q0 16 11 27t27 11t27 -11t11 -27t-11 -27t-27 -11t-27 11t-11 27zM266 552q0 16 11 27t27 11t27 -11t11 -27t-11 -26.5t-27 -10.5t-27 10.5t-11 26.5zM319 145v76q-24 3 -48 3q-180 0 -180 -104q0 -41 25.5 -64.5t73.5 -23.5
q52 0 90.5 30.5t38.5 82.5zM370 329v-233q0 -58 37 -58q13 0 21 4v-42q-16 -4 -31 -4q-71 0 -75 82q-16 -43 -54.5 -65t-87.5 -22q-64 0 -102 33t-38 91q0 147 221 147q37 0 58 -3v64q0 105 -108 105q-100 0 -108 -93l-47 7q5 68 50 98.5t110 30.5q69 0 111.5 -33.5
t42.5 -108.5z" />
    <glyph glyph-name="AEmacron" unicode="&#x1e2;" horiz-adv-x="800" 
d="M748 0h-335v189h-227l-119 -189h-57l376 589h362v-46h-283v-225h252v-46h-252v-226h283v-46zM416 550l-203 -317h200v167q0 44 1.5 81.5t3.5 52.5l1 16h-3zM656 667h-221v41h221v-41z" />
    <glyph glyph-name="aemacron" unicode="&#x1e3;" horiz-adv-x="726" 
d="M512 32q98 0 122 91l45 -10q-24 -122 -170 -122q-113 0 -164 91q-17 -41 -60.5 -66t-102.5 -25q-66 0 -104 32.5t-38 93.5q0 78 67 114.5t208 38.5q3 34 12 62q-8 96 -111 96q-105 0 -113 -93l-47 7q5 68 50 98.5t110 30.5q110 0 139 -82q51 82 156 82q81 0 125 -51
t44 -133q0 -29 -6 -59h-312q0 -93 40 -144.5t110 -51.5zM187 32q49 0 87 25.5t52 72.5q-11 37 -13 89v9q-113 -1 -167.5 -25.5t-54.5 -83.5q0 -39 25.5 -63t70.5 -24zM364 270h265q1 9 1 27q0 58 -32.5 95t-89.5 37q-64 0 -100.5 -41.5t-43.5 -117.5zM468 564h-222v43h222
v-43z" />
    <glyph glyph-name="Gstroke" unicode="&#x1e4;" horiz-adv-x="609" 
d="M315 316h212v-101h59v-42h-59v-173h-46l-7 101q-15 -51 -62.5 -80.5t-108.5 -29.5q-117 0 -186 79t-69 223q0 145 72 225t192 80q157 0 210 -140l-47 -23q-42 118 -166 118q-98 0 -151.5 -69t-53.5 -191q0 -119 52 -188t149 -69q68 0 114 33.5t54 103.5h-158v42h159v56
h-159v45z" />
    <glyph glyph-name="gstroke" unicode="&#x1e5;" horiz-adv-x="485" 
d="M237 471q88 0 134 -51q38 20 41 82l47 -15q-8 -71 -68 -93q20 -33 20 -84q0 -74 -48.5 -116t-124.5 -42q-39 0 -66 10q-39 -18 -39 -54q0 -48 66 -48h105q71 0 111.5 -30t40.5 -92h44v-28h-46q-8 -44 -46 -72.5t-83 -38.5t-100 -10q-53 0 -94.5 10.5t-71 38.5t-31.5 72
h-41v28h42q7 42 39.5 67t81.5 28q-29 2 -45.5 20.5t-16.5 46.5q0 54 58 72q-81 40 -81 138q0 74 47 117.5t125 43.5zM115 311q0 -55 32.5 -87.5t89.5 -32.5t90.5 31.5t33.5 88.5t-33.5 88.5t-90.5 31.5q-57 -1 -89.5 -32.5t-32.5 -87.5zM205 14q-116 0 -129 -76h330
q-3 76 -103 76h-98zM227 -173q158 0 177 83h-328q8 -83 151 -83z" />
    <glyph glyph-name="Gcaron" unicode="&#x1e6;" horiz-adv-x="594" 
d="M315 288h212v-288h-46l-7 101q-15 -51 -62.5 -80.5t-108.5 -29.5q-117 0 -186 79t-69 223q0 145 72 225t192 80q157 0 210 -140l-47 -23q-42 118 -166 118q-98 0 -152 -69t-54 -191q0 -119 52.5 -188t149.5 -69q72 0 120.5 39t48.5 120v45h-159v48zM326 639h-31l-114 126
h57l43 -48l29 -38h2q9 15 29 38l42 48h58z" />
    <glyph glyph-name="gcaron" unicode="&#x1e7;" horiz-adv-x="460" 
d="M222 471q86 0 134 -51q36 20 41 82l46 -15q-7 -71 -67 -93q20 -35 20 -84q0 -74 -48.5 -116t-124.5 -42q-39 0 -67 10q-39 -18 -39 -54q0 -48 67 -48h105q71 0 111.5 -30t40.5 -93q0 -42 -20.5 -72t-55.5 -46t-73.5 -23t-82.5 -7q-55 0 -96.5 10.5t-71 40.5t-29.5 77
q0 51 34 82t89 34q-30 2 -46.5 20.5t-16.5 46.5q0 54 58 72q-81 40 -81 138q0 74 47 117.5t126 43.5zM61 -79q0 -93 152 -93q79 0 129 24.5t50 79.5q0 82 -104 82h-98q-129 0 -129 -93zM99 311q0 -55 33 -87.5t90 -32.5q56 0 89.5 31.5t33.5 88.5t-33.5 88.5t-89.5 31.5
q-57 -1 -90 -32.5t-33 -87.5zM244 533h-28l-116 136h55l44 -55l29 -41h3q9 17 29 41l45 55h54z" />
    <glyph glyph-name="Kcaron" unicode="&#x1e8;" horiz-adv-x="500" 
d="M485 0h-66l-229 274h-50v-274h-53v589h53v-268h52l215 268h63l-235 -289zM259 639h-31l-114 126h58l42 -48l29 -38h2q9 15 29 38l42 48h58z" />
    <glyph glyph-name="kcaron" unicode="&#x1e9;" horiz-adv-x="429" 
d="M207 246l215 -246h-65l-190 221h-40v-221h-51v668h51v-405h36l177 199h63zM116 702h-30l-115 126h58l42 -48l29 -38h2q9 15 29 38l42 48h58z" />
    <glyph glyph-name="Oogonek" unicode="&#x1ea;" horiz-adv-x="608" 
d="M229 -114q0 61 59 108q-20 2 -32 4q-98 14 -153 90.5t-55 205.5q0 144 68.5 224t187.5 80t187.5 -80t68.5 -224q0 -129 -55.5 -206.5t-152.5 -91.5q-75 -40 -75 -104q0 -56 50 -56q39 0 62 38l22 -25q-30 -50 -91 -50q-42 0 -66.5 23t-24.5 64zM304 552q-97 0 -149 -68
t-52 -190q0 -121 52 -189t149 -68t149.5 68t52.5 189t-52.5 189.5t-149.5 68.5z" />
    <glyph glyph-name="oogonek" unicode="&#x1eb;" 
d="M161 -114q0 64 59 110q-14 2 -23 4q-72 13 -111.5 72.5t-39.5 160.5q0 115 52.5 176.5t144.5 61.5q94 0 146 -61t52 -177q0 -104 -42.5 -165.5t-118.5 -72.5q-72 -40 -72 -103q0 -56 50 -56q38 0 63 38l21 -25q-28 -50 -90 -50q-43 0 -67 23t-24 64zM243 428
q-147 0 -147 -195q0 -99 37.5 -150t109.5 -51t110 51t38 150q0 195 -148 195z" />
    <glyph glyph-name="uni004F02DB00AF" unicode="&#x1ec;" horiz-adv-x="608" 
d="M216 -114q0 63 59 107l-24 6q-96 16 -149.5 92t-53.5 203q0 144 68.5 224t187.5 80t187.5 -80t68.5 -224q0 -135 -60 -213.5t-166 -87.5q-70 -39 -70 -101q0 -56 49 -56q40 0 63 38l21 -25q-28 -50 -90 -50q-43 0 -67 23t-24 64zM304 552q-97 0 -149 -68t-52 -190
q0 -121 52 -189t149 -68t149.5 68t52.5 189t-52.5 189.5t-149.5 68.5zM415 667h-221v41h221v-41z" />
    <glyph glyph-name="oogonekmacron" unicode="&#x1ed;" 
d="M152 -114q0 64 60 109l-14 4q-72 13 -112 73t-40 161q0 115 52.5 176.5t144.5 61.5q94 0 146 -61t52 -177q0 -107 -45 -169.5t-126 -70.5q-71 -39 -71 -101q0 -56 50 -56q38 0 63 38l21 -25q-28 -50 -90 -50q-43 0 -67 23t-24 64zM243 428q-147 0 -147 -195
q0 -99 37.5 -150t109.5 -51t110 51t38 150q0 195 -148 195zM355 564h-222v43h222v-43z" />
    <glyph glyph-name="Ezhcaron" unicode="&#x1ee;" horiz-adv-x="455" 
d="M135 269l158 201l59 72v3q-22 -2 -85 -2h-237v46h388v-36l-229 -287v-4q107 0 175.5 -57t68.5 -163q0 -104 -63.5 -163.5t-160.5 -59.5q-94 0 -151.5 47.5t-65.5 136.5l44 12q9 -77 55 -115.5t118 -38.5q79 0 126.5 48.5t47.5 132.5q0 96 -68.5 142t-179.5 45v40z
M243 639h-31l-115 126h58l42 -48l29 -38h2q9 15 29 38l42 48h58z" />
    <glyph glyph-name="ezhcaron" unicode="&#x1ef;" horiz-adv-x="379" 
d="M115 202l117 146l57 69v3q-29 -2 -92 -2h-165v44h317v-35l-186 -233v-3q82 0 135.5 -47t53.5 -125q0 -82 -52 -127.5t-134 -45.5q-69 0 -115.5 39t-56.5 101l46 10q10 -51 44 -80t85 -29q60 0 97.5 34.5t37.5 94.5q0 65 -49 104.5t-140 44.5v37zM205 533h-29l-115 136h55
l44 -55l29 -41h3q9 17 29 41l45 55h54z" />
    <glyph glyph-name="jcaron" unicode="&#x1f0;" horiz-adv-x="205" 
d="M118 533h-29l-115 136h55l44 -55l29 -41h3q9 17 29 41l45 55h54zM77 462h51v-502q0 -88 -42.5 -126.5t-127.5 -36.5v43q60 -3 89.5 24.5t29.5 90.5v507z" />
    <glyph glyph-name="jcaron" unicode="&#xe10c;" horiz-adv-x="205" 
d="M118 533h-29l-115 136h55l44 -55l29 -41h3q9 17 29 41l45 55h54zM77 462h51v-502q0 -88 -42.5 -126.5t-127.5 -36.5v43q60 -3 89.5 24.5t29.5 90.5v507z" />
    <glyph glyph-name="Gacute" unicode="&#x1f4;" horiz-adv-x="594" 
d="M315 288h212v-288h-46l-7 101q-15 -51 -62.5 -80.5t-108.5 -29.5q-117 0 -186 79t-69 223q0 145 72 225t192 80q157 0 210 -140l-47 -23q-42 118 -166 118q-98 0 -152 -69t-54 -191q0 -119 52.5 -188t149.5 -69q72 0 120.5 39t48.5 120v45h-159v48zM335 642h-45l64 121
h70z" />
    <glyph glyph-name="gacute" unicode="&#x1f5;" horiz-adv-x="460" 
d="M222 471q86 0 134 -51q36 20 41 82l46 -15q-7 -71 -67 -93q20 -35 20 -84q0 -74 -48.5 -116t-124.5 -42q-39 0 -67 10q-39 -18 -39 -54q0 -48 67 -48h105q71 0 111.5 -30t40.5 -93q0 -42 -20.5 -72t-55.5 -46t-73.5 -23t-82.5 -7q-55 0 -96.5 10.5t-71 40.5t-29.5 77
q0 51 34 82t89 34q-30 2 -46.5 20.5t-16.5 46.5q0 54 58 72q-81 40 -81 138q0 74 47 117.5t126 43.5zM61 -79q0 -93 152 -93q79 0 129 24.5t50 79.5q0 82 -104 82h-98q-129 0 -129 -93zM99 311q0 -55 33 -87.5t90 -32.5q56 0 89.5 31.5t33.5 88.5t-33.5 88.5t-89.5 31.5
q-57 -1 -90 -32.5t-33 -87.5zM247 533h-43l71 136h71z" />
    <glyph glyph-name="Ngrave" unicode="&#x1f8;" horiz-adv-x="629" 
d="M339 642h-45l-88 121h69zM144 589l280 -410q17 -24 33.5 -51.5t24.5 -42.5l8 -15h3q-3 58 -3 124v395h52v-589h-56l-281 410q-16 24 -32.5 51t-24.5 43l-9 15h-4q4 -58 4 -124v-395h-52v589h57z" />
    <glyph glyph-name="ngrave" unicode="&#x1f9;" horiz-adv-x="492" 
d="M116 462l7 -106q16 53 56.5 84t98.5 31q64 0 102.5 -36t38.5 -110v-325h-51v312q0 55 -26.5 84.5t-75.5 29.5q-59 0 -98.5 -42t-39.5 -122v-262h-51v462h39zM277 533h-42l-99 136h71z" />
    <glyph glyph-name="uni004102DA00B4" unicode="&#x1fa;" horiz-adv-x="535" 
d="M469 0l-70 187h-264l-70 -187h-55l224 589h69l222 -589h-56zM217 408l-66 -176h231l-65 175q-15 40 -27 76.5t-16 53.5l-5 17h-4q-14 -56 -48 -146zM267 613q-42 0 -65.5 24.5t-23.5 62.5q0 35 24.5 59.5t64.5 24.5t64.5 -24.5t24.5 -59.5q0 -38 -23.5 -62.5t-65.5 -24.5
zM267 757q-26 0 -41.5 -16.5t-15.5 -42.5q0 -25 15 -40t42 -15t42 15t15 40q0 26 -15.5 42.5t-41.5 16.5zM286 806h-45l64 121h70z" />
    <glyph glyph-name="aringacute" unicode="&#x1fb;" horiz-adv-x="453" 
d="M216 508q-41 0 -65 24.5t-24 61.5q0 36 24.5 60.5t64.5 24.5q41 0 65.5 -24.5t24.5 -60.5q0 -37 -24 -61.5t-66 -24.5zM216 651q-26 0 -41.5 -16.5t-15.5 -41.5t15 -40.5t42 -15.5t42 15.5t15 40.5t-15.5 41.5t-41.5 16.5zM240 714h-45l64 121h70zM319 145v76
q-24 3 -48 3q-180 0 -180 -104q0 -41 25.5 -64.5t73.5 -23.5q52 0 90.5 30.5t38.5 82.5zM370 329v-233q0 -58 37 -58q13 0 21 4v-42q-16 -4 -31 -4q-71 0 -75 82q-16 -43 -54.5 -65t-87.5 -22q-64 0 -102 33t-38 91q0 147 221 147q37 0 58 -3v64q0 105 -108 105
q-100 0 -108 -93l-47 7q5 68 50 98.5t110 30.5q69 0 111.5 -33.5t42.5 -108.5z" />
    <glyph glyph-name="AEacute" unicode="&#x1fc;" horiz-adv-x="800" 
d="M748 0h-335v189h-227l-119 -189h-57l376 589h362v-46h-283v-225h252v-46h-252v-226h283v-46zM416 550l-203 -317h200v167q0 44 1.5 81.5t3.5 52.5l1 16h-3zM565 642h-45l64 121h70z" />
    <glyph glyph-name="aeacute" unicode="&#x1fd;" horiz-adv-x="726" 
d="M512 32q98 0 122 91l45 -10q-24 -122 -170 -122q-113 0 -164 91q-17 -41 -60.5 -66t-102.5 -25q-66 0 -104 32.5t-38 93.5q0 78 67 114.5t208 38.5q3 34 12 62q-8 96 -111 96q-105 0 -113 -93l-47 7q5 68 50 98.5t110 30.5q110 0 139 -82q51 82 156 82q81 0 125 -51
t44 -133q0 -29 -6 -59h-312q0 -93 40 -144.5t110 -51.5zM187 32q49 0 87 25.5t52 72.5q-11 37 -13 89v9q-113 -1 -167.5 -25.5t-54.5 -83.5q0 -39 25.5 -63t70.5 -24zM364 270h265q1 9 1 27q0 58 -32.5 95t-89.5 37q-64 0 -100.5 -41.5t-43.5 -117.5zM374 533h-43l71 136h71
z" />
    <glyph glyph-name="Oslashacute" unicode="&#x1fe;" horiz-adv-x="608" 
d="M67 -10l-30 27l65 74q-54 77 -54 203q0 144 68.5 224t187.5 80q109 0 177 -68l58 66l31 -28l-62 -73q52 -76 52 -201q0 -144 -68.5 -223.5t-187.5 -79.5q-111 0 -177 68zM304 552q-97 0 -148.5 -68t-51.5 -190q0 -97 35 -161l308 357q-53 62 -143 62zM504 294
q0 97 -35 159l-307 -356q51 -60 142 -60q97 0 148.5 67.5t51.5 189.5zM324 642h-45l64 121h70z" />
    <glyph glyph-name="oslashacute" unicode="&#x1ff;" 
d="M66 -10l-32 26l50 58q-38 59 -38 159q0 115 52.5 176.5t144.5 61.5q87 0 138 -54l45 53l32 -26l-52 -60q35 -58 35 -151q0 -117 -52.5 -179.5t-145.5 -62.5q-82 0 -133 49zM243 428q-147 0 -147 -195q0 -73 23 -121l231 271q-39 45 -107 45zM391 233q0 66 -21 111
l-230 -269q38 -43 103 -43q72 0 110 51t38 150zM266 533h-43l71 136h71z" />
    <glyph glyph-name="Adoublegrave" unicode="&#x200;" horiz-adv-x="535" 
d="M469 0l-70 187h-264l-70 -187h-55l224 589h69l222 -589h-56zM217 408l-66 -176h231l-65 175q-15 40 -27 76.5t-16 53.5l-5 17h-4q-14 -56 -48 -146zM355 642h-38l-94 121h67zM233 642h-39l-99 121h67z" />
    <glyph glyph-name="edoublegrave" unicode="&#x201;" horiz-adv-x="458" 
d="M245 32q98 0 122 91l45 -10q-24 -122 -171 -122q-91 0 -143 61.5t-52 177.5q0 114 53 177.5t145 63.5q81 0 125 -51t44 -133q0 -29 -6 -59h-312q0 -93 39.5 -144.5t110.5 -51.5zM97 270h265q1 9 1 27q0 58 -32.5 95t-89.5 37q-64 0 -100.5 -41.5t-43.5 -117.5zM331 533
h-39l-93 136h67zM209 533h-40l-99 136h68z" />
    <glyph glyph-name="edoublegrave" unicode="&#x205;" horiz-adv-x="458" 
d="M245 32q98 0 122 91l45 -10q-24 -122 -171 -122q-91 0 -143 61.5t-52 177.5q0 114 53 177.5t145 63.5q81 0 125 -51t44 -133q0 -29 -6 -59h-312q0 -93 39.5 -144.5t110.5 -51.5zM97 270h265q1 9 1 27q0 58 -32.5 95t-89.5 37q-64 0 -100.5 -41.5t-43.5 -117.5zM331 533
h-39l-93 136h67zM209 533h-40l-99 136h68z" />
    <glyph glyph-name="Ainvertedbreve" unicode="&#x202;" horiz-adv-x="535" 
d="M469 0l-70 187h-264l-70 -187h-55l224 589h69l222 -589h-56zM217 408l-66 -176h231l-65 175q-15 40 -27 76.5t-16 53.5l-5 17h-4q-14 -56 -48 -146zM266 764q58 0 89.5 -32t31.5 -91h-42q-5 83 -79 83q-72 0 -77 -83h-42q0 58 31.5 90.5t87.5 32.5z" />
    <glyph glyph-name="ainvertedbreve" unicode="&#x203;" horiz-adv-x="453" 
d="M218 661q57 0 88.5 -34t31.5 -95h-42q-2 45 -20.5 67t-57.5 22t-58 -22t-21 -67h-42q0 62 31.5 95.5t89.5 33.5zM319 145v76q-24 3 -48 3q-180 0 -180 -104q0 -41 25.5 -64.5t73.5 -23.5q52 0 90.5 30.5t38.5 82.5zM370 329v-233q0 -58 37 -58q13 0 21 4v-42
q-16 -4 -31 -4q-71 0 -75 82q-16 -43 -54.5 -65t-87.5 -22q-64 0 -102 33t-38 91q0 147 221 147q37 0 58 -3v64q0 105 -108 105q-100 0 -108 -93l-47 7q5 68 50 98.5t110 30.5q69 0 111.5 -33.5t42.5 -108.5z" />
    <glyph glyph-name="Edoublegrave" unicode="&#x204;" horiz-adv-x="474" 
d="M422 46v-46h-335v589h335v-46h-282v-225h251v-46h-251v-226h282zM342 642h-39l-93 121h66zM220 642h-40l-99 121h68z" />
    <glyph glyph-name="Einvertedbreve" unicode="&#x206;" horiz-adv-x="474" 
d="M422 46v-46h-335v589h335v-46h-282v-225h251v-46h-251v-226h282zM255 765q57 0 88.5 -32.5t31.5 -90.5h-42q-5 83 -78 83t-78 -83h-42q0 58 31.5 90.5t88.5 32.5z" />
    <glyph glyph-name="einvertedbreve" unicode="&#x207;" horiz-adv-x="458" 
d="M245 32q98 0 122 91l45 -10q-24 -122 -171 -122q-91 0 -143 61.5t-52 177.5q0 114 53 177.5t145 63.5q81 0 125 -51t44 -133q0 -29 -6 -59h-312q0 -93 39.5 -144.5t110.5 -51.5zM97 270h265q1 9 1 27q0 58 -32.5 95t-89.5 37q-64 0 -100.5 -41.5t-43.5 -117.5zM243 661
q57 0 88.5 -34t31.5 -95h-42q-2 45 -20.5 67t-57.5 22t-58 -22t-21 -67h-42q0 61 32 95t89 34z" />
    <glyph glyph-name="Idoublegrave" unicode="&#x208;" horiz-adv-x="227" 
d="M87 589h53v-589h-53v589zM201 642h-39l-93 121h67zM79 642h-40l-99 121h68z" />
    <glyph glyph-name="idoublegrave" unicode="&#x209;" horiz-adv-x="205" 
d="M77 462h51v-462h-51v462zM189 533h-38l-94 136h67zM67 533h-39l-99 136h67z" />
    <glyph glyph-name="Iinvertedbreve" unicode="&#x20a;" horiz-adv-x="227" 
d="M87 589h53v-589h-53v589zM113 765q57 0 88.5 -32.5t31.5 -90.5h-41q-5 83 -79 83q-73 0 -78 -83h-41q0 58 31.5 90.5t87.5 32.5z" />
    <glyph glyph-name="iinvertedbreve" unicode="&#x20b;" horiz-adv-x="205" 
d="M77 462h51v-462h-51v462zM103 661q57 0 88.5 -34t31.5 -95h-42q-2 45 -20.5 67t-57.5 22t-58 -22t-21 -67h-42q0 61 32 95t89 34z" />
    <glyph glyph-name="Odoublegrave" unicode="&#x20c;" horiz-adv-x="608" 
d="M304 -9q-119 0 -187.5 79.5t-68.5 223.5t68.5 224t187.5 80t187.5 -80t68.5 -224t-68.5 -223.5t-187.5 -79.5zM304 552q-97 0 -149 -68t-52 -190q0 -121 52 -189t149 -68t149.5 68t52.5 189t-52.5 189.5t-149.5 68.5zM392 642h-39l-93 121h67zM270 642h-40l-99 121h68z
" />
    <glyph glyph-name="odoublegrave" unicode="&#x20d;" 
d="M243 -9q-92 0 -144.5 63t-52.5 179q0 115 52.5 176.5t144.5 61.5q94 0 146 -61t52 -177q0 -117 -52.5 -179.5t-145.5 -62.5zM243 428q-147 0 -147 -195q0 -99 37.5 -150t109.5 -51t110 51t38 150q0 195 -148 195zM330 533h-39l-93 136h67zM208 533h-40l-99 136h68z" />
    <glyph glyph-name="Oinvertedbreve" unicode="&#x20e;" horiz-adv-x="608" 
d="M304 -9q-119 0 -187.5 79.5t-68.5 223.5t68.5 224t187.5 80t187.5 -80t68.5 -224t-68.5 -223.5t-187.5 -79.5zM304 552q-97 0 -149 -68t-52 -190q0 -121 52 -189t149 -68t149.5 68t52.5 189t-52.5 189.5t-149.5 68.5zM304 765q57 0 88.5 -32.5t31.5 -90.5h-41
q-5 83 -79 83q-73 0 -78 -83h-41q0 58 31.5 90.5t87.5 32.5z" />
    <glyph glyph-name="oinvertedbreve" unicode="&#x20f;" 
d="M243 -9q-92 0 -144.5 63t-52.5 179q0 115 52.5 176.5t144.5 61.5q94 0 146 -61t52 -177q0 -117 -52.5 -179.5t-145.5 -62.5zM243 428q-147 0 -147 -195q0 -99 37.5 -150t109.5 -51t110 51t38 150q0 195 -148 195zM243 661q58 0 89.5 -33.5t31.5 -95.5h-42q-2 45 -21 67
t-58 22t-57.5 -22t-20.5 -67h-42q0 61 31.5 95t88.5 34z" />
    <glyph glyph-name="Rinvertedbreve" unicode="&#x212;" horiz-adv-x="530" 
d="M494 0h-58q-19 22 -28 59l-24 105q-12 52 -43.5 73.5t-89.5 21.5h-111v-259h-53v589h182q193 0 193 -162q0 -67 -39.5 -105.5t-97.5 -41.5v-2q44 -5 69.5 -27.5t38.5 -71.5l28 -114q10 -39 33 -65zM140 544v-240h128q139 0 139 120t-139 120h-128zM250 765
q57 0 88.5 -32.5t31.5 -90.5h-41q-5 83 -79 83q-73 0 -78 -83h-42q0 58 32 90.5t88 32.5z" />
    <glyph glyph-name="rinvertedbreve" unicode="&#x213;" horiz-adv-x="329" 
d="M193 661q57 0 88.5 -34t31.5 -95h-41q-2 45 -21 67t-58 22t-57.5 -22t-20.5 -67h-42q0 61 31.5 95t88.5 34zM309 465l-5 -56q-15 7 -43 7q-58 0 -95.5 -50t-37.5 -126v-240h-51v462h42l7 -131q11 64 50.5 101.5t101.5 37.5q18 0 31 -5z" />
    <glyph glyph-name="Udoublegrave" unicode="&#x214;" horiz-adv-x="574" 
d="M454 589h52v-388q0 -107 -62.5 -158.5t-156.5 -51.5q-95 0 -157 51.5t-62 158.5v388h53v-377q0 -91 46 -134t120 -43q75 0 121 43t46 132v379zM375 642h-39l-93 121h66zM253 642h-40l-99 121h68z" />
    <glyph glyph-name="udoublegrave" unicode="&#x215;" 
d="M367 0l-7 101q-15 -53 -54 -81.5t-96 -28.5q-141 0 -141 152v319h51v-313q0 -119 103 -119q56 0 96 44.5t40 119.5v268h51v-462h-43zM326 533h-39l-93 136h67zM204 533h-40l-99 136h68z" />
    <glyph glyph-name="Uinvertedbreve" unicode="&#x216;" horiz-adv-x="574" 
d="M454 589h52v-388q0 -107 -62.5 -158.5t-156.5 -51.5q-95 0 -157 51.5t-62 158.5v388h53v-377q0 -91 46 -134t120 -43q75 0 121 43t46 132v379zM287 765q57 0 88.5 -32.5t31.5 -90.5h-42q-5 83 -78 83t-78 -83h-42q0 58 31.5 90.5t88.5 32.5z" />
    <glyph glyph-name="uinvertedbreve" unicode="&#x217;" 
d="M367 0l-7 101q-15 -53 -54 -81.5t-96 -28.5q-141 0 -141 152v319h51v-313q0 -119 103 -119q56 0 96 44.5t40 119.5v268h51v-462h-43zM239 661q58 0 89.5 -33.5t31.5 -95.5h-42q-2 45 -21 67t-58 22t-57.5 -22t-20.5 -67h-42q0 61 31.5 95t88.5 34z" />
    <glyph glyph-name="Scommaaccent" unicode="&#x218;" horiz-adv-x="465" 
d="M31 148l50 10q21 -125 147 -125q64 0 100.5 28.5t36.5 82.5q0 51 -31.5 79.5t-111.5 54.5q-41 13 -65 23t-52 29t-41 47t-13 66q0 80 50.5 118t124.5 38q171 0 188 -155l-51 -8q-16 120 -136 120q-56 0 -90 -27.5t-34 -81.5q0 -51 33.5 -75t116.5 -51q82 -27 123.5 -63
t41.5 -108q0 -78 -52.5 -118.5t-138.5 -40.5q-172 0 -196 157zM287 -145q0 -87 -96 -87v26q29 1 43 11.5t14 35.5q0 6 -1 8q-8 -4 -14 -4q-15 0 -23.5 9t-8.5 24q0 17 10.5 26.5t28.5 9.5q19 0 33 -16t14 -43z" />
    <glyph glyph-name="scommaaccent" unicode="&#x219;" horiz-adv-x="399" 
d="M252 -145q0 -87 -95 -87v26q28 1 42 11.5t15 35.5q0 4 -2 8q-6 -4 -13 -4q-15 0 -23.5 9t-8.5 24q0 16 10.5 26t27.5 10q19 0 33 -16t14 -43zM29 107l48 14q15 -90 121 -90q115 0 115 82q0 38 -22 59.5t-70 32.5l-60 15q-58 14 -86.5 42.5t-28.5 80.5q0 66 44 97t110 31
q140 0 157 -122l-49 -6q-12 88 -108 88q-49 0 -77.5 -21.5t-28.5 -61.5q0 -36 19 -54.5t64 -29.5l59 -15q63 -17 94 -45.5t31 -85.5q0 -64 -44 -95.5t-119 -31.5q-143 0 -169 116z" />
    <glyph glyph-name="Hcaron" unicode="&#x21e;" horiz-adv-x="620" 
d="M140 0h-53v589h53v-268h340v268h52v-589h-52v274h-340v-274zM325 639h-31l-114 126h58l42 -48l29 -38h2q9 15 29 38l42 48h58z" />
    <glyph glyph-name="hcaron" unicode="&#x21f;" horiz-adv-x="490" 
d="M127 668v-311q15 52 53.5 83t95.5 31q64 0 103 -36t39 -110v-325h-51v312q0 55 -26.5 84.5t-75.5 29.5q-60 0 -99 -42t-39 -122v-262h-51v668h51zM118 705h-31l-115 125h58l42 -47l29 -39h2q9 16 29 39l42 47h58z" />
    <glyph glyph-name="Adotabove" unicode="&#x226;" horiz-adv-x="535" 
d="M469 0l-70 187h-264l-70 -187h-55l224 589h69l222 -589h-56zM217 408l-66 -176h231l-65 175q-15 40 -27 76.5t-16 53.5l-5 17h-4q-14 -56 -48 -146zM229 689q0 16 11 27.5t26 11.5q17 0 28 -11t11 -28q0 -16 -11 -27t-28 -11q-15 0 -26 11t-11 27z" />
    <glyph glyph-name="adotabove" unicode="&#x227;" horiz-adv-x="453" 
d="M178 596q0 16 10.5 27t26.5 11t27.5 -11t11.5 -27t-11.5 -27t-27.5 -11t-26.5 11t-10.5 27zM319 145v76q-24 3 -48 3q-180 0 -180 -104q0 -41 25.5 -64.5t73.5 -23.5q52 0 90.5 30.5t38.5 82.5zM370 329v-233q0 -58 37 -58q13 0 21 4v-42q-16 -4 -31 -4q-71 0 -75 82
q-16 -43 -54.5 -65t-87.5 -22q-64 0 -102 33t-38 91q0 147 221 147q37 0 58 -3v64q0 105 -108 105q-100 0 -108 -93l-47 7q5 68 50 98.5t110 30.5q69 0 111.5 -33.5t42.5 -108.5z" />
    <glyph glyph-name="Otildemacron" unicode="&#x22c;" horiz-adv-x="608" 
d="M304 -9q-119 0 -187.5 79.5t-68.5 223.5t68.5 224t187.5 80t187.5 -80t68.5 -224t-68.5 -223.5t-187.5 -79.5zM304 552q-97 0 -149 -68t-52 -190q0 -121 52 -189t149 -68t149.5 68t52.5 189t-52.5 189.5t-149.5 68.5zM372 618q-28 0 -72 29q-2 1 -8.5 6t-8.5 6t-7.5 4.5
t-8 4.5t-7 3t-7.5 3t-7 1.5t-8 0.5q-44 0 -33 -59h-33q-16 44 2.5 75t58.5 31q32 0 79 -32q37 -28 57 -28q43 0 33 61h35q15 -46 -3.5 -76t-61.5 -30zM417 762h-222v41h222v-41z" />
    <glyph glyph-name="otildemacron" unicode="&#x22d;" 
d="M243 -9q-92 0 -144.5 63t-52.5 179q0 115 52.5 176.5t144.5 61.5q94 0 146 -61t52 -177q0 -117 -52.5 -179.5t-145.5 -62.5zM243 428q-147 0 -147 -195q0 -99 37.5 -150t109.5 -51t110 51t38 150q0 195 -148 195zM311 510q-29 0 -72 30q-3 2 -8 5.5t-7.5 5t-7 4.5t-6.5 4
l-6 3t-6.5 3t-6 2t-7 1.5t-6.5 0.5q-45 0 -34 -59h-33q-16 43 2.5 73.5t59.5 30.5q31 0 78 -32q37 -28 57 -28q43 0 33 61h35q15 -46 -3.5 -75.5t-61.5 -29.5zM355 664h-222v42h222v-42z" />
    <glyph glyph-name="Odotabove" unicode="&#x22e;" horiz-adv-x="608" 
d="M304 -9q-119 0 -187.5 79.5t-68.5 223.5t68.5 224t187.5 80t187.5 -80t68.5 -224t-68.5 -223.5t-187.5 -79.5zM304 552q-97 0 -149 -68t-52 -190q0 -121 52 -189t149 -68t149.5 68t52.5 189t-52.5 189.5t-149.5 68.5zM266 689q0 16 11 27.5t27 11.5t27 -11t11 -28
q0 -16 -11 -27t-27 -11t-27 11t-11 27z" />
    <glyph glyph-name="odotabove" unicode="&#x22f;" 
d="M243 -9q-92 0 -144.5 63t-52.5 179q0 115 52.5 176.5t144.5 61.5q94 0 146 -61t52 -177q0 -117 -52.5 -179.5t-145.5 -62.5zM243 428q-147 0 -147 -195q0 -99 37.5 -150t109.5 -51t110 51t38 150q0 195 -148 195zM206 595q0 16 10.5 27t26.5 11t27 -11t11 -27t-11 -27
t-27 -11t-26.5 11t-10.5 27z" />
    <glyph glyph-name="odotabovemacron" unicode="&#x231;" 
d="M243 -9q-92 0 -144.5 63t-52.5 179q0 115 52.5 176.5t144.5 61.5q94 0 146 -61t52 -177q0 -117 -52.5 -179.5t-145.5 -62.5zM243 428q-147 0 -147 -195q0 -99 37.5 -150t109.5 -51t110 51t38 150q0 195 -148 195zM206 559q0 16 10.5 27t26.5 11t27 -11t11 -27t-11 -27
t-27 -11t-26.5 11t-10.5 27zM355 650h-222v42h222v-42z" />
    <glyph glyph-name="odotabovemacron" unicode="&#xe11e;" 
d="M243 -9q-92 0 -144.5 63t-52.5 179q0 115 52.5 176.5t144.5 61.5q94 0 146 -61t52 -177q0 -117 -52.5 -179.5t-145.5 -62.5zM243 428q-147 0 -147 -195q0 -99 37.5 -150t109.5 -51t110 51t38 150q0 195 -148 195zM206 559q0 16 10.5 27t26.5 11t27 -11t11 -27t-11 -27
t-27 -11t-26.5 11t-10.5 27zM355 650h-222v42h222v-42z" />
    <glyph glyph-name="Ymacron" unicode="&#x232;" horiz-adv-x="469" 
d="M74 589l118 -216l46 -93h3q9 27 44 93l114 216h55l-190 -353v-236h-52v236l-198 353h60zM345 667h-221v41h221v-41z" />
    <glyph glyph-name="ymacron" unicode="&#x233;" horiz-adv-x="417" 
d="M67 462l111 -318q10 -30 18 -57.5t10 -40.5l3 -12h3q9 41 31 108l109 320h53l-171 -486q-35 -99 -74 -141.5t-97 -42.5q-35 0 -65 14l6 44q28 -16 60 -16q41 0 67.5 32.5t54.5 114.5l-174 481h55zM322 564h-222v43h222v-43z" />
    <glyph glyph-name="dotlessj" unicode="&#x237;" horiz-adv-x="205" 
d="M77 462h51v-502q0 -88 -42.5 -126.5t-127.5 -36.5v43q60 -3 89.5 24.5t29.5 90.5v507z" />
    <glyph glyph-name="schwa" unicode="&#x259;" horiz-adv-x="458" 
d="M214 429q-98 0 -123 -94l-45 10q12 64 57 95t114 31q91 0 143.5 -62t52.5 -178q0 -114 -52.5 -177t-144.5 -63q-82 0 -125.5 50.5t-45.5 135.5q0 25 5 55h312q1 93 -38.5 145t-109.5 52zM361 192h-264q-1 -9 -1 -27q0 -58 32.5 -95t90.5 -37q63 0 99 41.5t43 117.5z" />
    <glyph glyph-name="ezh" unicode="&#x292;" horiz-adv-x="379" 
d="M115 202l117 146l57 69v3q-29 -2 -92 -2h-165v44h317v-35l-186 -233v-3q82 0 135.5 -47t53.5 -125q0 -82 -52 -127.5t-134 -45.5q-69 0 -115.5 39t-56.5 101l46 10q10 -51 44 -80t85 -29q60 0 97.5 34.5t37.5 94.5q0 65 -49 104.5t-140 44.5v37z" />
    <glyph glyph-name="circumflex" unicode="&#x2c6;" horiz-adv-x="428" 
d="M200 669h28l116 -136h-55l-44 53l-29 41h-4q-9 -17 -28 -41l-45 -53h-55z" />
    <glyph glyph-name="caron" unicode="&#x2c7;" horiz-adv-x="428" 
d="M228 533h-28l-116 136h55l45 -55l28 -41h4q9 17 29 41l44 55h55z" />
    <glyph glyph-name="breve" unicode="&#x2d8;" horiz-adv-x="409" 
d="M205 529q-57 0 -89 34t-32 95h42q5 -89 79 -89q39 0 57.5 22.5t20.5 66.5h42q0 -61 -31.5 -95t-88.5 -34z" />
    <glyph glyph-name="dotaccent" unicode="&#x2d9;" horiz-adv-x="245" 
d="M84 604q0 16 11 27.5t27 11.5t27 -11t11 -28q0 -16 -11 -26.5t-27 -10.5t-27 10.5t-11 26.5z" />
    <glyph glyph-name="ring" unicode="&#x2da;" horiz-adv-x="347" 
d="M174 527q-42 0 -66 24.5t-24 61.5q0 35 25 59.5t65 24.5t64.5 -24t24.5 -60q0 -37 -24 -61.5t-65 -24.5zM174 670q-26 0 -41.5 -16.5t-15.5 -41.5t15 -40.5t42 -15.5t42 15.5t15 40.5t-15.5 41.5t-41.5 16.5z" />
    <glyph glyph-name="ogonek" unicode="&#x2db;" horiz-adv-x="346" 
d="M73 -114q0 53 39 87.5t92 52.5l20 -26q-43 -12 -73 -39.5t-30 -68.5q0 -56 50 -56q39 0 62 38l22 -25q-30 -50 -91 -50q-42 0 -66.5 23t-24.5 64z" />
    <glyph glyph-name="tilde" unicode="&#x2dc;" horiz-adv-x="454" 
d="M295 539q-28 0 -72 29q-3 2 -8 5.5t-7.5 5t-7 4.5t-6.5 4l-6 3t-6.5 3t-6 2t-7 1.5t-6.5 0.5q-45 0 -34 -59h-33q-16 44 2.5 74t59.5 30q31 0 78 -32q38 -27 57 -27q43 0 33 61h35q15 -46 -3 -75.5t-62 -29.5z" />
    <glyph glyph-name="hungarumlaut" unicode="&#x2dd;" horiz-adv-x="430" 
d="M123 533h-39l66 136h67zM246 533h-39l71 136h67z" />
    <glyph glyph-name="uni0312" unicode="&#x312;" horiz-adv-x="264" 
d="M84 713q0 87 96 87v-26q-56 -2 -57 -47q0 -7 1 -9q7 5 14 5q15 0 23.5 -9.5t8.5 -23.5q0 -17 -10.5 -26.5t-28.5 -9.5q-19 0 -33 16t-14 43z" />
    <glyph glyph-name="uni0320" unicode="&#x320;" horiz-adv-x="409" 
d="M324 -168h-240v41h240v-41z" />
    <glyph glyph-name="uni0323" unicode="&#x323;" horiz-adv-x="245" 
d="M84 -125q0 16 11 27t27 11t27 -11t11 -27t-11 -27t-27 -11t-27 11t-11 27z" />
    <glyph glyph-name="uni0329" unicode="&#x329;" horiz-adv-x="213" 
d="M84 -192v135h45v-131z" />
    <glyph glyph-name="pi" unicode="&#x3c0;" horiz-adv-x="621" 
d="M171 481h395v-43h-124v-328q0 -78 51 -78q40 0 66 53l32 -24q-19 -36 -42.5 -53t-63.5 -17q-95 0 -95 110v337h-156l-46 -438h-51l48 438h-19q-52 0 -79.5 -30.5t-27.5 -88.5h-45q0 79 41 120.5t116 41.5z" />
    <glyph glyph-name="uni0E3F" unicode="&#xe3f;" horiz-adv-x="491" 
d="M226 -106v106h-140v481h140v93h36v-93q76 -1 116 -32.5t40 -89.5q0 -94 -89 -109v-3q48 -2 80 -34t32 -80q0 -133 -179 -133v-106h-36zM262 225v-182q67 1 97.5 22t30.5 71q0 88 -128 89zM262 438v-170q107 0 107 85q0 82 -107 85zM137 225v-182h89v182h-89zM137 268h89
v170h-89v-170z" />
    <glyph glyph-name="Ddotbelow" unicode="&#x1e0c;" horiz-adv-x="581" 
d="M140 45h104q110 0 172 64.5t62 189.5t-60 185t-169 60h-109v-499zM249 0h-162v589h163q132 0 207.5 -69.5t75.5 -218.5q0 -154 -79.5 -227.5t-204.5 -73.5zM222 -139q0 17 10.5 28t26.5 11q17 0 28 -11t11 -28q0 -16 -11.5 -27t-27.5 -11t-26.5 11t-10.5 27z" />
    <glyph glyph-name="ddotbelow" unicode="&#x1e0d;" horiz-adv-x="513" 
d="M386 188v94q0 72 -41.5 109.5t-96.5 37.5q-69 0 -110 -50t-41 -154q0 -94 39.5 -143t106.5 -49q57 0 99.5 40t43.5 115zM385 379v289h52v-668h-44l-7 97q-17 -52 -58 -79t-98 -27q-80 0 -132 60.5t-52 172.5q0 119 53 183t148 64q52 0 89.5 -26.5t48.5 -65.5zM207 -139
q0 17 10.5 28t26.5 11t27.5 -11t11.5 -28q0 -16 -11.5 -27t-27.5 -11t-26.5 11t-10.5 27z" />
    <glyph glyph-name="Dcedilla" unicode="&#x1e10;" horiz-adv-x="581" 
d="M350 -126q0 -39 -25.5 -59t-66.5 -20q-58 0 -88 40l18 33q28 -39 70 -39q48 0 48 45q0 49 -80 52l9 74h-148v589h163q132 0 207.5 -69.5t75.5 -218.5t-74 -222.5t-193 -78.5l-7 -46q43 -4 67 -24.5t24 -55.5zM140 45h104q110 0 172 64.5t62 189.5t-60 185t-169 60h-109
v-499z" />
    <glyph glyph-name="dcedilla" unicode="&#x1e11;" horiz-adv-x="513" 
d="M333 -126q0 -39 -26 -59t-67 -20q-57 0 -87 40l18 33q28 -39 69 -39q49 0 49 45q0 49 -80 52l8 65q-75 5 -123 65t-48 168q0 119 53 183t148 64q52 0 89.5 -26.5t48.5 -65.5v289h52v-668h-44l-7 97q-31 -98 -138 -105l-6 -38q43 -4 67 -24.5t24 -55.5zM386 188v94
q0 72 -41.5 109.5t-96.5 37.5q-69 0 -110 -50t-41 -154q0 -94 39.5 -143t106.5 -49q57 0 99.5 40t43.5 115z" />
    <glyph glyph-name="Hdotbelow" unicode="&#x1e24;" horiz-adv-x="620" 
d="M140 0h-53v589h53v-268h340v268h52v-589h-52v274h-340v-274zM272 -139q0 17 10.5 28t26.5 11q17 0 28 -11t11 -28q0 -16 -11.5 -27t-27.5 -11t-26.5 11t-10.5 27z" />
    <glyph glyph-name="hdotbelow" unicode="&#x1e25;" horiz-adv-x="490" 
d="M127 668v-311q15 52 53.5 83t95.5 31q64 0 103 -36t39 -110v-325h-51v312q0 55 -26.5 84.5t-75.5 29.5q-60 0 -99 -42t-39 -122v-262h-51v668h51zM209 -139q0 17 10.5 28t26.5 11t27.5 -11t11.5 -28q0 -16 -11.5 -27t-27.5 -11t-26.5 11t-10.5 27z" />
    <glyph glyph-name="Ldotbelow" unicode="&#x1e36;" horiz-adv-x="436" 
d="M87 589h53v-543h274v-46h-327v589zM212 -139q0 16 11 27.5t27 11.5t27 -11t11 -28q0 -16 -11 -27t-27 -11t-27 11t-11 27z" />
    <glyph glyph-name="ldotbelow" unicode="&#x1e37;" horiz-adv-x="225" 
d="M195 44v-44q-21 -5 -40 -5q-40 0 -62.5 22t-22.5 65v586h51v-579q0 -50 43 -50q14 0 31 5zM94 -139q0 17 10.5 28t26.5 11q17 0 28 -11t11 -28q0 -16 -11.5 -27t-27.5 -11t-26.5 11t-10.5 27z" />
    <glyph glyph-name="uni004C032300AF" unicode="&#x1e38;" horiz-adv-x="436" 
d="M87 589h53v-543h274v-46h-327v589zM212 -139q0 16 11 27.5t27 11.5t27 -11t11 -28q0 -16 -11 -27t-27 -11t-27 11t-11 27zM235 667h-222v41h222v-41z" />
    <glyph glyph-name="ldotbelowmacron" unicode="&#x1e39;" horiz-adv-x="225" 
d="M195 44v-44q-21 -5 -40 -5q-40 0 -62.5 22t-22.5 65v586h51v-579q0 -50 43 -50q14 0 31 5zM94 -139q0 17 10.5 28t26.5 11q17 0 28 -11t11 -28q0 -16 -11.5 -27t-27.5 -11t-26.5 11t-10.5 27zM212 732h-222v41h222v-41z" />
    <glyph glyph-name="Mdotbelow" unicode="&#x1e42;" horiz-adv-x="703" 
d="M314 -139q0 17 10.5 28t26.5 11t27 -11t11 -28q0 -16 -11 -27t-27 -11t-26.5 11t-10.5 27zM372 147h-41l-145 270q-16 30 -28 56.5t-16 37.5l-3 11h-3q3 -37 3 -108v-414h-52v589h65l172 -327l28 -63h3q7 23 28 63l171 327h62v-589h-52v414l3 108h-3q-11 -37 -47 -105z
" />
    <glyph glyph-name="mdotbelow" unicode="&#x1e43;" horiz-adv-x="758" 
d="M400 356q15 55 55 85t94 30q64 0 100.5 -35.5t36.5 -107.5v-328h-51v312q0 114 -97 114q-56 0 -93.5 -43t-37.5 -121v-262h-51v312q0 55 -24.5 84.5t-71.5 29.5q-56 0 -94 -43t-38 -121v-262h-51v462h39l7 -105q15 54 54 84t94 30q116 0 129 -115zM344 -139q0 17 10.5 28
t26.5 11t27 -11t11 -28q0 -16 -11 -27t-27 -11t-26.5 11t-10.5 27z" />
    <glyph glyph-name="Ndotaccent" unicode="&#x1e44;" horiz-adv-x="629" 
d="M276 689q0 16 11 27t27 11t27 -10.5t11 -27.5q0 -16 -11 -27t-27 -11t-27 11t-11 27zM144 589l280 -410q17 -24 33.5 -51.5t24.5 -42.5l8 -15h3q-3 58 -3 124v395h52v-589h-56l-281 410q-16 24 -32.5 51t-24.5 43l-9 15h-4q4 -58 4 -124v-395h-52v589h57z" />
    <glyph glyph-name="ndotaccent" unicode="&#x1e45;" horiz-adv-x="492" 
d="M116 462l7 -106q16 53 56.5 84t98.5 31q64 0 102.5 -36t38.5 -110v-325h-51v312q0 55 -26.5 84.5t-75.5 29.5q-59 0 -98.5 -42t-39.5 -122v-262h-51v462h39zM214 596q0 16 10.5 27t26.5 11t27 -11t11 -27t-11 -27t-27 -11t-26.5 11t-10.5 27z" />
    <glyph glyph-name="Ndotbelow" unicode="&#x1e46;" horiz-adv-x="629" 
d="M276 -139q0 16 11 27.5t27 11.5t27 -11t11 -28q0 -16 -11 -27t-27 -11t-27 11t-11 27zM144 589l280 -410q17 -24 33.5 -51.5t24.5 -42.5l8 -15h3q-3 58 -3 124v395h52v-589h-56l-281 410q-16 24 -32.5 51t-24.5 43l-9 15h-4q4 -58 4 -124v-395h-52v589h57z" />
    <glyph glyph-name="ndotbelow" unicode="&#x1e47;" horiz-adv-x="492" 
d="M116 462l7 -106q16 53 56.5 84t98.5 31q64 0 102.5 -36t38.5 -110v-325h-51v312q0 55 -26.5 84.5t-75.5 29.5q-59 0 -98.5 -42t-39.5 -122v-262h-51v462h39zM212 -139q0 16 11 27.5t27 11.5t27 -11t11 -28q0 -16 -11 -27t-27 -11t-27 11t-11 27z" />
    <glyph glyph-name="Rdotbelow" unicode="&#x1e5a;" horiz-adv-x="530" 
d="M494 0h-58q-19 22 -28 59l-24 105q-12 52 -43.5 73.5t-89.5 21.5h-111v-259h-53v589h182q193 0 193 -162q0 -67 -39.5 -105.5t-97.5 -41.5v-2q44 -5 69.5 -27.5t38.5 -71.5l28 -114q10 -39 33 -65zM140 544v-240h128q139 0 139 120t-139 120h-128zM217 -139q0 17 10.5 28
t26.5 11t27.5 -11t11.5 -28q0 -16 -11.5 -27t-27.5 -11t-26.5 11t-10.5 27z" />
    <glyph glyph-name="rdotbelow" unicode="&#x1e5b;" horiz-adv-x="329" 
d="M64 -139q0 17 10.5 28t26.5 11t27 -11t11 -28q0 -16 -11 -27t-27 -11t-26.5 11t-10.5 27zM309 465l-5 -56q-15 7 -43 7q-58 0 -95.5 -50t-37.5 -126v-240h-51v462h42l7 -131q11 64 50.5 101.5t101.5 37.5q18 0 31 -5z" />
    <glyph glyph-name="Rdotbelowmacron" unicode="&#x1e5c;" horiz-adv-x="530" 
d="M494 0h-58q-19 22 -28 59l-24 105q-12 52 -43.5 73.5t-89.5 21.5h-111v-259h-53v589h182q193 0 193 -162q0 -67 -39.5 -105.5t-97.5 -41.5v-2q44 -5 69.5 -27.5t38.5 -71.5l28 -114q10 -39 33 -65zM140 544v-240h128q139 0 139 120t-139 120h-128zM217 -139q0 17 10.5 28
t26.5 11t27.5 -11t11.5 -28q0 -16 -11.5 -27t-27.5 -11t-26.5 11t-10.5 27zM360 667h-221v41h221v-41z" />
    <glyph glyph-name="rdotbelowmacron" unicode="&#x1e5d;" horiz-adv-x="329" 
d="M304 564h-221v43h221v-43zM64 -139q0 16 11 27.5t27 11.5t27 -11t11 -28q0 -16 -11 -27t-27 -11t-27 11t-11 27zM309 465l-5 -56q-15 7 -43 7q-58 0 -95.5 -50t-37.5 -126v-240h-51v462h42l7 -131q11 64 50.5 101.5t101.5 37.5q18 0 31 -5z" />
    <glyph glyph-name="Sdotbelow" unicode="&#x1e62;" horiz-adv-x="465" 
d="M31 148l50 10q21 -125 147 -125q64 0 100.5 28.5t36.5 82.5q0 51 -31.5 79.5t-111.5 54.5q-41 13 -65 23t-52 29t-41 47t-13 66q0 80 50.5 118t124.5 38q171 0 188 -155l-51 -8q-16 120 -136 120q-56 0 -90 -27.5t-34 -81.5q0 -51 33.5 -75t116.5 -51q82 -27 123.5 -63
t41.5 -108q0 -78 -52.5 -118.5t-138.5 -40.5q-172 0 -196 157zM196 -139q0 17 10.5 28t26.5 11t27 -11t11 -28q0 -16 -11 -27t-27 -11t-26.5 11t-10.5 27z" />
    <glyph glyph-name="sdotbelow" unicode="&#x1e63;" horiz-adv-x="399" 
d="M167 -139q0 17 10.5 28t26.5 11t27.5 -11t11.5 -28q0 -16 -11.5 -27t-27.5 -11t-26.5 11t-10.5 27zM29 107l48 14q15 -90 121 -90q115 0 115 82q0 38 -22 59.5t-70 32.5l-60 15q-58 14 -86.5 42.5t-28.5 80.5q0 66 44 97t110 31q140 0 157 -122l-49 -6q-12 88 -108 88
q-49 0 -77.5 -21.5t-28.5 -61.5q0 -36 19 -54.5t64 -29.5l59 -15q63 -17 94 -45.5t31 -85.5q0 -64 -44 -95.5t-119 -31.5q-143 0 -169 116z" />
    <glyph glyph-name="Tdotbelow" unicode="&#x1e6c;" horiz-adv-x="465" 
d="M259 0h-53v543h-192v46h437v-46h-192v-543zM194 -139q0 16 11 27.5t27 11.5t27 -11t11 -28q0 -16 -11 -27t-27 -11t-27 11t-11 27z" />
    <glyph glyph-name="tdotbelow" unicode="&#x1e6d;" horiz-adv-x="307" 
d="M276 63l14 -41q-35 -31 -99 -31q-54 0 -83 30t-29 87v312h-67v42h67v98l52 7v-105h137v-42h-138v-303q0 -82 67 -82q44 0 79 28zM126 -139q0 17 10.5 28t26.5 11t27 -11t11 -28q0 -16 -11 -27t-27 -11t-26.5 11t-10.5 27z" />
    <glyph glyph-name="Wgrave" unicode="&#x1e80;" horiz-adv-x="789" 
d="M420 642h-45l-89 121h70zM426 589l110 -403l36 -152h4q11 60 36 151l110 404h53l-165 -589h-74l-107 391q-11 40 -19.5 77t-11.5 54l-2 17h-3q-8 -55 -33 -148l-107 -391h-74l-165 589h56l110 -402l36 -153h3q11 62 36 152l113 403h58z" />
    <glyph glyph-name="wgrave" unicode="&#x1e81;" horiz-adv-x="631" 
d="M344 462l82 -290q12 -41 19.5 -75t8.5 -47l2 -14h3q4 43 29 136l79 290h52l-130 -462h-62l-79 275q-12 41 -19.5 74.5t-9.5 46.5l-2 14h-3q-5 -43 -31 -135l-77 -275h-62l-132 462h53l80 -290q12 -40 19.5 -74t9.5 -48l2 -14h3q4 45 29 136l82 290h54zM341 533h-42
l-99 136h70z" />
    <glyph glyph-name="Wacute" unicode="&#x1e82;" horiz-adv-x="789" 
d="M415 642h-45l64 121h70zM426 589l110 -403l36 -152h4q11 60 36 151l110 404h53l-165 -589h-74l-107 391q-11 40 -19.5 77t-11.5 54l-2 17h-3q-8 -55 -33 -148l-107 -391h-74l-165 589h56l110 -402l36 -153h3q11 62 36 152l113 403h58z" />
    <glyph glyph-name="wacute" unicode="&#x1e83;" horiz-adv-x="631" 
d="M344 462l82 -290q12 -41 19.5 -75t8.5 -47l2 -14h3q4 43 29 136l79 290h52l-130 -462h-62l-79 275q-12 41 -19.5 74.5t-9.5 46.5l-2 14h-3q-5 -43 -31 -135l-77 -275h-62l-132 462h53l80 -290q12 -40 19.5 -74t9.5 -48l2 -14h3q4 45 29 136l82 290h54zM332 533h-42
l71 136h70z" />
    <glyph glyph-name="Wdieresis" unicode="&#x1e84;" horiz-adv-x="789" 
d="M271 690q0 16 11 27t27 11t27 -11t11 -27t-11 -27t-27 -11t-27 11t-11 27zM442 689q0 16 11 27t27 11t27 -10.5t11 -27.5q0 -16 -11 -27t-27 -11t-27 11t-11 27zM426 589l110 -403l36 -152h4q11 60 36 151l110 404h53l-165 -589h-74l-107 391q-11 40 -19.5 77t-11.5 54
l-2 17h-3q-8 -55 -33 -148l-107 -391h-74l-165 589h56l110 -402l36 -153h3q11 62 36 152l113 403h58z" />
    <glyph glyph-name="wdieresis" unicode="&#x1e85;" horiz-adv-x="631" 
d="M344 462l82 -290q12 -41 19.5 -75t8.5 -47l2 -14h3q4 43 29 136l79 290h52l-130 -462h-62l-79 275q-12 41 -19.5 74.5t-9.5 46.5l-2 14h-3q-5 -43 -31 -135l-77 -275h-62l-132 462h53l80 -290q12 -40 19.5 -74t9.5 -48l2 -14h3q4 45 29 136l82 290h54zM191 595
q0 16 11 27t27 11t27 -11t11 -27t-11 -27t-27 -11t-27 11t-11 27zM363 594q0 16 11 27t27 11t27 -11t11 -27q0 -15 -11 -26t-27 -11t-27 11t-11 26z" />
    <glyph glyph-name="Idotbelow" unicode="&#x1eca;" horiz-adv-x="227" 
d="M87 589h53v-589h-53v589zM75 -139q0 16 11 27.5t27 11.5t27 -11t11 -28q0 -16 -11 -27t-27 -11t-27 11t-11 27z" />
    <glyph glyph-name="idotbelow" unicode="&#x1ecb;" horiz-adv-x="205" 
d="M65 604q0 17 10.5 28t26.5 11t27.5 -11.5t11.5 -27.5t-11 -26.5t-28 -10.5q-16 0 -26.5 10.5t-10.5 26.5zM77 462h51v-462h-51v462zM65 -139q0 17 10.5 28t26.5 11t27.5 -11t11.5 -28q0 -16 -11.5 -27t-27.5 -11t-26.5 11t-10.5 27z" />
    <glyph glyph-name="Odotbelow" unicode="&#x1ecc;" horiz-adv-x="608" 
d="M304 -9q-119 0 -187.5 79.5t-68.5 223.5t68.5 224t187.5 80t187.5 -80t68.5 -224t-68.5 -223.5t-187.5 -79.5zM304 552q-97 0 -149 -68t-52 -190q0 -121 52 -189t149 -68t149.5 68t52.5 189t-52.5 189.5t-149.5 68.5zM266 -139q0 16 11 27.5t27 11.5t27 -11t11 -28
q0 -16 -11 -27t-27 -11t-27 11t-11 27z" />
    <glyph glyph-name="odotbelow" unicode="&#x1ecd;" 
d="M243 -9q-92 0 -144.5 63t-52.5 179q0 115 52.5 176.5t144.5 61.5q94 0 146 -61t52 -177q0 -117 -52.5 -179.5t-145.5 -62.5zM243 428q-147 0 -147 -195q0 -99 37.5 -150t109.5 -51t110 51t38 150q0 195 -148 195zM206 -139q0 17 10.5 28t26.5 11t27 -11t11 -28
q0 -16 -11 -27t-27 -11t-26.5 11t-10.5 27z" />
    <glyph glyph-name="Udotbelow" unicode="&#x1ee4;" horiz-adv-x="574" 
d="M454 589h52v-388q0 -107 -62.5 -158.5t-156.5 -51.5q-95 0 -157 51.5t-62 158.5v388h53v-377q0 -91 46 -134t120 -43q75 0 121 43t46 132v379zM249 -139q0 17 10.5 28t26.5 11t27.5 -11t11.5 -28q0 -16 -11.5 -27t-27.5 -11t-26.5 11t-10.5 27z" />
    <glyph glyph-name="udotbelow" unicode="&#x1ee5;" 
d="M367 0l-7 101q-15 -53 -54 -81.5t-96 -28.5q-141 0 -141 152v319h51v-313q0 -119 103 -119q56 0 96 44.5t40 119.5v268h51v-462h-43zM202 -139q0 17 10.5 28t26.5 11t27 -11t11 -28q0 -16 -11 -27t-27 -11t-26.5 11t-10.5 27z" />
    <glyph glyph-name="Ygrave" unicode="&#x1ef2;" horiz-adv-x="469" 
d="M74 589l118 -216l46 -93h3q9 27 44 93l114 216h55l-190 -353v-236h-52v236l-198 353h60zM259 642h-45l-88 121h69z" />
    <glyph glyph-name="ygrave" unicode="&#x1ef3;" horiz-adv-x="417" 
d="M67 462l111 -318q10 -30 18 -57.5t10 -40.5l3 -12h3q9 41 31 108l109 320h53l-171 -486q-35 -99 -74 -141.5t-97 -42.5q-35 0 -65 14l6 44q28 -16 60 -16q41 0 67.5 32.5t54.5 114.5l-174 481h55zM237 533h-42l-99 136h70z" />
    <glyph glyph-name="Ytilde" unicode="&#x1ef8;" horiz-adv-x="469" 
d="M74 589l118 -216l46 -93h3q9 27 44 93l114 216h55l-190 -353v-236h-52v236l-198 353h60zM302 647q-6 0 -12 0.5t-12 3t-9.5 3.5t-10 5t-9 5.5t-10 6.5t-9.5 6t-8.5 6t-8.5 6t-7.5 4.5t-8 4.5t-7 3t-7.5 3t-7 1.5t-8 0.5q-44 0 -33 -59h-33q-16 43 2.5 74t58.5 31
q33 0 79 -31q37 -28 57 -28q43 0 33 61h35q15 -46 -3.5 -76.5t-61.5 -30.5z" />
    <glyph glyph-name="ytilde" unicode="&#x1ef9;" horiz-adv-x="417" 
d="M67 462l111 -318q10 -30 18 -57.5t10 -40.5l3 -12h3q9 41 31 108l109 320h53l-171 -486q-35 -99 -74 -141.5t-97 -42.5q-35 0 -65 14l6 44q28 -16 60 -16q41 0 67.5 32.5t54.5 114.5l-174 481h55zM280 539q-28 0 -72 29q-2 1 -8.5 6t-8.5 6t-7.5 4.5t-8 4.5t-7 3t-7.5 3
t-7 1.5t-8 0.5q-44 0 -33 -59h-34q-16 44 3 74t59 30q33 0 78 -32q40 -27 58 -27q43 0 33 61h35q15 -46 -3.5 -75.5t-61.5 -29.5z" />
    <glyph glyph-name="enspace" unicode="&#x2002;" horiz-adv-x="450" 
 />
    <glyph glyph-name="emspace" unicode="&#x2003;" horiz-adv-x="900" 
 />
    <glyph glyph-name="threeperemspace" unicode="&#x2004;" horiz-adv-x="300" 
 />
    <glyph glyph-name="fourperemspace" unicode="&#x2005;" horiz-adv-x="225" 
 />
    <glyph glyph-name="sixperemspace" unicode="&#x2006;" horiz-adv-x="150" 
 />
    <glyph glyph-name="figurespace" unicode="&#x2007;" horiz-adv-x="513" 
 />
    <glyph glyph-name="punctuationspace" unicode="&#x2008;" horiz-adv-x="171" 
 />
    <glyph glyph-name="thinspace" unicode="&#x2009;" horiz-adv-x="90" 
 />
    <glyph glyph-name="hairspace" unicode="&#x200a;" horiz-adv-x="45" 
 />
    <glyph glyph-name="zerowidthspace" unicode="&#x200b;" horiz-adv-x="0" 
 />
    <glyph glyph-name="figuredash" unicode="&#x2012;" horiz-adv-x="608" 
d="M74 240v39h459v-39h-459z" />
    <glyph glyph-name="endash" unicode="&#x2013;" horiz-adv-x="509" 
d="M74 240v39h360v-39h-360z" />
    <glyph glyph-name="emdash" unicode="&#x2014;" horiz-adv-x="1009" 
d="M74 240v39h860v-39h-860z" />
    <glyph glyph-name="uni2015" unicode="&#x2015;" horiz-adv-x="1259" 
d="M74 240v39h1110v-39h-1110z" />
    <glyph glyph-name="doublebar" unicode="&#x2016;" horiz-adv-x="373" 
d="M150 -203h-46v872h46v-872zM268 -203h-46v872h46v-872z" />
    <glyph glyph-name="quoteleft" unicode="&#x2018;" horiz-adv-x="213" 
d="M64 566q0 102 111 107v-28q-67 -6 -68 -63q0 -2 1 -5v-3q10 4 15 4q16 0 26 -10.5t10 -26.5q0 -18 -11.5 -28.5t-31.5 -10.5q-21 0 -36.5 17t-15.5 47z" />
    <glyph glyph-name="quoteright" unicode="&#x2019;" horiz-adv-x="213" 
d="M155 609q0 -102 -111 -107v28q68 7 69 63q0 4 -2 8q-8 -4 -14 -4q-16 0 -26.5 10.5t-10.5 26.5q0 18 11.5 28.5t31.5 10.5q21 0 36.5 -17.5t15.5 -46.5z" />
    <glyph glyph-name="quotesinglbase" unicode="&#x201a;" horiz-adv-x="213" 
d="M155 18q0 -102 -111 -107v28q68 7 69 63q0 6 -2 8q-8 -4 -14 -4q-16 0 -26.5 10.5t-10.5 26.5q0 18 11.5 28.5t31.5 10.5q22 0 37 -17t15 -47z" />
    <glyph glyph-name="reversequoteleft" unicode="&#x201b;" horiz-adv-x="234" 
d="M79 609q0 29 15.5 46.5t36.5 17.5q20 0 31.5 -10.5t11.5 -28.5q0 -16 -10 -26.5t-26 -10.5q-7 0 -15 4q-1 -2 -1 -8q0 -56 68 -63v-28q-111 5 -111 107z" />
    <glyph glyph-name="quotedblleft" unicode="&#x201c;" horiz-adv-x="357" 
d="M64 566q0 102 111 107v-28q-67 -6 -68 -63q0 -2 1 -5v-3q10 4 15 4q16 0 26 -10.5t10 -26.5q0 -18 -11.5 -28.5t-31.5 -10.5q-21 0 -36.5 17t-15.5 47zM208 566q0 102 111 107v-28q-67 -6 -68 -63q0 -6 2 -8q8 4 14 4q16 0 26 -10.5t10 -26.5q0 -18 -11.5 -28.5
t-31.5 -10.5q-21 0 -36.5 17t-15.5 47z" />
    <glyph glyph-name="quotedblright" unicode="&#x201d;" horiz-adv-x="357" 
d="M155 609q0 -102 -111 -107v28q68 7 69 63q0 4 -2 8q-8 -4 -14 -4q-16 0 -26.5 10.5t-10.5 26.5q0 18 11.5 28.5t31.5 10.5q21 0 36.5 -17.5t15.5 -46.5zM300 609q0 -51 -29 -78t-82 -29v28q67 6 68 63q0 4 -2 8q-8 -4 -14 -4q-16 0 -26 10.5t-10 26.5q0 18 11.5 28.5
t31.5 10.5q21 0 36.5 -17.5t15.5 -46.5z" />
    <glyph glyph-name="quotedblbase" unicode="&#x201e;" horiz-adv-x="357" 
d="M155 18q0 -102 -111 -107v28q68 7 69 63q0 6 -2 8q-8 -4 -14 -4q-16 0 -26.5 10.5t-10.5 26.5q0 18 11.5 28.5t31.5 10.5q22 0 37 -17t15 -47zM300 18q0 -51 -29 -78t-82 -29v28q67 6 68 63q0 6 -2 8q-8 -4 -14 -4q-16 0 -26 10.5t-10 26.5q0 18 11.5 28.5t31.5 10.5
q21 0 36.5 -17t15.5 -47z" />
    <glyph glyph-name="reversequotedblleft" unicode="&#x201f;" horiz-adv-x="387" 
d="M60 610q0 29 15.5 46.5t36.5 17.5q20 0 31.5 -10.5t11.5 -28.5q0 -16 -10 -26.5t-26 -10.5q-5 0 -15 4q0 -1 -0.5 -3.5t-0.5 -4.5q1 -57 68 -63v-28q-111 5 -111 107zM213 610q0 29 15.5 46.5t36.5 17.5q20 0 31.5 -10.5t11.5 -28.5q0 -16 -10 -26.5t-26 -10.5
q-6 0 -14 4q-2 -4 -2 -8q1 -57 68 -63v-28q-111 5 -111 107z" />
    <glyph glyph-name="dagger" unicode="&#x2020;" horiz-adv-x="534" 
d="M246 327l-200 -9v55l200 -8l-7 224h56l-8 -224l201 8v-55l-200 9l8 -476h-57z" />
    <glyph glyph-name="daggerdbl" unicode="&#x2021;" horiz-adv-x="533" 
d="M287 332v-225l201 8v-53l-201 9l9 -221h-57l7 221l-200 -9v53l200 -8v225l-200 -8v53l200 -8l-7 220h57l-9 -220l201 8v-53z" />
    <glyph glyph-name="bullet" unicode="&#x2022;" horiz-adv-x="298" 
d="M87 251q0 26 18 44.5t44 18.5t44 -18.5t18 -44.5q0 -25 -18.5 -43t-43.5 -18t-43.5 18t-18.5 43z" />
    <glyph glyph-name="ellipsis" unicode="&#x2026;" horiz-adv-x="767" 
d="M81 39q0 18 12 30t30 12t30 -12t12 -30t-12 -30t-30 -12t-30 12t-12 30zM341 39q0 18 12 30t30 12q19 0 31 -12t12 -30t-12 -30t-31 -12q-18 0 -30 12t-12 30zM601 39q0 18 12 30t31 12q18 0 30 -12t12 -30t-12 -30t-30 -12q-19 0 -31 12t-12 30z" />
    <glyph glyph-name="perthousand" unicode="&#x2030;" horiz-adv-x="1155" 
d="M172 230q-65 0 -100 50.5t-35 132.5q0 81 36 132t99 51q62 0 98 -51t36 -132q0 -82 -35 -132.5t-99 -50.5zM172 557q-43 0 -67 -40t-24 -105q0 -64 24.5 -105t66.5 -41t66 41t24 105q0 65 -23.5 105t-66.5 40zM227 0l324 590h41l-323 -590h-42zM647 -6q-64 0 -99.5 50.5
t-35.5 132.5q0 81 36 132t99 51t99 -51t36 -132q0 -82 -35.5 -132.5t-99.5 -50.5zM647 321q-43 0 -67 -40t-24 -105q0 -64 24.5 -104.5t66.5 -40.5t66.5 40.5t24.5 104.5q0 65 -24 105t-67 40zM983 -6q-64 0 -99 50.5t-35 132.5q0 81 36 132t98 51q63 0 99 -51t36 -132
q0 -82 -35.5 -132.5t-99.5 -50.5zM983 321q-43 0 -66.5 -40t-23.5 -105q0 -64 24 -104.5t66 -40.5t66.5 40.5t24.5 104.5q0 65 -24 105t-67 40z" />
    <glyph glyph-name="tripleprime" unicode="&#x2034;" horiz-adv-x="402" 
d="M64 412v256h59l-25 -256h-34zM177 412v256h59l-26 -256h-33zM290 412v256h58l-25 -256h-33z" />
    <glyph glyph-name="guilsinglleft" unicode="&#x2039;" horiz-adv-x="293" 
d="M92 235v-4q12 -6 49 -51l108 -127l-31 -26l-175 206l175 206l31 -30l-108 -125q-17 -20 -29 -32t-16 -14z" />
    <glyph glyph-name="guilsinglright" unicode="&#x203a;" horiz-adv-x="293" 
d="M201 231v4q-11 4 -49 49l-108 125l31 30l175 -206l-175 -206l-31 26l108 127q16 20 28.5 32.5t16.5 15.5z" />
    <glyph glyph-name="fraction" unicode="&#x2044;" horiz-adv-x="183" 
d="M-91 0l324 590h41l-324 -590h-41z" />
    <glyph glyph-name="uni2070" unicode="&#x2070;" horiz-adv-x="339" 
d="M170 230q-64 0 -99.5 50.5t-35.5 132.5q0 81 36 132t99 51q62 0 98 -51t36 -132q0 -82 -35 -132.5t-99 -50.5zM170 557q-43 0 -67 -40t-24 -105q0 -64 24.5 -105t66.5 -41t66.5 41t24.5 105q0 65 -24 105t-67 40z" />
    <glyph glyph-name="uni2074" unicode="&#x2074;" horiz-adv-x="323" 
d="M198 236v95h-183v33l181 225h45v-224h60v-34h-60v-95h-43zM199 364v125l3 60h-3q-9 -22 -35 -55l-69 -86q-11 -13 -21 -24t-15 -15l-5 -4v-3q15 2 49 2h96z" />
    <glyph glyph-name="uni2075" unicode="&#x2075;" horiz-adv-x="297" 
d="M52 400l8 189h188v-37h-152l-6 -120q23 30 71 30q46 0 75 -28.5t29 -82.5q0 -58 -34.5 -89.5t-95.5 -31.5q-49 0 -80 23.5t-35 61.5l38 14q10 -65 80 -65q38 0 61.5 21t23.5 62q0 38 -20 59.5t-53 21.5q-38 0 -63 -28h-35z" />
    <glyph glyph-name="uni2076" unicode="&#x2076;" horiz-adv-x="315" 
d="M281 526l-35 -16q-17 49 -71 49q-45 0 -72.5 -41t-29.5 -117v-23h3q5 39 32 62t68 23q50 0 81 -32.5t31 -82.5t-32 -84t-91 -34q-65 0 -100 51q-30 42 -30 121q0 94 40.5 144t102.5 50q80 0 103 -70zM87 345q0 -36 22.5 -59t57.5 -23q36 0 58.5 22.5t22.5 59.5
t-22.5 59.5t-57.5 22.5q-36 0 -58.5 -22.5t-22.5 -59.5z" />
    <glyph glyph-name="uni2077" unicode="&#x2077;" horiz-adv-x="284" 
d="M220 551h-161v-55h-39v93h248v-24l-141 -329h-44z" />
    <glyph glyph-name="uni2078" unicode="&#x2078;" horiz-adv-x="327" 
d="M163 398q-36 0 -59 -17.5t-23 -50.5q0 -32 22 -49.5t60 -17.5t60.5 17.5t22.5 49.5q0 33 -23.5 50.5t-59.5 17.5zM163 230q-57 0 -91.5 25.5t-34.5 71.5q0 34 20.5 57t55.5 29v2q-32 8 -50 29.5t-18 54.5q0 45 32.5 71t85.5 26t85.5 -26t32.5 -71q0 -68 -68 -84v-2
q35 -6 56 -29t21 -57q0 -46 -35 -71.5t-92 -25.5zM163 562q-34 0 -56 -17.5t-22 -46.5q0 -30 22.5 -47.5t55.5 -17.5q34 0 56.5 17.5t22.5 47.5t-22 47t-57 17z" />
    <glyph glyph-name="uni2079" unicode="&#x2079;" horiz-adv-x="315" 
d="M31 300l35 15q18 -49 72 -49q47 0 74.5 41t28.5 117q1 3 1 24h-3q-5 -39 -32 -62t-68 -23q-50 0 -81 32t-31 82t32 84.5t91 34.5q66 0 100 -51q30 -42 30 -120q0 -96 -39.5 -145.5t-102.5 -49.5q-84 0 -107 70zM228 480q0 36 -22.5 59t-57.5 23q-36 0 -58.5 -22.5
t-22.5 -59.5t22.5 -60t57.5 -23q36 0 58.5 23t22.5 60z" />
    <glyph glyph-name="uni207A" unicode="&#x207a;" horiz-adv-x="440" 
d="M43 435h161v155h30v-155h163v-31h-163v-168h-30v168h-161v31z" />
    <glyph glyph-name="uni207B" unicode="&#x207b;" horiz-adv-x="441" 
d="M398 404h-355v31h355v-31z" />
    <glyph glyph-name="uni207C" unicode="&#x207c;" horiz-adv-x="441" 
d="M398 350h-355v31h355v-31zM398 464h-355v30h355v-30z" />
    <glyph glyph-name="uni207D" unicode="&#x207d;" horiz-adv-x="226" 
d="M83 409q0 -68 22.5 -119t70.5 -108h-39q-88 102 -88 227t88 227h39q-47 -55 -70 -107t-23 -120z" />
    <glyph glyph-name="uni207E" unicode="&#x207e;" horiz-adv-x="226" 
d="M143 409q0 68 -23 119.5t-71 107.5h39q88 -102 88 -227t-88 -227h-39q48 57 71 108t23 119z" />
    <glyph glyph-name="n.superior" unicode="&#x207f;" horiz-adv-x="355" 
d="M91 594l6 -68q11 35 39.5 55t64.5 20q44 0 73 -25.5t29 -79.5v-208h-46v199q0 76 -66 76q-37 0 -63 -26t-26 -84v-165h-46v306h35z" />
    <glyph glyph-name="uni2080" unicode="&#x2080;" horiz-adv-x="339" 
d="M170 -6q-64 0 -99.5 50.5t-35.5 132.5q0 81 36 132t99 51q62 0 98 -51t36 -132q0 -82 -35 -132.5t-99 -50.5zM170 321q-43 0 -67 -40t-24 -105q0 -64 24.5 -105t66.5 -41t66.5 41t24.5 105q0 65 -24 105t-67 40z" />
    <glyph glyph-name="uni2081" unicode="&#x2081;" horiz-adv-x="287" 
d="M276 0h-247v35h107v274l-110 -17v37l155 26v-320h95v-35z" />
    <glyph glyph-name="uni2082" unicode="&#x2082;" horiz-adv-x="290" 
d="M268 36v-36h-246v34q60 42 93.5 68.5t62.5 66.5t29 78q0 35 -19.5 54.5t-52.5 19.5q-36 0 -54.5 -22.5t-18.5 -54.5l-38 15q0 40 31.5 70.5t85.5 30.5q48 0 79.5 -28t31.5 -82q0 -36 -18 -70.5t-47.5 -61.5t-55 -45.5t-53.5 -33.5v-3h190z" />
    <glyph glyph-name="uni2083" unicode="&#x2083;" horiz-adv-x="290" 
d="M157 185v-3q47 -3 73.5 -27.5t26.5 -64.5q0 -45 -34 -70.5t-87 -25.5q-54 0 -86.5 22.5t-38.5 59.5l40 14q6 -29 28.5 -45.5t56.5 -16.5q35 0 56 17t21 48q0 72 -117 73v32q106 5 106 68q0 28 -18 43t-48 15q-60 0 -72 -58l-39 13q8 36 37 58.5t76 22.5t77 -22.5
t30 -66.5q0 -36 -22.5 -59t-65.5 -27z" />
    <glyph glyph-name="uni2084" unicode="&#x2084;" horiz-adv-x="323" 
d="M198 0v95h-183v33l181 225h45v-224h60v-34h-60v-95h-43zM199 128v125l3 60h-3q-9 -22 -35 -55l-69 -86q-11 -13 -21 -24t-15 -15l-5 -4v-3q15 2 49 2h96z" />
    <glyph glyph-name="uni2085" unicode="&#x2085;" horiz-adv-x="297" 
d="M52 164l8 189h188v-37h-152l-6 -120q23 30 71 30q46 0 75 -28.5t29 -82.5q0 -58 -34.5 -89.5t-95.5 -31.5q-49 0 -80 23.5t-35 61.5l38 14q10 -65 80 -65q38 0 61.5 21t23.5 62q0 38 -20 59.5t-53 21.5q-38 0 -63 -28h-35z" />
    <glyph glyph-name="uni2086" unicode="&#x2086;" horiz-adv-x="315" 
d="M281 290l-35 -16q-17 49 -71 49q-45 0 -72.5 -40.5t-29.5 -116.5v-24h3q5 39 32 62t68 23q50 0 81 -32.5t31 -82.5t-32 -84t-91 -34q-65 0 -100 51q-30 42 -30 121q0 94 40.5 144t102.5 50q80 0 103 -70zM87 109q0 -36 22.5 -59t57.5 -23q36 0 58.5 22.5t22.5 59.5
t-22.5 59.5t-57.5 22.5q-36 0 -58.5 -22.5t-22.5 -59.5z" />
    <glyph glyph-name="uni2087" unicode="&#x2087;" horiz-adv-x="284" 
d="M220 315h-161v-55h-39v93h248v-24l-141 -329h-44z" />
    <glyph glyph-name="uni2088" unicode="&#x2088;" horiz-adv-x="327" 
d="M163 162q-36 0 -59 -17.5t-23 -50.5q0 -32 22 -49.5t60 -17.5t60.5 17.5t22.5 49.5q0 33 -23.5 50.5t-59.5 17.5zM163 -6q-57 0 -91.5 25.5t-34.5 71.5q0 34 20.5 57t55.5 29v2q-32 8 -50 29.5t-18 54.5q0 45 32.5 71t85.5 26t85.5 -26t32.5 -71q0 -68 -68 -84v-2
q35 -6 56 -29t21 -57q0 -46 -35 -71.5t-92 -25.5zM163 326q-34 0 -56 -17.5t-22 -46.5q0 -30 22.5 -47.5t55.5 -17.5q34 0 56.5 17.5t22.5 47.5t-22 47t-57 17z" />
    <glyph glyph-name="uni2089" unicode="&#x2089;" horiz-adv-x="315" 
d="M31 64l35 15q18 -49 72 -49q47 0 74.5 41t28.5 117q1 3 1 24h-3q-5 -39 -32 -62t-68 -23q-50 0 -81 32t-31 82t32 84.5t91 34.5q66 0 100 -51q30 -42 30 -120q0 -96 -39.5 -145.5t-102.5 -49.5q-84 0 -107 70zM228 244q0 36 -22.5 59t-57.5 23q-36 0 -58.5 -22.5
t-22.5 -59.5t22.5 -60t57.5 -23q36 0 58.5 23t22.5 60z" />
    <glyph glyph-name="uni208A" unicode="&#x208a;" horiz-adv-x="440" 
d="M43 199h161v156h30v-156h163v-31h-163v-168h-30v168h-161v31z" />
    <glyph glyph-name="uni208B" unicode="&#x208b;" horiz-adv-x="441" 
d="M398 168h-355v31h355v-31z" />
    <glyph glyph-name="uni208C" unicode="&#x208c;" horiz-adv-x="441" 
d="M398 114h-355v31h355v-31zM398 228h-355v30h355v-30z" />
    <glyph glyph-name="uni208D" unicode="&#x208d;" horiz-adv-x="226" 
d="M83 174q0 -69 22.5 -120t70.5 -108h-39q-88 102 -88 228q0 124 88 226h39q-47 -55 -70 -107t-23 -119z" />
    <glyph glyph-name="uni208E" unicode="&#x208e;" horiz-adv-x="226" 
d="M143 174q0 67 -23 118.5t-71 107.5h39q88 -102 88 -226q0 -126 -88 -228h-39q48 57 71 108t23 120z" />
    <glyph glyph-name="uni20A1" unicode="&#x20a1;" horiz-adv-x="492" 
d="M95 -68l35 103q-80 66 -80 204q0 120 60.5 185.5t161.5 65.5h11l29 87l34 -11l-27 -80q33 -6 60 -21l29 86l34 -11l-33 -98q27 -27 45 -67l-47 -25q-8 19 -17 34l-118 -350q51 0 85 21t57 66l40 -27q-57 -103 -186 -103h-10l-32 -95l-35 10l30 89q-34 6 -60 20l-31 -94z
M102 242q0 -98 45 -154l121 359q-80 -1 -123 -55.5t-43 -149.5zM177 61q29 -19 58 -24l127 379q-23 20 -57 28z" />
    <glyph glyph-name="uni20A2" unicode="&#x20a2;" horiz-adv-x="500" 
d="M417 121l40 -27q-57 -103 -186 -103q-99 0 -158.5 63.5t-59.5 184.5q0 120 60.5 185.5t161.5 65.5q133 0 182 -115l-47 -25q-37 97 -136 97q-81 0 -125 -55t-44 -150q0 -88 36 -142t103 -64v218h40l5 -77q7 38 30.5 59t55.5 23q16 1 32 -4l-4 -52q-13 7 -31 7
q-37 0 -59.5 -27.5t-22.5 -81.5v-67q85 6 127 87z" />
    <glyph glyph-name="franc" unicode="&#x20a3;" horiz-adv-x="423" 
d="M345 166h-181v-166h-52v166h-82v36h82v64h-82v36h82v179h291v-44h-239v-135h181v-36h-181v-64h181v-36z" />
    <glyph glyph-name="lira" unicode="&#x20a4;" horiz-adv-x="493" 
d="M327 156h-131q3 -12 3 -24q0 -69 -51 -88h186q74 0 86 55l42 -20q-20 -79 -122 -79h-281v46h29q27 0 44.5 22.5t17.5 59.5q0 10 -4 28h-101v37h90q-2 5 -12 27.5t-15 35.5h-63v37h55q-4 17 -4 45q0 77 48 114.5t120 37.5q138 0 158 -130l-48 -8q-18 96 -114 96
q-52 0 -82.5 -27.5t-30.5 -82.5q0 -24 6 -45h174v-37h-164l25 -63h139v-37z" />
    <glyph glyph-name="uni20A6" unicode="&#x20a6;" horiz-adv-x="629" 
d="M594 171h-80v-171h-56l-230 316q-17 23 -33 47.5t-23 37.5l-8 13h-3q3 -59 3 -120v-294h-51v171h-77v37h77v58h-77v36h77v179h58l232 -322l60 -94h3q-3 60 -3 122v294h51v-179h80v-36h-80v-58h80v-37z" />
    <glyph glyph-name="peseta" unicode="&#x20a7;" horiz-adv-x="1079" 
d="M137 0h-52v481h143q157 0 179 -109h281q5 60 49.5 89t110.5 29q145 0 162 -126l-52 -7q-12 93 -115 93q-48 0 -77.5 -22.5t-29.5 -64.5q0 -35 20.5 -55.5t63.5 -31.5l64 -15q130 -32 130 -138q0 -66 -46.5 -99t-126.5 -33q-153 0 -173 128l51 8q15 -97 126 -97
q55 0 87 23t32 67q0 39 -22.5 60.5t-70.5 33.5l-68 17q-99 24 -114 96h-117v-327h-52v327h-106q-1 -83 -48 -120.5t-138 -37.5h-91v-169zM137 438v-226h87q71 0 104 26.5t33 89.5q0 57 -32.5 83.5t-103.5 26.5h-88z" />
    <glyph glyph-name="uni20A8" unicode="&#x20a8;" horiz-adv-x="792" 
d="M137 438v-191h107q118 0 118 94q0 97 -119 97h-106zM251 481q166 0 166 -137q0 -56 -33.5 -86.5t-86.5 -33.5v-2q12 -2 24.5 -9t19.5 -13t21 -19.5t20 -19.5l75 -75q57 -54 147 -54q89 0 89 59q0 26 -16 41.5t-53 23.5l-46 11q-90 20 -90 99q0 50 36 74.5t88 24.5
q111 0 124 -96l-49 -5q-5 32 -23.5 47t-56.5 15q-71 0 -71 -57q0 -25 14.5 -38t47.5 -21l42 -9q51 -13 75.5 -38.5t24.5 -70.5q0 -50 -38 -75.5t-105 -25.5q-68 0 -111.5 19t-85.5 61l-75 76q-1 1 -11 11.5t-11.5 11.5t-10.5 9t-12 9.5t-11 6.5t-14 6t-14 2.5t-17 1.5h-87
v-205h-51v481h165z" />
    <glyph glyph-name="uni20A9" unicode="&#x20a9;" horiz-adv-x="784" 
d="M749 187h-120l-54 -187h-65l-90 306q-10 33 -16.5 65t-7.5 47l-2 15h-3q-5 -51 -27 -127l-89 -306h-67l-53 187h-119v35h109l-17 59h-92v36h82l-46 164h52l92 -323q10 -34 16.5 -65t8.5 -45l2 -14h3q7 47 29 123l92 324h54l92 -324q10 -33 17 -64.5t10 -44.5l2 -14h2
q6 46 27 121l93 326h50l-48 -164h83v-36h-93l-18 -59h111v-35z" />
    <glyph glyph-name="uni20AA" unicode="&#x20aa;" horiz-adv-x="628" 
d="M413 119h-52v223q0 47 -20.5 71.5t-74.5 24.5h-137v-438h-52v481h197q81 0 110 -36.5t29 -111.5v-214zM505 481h52v-333q0 -75 -29 -111.5t-110 -36.5h-199v355h52v-312h139q54 0 74.5 24.5t20.5 71.5v342z" />
    <glyph glyph-name="Euro" unicode="&#x20ac;" horiz-adv-x="540" 
d="M333 166h-166q15 -63 56 -97.5t103 -34.5q51 0 84 21t56 66l38 -27q-54 -103 -182 -103q-81 0 -135.5 44.5t-71.5 130.5h-81v37h76q-2 14 -2 37q0 14 2 40h-76v37h82q18 84 73 128.5t137 44.5q130 0 178 -115l-45 -25q-37 97 -134 97q-63 0 -103.5 -34t-54.5 -96h199
l-8 -37h-198q-1 -12 -1 -38q0 -27 2 -39h180z" />
    <glyph glyph-name="uni20AE" unicode="&#x20ae;" horiz-adv-x="435" 
d="M243 0h-52v169l-124 -21v35l124 21v60l-124 -21v36l124 21v137h-171v44h395v-44h-172v-129l121 21v-36l-121 -20v-60l121 20v-35l-121 -21v-177z" />
    <glyph glyph-name="uni20B1" unicode="&#x20b1;" horiz-adv-x="545" 
d="M521 303h-82q-14 -134 -184 -134h-92v-169h-52v303h-81v36h81v142h144q179 0 185 -142h81v-36zM163 438v-99h224q-3 51 -35.5 75t-100.5 24h-88zM250 212q64 0 96.5 21t38.5 70h-222v-91h87z" />
    <glyph glyph-name="afii61289" unicode="&#x2113;" horiz-adv-x="317" 
d="M38 151l-21 33l67 50v255q0 180 115 180q94 0 94 -134q0 -184 -162 -320v-101q0 -43 18 -62t54 -19q37 0 70 18v-44q-32 -16 -76 -16q-113 0 -113 115v81zM131 498v-232q124 110 124 274q0 91 -56 91q-33 0 -50.5 -35t-17.5 -98z" />
    <glyph glyph-name="afii61352" unicode="&#x2116;" horiz-adv-x="970" 
d="M641 0v42h266v-42h-266zM140 395v-289q0 -57 -22.5 -85t-73.5 -39l-17 47q36 8 48.5 25.5t12.5 60.5v474h57l280 -410q16 -23 32.5 -49.5t24.5 -41.5l8 -15h4q-4 55 -4 121v281q0 57 22.5 85.5t73.5 39.5l17 -47q-35 -8 -48 -25.5t-13 -60.5v-467h-56l-282 410
q-16 23 -32 49.5t-24 41.5l-9 15h-3q4 -55 4 -121zM773 143q-63 0 -99 41.5t-36 118.5t36 118t99 41q64 0 100 -41t36 -118t-36.5 -118.5t-99.5 -41.5zM772 422q-86 0 -86 -119q0 -122 86 -122t86 122q0 119 -86 119z" />
    <glyph glyph-name="published" unicode="&#x2117;" horiz-adv-x="706" 
d="M381 258h-88v-142h-45v367h132q60 0 93.5 -28.5t33.5 -83.5q0 -54 -34 -83.5t-92 -29.5zM293 445v-148h80q89 0 89 74t-89 74h-80zM49 294q0 131 88 217.5t216 86.5q127 0 215.5 -86.5t88.5 -217.5t-88.5 -217t-215.5 -86q-128 0 -216 86t-88 217zM75 294q0 -121 81 -200
t197 -79q117 0 198 79t81 200t-81 200.5t-198 79.5q-116 0 -197 -79.5t-81 -200.5z" />
    <glyph glyph-name="servicemark" unicode="&#x2120;" horiz-adv-x="594" 
d="M36 401l37 7q8 -43 60 -43q53 0 53 39q0 34 -44 44l-31 7q-65 15 -65 69q0 36 25 53.5t62 17.5q81 0 89 -65l-36 -6q-7 42 -54 42q-49 0 -49 -38q0 -31 41 -42l31 -7q69 -15 69 -74q0 -34 -25.5 -51t-67.5 -17q-83 0 -95 64zM526 342h-36v190h-4l-67 -141h-31l-68 142h-4
v-191h-36v248h48l75 -154h3l73 154h47v-248z" />
    <glyph glyph-name="trademark" unicode="&#x2122;" horiz-adv-x="589" 
d="M138 341h-37v216h-81v32h199v-32h-81v-216zM520 341h-36v191h-3l-67 -141h-31l-69 141h-3v-191h-37v248h49l74 -154h3l74 154h46v-248z" />
    <glyph glyph-name="ohm" unicode="&#x2126;" horiz-adv-x="624" 
d="M312 553q-94 0 -145.5 -65t-51.5 -183q0 -94 42 -161.5t107 -95.5v-48h-200v48h127q-48 23 -89.5 96t-41.5 165q0 136 66.5 212.5t185.5 76.5t185.5 -76.5t66.5 -212.5q0 -92 -41.5 -165t-89.5 -96h127v-48h-200v48q65 28 107 95.5t42 161.5q0 118 -51.5 183t-145.5 65z
" />
    <glyph glyph-name="estimated" unicode="&#x212e;" horiz-adv-x="647" 
d="M323 600q71 0 126 -25.5t87.5 -69.5t49 -97.5t16.5 -113.5v-26h-431v-168q60 -58 152 -58q129 0 184 103h66q-30 -72 -93 -114t-157 -42q-70 0 -125 25.5t-87.5 69.5t-49 97t-16.5 113q0 81 28 148.5t92.5 112.5t157.5 45zM323 547q-94 0 -152 -58v-169h304v169
q-58 58 -152 58z" />
    <glyph glyph-name="uni2153" unicode="&#x2153;" horiz-adv-x="793" 
d="M287 236h-246v35h107v274l-110 -17v37l154 26v-320h95v-35zM227 0l324 590h41l-324 -590h-41zM640 185v-3q47 -3 73.5 -27.5t26.5 -64.5q0 -45 -34 -70.5t-87 -25.5q-54 0 -86.5 22.5t-38.5 59.5l40 14q6 -29 28.5 -45.5t56.5 -16.5q35 0 56 17t21 48q0 72 -118 73v32
q107 5 107 68q0 28 -18.5 43t-47.5 15q-60 0 -72 -58l-39 13q8 36 37 58.5t76 22.5t77 -22.5t30 -66.5q0 -36 -22.5 -59t-65.5 -27z" />
    <glyph glyph-name="uni2154" unicode="&#x2154;" horiz-adv-x="792" 
d="M286 272v-36h-247v34q92 63 139 110.5t47 102.5q0 35 -19.5 54.5t-52.5 19.5q-36 0 -54.5 -22.5t-19.5 -54.5l-37 15q0 40 31.5 70.5t85.5 30.5q47 0 79 -28.5t32 -81.5q0 -36 -18 -70.5t-48 -61.5t-55 -45.5t-53 -33.5v-3h190zM226 0l324 590h41l-323 -590h-42zM639 185
v-3q47 -3 73.5 -27.5t26.5 -64.5q0 -45 -34 -70.5t-87 -25.5q-54 0 -86.5 22.5t-38.5 59.5l40 14q6 -29 28.5 -45.5t56.5 -16.5q35 0 56 17t21 48q0 72 -118 73v32q107 5 107 68q0 28 -18.5 43t-47.5 15q-60 0 -72 -58l-39 13q8 36 37 58.5t76 22.5t77 -22.5t30 -66.5
q0 -36 -22.5 -59t-65.5 -27z" />
    <glyph glyph-name="uni215B" unicode="&#x215b;" horiz-adv-x="805" 
d="M287 236h-246v35h107v274l-110 -17v37l154 26v-320h95v-35zM227 0l324 590h41l-324 -590h-41zM642 162q-36 0 -59.5 -17.5t-23.5 -50.5q0 -32 22.5 -49.5t60.5 -17.5t60 17.5t22 49.5q0 33 -23 50.5t-59 17.5zM642 -6q-57 0 -92 25.5t-35 71.5q0 34 21 57t56 29v2
q-68 16 -68 84q0 45 32.5 71t85.5 26t85.5 -26t32.5 -71q0 -33 -18 -54.5t-50 -29.5v-2q35 -6 55.5 -29t20.5 -57q0 -46 -34.5 -71.5t-91.5 -25.5zM642 326q-35 0 -56.5 -17t-21.5 -47t22.5 -47.5t55.5 -17.5t55.5 17.5t22.5 47.5t-21.5 47t-56.5 17z" />
    <glyph glyph-name="uni215C" unicode="&#x215c;" horiz-adv-x="784" 
d="M174 421v-3q47 -3 74 -27.5t27 -64.5q0 -45 -34 -70.5t-87 -25.5q-54 0 -86.5 22.5t-38.5 59.5l39 14q6 -29 29 -45.5t57 -16.5q35 0 55.5 17t20.5 48q0 72 -117 73v32q106 4 106 68q0 28 -18 43t-48 15q-59 0 -71 -58l-39 13q8 36 37 58.5t76 22.5q46 0 76.5 -22.5
t30.5 -66.5q0 -36 -22.5 -59t-66.5 -27zM206 0l324 590h40l-323 -590h-41zM620 162q-36 0 -59 -17.5t-23 -50.5q0 -32 22 -49.5t60 -17.5t60 17.5t22 49.5q0 33 -23 50.5t-59 17.5zM620 -6q-57 0 -91.5 25.5t-34.5 71.5q0 34 20.5 57t55.5 29v2q-32 8 -50 29.5t-18 54.5
q0 45 32.5 71t85.5 26t85.5 -26t32.5 -71q0 -33 -18 -54.5t-50 -29.5v-2q35 -6 56 -29t21 -57q0 -46 -35 -71.5t-92 -25.5zM620 326q-35 0 -56.5 -17t-21.5 -47t22.5 -47.5t55.5 -17.5t55.5 17.5t22.5 47.5t-21.5 47t-56.5 17z" />
    <glyph glyph-name="uni215D" unicode="&#x215d;" horiz-adv-x="785" 
d="M65 400l8 189h188v-37h-152l-6 -120q23 30 71 30q47 0 75.5 -28.5t28.5 -82.5q0 -58 -34.5 -89.5t-95.5 -31.5q-49 0 -80 23.5t-35 61.5l38 14q10 -65 81 -65q38 0 61 21t23 62q0 38 -20 59.5t-53 21.5q-39 0 -63 -28h-35zM207 0l324 590h41l-323 -590h-42zM622 162
q-36 0 -59 -17.5t-23 -50.5q0 -32 22 -49.5t60 -17.5t60 17.5t22 49.5q0 33 -23 50.5t-59 17.5zM622 -6q-57 0 -92 25.5t-35 71.5q0 33 21 56.5t56 29.5v2q-32 8 -50 29.5t-18 54.5q0 45 32.5 71t85.5 26t85.5 -26t32.5 -71q0 -33 -18 -54.5t-50 -29.5v-2q35 -6 55.5 -29
t20.5 -57q0 -46 -34.5 -71.5t-91.5 -25.5zM622 326q-35 0 -56.5 -17t-21.5 -47t22.5 -47.5t55.5 -17.5t55.5 17.5t22.5 47.5t-21.5 47t-56.5 17z" />
    <glyph glyph-name="uni215E" unicode="&#x215e;" horiz-adv-x="725" 
d="M233 551h-161v-55h-39v93h248v-24l-141 -329h-43zM147 0l324 590h41l-324 -590h-41zM561 162q-36 0 -59 -17.5t-23 -50.5q0 -32 22 -49.5t60 -17.5t60.5 17.5t22.5 49.5q0 33 -23.5 50.5t-59.5 17.5zM561 -6q-57 0 -91.5 25.5t-34.5 71.5q0 34 20.5 57t55.5 29v2
q-32 8 -50 29.5t-18 54.5q0 45 32.5 71t85.5 26t85.5 -26t32.5 -71q0 -68 -68 -84v-2q35 -6 56 -29t21 -57q0 -46 -35 -71.5t-92 -25.5zM561 326q-34 0 -56 -17.5t-22 -46.5q0 -30 22.5 -47.5t55.5 -17.5q34 0 56.5 17.5t22.5 47.5t-22 47t-57 17z" />
    <glyph glyph-name="arrowleft" unicode="&#x2190;" horiz-adv-x="670" 
d="M111 318h509v-48h-510l239 -248l-36 -33l-291 304l291 305l37 -32z" />
    <glyph glyph-name="arrowup" unicode="&#x2191;" horiz-adv-x="690" 
d="M370 511v-511h-49v512l-248 -239l-33 36l304 291l305 -291l-32 -37z" />
    <glyph glyph-name="arrowright" unicode="&#x2192;" horiz-adv-x="670" 
d="M35 318h509l-237 248l37 32l289 -305l-288 -304l-36 33l237 248h-511v48z" />
    <glyph glyph-name="arrowdown" unicode="&#x2193;" horiz-adv-x="694" 
d="M320 78v511h49v-512l248 240l32 -36l-303 -292l-306 292l33 36z" />
    <glyph glyph-name="uni2196" unicode="&#x2196;" horiz-adv-x="692" 
d="M637 0l-505 508v-399h-47v480h467v-46h-387l507 -508z" />
    <glyph glyph-name="uni2197" unicode="&#x2197;" horiz-adv-x="692" 
d="M527 543h-388v46h467v-480h-46v399l-505 -508l-35 35z" />
    <glyph glyph-name="uni2198" unicode="&#x2198;" horiz-adv-x="692" 
d="M55 589l505 -507v398h46v-480h-467v46h388l-507 508z" />
    <glyph glyph-name="uni2199" unicode="&#x2199;" horiz-adv-x="692" 
d="M132 82l505 507l35 -35l-507 -508h387v-46h-467v480h47v-398z" />
    <glyph glyph-name="partialdiff" unicode="&#x2202;" horiz-adv-x="493" 
d="M138 639l29 32q129 -52 203.5 -167.5t74.5 -254.5q0 -127 -52.5 -191.5t-146.5 -64.5q-93 0 -145 62t-52 177q0 114 51 175t138 61q90 0 131 -65h2q-63 158 -233 236zM393 232q0 94 -38.5 143t-110.5 49q-71 0 -108 -49t-37 -143t37.5 -144.5t109.5 -50.5t109.5 50.5
t37.5 144.5z" />
    <glyph glyph-name="increment" unicode="&#x2206;" horiz-adv-x="532" 
d="M514 0h-495l212 589h71zM441 45l-128 365l-46 141h-4q-16 -57 -45 -140l-128 -366h351z" />
    <glyph glyph-name="product" unicode="&#x220f;" horiz-adv-x="594" 
d="M136 -202h-52v791h426v-791h-52v742h-322v-742z" />
    <glyph glyph-name="summation" unicode="&#x2211;" horiz-adv-x="433" 
d="M393 543h-192l-93 2v-3q28 -26 66 -70l151 -177l-156 -178l-65 -70v-3q29 2 92 2h197v-46h-384l250 295l-250 294h384v-46z" />
    <glyph glyph-name="minus" unicode="&#x2212;" horiz-adv-x="507" 
d="M49 231v34h408v-34h-408z" />
    <glyph glyph-name="radical" unicode="&#x221a;" horiz-adv-x="567" 
d="M178 456l140 -397h3l188 627l48 -6l-206 -680h-58l-143 383l-105 -59l-21 41z" />
    <glyph glyph-name="infinity" unicode="&#x221e;" horiz-adv-x="868" 
d="M102 252q0 -62 34 -96.5t86 -34.5q68 0 124 60l61 72l-61 71q-53 60 -124 60q-52 0 -86 -34.5t-34 -97.5zM434 222l-57 -66q-63 -77 -154 -77q-75 0 -122 47t-47 126t47 126.5t122 47.5q89 0 154 -76l57 -67l57 67q65 76 154 76q75 0 122 -47.5t47 -126.5t-47 -126
t-122 -47q-91 0 -154 77zM766 252q0 63 -34 97.5t-86 34.5q-72 0 -123 -60l-62 -71l62 -72q51 -60 123 -60q52 0 86 34.5t34 96.5z" />
    <glyph glyph-name="integral" unicode="&#x222b;" horiz-adv-x="263" 
d="M103 -62v593q0 70 36.5 104t93.5 34q47 0 83 -22l-13 -47q-35 25 -71 25q-78 0 -78 -97v-593q0 -70 -36.5 -104.5t-93.5 -34.5q-44 0 -83 22l13 47q36 -25 71 -25q78 0 78 98z" />
    <glyph glyph-name="approxequal" unicode="&#x2248;" horiz-adv-x="507" 
d="M365 264q-39 0 -112.5 25t-110.5 25q-54 0 -93 -48v39q32 45 91 45q37 0 113 -25.5t114 -25.5q49 0 90 50v-44q-35 -41 -92 -41zM365 144q-39 0 -112.5 26t-110.5 26q-53 0 -93 -50v41q33 44 91 44q37 0 113 -25.5t114 -25.5q51 0 90 50v-45q-36 -41 -92 -41z" />
    <glyph glyph-name="notequal" unicode="&#x2260;" horiz-adv-x="507" 
d="M457 291h-137l-78 -93h215v-34h-244l-99 -119l-26 23l80 96h-119v34h148l78 93h-226v35h254l94 112l27 -23l-75 -89h108v-35z" />
    <glyph glyph-name="lessequal" unicode="&#x2264;" horiz-adv-x="405" 
d="M332 460l-221 -171l221 -172l-24 -28l-256 200l256 199zM355 21h-306v34h306v-34z" />
    <glyph glyph-name="greaterequal" unicode="&#x2265;" horiz-adv-x="405" 
d="M294 289l-221 171l24 28l256 -199l-256 -200l-24 28zM355 21h-306v34h306v-34z" />
    <glyph glyph-name="blacksquare" unicode="&#x25a0;" horiz-adv-x="768" 
d="M89 0v589h589v-589h-589z" />
    <glyph glyph-name="whitesquare" unicode="&#x25a1;" horiz-adv-x="768" 
d="M89 0v589h589v-589h-589zM132 546v-503h503v503h-503z" />
    <glyph glyph-name="blacksmallsquare" unicode="&#x25aa;" horiz-adv-x="505" 
d="M89 139v325h326v-325h-326z" />
    <glyph glyph-name="whitesmallsquare" unicode="&#x25ab;" horiz-adv-x="505" 
d="M89 139v325h326v-325h-326zM132 421v-239h240v239h-240z" />
    <glyph glyph-name="triagup" unicode="&#x25b2;" horiz-adv-x="580" 
d="M44 0l245 601l246 -601h-491z" />
    <glyph glyph-name="triagrt" unicode="&#x25ba;" horiz-adv-x="695" 
d="M85 536l601 -245l-601 -246v491z" />
    <glyph glyph-name="triagdn" unicode="&#x25bc;" horiz-adv-x="580" 
d="M289 -12l-245 601h491z" />
    <glyph glyph-name="triaglf" unicode="&#x25c4;" horiz-adv-x="695" 
d="M4 291l601 245v-491z" />
    <glyph glyph-name="lozenge" unicode="&#x25ca;" horiz-adv-x="488" 
d="M438 304l-176 -333h-37l-175 333l175 327h37zM387 303l-142 272l-143 -272l143 -277z" />
    <glyph glyph-name="circle" unicode="&#x25cb;" horiz-adv-x="532" 
d="M49 295q0 90 63 153.5t153 63.5t153.5 -63.5t63.5 -153.5t-63.5 -153t-153.5 -63t-153 63t-63 153zM94 294q0 -72 50.5 -123t121.5 -51t122 51t51 123q0 73 -51 124.5t-122 51.5t-121.5 -51.5t-50.5 -124.5z" />
    <glyph glyph-name="blackcircle" unicode="&#x25cf;" horiz-adv-x="712" 
d="M49 294q0 127 89.5 217t216.5 90t217 -90t90 -217t-90 -216.5t-217 -89.5t-216.5 89.5t-89.5 216.5z" />
    <glyph glyph-name="whitecircle" unicode="&#x25ef;" horiz-adv-x="712" 
d="M49 294q0 127 89.5 217t216.5 90t217 -90t90 -217t-90 -216.5t-217 -89.5t-216.5 89.5t-89.5 216.5zM93 293q0 -110 76.5 -187.5t185.5 -77.5q108 0 185 78t77 187q0 110 -77 188.5t-185 78.5q-109 0 -185.5 -78.5t-76.5 -188.5z" />
    <glyph glyph-name="anglebracketleft" unicode="&#x3008;" horiz-adv-x="318" 
d="M273 -203h-47l-167 438l167 433h47l-162 -434z" />
    <glyph glyph-name="anglebracketright" unicode="&#x3009;" horiz-adv-x="318" 
d="M92 -203h-47l163 437l-163 434h47l167 -433z" />
    <glyph glyph-name="lcedilla" unicode="&#xe100;" horiz-adv-x="225" 
d="M228 -126q0 -39 -26 -59t-67 -20q-57 0 -88 40l19 33q28 -39 69 -39q49 0 49 45q0 49 -80 52l10 76q-44 19 -44 80v586h51v-579q0 -50 43 -50q14 0 31 5v-44q-21 -5 -40 -5q-10 0 -12 1l-6 -42q43 -4 67 -24.5t24 -55.5z" />
    <glyph glyph-name="uni004500600323" unicode="&#xe101;" horiz-adv-x="474" 
d="M422 46v-46h-335v589h335v-46h-282v-225h251v-46h-251v-226h282zM216 -139q0 17 10.5 28t26.5 11q17 0 28 -11t11 -28q0 -16 -11.5 -27t-27.5 -11t-26.5 11t-10.5 27zM274 642h-45l64 121h70z" />
    <glyph glyph-name="uni006500600323" unicode="&#xe102;" horiz-adv-x="458" 
d="M245 32q98 0 122 91l45 -10q-24 -122 -171 -122q-91 0 -143 61.5t-52 177.5q0 114 53 177.5t145 63.5q81 0 125 -51t44 -133q0 -29 -6 -59h-312q0 -93 39.5 -144.5t110.5 -51.5zM97 270h265q1 9 1 27q0 58 -32.5 95t-89.5 37q-64 0 -100.5 -41.5t-43.5 -117.5zM261 533
h-42l71 136h70zM207 -139q0 17 10.5 28t26.5 11t27 -11t11 -28q0 -16 -11 -27t-27 -11t-26.5 11t-10.5 27z" />
    <glyph glyph-name="uni004500B40323" unicode="&#xe103;" horiz-adv-x="474" 
d="M422 46v-46h-335v589h335v-46h-282v-225h251v-46h-251v-226h282zM216 -139q0 17 10.5 28t26.5 11q17 0 28 -11t11 -28q0 -16 -11.5 -27t-27.5 -11t-26.5 11t-10.5 27zM279 642h-45l-89 121h70z" />
    <glyph glyph-name="uni006500B40323" unicode="&#xe104;" horiz-adv-x="458" 
d="M245 32q98 0 122 91l45 -10q-24 -122 -171 -122q-91 0 -143 61.5t-52 177.5q0 114 53 177.5t145 63.5q81 0 125 -51t44 -133q0 -29 -6 -59h-312q0 -93 39.5 -144.5t110.5 -51.5zM97 270h265q1 9 1 27q0 58 -32.5 95t-89.5 37q-64 0 -100.5 -41.5t-43.5 -117.5zM270 533
h-42l-99 136h71zM207 -139q0 17 10.5 28t26.5 11t27 -11t11 -28q0 -16 -11 -27t-27 -11t-26.5 11t-10.5 27z" />
    <glyph glyph-name="Gtilde" unicode="&#xe105;" horiz-adv-x="594" 
d="M315 288h212v-288h-46l-7 101q-15 -51 -62.5 -80.5t-108.5 -29.5q-117 0 -186 79t-69 223q0 145 72 225t192 80q157 0 210 -140l-47 -23q-42 118 -166 118q-98 0 -152 -69t-54 -191q0 -119 52.5 -188t149.5 -69q72 0 120.5 39t48.5 120v45h-159v48zM383 647q-6 0 -12 0.5
t-12 3t-9.5 3.5t-10 5t-9 5.5t-10 6.5t-9.5 6t-8.5 6t-8.5 6t-7.5 4.5t-8 4.5t-7 3t-7.5 3t-7 1.5t-8 0.5q-44 0 -33 -59h-33q-16 43 2.5 74t58.5 31q34 0 78 -31q39 -28 58 -28q43 0 33 61h35q15 -46 -3.5 -76.5t-61.5 -30.5z" />
    <glyph glyph-name="gtilde" unicode="&#xe106;" horiz-adv-x="460" 
d="M222 471q86 0 134 -51q36 20 41 82l46 -15q-7 -71 -67 -93q20 -35 20 -84q0 -74 -48.5 -116t-124.5 -42q-39 0 -67 10q-39 -18 -39 -54q0 -48 67 -48h105q71 0 111.5 -30t40.5 -93q0 -42 -20.5 -72t-55.5 -46t-73.5 -23t-82.5 -7q-55 0 -96.5 10.5t-71 40.5t-29.5 77
q0 51 34 82t89 34q-30 2 -46.5 20.5t-16.5 46.5q0 54 58 72q-81 40 -81 138q0 74 47 117.5t126 43.5zM61 -79q0 -93 152 -93q79 0 129 24.5t50 79.5q0 82 -104 82h-98q-129 0 -129 -93zM99 311q0 -55 33 -87.5t90 -32.5q56 0 89.5 31.5t33.5 88.5t-33.5 88.5t-89.5 31.5
q-57 -1 -90 -32.5t-33 -87.5zM297 539q-28 0 -71 29q-2 1 -8.5 6t-8.5 6t-7.5 4.5t-8 4.5t-7 3t-7.5 3t-7 1.5t-8 0.5q-45 0 -34 -59h-33q-16 44 3 74t59 30q33 0 78 -32l9 -6t8 -5.5t6.5 -4.5t7 -4t6.5 -3t7 -2.5t6.5 -1t7.5 -0.5q41 0 33 61h34q16 -46 -2.5 -75.5
t-62.5 -29.5z" />
    <glyph glyph-name="Gcommaturnedabove" unicode="&#xe107;" horiz-adv-x="594" 
d="M315 288h212v-288h-46l-7 101q-15 -51 -62.5 -80.5t-108.5 -29.5q-117 0 -186 79t-69 223q0 145 72 225t192 80q157 0 210 -140l-47 -23q-42 118 -166 118q-98 0 -152 -69t-54 -191q0 -119 52.5 -188t149.5 -69q72 0 120.5 39t48.5 120v45h-159v48zM259 713q0 87 95 87
v-26q-56 -2 -57 -47q0 -5 2 -9q5 5 13 5q15 0 23.5 -9.5t8.5 -23.5q0 -16 -10.5 -26t-27.5 -10q-19 0 -33 16t-14 43z" />
    <glyph glyph-name="gcommaturnedabove" unicode="&#xe108;" horiz-adv-x="460" 
d="M222 471q86 0 134 -51q36 20 41 82l46 -15q-7 -71 -67 -93q20 -35 20 -84q0 -74 -48.5 -116t-124.5 -42q-39 0 -67 10q-39 -18 -39 -54q0 -48 67 -48h105q71 0 111.5 -30t40.5 -93q0 -42 -20.5 -72t-55.5 -46t-73.5 -23t-82.5 -7q-55 0 -96.5 10.5t-71 40.5t-29.5 77
q0 51 34 82t89 34q-30 2 -46.5 20.5t-16.5 46.5q0 54 58 72q-81 40 -81 138q0 74 47 117.5t126 43.5zM61 -79q0 -93 152 -93q79 0 129 24.5t50 79.5q0 82 -104 82h-98q-129 0 -129 -93zM99 311q0 -55 33 -87.5t90 -32.5q56 0 89.5 31.5t33.5 88.5t-33.5 88.5t-89.5 31.5
q-57 -1 -90 -32.5t-33 -87.5zM174 603q0 87 95 87v-26q-28 -1 -42 -11.5t-15 -35.5q0 -6 1 -8q8 4 14 4q15 0 23.5 -9t8.5 -24q0 -16 -10.5 -26t-27.5 -10q-19 0 -33 16t-14 43z" />
    <glyph glyph-name="Hmacronbelow" unicode="&#xe109;" horiz-adv-x="620" 
d="M140 0h-53v589h53v-268h340v268h52v-589h-52v274h-340v-274zM430 -168h-240v41h240v-41z" />
    <glyph glyph-name="hmacronbelow" unicode="&#xe10a;" horiz-adv-x="490" 
d="M127 668v-311q15 52 53.5 83t95.5 31q64 0 103 -36t39 -110v-325h-51v312q0 55 -26.5 84.5t-75.5 29.5q-60 0 -99 -42t-39 -122v-262h-51v668h51zM367 -168h-240v41h240v-41z" />
    <glyph glyph-name="Jcaron" unicode="&#xe10b;" horiz-adv-x="426" 
d="M306 589h52v-417q0 -95 -47.5 -138t-124.5 -43q-129 0 -177 118l43 27q22 -53 54 -76.5t82 -23.5q61 0 89.5 36t28.5 113v404zM348 639h-31l-115 126h58l42 -48l29 -38h2q9 15 29 38l43 48h57z" />
    <glyph glyph-name="Kcedilla" unicode="&#xe10d;" horiz-adv-x="500" 
d="M485 0h-66l-229 274h-50v-274h-53v589h53v-268h52l215 268h63l-235 -289zM334 -126q0 -39 -25.5 -59t-66.5 -20q-57 0 -88 40l18 33q28 -39 70 -39q48 0 48 45q0 49 -80 52l11 79h30l-8 -51q43 -4 67 -24.5t24 -55.5z" />
    <glyph glyph-name="kcedilla" unicode="&#xe10e;" horiz-adv-x="429" 
d="M207 246l215 -246h-65l-190 221h-40v-221h-51v668h51v-405h36l177 199h63zM311 -126q0 -39 -25.5 -59t-66.5 -20q-57 0 -88 40l19 33q27 -39 69 -39q49 0 49 45q0 49 -81 52l11 79h30l-7 -51q43 -4 66.5 -24.5t23.5 -55.5z" />
    <glyph glyph-name="Lcedilla" unicode="&#xe10f;" horiz-adv-x="436" 
d="M341 -126q0 -39 -26 -59t-67 -20q-57 0 -88 40l19 33q28 -39 69 -39q49 0 49 45q0 49 -80 52l9 74h-139v589h53v-543h274v-46h-158l-6 -46q43 -4 67 -24.5t24 -55.5z" />
    <glyph glyph-name="ocedilla" unicode="&#xe110;" 
d="M339 -126q0 -39 -25.5 -59t-66.5 -20q-57 0 -88 40l19 33q27 -39 69 -39q48 0 48 45q0 49 -80 52l9 65q-84 7 -131 69.5t-47 172.5q0 115 52.5 176.5t144.5 61.5q94 0 146 -61t52 -177q0 -113 -49.5 -175.5t-137.5 -66.5l-5 -37q43 -4 66.5 -24.5t23.5 -55.5zM243 428
q-147 0 -147 -195q0 -99 37.5 -150t109.5 -51t110 51t38 150q0 195 -148 195z" />
    <glyph glyph-name="Mmacron" unicode="&#xe111;" horiz-adv-x="703" 
d="M463 667h-222v41h222v-41zM372 147h-41l-145 270q-16 30 -28 56.5t-16 37.5l-3 11h-3q3 -37 3 -108v-414h-52v589h65l172 -327l28 -63h3q7 23 28 63l171 327h62v-589h-52v414l3 108h-3q-11 -37 -47 -105z" />
    <glyph glyph-name="mmacron" unicode="&#xe112;" horiz-adv-x="758" 
d="M400 356q15 55 55 85t94 30q64 0 100.5 -35.5t36.5 -107.5v-328h-51v312q0 114 -97 114q-56 0 -93.5 -43t-37.5 -121v-262h-51v312q0 55 -24.5 84.5t-71.5 29.5q-56 0 -94 -43t-38 -121v-262h-51v462h39l7 -105q15 54 54 84t94 30q116 0 129 -115zM493 564h-222v43h222
v-43z" />
    <glyph glyph-name="Mcedilla" unicode="&#xe113;" horiz-adv-x="703" 
d="M442 -126q0 -39 -26 -59t-67 -20q-57 0 -87 40l18 33q28 -39 69 -39q49 0 49 45q0 49 -80 52l10 79h31l-8 -51q43 -4 67 -24.5t24 -55.5zM372 147h-41l-145 270q-16 30 -28 56.5t-16 37.5l-3 11h-3q3 -37 3 -108v-414h-52v589h65l172 -327l28 -63h3q7 23 28 63l171 327
h62v-589h-52v414l3 108h-3q-11 -37 -47 -105z" />
    <glyph glyph-name="mcedilla" unicode="&#xe114;" horiz-adv-x="758" 
d="M478 -126q0 -39 -25.5 -59t-66.5 -20q-57 0 -88 40l19 33q27 -39 69 -39q49 0 49 45q0 49 -81 52l9 72l-7 4v310q0 55 -24.5 84.5t-71.5 29.5q-56 0 -94 -43t-38 -121v-262h-51v462h39l7 -105q15 54 54 84t94 30q116 0 129 -115q15 55 55 85t94 30q64 0 100.5 -35.5
t36.5 -107.5v-328h-51v312q0 114 -97 114q-56 0 -93.5 -43t-37.5 -121v-262h-13l-6 -46q43 -4 66.5 -24.5t23.5 -55.5z" />
    <glyph glyph-name="Ndieresis" unicode="&#xe115;" horiz-adv-x="629" 
d="M190 690q0 16 11 27t27 11t27 -11t11 -27t-11 -27t-27 -11t-27 11t-11 27zM362 689q0 16 11 27t27 11t27 -11t11 -27t-11 -27t-27 -11t-27 11t-11 27zM144 589l280 -410q17 -24 33.5 -51.5t24.5 -42.5l8 -15h3q-3 58 -3 124v395h52v-589h-56l-281 410q-16 24 -32.5 51
t-24.5 43l-9 15h-4q4 -58 4 -124v-395h-52v589h57z" />
    <glyph glyph-name="ndieresis" unicode="&#xe116;" horiz-adv-x="492" 
d="M116 462l7 -106q16 53 56.5 84t98.5 31q64 0 102.5 -36t38.5 -110v-325h-51v312q0 55 -26.5 84.5t-75.5 29.5q-59 0 -98.5 -42t-39.5 -122v-262h-51v462h39zM127 595q0 16 11 27t27 11t27 -11t11 -27t-11 -27t-27 -11t-27 11t-11 27zM299 594q0 16 11 27t27 11t27 -11
t11 -27q0 -15 -11 -26t-27 -11t-27 11t-11 26z" />
    <glyph glyph-name="Nmacron" unicode="&#xe117;" horiz-adv-x="629" 
d="M425 667h-221v41h221v-41zM144 589l280 -410q17 -24 33.5 -51.5t24.5 -42.5l8 -15h3q-3 58 -3 124v395h52v-589h-56l-281 410q-16 24 -32.5 51t-24.5 43l-9 15h-4q4 -58 4 -124v-395h-52v589h57z" />
    <glyph glyph-name="nmacron" unicode="&#xe118;" horiz-adv-x="492" 
d="M116 462l7 -106q16 53 56.5 84t98.5 31q64 0 102.5 -36t38.5 -110v-325h-51v312q0 55 -26.5 84.5t-75.5 29.5q-59 0 -98.5 -42t-39.5 -122v-262h-51v462h39zM363 564h-222v43h222v-43z" />
    <glyph glyph-name="Ncedilla" unicode="&#xe119;" horiz-adv-x="629" 
d="M405 -126q0 -39 -26 -59t-67 -20q-57 0 -88 40l19 33q28 -39 69 -39q49 0 49 45q0 49 -80 52l10 79h30l-7 -51q43 -4 67 -24.5t24 -55.5zM144 589l280 -410q17 -24 33.5 -51.5t24.5 -42.5l8 -15h3q-3 58 -3 124v395h52v-589h-56l-281 410q-16 24 -32.5 51t-24.5 43l-9 15
h-4q4 -58 4 -124v-395h-52v589h57z" />
    <glyph glyph-name="ncedilla" unicode="&#xe11a;" horiz-adv-x="492" 
d="M116 462l7 -106q16 53 56.5 84t98.5 31q64 0 102.5 -36t38.5 -110v-325h-51v312q0 55 -26.5 84.5t-75.5 29.5q-59 0 -98.5 -42t-39.5 -122v-262h-51v462h39zM342 -126q0 -39 -25.5 -59t-66.5 -20q-57 0 -88 40l18 33q28 -39 70 -39q48 0 48 45q0 49 -80 52l11 79h30
l-8 -51q43 -4 67 -24.5t24 -55.5z" />
    <glyph glyph-name="Ocommaturnedabove" unicode="&#xe11b;" horiz-adv-x="608" 
d="M304 -9q-119 0 -187.5 79.5t-68.5 223.5t68.5 224t187.5 80t187.5 -80t68.5 -224t-68.5 -223.5t-187.5 -79.5zM304 552q-97 0 -149 -68t-52 -190q0 -121 52 -189t149 -68t149.5 68t52.5 189t-52.5 189.5t-149.5 68.5zM256 713q0 87 95 87v-26q-56 -2 -57 -47q0 -2 0.5 -5
t0.5 -4q7 5 14 5q15 0 23.5 -9.5t8.5 -23.5q0 -16 -10.5 -26t-27.5 -10q-19 0 -33 16t-14 43z" />
    <glyph glyph-name="ocommaturnedabove" unicode="&#xe11c;" 
d="M243 -9q-92 0 -144.5 63t-52.5 179q0 115 52.5 176.5t144.5 61.5q94 0 146 -61t52 -177q0 -117 -52.5 -179.5t-145.5 -62.5zM243 428q-147 0 -147 -195q0 -99 37.5 -150t109.5 -51t110 51t38 150q0 195 -148 195zM197 604q0 86 96 86v-25q-57 -2 -57 -48q0 -6 1 -8
q6 4 13 4q15 0 24 -9.5t9 -23.5q0 -16 -10.5 -25.5t-28.5 -9.5q-19 0 -33 15.5t-14 43.5z" />
    <glyph glyph-name="uni004F02D900AF" unicode="&#xe11d;" horiz-adv-x="608" 
d="M304 -9q-119 0 -187.5 79.5t-68.5 223.5t68.5 224t187.5 80t187.5 -80t68.5 -224t-68.5 -223.5t-187.5 -79.5zM304 552q-97 0 -149 -68t-52 -190q0 -121 52 -189t149 -68t149.5 68t52.5 189t-52.5 189.5t-149.5 68.5zM266 676q0 16 11 27t27 11t27 -11t11 -27t-11 -27
t-27 -11t-27 11t-11 27zM415 753h-221v41h221v-41z" />
    <glyph glyph-name="Ocedilla" unicode="&#xe11f;" horiz-adv-x="608" 
d="M395 -126q0 -39 -26 -59t-67 -20q-57 0 -88 40l19 33q28 -39 69 -39q49 0 49 45q0 49 -81 52l9 66q-108 8 -169.5 87t-61.5 215q0 144 68.5 224t187.5 80t187.5 -80t68.5 -224q0 -143 -67 -222t-184 -81l-5 -37q43 -4 67 -24.5t24 -55.5zM304 552q-97 0 -149 -68
t-52 -190q0 -121 52 -189t149 -68t149.5 68t52.5 189t-52.5 189.5t-149.5 68.5z" />
    <glyph glyph-name="Ounderlineaccent" unicode="&#xe121;" horiz-adv-x="608" 
d="M304 -9q-119 0 -187.5 79.5t-68.5 223.5t68.5 224t187.5 80t187.5 -80t68.5 -224t-68.5 -223.5t-187.5 -79.5zM304 552q-97 0 -149 -68t-52 -190q0 -121 52 -189t149 -68t149.5 68t52.5 189t-52.5 189.5t-149.5 68.5zM326 -196l-42 -2v143h42v-141z" />
    <glyph glyph-name="ounderlineaccent" unicode="&#xe122;" 
d="M243 -9q-92 0 -144.5 63t-52.5 179q0 115 52.5 176.5t144.5 61.5q94 0 146 -61t52 -177q0 -117 -52.5 -179.5t-145.5 -62.5zM243 428q-147 0 -147 -195q0 -99 37.5 -150t109.5 -51t110 51t38 150q0 195 -148 195zM264 -196l-42 -2v143h42v-141z" />
    <glyph glyph-name="Pmacron" unicode="&#xe123;" horiz-adv-x="475" 
d="M140 544v-268h104q77 0 111.5 34t34.5 103q0 131 -147 131h-103zM140 0h-53v589h158q200 0 200 -174q0 -89 -49.5 -136t-146.5 -47h-109v-232zM351 667h-222v41h222v-41z" />
    <glyph glyph-name="pmacron" unicode="&#xe124;" horiz-adv-x="514" 
d="M128 267v-86q0 -74 40.5 -112t96.5 -38q67 0 109 52t42 153q0 94 -38 142.5t-104 48.5q-62 0 -103.5 -41.5t-42.5 -118.5zM128 82v-285h-51v665h41l6 -102q17 54 61 82.5t99 28.5q85 0 134.5 -59.5t49.5 -171.5q0 -113 -53 -181t-144 -68q-56 0 -92.5 25.5t-50.5 65.5z
M384 564h-222v43h222v-43z" />
    <glyph glyph-name="Rdoublegrave" unicode="&#xe125;" horiz-adv-x="530" 
d="M494 0h-58q-19 22 -28 59l-24 105q-12 52 -43.5 73.5t-89.5 21.5h-111v-259h-53v589h182q193 0 193 -162q0 -67 -39.5 -105.5t-97.5 -41.5v-2q44 -5 69.5 -27.5t38.5 -71.5l28 -114q10 -39 33 -65zM140 544v-240h128q139 0 139 120t-139 120h-128zM342 642h-38l-94 121
h67zM220 642h-39l-99 121h67z" />
    <glyph glyph-name="rdoublegrave" unicode="&#xe126;" horiz-adv-x="329" 
d="M280 533h-39l-93 136h66zM158 533h-40l-99 136h68zM309 465l-5 -56q-15 7 -43 7q-58 0 -95.5 -50t-37.5 -126v-240h-51v462h42l7 -131q11 64 50.5 101.5t101.5 37.5q18 0 31 -5z" />
    <glyph glyph-name="Rcedilla" unicode="&#xe127;" horiz-adv-x="530" 
d="M494 0h-58q-19 22 -28 59l-24 105q-12 52 -43.5 73.5t-89.5 21.5h-111v-259h-53v589h182q193 0 193 -162q0 -67 -39.5 -105.5t-97.5 -41.5v-2q44 -5 69.5 -27.5t38.5 -71.5l28 -114q10 -39 33 -65zM140 544v-240h128q139 0 139 120t-139 120h-128zM345 -126
q0 -39 -26 -59t-67 -20q-57 0 -87 40l18 33q28 -39 69 -39q49 0 49 45q0 49 -80 52l10 79h31l-8 -51q43 -4 67 -24.5t24 -55.5z" />
    <glyph glyph-name="rcedilla" unicode="&#xe128;" horiz-adv-x="329" 
d="M201 -126q0 -39 -26 -59t-67 -20q-57 0 -88 40l19 33q28 -39 69 -39q49 0 49 45q0 49 -81 52l10 74h-9v462h42l7 -131q11 64 50.5 101.5t101.5 37.5q18 0 31 -5l-5 -56q-15 7 -43 7q-58 0 -95.5 -50t-37.5 -126v-240h-12l-6 -46q43 -4 67 -24.5t24 -55.5z" />
    <glyph glyph-name="Tcedilla" unicode="&#xe129;" horiz-adv-x="465" 
d="M330 -126q0 -39 -26 -59t-67 -20q-57 0 -88 40l19 33q28 -39 69 -39q49 0 49 45q0 49 -80 52l9 73l-9 3v541h-192v46h437v-46h-192v-543h-14l-6 -46q43 -4 67 -24.5t24 -55.5z" />
    <glyph glyph-name="tcedilla" unicode="&#xe12a;" horiz-adv-x="307" 
d="M254 -126q0 -39 -26 -59t-67 -20q-57 0 -87 40l18 33q28 -39 69 -39q49 0 49 45q0 49 -80 52l9 74q-60 23 -60 108v312h-67v42h67v98l52 7v-105h137v-42h-138v-303q0 -82 67 -82q44 0 79 28l14 -41q-35 -31 -99 -31q-15 0 -22 2l-6 -39q43 -4 67 -24.5t24 -55.5z" />
    <glyph glyph-name="Umacronbelow" unicode="&#xe12b;" horiz-adv-x="574" 
d="M454 589h52v-388q0 -107 -62.5 -158.5t-156.5 -51.5q-95 0 -157 51.5t-62 158.5v388h53v-377q0 -91 46 -134t120 -43q75 0 121 43t46 132v379zM407 -168h-240v41h240v-41z" />
    <glyph glyph-name="umacronbelow" unicode="&#xe12c;" 
d="M367 0l-7 101q-15 -53 -54 -81.5t-96 -28.5q-141 0 -141 152v319h51v-313q0 -119 103 -119q56 0 96 44.5t40 119.5v268h51v-462h-43zM360 -168h-240v41h240v-41z" />
    <glyph glyph-name="R.alt" unicode="&#xe141;" horiz-adv-x="512" 
d="M308 258l186 -258h-62l-180 252h-112v-252h-53v589h168q197 0 197 -168q0 -70 -40 -112t-104 -51zM140 544v-249h118q139 0 139 123q0 126 -139 126h-118z" />
    <glyph glyph-name="Racute.alt" unicode="&#xe142;" horiz-adv-x="512" 
d="M308 258l186 -258h-62l-180 252h-112v-252h-53v589h168q197 0 197 -168q0 -70 -40 -112t-104 -51zM140 544v-249h118q139 0 139 123q0 126 -139 126h-118zM253 642h-45l64 121h70z" />
    <glyph glyph-name="Rcaron.alt" unicode="&#xe143;" horiz-adv-x="512" 
d="M308 258l186 -258h-62l-180 252h-112v-252h-53v589h168q197 0 197 -168q0 -70 -40 -112t-104 -51zM140 544v-249h118q139 0 139 123q0 126 -139 126h-118zM259 639h-31l-114 126h58l42 -48l29 -38h2q9 15 29 38l42 48h58z" />
    <glyph glyph-name="Rinvertedbreve.alt" unicode="&#xe144;" horiz-adv-x="512" 
d="M308 258l186 -258h-62l-180 252h-112v-252h-53v589h168q197 0 197 -168q0 -70 -40 -112t-104 -51zM140 544v-249h118q139 0 139 123q0 126 -139 126h-118zM240 765q57 0 88.5 -32.5t31.5 -90.5h-42q-5 83 -78 83t-78 -83h-42q0 58 31.5 90.5t88.5 32.5z" />
    <glyph glyph-name="Rdoublegrave.alt" unicode="&#xe145;" horiz-adv-x="512" 
d="M308 258l186 -258h-62l-180 252h-112v-252h-53v589h168q197 0 197 -168q0 -70 -40 -112t-104 -51zM140 544v-249h118q139 0 139 123q0 126 -139 126h-118zM338 642h-39l-93 121h67zM216 642h-40l-99 121h68z" />
    <glyph glyph-name="Rcommaaccent.alt" unicode="&#xe146;" horiz-adv-x="512" 
d="M308 258l186 -258h-62l-180 252h-112v-252h-53v589h168q197 0 197 -168q0 -70 -40 -112t-104 -51zM140 544v-249h118q139 0 139 123q0 126 -139 126h-118zM309 -145q0 -87 -95 -87v26q28 1 42 11.5t15 35.5q0 4 -2 8q-6 -4 -13 -4q-15 0 -23.5 9t-8.5 24q0 16 10.5 26
t27.5 10q19 0 33 -16t14 -43z" />
    <glyph glyph-name="Rcedilla.alt" unicode="&#xe147;" horiz-adv-x="512" 
d="M308 258l186 -258h-62l-180 252h-112v-252h-53v589h168q197 0 197 -168q0 -70 -40 -112t-104 -51zM140 544v-249h118q139 0 139 123q0 126 -139 126h-118zM353 -126q0 -39 -26 -59t-67 -20q-57 0 -87 40l18 33q28 -39 69 -39q49 0 49 45q0 49 -80 52l10 79h30l-7 -51
q43 -4 67 -24.5t24 -55.5z" />
    <glyph glyph-name="Rdotbelow.alt" unicode="&#xe148;" horiz-adv-x="512" 
d="M308 258l186 -258h-62l-180 252h-112v-252h-53v589h168q197 0 197 -168q0 -70 -40 -112t-104 -51zM140 544v-249h118q139 0 139 123q0 126 -139 126h-118zM217 -139q0 17 10.5 28t26.5 11t27.5 -11t11.5 -28q0 -16 -11.5 -27t-27.5 -11t-26.5 11t-10.5 27z" />
    <glyph glyph-name="Rdotbelowmacron.alt" unicode="&#xe149;" horiz-adv-x="512" 
d="M308 258l186 -258h-62l-180 252h-112v-252h-53v589h168q197 0 197 -168q0 -70 -40 -112t-104 -51zM140 544v-249h118q139 0 139 123q0 126 -139 126h-118zM221 -139q0 16 11 27.5t27 11.5t27 -11t11 -28q0 -16 -11 -27t-27 -11t-27 11t-11 27zM348 667h-222v41h222v-41z
" />
    <glyph glyph-name="aogonek.school" unicode="&#xe150;" horiz-adv-x="514" 
d="M386 380l16 82h35v-462q-44 -12 -72.5 -41t-28.5 -69q0 -54 48 -54q39 0 62 38l21 -25q-28 -50 -90 -50q-42 0 -65 22.5t-23 62.5q0 82 102 129l-5 84q-17 -52 -58 -79t-98 -27q-80 0 -132 60.5t-52 172.5q0 119 53 183t148 64q52 0 89.5 -26.5t49.5 -64.5zM386 188v94
q0 72 -41.5 109.5t-96.5 37.5q-69 0 -110 -50t-41 -154q0 -94 39.5 -143t106.5 -49q57 0 99.5 40t43.5 115z" />
    <glyph glyph-name="a.school" unicode="&#xe151;" horiz-adv-x="514" 
d="M386 188v94q0 72 -41.5 109.5t-96.5 37.5q-69 0 -110 -50t-41 -154q0 -94 39.5 -143t106.5 -49q57 0 99.5 40t43.5 115zM386 380l16 82h35v-462h-44l-7 97q-17 -52 -58 -79t-98 -27q-80 0 -132 60.5t-52 172.5q0 119 53 183t148 64q52 0 89.5 -26.5t49.5 -64.5z" />
    <glyph glyph-name="agrave.school" unicode="&#xe152;" horiz-adv-x="514" 
d="M386 188v94q0 72 -41.5 109.5t-96.5 37.5q-69 0 -110 -50t-41 -154q0 -94 39.5 -143t106.5 -49q57 0 99.5 40t43.5 115zM386 380l16 82h35v-462h-44l-7 97q-17 -52 -58 -79t-98 -27q-80 0 -132 60.5t-52 172.5q0 119 53 183t148 64q52 0 89.5 -26.5t49.5 -64.5zM275 533
h-42l-99 136h70z" />
    <glyph glyph-name="aacute.school" unicode="&#xe153;" horiz-adv-x="514" 
d="M386 188v94q0 72 -41.5 109.5t-96.5 37.5q-69 0 -110 -50t-41 -154q0 -94 39.5 -143t106.5 -49q57 0 99.5 40t43.5 115zM386 380l16 82h35v-462h-44l-7 97q-17 -52 -58 -79t-98 -27q-80 0 -132 60.5t-52 172.5q0 119 53 183t148 64q52 0 89.5 -26.5t49.5 -64.5zM274 533
h-42l71 136h70z" />
    <glyph glyph-name="acircumflex.school" unicode="&#xe154;" horiz-adv-x="514" 
d="M386 188v94q0 72 -41.5 109.5t-96.5 37.5q-69 0 -110 -50t-41 -154q0 -94 39.5 -143t106.5 -49q57 0 99.5 40t43.5 115zM386 380l16 82h35v-462h-44l-7 97q-17 -52 -58 -79t-98 -27q-80 0 -132 60.5t-52 172.5q0 119 53 183t148 64q52 0 89.5 -26.5t49.5 -64.5zM238 669
h28l115 -136h-54l-45 53l-29 41h-3q-9 -17 -29 -41l-44 -53h-55z" />
    <glyph glyph-name="adieresis.school" unicode="&#xe155;" horiz-adv-x="514" 
d="M386 188v94q0 72 -41.5 109.5t-96.5 37.5q-69 0 -110 -50t-41 -154q0 -94 39.5 -143t106.5 -49q57 0 99.5 40t43.5 115zM386 380l16 82h35v-462h-44l-7 97q-17 -52 -58 -79t-98 -27q-80 0 -132 60.5t-52 172.5q0 119 53 183t148 64q52 0 89.5 -26.5t49.5 -64.5zM140 595
q0 16 11 27t27 11t27 -11t11 -27t-11 -27t-27 -11t-27 11t-11 27zM312 594q0 16 11 27t27 11t26.5 -11t10.5 -27q0 -15 -10.5 -26t-26.5 -11t-27 11t-11 26z" />
    <glyph glyph-name="atilde.school" unicode="&#xe156;" horiz-adv-x="514" 
d="M386 188v94q0 72 -41.5 109.5t-96.5 37.5q-69 0 -110 -50t-41 -154q0 -94 39.5 -143t106.5 -49q57 0 99.5 40t43.5 115zM386 380l16 82h35v-462h-44l-7 97q-17 -52 -58 -79t-98 -27q-80 0 -132 60.5t-52 172.5q0 119 53 183t148 64q52 0 89.5 -26.5t49.5 -64.5zM319 539
q-27 0 -71 29q-2 1 -8.5 6t-8.5 6t-7.5 4.5t-8 4.5t-7 3t-7.5 3t-7 1.5t-8 0.5q-45 0 -34 -59h-33q-16 44 3 74t59 30q33 0 78 -32l9 -6t8 -5.5t6.5 -4.5t7 -4t6.5 -3t7 -2.5t6.5 -1t7.5 -0.5q43 0 33 61h35q15 -46 -3.5 -75.5t-62.5 -29.5z" />
    <glyph glyph-name="aring.school" unicode="&#xe157;" horiz-adv-x="514" 
d="M386 188v94q0 72 -41.5 109.5t-96.5 37.5q-69 0 -110 -50t-41 -154q0 -94 39.5 -143t106.5 -49q57 0 99.5 40t43.5 115zM386 380l16 82h35v-462h-44l-7 97q-17 -52 -58 -79t-98 -27q-80 0 -132 60.5t-52 172.5q0 119 53 183t148 64q52 0 89.5 -26.5t49.5 -64.5zM252 527
q-41 0 -65 24.5t-24 61.5q0 36 24.5 60t64.5 24t65 -24.5t25 -59.5q0 -37 -24 -61.5t-66 -24.5zM252 670q-26 0 -41.5 -16.5t-15.5 -41.5t15 -40.5t42 -15.5t42 15.5t15 40.5t-15.5 41.5t-41.5 16.5z" />
    <glyph glyph-name="acaron.school" unicode="&#xe158;" horiz-adv-x="514" 
d="M386 188v94q0 72 -41.5 109.5t-96.5 37.5q-69 0 -110 -50t-41 -154q0 -94 39.5 -143t106.5 -49q57 0 99.5 40t43.5 115zM386 380l16 82h35v-462h-44l-7 97q-17 -52 -58 -79t-98 -27q-80 0 -132 60.5t-52 172.5q0 119 53 183t148 64q52 0 89.5 -26.5t49.5 -64.5zM276 533
h-28l-116 136h55l44 -55l29 -41h3q9 17 29 41l45 55h54z" />
    <glyph glyph-name="amacron.school" unicode="&#xe159;" horiz-adv-x="514" 
d="M386 188v94q0 72 -41.5 109.5t-96.5 37.5q-69 0 -110 -50t-41 -154q0 -94 39.5 -143t106.5 -49q57 0 99.5 40t43.5 115zM386 380l16 82h35v-462h-44l-7 97q-17 -52 -58 -79t-98 -27q-80 0 -132 60.5t-52 172.5q0 119 53 183t148 64q52 0 89.5 -26.5t49.5 -64.5zM369 564
h-222v43h222v-43z" />
    <glyph glyph-name="abreve.school" unicode="&#xe15a;" horiz-adv-x="514" 
d="M386 188v94q0 72 -41.5 109.5t-96.5 37.5q-69 0 -110 -50t-41 -154q0 -94 39.5 -143t106.5 -49q57 0 99.5 40t43.5 115zM386 380l16 82h35v-462h-44l-7 97q-17 -52 -58 -79t-98 -27q-80 0 -132 60.5t-52 172.5q0 119 53 183t148 64q52 0 89.5 -26.5t49.5 -64.5zM259 529
q-57 0 -88.5 34t-31.5 95h42q2 -44 20.5 -66.5t57.5 -22.5q74 0 79 89h42q0 -61 -32 -95t-89 -34z" />
    <glyph glyph-name="ainvertedbreve.school" unicode="&#xe15b;" horiz-adv-x="514" 
d="M386 188v94q0 72 -41.5 109.5t-96.5 37.5q-69 0 -110 -50t-41 -154q0 -94 39.5 -143t106.5 -49q57 0 99.5 40t43.5 115zM386 380l16 82h35v-462h-44l-7 97q-17 -52 -58 -79t-98 -27q-80 0 -132 60.5t-52 172.5q0 119 53 183t148 64q52 0 89.5 -26.5t49.5 -64.5zM252 661
q58 0 89.5 -33.5t31.5 -95.5h-42q-2 45 -21 67t-58 22t-57.5 -22t-20.5 -67h-42q0 61 31.5 95t88.5 34z" />
    <glyph glyph-name="adoublegrave.school" unicode="&#xe15c;" horiz-adv-x="514" 
d="M386 188v94q0 72 -41.5 109.5t-96.5 37.5q-69 0 -110 -50t-41 -154q0 -94 39.5 -143t106.5 -49q57 0 99.5 40t43.5 115zM386 380l16 82h35v-462h-44l-7 97q-17 -52 -58 -79t-98 -27q-80 0 -132 60.5t-52 172.5q0 119 53 183t148 64q52 0 89.5 -26.5t49.5 -64.5zM338 533
h-39l-93 136h67zM216 533h-40l-99 136h68z" />
    <glyph glyph-name="adotabove.school" unicode="&#xe15d;" horiz-adv-x="514" 
d="M386 188v94q0 72 -41.5 109.5t-96.5 37.5q-69 0 -110 -50t-41 -154q0 -94 39.5 -143t106.5 -49q57 0 99.5 40t43.5 115zM386 380l16 82h35v-462h-44l-7 97q-17 -52 -58 -79t-98 -27q-80 0 -132 60.5t-52 172.5q0 119 53 183t148 64q52 0 89.5 -26.5t49.5 -64.5zM213 595
q0 16 10.5 27t26.5 11t27.5 -11t11.5 -27t-11.5 -27t-27.5 -11t-26.5 11t-10.5 27z" />
    <glyph glyph-name="aringacute.school" unicode="&#xe15e;" horiz-adv-x="514" 
d="M386 188v94q0 72 -41.5 109.5t-96.5 37.5q-69 0 -110 -50t-41 -154q0 -94 39.5 -143t106.5 -49q57 0 99.5 40t43.5 115zM386 380l16 82h35v-462h-44l-7 97q-17 -52 -58 -79t-98 -27q-80 0 -132 60.5t-52 172.5q0 119 53 183t148 64q52 0 89.5 -26.5t49.5 -64.5zM251 505
q-41 0 -65 24.5t-24 61.5q0 36 24.5 60.5t64.5 24.5t64.5 -24.5t24.5 -60.5q0 -37 -24 -61.5t-65 -24.5zM251 648q-26 0 -41.5 -16.5t-15.5 -41.5t15 -40.5t42 -15.5t42 15.5t15 40.5t-15.5 41.5t-41.5 16.5zM268 709h-45l64 121h69z" />
    <glyph glyph-name="adieresismacron.school" unicode="&#xe15f;" horiz-adv-x="514" 
d="M386 188v94q0 72 -41.5 109.5t-96.5 37.5q-69 0 -110 -50t-41 -154q0 -94 39.5 -143t106.5 -49q57 0 99.5 40t43.5 115zM386 380l16 82h35v-462h-44l-7 97q-17 -52 -58 -79t-98 -27q-80 0 -132 60.5t-52 172.5q0 119 53 183t148 64q52 0 89.5 -26.5t49.5 -64.5zM137 557
q0 16 11 27t27 11t27 -11t11 -27t-11 -27t-27 -11t-27 11t-11 27zM308 556q0 16 11 27t27 11t27 -11t11 -27t-11 -26.5t-27 -10.5t-27 10.5t-11 26.5zM371 650h-222v42h222v-42z" />
    <glyph glyph-name="ytilde.school" unicode="&#xe160;" horiz-adv-x="489" 
d="M71 462h51v-312q0 -120 104 -120q56 0 95.5 44.5t39.5 119.5v268h51v-462q0 -110 -51 -160t-139 -50q-129 0 -174 114l43 22q36 -94 132 -94q138 0 138 162v101q-14 -51 -53.5 -77.5t-95.5 -26.5q-141 0 -141 152v319zM308 539q-27 0 -71 29q-2 1 -8.5 6t-8.5 6t-7.5 4.5
t-8 4.5t-7 3t-7.5 3t-7 1.5t-8 0.5q-45 0 -34 -59h-33q-16 44 3 74t59 30q33 0 78 -32l9 -6t8 -5.5t6.5 -4.5t7 -4t6.5 -3t7 -2.5t6.5 -1t7.5 -0.5q43 0 33 61h35q15 -46 -3.5 -75.5t-62.5 -29.5z" />
    <glyph glyph-name="g.school" unicode="&#xe161;" horiz-adv-x="513" 
d="M437 462v-454q0 -113 -58 -165.5t-142 -52.5q-147 0 -194 115l43 23q38 -96 150 -96q68 0 109 43t41 128v94q-17 -52 -58 -79t-98 -27q-80 0 -132 60.5t-52 172.5q0 117 53 182t148 65q51 0 89 -26.5t50 -64.5l16 82h35zM386 188v94q0 72 -41.5 109.5t-96.5 37.5
q-69 0 -110 -50t-41 -154q0 -94 39.5 -143t106.5 -49q56 0 99.5 40t43.5 115z" />
    <glyph glyph-name="gacute.school" unicode="&#xe162;" horiz-adv-x="513" 
d="M437 462v-454q0 -113 -58 -165.5t-142 -52.5q-147 0 -194 115l43 23q38 -96 150 -96q68 0 109 43t41 128v94q-17 -52 -58 -79t-98 -27q-80 0 -132 60.5t-52 172.5q0 117 53 182t148 65q51 0 89 -26.5t50 -64.5l16 82h35zM386 188v94q0 72 -41.5 109.5t-96.5 37.5
q-69 0 -110 -50t-41 -154q0 -94 39.5 -143t106.5 -49q57 0 99.5 40t43.5 115zM276 533h-43l71 136h71z" />
    <glyph glyph-name="gcircumflex.school" unicode="&#xe163;" horiz-adv-x="513" 
d="M437 462v-454q0 -113 -58 -165.5t-142 -52.5q-147 0 -194 115l43 23q38 -96 150 -96q68 0 109 43t41 128v94q-17 -52 -58 -79t-98 -27q-80 0 -132 60.5t-52 172.5q0 117 53 182t148 65q51 0 89 -26.5t50 -64.5l16 82h35zM386 188v94q0 72 -41.5 109.5t-96.5 37.5
q-69 0 -110 -50t-41 -154q0 -94 39.5 -143t106.5 -49q57 0 99.5 40t43.5 115zM243 669h29l115 -136h-54l-45 53l-29 41h-3q-9 -17 -29 -41l-44 -53h-55z" />
    <glyph glyph-name="gtilde.school" unicode="&#xe164;" horiz-adv-x="513" 
d="M437 462v-454q0 -113 -58 -165.5t-142 -52.5q-147 0 -194 115l43 23q38 -96 150 -96q68 0 109 43t41 128v94q-17 -52 -58 -79t-98 -27q-80 0 -132 60.5t-52 172.5q0 117 53 182t148 65q51 0 89 -26.5t50 -64.5l16 82h35zM386 188v94q0 72 -41.5 109.5t-96.5 37.5
q-69 0 -110 -50t-41 -154q0 -94 39.5 -143t106.5 -49q57 0 99.5 40t43.5 115zM328 539q-28 0 -72 29q-3 2 -8 5.5t-7.5 5t-7 4.5t-6.5 4l-6 3t-6.5 3t-6 2t-7 1.5t-6.5 0.5q-45 0 -34 -59h-33q-16 44 2.5 74t59.5 30q31 0 78 -32q38 -27 57 -27q43 0 33 61h35
q15 -46 -3 -75.5t-62 -29.5z" />
    <glyph glyph-name="gcaron.school" unicode="&#xe165;" horiz-adv-x="513" 
d="M437 462v-454q0 -113 -58 -165.5t-142 -52.5q-147 0 -194 115l43 23q38 -96 150 -96q68 0 109 43t41 128v94q-17 -52 -58 -79t-98 -27q-80 0 -132 60.5t-52 172.5q0 117 53 182t148 65q51 0 89 -26.5t50 -64.5l16 82h35zM386 188v94q0 72 -41.5 109.5t-96.5 37.5
q-69 0 -110 -50t-41 -154q0 -94 39.5 -143t106.5 -49q57 0 99.5 40t43.5 115zM266 533h-28l-116 136h55l45 -55l28 -41h4q9 17 29 41l44 55h55z" />
    <glyph glyph-name="gbreve.school" unicode="&#xe166;" horiz-adv-x="513" 
d="M437 462v-454q0 -113 -58 -165.5t-142 -52.5q-147 0 -194 115l43 23q38 -96 150 -96q68 0 109 43t41 128v94q-17 -52 -58 -79t-98 -27q-80 0 -132 60.5t-52 172.5q0 117 53 182t148 65q51 0 89 -26.5t50 -64.5l16 82h35zM386 188v94q0 72 -41.5 109.5t-96.5 37.5
q-69 0 -110 -50t-41 -154q0 -94 39.5 -143t106.5 -49q57 0 99.5 40t43.5 115zM249 529q-57 0 -88.5 34t-31.5 95h42q2 -44 20.5 -66.5t57.5 -22.5q74 0 79 89h42q0 -61 -32 -95t-89 -34z" />
    <glyph glyph-name="gdotaccent.school" unicode="&#xe167;" horiz-adv-x="513" 
d="M437 462v-454q0 -113 -58 -165.5t-142 -52.5q-147 0 -194 115l43 23q38 -96 150 -96q68 0 109 43t41 128v94q-17 -52 -58 -79t-98 -27q-80 0 -132 60.5t-52 172.5q0 117 53 182t148 65q51 0 89 -26.5t50 -64.5l16 82h35zM386 188v94q0 72 -41.5 109.5t-96.5 37.5
q-69 0 -110 -50t-41 -154q0 -94 39.5 -143t106.5 -49q57 0 99.5 40t43.5 115zM211 594q0 16 11 27.5t27 11.5t27 -11t11 -28q0 -15 -11 -26t-27 -11t-27 11t-11 26z" />
    <glyph glyph-name="gcommaaccent.school" unicode="&#xe168;" horiz-adv-x="513" 
d="M437 462v-454q0 -113 -58 -165.5t-142 -52.5q-147 0 -194 115l43 23q38 -96 150 -96q68 0 109 43t41 128v94q-17 -52 -58 -79t-98 -27q-80 0 -132 60.5t-52 172.5q0 117 53 182t148 65q51 0 89 -26.5t50 -64.5l16 82h35zM386 188v94q0 72 -41.5 109.5t-96.5 37.5
q-69 0 -110 -50t-41 -154q0 -94 39.5 -143t106.5 -49q57 0 99.5 40t43.5 115zM203 607q0 87 96 87v-26q-28 -1 -42 -11.5t-15 -35.5q0 -7 1 -9q7 5 14 5q15 0 23.5 -9t8.5 -24q0 -17 -10.5 -26.5t-28.5 -9.5q-19 0 -33 16t-14 43z" />
    <glyph glyph-name="gcommaturnedabove.school" unicode="&#xe169;" horiz-adv-x="513" 
d="M437 462v-454q0 -113 -58 -165.5t-142 -52.5q-147 0 -194 115l43 23q38 -96 150 -96q68 0 109 43t41 128v94q-17 -52 -58 -79t-98 -27q-80 0 -132 60.5t-52 172.5q0 117 53 182t148 65q51 0 89 -26.5t50 -64.5l16 82h35zM386 188v94q0 72 -41.5 109.5t-96.5 37.5
q-69 0 -110 -50t-41 -154q0 -94 39.5 -143t106.5 -49q57 0 99.5 40t43.5 115zM257 617q15 0 23.5 -9t8.5 -24q0 -17 -10.5 -26.5t-28.5 -9.5q-19 0 -33 16t-14 43q0 87 96 87v-26q-28 -1 -42 -11.5t-15 -35.5q0 -7 1 -9q7 5 14 5z" />
    <glyph glyph-name="gstroke.school" unicode="&#xe16a;" horiz-adv-x="513" 
d="M202 -90v28h176q8 30 8 65v94q-17 -52 -58 -79t-98 -27q-80 0 -132 60.5t-52 172.5q0 117 53 182t148 65q51 0 89 -26.5t50 -64.5l16 82h35v-454q0 -36 -8 -70h81v-28h-89q-23 -61 -73 -90.5t-111 -29.5q-147 0 -194 115l43 23q38 -96 150 -96q96 0 131 78h-165zM386 189
v93q0 72 -41.5 109.5t-96.5 37.5q-63 0 -107 -52t-44 -152q0 -94 39.5 -143t106.5 -49q57 0 99.5 40t43.5 116z" />
    <glyph glyph-name="y.school" unicode="&#xe16b;" horiz-adv-x="489" 
d="M71 462h51v-312q0 -120 104 -120q56 0 95.5 44.5t39.5 119.5v268h51v-462q0 -110 -51 -160t-139 -50q-129 0 -174 114l43 22q36 -94 132 -94q138 0 138 162v101q-14 -51 -53.5 -77.5t-95.5 -26.5q-141 0 -141 152v319z" />
    <glyph glyph-name="ygrave.school" unicode="&#xe16c;" horiz-adv-x="489" 
d="M71 462h51v-312q0 -120 104 -120q56 0 95.5 44.5t39.5 119.5v268h51v-462q0 -110 -51 -160t-139 -50q-129 0 -174 114l43 22q36 -94 132 -94q138 0 138 162v101q-14 -51 -53.5 -77.5t-95.5 -26.5q-141 0 -141 152v319zM269 533h-42l-99 136h70z" />
    <glyph glyph-name="yacute.school" unicode="&#xe16d;" horiz-adv-x="489" 
d="M71 462h51v-312q0 -120 104 -120q56 0 95.5 44.5t39.5 119.5v268h51v-462q0 -110 -51 -160t-139 -50q-129 0 -174 114l43 22q36 -94 132 -94q138 0 138 162v101q-14 -51 -53.5 -77.5t-95.5 -26.5q-141 0 -141 152v319zM258 533h-42l71 136h70z" />
    <glyph glyph-name="ycircumflex.school" unicode="&#xe16e;" horiz-adv-x="489" 
d="M71 462h51v-312q0 -120 104 -120q56 0 95.5 44.5t39.5 119.5v268h51v-462q0 -110 -51 -160t-139 -50q-129 0 -174 114l43 22q36 -94 132 -94q138 0 138 162v101q-14 -51 -53.5 -77.5t-95.5 -26.5q-141 0 -141 152v319zM225 669h28l116 -136h-55l-44 53l-29 41h-3
q-9 -17 -29 -41l-45 -53h-54z" />
    <glyph glyph-name="ydieresis.school" unicode="&#xe16f;" horiz-adv-x="489" 
d="M71 462h51v-312q0 -120 104 -120q56 0 95.5 44.5t39.5 119.5v268h51v-462q0 -110 -51 -160t-139 -50q-129 0 -174 114l43 22q36 -94 132 -94q138 0 138 162v101q-14 -51 -53.5 -77.5t-95.5 -26.5q-141 0 -141 152v319zM117 595q0 16 11 27t27 11t27 -11t11 -27t-11 -27
t-27 -11t-27 11t-11 27zM288 594q0 16 11 27t27 11t27 -11t11 -27q0 -15 -11 -26t-27 -11t-27 11t-11 26z" />
    <glyph glyph-name="ymacron.school" unicode="&#xe171;" horiz-adv-x="489" 
d="M71 462h51v-312q0 -120 104 -120q56 0 95.5 44.5t39.5 119.5v268h51v-462q0 -110 -51 -160t-139 -50q-129 0 -174 114l43 22q36 -94 132 -94q138 0 138 162v101q-14 -51 -53.5 -77.5t-95.5 -26.5q-141 0 -141 152v319zM356 564h-222v43h222v-43z" />
    <glyph glyph-name="cordinal" unicode="&#xe181;" horiz-adv-x="321" 
d="M252 375l39 -8q-14 -85 -117 -85q-60 0 -95.5 41t-35.5 117q0 75 36 118t99 43q50 0 78.5 -25t31.5 -73l-42 -7q-8 69 -70 69q-43 0 -65.5 -33.5t-22.5 -90.5t23.5 -90.5t66.5 -33.5q31 0 48.5 13t25.5 45z" />
    </font>
</defs>
</svg>
