<?xml version="1.0" standalone="no"?>
<!DOCTYPE svg PUBLIC "-//W3C//DTD SVG 1.1//EN" "http://www.w3.org/Graphics/SVG/1.1/DTD/svg11.dtd" >
<svg xmlns="http://www.w3.org/2000/svg" xmlns:xlink="http://www.w3.org/1999/xlink" version="1.1">
<metadata>
Created by FontForge 20150102 at Fri Mar 13 11:46:29 2015
 By uniteet7
Copyright (c) 2004-9 by Kris Sowersby. All rights reserved.
</metadata>
<defs>
<font id="NationalLightItalic" horiz-adv-x="518" >
  <font-face 
    font-family="NationalLightItalic"
    font-weight="470"
    font-style="italic"
    font-stretch="normal"
    units-per-em="1000"
    panose-1="0 0 0 0 0 0 0 0 0 0"
    ascent="800"
    descent="-200"
    x-height="462"
    cap-height="589"
    bbox="-153 -257 1187 911"
    underline-thickness="57"
    underline-position="28"
    unicode-range="U+0020-F778"
  />
<missing-glyph horiz-adv-x="755" 
d="M83 0v589h589v-589h-589zM377 264l-221 -221h443zM156 546l221 -222l222 222h-443zM407 294l222 -221v443zM347 294l-221 222v-443z" />
    <glyph glyph-name="f_b" unicode="fb" horiz-adv-x="768" 
d="M298 0l104 599q-34 36 -94 36q-96 0 -117 -112l-10 -61h105l-7 -42h-106l-91 -524q-11 -56 -35.5 -81.5t-69.5 -25.5q-50 0 -76 28l14 40q28 -26 57 -26q26 0 39.5 15.5t19.5 50.5l92 523h-70l8 42h69l12 64q28 149 164 149q70 0 104 -32l45 25h11l-56 -314q21 53 64 85
t99 32q73 0 113 -48.5t40 -139.5q0 -126 -62 -209t-164 -83q-55 0 -93 30t-44 76l-28 -97h-37zM395 262l-14 -79q-10 -61 20.5 -107.5t95.5 -46.5q80 0 128.5 72.5t48.5 179.5q0 70 -30 109t-85 39q-60 0 -106 -47t-58 -120z" />
    <glyph glyph-name="f_f_b" unicode="ffb" horiz-adv-x="1016" 
d="M546 0l105 599q-36 36 -95 36q-95 0 -116 -112l-11 -61h104l-7 -42h-104l-90 -511q-10 -56 -35 -81.5t-70 -25.5q-48 0 -76 28l15 40q26 -26 57 -26q26 0 39.5 15.5t19.5 50.5l90 510h-199l-91 -524q-11 -56 -35.5 -81.5t-69.5 -25.5q-50 0 -76 28l14 40q28 -26 57 -26
q26 0 39.5 15.5t19.5 50.5l92 523h-70l8 42h69l13 70q14 73 47 103.5t85 30.5q53 0 88 -35l-24 -40q-28 31 -64 31q-33 0 -53 -20.5t-29 -71.5l-12 -68h198l11 64q29 149 164 149q69 0 105 -32l44 25h11l-55 -314q20 53 63 85t99 32q73 0 113.5 -48.5t40.5 -139.5
q0 -126 -62 -209t-164 -83q-56 0 -93.5 30t-44.5 76l-28 -97h-37zM643 262l-14 -79q-10 -60 21 -107t95 -47q80 0 128.5 72.5t48.5 179.5q0 70 -29.5 109t-84.5 39q-60 0 -106 -46.5t-59 -120.5z" />
    <glyph glyph-name="f_f_h" unicode="ffh" horiz-adv-x="996" 
d="M546 0l105 599q-36 36 -95 36q-97 0 -116 -112l-11 -61h104l-7 -42h-104l-90 -511q-10 -56 -35 -81.5t-70 -25.5q-48 0 -76 28l15 40q26 -26 57 -26q26 0 39.5 15.5t19.5 50.5l90 510h-199l-91 -524q-11 -56 -35.5 -81.5t-69.5 -25.5q-50 0 -76 28l14 40q28 -26 57 -26
q26 0 39.5 15.5t19.5 50.5l92 523h-70l8 42h69l13 70q14 72 47 103t85 31q53 0 88 -35l-24 -40q-28 31 -64 31q-33 0 -53 -20.5t-29 -71.5l-12 -68h198l11 64q28 149 164 149q69 0 105 -32l44 25h11l-56 -314q23 54 64 85.5t97 31.5q54 0 85.5 -28t31.5 -81q0 -22 -6 -57
l-38 -216q-2 -18 -2 -25q0 -29 28 -29q12 0 30 7l-7 -39q-18 -8 -40 -8q-63 0 -63 60q0 11 3 29l39 222q6 29 6 46q0 75 -80 75q-56 0 -103.5 -44.5t-61.5 -128.5l-44 -254h-51z" />
    <glyph glyph-name="f_f_j" unicode="ffj" horiz-adv-x="717" 
d="M620 420h-198l-90 -511q-10 -56 -35 -81.5t-70 -25.5q-48 0 -76 28l15 40q26 -26 57 -26q26 0 39.5 15.5t19.5 50.5l90 510h-199l-91 -524q-11 -56 -35.5 -81.5t-69.5 -25.5q-50 0 -76 28l14 40q28 -26 57 -26q26 0 39.5 15.5t19.5 50.5l92 523h-70l8 42h69l13 70
q14 73 47 103.5t85 30.5q53 0 88 -35l-24 -40q-28 31 -64 31q-33 0 -53 -20.5t-29 -71.5l-12 -68h198l11 64q28 149 156 149q64 0 101 -41l-24 -40q-31 37 -78 37q-41 0 -67.5 -24.5t-37.5 -85.5l-11 -59h249l-98 -553q-10 -56 -35.5 -81.5t-70.5 -25.5q-49 0 -76 27l15 41
q26 -26 57 -26q26 0 39.5 15.5t19.5 49.5z" />
    <glyph glyph-name="f_f_k" unicode="ffk" horiz-adv-x="934" 
d="M546 0l105 599q-36 36 -95 36q-97 0 -116 -112l-11 -61h104l-7 -42h-104l-90 -511q-10 -56 -35 -81.5t-70 -25.5q-48 0 -76 28l15 40q26 -26 57 -26q26 0 39.5 15.5t19.5 50.5l90 510h-199l-91 -524q-11 -56 -35.5 -81.5t-69.5 -25.5q-50 0 -76 28l14 40q28 -26 57 -26
q26 0 39.5 15.5t19.5 50.5l92 523h-70l8 42h69l13 70q14 72 47 103t85 31q53 0 88 -35l-24 -40q-28 31 -64 31q-33 0 -53 -20.5t-29 -71.5l-12 -68h198l11 64q28 149 164 149q69 0 105 -32l44 25h11l-70 -399h40l189 193h62l-212 -211l93 -172q23 -43 51 -43q16 0 35 8
l-8 -41q-19 -8 -43 -8q-43 0 -74 56l-97 179h-43l-40 -230h-51z" />
    <glyph glyph-name="f_h" unicode="fh" horiz-adv-x="748" 
d="M298 0l104 599q-34 36 -94 36q-96 0 -117 -112l-10 -61h105l-7 -42h-106l-91 -524q-11 -56 -35.5 -81.5t-69.5 -25.5q-50 0 -76 28l14 40q28 -26 57 -26q26 0 39.5 15.5t19.5 50.5l92 523h-70l8 42h69l12 64q28 149 164 149q70 0 104 -32l45 25h11l-56 -314
q23 54 64 85.5t96 31.5t86.5 -28t31.5 -81q0 -22 -6 -57l-38 -216q0 -2 -1.5 -11t-1.5 -14q0 -29 28 -29q13 0 31 7l-7 -39q-19 -8 -41 -8q-62 0 -62 60q0 11 3 29l39 222q5 32 5 46q0 35 -20 55t-59 20q-56 0 -103.5 -44.5t-62.5 -128.5l-44 -254h-50z" />
    <glyph glyph-name="f_j" unicode="fj" horiz-adv-x="469" 
d="M372 420h-199l-91 -524q-11 -56 -35.5 -81.5t-69.5 -25.5q-50 0 -76 28l14 40q28 -26 57 -26q26 0 39.5 15.5t19.5 50.5l92 523h-70l8 42h69l12 64q28 149 156 149q63 0 101 -41l-24 -40q-32 37 -79 37q-41 0 -67.5 -24.5t-37.5 -85.5l-10 -59h249l-98 -553
q-10 -57 -35.5 -82t-70.5 -25q-51 0 -76 27l14 41q28 -26 57 -26q26 0 39.5 15.5t19.5 49.5z" />
    <glyph glyph-name="f_k" unicode="fk" horiz-adv-x="686" 
d="M298 0l104 599q-34 36 -94 36q-96 0 -117 -112l-10 -61h104l-7 -42h-105l-91 -524q-11 -56 -35.5 -81.5t-69.5 -25.5q-50 0 -76 28l14 40q28 -26 57 -26q26 0 39.5 15.5t19.5 50.5l92 523h-70l8 42h69l12 64q28 149 164 149q70 0 104 -32l45 25h11l-70 -399h40l188 193
h63l-212 -211l92 -172q25 -43 52 -43q16 0 35 8l-8 -41q-19 -8 -43 -8q-43 0 -74 56l-98 179h-43l-40 -230h-50z" />
    <glyph glyph-name="ff" unicode="ff" horiz-adv-x="513" 
d="M282 -90l90 510h-199l-91 -524q-11 -56 -35.5 -81.5t-69.5 -25.5q-50 0 -76 28l14 40q28 -26 57 -26q26 0 39.5 15.5t19.5 50.5l92 523h-70l8 42h69l13 70q14 73 47 103.5t85 30.5q53 0 88 -35l-24 -40q-28 31 -64 31q-33 0 -53 -20.5t-29 -71.5l-12 -68h198l13 71
q15 78 50.5 110t91.5 32q57 0 94 -34l-23 -41q-31 31 -70 31q-37 0 -60 -21.5t-33 -76.5l-13 -71h116l-7 -42h-116l-90 -511q-10 -56 -35 -81.5t-70 -25.5q-48 0 -76 28l15 40q26 -26 57 -26q26 0 39.5 15.5t19.5 50.5z" />
    <glyph glyph-name="ffi" unicode="ffi" horiz-adv-x="727" 
d="M422 420l-90 -511q-10 -56 -35 -81.5t-70 -25.5q-48 0 -76 28l15 40q26 -26 57 -26q26 0 39.5 15.5t19.5 50.5l90 510h-199l-91 -524q-11 -56 -35.5 -81.5t-69.5 -25.5q-50 0 -76 28l14 40q28 -26 57 -26q26 0 39.5 15.5t19.5 50.5l92 523h-70l8 42h69l13 70
q14 72 47 103t85 31q53 0 88 -35l-24 -40q-28 31 -64 31q-33 0 -53 -20.5t-29 -71.5l-12 -68h198l11 64q28 149 156 149q64 0 101 -41l-24 -40q-31 37 -78 37q-41 0 -67.5 -24.5t-37.5 -85.5l-11 -59h249l-65 -373q-3 -13 -3 -25q0 -29 28 -29q13 0 30 7l-7 -39
q-18 -8 -40 -8q-63 0 -63 60q0 11 3 29l59 336h-198z" />
    <glyph glyph-name="ffl" unicode="ffl" horiz-adv-x="724" 
d="M379 462l11 64q28 149 164 149q69 0 105 -32l44 25h11l-101 -579q-3 -13 -3 -25q0 -29 28 -29q13 0 30 7l-7 -39q-18 -8 -40 -8q-63 0 -63 60q0 11 3 29l90 515q-36 36 -95 36q-97 0 -116 -112l-11 -61h105l-7 -42h-105l-90 -511q-10 -56 -35 -81.5t-70 -25.5
q-48 0 -76 28l15 40q26 -26 57 -26q26 0 39.5 15.5t19.5 50.5l90 510h-199l-91 -524q-11 -56 -35.5 -81.5t-69.5 -25.5q-50 0 -76 28l14 40q28 -26 57 -26q26 0 39.5 15.5t19.5 50.5l92 523h-70l8 42h69l13 70q14 72 47 103t85 31q53 0 88 -35l-24 -40q-28 31 -64 31
q-33 0 -53 -20.5t-29 -71.5l-12 -68h198z" />
    <glyph glyph-name="fi" unicode="fi" horiz-adv-x="478" 
d="M430 462l-66 -373q0 -2 -1.5 -11t-1.5 -14q0 -29 28 -29q13 0 31 7l-7 -39q-19 -8 -41 -8q-62 0 -62 60q0 11 3 29l58 336h-198l-91 -524q-11 -56 -35.5 -81.5t-69.5 -25.5q-50 0 -76 28l14 40q28 -26 57 -26q26 0 39.5 15.5t19.5 50.5l92 523h-70l8 42h69l12 64
q28 149 156 149q63 0 101 -41l-24 -40q-32 37 -79 37q-41 0 -67.5 -24.5t-37.5 -85.5l-10 -59h249z" />
    <glyph glyph-name="fl" unicode="fl" horiz-adv-x="476" 
d="M466 668l-102 -579q0 -2 -1.5 -11t-1.5 -14q0 -29 28 -29q13 0 31 7l-7 -39q-19 -8 -41 -8q-62 0 -62 60q0 11 3 29l89 515q-34 36 -94 36q-96 0 -117 -112l-10 -61h105l-7 -42h-106l-91 -524q-11 -56 -35.5 -81.5t-69.5 -25.5q-50 0 -76 28l14 40q28 -26 57 -26
q26 0 39.5 15.5t19.5 50.5l92 523h-70l8 42h69l12 64q28 149 164 149q70 0 104 -32l45 25h11z" />
    <glyph glyph-name=".notdef" horiz-adv-x="755" 
d="M83 0v589h589v-589h-589zM377 264l-221 -221h443zM156 546l221 -222l222 222h-443zM407 294l222 -221v443zM347 294l-221 222v-443z" />
    <glyph glyph-name=".null" horiz-adv-x="0" 
 />
    <glyph glyph-name="nonmarkingreturn" horiz-adv-x="333" 
 />
    <glyph glyph-name="space" unicode=" " horiz-adv-x="209" 
 />
    <glyph glyph-name="exclam" unicode="!" horiz-adv-x="219" 
d="M141 589h66l-89 -423h-36zM40 36q0 17 11.5 28.5t28.5 11.5t28 -11.5t11 -28.5q0 -16 -11.5 -27.5t-27.5 -11.5q-17 0 -28.5 11t-11.5 28z" />
    <glyph glyph-name="quotedbl" unicode="&#x22;" horiz-adv-x="264" 
d="M87 412l45 256h59l-71 -256h-33zM200 412l45 256h58l-70 -256h-33z" />
    <glyph glyph-name="numbersign" unicode="#" horiz-adv-x="625" 
d="M541 159h-162l-75 -159h-48l74 159h-120l-75 -159h-48l74 159h-123l7 41h136l51 109h-147l7 41h160l62 131h49l-63 -131h121l62 131h49l-63 -131h126l-7 -41h-138l-52 -109h150zM281 309l-52 -109h121l51 109h-120z" />
    <glyph glyph-name="dollar" unicode="$" horiz-adv-x="445" 
d="M28 127l45 10q0 -47 28 -74t71 -34l35 199q-60 22 -88.5 51.5t-28.5 76.5q0 64 44.5 98t117.5 36l15 84h36l-15 -86q59 -7 90 -39t31 -86l-46 -8q-2 82 -82 94l-32 -186q61 -23 89.5 -55t28.5 -80q0 -67 -44.5 -101t-121.5 -36l-17 -97h-36l17 99q-62 7 -99.5 42
t-37.5 92zM319 122q0 32 -18.5 54t-60.5 40l-33 -189q51 2 81.5 25.5t30.5 69.5zM137 363q0 -33 18.5 -52t59.5 -36l30 176q-50 -2 -79 -24.5t-29 -63.5z" />
    <glyph glyph-name="percent" unicode="%" horiz-adv-x="817" 
d="M164 266q55 0 84.5 59.5t29.5 122.5q0 49 -19.5 79t-58.5 30q-55 0 -84.5 -59t-29.5 -122q1 -50 20 -80t58 -30zM204 596q56 0 86.5 -40.5t30.5 -107.5q0 -84 -42 -151t-119 -67q-58 0 -87.5 39.5t-29.5 105.5q0 85 42.5 153t118.5 68zM655 321q-39 0 -66 -32.5
t-37.5 -71.5t-10.5 -77q0 -49 19.5 -79.5t58.5 -30.5q38 0 65 32.5t37.5 72t10.5 77.5q0 49 -19 79t-58 30zM614 -6q-57 0 -87 39.5t-30 105.5q0 84 42.5 152.5t118.5 68.5q57 0 87 -40.5t30 -107.5q0 -84 -42 -151t-119 -67zM635 590l-409 -590h-43l410 590h42z" />
    <glyph glyph-name="ampersand" unicode="&#x26;" horiz-adv-x="553" 
d="M424 477q0 -58 -38.5 -97.5t-115.5 -74.5l129 -159q42 54 62 142l47 -11q-28 -103 -82 -165l73 -88l-38 -31l-67 82q-86 -84 -205 -84q-78 0 -120 36t-42 102q0 68 44.5 110t130.5 78l-24 29q-46 58 -46 114q0 64 45 101t111 37q65 0 100.5 -33t35.5 -88zM190 32
q103 0 180 75l-145 179l-41 -20.5t-33 -18.5t-32 -22.5t-21 -23.5t-17 -32t-4 -37q0 -45 30 -72.5t83 -27.5zM180 462q0 -41 35 -86l30 -39q67 30 98.5 60.5t31.5 79.5q0 39 -24 61t-66 22q-46 0 -75.5 -26.5t-29.5 -71.5z" />
    <glyph glyph-name="quotesingle" unicode="'" horiz-adv-x="152" 
d="M87 412l45 256h59l-71 -256h-33z" />
    <glyph glyph-name="parenleft" unicode="(" horiz-adv-x="323" 
d="M70 133q0 157 67.5 294t184.5 241h61q-82 -77 -136 -150t-90.5 -173.5t-36.5 -211.5q0 -91 26.5 -169.5t83.5 -165.5h-55q-105 160 -105 335z" />
    <glyph glyph-name="parenright" unicode=")" horiz-adv-x="323" 
d="M257 333q0 -157 -67.5 -294t-185.5 -241h-60q82 77 136 150t90.5 173.5t36.5 211.5q0 91 -26.5 169.5t-83.5 165.5h54q106 -162 106 -335z" />
    <glyph glyph-name="asterisk" unicode="*" horiz-adv-x="340" 
d="M194 443l-78 -71l-28 37l90 58l-93 53l26 37l81 -66l23 103l45 -13l-37 -99l103 11l3 -46l-107 7l43 -99l-43 -15z" />
    <glyph glyph-name="plus" unicode="+" horiz-adv-x="496" 
d="M49 265h184l32 180h36l-32 -180h188l-6 -34h-188l-34 -194h-36l33 194h-183z" />
    <glyph glyph-name="comma" unicode="," horiz-adv-x="246" 
d="M142 14q0 -51 -37 -79t-93 -30v28q36 4 63 19t27 42q0 7 -2 11q-4 -6 -15 -6q-16 0 -25.5 10.5t-9.5 26.5q0 18 11 29t30 11q23 0 37 -16.5t14 -45.5z" />
    <glyph glyph-name="hyphen" unicode="-" horiz-adv-x="379" 
d="M72 244l8 44h224l-8 -44h-224z" />
    <glyph glyph-name="period" unicode="." horiz-adv-x="246" 
d="M47 39q0 18 12 30t31 12q18 0 30 -12t12 -30t-12 -30t-30 -12q-19 0 -31 12t-12 30z" />
    <glyph glyph-name="slash" unicode="/" horiz-adv-x="366" 
d="M-72 -203l425 872h51l-427 -872h-49z" />
    <glyph glyph-name="zero" unicode="0" horiz-adv-x="560" 
d="M259 34q90 0 145.5 67t55.5 168q0 79 -41.5 127.5t-117.5 48.5q-91 0 -146 -66.5t-55 -167.5q0 -79 41 -128t118 -49zM256 -9q-103 0 -155.5 62t-52.5 158q0 123 72.5 201t183.5 78q103 0 155.5 -62t52.5 -158q0 -123 -72.5 -201t-183.5 -78z" />
    <glyph glyph-name="one" unicode="1" horiz-adv-x="326" 
d="M169 0h-52l75 430l-147 -33l8 45l202 46z" />
    <glyph glyph-name="two" unicode="2" horiz-adv-x="441" 
d="M362 44l-8 -44h-356l7 42q329 139 329 300q0 50 -28 76.5t-78 26.5q-51 0 -82.5 -30t-34.5 -96l-48 10q6 84 55 122.5t114 38.5q72 0 113.5 -37.5t41.5 -109.5q0 -53 -30 -103t-77.5 -87t-100 -64t-104.5 -42v-3h287z" />
    <glyph glyph-name="three" unicode="3" horiz-adv-x="437" 
d="M200 186v-2q71 -6 111.5 -44t40.5 -101q0 -85 -56.5 -131t-142.5 -46q-79 0 -127 36t-50 104l49 11q5 -109 133 -109q63 0 102.5 34t39.5 97q0 119 -174 130l6 42q102 6 156 39.5t54 102.5q0 44 -28.5 71t-79.5 27q-104 0 -122 -110l-48 11q24 142 173 142
q72 0 114.5 -36.5t42.5 -100.5q0 -79 -54 -122t-140 -45z" />
    <glyph glyph-name="four" unicode="4" horiz-adv-x="509" 
d="M268 -131l33 185h-300l6 36l368 391h52l-67 -384h98l-7 -43h-98l-33 -185h-52zM141 97h167l39 227l21 95h-3q-24 -32 -75 -88l-155 -167q-19 -21 -36 -37.5t-25 -22.5l-7 -7v-3q25 3 74 3z" />
    <glyph glyph-name="five" unicode="5" horiz-adv-x="442" 
d="M64 158l70 323h286l-8 -45h-239l-54 -241q36 41 100 41q72 0 113.5 -46.5t41.5 -117.5q-1 -100 -60.5 -155t-150.5 -55q-79 0 -124.5 37.5t-47.5 102.5l49 11q6 -109 128 -109q66 0 110 41t44 121q0 58 -32 94.5t-88 36.5t-97 -39h-41z" />
    <glyph glyph-name="six" unicode="6" horiz-adv-x="496" 
d="M484 476l-48 -17q-17 97 -113 97q-85 0 -145.5 -81t-79.5 -226h3q18 62 65 94.5t108 32.5q80 0 126.5 -45.5t46.5 -121.5q0 -95 -57 -156.5t-154 -61.5q-89 0 -137.5 53.5t-48.5 158.5q0 64 16.5 130.5t48.5 127t87 99t123 38.5q139 0 159 -122zM236 33q70 0 115 47
t45 124q0 57 -35.5 92.5t-96.5 35.5q-69 0 -113.5 -46t-44.5 -119q0 -61 34.5 -97.5t95.5 -36.5z" />
    <glyph glyph-name="seven" unicode="7" horiz-adv-x="450" 
d="M373 436h-275l-16 -87h-49l23 132h383l-6 -37l-333 -575h-55z" />
    <glyph glyph-name="eight" unicode="8" horiz-adv-x="479" 
d="M285 598q72 0 119.5 -40t47.5 -107q0 -62 -39 -103t-96 -51v-4q47 -13 74.5 -49t27.5 -85q0 -83 -57.5 -125.5t-146.5 -42.5q-83 0 -135 40.5t-52 109.5q0 67 40.5 108.5t106.5 50.5l1 4q-39 11 -63 43.5t-24 77.5q0 81 55.5 127t140.5 46zM218 33q67 0 108.5 33.5
t41.5 94.5q0 54 -39 85t-97 31q-66 0 -108 -35.5t-42 -95.5q0 -54 38.5 -83.5t97.5 -29.5zM143 428q0 -50 32 -79t84 -29q63 0 100.5 35.5t37.5 94.5q0 47 -32 76.5t-85 29.5q-62 0 -99.5 -35t-37.5 -93z" />
    <glyph glyph-name="nine" unicode="9" horiz-adv-x="495" 
d="M5 -15l44 20q26 -101 127 -101q91 0 147 85.5t74 241.5h-3q-18 -63 -64 -95t-106 -32q-80 0 -128 47.5t-48 125.5q0 93 57 153t154 60q88 0 137 -54.5t49 -158.5q0 -77 -16 -149t-48 -132.5t-85.5 -97t-122.5 -36.5t-112 32t-56 91zM255 448q-67 0 -111 -46.5t-44 -122.5
q0 -58 35 -95t96 -37q69 0 114 46.5t45 119.5q0 61 -35.5 98t-99.5 37z" />
    <glyph glyph-name="colon" unicode=":" horiz-adv-x="246" 
d="M47 39q0 18 12 30t31 12q18 0 30 -12t12 -30t-12 -30t-30 -12q-19 0 -31 12t-12 30zM111 402q0 18 12 30t30 12t30 -12t12 -30t-12 -30t-30 -12t-30 12t-12 30z" />
    <glyph glyph-name="semicolon" unicode=";" horiz-adv-x="246" 
d="M142 14q0 -51 -37 -79t-93 -30v28q36 4 63 19t27 42q0 7 -2 11q-4 -6 -15 -6q-16 0 -25.5 10.5t-9.5 26.5q0 18 11 29t30 11q23 0 37 -16.5t14 -45.5zM117 402q0 18 12 30t30 12q19 0 31 -12t12 -30t-12 -30t-31 -12q-18 0 -30 12t-12 30z" />
    <glyph glyph-name="less" unicode="&#x3c;" horiz-adv-x="411" 
d="M59 247l290 212l22 -31l-253 -185l184 -182l-27 -27z" />
    <glyph glyph-name="equal" unicode="=" 
d="M45 198h408l-6 -34h-408zM67 326h408l-6 -35h-408z" />
    <glyph glyph-name="greater" unicode="&#x3e;" horiz-adv-x="411" 
d="M347 246l-290 -212l-22 31l253 185l-185 182l28 27z" />
    <glyph glyph-name="question" unicode="?" horiz-adv-x="403" 
d="M111 448l-42 17q41 133 177 133q76 0 119 -42.5t43 -112.5q0 -95 -62.5 -143.5t-146.5 -48.5l-17 -94h-48l23 128h22q75 0 125.5 36.5t50.5 117.5q0 52 -31 83.5t-84 31.5q-98 0 -129 -106zM100 36q0 17 11 28.5t28 11.5t28.5 -11.5t11.5 -28.5t-11.5 -28t-28.5 -11
t-28 11.5t-11 27.5z" />
    <glyph glyph-name="at" unicode="@" horiz-adv-x="862" 
d="M620 29q65 0 106.5 62t41.5 165q0 139 -88 219.5t-232 80.5q-155 0 -254 -98t-99 -268q0 -91 29.5 -159.5t81.5 -109t117.5 -60.5t142.5 -20q103 0 190 33l11 -39q-95 -35 -202 -35q-85 0 -157.5 21t-132.5 65.5t-94 122t-34 181.5q0 180 108.5 293t294.5 113
q175 0 269.5 -96t94.5 -239q0 -124 -54.5 -197t-146.5 -73q-41 0 -65.5 19t-27.5 53q-1 15 0 32q-15 -50 -53.5 -77t-88.5 -27q-63 0 -99.5 43.5t-36.5 123.5q0 110 55 179.5t138 69.5q48 0 81.5 -26t38.5 -71l28 92h38l-52 -280q-5 -25 -5 -41q0 -52 56 -52zM531 179l8 48
q10 60 -18 100.5t-80 40.5q-65 0 -107 -58.5t-42 -151.5q0 -59 24 -92.5t71 -33.5q52 0 92.5 40t51.5 107z" />
    <glyph glyph-name="A" unicode="A" horiz-adv-x="548" 
d="M436 0l-38 187h-264l-102 -187h-56l326 589h69l119 -589h-54zM256 408l-98 -176h232l-34 172l-25 150h-3q-20 -52 -72 -146z" />
    <glyph glyph-name="B" unicode="B" horiz-adv-x="501" 
d="M332 303v-3q52 -4 83 -34t31 -84q0 -92 -58 -137t-165 -45h-179l103 589h160q161 0 161 -132q0 -67 -38.5 -107.5t-97.5 -46.5zM154 322h110q68 0 109 31.5t41 96.5q0 94 -119 94h-102zM146 278l-41 -233h124q165 0 165 133q0 100 -128 100h-120z" />
    <glyph glyph-name="C" unicode="C" horiz-adv-x="550" 
d="M276 -9q-103 0 -162 65t-59 173q0 169 85 269t211 100q77 0 125 -36.5t62 -105.5l-47 -20q-10 57 -49 87t-95 30q-106 0 -172 -90.5t-66 -229.5q0 -90 45.5 -143.5t126.5 -53.5q60 0 99.5 24t70.5 84l44 -23q-63 -130 -219 -130z" />
    <glyph glyph-name="D" unicode="D" horiz-adv-x="583" 
d="M105 45h112q125 0 199.5 79t74.5 234q0 93 -51.5 139.5t-142.5 46.5h-104zM219 0h-175l103 589h157q118 0 180.5 -58.5t62.5 -168.5q0 -179 -92 -270.5t-236 -91.5z" />
    <glyph glyph-name="E" unicode="E" horiz-adv-x="471" 
d="M387 46l-8 -46h-335l103 589h335l-8 -46h-281l-40 -225h251l-8 -46h-251l-40 -226h282z" />
    <glyph glyph-name="F" unicode="F" horiz-adv-x="437" 
d="M98 0h-54l103 589h321l-8 -46h-267l-40 -225h236l-8 -46h-236z" />
    <glyph glyph-name="G" unicode="G" horiz-adv-x="579" 
d="M318 288h212l-51 -288h-42l8 99q-19 -49 -63.5 -78.5t-106.5 -29.5q-102 0 -161 65t-59 173q0 169 85 269t212 100q76 0 124 -36.5t62 -105.5l-47 -20q-10 57 -49 87t-95 30q-106 0 -172 -91t-66 -229q0 -90 45 -143.5t127 -53.5q68 0 118 42.5t64 124.5l6 37h-160z" />
    <glyph glyph-name="H" unicode="H" horiz-adv-x="614" 
d="M540 589h53l-102 -589h-54l47 274h-339l-47 -274h-54l103 589h54l-47 -268h339z" />
    <glyph glyph-name="I" unicode="I" horiz-adv-x="221" 
d="M147 589h54l-103 -589h-54z" />
    <glyph glyph-name="J" unicode="J" horiz-adv-x="419" 
d="M355 589h54l-75 -425q-17 -94 -60.5 -133.5t-124.5 -39.5q-67 0 -107 33t-50 88l44 26q20 -104 116 -104q59 0 88 32t42 107z" />
    <glyph glyph-name="K" unicode="K" horiz-adv-x="493" 
d="M442 0h-60l-181 274h-56l-47 -274h-54l103 589h54l-47 -269h49l263 269h65l-287 -289z" />
    <glyph glyph-name="L" unicode="L" horiz-adv-x="436" 
d="M147 589h54l-96 -543h273l-7 -46h-327z" />
    <glyph glyph-name="M" unicode="M" horiz-adv-x="690" 
d="M353 147h-40l-94 267q-11 30 -18.5 55.5t-10.5 36.5l-2 11h-3q-3 -32 -15 -103l-72 -414h-54l103 589h63l111 -320l19 -70h3q9 25 39 68l224 322h64l-102 -589h-54l72 414l21 103h-3q-16 -35 -62 -101z" />
    <glyph glyph-name="N" unicode="N" horiz-adv-x="613" 
d="M204 589l196 -406q13 -27 25 -55.5t17 -43.5l6 -15h3q7 59 19 125l69 395h53l-102 -589h-56l-198 405l-50 114h-3q-4 -58 -16 -124l-69 -395h-54l103 589h57z" />
    <glyph glyph-name="O" unicode="O" horiz-adv-x="610" 
d="M281 36q104 0 170 90.5t66 228.5q0 90 -44 143.5t-128 53.5q-104 0 -170 -90.5t-66 -228.5q0 -91 45.5 -144t126.5 -53zM277 -9q-103 0 -162.5 65t-59.5 174q0 167 85 267.5t210 100.5q102 0 162 -65t60 -175q0 -167 -85 -267t-210 -100z" />
    <glyph glyph-name="P" unicode="P" horiz-adv-x="470" 
d="M193 544l-47 -268h105q80 0 125 41.5t45 119.5q0 55 -31 81t-96 26h-101zM98 0h-54l103 589h153q176 0 176 -148q0 -101 -61.5 -155t-164.5 -54h-112z" />
    <glyph glyph-name="Q" unicode="Q" horiz-adv-x="612" 
d="M442 -135q-86 -4 -142.5 31t-67.5 100q-82 14 -128.5 76t-46.5 158q0 167 85.5 267.5t209.5 100.5q103 0 162.5 -65t59.5 -175q0 -164 -82.5 -263.5t-205.5 -103.5q36 -89 173 -78zM284 36q104 0 170 90.5t66 228.5q0 90 -44.5 143.5t-127.5 53.5q-104 0 -170.5 -90.5
t-66.5 -228.5q0 -91 46 -144t127 -53z" />
    <glyph glyph-name="R" unicode="R" horiz-adv-x="526" 
d="M463 0h-57q-15 20 -21 59l-14 104q-7 53 -33.5 74.5t-83.5 21.5h-111l-45 -259h-54l103 589h177q170 0 170 -139q0 -78 -48.5 -122.5t-115.5 -47.5v-3q42 -6 63.5 -29t28.5 -74l16 -109q6 -40 25 -65zM193 544l-42 -240h125q76 0 119.5 35.5t43.5 104.5q0 100 -122 100
h-124z" />
    <glyph glyph-name="S" unicode="S" horiz-adv-x="472" 
d="M22 151l48 9q0 -63 36 -95t102 -32q65 0 102.5 30.5t37.5 91.5q0 48 -28 76.5t-92 51.5q-70 25 -104 57.5t-34 96.5q0 82 54.5 121.5t128.5 39.5q174 0 175 -154l-50 -8q-1 120 -128 120q-58 0 -94 -29t-36 -84q0 -47 26 -69.5t92 -47.5q73 -28 108 -64.5t35 -101.5
q0 -83 -55 -126t-142 -43t-134.5 40.5t-47.5 119.5z" />
    <glyph glyph-name="T" unicode="T" horiz-adv-x="476" 
d="M222 0h-54l95 543h-194l8 46h437l-8 -46h-190z" />
    <glyph glyph-name="U" unicode="U" horiz-adv-x="574" 
d="M512 589h53l-69 -399q-35 -199 -237 -199q-89 0 -143 45.5t-54 132.5q0 27 6 58l63 362h53l-64 -366q-4 -29 -4 -51q0 -68 40.5 -102.5t107.5 -34.5q151 0 180 164z" />
    <glyph glyph-name="V" unicode="V" horiz-adv-x="522" 
d="M133 589l72 -429q6 -36 9.5 -67t3.5 -44l1 -13h3q15 43 58 126l227 427h57l-314 -589h-71l-100 589h54z" />
    <glyph glyph-name="W" unicode="W" horiz-adv-x="796" 
d="M481 589l40 -405l10 -150h3q18 58 59 151l181 404h56l-268 -589h-74l-36 392q-4 40 -5.5 77t-1.5 53v17h-3q-17 -55 -59 -147l-178 -392h-74l-41 589h53l26 -403l6 -152h3q17 59 60 152l184 403h59z" />
    <glyph glyph-name="X" unicode="X" horiz-adv-x="514" 
d="M396 0l-103 198q-12 22 -19 38.5t-8 21.5l-2 6h-3q-7 -15 -51 -67l-168 -197h-63l260 303l-146 286h58l92 -181q12 -23 19 -40t8 -22l2 -6h2q6 13 51 67l153 182h62l-244 -286l155 -303h-55z" />
    <glyph glyph-name="Y" unicode="Y" horiz-adv-x="485" 
d="M137 589l81 -216q11 -29 18.5 -53.5t9.5 -34.5l2 -10h3q15 32 60 98l153 216h58l-252 -353l-41 -236h-53l41 236l-135 353h55z" />
    <glyph glyph-name="Z" unicode="Z" horiz-adv-x="484" 
d="M499 553l-365 -434q-20 -24 -37.5 -42t-24.5 -25l-8 -6v-4q25 4 88 4h264l-7 -46h-414l5 31l369 440q20 24 37.5 42.5t25.5 24.5l7 6v3q-26 -4 -89 -4h-248l8 46h396z" />
    <glyph glyph-name="bracketleft" unicode="[" horiz-adv-x="316" 
d="M218 629l-139 -792h157l-7 -40h-205l153 872h205l-7 -40h-157z" />
    <glyph glyph-name="backslash" unicode="\" horiz-adv-x="343" 
d="M153 669l122 -872h-44l-122 872h44z" />
    <glyph glyph-name="bracketright" unicode="]" horiz-adv-x="316" 
d="M97 -163l140 792h-157l7 40h205l-153 -872h-205l7 40h156z" />
    <glyph glyph-name="asciicircum" unicode="^" horiz-adv-x="480" 
d="M401 330l-65 189q-11 31 -18 58t-8 39l-2 11h-4q-17 -39 -66 -108l-133 -189h-54l241 338h40l121 -338h-52z" />
    <glyph glyph-name="underscore" unicode="_" horiz-adv-x="455" 
d="M1 -87l8 43h345l-8 -43h-345z" />
    <glyph glyph-name="grave" unicode="`" horiz-adv-x="265" 
d="M198 533h-42l-89 136h69z" />
    <glyph glyph-name="a" unicode="a" horiz-adv-x="515" 
d="M381 268q11 65 -18 113t-93 48q-79 0 -128.5 -70t-49.5 -176q0 -69 30.5 -109t86.5 -40q60 0 103.5 44.5t55.5 118.5zM426 35q13 0 31 7l-8 -39q-18 -8 -40 -8q-60 0 -60 61q0 12 6 46q-19 -51 -61.5 -81t-96.5 -30q-70 0 -112.5 48.5t-42.5 138.5q0 124 62.5 208.5
t162.5 84.5q54 0 89 -28.5t43 -78.5l25 98h42l-65 -373q-3 -14 -3 -25q0 -29 28 -29z" />
    <glyph glyph-name="b" unicode="b" horiz-adv-x="513" 
d="M210 668l-55 -314q21 53 64 85t99 32q73 0 113 -48.5t40 -139.5q0 -126 -62 -209t-164 -83q-56 0 -93.5 30t-44.5 76l-27 -97h-37l116 668h51zM139 263l-14 -77q-10 -60 21 -106t96 -46q80 0 128.5 71.5t48.5 177.5q0 69 -30 107.5t-85 38.5q-60 0 -106 -46.5t-59 -119.5
z" />
    <glyph glyph-name="c" unicode="c" horiz-adv-x="441" 
d="M92 189q0 -78 33 -117.5t94 -39.5q99 0 131 101l47 -11q-44 -131 -184 -131q-79 0 -125 50t-46 142q0 116 59.5 202t165.5 86q74 0 110 -39.5t36 -109.5l-45 -8q-2 113 -106 113q-80 0 -125 -71.5t-45 -166.5z" />
    <glyph glyph-name="d" unicode="d" horiz-adv-x="512" 
d="M368 196l14 72q11 65 -18.5 113t-93.5 48q-79 0 -129 -70.5t-50 -176.5q0 -69 30.5 -108.5t86.5 -39.5q61 0 104.5 44.5t55.5 117.5zM355 102q-17 -52 -60 -81.5t-98 -29.5q-70 0 -112.5 48.5t-42.5 138.5q0 124 62.5 208.5t162.5 84.5q54 0 89 -28.5t43 -78.5l53 304h50
l-101 -579q-3 -14 -3 -25q0 -29 28 -29q13 0 31 7l-8 -39q-18 -8 -40 -8q-60 0 -60 61q0 10 6 46z" />
    <glyph glyph-name="e" unicode="e" horiz-adv-x="451" 
d="M348 125l46 -12q-40 -122 -176 -122q-84 0 -130 50.5t-46 142.5q0 125 63 206t158 81q77 0 115 -44.5t38 -113.5q0 -50 -19 -85h-305q-3 -20 -3 -40q0 -72 32.5 -114t96.5 -42q55 0 85 23t45 70zM261 429q-64 0 -105.5 -44.5t-57.5 -114.5h262q7 17 7 44q0 51 -26.5 83
t-79.5 32z" />
    <glyph glyph-name="f" unicode="f" horiz-adv-x="264" 
d="M31 -103l92 523h-70l8 42h69l14 71q14 78 49.5 110t91.5 32q58 0 95 -34l-24 -41q-29 31 -69 31q-37 0 -60 -21.5t-34 -76.5l-12 -71h116l-7 -42h-117l-91 -524q-11 -56 -35.5 -81.5t-69.5 -25.5q-50 0 -76 28l14 40q28 -26 57 -26q26 0 39.5 15.5t19.5 50.5z" />
    <glyph glyph-name="g" unicode="g" horiz-adv-x="490" 
d="M332 -17l22 118q-19 -51 -60 -80.5t-95 -29.5q-71 0 -113.5 49t-42.5 138q0 123 63 208t163 85q54 0 88.5 -28.5t42.5 -78.5l25 98h42l-84 -477q-17 -99 -69.5 -147.5t-146.5 -48.5q-80 0 -123 34t-48 93l45 15q5 -49 38.5 -76t90.5 -27q133 0 162 155zM369 195l14 73
q11 65 -18 113t-93 48q-80 0 -130 -70.5t-50 -176.5q0 -69 30.5 -108.5t86.5 -39.5q61 0 104.5 44t55.5 117z" />
    <glyph glyph-name="h" unicode="h" horiz-adv-x="493" 
d="M338 84l39 222q5 32 5 46q0 35 -20 55t-59 20q-56 0 -103.5 -44.5t-61.5 -128.5l-44 -254h-51l116 668h52l-56 -314q23 54 64 85.5t97 31.5q54 0 85.5 -28t31.5 -81q0 -22 -6 -57l-38 -216q0 -2 -1.5 -11t-1.5 -14q0 -29 28 -29q13 0 31 7l-7 -39q-18 -8 -40 -8
q-63 0 -63 60q0 13 3 29z" />
    <glyph glyph-name="i" unicode="i" horiz-adv-x="218" 
d="M169 462l-65 -373q-3 -14 -3 -25q0 -29 28 -29q13 0 31 7l-8 -39q-18 -8 -40 -8q-62 0 -62 60q0 11 3 29l65 378h51zM128 604q0 17 10.5 28t26.5 11t27 -11.5t11 -27.5t-11 -26.5t-27 -10.5t-26.5 10.5t-10.5 26.5z" />
    <glyph glyph-name="j" unicode="j" horiz-adv-x="204" 
d="M24 -86l97 548h51l-97 -547q-11 -65 -41.5 -95.5t-82.5 -30.5q-51 0 -79 28l19 41q30 -27 63 -27q29 0 45.5 20t24.5 63zM132 604q0 17 10.5 28t26.5 11t27 -11t11 -28q0 -16 -11 -26.5t-27 -10.5t-26.5 10.5t-10.5 26.5z" />
    <glyph glyph-name="k" unicode="k" horiz-adv-x="431" 
d="M364 36q16 0 35 8l-8 -41q-19 -8 -43 -8q-45 0 -74 56l-98 179h-42l-40 -230h-51l116 668h52l-70 -399h40l188 193h63l-212 -211l93 -172q23 -43 51 -43z" />
    <glyph glyph-name="l" unicode="l" horiz-adv-x="216" 
d="M205 668l-101 -579q-3 -14 -3 -25q0 -29 28 -29q13 0 31 7l-8 -39q-18 -8 -40 -8q-62 0 -62 60q0 11 3 29l101 584h51z" />
    <glyph glyph-name="m" unicode="m" horiz-adv-x="745" 
d="M419 350q48 121 157 121q51 0 80 -28t29 -81q0 -22 -6 -57l-37 -216q-3 -13 -3 -25q0 -29 28 -29q13 0 30 7l-7 -39q-18 -8 -40 -8q-63 0 -63 60q0 11 3 29l39 222q6 29 6 46q0 75 -76 75q-52 0 -96 -45t-59 -128l-44 -254h-50l53 306q6 29 6 46q0 75 -76 75
q-52 0 -96 -45t-59 -128l-44 -254h-50l80 462h44l-12 -108q50 117 154 117q49 0 77.5 -26.5t30.5 -76.5q0 -3 0.5 -8.5t0.5 -9.5z" />
    <glyph glyph-name="n" unicode="n" horiz-adv-x="494" 
d="M339 84l39 222q5 32 5 46q0 35 -20 55t-59 20q-56 0 -103.5 -44.5t-62.5 -128.5l-44 -254h-50l80 462h44l-12 -108q23 54 64 85.5t96 31.5t86.5 -28t31.5 -81q0 -22 -6 -57l-38 -216q0 -2 -1.5 -11t-1.5 -14q0 -29 28 -29q13 0 31 7l-7 -39q-19 -8 -41 -8q-62 0 -62 60
q0 11 3 29z" />
    <glyph glyph-name="o" unicode="o" horiz-adv-x="480" 
d="M217 32q79 0 125 71.5t46 170.5q0 75 -32.5 114t-93.5 39q-78 0 -124 -70t-46 -168q0 -77 32.5 -117t92.5 -40zM212 -9q-79 0 -124.5 50t-45.5 143q0 119 60.5 203t166.5 84q81 0 125 -51t44 -143q0 -119 -60.5 -202.5t-165.5 -83.5z" />
    <glyph glyph-name="p" unicode="p" horiz-adv-x="513" 
d="M167 462l-13 -108q21 53 64.5 85t99.5 32q73 0 113 -48.5t40 -139.5q0 -126 -62 -209t-164 -83q-55 0 -91.5 30t-43.5 76l-52 -300h-50l116 665h43zM139 263l-14 -77q-10 -59 21.5 -105.5t95.5 -46.5q80 0 128.5 71.5t48.5 177.5q0 69 -30 107t-85 38q-59 0 -105.5 -46
t-59.5 -119z" />
    <glyph glyph-name="q" unicode="q" horiz-adv-x="486" 
d="M368 195l13 73q11 65 -18 113t-93 48q-79 0 -128.5 -70.5t-49.5 -176.5q0 -69 30.5 -109t86.5 -40q60 0 103.5 44.5t55.5 117.5zM350 -203h-51l53 303q-18 -50 -59.5 -79.5t-95.5 -29.5q-70 0 -112.5 48.5t-42.5 138.5q0 124 62.5 208.5t162.5 84.5q54 0 89 -28.5
t43 -78.5l25 98h42z" />
    <glyph glyph-name="r" unicode="r" horiz-adv-x="314" 
d="M333 465l-14 -58q-16 7 -35 7q-52 0 -93.5 -42t-53.5 -110l-45 -262h-51l80 462h44l-13 -114q20 53 58.5 88t89.5 35q17 0 33 -6z" />
    <glyph glyph-name="s" unicode="s" horiz-adv-x="396" 
d="M21 126l46 9q1 -54 31.5 -79t80.5 -25q104 0 104 84q0 37 -23.5 60.5t-75.5 42.5q-57 21 -83 49t-26 77q0 60 41.5 93.5t108.5 33.5q138 0 138 -122l-48 -5q0 87 -94 87q-45 0 -72 -21.5t-27 -61.5q0 -33 19 -52t74 -41q62 -24 89.5 -55t27.5 -81q0 -63 -41.5 -95.5
t-113.5 -32.5q-73 0 -114.5 35.5t-41.5 99.5z" />
    <glyph glyph-name="t" unicode="t" horiz-adv-x="295" 
d="M241 63l4 -43q-39 -29 -91 -29q-97 0 -97 90q0 23 4 44l52 295h-64l7 42h65l18 97l51 8l-18 -105h121l-8 -42h-121l-52 -300q-4 -16 -4 -32q0 -54 52 -54q44 0 81 29z" />
    <glyph glyph-name="u" unicode="u" horiz-adv-x="484" 
d="M435 462l-65 -373q-3 -14 -3 -25q0 -29 28 -29q13 0 31 7l-8 -39q-18 -8 -40 -8q-61 0 -61 58q0 11 7 52q-42 -114 -157 -114q-57 0 -88 30t-31 86q0 21 6 55l52 300h51l-54 -309q-4 -17 -4 -42q0 -37 21 -58.5t60 -21.5q56 0 100.5 44t57.5 118l46 269h51z" />
    <glyph glyph-name="v" unicode="v" horiz-adv-x="413" 
d="M120 0l-68 462h52l39 -294q5 -41 8 -74.5t3 -46.5v-13h3q12 40 62 132l165 296h55l-262 -462h-57z" />
    <glyph glyph-name="w" unicode="w" horiz-adv-x="647" 
d="M471 171l143 291h53l-228 -462h-62l-26 284q-3 33 -4 64.5t-1 45.5l1 15h-3q-15 -48 -51 -127l-129 -282h-63l-43 462h51l25 -292q3 -32 4.5 -65t1.5 -50v-17h3q18 58 53 133l134 291h53l24 -293q4 -34 5 -67t1 -49v-16h3q17 55 55 134z" />
    <glyph glyph-name="x" unicode="x" horiz-adv-x="421" 
d="M305 0l-67 137q-11 23 -17 39t-7 20v5h-4q-6 -12 -51 -65l-117 -136h-58l204 235l-109 227h54l58 -126l27 -66h3q7 12 50 65l107 127h59l-193 -227l114 -235h-53z" />
    <glyph glyph-name="y" unicode="y" horiz-adv-x="417" 
d="M127 -15l-72 477h53l39 -295q6 -38 9 -71t4 -46v-14h3q15 45 61 129l164 297h54l-306 -546q-40 -73 -75 -100.5t-83 -27.5q-41 0 -70 23l14 39q29 -22 58 -22q34 0 58.5 22t55.5 79z" />
    <glyph glyph-name="z" unicode="z" horiz-adv-x="411" 
d="M412 427l-275 -311q-20 -24 -38 -42t-26 -24l-8 -7v-3q29 3 92 3h186l-7 -43h-339l6 29l276 316q21 24 39 42.5t26 24.5l7 7v3q-28 -4 -91 -4h-171l8 44h322z" />
    <glyph glyph-name="braceleft" unicode="{" horiz-adv-x="391" 
d="M43 213l7 41h44q72 0 87 84l34 202q23 134 140 134q46 0 86 -17l-18 -39q-32 17 -66 17q-76 0 -93 -97l-36 -204q-9 -51 -32 -73t-61 -26v-3q60 -6 60 -68q0 -13 -3 -31l-36 -204q-4 -26 -4 -35q0 -62 63 -62q34 0 72 17l5 -40q-47 -16 -91 -16q-98 0 -98 92q0 21 4 42
l36 201q3 16 3 30q0 55 -60 55h-43z" />
    <glyph glyph-name="bar" unicode="|" horiz-adv-x="232" 
d="M64 -203h-46l153 872h46z" />
    <glyph glyph-name="braceright" unicode="}" horiz-adv-x="391" 
d="M345 254l-8 -41h-43q-73 0 -87 -85l-35 -201q-23 -134 -139 -134q-45 0 -86 16l17 40q34 -17 67 -17q76 0 93 97l36 204q8 51 31.5 73t61.5 26v3q-60 6 -60 68q0 11 3 31l35 204q4 24 4 35q0 62 -62 62q-33 0 -73 -17l-4 39q45 17 91 17q98 0 98 -92q0 -15 -5 -42
l-35 -202q-3 -15 -3 -30q0 -54 59 -54h44z" />
    <glyph glyph-name="asciitilde" unicode="~" horiz-adv-x="374" 
d="M196 233l-41 24q-23 16 -39 16q-35 0 -39 -52l-22 10q-3 13 -3 24q0 29 20 46t47 17q25 0 58 -21l41 -25q20 -15 40 -15q37 0 38 55l25 -11q2 -8 2 -22q-1 -30 -20.5 -48.5t-47.5 -18.5q-26 0 -59 21z" />
    <glyph glyph-name="nbspace" unicode="&#xa0;" horiz-adv-x="153" 
 />
    <glyph glyph-name="exclamdown" unicode="&#xa1;" horiz-adv-x="219" 
d="M79 -124h-66l89 423h36zM180 428q0 -17 -11.5 -28t-28.5 -11q-16 0 -27.5 11.5t-11.5 27.5q0 17 11 28.5t28 11.5t28.5 -11.5t11.5 -28.5z" />
    <glyph glyph-name="cent" unicode="&#xa2;" horiz-adv-x="484" 
d="M237 -9h-2l-17 -97h-37l17 101q-68 11 -107.5 63t-39.5 132q0 128 64.5 210t170.5 89l15 85h36l-15 -85q116 -7 140 -116l-48 -22q-16 86 -100 95l-72 -413h2q100 0 149 96l38 -27q-59 -111 -194 -111zM103 196q0 -63 27 -105t76 -54l72 409q-77 -8 -126 -77.5
t-49 -172.5z" />
    <glyph glyph-name="sterling" unicode="&#xa3;" horiz-adv-x="491" 
d="M341 213h-147q7 -28 7 -47q0 -46 -22 -79t-54 -43h190q74 0 97 55l38 -20q-33 -79 -136 -79h-296l7 46h39q33 0 61.5 30.5t28.5 72.5q0 22 -10 64h-91l6 36h76q-9 38 -9 76q0 83 50.5 124t121.5 41t109.5 -34t38.5 -100l-49 -8q-2 100 -103 100q-54 0 -86 -30.5
t-32 -91.5q0 -40 10 -77h161z" />
    <glyph glyph-name="currency" unicode="&#xa4;" horiz-adv-x="471" 
d="M225 132q-64 0 -94 42l-86 -73l-22 25l91 77q-9 25 -9 58q0 76 38 129l-59 72l28 23l56 -69q40 35 96 35q63 0 92 -41l89 75l21 -25l-92 -78q10 -30 10 -61q0 -70 -36 -125l59 -70l-27 -23l-57 67q-41 -38 -98 -38zM229 167q51 0 81 45.5t30 106.5q0 96 -80 96
q-52 0 -82.5 -44t-30.5 -106q0 -98 82 -98z" />
    <glyph glyph-name="yen" unicode="&#xa5;" horiz-adv-x="469" 
d="M406 247h-111l-48 -64h150l-4 -36h-152l-26 -147h-52l25 147h-147l4 36h148l-24 64h-115l3 36h98l-79 198h54l67 -174l28 -87h3q12 27 56 87l128 174h58l-149 -198h89z" />
    <glyph glyph-name="brokenbar" unicode="&#xa6;" horiz-adv-x="232" 
d="M149 278h-46l68 391h46zM64 -203h-46l69 391h46z" />
    <glyph glyph-name="section" unicode="&#xa7;" horiz-adv-x="395" 
d="M358 237q0 -51 -30.5 -81.5t-84.5 -39.5q51 -40 51 -97q0 -61 -44 -93.5t-114 -32.5q-144 0 -144 121l44 6q1 -89 103 -89q47 0 76.5 21.5t29.5 60.5q0 34 -19 54t-75 50q-64 35 -90.5 61.5t-26.5 73.5q0 51 31 82t83 40q-49 37 -49 95q0 61 43 94t108 33q139 0 139 -121
l-48 -6q0 87 -96 87q-43 0 -70.5 -21.5t-27.5 -60.5q0 -32 19 -51.5t77 -49.5q62 -34 88.5 -62.5t26.5 -73.5zM310 230q0 35 -21.5 55t-81.5 53l-21 12q-49 -4 -76.5 -29t-27.5 -65q0 -33 21 -52t83 -52q2 -2 11 -7t10 -5q45 2 74 26.5t29 63.5z" />
    <glyph glyph-name="dieresis" unicode="&#xa8;" horiz-adv-x="380" 
d="M67 595q0 16 10.5 27t26.5 11t27 -11t11 -27t-11 -27t-27 -11t-26.5 11t-10.5 27zM238 594q0 16 11 27t27 11t27 -11t11 -27q0 -15 -11 -26t-27 -11t-27 11t-11 26z" />
    <glyph glyph-name="copyright" unicode="&#xa9;" horiz-adv-x="703" 
d="M667 294q0 -131 -88.5 -217t-215.5 -86q-128 0 -216 86t-88 217t88 217.5t216 86.5q127 0 215.5 -86.5t88.5 -217.5zM642 294q0 121 -81 200.5t-198 79.5q-116 0 -197 -79.5t-81 -200.5t81 -200t197 -79q117 0 198 79t81 200zM343 100q-67 0 -106.5 42t-39.5 114
q0 104 54 168.5t143 64.5q104 0 125 -92l-42 -19q-12 74 -89 74q-64 0 -105.5 -54t-41.5 -138q0 -56 29 -89.5t79 -33.5q75 0 113 75l33 -23q-47 -89 -152 -89z" />
    <glyph glyph-name="ordfeminine" unicode="&#xaa;" horiz-adv-x="370" 
d="M228 566q-54 0 -88 -44.5t-34 -112.5q0 -44 20.5 -69t58.5 -25q40 0 68.5 28t37.5 75l9 47q9 41 -10.5 71t-61.5 30zM323 350q-2 -10 -2 -14q0 -17 17 -17q10 0 25 5l-7 -33q-14 -6 -31 -6q-39 0 -46 33q-1 3 1 29q-15 -29 -43 -47t-62 -18q-51 0 -82 32.5t-31 92.5
q0 81 45.5 137t117.5 56q35 0 58.5 -18t31.5 -48l17 60h37z" />
    <glyph glyph-name="guillemotleft" unicode="&#xab;" horiz-adv-x="456" 
d="M236 233v-4q7 -3 38 -48l88 -127l-35 -27l-138 206l211 206l26 -29l-129 -127q-17 -17 -32.5 -29.5t-22.5 -16.5zM91 233v-4q7 -3 38 -48l88 -127l-35 -27l-139 206l211 206l27 -29l-129 -127q-18 -17 -33 -29.5t-21 -16.5z" />
    <glyph glyph-name="logicalnot" unicode="&#xac;" horiz-adv-x="496" 
d="M407 281h-359l5 34h399l-33 -188h-39z" />
    <glyph glyph-name="uni00AD" unicode="&#xad;" horiz-adv-x="379" 
d="M73 244l8 44h224l-8 -44h-224z" />
    <glyph glyph-name="registered" unicode="&#xae;" horiz-adv-x="703" 
d="M488 119h-47q-11 14 -12 41l-3 56q-2 30 -15.5 42.5t-49.5 12.5h-80l-26 -152h-44l64 362h130q109 0 109 -89q0 -49 -31 -76t-76 -29q58 -7 62 -61l4 -62q1 -27 15 -45zM312 445l-25 -140h83q100 0 100 84q0 56 -72 56h-86zM667 294q0 -131 -88.5 -217t-215.5 -86
q-128 0 -216 86t-88 217t88 217.5t216 86.5q127 0 215.5 -86.5t88.5 -217.5zM641 294q0 121 -80.5 200.5t-197.5 79.5q-116 0 -196.5 -79.5t-80.5 -200.5t80.5 -200t196.5 -79q117 0 197.5 79t80.5 200z" />
    <glyph glyph-name="macron" unicode="&#xaf;" horiz-adv-x="362" 
d="M288 564h-221l7 43h222z" />
    <glyph glyph-name="degree" unicode="&#xb0;" horiz-adv-x="259" 
d="M149 427q32 0 53 22.5t21 55.5q0 30 -16.5 48.5t-46.5 18.5q-34 0 -55 -22.5t-21 -55.5q0 -31 17 -49t48 -18zM145 397q-45 0 -69.5 26.5t-24.5 67.5q0 46 31 78t81 32q44 0 69 -26.5t25 -66.5q0 -47 -31.5 -79t-80.5 -32z" />
    <glyph glyph-name="plusminus" unicode="&#xb1;" horiz-adv-x="538" 
d="M76 327h184l26 144h37l-26 -144h187l-6 -35h-187l-28 -157h-37l28 157h-184zM42 89h408l-6 -34h-408z" />
    <glyph glyph-name="twosuperior" unicode="&#xb2;" horiz-adv-x="300" 
d="M103 478l-35 18q7 44 40.5 72t84.5 28t81 -27.5t30 -75.5q0 -37 -21.5 -72.5t-57.5 -63.5t-67.5 -47t-66.5 -35v-3h189l-6 -36h-247l6 34q103 57 164.5 110t61.5 107q0 34 -19 52.5t-52 18.5q-37 0 -59 -22.5t-26 -57.5z" />
    <glyph glyph-name="threesuperior" unicode="&#xb3;" horiz-adv-x="290" 
d="M147 230q-55 0 -84 25.5t-31 66.5l40 9q6 -68 75 -68q37 0 60.5 18t23.5 53q0 67 -106 67l6 33q120 2 120 73q0 23 -16 38t-46 15q-58 0 -73 -62l-36 14q23 84 113 84q46 0 74 -22t28 -63q0 -39 -28 -63t-75 -28v-3q39 -4 61 -26t22 -57q0 -49 -37 -76.5t-91 -27.5z" />
    <glyph glyph-name="acute" unicode="&#xb4;" horiz-adv-x="284" 
d="M110 533h-43l79 136h72z" />
    <glyph glyph-name="mu" unicode="&#xb5;" horiz-adv-x="484" 
d="M435 462l-65 -373q-3 -14 -3 -25q0 -29 28 -29q13 0 31 7l-8 -39q-18 -8 -40 -8q-61 0 -61 58q0 10 7 52q-42 -114 -154 -114q-33 0 -57 13.5t-31 36.5l-42 -244h-48l114 665h51l-54 -309q-4 -17 -4 -42q0 -37 21 -58.5t60 -21.5q56 0 100.5 44t57.5 118l46 269h51z" />
    <glyph glyph-name="mu" unicode="&#x3bc;" horiz-adv-x="484" 
d="M435 462l-65 -373q-3 -14 -3 -25q0 -29 28 -29q13 0 31 7l-8 -39q-18 -8 -40 -8q-61 0 -61 58q0 10 7 52q-42 -114 -154 -114q-33 0 -57 13.5t-31 36.5l-42 -244h-48l114 665h51l-54 -309q-4 -17 -4 -42q0 -37 21 -58.5t60 -21.5q56 0 100.5 44t57.5 118l46 269h51z" />
    <glyph glyph-name="paragraph" unicode="&#xb6;" horiz-adv-x="464" 
d="M314 231h-41q-99 0 -146.5 43.5t-37.5 124.5q21 190 271 190h148l-7 -42h-79l-103 -586q-22 -124 -135 -124q-53 0 -92 30l25 46q30 -31 72 -31q63 0 76 72z" />
    <glyph glyph-name="periodcentered" unicode="&#xb7;" horiz-adv-x="246" 
d="M81 249q0 18 12 30t31 12q18 0 30 -12t12 -30t-12 -30t-30 -12q-19 0 -31 12t-12 30z" />
    <glyph glyph-name="cedilla" unicode="&#xb8;" horiz-adv-x="318" 
d="M251 -124q0 -38 -27.5 -59.5t-70.5 -21.5q-57 0 -85 40l19 32q23 -38 66 -38q24 0 39 12.5t15 34.5q0 47 -75 50l31 79h30l-21 -51q79 -13 79 -78z" />
    <glyph glyph-name="onesuperior" unicode="&#xb9;" horiz-adv-x="294" 
d="M280 236h-241l6 35h101l48 274l-115 -20l6 38l162 28l-56 -320h96z" />
    <glyph glyph-name="ordmasculine" unicode="&#xba;" horiz-adv-x="338" 
d="M186 317q51 0 81 45t30 107q0 47 -21 71t-59 24q-52 0 -82.5 -44t-30.5 -106q0 -97 82 -97zM182 282q-55 0 -87.5 33.5t-32.5 94.5q0 79 42.5 135t116.5 56q57 0 88.5 -34t31.5 -96q0 -79 -43 -134t-116 -55z" />
    <glyph glyph-name="guillemotright" unicode="&#xbb;" horiz-adv-x="456" 
d="M223 233v4q-7 3 -37 48l-89 127l35 27l139 -206l-211 -206l-27 29l129 127q18 17 33 29.5t21 16.5zM369 233v4q-7 3 -38 48l-88 127l34 27l139 -206l-211 -206l-27 29l129 127q18 17 33.5 29.5t21.5 16.5z" />
    <glyph glyph-name="onequarter" unicode="&#xbc;" horiz-adv-x="786" 
d="M291 236h-241l6 35h101l48 274l-116 -20l7 38l162 28l-56 -320h96zM194 0l410 590h43l-410 -590h-43zM628 0l16 94h-185l6 35l221 224h47l-39 -225h60l-7 -34h-60l-16 -94h-43zM553 128h98l22 127l14 58h-3q-14 -22 -44 -54l-85 -87q-13 -13 -26 -24t-19 -16l-6 -4v-3
q16 3 49 3z" />
    <glyph glyph-name="onehalf" unicode="&#xbd;" horiz-adv-x="799" 
d="M291 236h-241l6 35h101l48 274l-116 -20l7 38l162 28l-56 -320h96zM194 0l410 590h43l-410 -590h-43zM551 242l-35 18q7 44 40.5 72t84.5 28t81 -27.5t30 -75.5q0 -37 -21.5 -72.5t-57.5 -63.5t-67.5 -47t-66.5 -35v-3h189l-6 -36h-247l6 34q103 57 164.5 110t61.5 107
q0 34 -19 52.5t-52 18.5q-37 0 -59 -22.5t-26 -57.5z" />
    <glyph glyph-name="threequarters" unicode="&#xbe;" horiz-adv-x="757" 
d="M146 230q-55 0 -84 25.5t-31 66.5l40 9q6 -68 75 -68q37 0 60.5 18t23.5 53q0 67 -106 67l6 33q120 2 120 73q0 23 -16 38t-46 15q-59 0 -72 -62l-36 14q21 84 112 84q46 0 74.5 -22t28.5 -63q0 -39 -28.5 -63t-75.5 -28v-3q39 -4 61.5 -26t22.5 -57q0 -49 -37.5 -76.5
t-91.5 -27.5zM166 0l410 590h42l-409 -590h-43zM599 0l16 94h-185l7 35l221 224h46l-39 -225h60l-7 -34h-59l-17 -94h-43zM525 128h98l22 127l13 58h-3q-14 -22 -44 -54l-85 -87q-13 -13 -25.5 -24t-18.5 -16l-6 -4l-1 -3q16 3 50 3z" />
    <glyph glyph-name="questiondown" unicode="&#xbf;" horiz-adv-x="403" 
d="M315 16l42 -17q-41 -133 -177 -133q-76 0 -119 43t-43 113q0 64 32.5 109t78 63.5t98.5 18.5l17 95h48l-23 -129h-22q-75 0 -125.5 -36.5t-50.5 -116.5q0 -52 31 -84t84 -32q97 0 129 106zM326 428q0 -16 -11 -27.5t-28 -11.5t-28.5 11t-11.5 28t11.5 28.5t28.5 11.5
t28 -11.5t11 -28.5z" />
    <glyph glyph-name="Agrave" unicode="&#xc0;" horiz-adv-x="548" 
d="M436 0l-38 187h-264l-102 -187h-56l326 589h69l119 -589h-54zM256 408l-98 -176h232l-34 172l-25 150h-3q-20 -52 -72 -146zM369 642h-45l-79 121h69z" />
    <glyph glyph-name="Aacute" unicode="&#xc1;" horiz-adv-x="548" 
d="M436 0l-38 187h-264l-102 -187h-56l326 589h69l119 -589h-54zM256 408l-98 -176h232l-34 172l-25 150h-3q-20 -52 -72 -146zM368 642h-46l73 121h71z" />
    <glyph glyph-name="Acircumflex" unicode="&#xc2;" horiz-adv-x="548" 
d="M436 0l-38 187h-264l-102 -187h-56l326 589h69l119 -589h-54zM256 408l-98 -176h232l-34 172l-25 150h-3q-20 -52 -72 -146zM345 767h31l92 -125h-56l-33 48l-23 38h-2q1 0 -3.5 -5t-13.5 -14.5t-19 -19.5l-49 -47h-61z" />
    <glyph glyph-name="Atilde" unicode="&#xc3;" horiz-adv-x="548" 
d="M436 0l-38 187h-264l-102 -187h-56l326 589h69l119 -589h-54zM256 408l-98 -176h232l-34 172l-25 150h-3q-20 -52 -72 -146zM240 652l-33 1q-3 12 -3 22q0 33 21.5 55t53.5 22q29 0 61 -22l36 -27q20 -14 37 -14q35 0 39 58l33 -2q2 -14 2 -22q0 -33 -21 -54.5t-53 -21.5
q-29 0 -61 22l-36 27q-19 13 -37 13q-35 0 -39 -57z" />
    <glyph glyph-name="Adieresis" unicode="&#xc4;" horiz-adv-x="548" 
d="M436 0l-38 187h-264l-102 -187h-56l326 589h69l119 -589h-54zM256 408l-98 -176h232l-34 172l-25 150h-3q-20 -52 -72 -146zM227 690q0 16 11 27t27 11t27 -11t11 -27t-11 -27t-27 -11t-27 11t-11 27zM399 689q0 16 10.5 27t26.5 11t27 -10.5t11 -27.5q0 -16 -11 -27
t-27 -11t-26.5 11t-10.5 27z" />
    <glyph glyph-name="Aring" unicode="&#xc5;" horiz-adv-x="548" 
d="M436 0l-38 187h-264l-102 -187h-56l326 589h69l119 -589h-54zM256 408l-98 -176h232l-34 172l-25 150h-3q-20 -52 -72 -146zM354 658q25 0 41.5 18t16.5 44q0 23 -13 37t-37 14q-26 0 -42.5 -18t-16.5 -43q0 -24 13 -38t38 -14zM350 630q-38 0 -59 21.5t-21 55.5
q0 38 26.5 65t67.5 27q37 0 58.5 -21.5t21.5 -54.5q0 -39 -26.5 -66t-67.5 -27z" />
    <glyph glyph-name="AE" unicode="&#xc6;" horiz-adv-x="810" 
d="M719 0h-335l33 189h-228l-153 -189h-60l475 589h371l-8 -46h-281l-40 -225h251l-8 -46h-251l-40 -226h282zM483 554l-259 -321h200l34 191q8 42 15 74.5t10 43.5l3 12h-3z" />
    <glyph glyph-name="Ccedilla" unicode="&#xc7;" horiz-adv-x="550" 
d="M326 -124q0 -38 -27.5 -59.5t-69.5 -21.5q-58 0 -86 40l19 32q24 -38 67 -38q24 0 39 12.5t15 34.5q0 47 -76 50l27 68q-84 13 -131.5 75.5t-47.5 159.5q0 169 85 269t211 100q77 0 125 -36.5t62 -105.5l-47 -20q-10 57 -49 87t-95 30q-106 0 -172 -90.5t-66 -229.5
q0 -90 45.5 -143.5t126.5 -53.5q60 0 99.5 24t70.5 84l44 -23q-63 -130 -219 -130h-14l-15 -37q79 -13 79 -78z" />
    <glyph glyph-name="Egrave" unicode="&#xc8;" horiz-adv-x="471" 
d="M387 46l-8 -46h-335l103 589h335l-8 -46h-281l-40 -225h251l-8 -46h-251l-40 -226h282zM342 642h-44l-80 121h70z" />
    <glyph glyph-name="Eacute" unicode="&#xc9;" horiz-adv-x="471" 
d="M387 46l-8 -46h-335l103 589h335l-8 -46h-281l-40 -225h251l-8 -46h-251l-40 -226h282zM336 642h-46l73 121h71z" />
    <glyph glyph-name="Ecircumflex" unicode="&#xca;" horiz-adv-x="471" 
d="M387 46l-8 -46h-335l103 589h335l-8 -46h-281l-40 -225h251l-8 -46h-251l-40 -226h282zM319 767h31l92 -125h-56l-33 48l-23 38h-2q1 0 -4 -5t-13.5 -14.5t-18.5 -19.5l-50 -47h-60z" />
    <glyph glyph-name="Edieresis" unicode="&#xcb;" horiz-adv-x="471" 
d="M387 46l-8 -46h-335l103 589h335l-8 -46h-281l-40 -225h251l-8 -46h-251l-40 -226h282zM200 690q0 16 11 27t27 11t27 -11t11 -27t-11 -27t-27 -11t-27 11t-11 27zM372 689q0 16 11 27t27 11t27 -11t11 -27t-11 -27t-27 -11t-27 11t-11 27z" />
    <glyph glyph-name="Igrave" unicode="&#xcc;" horiz-adv-x="221" 
d="M147 589h54l-103 -589h-54zM209 642h-45l-79 121h69z" />
    <glyph glyph-name="Iacute" unicode="&#xcd;" horiz-adv-x="221" 
d="M147 589h54l-103 -589h-54zM202 642h-46l73 121h71z" />
    <glyph glyph-name="Icircumflex" unicode="&#xce;" horiz-adv-x="221" 
d="M147 589h54l-103 -589h-54zM185 767h31l92 -125h-56l-33 48l-22 38h-2q-15 -18 -37 -39l-49 -47h-61z" />
    <glyph glyph-name="Idieresis" unicode="&#xcf;" horiz-adv-x="221" 
d="M147 589h54l-103 -589h-54zM67 690q0 16 11 27t26 11q16 0 27 -11t11 -27t-11 -27t-27 -11q-15 0 -26 11t-11 27zM238 689q0 16 11 27t27 11t27 -11t11 -27t-11 -27t-27 -11t-27 11t-11 27z" />
    <glyph glyph-name="Eth" unicode="&#xd0;" horiz-adv-x="586" 
d="M219 0h-175l47 272h-62l8 46h63l47 271h157q118 0 180.5 -58.5t62.5 -168.5q0 -179 -92 -270.5t-236 -91.5zM105 45h112q125 0 199.5 79t74.5 234q0 93 -51.5 139.5t-142.5 46.5h-104l-40 -226h146l-8 -46h-146z" />
    <glyph glyph-name="Ntilde" unicode="&#xd1;" horiz-adv-x="613" 
d="M270 652l-33 1q-3 12 -3 22q0 33 21.5 55t53.5 22q30 0 60 -22l37 -27q19 -14 37 -14q35 0 38 58l34 -2q2 -14 2 -22q0 -33 -21.5 -54.5t-53.5 -21.5q-30 0 -60 22l-37 27q-17 13 -37 13q-35 0 -38 -57zM204 589l196 -406q13 -27 25 -55.5t17 -43.5l6 -15h3q7 59 19 125
l69 395h53l-102 -589h-56l-198 405l-50 114h-3q-4 -58 -16 -124l-69 -395h-54l103 589h57z" />
    <glyph glyph-name="Ograve" unicode="&#xd2;" horiz-adv-x="610" 
d="M281 36q104 0 170 90.5t66 228.5q0 90 -44 143.5t-128 53.5q-104 0 -170 -90.5t-66 -228.5q0 -91 45.5 -144t126.5 -53zM277 -9q-103 0 -162.5 65t-59.5 174q0 167 85 267.5t210 100.5q102 0 162 -65t60 -175q0 -167 -85 -267t-210 -100zM394 642h-45l-79 121h69z" />
    <glyph glyph-name="Oacute" unicode="&#xd3;" horiz-adv-x="610" 
d="M281 36q104 0 170 90.5t66 228.5q0 90 -44 143.5t-128 53.5q-104 0 -170 -90.5t-66 -228.5q0 -91 45.5 -144t126.5 -53zM277 -9q-103 0 -162.5 65t-59.5 174q0 167 85 267.5t210 100.5q102 0 162 -65t60 -175q0 -167 -85 -267t-210 -100zM387 642h-45l73 121h70z" />
    <glyph glyph-name="Ocircumflex" unicode="&#xd4;" horiz-adv-x="610" 
d="M281 36q104 0 170 90.5t66 228.5q0 90 -44 143.5t-128 53.5q-104 0 -170 -90.5t-66 -228.5q0 -91 45.5 -144t126.5 -53zM277 -9q-103 0 -162.5 65t-59.5 174q0 167 85 267.5t210 100.5q102 0 162 -65t60 -175q0 -167 -85 -267t-210 -100zM371 767h30l93 -125h-57l-34 48
l-21 38h-2q-11 -16 -36 -39l-50 -47h-60z" />
    <glyph glyph-name="Otilde" unicode="&#xd5;" horiz-adv-x="610" 
d="M281 36q104 0 170 90.5t66 228.5q0 90 -44 143.5t-128 53.5q-104 0 -170 -90.5t-66 -228.5q0 -91 45.5 -144t126.5 -53zM277 -9q-103 0 -162.5 65t-59.5 174q0 167 85 267.5t210 100.5q102 0 162 -65t60 -175q0 -167 -85 -267t-210 -100zM266 652l-33 1q-3 12 -3 22
q0 33 21.5 55t53.5 22q30 0 60 -22l37 -27q19 -14 37 -14q35 0 38 58l34 -2q2 -14 2 -22q0 -33 -21.5 -54.5t-53.5 -21.5q-30 0 -60 22l-36 27q-19 13 -38 13q-35 0 -38 -57z" />
    <glyph glyph-name="Odieresis" unicode="&#xd6;" horiz-adv-x="610" 
d="M281 36q104 0 170 90.5t66 228.5q0 90 -44 143.5t-128 53.5q-104 0 -170 -90.5t-66 -228.5q0 -91 45.5 -144t126.5 -53zM277 -9q-103 0 -162.5 65t-59.5 174q0 167 85 267.5t210 100.5q102 0 162 -65t60 -175q0 -167 -85 -267t-210 -100zM252 690q0 16 11 27t27 11
t27 -11t11 -27t-11 -27t-27 -11t-27 11t-11 27zM424 689q0 16 11 27t26 11q17 0 27.5 -10.5t10.5 -27.5q0 -16 -11 -27t-27 -11q-15 0 -26 11t-11 27z" />
    <glyph glyph-name="multiply" unicode="&#xd7;" horiz-adv-x="475" 
d="M123 413l114 -139l169 144l23 -28l-169 -144l120 -142l-29 -24l-118 142l-169 -142l-22 28l167 142l-113 139z" />
    <glyph glyph-name="Oslash" unicode="&#xd8;" horiz-adv-x="610" 
d="M277 -9q-104 0 -164 66l-64 -67l-30 28l70 72q-34 56 -34 140q0 167 85 267.5t210 100.5q103 0 162 -67l65 67l31 -29l-70 -73q34 -57 34 -138q0 -167 -85 -267t-210 -100zM109 233q0 -58 20 -101l348 361q-45 59 -132 59q-104 0 -170 -90.5t-66 -228.5zM281 36
q104 0 170 90.5t66 228.5q0 57 -20 100l-347 -361q45 -58 131 -58z" />
    <glyph glyph-name="Ugrave" unicode="&#xd9;" horiz-adv-x="574" 
d="M512 589h53l-69 -399q-35 -199 -237 -199q-89 0 -143 45.5t-54 132.5q0 27 6 58l63 362h53l-64 -366q-4 -29 -4 -51q0 -68 40.5 -102.5t107.5 -34.5q151 0 180 164zM379 642h-45l-79 121h69z" />
    <glyph glyph-name="Uacute" unicode="&#xda;" horiz-adv-x="574" 
d="M512 589h53l-69 -399q-35 -199 -237 -199q-89 0 -143 45.5t-54 132.5q0 27 6 58l63 362h53l-64 -366q-4 -29 -4 -51q0 -68 40.5 -102.5t107.5 -34.5q151 0 180 164zM373 642h-46l73 121h71z" />
    <glyph glyph-name="Ucircumflex" unicode="&#xdb;" horiz-adv-x="574" 
d="M512 589h53l-69 -399q-35 -199 -237 -199q-89 0 -143 45.5t-54 132.5q0 27 6 58l63 362h53l-64 -366q-4 -29 -4 -51q0 -68 40.5 -102.5t107.5 -34.5q151 0 180 164zM356 767h30l93 -125h-57l-34 48l-21 38h-2q-11 -16 -36 -39l-50 -47h-60z" />
    <glyph glyph-name="Udieresis" unicode="&#xdc;" horiz-adv-x="574" 
d="M512 589h53l-69 -399q-35 -199 -237 -199q-89 0 -143 45.5t-54 132.5q0 27 6 58l63 362h53l-64 -366q-4 -29 -4 -51q0 -68 40.5 -102.5t107.5 -34.5q151 0 180 164zM237 690q0 16 11 27t27 11t27 -11t11 -27t-11 -27t-27 -11t-27 11t-11 27zM409 689q0 16 11 27t27 11
t26.5 -11t10.5 -27t-10.5 -27t-26.5 -11t-27 11t-11 27z" />
    <glyph glyph-name="Yacute" unicode="&#xdd;" horiz-adv-x="485" 
d="M137 589l81 -216q11 -29 18.5 -53.5t9.5 -34.5l2 -10h3q15 32 60 98l153 216h58l-252 -353l-41 -236h-53l41 236l-135 353h55zM332 642h-46l73 121h71z" />
    <glyph glyph-name="Thorn" unicode="&#xde;" horiz-adv-x="475" 
d="M173 434l-45 -263h105q81 0 125.5 39t44.5 116q0 56 -31 82t-97 26h-102zM98 0h-54l103 589h54l-20 -111h100q89 0 133 -36t44 -112q0 -100 -61.5 -151.5t-164.5 -51.5h-112z" />
    <glyph glyph-name="germandbls" unicode="&#xdf;" horiz-adv-x="514" 
d="M331 634q-129 0 -158 -165l-100 -573q-10 -56 -35.5 -81.5t-70.5 -25.5q-50 0 -76 28l14 40q28 -26 57 -26q26 0 39.5 15.5t19.5 50.5l101 574q36 204 213 204q75 0 115 -37t40 -100q0 -72 -46 -112.5t-109 -49.5v-3q64 -5 101 -47t37 -109q0 -105 -55 -165.5t-141 -60.5
q-103 0 -124 78l36 30q19 -68 91 -68q59 0 100 47.5t41 136.5q0 65 -39.5 102t-112.5 37h-39l8 42h35q70 0 118 35.5t48 100.5q0 48 -27.5 75t-80.5 27z" />
    <glyph glyph-name="agrave" unicode="&#xe0;" horiz-adv-x="515" 
d="M381 268q11 65 -18 113t-93 48q-79 0 -128.5 -70t-49.5 -176q0 -69 30.5 -109t86.5 -40q60 0 103.5 44.5t55.5 118.5zM457 42l-8 -39q-18 -8 -40 -8q-60 0 -60 61q0 12 6 46q-19 -51 -61.5 -81t-96.5 -30q-70 0 -112.5 48.5t-42.5 138.5q0 124 62.5 208.5t162.5 84.5
q54 0 89 -28.5t43 -78.5l25 98h42l-65 -373q-3 -14 -3 -25q0 -29 28 -29q13 0 31 7zM321 533h-42l-89 136h69z" />
    <glyph glyph-name="aacute" unicode="&#xe1;" horiz-adv-x="515" 
d="M381 268q11 65 -18 113t-93 48q-79 0 -128.5 -70t-49.5 -176q0 -69 30.5 -109t86.5 -40q60 0 103.5 44.5t55.5 118.5zM457 42l-8 -39q-18 -8 -40 -8q-60 0 -60 61q0 12 6 46q-19 -51 -61.5 -81t-96.5 -30q-70 0 -112.5 48.5t-42.5 138.5q0 124 62.5 208.5t162.5 84.5
q54 0 89 -28.5t43 -78.5l25 98h42l-65 -373q-3 -14 -3 -25q0 -29 28 -29q13 0 31 7zM311 533h-43l79 136h72z" />
    <glyph glyph-name="acircumflex" unicode="&#xe2;" horiz-adv-x="515" 
d="M381 268q11 65 -18 113t-93 48q-79 0 -128.5 -70t-49.5 -176q0 -69 30.5 -109t86.5 -40q60 0 103.5 44.5t55.5 118.5zM457 42l-8 -39q-18 -8 -40 -8q-60 0 -60 61q0 12 6 46q-19 -51 -61.5 -81t-96.5 -30q-70 0 -112.5 48.5t-42.5 138.5q0 124 62.5 208.5t162.5 84.5
q54 0 89 -28.5t43 -78.5l25 98h42l-65 -373q-3 -14 -3 -25q0 -29 28 -29q13 0 31 7zM299 669h29l91 -136h-53l-35 54l-22 40h-3q-11 -17 -36 -41l-53 -53h-57z" />
    <glyph glyph-name="atilde" unicode="&#xe3;" horiz-adv-x="515" 
d="M381 268q11 65 -18 113t-93 48q-79 0 -128.5 -70t-49.5 -176q0 -69 30.5 -109t86.5 -40q60 0 103.5 44.5t55.5 118.5zM457 42l-8 -39q-18 -8 -40 -8q-60 0 -60 61q0 12 6 46q-19 -51 -61.5 -81t-96.5 -30q-70 0 -112.5 48.5t-42.5 138.5q0 124 62.5 208.5t162.5 84.5
q54 0 89 -28.5t43 -78.5l25 98h42l-65 -373q-3 -14 -3 -25q0 -29 28 -29q13 0 31 7zM198 543l-33 2q-3 10 -3 22q0 33 21.5 54.5t53.5 21.5q30 0 60 -22l37 -27q19 -13 37 -13q35 0 38 57l34 -1q2 -16 2 -22q0 -34 -21.5 -55.5t-53.5 -21.5q-30 0 -60 22l-36 27
q-20 14 -37 14q-35 0 -39 -58z" />
    <glyph glyph-name="adieresis" unicode="&#xe4;" horiz-adv-x="515" 
d="M381 268q11 65 -18 113t-93 48q-79 0 -128.5 -70t-49.5 -176q0 -69 30.5 -109t86.5 -40q60 0 103.5 44.5t55.5 118.5zM457 42l-8 -39q-18 -8 -40 -8q-60 0 -60 61q0 12 6 46q-19 -51 -61.5 -81t-96.5 -30q-70 0 -112.5 48.5t-42.5 138.5q0 124 62.5 208.5t162.5 84.5
q54 0 89 -28.5t43 -78.5l25 98h42l-65 -373q-3 -14 -3 -25q0 -29 28 -29q13 0 31 7zM181 595q0 16 11 27t27 11t27 -11t11 -27t-11 -27t-27 -11t-27 11t-11 27zM353 594q0 16 10.5 27t26.5 11t27 -11t11 -27q0 -15 -11 -26t-27 -11t-26.5 11t-10.5 26z" />
    <glyph glyph-name="aring" unicode="&#xe5;" horiz-adv-x="515" 
d="M368 197l13 71q11 65 -18 113t-93 48q-79 0 -128.5 -70t-49.5 -176q0 -69 30.5 -109t86.5 -40q60 0 103.5 44.5t55.5 118.5zM457 42l-8 -39q-18 -8 -40 -8q-60 0 -60 61q0 12 6 46q-19 -51 -61.5 -81t-96.5 -30q-70 0 -112.5 48.5t-42.5 138.5q0 124 62.5 208.5
t162.5 84.5q54 0 89 -28.5t43 -78.5l25 98h42l-65 -373q-3 -14 -3 -25q0 -29 28 -29q13 0 31 7zM304 556q26 0 42.5 18t16.5 44q0 23 -13 37t-37 14q-26 0 -43 -18t-17 -44q0 -23 13.5 -37t37.5 -14zM301 528q-38 0 -59 21.5t-21 55.5q0 38 26.5 65t67.5 27q37 0 58.5 -22
t21.5 -55q0 -38 -26.5 -65t-67.5 -27z" />
    <glyph glyph-name="ae" unicode="&#xe6;" horiz-adv-x="730" 
d="M676 226h-305q-3 -19 -3 -40q0 -71 32.5 -112.5t96.5 -41.5q55 0 85 23t45 70l46 -12q-40 -122 -180 -122q-112 0 -152 91q-51 -91 -168 -91q-68 0 -102 31.5t-34 87.5q0 75 61.5 114.5t171.5 42.5q7 1 60 1q8 37 22 65q4 47 -22 71.5t-73 24.5q-98 0 -121 -90l-46 8
q16 65 63.5 94.5t109.5 29.5q106 0 129 -74q63 74 150 74q77 0 115 -44.5t38 -113.5q0 -52 -19 -87zM178 30q105 0 148 96q-5 28 -5 58q0 21 3 42h-54q-84 -2 -133 -30.5t-49 -83.5q0 -39 23 -60.5t67 -21.5zM540 429q-62 0 -104.5 -46t-57.5 -115h261q7 17 7 46
q0 51 -26.5 83t-79.5 32z" />
    <glyph glyph-name="ccedilla" unicode="&#xe7;" horiz-adv-x="441" 
d="M261 -124q0 -38 -28 -59.5t-70 -21.5q-58 0 -86 40l19 32q24 -38 67 -38q24 0 39 12.5t15 34.5q0 47 -75 50l27 70q-60 12 -93.5 60t-33.5 127q0 116 59.5 202t165.5 86q74 0 110 -39.5t36 -109.5l-45 -8q-2 113 -106 113q-80 0 -125 -71.5t-45 -166.5q0 -78 33 -117.5
t94 -39.5q99 0 131 101l47 -11q-44 -131 -184 -131q-3 0 -8.5 0.5t-7.5 0.5l-16 -38q80 -13 80 -78z" />
    <glyph glyph-name="egrave" unicode="&#xe8;" horiz-adv-x="451" 
d="M348 125l46 -12q-40 -122 -176 -122q-84 0 -130 50.5t-46 142.5q0 125 63 206t158 81q77 0 115 -44.5t38 -113.5q0 -50 -19 -85h-305q-3 -20 -3 -40q0 -72 32.5 -114t96.5 -42q55 0 85 23t45 70zM261 429q-64 0 -105.5 -44.5t-57.5 -114.5h262q7 17 7 44q0 51 -26.5 83
t-79.5 32zM296 533h-42l-89 136h69z" />
    <glyph glyph-name="eacute" unicode="&#xe9;" horiz-adv-x="451" 
d="M348 125l46 -12q-40 -122 -176 -122q-84 0 -130 50.5t-46 142.5q0 125 63 206t158 81q77 0 115 -44.5t38 -113.5q0 -50 -19 -85h-305q-3 -20 -3 -40q0 -72 32.5 -114t96.5 -42q55 0 85 23t45 70zM261 429q-64 0 -105.5 -44.5t-57.5 -114.5h262q7 17 7 44q0 51 -26.5 83
t-79.5 32zM286 533h-43l80 136h71z" />
    <glyph glyph-name="ecircumflex" unicode="&#xea;" horiz-adv-x="451" 
d="M348 125l46 -12q-40 -122 -176 -122q-84 0 -130 50.5t-46 142.5q0 125 63 206t158 81q77 0 115 -44.5t38 -113.5q0 -50 -19 -85h-305q-3 -20 -3 -40q0 -72 32.5 -114t96.5 -42q55 0 85 23t45 70zM261 429q-64 0 -105.5 -44.5t-57.5 -114.5h262q7 17 7 44q0 51 -26.5 83
t-79.5 32zM285 669h29l92 -136h-54l-35 54l-21 40h-3q-12 -17 -36 -41l-54 -53h-56z" />
    <glyph glyph-name="edieresis" unicode="&#xeb;" horiz-adv-x="451" 
d="M348 125l46 -12q-40 -122 -176 -122q-84 0 -130 50.5t-46 142.5q0 125 63 206t158 81q77 0 115 -44.5t38 -113.5q0 -50 -19 -85h-305q-3 -20 -3 -40q0 -72 32.5 -114t96.5 -42q55 0 85 23t45 70zM261 429q-64 0 -105.5 -44.5t-57.5 -114.5h262q7 17 7 44q0 51 -26.5 83
t-79.5 32zM156 595q0 16 11 27t27 11t27 -11t11 -27t-11 -27t-27 -11t-27 11t-11 27zM328 594q0 16 10.5 27t26.5 11q17 0 27.5 -11t10.5 -27q0 -15 -11 -26t-27 -11t-26.5 11t-10.5 26z" />
    <glyph glyph-name="igrave" unicode="&#xec;" horiz-adv-x="218" 
d="M169 462l-65 -373q-3 -14 -3 -25q0 -29 28 -29q13 0 31 7l-8 -39q-18 -8 -40 -8q-62 0 -62 60q0 11 3 29l65 378h51zM186 533h-43l-89 136h70z" />
    <glyph glyph-name="iacute" unicode="&#xed;" horiz-adv-x="218" 
d="M169 462l-65 -373q-3 -14 -3 -25q0 -29 28 -29q13 0 31 7l-8 -39q-18 -8 -40 -8q-62 0 -62 60q0 11 3 29l65 378h51zM174 533h-43l80 136h71z" />
    <glyph glyph-name="icircumflex" unicode="&#xee;" horiz-adv-x="218" 
d="M169 462l-65 -373q-3 -14 -3 -25q0 -29 28 -29q13 0 31 7l-8 -39q-18 -8 -40 -8q-62 0 -62 60q0 11 3 29l65 378h51zM163 669h29l91 -136h-53l-35 54l-21 40h-3l-4 -5q-4 -5 -13 -15.5t-19 -20.5l-54 -53h-57z" />
    <glyph glyph-name="idieresis" unicode="&#xef;" horiz-adv-x="218" 
d="M169 462l-65 -373q-3 -14 -3 -25q0 -29 28 -29q13 0 31 7l-8 -39q-18 -8 -40 -8q-62 0 -62 60q0 11 3 29l65 378h51zM45 595q0 16 11 27t27 11t27 -11t11 -27t-11 -27t-27 -11t-27 11t-11 27zM216 594q0 16 11 27t27 11t27 -11t11 -27q0 -15 -11 -26t-27 -11t-27 11
t-11 26z" />
    <glyph glyph-name="eth" unicode="&#xf0;" horiz-adv-x="479" 
d="M142 505l-7 29l142 36q-65 51 -159 74l37 28q109 -30 173 -88l91 23l8 -30l-74 -19q84 -98 84 -275q0 -126 -59.5 -209t-165.5 -83q-79 0 -124.5 49t-45.5 141q0 117 59 200.5t160 83.5q41 0 74 -18.5t47 -51.5h3q-22 93 -80 151zM217 31q79 0 124.5 71t45.5 169
q0 151 -125 151q-78 0 -124 -69.5t-46 -166.5q0 -76 33 -115.5t92 -39.5z" />
    <glyph glyph-name="ntilde" unicode="&#xf1;" horiz-adv-x="494" 
d="M339 84l39 222q5 32 5 46q0 35 -20 55t-59 20q-56 0 -103.5 -44.5t-62.5 -128.5l-44 -254h-50l80 462h44l-12 -108q23 54 64 85.5t96 31.5t86.5 -28t31.5 -81q0 -22 -6 -57l-38 -216q0 -2 -1.5 -11t-1.5 -14q0 -29 28 -29q13 0 31 7l-7 -39q-19 -8 -41 -8q-62 0 -62 60
q0 11 3 29zM200 543l-34 2q-2 14 -2 22q0 33 21.5 54.5t53.5 21.5q30 0 60 -22l37 -27q17 -13 37 -13q35 0 38 57l33 -1q3 -12 3 -22q0 -33 -21.5 -55t-53.5 -22q-30 0 -60 22l-37 27q-19 14 -37 14q-35 0 -38 -58z" />
    <glyph glyph-name="ograve" unicode="&#xf2;" horiz-adv-x="480" 
d="M217 32q79 0 125 71.5t46 170.5q0 75 -32.5 114t-93.5 39q-78 0 -124 -70t-46 -168q0 -77 32.5 -117t92.5 -40zM212 -9q-79 0 -124.5 50t-45.5 143q0 119 60.5 203t166.5 84q81 0 125 -51t44 -143q0 -119 -60.5 -202.5t-165.5 -83.5zM311 533h-43l-89 136h70z" />
    <glyph glyph-name="oacute" unicode="&#xf3;" horiz-adv-x="480" 
d="M217 32q79 0 125 71.5t46 170.5q0 75 -32.5 114t-93.5 39q-78 0 -124 -70t-46 -168q0 -77 32.5 -117t92.5 -40zM212 -9q-79 0 -124.5 50t-45.5 143q0 119 60.5 203t166.5 84q81 0 125 -51t44 -143q0 -119 -60.5 -202.5t-165.5 -83.5zM300 533h-43l80 136h71z" />
    <glyph glyph-name="ocircumflex" unicode="&#xf4;" horiz-adv-x="480" 
d="M217 32q79 0 125 71.5t46 170.5q0 75 -32.5 114t-93.5 39q-78 0 -124 -70t-46 -168q0 -77 32.5 -117t92.5 -40zM212 -9q-79 0 -124.5 50t-45.5 143q0 119 60.5 203t166.5 84q81 0 125 -51t44 -143q0 -119 -60.5 -202.5t-165.5 -83.5zM289 669h28l92 -136h-54l-35 54
l-21 40h-3q-11 -17 -36 -41l-54 -53h-56z" />
    <glyph glyph-name="otilde" unicode="&#xf5;" horiz-adv-x="480" 
d="M217 32q79 0 125 71.5t46 170.5q0 75 -32.5 114t-93.5 39q-78 0 -124 -70t-46 -168q0 -77 32.5 -117t92.5 -40zM212 -9q-79 0 -124.5 50t-45.5 143q0 119 60.5 203t166.5 84q81 0 125 -51t44 -143q0 -119 -60.5 -202.5t-165.5 -83.5zM189 543l-34 2q-2 14 -2 22
q0 33 21.5 54.5t53.5 21.5q30 0 60 -22l36 -27q19 -13 37 -13q36 0 39 57l33 -1q3 -12 3 -22q0 -33 -21.5 -55t-53.5 -22q-30 0 -60 22l-37 27q-20 14 -37 14q-35 0 -38 -58z" />
    <glyph glyph-name="odieresis" unicode="&#xf6;" horiz-adv-x="480" 
d="M217 32q79 0 125 71.5t46 170.5q0 75 -32.5 114t-93.5 39q-78 0 -124 -70t-46 -168q0 -77 32.5 -117t92.5 -40zM212 -9q-79 0 -124.5 50t-45.5 143q0 119 60.5 203t166.5 84q81 0 125 -51t44 -143q0 -119 -60.5 -202.5t-165.5 -83.5zM170 595q0 16 11 27t27 11t27 -11
t11 -27t-11 -27t-27 -11t-27 11t-11 27zM342 594q0 16 11 27t27 11t27 -11t11 -27q0 -15 -11 -26t-27 -11t-27 11t-11 26z" />
    <glyph glyph-name="divide" unicode="&#xf7;" horiz-adv-x="496" 
d="M49 265h408l-6 -34h-408zM245 415q0 15 10 25.5t24 10.5t24.5 -10.5t10.5 -25.5q0 -14 -10.5 -24t-24.5 -10t-24 10t-10 24zM176 74q0 14 10 24.5t24 10.5t24.5 -10.5t10.5 -24.5t-10.5 -24t-24.5 -10t-24 10t-10 24z" />
    <glyph glyph-name="oslash" unicode="&#xf8;" horiz-adv-x="480" 
d="M212 -9q-83 0 -126 52l-54 -53l-28 27l59 60q-21 44 -21 107q0 119 60.5 203t166.5 84q84 0 129 -56l55 55l28 -29l-62 -63q19 -39 19 -101q0 -119 -60.5 -202.5t-165.5 -83.5zM217 32q79 0 125 71.5t46 170.5q0 36 -11 64l-257 -261q30 -45 97 -45zM92 189q0 -44 10 -73
l260 263q-33 48 -100 48q-78 0 -124 -70t-46 -168z" />
    <glyph glyph-name="ugrave" unicode="&#xf9;" horiz-adv-x="484" 
d="M435 462l-65 -373q-3 -14 -3 -25q0 -29 28 -29q13 0 31 7l-8 -39q-18 -8 -40 -8q-61 0 -61 58q0 11 7 52q-42 -114 -157 -114q-57 0 -88 30t-31 86q0 21 6 55l52 300h51l-54 -309q-4 -17 -4 -42q0 -37 21 -58.5t60 -21.5q56 0 100.5 44t57.5 118l46 269h51zM306 533h-42
l-89 136h69z" />
    <glyph glyph-name="uacute" unicode="&#xfa;" horiz-adv-x="484" 
d="M435 462l-65 -373q-3 -14 -3 -25q0 -29 28 -29q13 0 31 7l-8 -39q-18 -8 -40 -8q-61 0 -61 58q0 11 7 52q-42 -114 -157 -114q-57 0 -88 30t-31 86q0 21 6 55l52 300h51l-54 -309q-4 -17 -4 -42q0 -37 21 -58.5t60 -21.5q56 0 100.5 44t57.5 118l46 269h51zM296 533h-43
l80 136h71z" />
    <glyph glyph-name="ucircumflex" unicode="&#xfb;" horiz-adv-x="484" 
d="M435 462l-65 -373q-3 -14 -3 -25q0 -29 28 -29q13 0 31 7l-8 -39q-18 -8 -40 -8q-61 0 -61 58q0 11 7 52q-42 -114 -157 -114q-57 0 -88 30t-31 86q0 21 6 55l52 300h51l-54 -309q-4 -17 -4 -42q0 -37 21 -58.5t60 -21.5q56 0 100.5 44t57.5 118l46 269h51zM284 669h29
l91 -136h-53l-35 54l-21 40h-4q-11 -17 -36 -41l-53 -53h-57z" />
    <glyph glyph-name="udieresis" unicode="&#xfc;" horiz-adv-x="484" 
d="M435 462l-65 -373q-3 -14 -3 -25q0 -29 28 -29q13 0 31 7l-8 -39q-18 -8 -40 -8q-61 0 -61 58q0 11 7 52q-42 -114 -157 -114q-57 0 -88 30t-31 86q0 21 6 55l52 300h51l-54 -309q-4 -17 -4 -42q0 -37 21 -58.5t60 -21.5q56 0 100.5 44t57.5 118l46 269h51zM166 595
q0 16 11 27t27 11t27 -11t11 -27t-11 -27t-27 -11t-27 11t-11 27zM338 594q0 16 10.5 27t26.5 11q17 0 27.5 -11t10.5 -27q0 -15 -11 -26t-27 -11t-26.5 11t-10.5 26z" />
    <glyph glyph-name="yacute" unicode="&#xfd;" horiz-adv-x="417" 
d="M127 -15l-72 477h53l39 -295q6 -38 9 -71t4 -46v-14h3q15 45 61 129l164 297h54l-306 -546q-40 -73 -75 -100.5t-83 -27.5q-41 0 -70 23l14 39q29 -22 58 -22q34 0 58.5 22t55.5 79zM265 533h-44l80 136h72z" />
    <glyph glyph-name="thorn" unicode="&#xfe;" horiz-adv-x="513" 
d="M209 668l-55 -314q21 53 64.5 85t99.5 32q73 0 113 -48.5t40 -139.5q0 -126 -62 -209t-164 -83q-55 0 -91.5 30t-43.5 76l-52 -300h-50l152 871h49zM139 262l-14 -79q-11 -60 21 -107t96 -47q80 0 128.5 72.5t48.5 179.5q0 70 -30 109t-85 39q-59 0 -105.5 -47
t-59.5 -120z" />
    <glyph glyph-name="ydieresis" unicode="&#xff;" horiz-adv-x="417" 
d="M127 -15l-72 477h53l39 -295q6 -38 9 -71t4 -46v-14h3q15 45 61 129l164 297h54l-306 -546q-40 -73 -75 -100.5t-83 -27.5q-41 0 -70 23l14 39q29 -22 58 -22q34 0 58.5 22t55.5 79zM135 595q0 16 11 27t27 11t26.5 -11t10.5 -27t-10.5 -27t-26.5 -11t-27 11t-11 27z
M306 594q0 16 11 27t27 11t27 -11t11 -27q0 -15 -11 -26t-27 -11t-27 11t-11 26z" />
    <glyph glyph-name="Amacron" unicode="&#x100;" horiz-adv-x="548" 
d="M436 0l-38 187h-264l-102 -187h-56l326 589h69l119 -589h-54zM256 408l-98 -176h232l-34 172l-25 150h-3q-20 -52 -72 -146zM459 667h-222l7 41h222z" />
    <glyph glyph-name="amacron" unicode="&#x101;" horiz-adv-x="515" 
d="M368 197l13 71q11 65 -18 113t-93 48q-79 0 -128.5 -70t-49.5 -176q0 -69 30.5 -109t86.5 -40q60 0 103.5 44.5t55.5 118.5zM457 42l-8 -39q-18 -8 -40 -8q-60 0 -60 61q0 12 6 46q-19 -51 -61.5 -81t-96.5 -30q-70 0 -112.5 48.5t-42.5 138.5q0 124 62.5 208.5
t162.5 84.5q54 0 89 -28.5t43 -78.5l25 98h42l-65 -373q-3 -14 -3 -25q0 -29 28 -29q13 0 31 7zM410 564h-222l8 43h221z" />
    <glyph glyph-name="Abreve" unicode="&#x102;" horiz-adv-x="548" 
d="M436 0l-38 187h-264l-102 -187h-56l326 589h69l119 -589h-54zM256 408l-98 -176h232l-34 172l-25 150h-3q-20 -52 -72 -146zM343 638q-49 0 -75 24t-26 68q0 14 3 31h42q-1 -9 -1 -23q0 -60 63 -60q73 0 95 83h41q-10 -58 -47.5 -90.5t-94.5 -32.5z" />
    <glyph glyph-name="abreve" unicode="&#x103;" horiz-adv-x="515" 
d="M381 268q11 65 -18 113t-93 48q-79 0 -128.5 -70t-49.5 -176q0 -69 30.5 -109t86.5 -40q60 0 103.5 44.5t55.5 118.5zM457 42l-8 -39q-18 -8 -40 -8q-60 0 -60 61q0 12 6 46q-19 -51 -61.5 -81t-96.5 -30q-70 0 -112.5 48.5t-42.5 138.5q0 124 62.5 208.5t162.5 84.5
q54 0 89 -28.5t43 -78.5l25 98h42l-65 -373q-3 -14 -3 -25q0 -29 28 -29q13 0 31 7zM290 530q-49 0 -75 25t-26 70q0 15 3 33h42q-2 -9 -2 -25q0 -63 63 -63q76 0 96 88h42q-11 -61 -48.5 -94.5t-94.5 -33.5z" />
    <glyph glyph-name="Aogonek" unicode="&#x104;" horiz-adv-x="548" 
d="M445 -128l20 -25q-30 -48 -90 -48q-39 0 -59.5 19.5t-20.5 55.5q0 52 40.5 92t95.5 59l-33 162h-264l-102 -187h-56l326 589h69l119 -589q-68 -12 -108.5 -44.5t-40.5 -77.5q0 -42 42 -42q37 0 62 36zM256 408l-98 -176h232l-34 172l-25 150h-3q-20 -52 -72 -146z" />
    <glyph glyph-name="aogonek" unicode="&#x105;" horiz-adv-x="515" 
d="M419 -128l20 -25q-30 -48 -90 -48q-39 0 -59.5 19.5t-20.5 55.5q0 42 29 76.5t73 57.5q-22 13 -22 50q0 9 6 44q-18 -49 -61.5 -80t-96.5 -31q-70 0 -112.5 48.5t-42.5 138.5q0 124 62.5 208.5t162.5 84.5q54 0 89 -28.5t43 -78.5l25 98h42l-65 -373q-3 -14 -3 -25
q0 -29 28 -29q13 0 31 7l-8 -39q-54 -14 -94 -45t-40 -80q0 -42 42 -42q37 0 62 36zM381 268q11 65 -18 113t-93 48q-79 0 -128.5 -70t-49.5 -176q0 -69 30.5 -109t86.5 -40q60 0 103.5 44.5t55.5 118.5z" />
    <glyph glyph-name="Cacute" unicode="&#x106;" horiz-adv-x="550" 
d="M384 642h-46l73 121h71zM276 -9q-103 0 -162 65t-59 173q0 169 85 269t211 100q77 0 125 -36.5t62 -105.5l-47 -20q-10 57 -49 87t-95 30q-106 0 -172 -90.5t-66 -229.5q0 -90 45.5 -143.5t126.5 -53.5q60 0 99.5 24t70.5 84l44 -23q-63 -130 -219 -130z" />
    <glyph glyph-name="cacute" unicode="&#x107;" horiz-adv-x="441" 
d="M92 189q0 -78 33 -117.5t94 -39.5q99 0 131 101l47 -11q-44 -131 -184 -131q-79 0 -125 50t-46 142q0 116 59.5 202t165.5 86q74 0 110 -39.5t36 -109.5l-45 -8q-2 113 -106 113q-80 0 -125 -71.5t-45 -166.5zM298 533h-43l79 136h72z" />
    <glyph glyph-name="Ccircumflex" unicode="&#x108;" horiz-adv-x="550" 
d="M367 767h31l92 -125h-56l-34 48l-22 38h-2q-11 -16 -35 -39l-51 -47h-60zM276 -9q-103 0 -162 65t-59 173q0 169 85 269t211 100q77 0 125 -36.5t62 -105.5l-47 -20q-10 57 -49 87t-95 30q-106 0 -172 -90.5t-66 -229.5q0 -90 45.5 -143.5t126.5 -53.5q60 0 99.5 24
t70.5 84l44 -23q-63 -130 -219 -130z" />
    <glyph glyph-name="ccircumflex" unicode="&#x109;" horiz-adv-x="441" 
d="M92 189q0 -78 33 -117.5t94 -39.5q99 0 131 101l47 -11q-44 -131 -184 -131q-79 0 -125 50t-46 142q0 116 59.5 202t165.5 86q74 0 110 -39.5t36 -109.5l-45 -8q-2 113 -106 113q-80 0 -125 -71.5t-45 -166.5zM286 669h29l92 -136h-54l-35 54l-21 40h-3q-12 -17 -36 -41
l-54 -53h-57z" />
    <glyph glyph-name="Cdotaccent" unicode="&#x10a;" horiz-adv-x="550" 
d="M336 698q0 16 10.5 27t26.5 11q17 0 27.5 -11t10.5 -27t-11 -27t-27 -11t-26.5 11t-10.5 27zM276 -9q-103 0 -162 65t-59 173q0 169 85 269t211 100q77 0 125 -36.5t62 -105.5l-47 -20q-10 57 -49 87t-95 30q-106 0 -172 -90.5t-66 -229.5q0 -90 45.5 -143.5t126.5 -53.5
q60 0 99.5 24t70.5 84l44 -23q-63 -130 -219 -130z" />
    <glyph glyph-name="cdotaccent" unicode="&#x10b;" horiz-adv-x="441" 
d="M92 189q0 -78 33 -117.5t94 -39.5q99 0 131 101l47 -11q-44 -131 -184 -131q-79 0 -125 50t-46 142q0 116 59.5 202t165.5 86q74 0 110 -39.5t36 -109.5l-45 -8q-2 113 -106 113q-80 0 -125 -71.5t-45 -166.5zM252 604q0 17 10.5 28t26.5 11q17 0 28 -11.5t11 -27.5
t-11 -26.5t-28 -10.5q-16 0 -26.5 10.5t-10.5 26.5z" />
    <glyph glyph-name="Ccaron" unicode="&#x10c;" horiz-adv-x="550" 
d="M378 642h-31l-93 125h57l34 -48l22 -38h2q11 16 35 39l51 47h60zM276 -9q-103 0 -162 65t-59 173q0 169 85 269t211 100q77 0 125 -36.5t62 -105.5l-47 -20q-10 57 -49 87t-95 30q-106 0 -172 -90.5t-66 -229.5q0 -90 45.5 -143.5t126.5 -53.5q60 0 99.5 24t70.5 84
l44 -23q-63 -130 -219 -130z" />
    <glyph glyph-name="ccaron" unicode="&#x10d;" horiz-adv-x="441" 
d="M92 189q0 -78 33 -117.5t94 -39.5q99 0 131 101l47 -11q-44 -131 -184 -131q-79 0 -125 50t-46 142q0 116 59.5 202t165.5 86q74 0 110 -39.5t36 -109.5l-45 -8q-2 113 -106 113q-80 0 -125 -71.5t-45 -166.5zM295 533h-29l-91 136h53l35 -54l21 -41h4q11 17 35 42l54 53
h57z" />
    <glyph glyph-name="Dcaron" unicode="&#x10e;" horiz-adv-x="586" 
d="M105 45h112q125 0 199.5 79t74.5 234q0 93 -51.5 139.5t-142.5 46.5h-104zM219 0h-175l103 589h157q118 0 180.5 -58.5t62.5 -168.5q0 -179 -92 -270.5t-236 -91.5zM338 642h-30l-93 125h57l34 -48l21 -38h2q11 16 36 39l50 47h60z" />
    <glyph glyph-name="dcaron" unicode="&#x10f;" horiz-adv-x="512" 
d="M368 196l14 72q11 65 -18.5 113t-93.5 48q-79 0 -129 -70.5t-50 -176.5q0 -69 30.5 -108.5t86.5 -39.5q61 0 104.5 44.5t55.5 117.5zM355 102q-17 -52 -60 -81.5t-98 -29.5q-70 0 -112.5 48.5t-42.5 138.5q0 124 62.5 208.5t162.5 84.5q54 0 89 -28.5t43 -78.5l53 304h50
l-101 -579q-3 -14 -3 -25q0 -29 28 -29q13 0 31 7l-8 -39q-18 -8 -40 -8q-60 0 -60 61q0 10 6 46zM626 668l-53 -175h-37l30 175h60z" />
    <glyph glyph-name="Dcroat" unicode="&#x110;" horiz-adv-x="586" 
d="M219 0h-175l47 272h-62l8 46h63l47 271h157q118 0 180.5 -58.5t62.5 -168.5q0 -179 -92 -270.5t-236 -91.5zM105 45h112q125 0 199.5 79t74.5 234q0 93 -51.5 139.5t-142.5 46.5h-104l-40 -226h146l-8 -46h-146z" />
    <glyph glyph-name="dcroat" unicode="&#x111;" horiz-adv-x="512" 
d="M272 541l8 41h156l16 86h50l-16 -86h74l-8 -41h-73l-78 -452q-3 -14 -3 -25q0 -29 28 -29q13 0 31 7l-8 -39q-18 -8 -40 -8q-60 0 -60 61q0 12 6 46q-17 -52 -60 -81.5t-98 -29.5q-70 0 -112.5 48.5t-42.5 138.5q0 124 62.5 208.5t162.5 84.5q54 0 89 -28.5t43 -78.5
l30 177h-157zM368 196l14 72q11 65 -18.5 113t-93.5 48q-79 0 -129 -70.5t-50 -176.5q0 -69 30.5 -108.5t86.5 -39.5q61 0 104.5 44.5t55.5 117.5z" />
    <glyph glyph-name="Emacron" unicode="&#x112;" horiz-adv-x="471" 
d="M387 46l-8 -46h-335l103 589h335l-8 -46h-281l-40 -225h251l-8 -46h-251l-40 -226h282zM433 667h-222l7 41h222z" />
    <glyph glyph-name="emacron" unicode="&#x113;" horiz-adv-x="451" 
d="M348 125l46 -12q-40 -122 -180 -122q-82 0 -127 50.5t-45 142.5q0 125 63 206t158 81q77 0 115 -44.5t38 -113.5q0 -50 -19 -85h-305q-3 -20 -3 -40q0 -72 32.5 -114t96.5 -42q55 0 85 23t45 70zM261 429q-64 0 -105.5 -44.5t-57.5 -114.5h262q7 17 7 44q0 51 -26.5 83
t-79.5 32zM385 564h-222l8 43h221z" />
    <glyph glyph-name="Ebreve" unicode="&#x114;" horiz-adv-x="471" 
d="M387 46l-8 -46h-335l103 589h335l-8 -46h-281l-40 -225h251l-8 -46h-251l-40 -226h282zM316 638q-48 0 -74 24t-26 68q0 14 3 31h41q-1 -9 -1 -23q0 -60 63 -60q75 0 95 83h42q-10 -58 -48 -90.5t-95 -32.5z" />
    <glyph glyph-name="ebreve" unicode="&#x115;" horiz-adv-x="451" 
d="M348 125l46 -12q-40 -122 -176 -122q-84 0 -130 50.5t-46 142.5q0 125 63 206t158 81q77 0 115 -44.5t38 -113.5q0 -50 -19 -85h-305q-3 -20 -3 -40q0 -72 32.5 -114t96.5 -42q55 0 85 23t45 70zM261 429q-64 0 -105.5 -44.5t-57.5 -114.5h262q7 17 7 44q0 51 -26.5 83
t-79.5 32zM276 530q-48 0 -74 25t-26 70q0 15 3 33h41q-1 -9 -1 -25q0 -63 63 -63q74 0 96 88h41q-10 -61 -48 -94.5t-95 -33.5z" />
    <glyph glyph-name="Edotaccent" unicode="&#x116;" horiz-adv-x="471" 
d="M387 46l-8 -46h-335l103 589h335l-8 -46h-281l-40 -225h251l-8 -46h-251l-40 -226h282zM287 698q0 16 10.5 27t26.5 11q17 0 28 -11t11 -27t-11.5 -27t-27.5 -11t-26.5 11t-10.5 27z" />
    <glyph glyph-name="edotaccent" unicode="&#x117;" horiz-adv-x="451" 
d="M348 125l46 -12q-40 -122 -176 -122q-84 0 -130 50.5t-46 142.5q0 125 63 206t158 81q77 0 115 -44.5t38 -113.5q0 -50 -19 -85h-305q-3 -20 -3 -40q0 -72 32.5 -114t96.5 -42q55 0 85 23t45 70zM261 429q-64 0 -105.5 -44.5t-57.5 -114.5h262q7 17 7 44q0 51 -26.5 83
t-79.5 32zM251 604q0 17 10.5 28t26.5 11t27.5 -11.5t11.5 -27.5t-11 -26.5t-28 -10.5q-16 0 -26.5 10.5t-10.5 26.5z" />
    <glyph glyph-name="Eogonek" unicode="&#x118;" horiz-adv-x="471" 
d="M350 -128l20 -25q-30 -48 -90 -48q-39 0 -59.5 19.5t-20.5 55.5q0 37 25 71t63 55h-244l103 589h335l-8 -46h-281l-40 -225h251l-8 -46h-251l-40 -226h282l-8 -46q-61 -11 -97 -44t-36 -78q0 -42 42 -42q37 0 62 36z" />
    <glyph glyph-name="eogonek" unicode="&#x119;" horiz-adv-x="451" 
d="M296 -125l21 -25q-30 -48 -91 -48q-39 0 -59.5 19.5t-20.5 55.5q0 66 67 115q-8 0 -26 2q-70 8 -107.5 57t-37.5 133q0 125 63 206t158 81q77 0 115 -44.5t38 -113.5q0 -50 -19 -85h-305q-3 -20 -3 -40q0 -72 32.5 -114t96.5 -42q55 0 85 23t45 70l46 -12
q-15 -46 -43.5 -72t-73.5 -43q-38 -16 -61.5 -48t-23.5 -69q0 -20 11 -31.5t31 -11.5q36 0 62 37zM261 429q-64 0 -105.5 -44.5t-57.5 -114.5h262q7 17 7 44q0 51 -26.5 83t-79.5 32z" />
    <glyph glyph-name="Ecaron" unicode="&#x11a;" horiz-adv-x="471" 
d="M387 46l-8 -46h-335l103 589h335l-8 -46h-281l-40 -225h251l-8 -46h-251l-40 -226h282zM329 642h-31l-92 125h56l33 -48l23 -38h2q-1 0 3.5 5t13.5 14.5t19 19.5l49 47h61z" />
    <glyph glyph-name="ecaron" unicode="&#x11b;" horiz-adv-x="451" 
d="M348 125l46 -12q-40 -122 -176 -122q-84 0 -130 50.5t-46 142.5q0 125 63 206t158 81q77 0 115 -44.5t38 -113.5q0 -50 -19 -85h-305q-3 -20 -3 -40q0 -72 32.5 -114t96.5 -42q55 0 85 23t45 70zM261 429q-64 0 -105.5 -44.5t-57.5 -114.5h262q7 17 7 44q0 51 -26.5 83
t-79.5 32zM283 533h-29l-91 136h53l35 -54l21 -41h4q11 17 36 42l53 53h57z" />
    <glyph glyph-name="Gcircumflex" unicode="&#x11c;" horiz-adv-x="579" 
d="M364 767h31l92 -125h-56l-33 48l-22 38h-2q-15 -18 -37 -39l-49 -47h-61zM318 288h212l-51 -288h-42l8 99q-19 -49 -63.5 -78.5t-106.5 -29.5q-102 0 -161 65t-59 173q0 169 85 269t212 100q76 0 124 -36.5t62 -105.5l-47 -20q-10 57 -49 87t-95 30q-106 0 -172 -91
t-66 -229q0 -90 45 -143.5t127 -53.5q68 0 118 42.5t64 124.5l6 37h-160z" />
    <glyph glyph-name="gcircumflex" unicode="&#x11d;" horiz-adv-x="490" 
d="M332 -17l22 118q-19 -51 -60 -80.5t-95 -29.5q-71 0 -113.5 49t-42.5 138q0 123 63 208t163 85q54 0 88.5 -28.5t42.5 -78.5l25 98h42l-84 -477q-17 -99 -69.5 -147.5t-146.5 -48.5q-80 0 -123 34t-48 93l45 15q5 -49 38.5 -76t90.5 -27q133 0 162 155zM369 195l14 73
q11 65 -18 113t-93 48q-80 0 -130 -70.5t-50 -176.5q0 -69 30.5 -108.5t86.5 -39.5q61 0 104.5 44t55.5 117zM299 669h28l92 -136h-54l-35 54l-21 40h-3q-12 -17 -36 -41l-54 -53h-56z" />
    <glyph glyph-name="Gbreve" unicode="&#x11e;" horiz-adv-x="579" 
d="M361 638q-48 0 -74 24t-26 68q0 14 3 31h42q-2 -9 -2 -23q0 -60 64 -60q73 0 95 83h41q-11 -59 -48 -91t-95 -32zM318 288h212l-51 -288h-42l8 99q-19 -49 -63.5 -78.5t-106.5 -29.5q-102 0 -161 65t-59 173q0 169 85 269t212 100q76 0 124 -36.5t62 -105.5l-47 -20
q-10 57 -49 87t-95 30q-106 0 -172 -91t-66 -229q0 -90 45 -143.5t127 -53.5q68 0 118 42.5t64 124.5l6 37h-160z" />
    <glyph glyph-name="gbreve" unicode="&#x11f;" horiz-adv-x="490" 
d="M332 -17l22 118q-19 -51 -60 -80.5t-95 -29.5q-71 0 -113.5 49t-42.5 138q0 123 63 208t163 85q54 0 88.5 -28.5t42.5 -78.5l25 98h42l-84 -477q-17 -99 -69.5 -147.5t-146.5 -48.5q-80 0 -123 34t-48 93l45 15q5 -49 38.5 -76t90.5 -27q133 0 162 155zM369 195l14 73
q11 65 -18 113t-93 48q-80 0 -130 -70.5t-50 -176.5q0 -69 30.5 -108.5t86.5 -39.5q61 0 104.5 44t55.5 117zM289 530q-48 0 -74 25t-26 70q0 15 3 33h42q-2 -9 -2 -25q0 -63 63 -63q74 0 96 88h41q-11 -61 -48 -94.5t-95 -33.5z" />
    <glyph glyph-name="Gdotaccent" unicode="&#x120;" horiz-adv-x="579" 
d="M333 698q0 16 10.5 27t26.5 11t27 -11t11 -27t-11 -27t-27 -11t-26.5 11t-10.5 27zM318 288h212l-51 -288h-42l8 99q-19 -49 -63.5 -78.5t-106.5 -29.5q-102 0 -161 65t-59 173q0 169 85 269t212 100q76 0 124 -36.5t62 -105.5l-47 -20q-10 57 -49 87t-95 30
q-106 0 -172 -91t-66 -229q0 -90 45 -143.5t127 -53.5q68 0 118 42.5t64 124.5l6 37h-160z" />
    <glyph glyph-name="gdotaccent" unicode="&#x121;" horiz-adv-x="490" 
d="M332 -17l22 118q-19 -51 -60 -80.5t-95 -29.5q-71 0 -113.5 49t-42.5 138q0 123 63 208t163 85q54 0 88.5 -28.5t42.5 -78.5l25 98h42l-84 -477q-17 -99 -69.5 -147.5t-146.5 -48.5q-80 0 -123 34t-48 93l45 15q5 -49 38.5 -76t90.5 -27q133 0 162 155zM369 195l14 73
q11 65 -18 113t-93 48q-80 0 -130 -70.5t-50 -176.5q0 -69 30.5 -108.5t86.5 -39.5q61 0 104.5 44t55.5 117zM264 604q0 17 10.5 28t26.5 11q17 0 28 -11.5t11 -27.5t-11 -26.5t-28 -10.5q-16 0 -26.5 10.5t-10.5 26.5z" />
    <glyph glyph-name="Gcommaaccent" unicode="&#x122;" horiz-adv-x="579" 
d="M281 -141q0 -44 -31.5 -67.5t-81.5 -23.5v25q31 2 53.5 13.5t22.5 33.5q0 4 -2 10q-5 -5 -15 -5q-14 0 -23 9t-9 23q0 16 11 26t28 10q20 0 33.5 -14t13.5 -40zM318 288h212l-51 -288h-42l8 99q-19 -49 -63.5 -78.5t-106.5 -29.5q-102 0 -161 65t-59 173q0 169 85 269
t212 100q76 0 124 -36.5t62 -105.5l-47 -20q-10 57 -49 87t-95 30q-106 0 -172 -91t-66 -229q0 -90 45 -143.5t127 -53.5q68 0 118 42.5t64 124.5l6 37h-160z" />
    <glyph glyph-name="gcommaaccent" unicode="&#x123;" horiz-adv-x="490" 
d="M332 -17l22 118q-19 -51 -60 -80.5t-95 -29.5q-71 0 -113.5 49t-42.5 138q0 123 63 208t163 85q54 0 88.5 -28.5t42.5 -78.5l25 98h42l-84 -477q-17 -99 -69.5 -147.5t-146.5 -48.5q-80 0 -123 34t-48 93l45 15q5 -49 38.5 -76t90.5 -27q133 0 162 155zM369 195l14 73
q11 65 -18 113t-93 48q-80 0 -130 -70.5t-50 -176.5q0 -69 30.5 -108.5t86.5 -39.5q61 0 104.5 44t55.5 117zM260 599q0 44 31.5 67.5t81.5 23.5v-26q-31 -1 -53.5 -12.5t-22.5 -33.5q0 -4 2 -10q7 5 15 5q14 0 22.5 -9t8.5 -23q0 -16 -10.5 -26t-27.5 -10q-20 0 -33.5 14
t-13.5 40z" />
    <glyph glyph-name="Hcircumflex" unicode="&#x124;" horiz-adv-x="614" 
d="M540 589h53l-102 -589h-54l47 274h-339l-47 -274h-54l103 589h54l-47 -268h339zM382 767h30l93 -125h-56l-33 48l-23 38h-2q1 0 -4 -5t-13.5 -14.5t-18.5 -19.5l-50 -47h-60z" />
    <glyph glyph-name="hcircumflex" unicode="&#x125;" horiz-adv-x="493" 
d="M338 84l39 222q5 32 5 46q0 35 -20 55t-59 20q-56 0 -103.5 -44.5t-61.5 -128.5l-44 -254h-51l116 668h52l-56 -314q23 54 64 85.5t97 31.5q54 0 85.5 -28t31.5 -81q0 -22 -6 -57l-38 -216q0 -2 -1.5 -11t-1.5 -14q0 -29 28 -29q13 0 31 7l-7 -39q-18 -8 -40 -8
q-63 0 -63 60q0 11 3 29zM197 824h30l93 -126h-57l-34 49q-7 9 -12 18.5t-7 14.5l-2 5h-2q-11 -16 -36 -39l-50 -48h-60z" />
    <glyph glyph-name="Hbar" unicode="&#x126;" horiz-adv-x="627" 
d="M545 589h53l-21 -118h80l-9 -46h-79l-73 -425h-54l47 274h-339l-47 -274h-54l74 425h-74l8 46h74l21 118h54l-21 -118h339zM159 321h339l17 104h-339z" />
    <glyph glyph-name="hbar" unicode="&#x127;" horiz-adv-x="493" 
d="M61 541l8 41h74l16 86h52l-16 -86h154l-8 -41h-154l-32 -187q23 54 64 85.5t97 31.5q54 0 85.5 -28t31.5 -81q0 -22 -6 -57l-38 -216q0 -2 -1.5 -11t-1.5 -14q0 -29 28 -29q13 0 31 7l-7 -39q-18 -8 -40 -8q-63 0 -63 60q0 11 3 29l39 222q5 32 5 46q0 35 -20 55t-59 20
q-56 0 -103.5 -44.5t-61.5 -128.5l-44 -254h-51l93 541h-75z" />
    <glyph glyph-name="Itilde" unicode="&#x128;" horiz-adv-x="221" 
d="M147 589h54l-103 -589h-54zM81 652l-34 1q-2 16 -2 22q0 34 21 55.5t53 21.5q29 0 61 -22l36 -27q20 -14 37 -14q35 0 39 58l33 -2q3 -10 3 -22q0 -33 -21.5 -54.5t-53.5 -21.5q-30 0 -60 22l-37 27q-19 13 -37 13q-35 0 -38 -57z" />
    <glyph glyph-name="itilde" unicode="&#x129;" horiz-adv-x="218" 
d="M169 462l-65 -373q-3 -14 -3 -25q0 -29 28 -29q13 0 31 7l-8 -39q-18 -8 -40 -8q-62 0 -62 60q0 13 3 29l65 378h51zM63 543l-34 2q-2 14 -2 22q0 33 21 54.5t53 21.5q28 0 58 -22l36 -27q17 -13 35 -13q34 0 37 57l34 -1q3 -12 3 -22q0 -34 -21 -55.5t-53 -21.5
q-28 0 -58 22l-36 27q-20 14 -36 14q-33 0 -37 -58z" />
    <glyph glyph-name="Imacron" unicode="&#x12a;" horiz-adv-x="221" 
d="M147 589h54l-103 -589h-54zM299 667h-221l6 41h222z" />
    <glyph glyph-name="imacron" unicode="&#x12b;" horiz-adv-x="218" 
d="M169 462l-65 -373q-3 -14 -3 -25q0 -29 28 -29q13 0 31 7l-8 -39q-18 -8 -40 -8q-62 0 -62 60q0 11 3 29l65 378h51zM267 564h-208l7 43h209z" />
    <glyph glyph-name="Ibreve" unicode="&#x12c;" horiz-adv-x="221" 
d="M147 589h54l-103 -589h-54zM182 638q-48 0 -74 24t-26 68q0 14 3 31h42q-2 -9 -2 -23q0 -60 64 -60q73 0 95 83h41q-11 -59 -48 -91t-95 -32z" />
    <glyph glyph-name="ibreve" unicode="&#x12d;" horiz-adv-x="218" 
d="M169 462l-65 -373q-3 -14 -3 -25q0 -29 28 -29q13 0 31 7l-8 -39q-18 -8 -40 -8q-62 0 -62 60q0 13 3 29l65 378h51zM154 530q-49 0 -75 25t-26 70q0 15 3 33h42q-2 -9 -2 -25q0 -63 63 -63q74 0 96 88h41q-11 -61 -48 -94.5t-94 -33.5z" />
    <glyph glyph-name="Iogonek" unicode="&#x12e;" horiz-adv-x="221" 
d="M73 -128l21 -25q-30 -48 -91 -48q-39 0 -59.5 19.5t-20.5 55.5q0 49 36.5 88t88.5 62l99 565h54l-103 -589q-53 -12 -91 -45t-38 -77q0 -42 42 -42q37 0 62 36z" />
    <glyph glyph-name="iogonek" unicode="&#x12f;" horiz-adv-x="218" 
d="M128 604q0 17 10.5 28t26.5 11t27 -11.5t11 -27.5t-11 -26.5t-27 -10.5t-26.5 10.5t-10.5 26.5zM50 54q0 12 3 30l65 378h51l-65 -373q-3 -14 -3 -25q0 -29 28 -29q13 0 31 7l-8 -39q-53 -11 -90 -42t-37 -83q0 -42 42 -42q37 0 62 36l20 -25q-30 -48 -90 -48
q-39 0 -59.5 20t-20.5 57q0 40 25.5 75.5t66.5 56.5q-21 13 -21 46z" />
    <glyph glyph-name="Idotaccent" unicode="&#x130;" horiz-adv-x="221" 
d="M147 589h54l-103 -589h-54zM154 698q0 16 10.5 27t26.5 11q17 0 27.5 -11t10.5 -27t-11 -27t-27 -11t-26.5 11t-10.5 27z" />
    <glyph glyph-name="dotlessi" unicode="&#x131;" horiz-adv-x="218" 
d="M169 462l-65 -373q-3 -14 -3 -25q0 -29 28 -29q13 0 31 7l-8 -39q-18 -8 -40 -8q-62 0 -62 60q0 11 3 29l65 378h51z" />
    <glyph glyph-name="IJ" unicode="&#x132;" horiz-adv-x="633" 
d="M147 589h54l-103 -589h-54zM569 589h54l-75 -425q-16 -94 -60 -133.5t-124 -39.5q-68 0 -108 33t-50 88l44 26q21 -104 116 -104q59 0 88 32t42 107z" />
    <glyph glyph-name="ij" unicode="&#x133;" horiz-adv-x="423" 
d="M169 462l-65 -373q-3 -14 -3 -25q0 -29 28 -29q13 0 31 7l-8 -39q-18 -8 -40 -8q-62 0 -62 60q0 11 3 29l65 378h51zM128 604q0 17 10.5 28t26.5 11t27 -11.5t11 -27.5t-11 -26.5t-27 -10.5t-26.5 10.5t-10.5 26.5zM243 -86l98 548h51l-98 -547q-11 -65 -41.5 -95.5
t-82.5 -30.5q-49 0 -79 28l19 41q30 -27 64 -27q54 0 69 83zM351 604q0 17 10.5 28t26.5 11t27.5 -11.5t11.5 -27.5t-11 -26.5t-28 -10.5q-16 0 -26.5 10.5t-10.5 26.5z" />
    <glyph glyph-name="Jcircumflex" unicode="&#x134;" horiz-adv-x="419" 
d="M355 589h54l-75 -425q-17 -94 -60.5 -133.5t-124.5 -39.5q-67 0 -107 33t-50 88l44 26q20 -104 116 -104q59 0 88 32t42 107zM393 767h31l92 -125h-56l-34 48l-22 38h-2q-11 -16 -35 -39l-51 -47h-60z" />
    <glyph glyph-name="jcircumflex" unicode="&#x135;" horiz-adv-x="204" 
d="M24 -86l97 548h51l-97 -547q-11 -65 -41.5 -95.5t-82.5 -30.5q-51 0 -79 28l19 41q30 -27 63 -27q29 0 45.5 20t24.5 63zM165 669h29l92 -136h-54l-35 54l-21 40h-3q-12 -17 -36 -41l-54 -53h-56z" />
    <glyph glyph-name="Kcommaaccent" unicode="&#x136;" horiz-adv-x="493" 
d="M442 0h-60l-181 274h-56l-47 -274h-54l103 589h54l-47 -269h49l263 269h65l-287 -289zM239 -141q0 -44 -32 -67.5t-82 -23.5v25q32 2 54 13.5t22 33.5q0 7 -2 10q-4 -5 -15 -5q-14 0 -22.5 9t-8.5 23q0 17 10.5 26.5t28.5 9.5q20 0 33.5 -14t13.5 -40z" />
    <glyph glyph-name="kcommaaccent" unicode="&#x137;" horiz-adv-x="431" 
d="M364 36q16 0 35 8l-8 -41q-19 -8 -43 -8q-45 0 -74 56l-98 179h-42l-40 -230h-51l116 668h52l-70 -399h40l188 193h63l-212 -211l93 -172q23 -43 51 -43zM211 -141q0 -44 -32 -67.5t-82 -23.5v25q32 2 54 13.5t22 33.5q0 7 -2 10q-4 -5 -15 -5q-14 0 -22.5 9t-8.5 23
q0 17 10.5 26.5t28.5 9.5q20 0 33.5 -14t13.5 -40z" />
    <glyph glyph-name="kgreenlandic" unicode="&#x138;" horiz-adv-x="431" 
d="M364 36q16 0 35 8l-8 -41q-19 -8 -43 -8q-43 0 -74 56l-98 179h-42l-40 -230h-51l80 462h52l-34 -193h40l188 193h63l-212 -211l93 -172q23 -43 51 -43z" />
    <glyph glyph-name="Lacute" unicode="&#x139;" horiz-adv-x="436" 
d="M147 589h54l-96 -543h273l-7 -46h-327zM203 642h-46l73 121h71z" />
    <glyph glyph-name="lacute" unicode="&#x13a;" horiz-adv-x="216" 
d="M205 668l-101 -579q-3 -14 -3 -25q0 -29 28 -29q13 0 31 7l-8 -39q-18 -8 -40 -8q-62 0 -62 60q0 11 3 29l101 584h51zM208 696h-46l73 121h70z" />
    <glyph glyph-name="Lcommaaccent" unicode="&#x13b;" horiz-adv-x="436" 
d="M147 589h54l-96 -543h273l-7 -46h-327zM236 -141q0 -44 -31.5 -67.5t-81.5 -23.5v25q31 2 53.5 13.5t22.5 33.5q0 4 -2 10q-5 -5 -15 -5q-14 0 -22.5 9t-8.5 23q0 16 10.5 26t27.5 10q20 0 33.5 -14t13.5 -40z" />
    <glyph glyph-name="lcommaaccent" unicode="&#x13c;" horiz-adv-x="216" 
d="M205 668l-101 -579q-3 -14 -3 -25q0 -29 28 -29q13 0 31 7l-8 -39q-18 -8 -40 -8q-62 0 -62 60q0 11 3 29l101 584h51zM113 -141q0 -44 -31.5 -67.5t-81.5 -23.5v25q31 2 53.5 13.5t22.5 33.5q0 4 -2 10q-5 -5 -15 -5q-14 0 -23 9t-9 23q0 16 11 26t28 10q20 0 33.5 -14
t13.5 -40z" />
    <glyph glyph-name="Lcaron" unicode="&#x13d;" horiz-adv-x="436" 
d="M147 589h54l-96 -543h273l-7 -46h-327zM370 632l-52 -175h-38l30 175h60z" />
    <glyph glyph-name="lcaron" unicode="&#x13e;" horiz-adv-x="216" 
d="M205 668l-101 -579q-3 -14 -3 -25q0 -29 28 -29q13 0 31 7l-8 -39q-18 -8 -40 -8q-62 0 -62 60q0 11 3 29l101 584h51zM329 668l-53 -175h-37l30 175h60z" />
    <glyph glyph-name="Ldot" unicode="&#x13f;" horiz-adv-x="436" 
d="M147 589h54l-96 -543h273l-7 -46h-327zM299 302q0 18 12 30t30 12t30 -12t12 -30q0 -19 -12 -31t-30 -12t-30 12t-12 31z" />
    <glyph glyph-name="ldot" unicode="&#x140;" horiz-adv-x="262" 
d="M205 668l-101 -579q-3 -14 -3 -25q0 -29 28 -29q13 0 31 7l-8 -39q-18 -8 -40 -8q-62 0 -62 60q0 11 3 29l101 584h51zM206 322q0 18 12 30t30 12t30 -12t12 -30q0 -19 -12 -31t-30 -12t-30 12t-12 31z" />
    <glyph glyph-name="Lslash" unicode="&#x141;" horiz-adv-x="439" 
d="M150 589h53l-48 -276l163 68l-9 -48l-162 -67l-39 -220h273l-7 -46h-327l43 245l-71 -29l9 46l70 29z" />
    <glyph glyph-name="lslash" unicode="&#x142;" horiz-adv-x="219" 
d="M206 668l-46 -266l81 40l-9 -50l-81 -39l-46 -264q0 -2 -1.5 -11t-1.5 -14q0 -29 28 -29q13 0 31 7l-7 -39q-19 -8 -41 -8q-62 0 -62 60q0 11 3 29l42 243l-62 -29l9 47l61 30l51 293h51z" />
    <glyph glyph-name="Nacute" unicode="&#x143;" horiz-adv-x="613" 
d="M391 642h-45l72 121h71zM204 589l196 -406q13 -27 25 -55.5t17 -43.5l6 -15h3q7 59 19 125l69 395h53l-102 -589h-56l-198 405l-50 114h-3q-4 -58 -16 -124l-69 -395h-54l103 589h57z" />
    <glyph glyph-name="nacute" unicode="&#x144;" horiz-adv-x="494" 
d="M339 84l39 222q5 32 5 46q0 35 -20 55t-59 20q-56 0 -103.5 -44.5t-62.5 -128.5l-44 -254h-50l80 462h44l-12 -108q23 54 64 85.5t96 31.5t86.5 -28t31.5 -81q0 -22 -6 -57l-38 -216q0 -2 -1.5 -11t-1.5 -14q0 -29 28 -29q13 0 31 7l-7 -39q-19 -8 -41 -8q-62 0 -62 60
q0 11 3 29zM312 533h-43l80 136h71z" />
    <glyph glyph-name="Ncommaaccent" unicode="&#x145;" horiz-adv-x="613" 
d="M293 -141q0 -44 -31.5 -67.5t-81.5 -23.5v25q31 2 53 13.5t22 33.5q0 7 -2 10q-4 -5 -15 -5q-14 0 -22.5 9t-8.5 23q0 17 10.5 26.5t28.5 9.5q20 0 33.5 -14t13.5 -40zM204 589l196 -406q13 -27 25 -55.5t17 -43.5l6 -15h3q7 59 19 125l69 395h53l-102 -589h-56l-198 405
l-50 114h-3q-4 -58 -16 -124l-69 -395h-54l103 589h57z" />
    <glyph glyph-name="ncommaaccent" unicode="&#x146;" horiz-adv-x="494" 
d="M339 84l39 222q5 32 5 46q0 35 -20 55t-59 20q-56 0 -103.5 -44.5t-62.5 -128.5l-44 -254h-50l80 462h44l-12 -108q23 54 64 85.5t96 31.5t86.5 -28t31.5 -81q0 -22 -6 -57l-38 -216q0 -2 -1.5 -11t-1.5 -14q0 -29 28 -29q13 0 31 7l-7 -39q-19 -8 -41 -8q-62 0 -62 60
q0 11 3 29zM243 -141q0 -44 -31.5 -67.5t-81.5 -23.5v25q31 2 53.5 13.5t22.5 33.5q0 4 -2 10q-5 -5 -15 -5q-14 0 -23 9t-9 23q0 16 11 26t28 10q20 0 33.5 -14t13.5 -40z" />
    <glyph glyph-name="Ncaron" unicode="&#x147;" horiz-adv-x="613" 
d="M385 642h-30l-93 125h57l34 -48l21 -38h2q11 16 36 39l50 47h60zM204 589l196 -406q13 -27 25 -55.5t17 -43.5l6 -15h3q7 59 19 125l69 395h53l-102 -589h-56l-198 405l-50 114h-3q-4 -58 -16 -124l-69 -395h-54l103 589h57z" />
    <glyph glyph-name="ncaron" unicode="&#x148;" horiz-adv-x="494" 
d="M339 84l39 222q5 32 5 46q0 35 -20 55t-59 20q-56 0 -103.5 -44.5t-62.5 -128.5l-44 -254h-50l80 462h44l-12 -108q23 54 64 85.5t96 31.5t86.5 -28t31.5 -81q0 -22 -6 -57l-38 -216q0 -2 -1.5 -11t-1.5 -14q0 -29 28 -29q13 0 31 7l-7 -39q-19 -8 -41 -8q-62 0 -62 60
q0 11 3 29zM310 533h-29l-92 136h54l35 -54l21 -41h3l4 4q3 5 12 16t20 22l54 53h57z" />
    <glyph glyph-name="Eng" unicode="&#x14a;" horiz-adv-x="613" 
d="M155 -133l38 37q33 -70 110 -70q58 0 86 32.5t43 109.5l4 22l-202 407l-48 112h-3q-4 -56 -16 -122l-69 -395h-54l103 589h57l198 -406q13 -28 24.5 -56t16.5 -42l5 -14h3q7 57 19 123l69 395h53l-109 -626q-16 -93 -59.5 -133t-123.5 -40q-105 0 -145 77z" />
    <glyph glyph-name="eng" unicode="&#x14b;" horiz-adv-x="488" 
d="M309 -86l69 392q5 32 5 46q0 35 -20 55t-59 20q-56 0 -103.5 -44.5t-62.5 -128.5l-44 -254h-50l80 462h44l-12 -108q23 54 64 85.5t96 31.5t86.5 -28t31.5 -81q0 -22 -6 -57l-67 -390q-22 -126 -125 -126q-50 0 -78 28l18 41q30 -27 64 -27q54 0 69 83z" />
    <glyph glyph-name="Omacron" unicode="&#x14c;" horiz-adv-x="610" 
d="M281 36q104 0 170 90.5t66 228.5q0 90 -44 143.5t-128 53.5q-104 0 -170 -90.5t-66 -228.5q0 -91 45.5 -144t126.5 -53zM277 -9q-103 0 -162.5 65t-59.5 174q0 167 85 267.5t210 100.5q102 0 162 -65t60 -175q0 -167 -85 -267t-210 -100zM485 667h-222l7 41h222z" />
    <glyph glyph-name="omacron" unicode="&#x14d;" horiz-adv-x="480" 
d="M217 32q79 0 125 71.5t46 170.5q0 75 -32.5 114t-93.5 39q-78 0 -124 -70t-46 -168q0 -77 32.5 -117t92.5 -40zM212 -9q-79 0 -124.5 50t-45.5 143q0 119 60.5 203t166.5 84q81 0 125 -51t44 -143q0 -119 -60.5 -202.5t-165.5 -83.5zM399 564h-222l8 43h222z" />
    <glyph glyph-name="Obreve" unicode="&#x14e;" horiz-adv-x="610" 
d="M281 36q104 0 170 90.5t66 228.5q0 90 -44 143.5t-128 53.5q-104 0 -170 -90.5t-66 -228.5q0 -91 45.5 -144t126.5 -53zM277 -9q-103 0 -162.5 65t-59.5 174q0 167 85 267.5t210 100.5q102 0 162 -65t60 -175q0 -167 -85 -267t-210 -100zM368 638q-49 0 -75 24t-26 68
q0 14 3 31h42q-1 -9 -1 -23q0 -60 63 -60q73 0 95 83h41q-10 -58 -47.5 -90.5t-94.5 -32.5z" />
    <glyph glyph-name="obreve" unicode="&#x14f;" horiz-adv-x="480" 
d="M217 32q79 0 125 71.5t46 170.5q0 75 -32.5 114t-93.5 39q-78 0 -124 -70t-46 -168q0 -77 32.5 -117t92.5 -40zM212 -9q-79 0 -124.5 50t-45.5 143q0 119 60.5 203t166.5 84q81 0 125 -51t44 -143q0 -119 -60.5 -202.5t-165.5 -83.5zM277 530q-48 0 -74 25t-26 70
q0 15 3 33h41q-1 -9 -1 -25q0 -63 63 -63q74 0 96 88h41q-10 -61 -48 -94.5t-95 -33.5z" />
    <glyph glyph-name="Ohungarumlaut" unicode="&#x150;" horiz-adv-x="610" 
d="M281 36q104 0 170 90.5t66 228.5q0 90 -44 143.5t-128 53.5q-104 0 -170 -90.5t-66 -228.5q0 -91 45.5 -144t126.5 -53zM277 -9q-103 0 -162.5 65t-59.5 174q0 167 85 267.5t210 100.5q102 0 162 -65t60 -175q0 -167 -85 -267t-210 -100zM318 642h-39l74 121h68zM441 642
h-40l80 121h68z" />
    <glyph glyph-name="ohungarumlaut" unicode="&#x151;" horiz-adv-x="480" 
d="M217 32q79 0 125 71.5t46 170.5q0 75 -32.5 114t-93.5 39q-78 0 -124 -70t-46 -168q0 -77 32.5 -117t92.5 -40zM212 -9q-79 0 -124.5 50t-45.5 143q0 119 60.5 203t166.5 84q81 0 125 -51t44 -143q0 -119 -60.5 -202.5t-165.5 -83.5zM245 533h-39l74 136h68zM369 533h-41
l80 136h68z" />
    <glyph glyph-name="OE" unicode="&#x152;" horiz-adv-x="830" 
d="M277 -9q-103 0 -162.5 65t-59.5 174q0 167 85 267.5t210 100.5q36 0 68 -9h423l-8 -46h-337q76 -63 76 -185q0 -14 -2 -40h192l-8 -46h-190q-24 -153 -130 -226h312l-8 -46h-392q-34 -9 -69 -9zM281 36q104 0 170 90.5t66 228.5q0 90 -44 143.5t-128 53.5
q-104 0 -170 -90.5t-66 -228.5q0 -91 45.5 -144t126.5 -53z" />
    <glyph glyph-name="oe" unicode="&#x153;" horiz-adv-x="793" 
d="M212 -9q-79 0 -124.5 50t-45.5 143q0 119 60.5 203t166.5 84q61 0 101 -32t53 -91q26 56 73.5 89.5t106.5 33.5q78 0 116 -44.5t38 -113.5q0 -47 -19 -85h-304q-3 -19 -3 -41q0 -72 32 -113.5t95 -41.5q55 0 85 23t46 70l46 -12q-40 -122 -180 -122q-63 0 -105 32.5
t-54 90.5q-27 -56 -74.5 -89.5t-109.5 -33.5zM217 32q79 0 125 71.5t46 170.5q0 75 -32.5 114t-93.5 39q-78 0 -124 -70t-46 -168q0 -77 32.5 -117t92.5 -40zM601 429q-61 0 -102 -44t-58 -115h259q7 17 7 44q0 51 -26.5 83t-79.5 32z" />
    <glyph glyph-name="Racute" unicode="&#x154;" horiz-adv-x="526" 
d="M463 0h-57q-15 20 -21 59l-14 104q-7 53 -33.5 74.5t-83.5 21.5h-111l-45 -259h-54l103 589h177q170 0 170 -139q0 -78 -48.5 -122.5t-115.5 -47.5v-3q42 -6 63.5 -29t28.5 -74l16 -109q6 -40 25 -65zM193 544l-42 -240h125q76 0 119.5 35.5t43.5 104.5q0 100 -122 100
h-124zM341 642h-46l73 121h71z" />
    <glyph glyph-name="racute" unicode="&#x155;" horiz-adv-x="314" 
d="M333 465l-14 -58q-16 7 -35 7q-52 0 -93.5 -42t-53.5 -110l-45 -262h-51l80 462h44l-13 -114q20 53 58.5 88t89.5 35q17 0 33 -6zM252 533h-43l80 136h71z" />
    <glyph glyph-name="Rcommaaccent" unicode="&#x156;" horiz-adv-x="526" 
d="M463 0h-57q-15 20 -21 59l-14 104q-7 53 -33.5 74.5t-83.5 21.5h-111l-45 -259h-54l103 589h177q170 0 170 -139q0 -78 -48.5 -122.5t-115.5 -47.5v-3q42 -6 63.5 -29t28.5 -74l16 -109q6 -40 25 -65zM193 544l-42 -240h125q76 0 119.5 35.5t43.5 104.5q0 100 -122 100
h-124zM252 -141q0 -44 -31.5 -67.5t-81.5 -23.5v25q31 2 53.5 13.5t22.5 33.5q0 4 -2 10q-5 -5 -15 -5q-14 0 -23 9t-9 23q0 16 11 26t28 10q20 0 33.5 -14t13.5 -40z" />
    <glyph glyph-name="rcommaaccent" unicode="&#x157;" horiz-adv-x="314" 
d="M333 465l-14 -58q-16 7 -35 7q-52 0 -93.5 -42t-53.5 -110l-45 -262h-51l80 462h44l-13 -114q20 53 58.5 88t89.5 35q17 0 33 -6zM99 -141q0 -44 -31.5 -67.5t-81.5 -23.5v25q31 2 53.5 13.5t22.5 33.5q0 4 -2 10q-5 -5 -15 -5q-14 0 -23 9t-9 23q0 16 11 26t28 10
q20 0 33.5 -14t13.5 -40z" />
    <glyph glyph-name="Rcaron" unicode="&#x158;" horiz-adv-x="526" 
d="M463 0h-57q-15 20 -21 59l-14 104q-7 53 -33.5 74.5t-83.5 21.5h-111l-45 -259h-54l103 589h177q170 0 170 -139q0 -78 -48.5 -122.5t-115.5 -47.5v-3q42 -6 63.5 -29t28.5 -74l16 -109q6 -40 25 -65zM193 544l-42 -240h125q76 0 119.5 35.5t43.5 104.5q0 100 -122 100
h-124zM335 642h-31l-93 125h57l34 -48l22 -38h2q11 16 35 39l51 47h60z" />
    <glyph glyph-name="rcaron" unicode="&#x159;" horiz-adv-x="314" 
d="M333 465l-14 -58q-16 7 -35 7q-52 0 -93.5 -42t-53.5 -110l-45 -262h-51l80 462h44l-13 -114q20 53 58.5 88t89.5 35q17 0 33 -6zM247 533h-29l-92 136h54l35 -54l21 -41h3l3 4q4 5 13 16t20 22l54 53h56z" />
    <glyph glyph-name="Sacute" unicode="&#x15a;" horiz-adv-x="472" 
d="M22 151l48 9q0 -63 36 -95t102 -32q65 0 102.5 30.5t37.5 91.5q0 48 -28 76.5t-92 51.5q-70 25 -104 57.5t-34 96.5q0 82 54.5 121.5t128.5 39.5q174 0 175 -154l-50 -8q-1 120 -128 120q-58 0 -94 -29t-36 -84q0 -47 26 -69.5t92 -47.5q73 -28 108 -64.5t35 -101.5
q0 -83 -55 -126t-142 -43t-134.5 40.5t-47.5 119.5zM315 642h-46l73 121h71z" />
    <glyph glyph-name="sacute" unicode="&#x15b;" horiz-adv-x="396" 
d="M21 126l46 9q1 -54 31.5 -79t80.5 -25q104 0 104 84q0 37 -23.5 60.5t-75.5 42.5q-57 21 -83 49t-26 77q0 60 41.5 93.5t108.5 33.5q138 0 138 -122l-48 -5q0 87 -94 87q-45 0 -72 -21.5t-27 -61.5q0 -33 19 -52t74 -41q62 -24 89.5 -55t27.5 -81q0 -63 -41.5 -95.5
t-113.5 -32.5q-73 0 -114.5 35.5t-41.5 99.5zM262 533h-43l80 136h71z" />
    <glyph glyph-name="Scircumflex" unicode="&#x15c;" horiz-adv-x="472" 
d="M22 151l48 9q0 -63 36 -95t102 -32q65 0 102.5 30.5t37.5 91.5q0 48 -28 76.5t-92 51.5q-70 25 -104 57.5t-34 96.5q0 82 54.5 121.5t128.5 39.5q174 0 175 -154l-50 -8q-1 120 -128 120q-58 0 -94 -29t-36 -84q0 -47 26 -69.5t92 -47.5q73 -28 108 -64.5t35 -101.5
q0 -83 -55 -126t-142 -43t-134.5 40.5t-47.5 119.5zM298 767h31l92 -125h-56l-35 48l-21 38h-2q-11 -16 -36 -39l-50 -47h-60z" />
    <glyph glyph-name="scircumflex" unicode="&#x15d;" horiz-adv-x="396" 
d="M21 126l46 9q1 -54 31.5 -79t80.5 -25q104 0 104 84q0 37 -23.5 60.5t-75.5 42.5q-57 21 -83 49t-26 77q0 60 41.5 93.5t108.5 33.5q138 0 138 -122l-48 -5q0 87 -94 87q-45 0 -72 -21.5t-27 -61.5q0 -33 19 -52t74 -41q62 -24 89.5 -55t27.5 -81q0 -63 -41.5 -95.5
t-113.5 -32.5q-73 0 -114.5 35.5t-41.5 99.5zM251 669h28l92 -136h-53l-36 54l-21 40h-3q-11 -17 -36 -41l-54 -53h-56z" />
    <glyph glyph-name="Scedilla" unicode="&#x15e;" horiz-adv-x="472" 
d="M257 -124q0 -38 -27.5 -59.5t-70.5 -21.5q-57 0 -85 40l19 32q23 -38 66 -38q24 0 39 12.5t15 34.5q0 47 -75 50l26 67q-68 8 -105 48.5t-37 109.5l48 9q0 -63 36 -95t102 -32q65 0 102.5 30.5t37.5 91.5q0 48 -28 76.5t-92 51.5q-70 25 -104 57.5t-34 96.5
q0 82 54.5 121.5t128.5 39.5q174 0 175 -154l-50 -8q-1 120 -128 120q-58 0 -94 -29t-36 -84q0 -47 26 -69.5t92 -47.5q73 -28 108 -64.5t35 -101.5q0 -78 -48 -120t-126 -48q-11 -1 -34 -1l-15 -37q79 -13 79 -78z" />
    <glyph glyph-name="scedilla" unicode="&#x15f;" horiz-adv-x="396" 
d="M225 -124q0 -38 -27.5 -59.5t-70.5 -21.5q-57 0 -85 40l19 32q23 -38 66 -38q24 0 39 12.5t15 34.5q0 47 -75 50l26 69q-53 10 -82 43.5t-29 87.5l46 9q1 -54 31.5 -79t80.5 -25q104 0 104 84q0 37 -23.5 60.5t-75.5 42.5q-57 21 -83 49t-26 77q0 60 41.5 93.5
t108.5 33.5q138 0 138 -122l-48 -5q0 87 -94 87q-44 0 -71.5 -22t-27.5 -61q0 -33 19 -52t74 -41q62 -24 89.5 -55t27.5 -81q0 -63 -41.5 -95.5t-113.5 -32.5q-3 0 -8 0.5t-8 0.5l-15 -38q79 -13 79 -78z" />
    <glyph glyph-name="Scaron" unicode="&#x160;" horiz-adv-x="472" 
d="M22 151l48 9q0 -63 36 -95t102 -32q65 0 102.5 30.5t37.5 91.5q0 48 -28 76.5t-92 51.5q-70 25 -104 57.5t-34 96.5q0 82 54.5 121.5t128.5 39.5q174 0 175 -154l-50 -8q-1 120 -128 120q-58 0 -94 -29t-36 -84q0 -47 26 -69.5t92 -47.5q73 -28 108 -64.5t35 -101.5
q0 -83 -55 -126t-142 -43t-134.5 40.5t-47.5 119.5zM309 642h-31l-93 125h57l34 -48l22 -38h2q11 16 35 39l51 47h59z" />
    <glyph glyph-name="scaron" unicode="&#x161;" horiz-adv-x="396" 
d="M21 126l46 9q1 -54 31.5 -79t80.5 -25q104 0 104 84q0 37 -23.5 60.5t-75.5 42.5q-57 21 -83 49t-26 77q0 60 41.5 93.5t108.5 33.5q138 0 138 -122l-48 -5q0 87 -94 87q-45 0 -72 -21.5t-27 -61.5q0 -33 19 -52t74 -41q62 -24 89.5 -55t27.5 -81q0 -63 -41.5 -95.5
t-113.5 -32.5q-73 0 -114.5 35.5t-41.5 99.5zM259 533h-28l-92 136h54l35 -54l21 -41h3q12 17 36 42l54 53h56z" />
    <glyph glyph-name="Tcommaaccent" unicode="&#x162;" horiz-adv-x="476" 
d="M222 0h-54l95 543h-194l8 46h437l-8 -46h-190zM228 -141q0 -44 -31.5 -67.5t-81.5 -23.5v25q31 2 53.5 13.5t22.5 33.5q0 4 -2 10q-5 -5 -15 -5q-14 0 -23 9t-9 23q0 17 10.5 26.5t28.5 9.5q20 0 33.5 -14t13.5 -40z" />
    <glyph glyph-name="tcommaaccent" unicode="&#x163;" horiz-adv-x="295" 
d="M241 63l4 -43q-39 -29 -91 -29q-97 0 -97 90q0 23 4 44l52 295h-64l7 42h65l18 97l51 8l-18 -105h121l-8 -42h-121l-52 -300q-4 -16 -4 -32q0 -54 52 -54q44 0 81 29zM154 -141q0 -44 -31.5 -67.5t-81.5 -23.5v25q31 2 53 13.5t22 33.5q0 7 -2 10q-4 -5 -15 -5
q-14 0 -22.5 9t-8.5 23q0 17 10.5 26.5t28.5 9.5q20 0 33.5 -14t13.5 -40z" />
    <glyph glyph-name="Tcaron" unicode="&#x164;" horiz-adv-x="476" 
d="M222 0h-54l95 543h-194l8 46h437l-8 -46h-190zM321 642h-31l-92 125h56l35 -48l21 -38h2q11 16 35 39l51 47h60z" />
    <glyph glyph-name="tcaron" unicode="&#x165;" horiz-adv-x="295" 
d="M241 63l4 -43q-39 -29 -91 -29q-97 0 -97 90q0 23 4 44l52 295h-64l7 42h65l18 97l51 8l-18 -105h121l-8 -42h-121l-52 -300q-4 -16 -4 -32q0 -54 52 -54q44 0 81 29zM317 668l-52 -175h-38l30 175h60z" />
    <glyph glyph-name="Tbar" unicode="&#x166;" horiz-adv-x="476" 
d="M222 0h-54l49 282h-117l8 45h117l38 216h-194l8 46h437l-8 -46h-190l-38 -216h128l-8 -45h-127z" />
    <glyph glyph-name="tbar" unicode="&#x167;" horiz-adv-x="309" 
d="M33 266l8 41h60l20 113h-64l8 42h65l17 97l52 8l-19 -105h121l-8 -42h-120l-20 -113h123l-8 -41h-123l-25 -146q-3 -18 -3 -32q0 -54 51 -54q44 0 82 29l4 -43q-40 -29 -92 -29q-97 0 -97 90q0 17 5 44l24 141h-61z" />
    <glyph glyph-name="Utilde" unicode="&#x168;" horiz-adv-x="574" 
d="M512 589h53l-69 -399q-35 -199 -237 -199q-89 0 -143 45.5t-54 132.5q0 27 6 58l63 362h53l-64 -366q-4 -29 -4 -51q0 -68 40.5 -102.5t107.5 -34.5q151 0 180 164zM252 652l-34 1q-2 16 -2 22q0 34 21.5 55.5t53.5 21.5q30 0 60 -22l36 -27q20 -14 37 -14q35 0 39 58
l33 -2q3 -10 3 -22q0 -33 -21.5 -54.5t-53.5 -21.5q-30 0 -60 22l-37 27q-19 13 -37 13q-35 0 -38 -57z" />
    <glyph glyph-name="utilde" unicode="&#x169;" horiz-adv-x="484" 
d="M435 462l-65 -373q-3 -14 -3 -25q0 -29 28 -29q13 0 31 7l-8 -39q-18 -8 -40 -8q-61 0 -61 58q0 11 7 52q-42 -114 -157 -114q-57 0 -88 30t-31 86q0 21 6 55l52 300h51l-54 -309q-4 -17 -4 -42q0 -37 21 -58.5t60 -21.5q56 0 100.5 44t57.5 118l46 269h51zM182 543
l-34 2q-2 14 -2 22q0 33 21.5 54.5t53.5 21.5q30 0 60 -22l36 -27q19 -13 37 -13q36 0 39 57l33 -1q3 -12 3 -22q0 -33 -21.5 -55t-53.5 -22q-30 0 -60 22l-37 27q-20 14 -37 14q-35 0 -38 -58z" />
    <glyph glyph-name="Umacron" unicode="&#x16a;" horiz-adv-x="574" 
d="M512 589h53l-69 -399q-35 -199 -237 -199q-89 0 -143 45.5t-54 132.5q0 27 6 58l63 362h53l-64 -366q-4 -29 -4 -51q0 -68 40.5 -102.5t107.5 -34.5q151 0 180 164zM470 667h-221l6 41h222z" />
    <glyph glyph-name="umacron" unicode="&#x16b;" horiz-adv-x="484" 
d="M435 462l-65 -373q-3 -14 -3 -25q0 -29 28 -29q13 0 31 7l-8 -39q-18 -8 -40 -8q-61 0 -61 58q0 11 7 52q-42 -114 -157 -114q-57 0 -88 30t-31 86q0 21 6 55l52 300h51l-54 -309q-4 -17 -4 -42q0 -37 21 -58.5t60 -21.5q56 0 100.5 44t57.5 118l46 269h51zM395 564h-222
l8 43h221z" />
    <glyph glyph-name="Ubreve" unicode="&#x16c;" horiz-adv-x="574" 
d="M512 589h53l-69 -399q-35 -199 -237 -199q-89 0 -143 45.5t-54 132.5q0 27 6 58l63 362h53l-64 -366q-4 -29 -4 -51q0 -68 40.5 -102.5t107.5 -34.5q151 0 180 164zM354 638q-49 0 -75 24t-26 68q0 14 3 31h42q-2 -9 -2 -23q0 -60 64 -60q73 0 95 83h41
q-10 -58 -47.5 -90.5t-94.5 -32.5z" />
    <glyph glyph-name="ubreve" unicode="&#x16d;" horiz-adv-x="484" 
d="M435 462l-65 -373q-3 -14 -3 -25q0 -29 28 -29q13 0 31 7l-8 -39q-18 -8 -40 -8q-61 0 -61 58q0 11 7 52q-42 -114 -157 -114q-57 0 -88 30t-31 86q0 21 6 55l52 300h51l-54 -309q-4 -17 -4 -42q0 -37 21 -58.5t60 -21.5q56 0 100.5 44t57.5 118l46 269h51zM275 530
q-49 0 -75 25t-26 70q0 15 3 33h42q-2 -9 -2 -25q0 -63 63 -63q76 0 96 88h42q-11 -61 -48.5 -94.5t-94.5 -33.5z" />
    <glyph glyph-name="Uring" unicode="&#x16e;" horiz-adv-x="574" 
d="M512 589h53l-69 -399q-35 -199 -237 -199q-89 0 -143 45.5t-54 132.5q0 27 6 58l63 362h53l-64 -366q-4 -29 -4 -51q0 -68 40.5 -102.5t107.5 -34.5q151 0 180 164zM364 658q25 0 41.5 18t16.5 44q0 23 -13 37t-37 14q-26 0 -42.5 -18t-16.5 -43q0 -24 13 -38t38 -14z
M360 630q-38 0 -59 21.5t-21 55.5q0 38 26.5 65t68.5 27q36 0 57.5 -21.5t21.5 -54.5q0 -39 -26 -66t-68 -27z" />
    <glyph glyph-name="uring" unicode="&#x16f;" horiz-adv-x="484" 
d="M435 462l-65 -373q-3 -14 -3 -25q0 -29 28 -29q13 0 31 7l-8 -39q-18 -8 -40 -8q-61 0 -61 58q0 11 7 52q-42 -114 -157 -114q-57 0 -88 30t-31 86q0 21 6 55l52 300h51l-54 -309q-4 -17 -4 -42q0 -37 21 -58.5t60 -21.5q56 0 100.5 44t57.5 118l46 269h51zM289 556
q25 0 41.5 18t16.5 44q0 23 -13 37t-37 14q-26 0 -42.5 -18t-16.5 -44q0 -23 13 -37t38 -14zM285 528q-38 0 -58.5 21.5t-20.5 55.5q0 38 26.5 65t67.5 27q36 0 57.5 -22t21.5 -55q0 -39 -26 -65.5t-68 -26.5z" />
    <glyph glyph-name="Uhungarumlaut" unicode="&#x170;" horiz-adv-x="574" 
d="M512 589h53l-69 -399q-35 -199 -237 -199q-89 0 -143 45.5t-54 132.5q0 27 6 58l63 362h53l-64 -366q-4 -29 -4 -51q0 -68 40.5 -102.5t107.5 -34.5q151 0 180 164zM303 642h-39l74 121h68zM427 642h-41l80 121h68z" />
    <glyph glyph-name="uhungarumlaut" unicode="&#x171;" horiz-adv-x="484" 
d="M435 462l-65 -373q-3 -14 -3 -25q0 -29 28 -29q13 0 31 7l-8 -39q-18 -8 -40 -8q-61 0 -61 58q0 11 7 52q-42 -114 -157 -114q-57 0 -88 30t-31 86q0 21 6 55l52 300h51l-54 -309q-4 -17 -4 -42q0 -37 21 -58.5t60 -21.5q56 0 100.5 44t57.5 118l46 269h51zM241 533h-40
l74 136h68zM364 533h-41l80 136h69z" />
    <glyph glyph-name="Uogonek" unicode="&#x172;" horiz-adv-x="574" 
d="M316 -128l21 -25q-30 -48 -91 -48q-39 0 -59.5 19.5t-20.5 55.5q0 66 72 120q-3 0 -8 0.5t-9 1t-7 1.5q-70 8 -111 52t-41 119q0 28 6 59l63 362h53l-64 -366q-4 -29 -4 -51q0 -68 40.5 -102.5t107.5 -34.5q151 0 180 164l68 390h53l-69 -399q-32 -175 -194 -196
q-90 -47 -90 -116q0 -42 42 -42q39 0 62 36z" />
    <glyph glyph-name="uogonek" unicode="&#x173;" horiz-adv-x="484" 
d="M317 56q0 8 7 49q-42 -114 -157 -114q-57 0 -88 30t-31 86q0 21 6 55l52 300h51l-54 -309q-4 -17 -4 -42q0 -37 21 -58.5t60 -21.5q56 0 100.5 44t57.5 118l46 269h51l-65 -373q-3 -14 -3 -25q0 -29 28 -29q13 0 31 7l-8 -39q-54 -14 -94 -45t-40 -80q0 -42 42 -42
q37 0 62 36l20 -25q-30 -48 -90 -48q-39 0 -59.5 19.5t-20.5 55.5q0 42 29 76.5t73 57.5q-23 9 -23 48z" />
    <glyph glyph-name="Wcircumflex" unicode="&#x174;" horiz-adv-x="796" 
d="M462 767h30l93 -125h-57l-34 48l-21 38h-2q-11 -16 -36 -39l-50 -47h-60zM481 589l40 -405l10 -150h3q18 58 59 151l181 404h56l-268 -589h-74l-36 392q-4 40 -5.5 77t-1.5 53v17h-3q-17 -55 -59 -147l-178 -392h-74l-41 589h53l26 -403l6 -152h3q17 59 60 152l184 403
h59z" />
    <glyph glyph-name="wcircumflex" unicode="&#x175;" horiz-adv-x="647" 
d="M471 171l143 291h53l-228 -462h-62l-26 284q-3 33 -4 64.5t-1 45.5l1 15h-3q-15 -48 -51 -127l-129 -282h-63l-43 462h51l25 -292q3 -32 4.5 -65t1.5 -50v-17h3q18 58 53 133l134 291h53l24 -293q4 -34 5 -67t1 -49v-16h3q17 55 55 134zM374 669h29l92 -136h-54l-35 54
l-21 40h-3q-12 -17 -36 -41l-54 -53h-57z" />
    <glyph glyph-name="Ycircumflex" unicode="&#x176;" horiz-adv-x="485" 
d="M137 589l81 -216q11 -29 18.5 -53.5t9.5 -34.5l2 -10h3q15 32 60 98l153 216h58l-252 -353l-41 -236h-53l41 236l-135 353h55zM315 767h30l93 -125h-57l-34 48l-21 38h-2q-11 -16 -36 -39l-50 -47h-60z" />
    <glyph glyph-name="ycircumflex" unicode="&#x177;" horiz-adv-x="417" 
d="M127 -15l-72 477h53l39 -295q6 -38 9 -71t4 -46v-14h3q15 45 61 129l164 297h54l-306 -546q-40 -73 -75 -100.5t-83 -27.5q-41 0 -70 23l14 39q29 -22 58 -22q34 0 58.5 22t55.5 79zM253 669h28l92 -136h-54l-35 54l-21 40h-3q-11 -17 -36 -41l-54 -53h-56z" />
    <glyph glyph-name="Ydieresis" unicode="&#x178;" horiz-adv-x="485" 
d="M137 589l81 -216q11 -29 18.5 -53.5t9.5 -34.5l2 -10h3q15 32 60 98l153 216h58l-252 -353l-41 -236h-53l41 236l-135 353h55zM197 690q0 16 11 27t27 11t26.5 -11t10.5 -27t-10.5 -27t-26.5 -11t-27 11t-11 27zM368 689q0 16 11 27t27 11t27 -10.5t11 -27.5
q0 -16 -11 -27t-27 -11t-27 11t-11 27z" />
    <glyph glyph-name="Zacute" unicode="&#x179;" horiz-adv-x="484" 
d="M439 547q-26 -4 -89 -4h-248l8 46h396l-7 -36l-365 -434q-20 -24 -37.5 -42t-24.5 -25l-8 -6v-4q25 4 88 4h264l-7 -46h-414l5 31l369 440q20 24 37.5 42.5t25.5 24.5l7 6v3zM338 642h-45l72 121h71z" />
    <glyph glyph-name="zacute" unicode="&#x17a;" horiz-adv-x="411" 
d="M412 427l-275 -311q-20 -24 -38 -42t-26 -24l-8 -7v-3q29 3 92 3h186l-7 -43h-339l6 29l276 316q21 24 39 42.5t26 24.5l7 7v3q-28 -4 -91 -4h-171l8 44h322zM277 533h-44l80 136h72z" />
    <glyph glyph-name="Zdotaccent" unicode="&#x17b;" horiz-adv-x="484" 
d="M439 547q-26 -4 -89 -4h-248l8 46h396l-7 -36l-365 -434q-20 -24 -37.5 -42t-24.5 -25l-8 -6v-4q25 4 88 4h264l-7 -46h-414l5 31l369 440q20 24 37.5 42.5t25.5 24.5l7 6v3zM290 698q0 16 10.5 27t26.5 11q17 0 27.5 -11t10.5 -27t-11 -27t-27 -11t-26.5 11t-10.5 27z
" />
    <glyph glyph-name="zdotaccent" unicode="&#x17c;" horiz-adv-x="411" 
d="M412 427l-275 -311q-20 -24 -38 -42t-26 -24l-8 -7v-3q29 3 92 3h186l-7 -43h-339l6 29l276 316q21 24 39 42.5t26 24.5l7 7v3q-28 -4 -91 -4h-171l8 44h322zM230 604q0 16 11 27.5t27 11.5t27 -11t11 -28q0 -16 -11 -26.5t-27 -10.5t-27 10.5t-11 26.5z" />
    <glyph glyph-name="Zcaron" unicode="&#x17d;" horiz-adv-x="484" 
d="M439 547q-26 -4 -89 -4h-248l8 46h396l-7 -36l-365 -434q-20 -24 -37.5 -42t-24.5 -25l-8 -6v-4q25 4 88 4h264l-7 -46h-414l5 31l369 440q20 24 37.5 42.5t25.5 24.5l7 6v3zM301 642l-93 125h57l34 -48l22 -38h2q11 16 35 39l51 47h60l-137 -125h-31z" />
    <glyph glyph-name="zcaron" unicode="&#x17e;" horiz-adv-x="411" 
d="M412 427l-275 -311q-20 -24 -38 -42t-26 -24l-8 -7v-3q29 3 92 3h186l-7 -43h-339l6 29l276 316q21 24 39 42.5t26 24.5l7 7v3q-28 -4 -91 -4h-171l8 44h322zM274 533h-29l-92 136h54l35 -54l21 -41h3q12 17 36 42l54 53h57z" />
    <glyph glyph-name="Schwa" unicode="&#x18f;" horiz-adv-x="563" 
d="M128 431l-44 12q52 155 220 155q107 0 164 -64t57 -180q0 -158 -80 -260.5t-199 -102.5q-98 0 -147 59.5t-49 146.5q0 62 24 110h397q3 21 3 40q0 95 -44.5 150.5t-130.5 55.5q-128 0 -171 -122zM246 35q83 0 140.5 63.5t77.5 163.5h-353q-11 -24 -11 -69q0 -66 37 -112
t109 -46z" />
    <glyph glyph-name="florin" unicode="&#x192;" horiz-adv-x="393" 
d="M40 192l13 46h77l32 116q35 136 145 136q72 0 97 -48l-33 -38q-23 42 -69 42q-34 0 -54.5 -21.5t-34.5 -69.5l-32 -117h122l-12 -46h-122l-83 -313h-50l82 313h-78z" />
    <glyph glyph-name="Khook" unicode="&#x198;" horiz-adv-x="493" 
d="M203 320l128 176q38 54 66.5 78t67.5 24q59 0 69 -51l-36 -30q-9 32 -38 32q-21 0 -37.5 -15.5t-45.5 -55.5l-133 -178l198 -300h-60l-181 274h-56l-47 -274h-54l103 589h54l-47 -269h49z" />
    <glyph glyph-name="khook" unicode="&#x199;" horiz-adv-x="431" 
d="M187 533l-46 -264h40l188 193h63l-212 -211l93 -172q23 -43 51 -43q16 0 35 8l-8 -41q-19 -8 -43 -8q-43 0 -74 56l-98 179h-42l-40 -230h-51l93 533q13 77 48.5 109.5t92.5 32.5q56 0 95 -34l-24 -41q-29 31 -70 31q-37 0 -59 -21.5t-32 -76.5z" />
    <glyph glyph-name="Ezh" unicode="&#x1b7;" horiz-adv-x="482" 
d="M484 553l-278 -287l-1 -4q96 -1 151 -52t55 -144q0 -113 -71 -180t-170 -67q-94 0 -146 47.5t-52 136.5l45 12q0 -78 40.5 -116t112.5 -38q82 0 136 54.5t54 150.5q0 165 -217 163l7 40l193 203q21 22 40 40t28 25l9 7v3q-26 -4 -89 -4h-232l8 46h384z" />
    <glyph glyph-name="Acaron" unicode="&#x1cd;" horiz-adv-x="548" 
d="M436 0l-38 187h-264l-102 -187h-56l326 589h69l119 -589h-54zM256 408l-98 -176h232l-34 172l-25 150h-3q-20 -52 -72 -146zM356 642h-31l-93 125h57l33 -48l22 -38h2q15 18 37 39l49 47h61z" />
    <glyph glyph-name="acaron" unicode="&#x1ce;" horiz-adv-x="515" 
d="M381 268q11 65 -18 113t-93 48q-79 0 -128.5 -70t-49.5 -176q0 -69 30.5 -109t86.5 -40q60 0 103.5 44.5t55.5 118.5zM457 42l-8 -39q-18 -8 -40 -8q-60 0 -60 61q0 12 6 46q-19 -51 -61.5 -81t-96.5 -30q-70 0 -112.5 48.5t-42.5 138.5q0 124 62.5 208.5t162.5 84.5
q54 0 89 -28.5t43 -78.5l25 98h42l-65 -373q-3 -14 -3 -25q0 -29 28 -29q13 0 31 7zM308 533h-29l-92 136h54l35 -54l21 -41h3q12 17 36 42l54 53h56z" />
    <glyph glyph-name="Icaron" unicode="&#x1cf;" horiz-adv-x="221" 
d="M147 589h54l-103 -589h-54zM196 642h-31l-93 125h57l33 -48l22 -38h2q15 18 37 39l49 47h61z" />
    <glyph glyph-name="icaron" unicode="&#x1d0;" horiz-adv-x="218" 
d="M169 462l-65 -373q-3 -14 -3 -25q0 -29 28 -29q13 0 31 7l-8 -39q-18 -8 -40 -8q-62 0 -62 60q0 11 3 29l65 378h51zM172 533h-29l-91 136h53l35 -54l21 -41h3l4 4q3 5 12 16t20 22l54 53h57z" />
    <glyph glyph-name="Ocaron" unicode="&#x1d1;" horiz-adv-x="610" 
d="M281 36q104 0 170 90.5t66 228.5q0 90 -44 143.5t-128 53.5q-104 0 -170 -90.5t-66 -228.5q0 -91 45.5 -144t126.5 -53zM277 -9q-103 0 -162.5 65t-59.5 174q0 167 85 267.5t210 100.5q102 0 162 -65t60 -175q0 -167 -85 -267t-210 -100zM381 642h-30l-93 125h57l34 -48
l21 -38h2q11 16 36 39l50 47h60z" />
    <glyph glyph-name="ocaron" unicode="&#x1d2;" horiz-adv-x="480" 
d="M217 32q79 0 125 71.5t46 170.5q0 75 -32.5 114t-93.5 39q-78 0 -124 -70t-46 -168q0 -77 32.5 -117t92.5 -40zM212 -9q-79 0 -124.5 50t-45.5 143q0 119 60.5 203t166.5 84q81 0 125 -51t44 -143q0 -119 -60.5 -202.5t-165.5 -83.5zM297 533h-28l-92 136h54l35 -54
l21 -41h3q11 17 36 42l54 53h56z" />
    <glyph glyph-name="Ucaron" unicode="&#x1d3;" horiz-adv-x="574" 
d="M512 589h53l-69 -399q-35 -199 -237 -199q-89 0 -143 45.5t-54 132.5q0 27 6 58l63 362h53l-64 -366q-4 -29 -4 -51q0 -68 40.5 -102.5t107.5 -34.5q151 0 180 164zM367 642h-31l-93 125h57l34 -48l21 -38h2q12 16 36 39l50 47h60z" />
    <glyph glyph-name="ucaron" unicode="&#x1d4;" horiz-adv-x="484" 
d="M435 462l-65 -373q-3 -14 -3 -25q0 -29 28 -29q13 0 31 7l-8 -39q-18 -8 -40 -8q-61 0 -61 58q0 11 7 52q-42 -114 -157 -114q-57 0 -88 30t-31 86q0 21 6 55l52 300h51l-54 -309q-4 -17 -4 -42q0 -37 21 -58.5t60 -21.5q56 0 100.5 44t57.5 118l46 269h51zM293 533h-29
l-92 136h54l35 -54l21 -41h3l3 4q4 5 13 16t20 22l54 53h56z" />
    <glyph glyph-name="uni01D9" unicode="&#x1d9;" horiz-adv-x="574" 
d="M512 589h53l-69 -399q-35 -199 -237 -199q-89 0 -143 45.5t-54 132.5q0 27 6 58l63 362h53l-64 -366q-4 -29 -4 -51q0 -68 40.5 -102.5t107.5 -34.5q151 0 180 164zM234 667q0 16 11 27t27 11t27 -11t11 -27q0 -15 -11 -26t-27 -11t-27 11t-11 26zM406 667q0 16 10.5 27
t26.5 11t27 -11t11 -27t-11 -27t-27 -11t-26.5 11t-10.5 27zM385 727h-31l-92 125h56l35 -48l21 -38h2q11 16 36 39l50 47h60z" />
    <glyph glyph-name="uni01DA" unicode="&#x1da;" horiz-adv-x="484" 
d="M435 462l-65 -373q-3 -14 -3 -25q0 -29 28 -29q13 0 31 7l-8 -39q-18 -8 -40 -8q-61 0 -61 58q0 11 7 52q-42 -114 -157 -114q-57 0 -88 30t-31 86q0 21 6 55l52 300h51l-54 -309q-4 -17 -4 -42q0 -37 21 -58.5t60 -21.5q56 0 100.5 44t57.5 118l46 269h51zM160 548
q0 16 10.5 27t26.5 11q17 0 27.5 -11t10.5 -27t-11 -27t-27 -11t-26.5 11t-10.5 27zM331 547q0 16 11 27t27 11t27 -11t11 -27q0 -15 -11 -26t-27 -11t-27 11t-11 26zM310 608h-30l-93 126h57l34 -49l21 -38h2q11 16 36 39l50 48h60z" />
    <glyph glyph-name="uni004100A800AF" unicode="&#x1de;" horiz-adv-x="548" 
d="M436 0l-38 187h-264l-102 -187h-56l326 589h69l119 -589h-54zM256 408l-98 -176h232l-34 172l-25 150h-3q-20 -52 -72 -146zM220 656q0 16 11 27t27 11t27 -11t11 -27t-11 -27t-27 -11t-27 11t-11 27zM392 656q0 16 11 27t27 11t27 -11t11 -27t-11 -27t-27 -11t-27 11
t-11 27zM470 741h-221l6 41h222z" />
    <glyph glyph-name="adieresismacron" unicode="&#x1df;" horiz-adv-x="515" 
d="M368 197l13 71q11 65 -18 113t-93 48q-79 0 -128.5 -70t-49.5 -176q0 -69 30.5 -109t86.5 -40q60 0 103.5 44.5t55.5 118.5zM457 42l-8 -39q-18 -8 -40 -8q-60 0 -60 61q0 12 6 46q-19 -51 -61.5 -81t-96.5 -30q-70 0 -112.5 48.5t-42.5 138.5q0 124 62.5 208.5
t162.5 84.5q54 0 89 -28.5t43 -78.5l25 98h42l-65 -373q-3 -14 -3 -25q0 -29 28 -29q13 0 31 7zM178 555q0 16 11 27t27 11t27 -10.5t11 -27.5q0 -16 -11 -27t-27 -11t-27 11t-11 27zM350 555q0 16 11 26.5t27 10.5t27 -10.5t11 -26.5t-11 -27t-27 -11t-27 11t-11 27z
M430 643h-222l7 42h222z" />
    <glyph glyph-name="AEmacron" unicode="&#x1e2;" horiz-adv-x="810" 
d="M719 0h-335l33 189h-228l-153 -189h-60l475 589h371l-8 -46h-281l-40 -225h251l-8 -46h-251l-40 -226h282zM483 554l-259 -321h200l34 191q8 42 15 74.5t10 43.5l3 12h-3zM745 667h-221l6 41h222z" />
    <glyph glyph-name="aemacron" unicode="&#x1e3;" horiz-adv-x="730" 
d="M676 226h-305q-3 -19 -3 -40q0 -71 32.5 -112.5t96.5 -41.5q55 0 85 23t45 70l46 -12q-40 -122 -180 -122q-112 0 -152 91q-51 -91 -168 -91q-68 0 -102 31.5t-34 87.5q0 75 61.5 114.5t171.5 42.5q7 1 60 1q8 37 22 65q4 47 -22 71.5t-73 24.5q-98 0 -121 -90l-46 8
q16 65 63.5 94.5t109.5 29.5q106 0 129 -74q63 74 150 74q77 0 115 -44.5t38 -113.5q0 -52 -19 -87zM178 30q105 0 148 96q-5 28 -5 58q0 21 3 42h-54q-84 -2 -133 -30.5t-49 -83.5q0 -39 23 -60.5t67 -21.5zM540 429q-62 0 -104.5 -46t-57.5 -115h261q7 17 7 46
q0 51 -26.5 83t-79.5 32zM533 564h-222l7 43h222z" />
    <glyph glyph-name="Gstroke" unicode="&#x1e4;" horiz-adv-x="587" 
d="M569 173h-59l-31 -173h-42l8 99q-19 -49 -63.5 -78.5t-106.5 -29.5q-102 0 -161 65t-59 173q0 169 85 269t212 100q76 0 124 -36.5t62 -105.5l-47 -20q-10 57 -49 87t-95 30q-106 0 -172 -91t-66 -229q0 -90 45 -143.5t127 -53.5q61 0 108.5 35t66.5 102h-158l7 42h160
l10 56h-160l8 45h212l-18 -101h59z" />
    <glyph glyph-name="gstroke" unicode="&#x1e5;" horiz-adv-x="490" 
d="M332 -17l22 118q-19 -51 -60 -80.5t-95 -29.5q-71 0 -113.5 49t-42.5 138q0 123 63 208t163 85q54 0 88.5 -28.5t42.5 -78.5l25 98h42l-84 -477q-2 -14 -10 -42h68l-5 -27h-71q-50 -127 -198 -127q-80 0 -123 34t-48 93l45 15q5 -49 38.5 -76t90.5 -27q101 0 141 88h-167
l4 27h174q3 10 10 40zM369 195l14 73q11 65 -18 113t-93 48q-80 0 -130 -70.5t-50 -176.5q0 -69 30.5 -108.5t86.5 -39.5q61 0 104.5 44t55.5 117z" />
    <glyph glyph-name="Gcaron" unicode="&#x1e6;" horiz-adv-x="579" 
d="M375 642h-31l-93 125h57l33 -48l22 -38h2q15 18 37 39l49 47h61zM318 288h212l-51 -288h-42l8 99q-19 -49 -63.5 -78.5t-106.5 -29.5q-102 0 -161 65t-59 173q0 169 85 269t212 100q76 0 124 -36.5t62 -105.5l-47 -20q-10 57 -49 87t-95 30q-106 0 -172 -91t-66 -229
q0 -90 45 -143.5t127 -53.5q68 0 118 42.5t64 124.5l6 37h-160z" />
    <glyph glyph-name="gcaron" unicode="&#x1e7;" horiz-adv-x="490" 
d="M332 -17l22 118q-19 -51 -60 -80.5t-95 -29.5q-71 0 -113.5 49t-42.5 138q0 123 63 208t163 85q54 0 88.5 -28.5t42.5 -78.5l25 98h42l-84 -477q-17 -99 -69.5 -147.5t-146.5 -48.5q-80 0 -123 34t-48 93l45 15q5 -49 38.5 -76t90.5 -27q133 0 162 155zM369 195l14 73
q11 65 -18 113t-93 48q-80 0 -130 -70.5t-50 -176.5q0 -69 30.5 -108.5t86.5 -39.5q61 0 104.5 44t55.5 117zM307 533h-28l-92 136h53l36 -54l21 -41h3q11 17 36 42l54 53h56z" />
    <glyph glyph-name="Kcaron" unicode="&#x1e8;" horiz-adv-x="493" 
d="M442 0h-60l-181 274h-56l-47 -274h-54l103 589h54l-47 -269h49l263 269h65l-287 -289zM332 642h-30l-93 125h57l34 -48l21 -38h2q11 16 36 39l50 47h60z" />
    <glyph glyph-name="kcaron" unicode="&#x1e9;" horiz-adv-x="431" 
d="M364 36q16 0 35 8l-8 -41q-19 -8 -43 -8q-45 0 -74 56l-98 179h-42l-40 -230h-51l116 668h52l-70 -399h40l188 193h63l-212 -211l93 -172q23 -43 51 -43zM204 696h-31l-93 125h57l34 -48q4 -6 8 -12.5t6.5 -11t4 -8t2.5 -5.5l1 -1h2q11 16 35 39l51 47h60z" />
    <glyph glyph-name="Oogonek" unicode="&#x1ea;" horiz-adv-x="610" 
d="M315 -128l21 -25q-30 -48 -90 -48q-80 0 -80 75q0 68 72 121q-85 11 -134 73.5t-49 161.5q0 167 85 267.5t210 100.5q102 0 162 -65t60 -175q0 -160 -79 -259t-197 -107q-84 -46 -84 -114q0 -42 42 -42q38 0 61 36zM281 36q104 0 170 90.5t66 228.5q0 90 -44 143.5
t-128 53.5q-104 0 -170 -90.5t-66 -228.5q0 -91 45.5 -144t126.5 -53z" />
    <glyph glyph-name="oogonek" unicode="&#x1eb;" horiz-adv-x="480" 
d="M256 -128l21 -25q-30 -48 -91 -48q-39 0 -59.5 19.5t-20.5 55.5q0 66 73 121q-65 9 -101 57.5t-36 131.5q0 119 60.5 203t166.5 84q81 0 125 -51t44 -143q0 -111 -52.5 -192t-145.5 -92q-88 -46 -88 -115q0 -42 42 -42q39 0 62 36zM217 32q79 0 125 71.5t46 170.5
q0 75 -32.5 114t-93.5 39q-78 0 -124 -70t-46 -168q0 -77 32.5 -117t92.5 -40z" />
    <glyph glyph-name="uni004F02DB00AF" unicode="&#x1ec;" horiz-adv-x="610" 
d="M315 -128l21 -25q-30 -48 -90 -48q-80 0 -80 75q0 68 72 121q-85 11 -134 73.5t-49 161.5q0 167 85 267.5t210 100.5q102 0 162 -65t60 -175q0 -160 -79 -259t-197 -107q-84 -46 -84 -114q0 -42 42 -42q38 0 61 36zM281 36q104 0 170 90.5t66 228.5q0 90 -44 143.5
t-128 53.5q-104 0 -170 -90.5t-66 -228.5q0 -91 45.5 -144t126.5 -53zM485 667h-222l7 41h222z" />
    <glyph glyph-name="oogonekmacron" unicode="&#x1ed;" horiz-adv-x="480" 
d="M256 -128l21 -25q-30 -48 -91 -48q-39 0 -59.5 19.5t-20.5 55.5q0 66 73 121q-65 9 -101 57.5t-36 131.5q0 119 60.5 203t166.5 84q81 0 125 -51t44 -143q0 -111 -52.5 -192t-145.5 -92q-88 -46 -88 -115q0 -42 42 -42q39 0 62 36zM217 32q79 0 125 71.5t46 170.5
q0 75 -32.5 114t-93.5 39q-78 0 -124 -70t-46 -168q0 -77 32.5 -117t92.5 -40zM399 564h-222l8 43h222z" />
    <glyph glyph-name="Ezhcaron" unicode="&#x1ee;" horiz-adv-x="482" 
d="M484 553l-278 -287l-1 -4q96 -1 151 -52t55 -144q0 -113 -71 -180t-170 -67q-94 0 -146 47.5t-52 136.5l45 12q0 -78 40.5 -116t112.5 -38q82 0 136 54.5t54 150.5q0 165 -217 163l7 40l193 203q21 22 40 40t28 25l9 7v3q-26 -4 -89 -4h-232l8 46h384zM320 642h-30
l-93 125h57l34 -48l21 -38h2q11 16 36 39l50 47h60z" />
    <glyph glyph-name="ezhcaron" unicode="&#x1ef;" horiz-adv-x="398" 
d="M266 533h-28l-92 136h54l35 -54l21 -41h3q12 17 36 42l54 53h56zM119 202l138 146q12 13 23.5 25t19.5 19.5t14.5 13t9.5 8.5l2 3l1 3q-30 -2 -93 -2h-161l8 44h317l-6 -35l-227 -236q76 0 121.5 -42.5t45.5 -111.5q0 -89 -61.5 -140t-143.5 -51q-75 0 -114.5 38.5
t-39.5 101.5l43 10q0 -52 31.5 -81.5t82.5 -29.5q67 0 109.5 40.5t42.5 110.5q0 122 -169 129z" />
    <glyph glyph-name="jcaron" unicode="&#x1f0;" horiz-adv-x="204" 
d="M24 -86l97 548h51l-97 -547q-11 -65 -41.5 -95.5t-82.5 -30.5q-51 0 -79 28l19 41q30 -27 63 -27q29 0 45.5 20t24.5 63zM174 533h-28l-92 136h54l35 -54l21 -41h3q12 17 36 42l54 53h56z" />
    <glyph glyph-name="jcaron" unicode="&#xe10c;" horiz-adv-x="204" 
d="M24 -86l97 548h51l-97 -547q-11 -65 -41.5 -95.5t-82.5 -30.5q-51 0 -79 28l19 41q30 -27 63 -27q29 0 45.5 20t24.5 63zM174 533h-28l-92 136h54l35 -54l21 -41h3q12 17 36 42l54 53h56z" />
    <glyph glyph-name="Gacute" unicode="&#x1f4;" horiz-adv-x="579" 
d="M381 642h-46l73 121h71zM318 288h212l-51 -288h-42l8 99q-19 -49 -63.5 -78.5t-106.5 -29.5q-102 0 -161 65t-59 173q0 169 85 269t212 100q76 0 124 -36.5t62 -105.5l-47 -20q-10 57 -49 87t-95 30q-106 0 -172 -91t-66 -229q0 -90 45 -143.5t127 -53.5q68 0 118 42.5
t64 124.5l6 37h-160z" />
    <glyph glyph-name="gacute" unicode="&#x1f5;" horiz-adv-x="490" 
d="M332 -17l22 118q-19 -51 -60 -80.5t-95 -29.5q-71 0 -113.5 49t-42.5 138q0 123 63 208t163 85q54 0 88.5 -28.5t42.5 -78.5l25 98h42l-84 -477q-17 -99 -69.5 -147.5t-146.5 -48.5q-80 0 -123 34t-48 93l45 15q5 -49 38.5 -76t90.5 -27q133 0 162 155zM369 195l14 73
q11 65 -18 113t-93 48q-80 0 -130 -70.5t-50 -176.5q0 -69 30.5 -108.5t86.5 -39.5q61 0 104.5 44t55.5 117zM310 533h-43l80 136h71z" />
    <glyph glyph-name="Ngrave" unicode="&#x1f8;" horiz-adv-x="613" 
d="M398 642h-45l-79 121h69zM204 589l196 -406q13 -27 25 -55.5t17 -43.5l6 -15h3q7 59 19 125l69 395h53l-102 -589h-56l-198 405l-50 114h-3q-4 -58 -16 -124l-69 -395h-54l103 589h57z" />
    <glyph glyph-name="ngrave" unicode="&#x1f9;" horiz-adv-x="494" 
d="M339 84l39 222q5 32 5 46q0 35 -20 55t-59 20q-56 0 -103.5 -44.5t-62.5 -128.5l-44 -254h-50l80 462h44l-12 -108q23 54 64 85.5t96 31.5t86.5 -28t31.5 -81q0 -22 -6 -57l-38 -216q0 -2 -1.5 -11t-1.5 -14q0 -29 28 -29q13 0 31 7l-7 -39q-19 -8 -41 -8q-62 0 -62 60
q0 11 3 29zM323 533h-43l-89 136h70z" />
    <glyph glyph-name="uni004102DA00B4" unicode="&#x1fa;" horiz-adv-x="548" 
d="M436 0l-38 187h-264l-102 -187h-56l326 589h69l119 -589h-54zM256 408l-98 -176h232l-34 172l-25 150h-3q-20 -52 -72 -146zM351 632q26 0 42.5 18.5t16.5 43.5q0 23 -13 37.5t-37 14.5q-26 0 -43 -18.5t-17 -43.5q0 -24 13.5 -38t37.5 -14zM348 604q-38 0 -59 21.5
t-21 55.5q0 39 26.5 66t67.5 27q36 0 57.5 -22t21.5 -55q0 -39 -26 -66t-67 -27zM395 790h-45l72 121h71z" />
    <glyph glyph-name="aringacute" unicode="&#x1fb;" horiz-adv-x="515" 
d="M381 268q11 65 -18 113t-93 48q-79 0 -128.5 -70t-49.5 -176q0 -69 30.5 -109t86.5 -40q60 0 103.5 44.5t55.5 118.5zM457 42l-8 -39q-18 -8 -40 -8q-60 0 -60 61q0 12 6 46q-19 -51 -61.5 -81t-96.5 -30q-70 0 -112.5 48.5t-42.5 138.5q0 124 62.5 208.5t162.5 84.5
q54 0 89 -28.5t43 -78.5l25 98h42l-65 -373q-3 -14 -3 -25q0 -29 28 -29q13 0 31 7zM301 532q26 0 42.5 18t16.5 44q0 23 -13 37t-37 14q-26 0 -43 -18t-17 -44q0 -23 13.5 -37t37.5 -14zM298 504q-38 0 -59 21.5t-21 55.5q0 38 26.5 65t67.5 27q37 0 58.5 -22t21.5 -55
q0 -38 -26.5 -65t-67.5 -27zM352 703h-46l73 121h71z" />
    <glyph glyph-name="AEacute" unicode="&#x1fc;" horiz-adv-x="810" 
d="M719 0h-335l33 189h-228l-153 -189h-60l475 589h371l-8 -46h-281l-40 -225h251l-8 -46h-251l-40 -226h282zM483 554l-259 -321h200l34 191q8 42 15 74.5t10 43.5l3 12h-3zM635 642h-46l73 121h71z" />
    <glyph glyph-name="aeacute" unicode="&#x1fd;" horiz-adv-x="730" 
d="M676 226h-305q-3 -19 -3 -40q0 -71 32.5 -112.5t96.5 -41.5q55 0 85 23t45 70l46 -12q-40 -122 -180 -122q-112 0 -152 91q-51 -91 -168 -91q-68 0 -102 31.5t-34 87.5q0 75 61.5 114.5t171.5 42.5q7 1 60 1q8 37 22 65q4 47 -22 71.5t-73 24.5q-98 0 -121 -90l-46 8
q16 65 63.5 94.5t109.5 29.5q106 0 129 -74q63 74 150 74q77 0 115 -44.5t38 -113.5q0 -52 -19 -87zM178 30q105 0 148 96q-5 28 -5 58q0 21 3 42h-54q-84 -2 -133 -30.5t-49 -83.5q0 -39 23 -60.5t67 -21.5zM540 429q-62 0 -104.5 -46t-57.5 -115h261q7 17 7 46
q0 51 -26.5 83t-79.5 32zM434 533h-44l80 136h72z" />
    <glyph glyph-name="Oslashacute" unicode="&#x1fe;" horiz-adv-x="610" 
d="M277 -9q-104 0 -164 66l-64 -67l-30 28l70 72q-34 56 -34 140q0 167 85 267.5t210 100.5q103 0 162 -67l65 67l31 -29l-70 -73q34 -57 34 -138q0 -167 -85 -267t-210 -100zM109 233q0 -58 20 -101l348 361q-45 59 -132 59q-104 0 -170 -90.5t-66 -228.5zM281 36
q104 0 170 90.5t66 228.5q0 57 -20 100l-347 -361q45 -58 131 -58zM394 642h-46l73 121h70z" />
    <glyph glyph-name="oslashacute" unicode="&#x1ff;" horiz-adv-x="480" 
d="M212 -9q-83 0 -126 52l-54 -53l-28 27l59 60q-21 44 -21 107q0 119 60.5 203t166.5 84q84 0 129 -56l55 55l28 -29l-62 -63q19 -39 19 -101q0 -119 -60.5 -202.5t-165.5 -83.5zM217 32q79 0 125 71.5t46 170.5q0 36 -11 64l-257 -261q30 -45 97 -45zM92 189q0 -44 10 -73
l260 263q-33 48 -100 48q-78 0 -124 -70t-46 -168zM299 533h-43l80 136h71z" />
    <glyph glyph-name="Adoublegrave" unicode="&#x200;" horiz-adv-x="548" 
d="M436 0l-38 187h-264l-102 -187h-56l326 589h69l119 -589h-54zM256 408l-98 -176h232l-34 172l-25 150h-3q-20 -52 -72 -146zM307 642h-40l-89 121h67zM429 642h-39l-83 121h65z" />
    <glyph glyph-name="edoublegrave" unicode="&#x201;" horiz-adv-x="451" 
d="M348 125l46 -12q-40 -122 -176 -122q-84 0 -130 50.5t-46 142.5q0 125 63 206t158 81q77 0 115 -44.5t38 -113.5q0 -50 -19 -85h-305q-3 -20 -3 -40q0 -72 32.5 -114t96.5 -42q55 0 85 23t45 70zM261 429q-64 0 -105.5 -44.5t-57.5 -114.5h262q7 17 7 44q0 51 -26.5 83
t-79.5 32zM231 533h-40l-89 136h67zM353 533h-39l-84 136h66z" />
    <glyph glyph-name="edoublegrave" unicode="&#x205;" horiz-adv-x="451" 
d="M348 125l46 -12q-40 -122 -176 -122q-84 0 -130 50.5t-46 142.5q0 125 63 206t158 81q77 0 115 -44.5t38 -113.5q0 -50 -19 -85h-305q-3 -20 -3 -40q0 -72 32.5 -114t96.5 -42q55 0 85 23t45 70zM261 429q-64 0 -105.5 -44.5t-57.5 -114.5h262q7 17 7 44q0 51 -26.5 83
t-79.5 32zM231 533h-40l-89 136h67zM353 533h-39l-84 136h66z" />
    <glyph glyph-name="Ainvertedbreve" unicode="&#x202;" horiz-adv-x="548" 
d="M436 0l-38 187h-264l-102 -187h-56l326 589h69l119 -589h-54zM256 408l-98 -176h232l-34 172l-25 150h-3q-20 -52 -72 -146zM367 765q49 0 75 -24t26 -68q0 -15 -3 -31h-42q2 16 2 22q0 61 -64 61q-73 0 -95 -83h-41q10 58 47.5 90.5t94.5 32.5z" />
    <glyph glyph-name="ainvertedbreve" unicode="&#x203;" horiz-adv-x="515" 
d="M381 268q11 65 -18 113t-93 48q-79 0 -128.5 -70t-49.5 -176q0 -69 30.5 -109t86.5 -40q60 0 103.5 44.5t55.5 118.5zM457 42l-8 -39q-18 -8 -40 -8q-60 0 -60 61q0 12 6 46q-19 -51 -61.5 -81t-96.5 -30q-70 0 -112.5 48.5t-42.5 138.5q0 124 62.5 208.5t162.5 84.5
q54 0 89 -28.5t43 -78.5l25 98h42l-65 -373q-3 -14 -3 -25q0 -29 28 -29q13 0 31 7zM314 661q48 0 74 -25t26 -71q0 -15 -3 -33h-41q0 5 0.5 13.5t0.5 12.5q0 63 -63 63q-74 0 -96 -89h-41q10 61 48 95t95 34z" />
    <glyph glyph-name="Edoublegrave" unicode="&#x204;" horiz-adv-x="471" 
d="M387 46l-8 -46h-335l103 589h335l-8 -46h-281l-40 -225h251l-8 -46h-251l-40 -226h282zM281 642h-40l-89 121h67zM403 642h-39l-83 121h65z" />
    <glyph glyph-name="Einvertedbreve" unicode="&#x206;" horiz-adv-x="471" 
d="M387 46l-8 -46h-335l103 589h335l-8 -46h-281l-40 -225h251l-8 -46h-251l-40 -226h282zM341 765q48 0 74 -24t26 -68q0 -15 -3 -31h-41q1 8 1 22q0 61 -63 61q-75 0 -95 -83h-42q10 58 48 90.5t95 32.5z" />
    <glyph glyph-name="einvertedbreve" unicode="&#x207;" horiz-adv-x="451" 
d="M348 125l46 -12q-40 -122 -176 -122q-84 0 -130 50.5t-46 142.5q0 125 63 206t158 81q77 0 115 -44.5t38 -113.5q0 -50 -19 -85h-305q-3 -20 -3 -40q0 -72 32.5 -114t96.5 -42q55 0 85 23t45 70zM261 429q-64 0 -105.5 -44.5t-57.5 -114.5h262q7 17 7 44q0 51 -26.5 83
t-79.5 32zM300 661q49 0 75 -25t26 -71q0 -15 -3 -33h-42q2 20 2 26q0 63 -63 63q-75 0 -96 -89h-42q11 62 48.5 95.5t94.5 33.5z" />
    <glyph glyph-name="Idoublegrave" unicode="&#x208;" horiz-adv-x="221" 
d="M147 589h54l-103 -589h-54zM147 642h-40l-89 121h67zM269 642h-39l-83 121h66z" />
    <glyph glyph-name="idoublegrave" unicode="&#x209;" horiz-adv-x="218" 
d="M169 462l-65 -373q-3 -14 -3 -25q0 -29 28 -29q13 0 31 7l-8 -39q-18 -8 -40 -8q-62 0 -62 60q0 11 3 29l65 378h51zM119 533h-40l-89 136h67zM241 533h-39l-83 136h65z" />
    <glyph glyph-name="Iinvertedbreve" unicode="&#x20a;" horiz-adv-x="221" 
d="M147 589h54l-103 -589h-54zM207 765q49 0 75 -24t26 -68q0 -15 -3 -31h-42q1 8 1 22q0 61 -63 61q-73 0 -95 -83h-41q10 58 47.5 90.5t94.5 32.5z" />
    <glyph glyph-name="iinvertedbreve" unicode="&#x20b;" horiz-adv-x="218" 
d="M169 462l-65 -373q-3 -14 -3 -25q0 -29 28 -29q13 0 31 7l-8 -39q-18 -8 -40 -8q-62 0 -62 60q0 13 3 29l65 378h51zM178 661q49 0 75 -25t26 -71q0 -15 -3 -33h-42q1 10 1 26q0 63 -62 63q-75 0 -97 -89h-41q11 62 48.5 95.5t94.5 33.5z" />
    <glyph glyph-name="Odoublegrave" unicode="&#x20c;" horiz-adv-x="610" 
d="M281 36q104 0 170 90.5t66 228.5q0 90 -44 143.5t-128 53.5q-104 0 -170 -90.5t-66 -228.5q0 -91 45.5 -144t126.5 -53zM277 -9q-103 0 -162.5 65t-59.5 174q0 167 85 267.5t210 100.5q102 0 162 -65t60 -175q0 -167 -85 -267t-210 -100zM333 642h-40l-89 121h67z
M455 642h-39l-84 121h66z" />
    <glyph glyph-name="odoublegrave" unicode="&#x20d;" horiz-adv-x="480" 
d="M217 32q79 0 125 71.5t46 170.5q0 75 -32.5 114t-93.5 39q-78 0 -124 -70t-46 -168q0 -77 32.5 -117t92.5 -40zM212 -9q-79 0 -124.5 50t-45.5 143q0 119 60.5 203t166.5 84q81 0 125 -51t44 -143q0 -119 -60.5 -202.5t-165.5 -83.5zM245 533h-40l-89 136h67zM367 533
h-39l-83 136h65z" />
    <glyph glyph-name="Oinvertedbreve" unicode="&#x20e;" horiz-adv-x="610" 
d="M281 36q104 0 170 90.5t66 228.5q0 90 -44 143.5t-128 53.5q-104 0 -170 -90.5t-66 -228.5q0 -91 45.5 -144t126.5 -53zM277 -9q-103 0 -162.5 65t-59.5 174q0 167 85 267.5t210 100.5q102 0 162 -65t60 -175q0 -167 -85 -267t-210 -100zM393 765q48 0 74 -24t26 -68
q0 -15 -3 -31h-42q2 16 2 22q0 61 -64 61q-73 0 -95 -83h-41q11 59 48 91t95 32z" />
    <glyph glyph-name="oinvertedbreve" unicode="&#x20f;" horiz-adv-x="480" 
d="M217 32q79 0 125 71.5t46 170.5q0 75 -32.5 114t-93.5 39q-78 0 -124 -70t-46 -168q0 -77 32.5 -117t92.5 -40zM212 -9q-79 0 -124.5 50t-45.5 143q0 119 60.5 203t166.5 84q81 0 125 -51t44 -143q0 -119 -60.5 -202.5t-165.5 -83.5zM308 661q49 0 75 -25t26 -71
q0 -15 -3 -33h-42q2 20 2 26q0 63 -63 63q-74 0 -96 -89h-41q10 61 47.5 95t94.5 34z" />
    <glyph glyph-name="Rinvertedbreve" unicode="&#x212;" horiz-adv-x="526" 
d="M463 0h-57q-15 20 -21 59l-14 104q-8 53 -34.5 74.5t-82.5 21.5h-111l-45 -259h-54l103 589h177q170 0 170 -139q0 -78 -48.5 -122.5t-115.5 -47.5v-3q42 -6 63.5 -29t28.5 -74l16 -109q6 -40 25 -65zM193 544l-42 -240h125q76 0 119.5 35.5t43.5 104.5q0 100 -122 100
h-124zM342 765q49 0 75 -24t26 -68q0 -15 -3 -31h-42q2 16 2 22q0 61 -64 61q-73 0 -95 -83h-41q10 58 47.5 90.5t94.5 32.5z" />
    <glyph glyph-name="rinvertedbreve" unicode="&#x213;" horiz-adv-x="314" 
d="M333 465l-14 -58q-16 7 -35 7q-52 0 -93.5 -42t-53.5 -110l-45 -262h-51l80 462h44l-13 -114q20 53 58.5 88t89.5 35q17 0 33 -6zM258 661q49 0 75 -25t26 -71q0 -15 -3 -33h-42q1 10 1 26q0 63 -62 63q-75 0 -97 -89h-41q11 62 48.5 95.5t94.5 33.5z" />
    <glyph glyph-name="Udoublegrave" unicode="&#x214;" horiz-adv-x="574" 
d="M512 589h53l-69 -399q-35 -199 -237 -199q-89 0 -143 45.5t-54 132.5q0 27 6 58l63 362h53l-64 -366q-4 -29 -4 -51q0 -68 40.5 -102.5t107.5 -34.5q151 0 180 164zM316 642h-40l-89 121h67zM438 642h-39l-83 121h65z" />
    <glyph glyph-name="udoublegrave" unicode="&#x215;" horiz-adv-x="484" 
d="M435 462l-65 -373q-3 -14 -3 -25q0 -29 28 -29q13 0 31 7l-8 -39q-18 -8 -40 -8q-61 0 -61 58q0 11 7 52q-42 -114 -157 -114q-57 0 -88 30t-31 86q0 21 6 55l52 300h51l-54 -309q-4 -17 -4 -42q0 -37 21 -58.5t60 -21.5q56 0 100.5 44t57.5 118l46 269h51zM241 533h-40
l-89 136h67zM363 533h-39l-84 136h66z" />
    <glyph glyph-name="Uinvertedbreve" unicode="&#x216;" horiz-adv-x="574" 
d="M512 589h53l-69 -399q-35 -199 -237 -199q-89 0 -143 45.5t-54 132.5q0 27 6 58l63 362h53l-64 -366q-4 -29 -4 -51q0 -68 40.5 -102.5t107.5 -34.5q151 0 180 164zM378 765q49 0 75 -24t26 -68q0 -15 -3 -31h-42q1 8 1 22q0 61 -63 61q-73 0 -95 -83h-41
q10 58 47.5 90.5t94.5 32.5z" />
    <glyph glyph-name="uinvertedbreve" unicode="&#x217;" horiz-adv-x="484" 
d="M435 462l-65 -373q-3 -14 -3 -25q0 -29 28 -29q13 0 31 7l-8 -39q-18 -8 -40 -8q-61 0 -61 58q0 11 7 52q-42 -114 -157 -114q-57 0 -88 30t-31 86q0 21 6 55l52 300h51l-54 -309q-4 -17 -4 -42q0 -37 21 -58.5t60 -21.5q56 0 100.5 44t57.5 118l46 269h51zM299 661
q49 0 75 -25t26 -71q0 -15 -3 -33h-42q1 10 1 26q0 63 -62 63q-75 0 -96 -89h-42q11 62 48.5 95.5t94.5 33.5z" />
    <glyph glyph-name="Scommaaccent" unicode="&#x218;" horiz-adv-x="472" 
d="M22 151l48 9q0 -63 36 -95t102 -32q65 0 102.5 30.5t37.5 91.5q0 48 -28 76.5t-92 51.5q-70 25 -104 57.5t-34 96.5q0 82 54.5 121.5t128.5 39.5q174 0 175 -154l-50 -8q-1 120 -128 120q-58 0 -94 -29t-36 -84q0 -47 26 -69.5t92 -47.5q73 -28 108 -64.5t35 -101.5
q0 -83 -55 -126t-142 -43t-134.5 40.5t-47.5 119.5zM215 -141q0 -44 -31.5 -67.5t-81.5 -23.5v25q31 2 53.5 13.5t22.5 33.5q0 4 -2 10q-5 -5 -15 -5q-14 0 -23 9t-9 23q0 17 10.5 26.5t28.5 9.5q20 0 33.5 -14t13.5 -40z" />
    <glyph glyph-name="scommaaccent" unicode="&#x219;" horiz-adv-x="396" 
d="M21 126l46 9q1 -54 31.5 -79t80.5 -25q104 0 104 84q0 37 -23.5 60.5t-75.5 42.5q-57 21 -83 49t-26 77q0 60 41.5 93.5t108.5 33.5q138 0 138 -122l-48 -5q0 87 -94 87q-45 0 -72 -21.5t-27 -61.5q0 -33 19 -52t74 -41q62 -24 89.5 -55t27.5 -81q0 -63 -41.5 -95.5
t-113.5 -32.5q-73 0 -114.5 35.5t-41.5 99.5zM183 -141q0 -44 -31.5 -67.5t-81.5 -23.5v25q31 2 53.5 13.5t22.5 33.5q0 7 -2 10q-4 -5 -15 -5q-14 0 -22.5 9t-8.5 23q0 16 10.5 26t27.5 10q20 0 33.5 -14t13.5 -40z" />
    <glyph glyph-name="Hcaron" unicode="&#x21e;" horiz-adv-x="614" 
d="M540 589h53l-102 -589h-54l47 274h-339l-47 -274h-54l103 589h54l-47 -268h339zM362 642l-93 125h56l33 -48l23 -38h2q-1 0 4 5t13.5 14.5t18.5 19.5l50 47h60l-137 -125h-30z" />
    <glyph glyph-name="hcaron" unicode="&#x21f;" horiz-adv-x="493" 
d="M338 84l39 222q5 32 5 46q0 35 -20 55t-59 20q-56 0 -103.5 -44.5t-61.5 -128.5l-44 -254h-51l116 668h52l-56 -314q23 54 64 85.5t97 31.5q54 0 85.5 -28t31.5 -81q0 -22 -6 -57l-38 -216q0 -2 -1.5 -11t-1.5 -14q0 -29 28 -29q13 0 31 7l-7 -39q-18 -8 -40 -8
q-63 0 -63 60q0 11 3 29zM204 704h-31l-93 125h57l34 -48q4 -6 8 -12.5t6.5 -11t4 -8t2.5 -5.5l1 -1h2q11 16 35 39l51 47h60z" />
    <glyph glyph-name="Adotabove" unicode="&#x226;" horiz-adv-x="548" 
d="M436 0l-38 187h-264l-102 -187h-56l326 589h69l119 -589h-54zM256 408l-98 -176h232l-34 172l-25 150h-3q-20 -52 -72 -146zM311 698q0 16 10.5 27t26.5 11q17 0 28 -11t11 -27t-11.5 -27t-27.5 -11t-26.5 11t-10.5 27z" />
    <glyph glyph-name="adotabove" unicode="&#x227;" horiz-adv-x="515" 
d="M368 197l13 71q11 65 -18 113t-93 48q-79 0 -128.5 -70t-49.5 -176q0 -69 30.5 -109t86.5 -40q60 0 103.5 44.5t55.5 118.5zM457 42l-8 -39q-18 -8 -40 -8q-60 0 -60 61q0 12 6 46q-19 -51 -61.5 -81t-96.5 -30q-70 0 -112.5 48.5t-42.5 138.5q0 124 62.5 208.5
t162.5 84.5q54 0 89 -28.5t43 -78.5l25 98h42l-65 -373q-3 -14 -3 -25q0 -29 28 -29q13 0 31 7zM265 604q0 17 10.5 28t26.5 11t27.5 -11.5t11.5 -27.5t-11 -26.5t-28 -10.5q-16 0 -26.5 10.5t-10.5 26.5z" />
    <glyph glyph-name="Otildemacron" unicode="&#x22c;" horiz-adv-x="610" 
d="M281 36q104 0 170 90.5t66 228.5q0 90 -44 143.5t-128 53.5q-104 0 -170 -90.5t-66 -228.5q0 -91 45.5 -144t126.5 -53zM277 -9q-103 0 -162.5 65t-59.5 174q0 167 85 267.5t210 100.5q102 0 162 -65t60 -175q0 -167 -85 -267t-210 -100zM262 615l-33 2q-3 12 -3 22
q0 33 21.5 54.5t53.5 21.5q31 0 60 -21l37 -27q18 -14 37 -14q35 0 38 58l34 -2q2 -14 2 -22q0 -33 -21 -54.5t-53 -21.5q-29 0 -61 22l-36 26q-18 14 -37 14q-35 0 -39 -58zM502 742h-222l7 41h222z" />
    <glyph glyph-name="otildemacron" unicode="&#x22d;" horiz-adv-x="480" 
d="M217 32q79 0 125 71.5t46 170.5q0 75 -32.5 114t-93.5 39q-78 0 -124 -70t-46 -168q0 -77 32.5 -117t92.5 -40zM212 -9q-79 0 -124.5 50t-45.5 143q0 119 60.5 203t166.5 84q81 0 125 -51t44 -143q0 -119 -60.5 -202.5t-165.5 -83.5zM181 506l-33 2q-3 10 -3 22
q0 33 21.5 54.5t53.5 21.5q30 0 60 -22l37 -27q19 -13 37 -13q35 0 38 57l34 -1q2 -16 2 -22q0 -34 -21.5 -55.5t-53.5 -21.5q-30 0 -60 22l-36 27q-18 14 -37 14q-36 0 -39 -58zM422 644h-222l7 42h222z" />
    <glyph glyph-name="Odotabove" unicode="&#x22e;" horiz-adv-x="610" 
d="M281 36q104 0 170 90.5t66 228.5q0 90 -44 143.5t-128 53.5q-104 0 -170 -90.5t-66 -228.5q0 -91 45.5 -144t126.5 -53zM277 -9q-103 0 -162.5 65t-59.5 174q0 167 85 267.5t210 100.5q102 0 162 -65t60 -175q0 -167 -85 -267t-210 -100zM339 698q0 16 11 27t27 11
q17 0 27.5 -11t10.5 -27t-11 -27t-27 -11t-27 11t-11 27z" />
    <glyph glyph-name="odotabove" unicode="&#x22f;" horiz-adv-x="480" 
d="M217 32q79 0 125 71.5t46 170.5q0 75 -32.5 114t-93.5 39q-78 0 -124 -70t-46 -168q0 -77 32.5 -117t92.5 -40zM212 -9q-79 0 -124.5 50t-45.5 143q0 119 60.5 203t166.5 84q81 0 125 -51t44 -143q0 -119 -60.5 -202.5t-165.5 -83.5zM276 604q0 17 10.5 28t26.5 11
t27 -11t11 -28q0 -16 -11 -26.5t-27 -10.5t-26.5 10.5t-10.5 26.5z" />
    <glyph glyph-name="odotabovemacron" unicode="&#x231;" horiz-adv-x="480" 
d="M217 32q79 0 125 71.5t46 170.5q0 75 -32.5 114t-93.5 39q-78 0 -124 -70t-46 -168q0 -77 32.5 -117t92.5 -40zM212 -9q-79 0 -124.5 50t-45.5 143q0 119 60.5 203t166.5 84q81 0 125 -51t44 -143q0 -119 -60.5 -202.5t-165.5 -83.5zM255 545q0 16 10.5 27t26.5 11
q17 0 28 -11t11 -27t-11.5 -27t-27.5 -11t-26.5 11t-10.5 27zM421 629h-221l7 42h222z" />
    <glyph glyph-name="odotabovemacron" unicode="&#xe11e;" horiz-adv-x="480" 
d="M217 32q79 0 125 71.5t46 170.5q0 75 -32.5 114t-93.5 39q-78 0 -124 -70t-46 -168q0 -77 32.5 -117t92.5 -40zM212 -9q-79 0 -124.5 50t-45.5 143q0 119 60.5 203t166.5 84q81 0 125 -51t44 -143q0 -119 -60.5 -202.5t-165.5 -83.5zM255 545q0 16 10.5 27t26.5 11
q17 0 28 -11t11 -27t-11.5 -27t-27.5 -11t-26.5 11t-10.5 27zM421 629h-221l7 42h222z" />
    <glyph glyph-name="Ymacron" unicode="&#x232;" horiz-adv-x="485" 
d="M137 589l81 -216q11 -29 18.5 -53.5t9.5 -34.5l2 -10h3q15 32 60 98l153 216h58l-252 -353l-41 -236h-53l41 236l-135 353h55zM429 667h-222l7 41h222z" />
    <glyph glyph-name="ymacron" unicode="&#x233;" horiz-adv-x="417" 
d="M127 -15l-72 477h53l39 -295q6 -38 9 -71t4 -46v-14h3q15 45 61 129l164 297h54l-306 -546q-40 -73 -75 -100.5t-83 -27.5q-41 0 -70 23l14 39q29 -22 58 -22q34 0 58.5 22t55.5 79zM364 564h-222l7 43h222z" />
    <glyph glyph-name="dotlessj" unicode="&#x237;" horiz-adv-x="204" 
d="M24 -86l97 548h51l-97 -547q-11 -65 -41.5 -95.5t-82.5 -30.5q-51 0 -79 28l19 41q30 -27 63 -27q29 0 45.5 20t24.5 63z" />
    <glyph glyph-name="schwa" unicode="&#x259;" horiz-adv-x="456" 
d="M106 336l-44 13q45 122 180 122q82 0 127.5 -51t45.5 -142q0 -128 -63 -207.5t-158 -79.5q-78 0 -116 44t-38 113q0 51 19 86h304q2 13 2 40q0 72 -32 114t-95 42q-94 0 -132 -94zM196 32q63 0 103 42.5t57 117.5h-259q-7 -17 -7 -45q0 -51 26.5 -83t79.5 -32z" />
    <glyph glyph-name="ezh" unicode="&#x292;" horiz-adv-x="398" 
d="M119 202l138 146l69 69l1 3q-30 -2 -93 -2h-161l8 44h317l-6 -35l-227 -236q76 0 121.5 -42.5t45.5 -111.5q0 -89 -61.5 -140t-143.5 -51q-75 0 -114.5 38.5t-39.5 101.5l43 10q0 -52 31.5 -81.5t82.5 -29.5q67 0 109.5 40.5t42.5 110.5q0 122 -169 129z" />
    <glyph glyph-name="circumflex" unicode="&#x2c6;" horiz-adv-x="392" 
d="M205 669h29l92 -136h-54l-35 54l-21 40h-3q-12 -17 -36 -41l-54 -53h-56z" />
    <glyph glyph-name="caron" unicode="&#x2c7;" horiz-adv-x="392" 
d="M187 533h-29l-91 136h53l35 -54l21 -41h3q12 17 36 42l54 53h57z" />
    <glyph glyph-name="breve" unicode="&#x2d8;" horiz-adv-x="378" 
d="M168 530q-48 0 -74 25t-26 70q0 15 3 33h41q-1 -9 -1 -25q0 -63 63 -63q74 0 96 88h41q-11 -61 -48.5 -94.5t-94.5 -33.5z" />
    <glyph glyph-name="dotaccent" unicode="&#x2d9;" horiz-adv-x="210" 
d="M66 604q0 17 10.5 28t26.5 11t27 -11t11 -28q0 -16 -11 -26.5t-27 -10.5t-26.5 10.5t-10.5 26.5z" />
    <glyph glyph-name="ring" unicode="&#x2da;" horiz-adv-x="307" 
d="M150 556q25 0 41.5 18t16.5 44q0 23 -13 37t-37 14q-26 0 -42.5 -18t-16.5 -44q0 -23 13 -37t38 -14zM146 528q-38 0 -58.5 21.5t-20.5 55.5q0 38 26.5 65t67.5 27q36 0 57.5 -22t21.5 -55q0 -39 -26 -65.5t-68 -26.5z" />
    <glyph glyph-name="ogonek" unicode="&#x2db;" horiz-adv-x="306" 
d="M216 -128l21 -25q-30 -48 -91 -48q-39 0 -59 19.5t-20 55.5q0 57 47.5 99t105.5 57l21 -30q-54 -12 -91.5 -45t-37.5 -77q0 -42 42 -42q39 0 62 36z" />
    <glyph glyph-name="tilde" unicode="&#x2dc;" horiz-adv-x="416" 
d="M103 543l-34 2q-2 14 -2 22q0 33 21 54.5t53 21.5q29 0 61 -22l36 -27q19 -13 37 -13q35 0 39 57l33 -1q3 -12 3 -22q0 -33 -21.5 -55t-53.5 -22q-29 0 -61 22l-36 27q-20 14 -37 14q-35 0 -38 -58z" />
    <glyph glyph-name="hungarumlaut" unicode="&#x2dd;" horiz-adv-x="404" 
d="M106 533h-39l74 136h67zM229 533h-40l80 136h68z" />
    <glyph glyph-name="uni0312" unicode="&#x312;" horiz-adv-x="255" 
d="M67 708q0 44 31.5 67.5t81.5 23.5v-26q-31 -1 -53.5 -13t-22.5 -34q0 -6 2 -9q5 5 15 5q14 0 22.5 -9t8.5 -23q0 -16 -10.5 -26t-27.5 -10q-20 0 -33.5 14t-13.5 40z" />
    <glyph glyph-name="uni0320" unicode="&#x320;" horiz-adv-x="381" 
d="M306 -169h-239l7 42h240z" />
    <glyph glyph-name="uni0323" unicode="&#x323;" horiz-adv-x="210" 
d="M66 -125q0 16 10.5 27t26.5 11t27 -11t11 -27t-11 -27t-27 -11t-26.5 11t-10.5 27z" />
    <glyph glyph-name="uni0329" unicode="&#x329;" horiz-adv-x="188" 
d="M67 -192l10 135h44l-10 -131z" />
    <glyph glyph-name="pi" unicode="&#x3c0;" horiz-adv-x="606" 
d="M203 481h403l-7 -43h-125l-59 -320q-5 -21 -5 -44q0 -44 41 -44q23 0 37.5 12t32.5 41l35 -22q-23 -38 -49 -54t-65 -16q-41 0 -62 21t-21 58q0 21 5 47l61 321h-159l-124 -438h-51l126 438h-26q-106 0 -121 -119h-45q17 162 178 162z" />
    <glyph glyph-name="pi" unicode="&#x3d6;" horiz-adv-x="606" 
d="M203 481h403l-7 -43h-125l-59 -320q-5 -21 -5 -44q0 -44 41 -44q23 0 37.5 12t32.5 41l35 -22q-23 -38 -49 -54t-65 -16q-41 0 -62 21t-21 58q0 21 5 47l61 321h-159l-124 -438h-51l126 438h-26q-106 0 -121 -119h-45q17 162 178 162z" />
    <glyph glyph-name="uni0E3F" unicode="&#xe3f;" horiz-adv-x="470" 
d="M317 249v-3q44 -2 70 -29t26 -70q0 -145 -201 -147l-18 -106h-37l18 106h-136l84 481h137l16 93h37l-17 -93q132 -2 132 -106q0 -55 -30 -87t-81 -39zM363 145q0 79 -112 80l-31 -182q71 1 107 24.5t36 77.5zM130 225l-32 -182h85l32 182h-85zM137 268h85l30 170h-85z
M377 368q0 67 -89 70l-29 -170q52 0 85 24.5t33 75.5z" />
    <glyph glyph-name="Ddotbelow" unicode="&#x1e0c;" horiz-adv-x="586" 
d="M105 45h112q125 0 199.5 79t74.5 234q0 93 -51.5 139.5t-142.5 46.5h-104zM219 0h-175l103 589h157q118 0 180.5 -58.5t62.5 -168.5q0 -179 -92 -270.5t-236 -91.5zM150 -139q0 17 10.5 28t26.5 11q17 0 28 -11t11 -28q0 -16 -11.5 -27t-27.5 -11t-26.5 11t-10.5 27z" />
    <glyph glyph-name="ddotbelow" unicode="&#x1e0d;" horiz-adv-x="512" 
d="M368 196l14 72q11 65 -18.5 113t-93.5 48q-79 0 -129 -70.5t-50 -176.5q0 -69 30.5 -108.5t86.5 -39.5q61 0 104.5 44.5t55.5 117.5zM355 102q-17 -52 -60 -81.5t-98 -29.5q-70 0 -112.5 48.5t-42.5 138.5q0 124 62.5 208.5t162.5 84.5q54 0 89 -28.5t43 -78.5l53 304h50
l-101 -579q-3 -14 -3 -25q0 -29 28 -29q13 0 31 7l-8 -39q-18 -8 -40 -8q-60 0 -60 61q0 10 6 46zM151 -139q0 17 10.5 28t26.5 11t27.5 -11t11.5 -28q0 -16 -11.5 -27t-27.5 -11t-26.5 11t-10.5 27z" />
    <glyph glyph-name="Dcedilla" unicode="&#x1e10;" horiz-adv-x="586" 
d="M197 0h-153l103 589h157q118 0 180.5 -58.5t62.5 -168.5q0 -178 -90 -268t-231 -94l-19 -46q80 -13 80 -78q0 -38 -28 -59.5t-70 -21.5q-59 0 -85 40l19 32q23 -38 66 -38q24 0 39 12.5t15 34.5q0 47 -75 50zM105 45h112q125 0 199.5 79t74.5 234q0 93 -51.5 139.5
t-142.5 46.5h-104z" />
    <glyph glyph-name="dcedilla" unicode="&#x1e11;" horiz-adv-x="512" 
d="M290 -124q0 -38 -28 -59.5t-70 -21.5q-58 0 -86 40l19 32q24 -38 67 -38q24 0 39 12.5t15 34.5q0 47 -75 50l24 65q-70 1 -111.5 49.5t-41.5 137.5q0 124 62.5 208.5t162.5 84.5q54 0 89 -28.5t43 -78.5l53 304h50l-101 -579q-3 -14 -3 -25q0 -29 28 -29q13 0 31 7
l-8 -39q-18 -8 -40 -8q-60 0 -60 61q0 12 6 46q-15 -45 -49.5 -74t-79.5 -35l-16 -39q80 -13 80 -78zM368 196l14 72q11 65 -18.5 113t-93.5 48q-79 0 -129 -70.5t-50 -176.5q0 -69 30.5 -108.5t86.5 -39.5q61 0 104.5 44.5t55.5 117.5z" />
    <glyph glyph-name="Hdotbelow" unicode="&#x1e24;" horiz-adv-x="614" 
d="M540 589h53l-102 -589h-54l47 274h-339l-47 -274h-54l103 589h54l-47 -268h339zM204 -139q0 16 11 27.5t26 11.5q17 0 28 -11t11 -28q0 -16 -11.5 -27t-27.5 -11q-15 0 -26 11t-11 27z" />
    <glyph glyph-name="hdotbelow" unicode="&#x1e25;" horiz-adv-x="493" 
d="M338 84l39 222q5 32 5 46q0 35 -20 55t-59 20q-56 0 -103.5 -44.5t-61.5 -128.5l-44 -254h-51l116 668h52l-56 -314q23 54 64 85.5t97 31.5q54 0 85.5 -28t31.5 -81q0 -22 -6 -57l-38 -216q0 -2 -1.5 -11t-1.5 -14q0 -29 28 -29q13 0 31 7l-7 -39q-18 -8 -40 -8
q-63 0 -63 60q0 11 3 29zM165 -139q0 17 10.5 28t26.5 11t27.5 -11t11.5 -28q0 -16 -11.5 -27t-27.5 -11t-26.5 11t-10.5 27z" />
    <glyph glyph-name="Ldotbelow" unicode="&#x1e36;" horiz-adv-x="436" 
d="M147 589h54l-96 -543h273l-7 -46h-327zM142 -139q0 17 10.5 28t26.5 11t27 -11t11 -28q0 -16 -11 -27t-27 -11t-26.5 11t-10.5 27z" />
    <glyph glyph-name="ldotbelow" unicode="&#x1e37;" horiz-adv-x="216" 
d="M205 668l-101 -579q-3 -14 -3 -25q0 -29 28 -29q13 0 31 7l-8 -39q-18 -8 -40 -8q-62 0 -62 60q0 11 3 29l101 584h51zM18 -139q0 17 10.5 28t26.5 11q17 0 28 -11t11 -28q0 -16 -11.5 -27t-27.5 -11t-26.5 11t-10.5 27z" />
    <glyph glyph-name="uni004C032300AF" unicode="&#x1e38;" horiz-adv-x="436" 
d="M147 589h54l-96 -543h273l-7 -46h-327zM303 667h-222l7 41h222zM142 -139q0 17 10.5 28t26.5 11t27 -11t11 -28q0 -16 -11 -27t-27 -11t-26.5 11t-10.5 27z" />
    <glyph glyph-name="ldotbelowmacron" unicode="&#x1e39;" horiz-adv-x="216" 
d="M205 668l-101 -579q-3 -14 -3 -25q0 -29 28 -29q13 0 31 7l-8 -39q-18 -8 -40 -8q-62 0 -62 60q0 11 3 29l101 584h51zM305 710h-222l7 41h221zM18 -139q0 17 10.5 28t26.5 11q17 0 28 -11t11 -28q0 -16 -11.5 -27t-27.5 -11t-26.5 11t-10.5 27z" />
    <glyph glyph-name="Mdotbelow" unicode="&#x1e42;" horiz-adv-x="690" 
d="M243 -139q0 17 10.5 28t26.5 11t27 -11t11 -28q0 -16 -11 -27t-27 -11t-26.5 11t-10.5 27zM353 147h-40l-94 267q-11 30 -18.5 55.5t-10.5 36.5l-2 11h-3q-3 -32 -15 -103l-72 -414h-54l103 589h63l111 -320l19 -70h3q9 25 39 68l224 322h64l-102 -589h-54l72 414l21 103
h-3q-16 -35 -62 -101z" />
    <glyph glyph-name="mdotbelow" unicode="&#x1e43;" horiz-adv-x="745" 
d="M419 350q48 121 157 121q51 0 80 -28t29 -81q0 -22 -6 -57l-37 -216q-3 -13 -3 -25q0 -29 28 -29q13 0 30 7l-7 -39q-18 -8 -40 -8q-63 0 -63 60q0 11 3 29l39 222q6 29 6 46q0 75 -76 75q-52 0 -96 -45t-59 -128l-44 -254h-50l53 306q6 29 6 46q0 75 -76 75
q-52 0 -96 -45t-59 -128l-44 -254h-50l80 462h44l-12 -108q50 117 154 117q49 0 77.5 -26.5t30.5 -76.5q0 -3 0.5 -8.5t0.5 -9.5zM270 -139q0 17 10.5 28t26.5 11q17 0 28 -11t11 -28q0 -16 -11.5 -27t-27.5 -11t-26.5 11t-10.5 27z" />
    <glyph glyph-name="Ndotaccent" unicode="&#x1e44;" horiz-adv-x="613" 
d="M343 698q0 16 11 27t26 11q17 0 28 -10.5t11 -27.5q0 -16 -11 -27t-28 -11q-15 0 -26 11t-11 27zM204 589l196 -406q13 -27 25 -55.5t17 -43.5l6 -15h3q7 59 19 125l69 395h53l-102 -589h-56l-198 405l-50 114h-3q-4 -58 -16 -124l-69 -395h-54l103 589h57z" />
    <glyph glyph-name="ndotaccent" unicode="&#x1e45;" horiz-adv-x="494" 
d="M339 84l39 222q5 32 5 46q0 35 -20 55t-59 20q-56 0 -103.5 -44.5t-62.5 -128.5l-44 -254h-50l80 462h44l-12 -108q23 54 64 85.5t96 31.5t86.5 -28t31.5 -81q0 -22 -6 -57l-38 -216q0 -2 -1.5 -11t-1.5 -14q0 -29 28 -29q13 0 31 7l-7 -39q-19 -8 -41 -8q-62 0 -62 60
q0 11 3 29zM266 604q0 16 11 27.5t27 11.5t27 -11t11 -28q0 -16 -11 -26.5t-27 -10.5t-27 10.5t-11 26.5z" />
    <glyph glyph-name="Ndotbelow" unicode="&#x1e46;" horiz-adv-x="613" 
d="M197 -139q0 17 10.5 28t26.5 11t27.5 -11t11.5 -28q0 -16 -11.5 -27t-27.5 -11t-26.5 11t-10.5 27zM204 589l196 -406q13 -27 25 -55.5t17 -43.5l6 -15h3q7 59 19 125l69 395h53l-102 -589h-56l-198 405l-50 114h-3q-4 -58 -16 -124l-69 -395h-54l103 589h57z" />
    <glyph glyph-name="ndotbelow" unicode="&#x1e47;" horiz-adv-x="494" 
d="M339 84l39 222q5 32 5 46q0 35 -20 55t-59 20q-56 0 -103.5 -44.5t-62.5 -128.5l-44 -254h-50l80 462h44l-12 -108q23 54 64 85.5t96 31.5t86.5 -28t31.5 -81q0 -22 -6 -57l-38 -216q0 -2 -1.5 -11t-1.5 -14q0 -29 28 -29q13 0 31 7l-7 -39q-19 -8 -41 -8q-62 0 -62 60
q0 11 3 29zM159 -139q0 17 10.5 28t26.5 11t27 -11t11 -28q0 -16 -11 -27t-27 -11t-26.5 11t-10.5 27z" />
    <glyph glyph-name="Rdotbelow" unicode="&#x1e5a;" horiz-adv-x="526" 
d="M463 0h-57q-15 20 -21 59l-14 104q-7 53 -33.5 74.5t-83.5 21.5h-111l-45 -259h-54l103 589h177q170 0 170 -139q0 -78 -48.5 -122.5t-115.5 -47.5v-3q42 -6 63.5 -29t28.5 -74l16 -109q6 -40 25 -65zM193 544l-42 -240h125q76 0 119.5 35.5t43.5 104.5q0 100 -122 100
h-124zM163 -139q0 17 10.5 28t26.5 11t27.5 -11t11.5 -28q0 -16 -11.5 -27t-27.5 -11t-26.5 11t-10.5 27z" />
    <glyph glyph-name="rdotbelow" unicode="&#x1e5b;" horiz-adv-x="314" 
d="M333 465l-14 -58q-16 7 -35 7q-52 0 -93.5 -42t-53.5 -110l-45 -262h-51l80 462h44l-13 -114q20 53 58.5 88t89.5 35q17 0 33 -6zM7 -139q0 16 11 27.5t27 11.5t27 -11t11 -28q0 -16 -11 -27t-27 -11t-27 11t-11 27z" />
    <glyph glyph-name="Rdotbelowmacron" unicode="&#x1e5c;" horiz-adv-x="526" 
d="M463 0h-57q-15 20 -21 59l-14 104q-7 53 -33.5 74.5t-83.5 21.5h-111l-45 -259h-54l103 589h177q170 0 170 -139q0 -78 -48.5 -122.5t-115.5 -47.5v-3q42 -6 63.5 -29t28.5 -74l16 -109q6 -40 25 -65zM193 544l-42 -240h125q76 0 119.5 35.5t43.5 104.5q0 100 -122 100
h-124zM163 -139q0 17 10.5 28t26.5 11t27.5 -11t11.5 -28q0 -16 -11.5 -27t-27.5 -11t-26.5 11t-10.5 27zM438 667h-222l7 41h222z" />
    <glyph glyph-name="rdotbelowmacron" unicode="&#x1e5d;" horiz-adv-x="314" 
d="M333 465l-14 -58q-16 7 -35 7q-52 0 -93.5 -42t-53.5 -110l-45 -262h-51l80 462h44l-13 -114q20 53 58.5 88t89.5 35q17 0 33 -6zM7 -139q0 16 11 27.5t27 11.5t27 -11t11 -28q0 -16 -11 -27t-27 -11t-27 11t-11 27zM353 564h-221l7 43h222z" />
    <glyph glyph-name="Sdotbelow" unicode="&#x1e62;" horiz-adv-x="472" 
d="M22 151l48 9q0 -63 36 -95t102 -32q65 0 102.5 30.5t37.5 91.5q0 48 -28 76.5t-92 51.5q-70 25 -104 57.5t-34 96.5q0 82 54.5 121.5t128.5 39.5q174 0 175 -154l-50 -8q-1 120 -128 120q-58 0 -94 -29t-36 -84q0 -47 26 -69.5t92 -47.5q73 -28 108 -64.5t35 -101.5
q0 -83 -55 -126t-142 -43t-134.5 40.5t-47.5 119.5zM120 -139q0 16 11 27.5t27 11.5t27 -11t11 -28q0 -16 -11 -27t-27 -11t-27 11t-11 27z" />
    <glyph glyph-name="sdotbelow" unicode="&#x1e63;" horiz-adv-x="396" 
d="M21 126l46 9q1 -54 31.5 -79t80.5 -25q104 0 104 84q0 37 -23.5 60.5t-75.5 42.5q-57 21 -83 49t-26 77q0 60 41.5 93.5t108.5 33.5q138 0 138 -122l-48 -5q0 87 -94 87q-45 0 -72 -21.5t-27 -61.5q0 -33 19 -52t74 -41q62 -24 89.5 -55t27.5 -81q0 -63 -41.5 -95.5
t-113.5 -32.5q-73 0 -114.5 35.5t-41.5 99.5zM88 -139q0 16 11 27.5t27 11.5t27 -11t11 -28q0 -16 -11 -27t-27 -11t-27 11t-11 27z" />
    <glyph glyph-name="Tdotbelow" unicode="&#x1e6c;" horiz-adv-x="476" 
d="M222 0h-54l95 543h-194l8 46h437l-8 -46h-190zM133 -139q0 16 11 27.5t27 11.5t27 -11t11 -28q0 -16 -11 -27t-27 -11t-27 11t-11 27z" />
    <glyph glyph-name="tdotbelow" unicode="&#x1e6d;" horiz-adv-x="295" 
d="M241 63l4 -43q-39 -29 -91 -29q-97 0 -97 90q0 23 4 44l52 295h-64l7 42h65l18 97l51 8l-18 -105h121l-8 -42h-121l-52 -300q-4 -16 -4 -32q0 -54 52 -54q44 0 81 29zM59 -139q0 16 11 27.5t27 11.5t27 -11t11 -28q0 -16 -11 -27t-27 -11t-27 11t-11 27z" />
    <glyph glyph-name="Wgrave" unicode="&#x1e80;" horiz-adv-x="796" 
d="M485 642h-44l-80 121h69zM481 589l40 -405l10 -150h3q18 58 59 151l181 404h56l-268 -589h-74l-36 392q-4 40 -5.5 77t-1.5 53v17h-3q-17 -55 -59 -147l-178 -392h-74l-41 589h53l26 -403l6 -152h3q17 59 60 152l184 403h59z" />
    <glyph glyph-name="wgrave" unicode="&#x1e81;" horiz-adv-x="647" 
d="M471 171l143 291h53l-228 -462h-62l-26 284q-3 33 -4 64.5t-1 45.5l1 15h-3q-15 -48 -51 -127l-129 -282h-63l-43 462h51l25 -292q3 -32 4.5 -65t1.5 -50v-17h3q18 58 53 133l134 291h53l24 -293q4 -34 5 -67t1 -49v-16h3q17 55 55 134zM385 533h-42l-89 136h69z" />
    <glyph glyph-name="Wacute" unicode="&#x1e82;" horiz-adv-x="796" 
d="M479 642h-46l73 121h71zM481 589l40 -405l10 -150h3q18 58 59 151l181 404h56l-268 -589h-74l-36 392q-4 40 -5.5 77t-1.5 53v17h-3q-17 -55 -59 -147l-178 -392h-74l-41 589h53l26 -403l6 -152h3q17 59 60 152l184 403h59z" />
    <glyph glyph-name="wacute" unicode="&#x1e83;" horiz-adv-x="647" 
d="M471 171l143 291h53l-228 -462h-62l-26 284q-3 33 -4 64.5t-1 45.5l1 15h-3q-15 -48 -51 -127l-129 -282h-63l-43 462h51l25 -292q3 -32 4.5 -65t1.5 -50v-17h3q18 58 53 133l134 291h53l24 -293q4 -34 5 -67t1 -49v-16h3q17 55 55 134zM392 533h-44l80 136h71z" />
    <glyph glyph-name="Wdieresis" unicode="&#x1e84;" horiz-adv-x="796" 
d="M343 690q0 16 11 27t27 11t27 -11t11 -27t-11 -27t-27 -11t-27 11t-11 27zM515 689q0 16 11 27t27 11t27 -11t11 -27t-11 -27t-27 -11t-27 11t-11 27zM481 589l40 -405l10 -150h3q18 58 59 151l181 404h56l-268 -589h-74l-36 392q-4 40 -5.5 77t-1.5 53v17h-3
q-17 -55 -59 -147l-178 -392h-74l-41 589h53l26 -403l6 -152h3q17 59 60 152l184 403h59z" />
    <glyph glyph-name="wdieresis" unicode="&#x1e85;" horiz-adv-x="647" 
d="M471 171l143 291h53l-228 -462h-62l-26 284q-3 33 -4 64.5t-1 45.5l1 15h-3q-15 -48 -51 -127l-129 -282h-63l-43 462h51l25 -292q3 -32 4.5 -65t1.5 -50v-17h3q18 58 53 133l134 291h53l24 -293q4 -34 5 -67t1 -49v-16h3q17 55 55 134zM250 595q0 16 11 27t27 11t27 -11
t11 -27t-11 -27t-27 -11t-27 11t-11 27zM422 594q0 16 11 27t27 11t27 -11t11 -27q0 -15 -11 -26t-27 -11t-27 11t-11 26z" />
    <glyph glyph-name="Idotbelow" unicode="&#x1eca;" horiz-adv-x="221" 
d="M147 589h54l-103 -589h-54zM8 -139q0 17 10.5 28t26.5 11t27 -11t11 -28q0 -16 -11 -27t-27 -11t-26.5 11t-10.5 27z" />
    <glyph glyph-name="idotbelow" unicode="&#x1ecb;" horiz-adv-x="218" 
d="M169 462l-65 -373q-3 -14 -3 -25q0 -29 28 -29q13 0 31 7l-8 -39q-18 -8 -40 -8q-62 0 -62 60q0 11 3 29l65 378h51zM128 604q0 17 10.5 28t26.5 11t27 -11.5t11 -27.5t-11 -26.5t-27 -10.5t-26.5 10.5t-10.5 26.5zM10 -139q0 17 10.5 28t26.5 11q17 0 28 -11t11 -28
q0 -16 -11.5 -27t-27.5 -11t-26.5 11t-10.5 27z" />
    <glyph glyph-name="Odotbelow" unicode="&#x1ecc;" horiz-adv-x="610" 
d="M281 36q104 0 170 90.5t66 228.5q0 90 -44 143.5t-128 53.5q-104 0 -170 -90.5t-66 -228.5q0 -91 45.5 -144t126.5 -53zM277 -9q-103 0 -162.5 65t-59.5 174q0 167 85 267.5t210 100.5q102 0 162 -65t60 -175q0 -167 -85 -267t-210 -100zM193 -139q0 16 11 27.5t26 11.5
q16 0 27.5 -11t11.5 -28q0 -16 -11.5 -27t-27.5 -11q-15 0 -26 11t-11 27z" />
    <glyph glyph-name="odotbelow" unicode="&#x1ecd;" horiz-adv-x="480" 
d="M217 32q79 0 125 71.5t46 170.5q0 75 -32.5 114t-93.5 39q-78 0 -124 -70t-46 -168q0 -77 32.5 -117t92.5 -40zM212 -9q-79 0 -124.5 50t-45.5 143q0 119 60.5 203t166.5 84q81 0 125 -51t44 -143q0 -119 -60.5 -202.5t-165.5 -83.5zM126 -139q0 16 11 27.5t27 11.5
t27 -11t11 -28q0 -16 -11 -27t-27 -11t-27 11t-11 27z" />
    <glyph glyph-name="Udotbelow" unicode="&#x1ee4;" horiz-adv-x="574" 
d="M512 589h53l-69 -399q-35 -199 -237 -199q-89 0 -143 45.5t-54 132.5q0 27 6 58l63 362h53l-64 -366q-4 -29 -4 -51q0 -68 40.5 -102.5t107.5 -34.5q151 0 180 164zM179 -139q0 17 10.5 28t26.5 11t27 -11t11 -28q0 -16 -11 -27t-27 -11t-26.5 11t-10.5 27z" />
    <glyph glyph-name="udotbelow" unicode="&#x1ee5;" horiz-adv-x="484" 
d="M435 462l-65 -373q-3 -14 -3 -25q0 -29 28 -29q13 0 31 7l-8 -39q-18 -8 -40 -8q-61 0 -61 58q0 11 7 52q-42 -114 -157 -114q-57 0 -88 30t-31 86q0 21 6 55l52 300h51l-54 -309q-4 -17 -4 -42q0 -37 21 -58.5t60 -21.5q56 0 100.5 44t57.5 118l46 269h51zM122 -139
q0 17 10.5 28t26.5 11q17 0 28 -11t11 -28q0 -16 -11.5 -27t-27.5 -11t-26.5 11t-10.5 27z" />
    <glyph glyph-name="Ygrave" unicode="&#x1ef2;" horiz-adv-x="485" 
d="M137 589l81 -216q11 -29 18.5 -53.5t9.5 -34.5l2 -10h3q15 32 60 98l153 216h58l-252 -353l-41 -236h-53l41 236l-135 353h55zM339 642h-45l-79 121h69z" />
    <glyph glyph-name="ygrave" unicode="&#x1ef3;" horiz-adv-x="417" 
d="M127 -15l-72 477h53l39 -295q6 -38 9 -71t4 -46v-14h3q15 45 61 129l164 297h54l-306 -546q-40 -73 -75 -100.5t-83 -27.5q-41 0 -70 23l14 39q29 -22 58 -22q34 0 58.5 22t55.5 79zM275 533h-43l-89 136h70z" />
    <glyph glyph-name="Ytilde" unicode="&#x1ef8;" horiz-adv-x="485" 
d="M137 589l81 -216q11 -29 18.5 -53.5t9.5 -34.5l2 -10h3q15 32 60 98l153 216h58l-252 -353l-41 -236h-53l41 236l-135 353h55zM206 652l-34 1q-2 16 -2 22q0 34 21.5 55.5t53.5 21.5q30 0 60 -22l36 -27q20 -14 37 -14q36 0 39 58l33 -2q3 -10 3 -22q0 -33 -21.5 -54.5
t-53.5 -21.5q-30 0 -60 22l-37 27q-19 13 -37 13q-35 0 -38 -57z" />
    <glyph glyph-name="ytilde" unicode="&#x1ef9;" horiz-adv-x="417" 
d="M127 -15l-72 477h53l39 -295q6 -38 9 -71t4 -46v-14h3q15 45 61 129l164 297h54l-306 -546q-40 -73 -75 -100.5t-83 -27.5q-41 0 -70 23l14 39q29 -22 58 -22q34 0 58.5 22t55.5 79zM152 543l-33 2q-2 14 -2 22q0 33 21 54.5t53 21.5q29 0 61 -22l36 -27q19 -13 37 -13
q35 0 39 57l33 -1q3 -12 3 -22q0 -33 -21.5 -55t-53.5 -22q-29 0 -61 22l-36 27q-20 14 -37 14q-35 0 -39 -58z" />
    <glyph glyph-name="enspace" unicode="&#x2002;" horiz-adv-x="450" 
 />
    <glyph glyph-name="emspace" unicode="&#x2003;" horiz-adv-x="900" 
 />
    <glyph glyph-name="threeperemspace" unicode="&#x2004;" horiz-adv-x="300" 
 />
    <glyph glyph-name="fourperemspace" unicode="&#x2005;" horiz-adv-x="225" 
 />
    <glyph glyph-name="sixperemspace" unicode="&#x2006;" horiz-adv-x="150" 
 />
    <glyph glyph-name="figurespace" unicode="&#x2007;" horiz-adv-x="513" 
 />
    <glyph glyph-name="punctuationspace" unicode="&#x2008;" horiz-adv-x="171" 
 />
    <glyph glyph-name="thinspace" unicode="&#x2009;" horiz-adv-x="90" 
 />
    <glyph glyph-name="hairspace" unicode="&#x200a;" horiz-adv-x="45" 
 />
    <glyph glyph-name="zerowidthspace" unicode="&#x200b;" horiz-adv-x="0" 
 />
    <glyph glyph-name="figuredash" unicode="&#x2012;" horiz-adv-x="592" 
d="M72 240l8 39h437l-7 -39h-438z" />
    <glyph glyph-name="endash" unicode="&#x2013;" horiz-adv-x="514" 
d="M72 240l8 39h360l-8 -39h-360z" />
    <glyph glyph-name="emdash" unicode="&#x2014;" horiz-adv-x="1014" 
d="M72 240l8 39h860l-8 -39h-860z" />
    <glyph glyph-name="uni2015" unicode="&#x2015;" horiz-adv-x="1259" 
d="M72 240l8 39h1104l-7 -39h-1105z" />
    <glyph glyph-name="doublebar" unicode="&#x2016;" horiz-adv-x="350" 
d="M64 -203h-46l153 872h46zM182 -203h-46l153 872h46z" />
    <glyph glyph-name="quoteleft" unicode="&#x2018;" horiz-adv-x="213" 
d="M119 564q0 50 37 78t94 31v-29q-90 -9 -90 -61q0 -7 1 -11q6 6 16 6q16 0 25.5 -10.5t9.5 -26.5q0 -18 -11.5 -28.5t-29.5 -10.5q-23 0 -37.5 16.5t-14.5 45.5z" />
    <glyph glyph-name="quoteright" unicode="&#x2019;" horiz-adv-x="213" 
d="M218 611q0 -51 -37 -79t-93 -30v28q37 4 63.5 19t26.5 43q0 6 -2 10q-5 -5 -15 -5q-16 0 -25.5 10t-9.5 26q0 18 11 29t30 11q23 0 37 -16.5t14 -45.5z" />
    <glyph glyph-name="quotesinglbase" unicode="&#x201a;" horiz-adv-x="213" 
d="M128 18q0 -51 -37 -79t-93 -30v28q36 4 63 19t27 42q0 7 -2 11q-4 -6 -15 -6q-16 0 -25.5 10.5t-9.5 26.5q0 18 11 29t30 11q23 0 37 -16.5t14 -45.5z" />
    <glyph glyph-name="reversequoteleft" unicode="&#x201b;" horiz-adv-x="188" 
d="M111 608q0 30 14.5 47t36.5 17q19 0 30.5 -10.5t11.5 -29.5q0 -16 -10 -26t-26 -10q-10 0 -15 5q-2 -3 -2 -11q0 -53 81 -61v-28q-55 2 -88 29.5t-33 77.5z" />
    <glyph glyph-name="quotedblleft" unicode="&#x201c;" horiz-adv-x="354" 
d="M119 564q0 50 37 78t94 31v-29q-90 -9 -90 -61q0 -7 1 -11q6 6 16 6q16 0 25.5 -10.5t9.5 -26.5q0 -18 -11.5 -28.5t-29.5 -10.5q-23 0 -37.5 16.5t-14.5 45.5zM261 564q0 51 37 78.5t94 30.5v-29q-91 -9 -91 -61q0 -7 2 -11q5 6 15 6q16 0 26 -10.5t10 -26.5
q0 -18 -11.5 -28.5t-30.5 -10.5q-22 0 -36.5 16.5t-14.5 45.5z" />
    <glyph glyph-name="quotedblright" unicode="&#x201d;" horiz-adv-x="354" 
d="M223 604q0 -51 -37 -79t-94 -30v28q37 4 64 19t27 43q0 2 -2 10q-5 -5 -16 -5q-16 0 -25.5 10t-9.5 26q0 18 11.5 29t30.5 11q22 0 36.5 -16.5t14.5 -45.5zM364 604q0 -51 -37 -79t-94 -30v28q37 4 64 19t27 43q0 6 -2 10q-4 -5 -15 -5q-16 0 -25.5 10t-9.5 26
q0 18 11 29t30 11q22 0 36.5 -16.5t14.5 -45.5z" />
    <glyph glyph-name="quotedblbase" unicode="&#x201e;" horiz-adv-x="354" 
d="M128 18q0 -51 -37 -79t-93 -30v28q37 4 63.5 19t26.5 43q0 7 -2 10q-5 -5 -15 -5q-16 0 -25.5 10t-9.5 26q0 18 11 29t30 11q23 0 37 -16.5t14 -45.5zM270 18q0 -51 -37 -79t-93 -30v28q37 4 63.5 19t26.5 43q0 7 -2 10q-5 -5 -15 -5q-16 0 -25.5 10t-9.5 26q0 18 11 29
t30 11q23 0 37 -16.5t14 -45.5z" />
    <glyph glyph-name="reversequotedblleft" unicode="&#x201f;" horiz-adv-x="330" 
d="M113 609q0 30 15 47.5t37 17.5q18 0 29.5 -11t11.5 -29q0 -16 -9.5 -26.5t-25.5 -10.5q-10 0 -16 6q-1 -4 -1 -12q0 -54 81 -60v-29q-55 3 -88.5 30t-33.5 77zM253 609q0 30 14.5 47.5t36.5 17.5q19 0 30.5 -11t11.5 -29q0 -16 -10 -26.5t-26 -10.5q-10 0 -15 6
q-2 -4 -2 -12q0 -54 81 -60v-29q-55 3 -88 30t-33 77z" />
    <glyph glyph-name="dagger" unicode="&#x2020;" horiz-adv-x="534" 
d="M284 327l-202 -9l10 55l199 -8l31 224h57l-47 -224l202 8l-10 -55l-198 9l-77 -476h-57z" />
    <glyph glyph-name="daggerdbl" unicode="&#x2021;" horiz-adv-x="533" 
d="M326 332l-41 -225l203 8l-9 -53l-199 9l-31 -221h-57l47 221l-202 -9l9 53l199 -8l40 225l-202 -8l9 53l200 -8l30 220h57l-47 -220l202 8l-9 -53z" />
    <glyph glyph-name="bullet" unicode="&#x2022;" horiz-adv-x="293" 
d="M85 251q0 26 18 44.5t43 18.5q26 0 44.5 -18.5t18.5 -44.5q0 -25 -18.5 -43t-44.5 -18q-25 0 -43 18t-18 43z" />
    <glyph glyph-name="ellipsis" unicode="&#x2026;" horiz-adv-x="739" 
d="M47 39q0 18 12 30t31 12q18 0 30 -12t12 -30t-12 -30t-30 -12q-19 0 -31 12t-12 30zM294 39q0 18 12 30t30 12t30 -12t12 -30t-12 -30t-30 -12t-30 12t-12 30zM540 39q0 18 12 30t30 12t30 -12t12 -30t-12 -30t-30 -12t-30 12t-12 30z" />
    <glyph glyph-name="perthousand" unicode="&#x2030;" horiz-adv-x="1161" 
d="M164 266q55 0 84.5 59.5t29.5 122.5q0 49 -19.5 79t-58.5 30q-55 0 -84.5 -59t-29.5 -122q1 -50 20 -80t58 -30zM204 596q56 0 86.5 -40.5t30.5 -107.5q0 -84 -42 -151t-119 -67q-58 0 -87.5 39.5t-29.5 105.5q0 85 42.5 153t118.5 68zM183 0l410 590h42l-409 -590h-43z
M619 30q38 0 65 32.5t37.5 72t10.5 77.5q0 49 -19 79t-58 30t-66 -32.5t-37.5 -71.5t-10.5 -77q0 -49 19.5 -79.5t58.5 -30.5zM658 360q57 0 87 -40.5t30 -107.5q0 -84 -42 -151t-119 -67q-57 0 -87 39.5t-30 105.5q0 84 42.5 152.5t118.5 68.5zM963 30q55 0 84.5 59.5
t29.5 122.5q0 49 -19.5 79t-58.5 30q-55 0 -84 -59t-29 -122q0 -49 19.5 -79.5t57.5 -30.5zM1003 360q56 0 86.5 -40.5t30.5 -107.5q0 -84 -42 -151t-119 -67q-57 0 -87 39.5t-30 105.5q0 85 42.5 153t118.5 68z" />
    <glyph glyph-name="tripleprime" unicode="&#x2034;" horiz-adv-x="393" 
d="M87 412l45 256h59l-71 -256h-33zM200 412l45 256h58l-70 -256h-33zM312 412l45 256h59l-71 -256h-33z" />
    <glyph glyph-name="guilsinglleft" unicode="&#x2039;" horiz-adv-x="311" 
d="M91 233v-4q7 -3 38 -48l88 -127l-35 -27l-139 206l211 206l27 -29l-129 -127q-18 -17 -33 -29.5t-21 -16.5z" />
    <glyph glyph-name="guilsinglright" unicode="&#x203a;" horiz-adv-x="311" 
d="M223 233v4q-7 3 -37 48l-89 127l35 27l139 -206l-211 -206l-27 29l129 127q18 17 33 29.5t21 16.5z" />
    <glyph glyph-name="fraction" unicode="&#x2044;" horiz-adv-x="129" 
d="M-153 0l410 590h42l-409 -590h-43z" />
    <glyph glyph-name="uni2070" unicode="&#x2070;" horiz-adv-x="350" 
d="M186 266q55 0 84.5 59.5t29.5 122.5q0 49 -19.5 79t-58.5 30q-55 0 -84 -59t-29 -122q0 -49 19.5 -79.5t57.5 -30.5zM226 596q56 0 86.5 -40.5t30.5 -107.5q0 -84 -42 -151t-119 -67q-57 0 -87 39.5t-30 105.5q0 85 42.5 153t118.5 68z" />
    <glyph glyph-name="uni2074" unicode="&#x2074;" horiz-adv-x="332" 
d="M206 236l16 94h-184l6 35l221 224h46l-39 -225h60l-7 -34h-59l-17 -94h-43zM132 364h98l22 127q2 16 5.5 30.5t6.5 20.5l2 7h-4q-14 -22 -44 -54l-85 -87q-13 -13 -25.5 -24t-18.5 -16l-6 -4l-1 -3q16 3 50 3z" />
    <glyph glyph-name="uni2075" unicode="&#x2075;" horiz-adv-x="304" 
d="M84 398l41 191h190l-6 -37h-155l-27 -121q22 29 68 29q45 0 71 -28t26 -75q0 -60 -37 -93.5t-95 -33.5q-53 0 -83.5 23t-34.5 65l40 12q6 -67 78 -67q41 0 65 24t24 68q0 33 -18 53t-46 20q-39 0 -66 -30h-35z" />
    <glyph glyph-name="uni2076" unicode="&#x2076;" horiz-adv-x="327" 
d="M337 522l-38 -14q-9 51 -64 51q-49 0 -84.5 -48t-45.5 -127h3q21 79 105 79q47 0 74 -28.5t27 -70.5q0 -58 -37 -96t-99 -38q-53 0 -82.5 33t-29.5 95q0 94 49 166t125 72q84 0 97 -74zM182 263q37 0 63.5 26t26.5 72q0 29 -19 48t-52 19q-38 0 -63 -26.5t-25 -68.5
q0 -31 18.5 -50.5t50.5 -19.5z" />
    <glyph glyph-name="uni2077" unicode="&#x2077;" horiz-adv-x="280" 
d="M258 551h-161l-10 -55h-39l16 93h253l-4 -23l-197 -330h-48z" />
    <glyph glyph-name="uni2078" unicode="&#x2078;" horiz-adv-x="316" 
d="M213 596q49 0 78.5 -23.5t29.5 -62.5q0 -40 -23.5 -64t-59.5 -30v-3q64 -21 64 -81q0 -47 -38 -74.5t-96 -27.5q-55 0 -86 24.5t-31 66.5q0 39 26 65t65 32v3q-54 21 -54 73q0 47 36.5 74.5t88.5 27.5zM172 261q37 0 61.5 19.5t24.5 54.5q0 30 -20.5 47t-55.5 17
q-36 0 -61 -19.5t-25 -53.5q0 -30 20.5 -47.5t55.5 -17.5zM130 491q0 -26 19 -42.5t48 -16.5q34 0 57.5 18.5t23.5 52.5q0 26 -18.5 42.5t-50.5 16.5q-35 0 -57 -18.5t-22 -52.5z" />
    <glyph glyph-name="uni2079" unicode="&#x2079;" horiz-adv-x="328" 
d="M47 303l37 13q9 -50 69 -50q50 0 84.5 45.5t44.5 131.5h-3q-20 -80 -101 -80q-51 0 -78 28.5t-27 71.5q0 57 36.5 95t97.5 38q53 0 84 -34.5t31 -97.5q0 -95 -46 -164.5t-127 -69.5q-91 0 -102 73zM203 561q-38 0 -63.5 -25t-25.5 -70q0 -30 18.5 -49t51.5 -19
q38 0 63.5 26.5t25.5 67.5q0 30 -18.5 49.5t-51.5 19.5z" />
    <glyph glyph-name="uni207A" unicode="&#x207a;" horiz-adv-x="438" 
d="M254 590h31l-28 -155h163l-5 -31h-163l-30 -168h-31l30 168h-161l6 31h161z" />
    <glyph glyph-name="uni207B" unicode="&#x207b;" horiz-adv-x="439" 
d="M60 404l6 31h355l-6 -31h-355z" />
    <glyph glyph-name="uni207C" unicode="&#x207c;" horiz-adv-x="451" 
d="M56 350l6 31h355l-6 -31h-355zM76 464l6 30h355l-5 -30h-356z" />
    <glyph glyph-name="uni207D" unicode="&#x207d;" horiz-adv-x="224" 
d="M69 349q0 166 133 287h40q-68 -64 -103.5 -132.5t-35.5 -154.5q0 -79 59 -167h-38q-55 82 -55 167z" />
    <glyph glyph-name="uni207E" unicode="&#x207e;" horiz-adv-x="224" 
d="M201 469q0 -166 -134 -287h-40q68 64 103.5 132.5t35.5 154.5q0 80 -58 167h37q56 -81 56 -167z" />
    <glyph glyph-name="n.superior" unicode="&#x207f;" horiz-adv-x="356" 
d="M274 355l25 137q2 10 2 25q0 46 -51 46q-40 0 -70.5 -27.5t-40.5 -81.5l-31 -166h-45l57 306h39l-7 -66q32 72 109 72q40 0 62.5 -19t22.5 -55q0 -22 -3 -36l-25 -133q-3 -15 -3 -22q0 -16 16 -16q12 0 26 5l-7 -33q-14 -6 -32 -6q-48 0 -48 43q0 11 4 27z" />
    <glyph glyph-name="uni2080" unicode="&#x2080;" horiz-adv-x="350" 
d="M148 30q55 0 84.5 59.5t29.5 122.5q0 49 -19.5 79t-58.5 30t-66 -32.5t-37.5 -71.5t-10.5 -77q1 -50 20 -80t58 -30zM188 360q56 0 86.5 -40.5t30.5 -107.5q0 -84 -42 -151t-119 -67q-58 0 -88 39.5t-30 105.5q0 53 17 102t55 84t90 35z" />
    <glyph glyph-name="uni2081" unicode="&#x2081;" horiz-adv-x="294" 
d="M243 0h-247l6 35h107l48 274l-116 -20l6 38l163 28l-56 -320h95z" />
    <glyph glyph-name="uni2082" unicode="&#x2082;" horiz-adv-x="300" 
d="M64 242l-34 18q7 44 40 72t85 28q50 0 80 -27.5t30 -75.5q0 -37 -21.5 -72.5t-57 -63.5t-67.5 -47t-67 -35v-3h190l-7 -36h-247l7 34q48 27 83.5 50t70 51.5t53 58t18.5 57.5q0 34 -18.5 52.5t-51.5 18.5q-37 0 -59 -22.5t-27 -57.5z" />
    <glyph glyph-name="uni2083" unicode="&#x2083;" horiz-adv-x="290" 
d="M108 -6q-54 0 -83 25.5t-31 66.5l39 9q7 -68 75 -68q37 0 61 18.5t24 52.5q0 67 -107 67l6 33q120 2 120 73q0 23 -16 38t-45 15q-60 0 -73 -62l-36 14q21 84 112 84q46 0 74.5 -22t28.5 -63q0 -39 -28 -63t-75 -28v-3q39 -4 61 -26t22 -57q0 -49 -37.5 -76.5
t-91.5 -27.5z" />
    <glyph glyph-name="uni2084" unicode="&#x2084;" horiz-adv-x="332" 
d="M168 0l16 94h-184l6 35l221 224h46l-39 -225h60l-7 -34h-59l-17 -94h-43zM94 128h98l22 127q2 16 5.5 30.5t6.5 20.5l2 7h-4q-14 -22 -44 -54l-85 -87q-13 -13 -25.5 -24t-18.5 -16l-6 -4l-1 -3q16 3 50 3z" />
    <glyph glyph-name="uni2085" unicode="&#x2085;" horiz-adv-x="304" 
d="M45 162l42 191h190l-7 -37h-154l-28 -121q22 29 69 29q45 0 71 -28t26 -75q0 -60 -37 -93.5t-96 -33.5q-53 0 -83 23t-35 65l41 12q6 -67 78 -67q41 0 64.5 24t23.5 68q0 33 -18 53t-46 20q-40 0 -65 -30h-36z" />
    <glyph glyph-name="uni2086" unicode="&#x2086;" horiz-adv-x="327" 
d="M298 286l-37 -14q-9 51 -65 51q-49 0 -84 -47t-48 -131h3q11 38 38.5 60t68.5 22q48 0 75 -28.5t27 -70.5q0 -58 -37 -96t-99 -38q-53 0 -83 33t-30 94q0 95 49 167t126 72q85 0 96 -74zM144 27q38 0 65 26t27 72q0 29 -19 48t-53 19q-39 0 -65 -26.5t-26 -68.5
q0 -31 18.5 -50.5t52.5 -19.5z" />
    <glyph glyph-name="uni2087" unicode="&#x2087;" horiz-adv-x="280" 
d="M220 315h-162l-10 -55h-39l16 93h254l-4 -23l-197 -330h-49z" />
    <glyph glyph-name="uni2088" unicode="&#x2088;" horiz-adv-x="316" 
d="M175 360q49 0 78 -23.5t29 -62.5q0 -40 -23 -64t-59 -30v-3q63 -20 63 -81q0 -47 -38 -74.5t-95 -27.5q-55 0 -86.5 24.5t-31.5 66.5q0 39 26 65t65 32v3q-54 21 -54 73q0 47 37 74.5t89 27.5zM133 25q38 0 62 19.5t24 54.5q0 30 -20.5 47t-55.5 17t-60 -19.5t-25 -53.5
q0 -31 20 -48t55 -17zM92 255q0 -26 18.5 -42.5t47.5 -16.5q35 0 58 18.5t23 52.5q0 26 -18.5 42.5t-50.5 16.5q-34 0 -56 -18.5t-22 -52.5z" />
    <glyph glyph-name="uni2089" unicode="&#x2089;" horiz-adv-x="328" 
d="M8 67l37 13q9 -52 70 -52q50 0 85 46.5t45 133.5h-3q-20 -81 -103 -81q-50 0 -77.5 28.5t-27.5 71.5q0 57 36.5 95t97.5 38q53 0 84 -34.5t31 -97.5q0 -95 -46 -164.5t-126 -69.5q-91 0 -103 73zM165 327q-38 0 -64.5 -26t-26.5 -72q0 -30 19 -48.5t53 -18.5
q39 0 65 26.5t26 67.5q0 32 -19 51.5t-53 19.5z" />
    <glyph glyph-name="uni208A" unicode="&#x208a;" horiz-adv-x="438" 
d="M216 354h30l-27 -155h163l-6 -31h-163l-30 -168h-30l30 168h-161l5 31h161z" />
    <glyph glyph-name="uni208B" unicode="&#x208b;" horiz-adv-x="439" 
d="M22 168l5 31h355l-5 -31h-355z" />
    <glyph glyph-name="uni208C" unicode="&#x208c;" horiz-adv-x="451" 
d="M17 114l6 31h355l-5 -31h-356zM38 228l5 30h355l-5 -30h-355z" />
    <glyph glyph-name="uni208D" unicode="&#x208d;" horiz-adv-x="224" 
d="M30 113q0 166 134 287h40q-68 -64 -103.5 -132.5t-35.5 -154.5q0 -80 58 -167h-37q-56 81 -56 167z" />
    <glyph glyph-name="uni208E" unicode="&#x208e;" horiz-adv-x="224" 
d="M162 233q0 -166 -133 -287h-40q68 64 103.5 132.5t35.5 154.5q0 78 -59 167h38q55 -83 55 -167z" />
    <glyph glyph-name="uni20A1" unicode="&#x20a1;" horiz-adv-x="484" 
d="M138 -79l-34 11l29 87q-82 51 -82 171q0 130 66 213t175 87l29 87l33 -11l-26 -77q39 -5 62 -17l27 79l33 -11l-30 -89q32 -30 42 -78l-48 -22q-5 23 -14 40l-119 -355q74 14 113 91l38 -27q-52 -98 -166 -107l-32 -97l-34 10l28 85q-34 1 -63 12zM103 196q0 -85 47 -129
l127 379q-77 -9 -125.5 -78t-48.5 -172zM180 46q29 -13 62 -13l132 390q-22 18 -60 23z" />
    <glyph glyph-name="uni20A2" unicode="&#x20a2;" horiz-adv-x="488" 
d="M237 -9q-84 0 -135 54t-51 145q0 134 69.5 217t183.5 83q132 0 158 -117l-48 -22q-18 96 -117 96q-84 0 -139 -70.5t-55 -180.5q0 -65 28.5 -107t79.5 -52l38 217h41l-10 -83q16 42 46 66t65 24q18 0 31 -7l-12 -45q-16 8 -30 8q-40 0 -71 -30.5t-42 -90.5l-11 -63
q92 6 137 96l38 -27q-59 -111 -194 -111z" />
    <glyph glyph-name="franc" unicode="&#x20a3;" horiz-adv-x="433" 
d="M353 266h-183l-11 -64h182l-6 -36h-182l-29 -166h-52l29 166h-81l6 36h81l11 64h-80l6 36h81l31 179h291l-7 -44h-239l-24 -135h182z" />
    <glyph glyph-name="lira" unicode="&#x20a4;" horiz-adv-x="491" 
d="M346 156h-146q-2 -42 -23.5 -72.5t-51.5 -39.5h190q74 0 97 55l38 -20q-33 -79 -136 -79h-296l7 46h39q33 0 61.5 30.5t28.5 72.5v7h-110l6 37h99q-1 3 -7 26t-9 37h-71l6 37h59q-1 10 -1 32q0 83 50.5 124t121.5 41t109.5 -34t38.5 -100l-49 -8q-2 100 -103 100
q-54 0 -86 -30.5t-32 -91.5q0 -13 2 -33h192l-7 -37h-179q1 -5 7 -27.5t8 -35.5h153z" />
    <glyph glyph-name="uni20A6" unicode="&#x20a6;" horiz-adv-x="636" 
d="M588 171h-90l-30 -171h-56l-164 313q-12 24 -24 50.5t-18 40.5l-5 15h-4q-6 -63 -16 -124l-52 -295h-51l29 171h-84l6 37h85l10 58h-85l7 36h84l32 179h57l166 -320q12 -24 22 -48t15 -35l4 -12h3q9 58 20 120l51 295h52l-32 -179h91l-7 -36h-90l-10 -58h90z" />
    <glyph glyph-name="peseta" unicode="&#x20a7;" horiz-adv-x="1036" 
d="M531 0h-52l58 336h-111q-5 -86 -59.5 -126.5t-145.5 -40.5h-96l-30 -169h-52l84 481h140q141 0 157 -100h283q8 52 50.5 80.5t104.5 28.5q152 0 152 -127l-46 -8q0 96 -107 96q-50 0 -80 -24t-30 -65q0 -36 21 -55.5t79 -41.5q66 -25 93.5 -56t27.5 -81q0 -68 -45 -102.5
t-123 -34.5q-75 0 -118.5 36t-43.5 100l45 10q0 -54 34 -81.5t86 -27.5q117 0 117 95q0 37 -24 61t-81 44q-55 20 -82 44t-33 64h-115zM172 438l-40 -226h93q149 0 149 137q0 89 -110 89h-92z" />
    <glyph glyph-name="uni20A8" unicode="&#x20a8;" horiz-adv-x="762" 
d="M167 438l-33 -191h107q135 0 135 112q0 79 -96 79h-113zM556 -9q-94 0 -162 82l-49 55q-2 2 -6 7q-21 25 -33 36.5t-34.5 22.5t-50.5 11h-95l-35 -205h-52l84 481h165q142 0 142 -118q0 -65 -41 -100.5t-101 -38.5v-3q10 -1 18.5 -3t17.5 -7t13.5 -8t13.5 -12l12 -12
t14 -16.5t14 -16.5l52 -59q52 -60 115 -60q38 0 62 15.5t24 47.5q0 26 -17.5 43.5t-56.5 32.5q-47 19 -67.5 41.5t-20.5 60.5q0 49 35.5 77t88.5 28q117 0 117 -96l-48 -6q0 63 -73 63q-34 0 -54.5 -16.5t-20.5 -44.5q0 -26 15 -40t60 -32q47 -19 68.5 -43t21.5 -63
q0 -52 -37 -78t-99 -26z" />
    <glyph glyph-name="uni20A9" unicode="&#x20a9;" horiz-adv-x="767" 
d="M717 182h-116l-82 -182h-63l-36 306q-4 33 -5.5 65t-1.5 47v15h-2q-13 -51 -48 -126l-143 -307h-65l-16 182h-113l5 37h106l-6 58h-90l7 36h80l-15 168h51l27 -321q3 -32 3.5 -63.5t-0.5 -46.5v-16h3q15 47 50 123l148 324h54l36 -324q3 -33 5 -64.5t2 -44.5l1 -14h2
q11 48 45 124l145 323h52l-77 -168h80l-7 -36h-89l-26 -58h105z" />
    <glyph glyph-name="uni20AA" unicode="&#x20aa;" horiz-adv-x="635" 
d="M396 119h-52l38 223q4 24 4 34q0 62 -82 62h-137l-76 -438h-52l84 481h197q65 0 91.5 -23.5t26.5 -70.5q0 -21 -5 -54zM551 481h52l-58 -333q-13 -75 -48.5 -111.5t-116.5 -36.5h-199l62 355h52l-55 -312h139q54 0 79.5 24.5t33.5 71.5z" />
    <glyph glyph-name="Euro" unicode="&#x20ac;" horiz-adv-x="530" 
d="M359 284h-199q-10 -40 -10 -78h179l-15 -36h-162q5 -63 41.5 -100t96.5 -37q101 0 150 96l38 -27q-59 -111 -194 -111q-80 0 -130 47.5t-56 131.5h-82l6 36h76q0 36 10 78h-72l6 36h76q28 79 89 124.5t144 45.5q132 0 158 -117l-49 -22q-8 47 -38.5 71.5t-78.5 24.5
q-57 0 -102 -33.5t-68 -93.5h201z" />
    <glyph glyph-name="uni20AE" unicode="&#x20ae;" horiz-adv-x="444" 
d="M199 0h-52l30 167l-123 -20l6 36l122 20l11 60l-122 -20l6 36l122 20l25 138h-172l8 44h395l-7 -44h-172l-23 -130l130 22l-7 -36l-129 -21l-11 -60l130 21l-7 -36l-129 -21z" />
    <glyph glyph-name="uni20B1" unicode="&#x20b1;" horiz-adv-x="553" 
d="M44 305l6 37h84l24 139h140q160 0 160 -127v-12h83l-7 -37h-81q-27 -136 -201 -136h-96l-30 -169h-52l53 305h-83zM203 438l-17 -96h219v7q0 89 -110 89h-92zM256 212q123 0 144 93h-221l-16 -93h93z" />
    <glyph glyph-name="afii61289" unicode="&#x2113;" horiz-adv-x="317" 
d="M84 187l-46 -36l-21 33l67 50v255q0 180 115 180q94 0 94 -134q0 -184 -162 -320v-101q0 -43 18 -62t54 -19q37 0 70 18v-44q-32 -16 -76 -16q-113 0 -113 115v81zM131 498v-232q124 110 124 274q0 91 -56 91q-33 0 -50.5 -35t-17.5 -98z" />
    <glyph glyph-name="afii61352" unicode="&#x2116;" horiz-adv-x="1037" 
d="M670 0l8 42h283l-8 -42h-283zM131 115l82 474h57l198 -406q13 -28 25 -56t17 -42l5 -14h3q7 57 18 123l49 283q12 69 39 95t73 26q43 0 68 -22l-14 -47q-25 22 -51 22t-40 -17t-22 -63l-82 -471h-56l-200 405q-12 26 -24 54t-18 43l-5 15h-4q-4 -56 -16 -122l-49 -283
q-12 -69 -39 -95t-72 -26q-44 0 -69 22l14 44q24 -21 51 -21q26 0 40 16.5t22 62.5zM839 182q49 0 78.5 43.5t29.5 103.5q0 92 -78 92q-50 0 -79.5 -42.5t-29.5 -102.5q0 -94 79 -94zM835 143q-56 0 -88.5 33.5t-32.5 95.5q0 79 42.5 134.5t117.5 55.5q56 0 87.5 -34.5
t31.5 -95.5q0 -78 -42.5 -133.5t-115.5 -55.5z" />
    <glyph glyph-name="published" unicode="&#x2117;" horiz-adv-x="703" 
d="M322 446l-29 -167h77q110 0 110 99q0 68 -80 68h-78zM367 243h-80l-22 -127h-45l64 367h121q121 0 121 -101q0 -72 -43 -105.5t-116 -33.5zM667 294q0 -131 -88.5 -217t-215.5 -86q-128 0 -216 86t-88 217t88 217.5t216 86.5q127 0 215.5 -86.5t88.5 -217.5zM642 294
q0 121 -81 200.5t-198 79.5q-116 0 -197 -79.5t-81 -200.5t81 -200t197 -79q117 0 198 79t81 200z" />
    <glyph glyph-name="servicemark" unicode="&#x2120;" horiz-adv-x="604" 
d="M63 410l34 6q0 -51 58 -51q55 0 55 41q0 18 -12 29t-41 22q-34 12 -48.5 27t-14.5 42q0 34 25 52.5t63 18.5q83 0 83 -71l-37 -4q0 46 -50 46q-21 0 -34.5 -10.5t-13.5 -29.5q0 -15 10.5 -24.5t38.5 -19.5q69 -24 69 -73q0 -36 -26 -54.5t-69 -18.5q-90 0 -90 72z
M443 435h3l101 154h49l-46 -248h-36l35 190h-4l-92 -140h-31l-43 142h-4l-35 -192h-36l45 248h47z" />
    <glyph glyph-name="trademark" unicode="&#x2122;" horiz-adv-x="593" 
d="M157 341h-37l40 216h-81l5 32h199l-5 -32h-82zM432 435h3l102 154h48l-45 -248h-37l35 190h-4l-92 -140h-31l-43 142h-4l-34 -192h-37l45 248h48z" />
    <glyph glyph-name="estimated" unicode="&#x212e;" horiz-adv-x="647" 
d="M323 600q71 0 126 -25.5t87.5 -69.5t49 -97.5t16.5 -113.5v-26h-431v-168q60 -58 152 -58q129 0 184 103h66q-30 -72 -93 -114t-157 -42q-70 0 -125 25.5t-87.5 69.5t-49 97t-16.5 113q0 81 28 148.5t92.5 112.5t157.5 45zM323 547q-94 0 -152 -58v-169h304v169
q-58 58 -152 58z" />
    <glyph glyph-name="uni2153" unicode="&#x2153;" horiz-adv-x="795" 
d="M291 236h-241l6 35h101l48 274l-116 -20l7 38l162 28l-56 -320h96zM194 0l410 590h43l-410 -590h-43zM595 -6q-55 0 -84 25.5t-31 66.5l40 9q6 -68 75 -68q37 0 60.5 18t23.5 53q0 67 -106 67l6 33q120 2 120 73q0 23 -16 38t-46 15q-58 0 -73 -62l-36 14q23 84 113 84
q46 0 74 -22t28 -63q0 -39 -28 -63t-75 -28v-3q39 -4 61 -26t22 -57q0 -49 -37 -76.5t-91 -27.5z" />
    <glyph glyph-name="uni2154" unicode="&#x2154;" horiz-adv-x="771" 
d="M94 478l-34 18q7 44 40 72t85 28q50 0 80 -27.5t30 -75.5q0 -37 -21.5 -72.5t-57 -63.5t-67.5 -47t-67 -35v-3h190l-7 -36h-247l7 34q48 27 83.5 50t70 51.5t53 58t18.5 57.5q0 34 -18.5 52.5t-51.5 18.5q-37 0 -59 -22.5t-27 -57.5zM170 0l410 590h42l-409 -590h-43z
M570 -6q-55 0 -84 25.5t-31 66.5l40 9q6 -68 75 -68q37 0 60.5 18t23.5 53q0 67 -106 67l6 33q120 2 120 73q0 23 -16 38t-46 15q-59 0 -72 -62l-36 14q21 84 112 84q46 0 74.5 -22t28.5 -63q0 -39 -28.5 -63t-75.5 -28v-3q39 -4 61.5 -26t22.5 -57q0 -49 -37.5 -76.5
t-91.5 -27.5z" />
    <glyph glyph-name="uni215B" unicode="&#x215b;" horiz-adv-x="805" 
d="M291 236h-241l6 35h101l48 274l-116 -20l7 38l162 28l-56 -320h96zM194 0l410 590h43l-410 -590h-43zM661 360q49 0 78.5 -23.5t29.5 -62.5q0 -40 -23.5 -64t-59.5 -30v-3q64 -21 64 -81q0 -47 -38 -74.5t-96 -27.5q-55 0 -86 24.5t-31 66.5q0 39 26 65t65 32v3
q-54 21 -54 73q0 47 36.5 74.5t88.5 27.5zM620 25q37 0 61.5 19.5t24.5 54.5q0 30 -20.5 47t-55.5 17q-36 0 -61 -19.5t-25 -53.5q0 -30 20.5 -47.5t55.5 -17.5zM578 255q0 -26 19 -42.5t48 -16.5q34 0 57.5 18.5t23.5 52.5q0 26 -18.5 42.5t-50.5 16.5q-35 0 -57 -18.5
t-22 -52.5z" />
    <glyph glyph-name="uni215C" unicode="&#x215c;" horiz-adv-x="777" 
d="M146 230q-55 0 -84 25.5t-31 66.5l40 9q6 -68 75 -68q37 0 60.5 18t23.5 53q0 67 -106 67l6 33q120 2 120 73q0 23 -16 38t-46 15q-59 0 -72 -62l-36 14q21 84 112 84q46 0 74.5 -22t28.5 -63q0 -39 -28.5 -63t-75.5 -28v-3q39 -4 61.5 -26t22.5 -57q0 -49 -37.5 -76.5
t-91.5 -27.5zM166 0l410 590h42l-409 -590h-43zM632 360q50 0 79 -23.5t29 -62.5q0 -40 -23 -64t-59 -30v-3q63 -20 63 -81q0 -47 -38 -74.5t-96 -27.5q-54 0 -85.5 24.5t-31.5 66.5q0 39 26 65t65 32v3q-54 21 -54 73q0 47 36.5 74.5t88.5 27.5zM591 25q37 0 61.5 19.5
t24.5 54.5q0 30 -20.5 47t-55.5 17q-36 0 -61 -19.5t-25 -53.5q0 -30 20.5 -47.5t55.5 -17.5zM550 255q0 -26 18.5 -42.5t47.5 -16.5q34 0 57.5 18.5t23.5 52.5q0 26 -18.5 42.5t-50.5 16.5q-34 0 -56 -18.5t-22 -52.5z" />
    <glyph glyph-name="uni215D" unicode="&#x215d;" horiz-adv-x="780" 
d="M73 398l42 191h190l-7 -37h-154l-28 -121q22 29 69 29q45 0 70.5 -28t25.5 -75q0 -60 -37 -93.5t-95 -33.5q-53 0 -83 23t-35 65l41 12q6 -67 78 -67q41 0 64.5 24t23.5 68q0 33 -18 53t-46 20q-40 0 -65 -30h-36zM169 0l410 590h42l-409 -590h-43zM636 360
q49 0 78 -23.5t29 -62.5q0 -40 -23 -64t-59 -30v-3q63 -20 63 -81q0 -47 -38 -74.5t-96 -27.5q-54 0 -85.5 24.5t-31.5 66.5q0 39 26 65t65 32v3q-54 21 -54 73q0 47 37 74.5t89 27.5zM594 25q38 0 62 19.5t24 54.5q0 30 -20.5 47t-55.5 17q-36 0 -60.5 -19.5t-24.5 -53.5
q0 -31 20 -48t55 -17zM553 255q0 -26 18.5 -42.5t47.5 -16.5q34 0 57.5 18.5t23.5 52.5q0 26 -18.5 42.5t-50.5 16.5q-34 0 -56 -18.5t-22 -52.5z" />
    <glyph glyph-name="uni215E" unicode="&#x215e;" horiz-adv-x="735" 
d="M256 551h-161l-10 -55h-40l17 93h253l-4 -23l-197 -330h-48zM96 0l410 590h42l-409 -590h-43zM562 360q50 0 79 -23.5t29 -62.5q0 -40 -23 -64t-59 -30v-3q63 -20 63 -81q0 -47 -38 -74.5t-96 -27.5q-54 0 -85.5 24.5t-31.5 66.5q0 39 26 65t65 32v3q-54 21 -54 73
q0 47 36.5 74.5t88.5 27.5zM521 25q37 0 61.5 19.5t24.5 54.5q0 30 -20.5 47t-55.5 17q-36 0 -61 -19.5t-25 -53.5q0 -30 20.5 -47.5t55.5 -17.5zM480 255q0 -26 18.5 -42.5t47.5 -16.5q34 0 57.5 18.5t23.5 52.5q0 26 -18.5 42.5t-50.5 16.5q-34 0 -56 -18.5t-22 -52.5z
" />
    <glyph glyph-name="arrowleft" unicode="&#x2190;" horiz-adv-x="670" 
d="M111 318h509v-48h-510l239 -248l-36 -33l-291 304l291 305l37 -32z" />
    <glyph glyph-name="arrowup" unicode="&#x2191;" horiz-adv-x="690" 
d="M321 512l-248 -239l-33 36l304 291l305 -291l-32 -37l-247 239v-511h-49v512z" />
    <glyph glyph-name="arrowright" unicode="&#x2192;" horiz-adv-x="670" 
d="M35 318h509l-237 248l37 32l289 -305l-288 -304l-36 33l237 248h-511v48z" />
    <glyph glyph-name="arrowdown" unicode="&#x2193;" horiz-adv-x="694" 
d="M40 281l33 36l247 -239v511h49v-512l248 240l32 -36l-303 -292z" />
    <glyph glyph-name="uni2196" unicode="&#x2196;" horiz-adv-x="692" 
d="M672 35l-35 -35l-505 508v-399h-47v480h467v-46h-387z" />
    <glyph glyph-name="uni2197" unicode="&#x2197;" horiz-adv-x="692" 
d="M55 0l-35 35l507 508h-388v46h467v-480h-46v399z" />
    <glyph glyph-name="uni2198" unicode="&#x2198;" horiz-adv-x="692" 
d="M20 554l35 35l505 -507v398h46v-480h-467v46h388z" />
    <glyph glyph-name="uni2199" unicode="&#x2199;" horiz-adv-x="692" 
d="M637 589l35 -35l-507 -508h387v-46h-467v480h47v-398z" />
    <glyph glyph-name="partialdiff" unicode="&#x2202;" horiz-adv-x="490" 
d="M217 31q79 0 124.5 71t45.5 169q0 151 -125 151q-78 0 -124 -69.5t-46 -166.5q0 -76 33 -115.5t92 -39.5zM377 407h3q-46 184 -262 237l37 28q142 -38 212.5 -131.5t70.5 -262.5q0 -123 -60 -205t-166 -82q-79 0 -124.5 49t-45.5 141q0 117 59 200.5t160 83.5
q39 0 69.5 -16.5t46.5 -41.5z" />
    <glyph glyph-name="increment" unicode="&#x2206;" horiz-adv-x="548" 
d="M497 0h-515l327 589h69zM262 408l-199 -363h371l-72 362l-24 147h-3q-21 -52 -73 -146z" />
    <glyph glyph-name="product" unicode="&#x220f;" horiz-adv-x="583" 
d="M53 -202h-52l139 791h426l-139 -791h-52l131 742h-322z" />
    <glyph glyph-name="summation" unicode="&#x2211;" horiz-adv-x="440" 
d="M271 300l-198 289h384l-8 -46h-212l-75 2v-4q24 -26 51 -67l120 -179l-183 -180q-22 -22 -41.5 -39t-28.5 -24l-9 -6v-3q30 3 93 3h198l-8 -46h-384z" />
    <glyph glyph-name="minus" unicode="&#x2212;" horiz-adv-x="496" 
d="M49 265h408l-6 -34h-408z" />
    <glyph glyph-name="radical" unicode="&#x221a;" horiz-adv-x="514" 
d="M177 456l68 -400h4l299 630l47 -6l-325 -680h-58l-76 383l-116 -59l-13 41z" />
    <glyph glyph-name="infinity" unicode="&#x221e;" horiz-adv-x="863" 
d="M197 121q74 0 134 60l73 72l-42 59q-28 40 -55.5 56t-64.5 16q-61 0 -103.5 -45t-42.5 -114q0 -49 28.5 -76.5t72.5 -27.5zM427 222l-68 -66q-79 -77 -166 -77q-65 0 -104.5 38.5t-39.5 102.5q0 87 56.5 146.5t141.5 59.5q90 0 151 -88l37 -55l68 67q78 76 166 76
q65 0 104.5 -38.5t39.5 -102.5q0 -87 -57 -146.5t-141 -59.5q-90 0 -151 88zM665 384q-73 0 -134 -60l-74 -72l41 -58q29 -40 56.5 -56.5t65.5 -16.5q61 0 103.5 45t42.5 114q0 49 -28.5 76.5t-72.5 27.5z" />
    <glyph glyph-name="integral" unicode="&#x222b;" horiz-adv-x="260" 
d="M45 -94l114 651q22 112 118 112q46 0 78 -30l-16 -41q-25 28 -58 28q-58 0 -70 -70l-114 -651q-20 -112 -118 -112q-47 0 -78 29l16 41q25 -28 58 -28q58 0 70 71z" />
    <glyph glyph-name="approxequal" unicode="&#x2248;" horiz-adv-x="525" 
d="M381 299q51 0 100 49l-7 -44q-40 -39 -99 -39q-38 0 -107.5 25.5t-106.5 25.5q-54 0 -103 -51l7 40q41 45 99 45q37 0 108 -25.5t109 -25.5zM360 180q53 0 100 50l-7 -45q-41 -40 -99 -40q-38 0 -107.5 26t-106.5 26q-54 0 -103 -51l7 41q41 44 99 44q37 0 108 -25.5
t109 -25.5z" />
    <glyph glyph-name="notequal" unicode="&#x2260;" 
d="M59 68l97 96h-117l6 34h146l94 93h-224l6 35h252l115 112l24 -23l-91 -89h108l-6 -35h-137l-95 -93h216l-6 -34h-245l-120 -119z" />
    <glyph glyph-name="lessequal" unicode="&#x2264;" horiz-adv-x="448" 
d="M335 21h-306l6 34h306zM79 289l292 199l22 -31l-252 -171l187 -170l-29 -27z" />
    <glyph glyph-name="greaterequal" unicode="&#x2265;" horiz-adv-x="448" 
d="M331 21h-306l6 34h306zM391 288l-292 -199l-22 31l252 171l-187 170l28 27z" />
    <glyph glyph-name="blacksquare" unicode="&#x25a0;" horiz-adv-x="768" 
d="M89 0v589h589v-589h-589z" />
    <glyph glyph-name="whitesquare" unicode="&#x25a1;" horiz-adv-x="768" 
d="M89 0v589h589v-589h-589zM132 546v-503h503v503h-503z" />
    <glyph glyph-name="blacksmallsquare" unicode="&#x25aa;" horiz-adv-x="505" 
d="M89 139v325h326v-325h-326z" />
    <glyph glyph-name="whitesmallsquare" unicode="&#x25ab;" horiz-adv-x="505" 
d="M89 139v325h326v-325h-326zM132 421v-239h240v239h-240z" />
    <glyph glyph-name="triagup" unicode="&#x25b2;" horiz-adv-x="580" 
d="M33 0l245 601l246 -601h-491z" />
    <glyph glyph-name="triagrt" unicode="&#x25ba;" horiz-adv-x="695" 
d="M79 536l601 -245l-601 -246v491z" />
    <glyph glyph-name="triagdn" unicode="&#x25bc;" horiz-adv-x="580" 
d="M314 -12l-245 601h491z" />
    <glyph glyph-name="triaglf" unicode="&#x25c4;" horiz-adv-x="695" 
d="M4 291l601 245v-491z" />
    <glyph glyph-name="lozenge" unicode="&#x25ca;" horiz-adv-x="506" 
d="M207 23l201 284l-99 271l-200 -278zM218 -29h-37l-121 333l238 327h37l122 -327z" />
    <glyph glyph-name="whitecircle" unicode="&#x25cb;" horiz-adv-x="712" 
d="M49 294q0 127 89.5 217t216.5 90t217 -90t90 -217t-90 -216.5t-217 -89.5t-216.5 89.5t-89.5 216.5zM93 293q0 -110 76.5 -187.5t185.5 -77.5q108 0 185 78t77 187q0 110 -77 188.5t-185 78.5q-109 0 -185.5 -78.5t-76.5 -188.5z" />
    <glyph glyph-name="whitecircle" unicode="&#x25ef;" horiz-adv-x="712" 
d="M49 294q0 127 89.5 217t216.5 90t217 -90t90 -217t-90 -216.5t-217 -89.5t-216.5 89.5t-89.5 216.5zM93 293q0 -110 76.5 -187.5t185.5 -77.5q108 0 185 78t77 187q0 110 -77 188.5t-185 78.5q-109 0 -185.5 -78.5t-76.5 -188.5z" />
    <glyph glyph-name="blackcircle" unicode="&#x25cf;" horiz-adv-x="712" 
d="M49 294q0 127 89.5 217t216.5 90t217 -90t90 -217t-90 -216.5t-217 -89.5t-216.5 89.5t-89.5 216.5z" />
    <glyph glyph-name="anglebracketleft" unicode="&#x3008;" horiz-adv-x="328" 
d="M70 235l242 433h50l-241 -434l85 -437h-46z" />
    <glyph glyph-name="anglebracketright" unicode="&#x3009;" horiz-adv-x="327" 
d="M261 228l-242 -432h-51l242 434l-86 437h47z" />
    <glyph glyph-name="lcedilla" unicode="&#xe100;" horiz-adv-x="216" 
d="M159 -124q0 -38 -27.5 -59.5t-69.5 -21.5q-58 0 -86 40l19 32q24 -38 67 -38q24 0 39 12.5t15 34.5q0 47 -76 50l31 78q-21 15 -21 51q0 11 3 29l101 584h51l-101 -579q-3 -14 -3 -25q0 -29 28 -29q13 0 31 7l-8 -39q-18 -8 -40 -8q-11 0 -15 1l-17 -42q79 -13 79 -78z
" />
    <glyph glyph-name="uni004500600323" unicode="&#xe101;" horiz-adv-x="471" 
d="M387 46l-8 -46h-335l103 589h335l-8 -46h-281l-40 -225h251l-8 -46h-251l-40 -226h282zM336 642h-46l73 121h71zM141 -139q0 16 11 27.5t27 11.5t27 -11t11 -28q0 -16 -11 -27t-27 -11t-27 11t-11 27z" />
    <glyph glyph-name="uni006500600323" unicode="&#xe102;" horiz-adv-x="451" 
d="M348 125l46 -12q-40 -122 -176 -122q-84 0 -130 50.5t-46 142.5q0 125 63 206t158 81q77 0 115 -44.5t38 -113.5q0 -50 -19 -85h-305q-3 -20 -3 -40q0 -72 32.5 -114t96.5 -42q55 0 85 23t45 70zM261 429q-64 0 -105.5 -44.5t-57.5 -114.5h262q7 17 7 44q0 51 -26.5 83
t-79.5 32zM286 533h-43l80 136h71zM112 -139q0 17 10.5 28t26.5 11q17 0 28 -11t11 -28q0 -16 -11.5 -27t-27.5 -11t-26.5 11t-10.5 27z" />
    <glyph glyph-name="uni004500B40323" unicode="&#xe103;" horiz-adv-x="471" 
d="M387 46l-8 -46h-335l103 589h335l-8 -46h-281l-40 -225h251l-8 -46h-251l-40 -226h282zM342 642h-44l-80 121h70zM141 -139q0 16 11 27.5t27 11.5t27 -11t11 -28q0 -16 -11 -27t-27 -11t-27 11t-11 27z" />
    <glyph glyph-name="uni006500B40323" unicode="&#xe104;" horiz-adv-x="451" 
d="M348 125l46 -12q-40 -122 -176 -122q-84 0 -130 50.5t-46 142.5q0 125 63 206t158 81q77 0 115 -44.5t38 -113.5q0 -50 -19 -85h-305q-3 -20 -3 -40q0 -72 32.5 -114t96.5 -42q55 0 85 23t45 70zM261 429q-64 0 -105.5 -44.5t-57.5 -114.5h262q7 17 7 44q0 51 -26.5 83
t-79.5 32zM296 533h-42l-89 136h69zM112 -139q0 17 10.5 28t26.5 11q17 0 28 -11t11 -28q0 -16 -11.5 -27t-27.5 -11t-26.5 11t-10.5 27z" />
    <glyph glyph-name="Gtilde" unicode="&#xe105;" horiz-adv-x="579" 
d="M260 652l-34 1q-2 16 -2 22q0 34 21 55.5t53 21.5q29 0 61 -22l36 -27q20 -14 37 -14q35 0 39 58l33 -2q3 -10 3 -22q0 -33 -21.5 -54.5t-53.5 -21.5q-29 0 -61 22l-36 27q-19 13 -37 13q-35 0 -38 -57zM318 288h212l-51 -288h-42l8 99q-19 -49 -63.5 -78.5t-106.5 -29.5
q-102 0 -161 65t-59 173q0 169 85 269t212 100q76 0 124 -36.5t62 -105.5l-47 -20q-10 57 -49 87t-95 30q-106 0 -172 -91t-66 -229q0 -90 45 -143.5t127 -53.5q68 0 118 42.5t64 124.5l6 37h-160z" />
    <glyph glyph-name="gtilde" unicode="&#xe106;" horiz-adv-x="490" 
d="M332 -17l22 118q-19 -51 -60 -80.5t-95 -29.5q-71 0 -113.5 49t-42.5 138q0 123 63 208t163 85q54 0 88.5 -28.5t42.5 -78.5l25 98h42l-84 -477q-17 -99 -69.5 -147.5t-146.5 -48.5q-80 0 -123 34t-48 93l45 15q5 -49 38.5 -76t90.5 -27q133 0 162 155zM369 195l14 73
q11 65 -18 113t-93 48q-80 0 -130 -70.5t-50 -176.5q0 -69 30.5 -108.5t86.5 -39.5q61 0 104.5 44t55.5 117zM199 543l-34 2q-2 14 -2 22q0 33 21 54.5t53 21.5q29 0 61 -22l36 -27q19 -13 37 -13q35 0 39 57l33 -1q3 -12 3 -22q0 -33 -21.5 -55t-53.5 -22q-29 0 -61 22
l-36 27q-20 14 -37 14q-35 0 -38 -58z" />
    <glyph glyph-name="Gcommaturnedabove" unicode="&#xe107;" horiz-adv-x="579" 
d="M328 708q0 44 31.5 67.5t81.5 23.5v-26q-30 -1 -52.5 -13t-22.5 -34q0 -6 1 -9q7 5 16 5q13 0 22 -9t9 -23q0 -17 -10.5 -26.5t-28.5 -9.5q-20 0 -33.5 14t-13.5 40zM318 288h212l-51 -288h-42l8 99q-19 -49 -63.5 -78.5t-106.5 -29.5q-102 0 -161 65t-59 173
q0 169 85 269t212 100q76 0 124 -36.5t62 -105.5l-47 -20q-10 57 -49 87t-95 30q-106 0 -172 -91t-66 -229q0 -90 45 -143.5t127 -53.5q68 0 118 42.5t64 124.5l6 37h-160z" />
    <glyph glyph-name="gcommaturnedabove" unicode="&#xe108;" horiz-adv-x="490" 
d="M332 -17l22 118q-19 -51 -60 -80.5t-95 -29.5q-71 0 -113.5 49t-42.5 138q0 123 63 208t163 85q54 0 88.5 -28.5t42.5 -78.5l25 98h42l-84 -477q-17 -99 -69.5 -147.5t-146.5 -48.5q-80 0 -123 34t-48 93l45 15q5 -49 38.5 -76t90.5 -27q133 0 162 155zM369 195l14 73
q11 65 -18 113t-93 48q-80 0 -130 -70.5t-50 -176.5q0 -69 30.5 -108.5t86.5 -39.5q61 0 104.5 44t55.5 117zM260 599q0 44 31.5 67.5t81.5 23.5v-26q-31 -1 -53.5 -12.5t-22.5 -33.5q0 -4 2 -10q7 5 15 5q14 0 22.5 -9t8.5 -23q0 -16 -10.5 -26t-27.5 -10q-20 0 -33.5 14
t-13.5 40z" />
    <glyph glyph-name="Hmacronbelow" unicode="&#xe109;" horiz-adv-x="614" 
d="M540 589h53l-102 -589h-54l47 274h-339l-47 -274h-54l103 589h54l-47 -268h339zM360 -169h-240l8 42h240z" />
    <glyph glyph-name="hmacronbelow" unicode="&#xe10a;" horiz-adv-x="493" 
d="M338 84l39 222q5 32 5 46q0 35 -20 55t-59 20q-56 0 -103.5 -44.5t-61.5 -128.5l-44 -254h-51l116 668h52l-56 -314q23 54 64 85.5t97 31.5q54 0 85.5 -28t31.5 -81q0 -22 -6 -57l-38 -216q0 -2 -1.5 -11t-1.5 -14q0 -29 28 -29q13 0 31 7l-7 -39q-18 -8 -40 -8
q-63 0 -63 60q0 11 3 29zM311 -169h-240l8 42h240z" />
    <glyph glyph-name="Jcaron" unicode="&#xe10b;" horiz-adv-x="419" 
d="M355 589h54l-75 -425q-17 -94 -60.5 -133.5t-124.5 -39.5q-67 0 -107 33t-50 88l44 26q20 -104 116 -104q59 0 88 32t42 107zM404 642h-31l-93 125h57l34 -48l22 -38h2q11 16 35 39l51 47h60z" />
    <glyph glyph-name="Kcedilla" unicode="&#xe10d;" horiz-adv-x="493" 
d="M442 0h-60l-181 274h-56l-47 -274h-54l103 589h54l-47 -269h49l263 269h65l-287 -289zM279 -124q0 -38 -28 -59.5t-70 -21.5q-57 0 -85 40l19 32q23 -38 66 -38q24 0 39 12.5t15 34.5q0 47 -75 50l31 79h30l-21 -51q79 -13 79 -78z" />
    <glyph glyph-name="kcedilla" unicode="&#xe10e;" horiz-adv-x="431" 
d="M364 36q16 0 35 8l-8 -41q-19 -8 -43 -8q-45 0 -74 56l-98 179h-42l-40 -230h-51l116 668h52l-70 -399h40l188 193h63l-212 -211l93 -172q23 -43 51 -43zM251 -124q0 -38 -28 -59.5t-70 -21.5q-57 0 -85 40l19 32q23 -38 66 -38q24 0 39 12.5t15 34.5q0 47 -75 50l31 79
h30l-21 -51q79 -13 79 -78z" />
    <glyph glyph-name="Lcedilla" unicode="&#xe10f;" horiz-adv-x="436" 
d="M278 -124q0 -38 -27.5 -59.5t-69.5 -21.5q-58 0 -86 40l19 32q24 -38 67 -38q24 0 39 12.5t15 34.5q0 47 -76 50l29 74h-144l103 589h54l-96 -543h273l-7 -46h-153l-19 -46q79 -13 79 -78z" />
    <glyph glyph-name="ocedilla" unicode="&#xe110;" horiz-adv-x="480" 
d="M263 -124q0 -38 -28 -59.5t-70 -21.5q-57 0 -85 40l19 32q23 -38 66 -38q24 0 39 12.5t15 34.5q0 47 -75 50l27 70q-61 11 -95 59.5t-34 128.5q0 119 60.5 203t166.5 84q81 0 125 -51t44 -143q0 -119 -60.5 -202.5t-165.5 -83.5h-14l-14 -37q79 -13 79 -78zM217 32
q79 0 125 71.5t46 170.5q0 75 -32.5 114t-93.5 39q-78 0 -124 -70t-46 -168q0 -77 32.5 -117t92.5 -40z" />
    <glyph glyph-name="Mmacron" unicode="&#xe111;" horiz-adv-x="690" 
d="M534 667h-221l6 41h222zM353 147h-40l-94 267q-11 30 -18.5 55.5t-10.5 36.5l-2 11h-3q-3 -32 -15 -103l-72 -414h-54l103 589h63l111 -320l19 -70h3q9 25 39 68l224 322h64l-102 -589h-54l72 414l21 103h-3q-16 -35 -62 -101z" />
    <glyph glyph-name="mmacron" unicode="&#xe112;" horiz-adv-x="745" 
d="M419 350q48 121 157 121q51 0 80 -28t29 -81q0 -22 -6 -57l-37 -216q-3 -13 -3 -25q0 -29 28 -29q13 0 30 7l-7 -39q-18 -8 -40 -8q-63 0 -63 60q0 11 3 29l39 222q6 29 6 46q0 75 -76 75q-52 0 -96 -45t-59 -128l-44 -254h-50l53 306q6 29 6 46q0 75 -76 75
q-52 0 -96 -45t-59 -128l-44 -254h-50l80 462h44l-12 -108q50 117 154 117q49 0 77.5 -26.5t30.5 -76.5q0 -3 0.5 -8.5t0.5 -9.5zM542 564h-222l8 43h222z" />
    <glyph glyph-name="Mcedilla" unicode="&#xe113;" horiz-adv-x="690" 
d="M377 -124q0 -38 -28 -59.5t-70 -21.5q-58 0 -86 40l19 32q24 -38 67 -38q24 0 39 12.5t15 34.5q0 47 -75 50l30 79h30l-21 -51q80 -13 80 -78zM353 147h-40l-94 267q-11 30 -18.5 55.5t-10.5 36.5l-2 11h-3q-3 -32 -15 -103l-72 -414h-54l103 589h63l111 -320l19 -70h3
q9 25 39 68l224 322h64l-102 -589h-54l72 414l21 103h-3q-16 -35 -62 -101z" />
    <glyph glyph-name="mcedilla" unicode="&#xe114;" horiz-adv-x="745" 
d="M409 -124q0 -38 -27.5 -59.5t-69.5 -21.5q-58 0 -86 40l19 32q24 -38 67 -38q24 0 39 12.5t15 34.5q0 47 -76 50l29 74h-9l53 306q6 29 6 46q0 75 -76 75q-52 0 -96 -45t-59 -128l-44 -254h-50l80 462h44l-12 -108q50 117 154 117q49 0 77.5 -26.5t30.5 -76.5
q0 -3 0.5 -8.5t0.5 -9.5q48 121 157 121q51 0 80 -28t29 -81q0 -22 -6 -57l-37 -216q-3 -13 -3 -25q0 -29 28 -29q13 0 30 7l-7 -39q-18 -8 -40 -8q-63 0 -63 60q0 11 3 29l39 222q6 29 6 46q0 75 -76 75q-52 0 -96 -45t-59 -128l-44 -254h-11l-19 -46q79 -13 79 -78z" />
    <glyph glyph-name="Ndieresis" unicode="&#xe115;" horiz-adv-x="613" 
d="M256 690q0 16 11 27t27 11t27 -11t11 -27t-11 -27t-27 -11t-27 11t-11 27zM428 689q0 16 10.5 27t26.5 11q17 0 27.5 -10.5t10.5 -27.5q0 -16 -11 -27t-27 -11t-26.5 11t-10.5 27zM204 589l196 -406q13 -27 25 -55.5t17 -43.5l6 -15h3q7 59 19 125l69 395h53l-102 -589
h-56l-198 405l-50 114h-3q-4 -58 -16 -124l-69 -395h-54l103 589h57z" />
    <glyph glyph-name="ndieresis" unicode="&#xe116;" horiz-adv-x="494" 
d="M339 84l39 222q5 32 5 46q0 35 -20 55t-59 20q-56 0 -103.5 -44.5t-62.5 -128.5l-44 -254h-50l80 462h44l-12 -108q23 54 64 85.5t96 31.5t86.5 -28t31.5 -81q0 -22 -6 -57l-38 -216q0 -2 -1.5 -11t-1.5 -14q0 -29 28 -29q13 0 31 7l-7 -39q-19 -8 -41 -8q-62 0 -62 60
q0 11 3 29zM182 595q0 16 11 27t27 11t27 -11t11 -27t-11 -27t-27 -11t-27 11t-11 27zM354 594q0 16 11 27t26 11q17 0 27.5 -11t10.5 -27q0 -15 -11 -26t-27 -11q-15 0 -26 11t-11 26z" />
    <glyph glyph-name="Nmacron" unicode="&#xe117;" horiz-adv-x="613" 
d="M489 667h-222l7 41h222zM204 589l196 -406q13 -27 25 -55.5t17 -43.5l6 -15h3q7 59 19 125l69 395h53l-102 -589h-56l-198 405l-50 114h-3q-4 -58 -16 -124l-69 -395h-54l103 589h57z" />
    <glyph glyph-name="nmacron" unicode="&#xe118;" horiz-adv-x="494" 
d="M339 84l39 222q5 32 5 46q0 35 -20 55t-59 20q-56 0 -103.5 -44.5t-62.5 -128.5l-44 -254h-50l80 462h44l-12 -108q23 54 64 85.5t96 31.5t86.5 -28t31.5 -81q0 -22 -6 -57l-38 -216q0 -2 -1.5 -11t-1.5 -14q0 -29 28 -29q13 0 31 7l-7 -39q-19 -8 -41 -8q-62 0 -62 60
q0 11 3 29zM407 564h-222l8 43h221z" />
    <glyph glyph-name="Ncedilla" unicode="&#xe119;" horiz-adv-x="613" 
d="M331 -124q0 -38 -27.5 -59.5t-70.5 -21.5q-57 0 -85 40l19 32q23 -38 66 -38q24 0 39 12.5t15 34.5q0 47 -75 50l31 79h30l-21 -51q79 -13 79 -78zM204 589l196 -406q13 -27 25 -55.5t17 -43.5l6 -15h3q7 59 19 125l69 395h53l-102 -589h-56l-198 405l-50 114h-3
q-4 -58 -16 -124l-69 -395h-54l103 589h57z" />
    <glyph glyph-name="ncedilla" unicode="&#xe11a;" horiz-adv-x="494" 
d="M339 84l39 222q5 32 5 46q0 35 -20 55t-59 20q-56 0 -103.5 -44.5t-62.5 -128.5l-44 -254h-50l80 462h44l-12 -108q23 54 64 85.5t96 31.5t86.5 -28t31.5 -81q0 -22 -6 -57l-38 -216q0 -2 -1.5 -11t-1.5 -14q0 -29 28 -29q13 0 31 7l-7 -39q-19 -8 -41 -8q-62 0 -62 60
q0 11 3 29zM284 -124q0 -38 -28 -59.5t-70 -21.5q-57 0 -85 40l19 32q23 -38 66 -38q24 0 39 12.5t15 34.5q0 47 -75 50l31 79h30l-21 -51q79 -13 79 -78z" />
    <glyph glyph-name="Ocommaturnedabove" unicode="&#xe11b;" horiz-adv-x="610" 
d="M281 36q104 0 170 90.5t66 228.5q0 90 -44 143.5t-128 53.5q-104 0 -170 -90.5t-66 -228.5q0 -91 45.5 -144t126.5 -53zM277 -9q-103 0 -162.5 65t-59.5 174q0 167 85 267.5t210 100.5q102 0 162 -65t60 -175q0 -167 -85 -267t-210 -100zM335 703q0 44 31.5 67.5
t81.5 23.5v-25q-31 -2 -53.5 -13.5t-22.5 -33.5q0 -4 2 -10q6 6 15 6q14 0 22.5 -9.5t8.5 -23.5q0 -16 -10.5 -25.5t-27.5 -9.5q-21 0 -34 13.5t-13 39.5z" />
    <glyph glyph-name="ocommaturnedabove" unicode="&#xe11c;" horiz-adv-x="480" 
d="M217 32q79 0 125 71.5t46 170.5q0 75 -32.5 114t-93.5 39q-78 0 -124 -70t-46 -168q0 -77 32.5 -117t92.5 -40zM212 -9q-79 0 -124.5 50t-45.5 143q0 119 60.5 203t166.5 84q81 0 125 -51t44 -143q0 -119 -60.5 -202.5t-165.5 -83.5zM251 599q0 43 31.5 66.5t81.5 23.5
v-25q-30 -1 -52.5 -13t-22.5 -34q0 -7 1 -10q6 6 16 6q13 0 22 -9.5t9 -23.5q0 -35 -39 -35q-20 0 -33.5 14t-13.5 40z" />
    <glyph glyph-name="uni004F02D900AF" unicode="&#xe11d;" horiz-adv-x="610" 
d="M281 36q104 0 170 90.5t66 228.5q0 90 -44 143.5t-128 53.5q-104 0 -170 -90.5t-66 -228.5q0 -91 45.5 -144t126.5 -53zM277 -9q-103 0 -162.5 65t-59.5 174q0 167 85 267.5t210 100.5q102 0 162 -65t60 -175q0 -167 -85 -267t-210 -100zM336 662q0 16 11 27.5t26 11.5
q17 0 28 -11.5t11 -27.5t-11.5 -27t-27.5 -11q-15 0 -26 11t-11 27zM504 738h-222l7 41h222z" />
    <glyph glyph-name="Ocedilla" unicode="&#xe11f;" horiz-adv-x="610" 
d="M330 -124q0 -38 -28 -59.5t-70 -21.5q-59 0 -85 40l19 32q23 -38 66 -38q24 0 39 12.5t15 34.5q0 47 -75 50l26 68q-85 11 -133.5 74t-48.5 162q0 167 85 267.5t210 100.5q102 0 162 -65t60 -175q0 -167 -85 -267t-210 -100h-12l-14 -37q79 -13 79 -78zM281 36
q104 0 170 90.5t66 228.5q0 90 -44 143.5t-128 53.5q-104 0 -170 -90.5t-66 -228.5q0 -91 45.5 -144t126.5 -53z" />
    <glyph glyph-name="Ounderlineaccent" unicode="&#xe121;" horiz-adv-x="610" 
d="M281 36q104 0 170 90.5t66 228.5q0 90 -44 143.5t-128 53.5q-104 0 -170 -90.5t-66 -228.5q0 -91 45.5 -144t126.5 -53zM277 -9q-103 0 -162.5 65t-59.5 174q0 167 85 267.5t210 100.5q102 0 162 -65t60 -175q0 -167 -85 -267t-210 -100zM217 -198l20 143h42l-21 -141z
" />
    <glyph glyph-name="ounderlineaccent" unicode="&#xe122;" horiz-adv-x="480" 
d="M217 32q79 0 125 71.5t46 170.5q0 75 -32.5 114t-93.5 39q-78 0 -124 -70t-46 -168q0 -77 32.5 -117t92.5 -40zM212 -9q-79 0 -124.5 50t-45.5 143q0 119 60.5 203t166.5 84q81 0 125 -51t44 -143q0 -119 -60.5 -202.5t-165.5 -83.5zM153 -198l21 143h42l-21 -141z" />
    <glyph glyph-name="Pmacron" unicode="&#xe123;" horiz-adv-x="470" 
d="M193 544l-47 -268h105q80 0 125 41.5t45 119.5q0 55 -31 81t-96 26h-101zM98 0h-54l103 589h153q176 0 176 -148q0 -101 -61.5 -155t-164.5 -54h-112zM420 667h-221l6 41h222z" />
    <glyph glyph-name="pmacron" unicode="&#xe124;" horiz-adv-x="513" 
d="M167 462l-13 -108q21 53 64.5 85t99.5 32q73 0 113 -48.5t40 -139.5q0 -126 -62 -209t-164 -83q-55 0 -91.5 30t-43.5 76l-52 -300h-50l116 665h43zM139 263l-14 -77q-11 -59 21 -105.5t96 -46.5q80 0 128.5 71.5t48.5 177.5q0 69 -30 107t-85 38q-59 0 -105.5 -46
t-59.5 -119zM427 564h-222l7 43h222z" />
    <glyph glyph-name="Rdoublegrave" unicode="&#xe125;" horiz-adv-x="526" 
d="M463 0h-57q-15 20 -21 59l-14 104q-7 53 -33.5 74.5t-83.5 21.5h-111l-45 -259h-54l103 589h177q170 0 170 -139q0 -78 -48.5 -122.5t-115.5 -47.5v-3q42 -6 63.5 -29t28.5 -74l16 -109q6 -40 25 -65zM193 544l-42 -240h125q76 0 119.5 35.5t43.5 104.5q0 100 -122 100
h-124zM286 642h-40l-89 121h67zM408 642h-39l-83 121h65z" />
    <glyph glyph-name="rdoublegrave" unicode="&#xe126;" horiz-adv-x="314" 
d="M333 465l-14 -58q-16 7 -35 7q-52 0 -93.5 -42t-53.5 -110l-45 -262h-51l80 462h44l-13 -114q20 53 58.5 88t89.5 35q17 0 33 -6zM193 533h-40l-89 136h67zM315 533h-38l-84 136h66z" />
    <glyph glyph-name="Rcedilla" unicode="&#xe127;" horiz-adv-x="526" 
d="M463 0h-57q-15 20 -21 59l-14 104q-7 53 -33.5 74.5t-83.5 21.5h-111l-45 -259h-54l103 589h177q170 0 170 -139q0 -78 -48.5 -122.5t-115.5 -47.5v-3q42 -6 63.5 -29t28.5 -74l16 -109q6 -40 25 -65zM193 544l-42 -240h125q76 0 119.5 35.5t43.5 104.5q0 100 -122 100
h-124zM297 -124q0 -38 -27.5 -59.5t-69.5 -21.5q-58 0 -86 40l19 32q24 -38 67 -38q24 0 39 12.5t15 34.5q0 47 -76 50l31 79h30l-21 -51q79 -13 79 -78z" />
    <glyph glyph-name="rcedilla" unicode="&#xe128;" horiz-adv-x="314" 
d="M143 -124q0 -38 -27.5 -59.5t-70.5 -21.5q-57 0 -85 40l19 32q23 -38 66 -38q24 0 39 12.5t15 34.5q0 47 -75 50l29 74h-12l80 462h44l-13 -114q20 53 58.5 88t89.5 35q17 0 33 -6l-14 -58q-16 7 -35 7q-52 0 -93.5 -42t-53.5 -110l-45 -262h-9l-19 -46q79 -13 79 -78z
" />
    <glyph glyph-name="Tcedilla" unicode="&#xe129;" horiz-adv-x="476" 
d="M268 -124q0 -38 -27.5 -59.5t-69.5 -21.5q-58 0 -86 40l19 32q24 -38 67 -38q24 0 39 12.5t15 34.5q0 47 -76 50l29 74h-10l95 543h-194l8 46h437l-8 -46h-190l-94 -543h-14l-19 -46q79 -13 79 -78z" />
    <glyph glyph-name="tcedilla" unicode="&#xe12a;" horiz-adv-x="295" 
d="M196 -124q0 -38 -28 -59.5t-70 -21.5q-57 0 -85 40l19 32q23 -38 66 -38q24 0 39 12.5t15 34.5q0 47 -75 50l28 73q-48 19 -48 82q0 23 4 44l52 295h-64l7 42h65l18 97l51 8l-18 -105h121l-8 -42h-121l-52 -300q-4 -16 -4 -32q0 -54 52 -54q44 0 81 29l4 -43
q-39 -29 -91 -29q-4 0 -11.5 0.5t-10.5 0.5l-15 -38q79 -13 79 -78z" />
    <glyph glyph-name="Umacronbelow" unicode="&#xe12b;" horiz-adv-x="574" 
d="M512 589h53l-69 -399q-35 -199 -237 -199q-89 0 -143 45.5t-54 132.5q0 27 6 58l63 362h53l-64 -366q-4 -29 -4 -51q0 -68 40.5 -102.5t107.5 -34.5q151 0 180 164zM334 -169h-239l7 42h240z" />
    <glyph glyph-name="umacronbelow" unicode="&#xe12c;" horiz-adv-x="484" 
d="M435 462l-65 -373q-3 -14 -3 -25q0 -29 28 -29q13 0 31 7l-8 -39q-18 -8 -40 -8q-61 0 -61 58q0 11 7 52q-42 -114 -157 -114q-57 0 -88 30t-31 86q0 21 6 55l52 300h51l-54 -309q-4 -17 -4 -42q0 -37 21 -58.5t60 -21.5q56 0 100.5 44t57.5 118l46 269h51zM282 -169
h-240l8 42h240z" />
    <glyph glyph-name="R.alt" unicode="&#xe141;" horiz-adv-x="506" 
d="M451 0h-60l-143 252h-107l-44 -252h-53l103 589h163q173 0 173 -142q0 -85 -52.5 -133.5t-129.5 -55.5zM192 544l-44 -249h110q81 0 125.5 36.5t44.5 109.5q0 103 -121 103h-115z" />
    <glyph glyph-name="Racute.alt" unicode="&#xe142;" horiz-adv-x="506" 
d="M451 0h-60l-143 252h-107l-44 -252h-53l103 589h163q173 0 173 -142q0 -85 -52.5 -133.5t-129.5 -55.5zM192 544l-44 -249h110q81 0 125.5 36.5t44.5 109.5q0 103 -121 103h-115zM341 642h-46l73 121h71z" />
    <glyph glyph-name="Rcaron.alt" unicode="&#xe143;" horiz-adv-x="506" 
d="M451 0h-60l-143 252h-107l-44 -252h-53l103 589h163q173 0 173 -142q0 -85 -52.5 -133.5t-129.5 -55.5zM192 544l-44 -249h110q81 0 125.5 36.5t44.5 109.5q0 103 -121 103h-115zM335 642h-31l-93 125h57l34 -48l22 -38h2q11 16 35 39l51 47h60z" />
    <glyph glyph-name="Rinvertedbreve.alt" unicode="&#xe144;" horiz-adv-x="506" 
d="M451 0h-60l-143 252h-107l-44 -252h-53l103 589h163q173 0 173 -142q0 -85 -52.5 -133.5t-129.5 -55.5zM192 544l-44 -249h110q81 0 125.5 36.5t44.5 109.5q0 103 -121 103h-115zM342 765q48 0 74 -24t26 -68q0 -15 -3 -31h-41q1 8 1 22q0 61 -63 61q-73 0 -95 -83h-42
q10 58 48 90.5t95 32.5z" />
    <glyph glyph-name="Rdoublegrave.alt" unicode="&#xe145;" horiz-adv-x="506" 
d="M451 0h-60l-143 252h-107l-44 -252h-53l103 589h163q173 0 173 -142q0 -85 -52.5 -133.5t-129.5 -55.5zM192 544l-44 -249h110q81 0 125.5 36.5t44.5 109.5q0 103 -121 103h-115zM276 642h-40l-89 121h67zM398 642h-39l-83 121h65z" />
    </font>
</defs>
</svg>
